%TF.GenerationSoftware,Altium Limited,Altium Designer,22.0.2 (36)*%
G04 Layer_Physical_Order=3*
G04 Layer_Color=16440176*
%FSLAX45Y45*%
%MOMM*%
%TF.SameCoordinates,6C3A6253-EFF2-48E9-9C48-1F107FDFC152*%
%TF.FilePolarity,Positive*%
%TF.FileFunction,Copper,L3,Inr,Signal*%
%TF.Part,Single*%
G01*
G75*
%TA.AperFunction,ComponentPad*%
%ADD17C,1.80000*%
%ADD18C,1.40000*%
%ADD19R,1.40000X1.40000*%
%ADD20O,3.00000X4.00000*%
%ADD21C,1.20000*%
%ADD22O,0.80000X0.40000*%
%ADD23C,0.65000*%
%ADD24C,3.60000*%
%ADD25C,8.00000*%
%ADD26C,2.60000*%
%ADD27C,1.50000*%
%ADD28C,2.10000*%
%ADD29C,1.30000*%
%TA.AperFunction,ViaPad*%
%ADD30C,6.00000*%
%TA.AperFunction,WasherPad*%
%ADD31O,0.40000X0.80000*%
%ADD32O,0.80000X0.40000*%
%TA.AperFunction,ViaPad*%
%ADD33C,0.65000*%
%ADD34C,0.70000*%
%TA.AperFunction,Conductor*%
%ADD38C,0.60000*%
G36*
X4694250Y7205113D02*
Y6014514D01*
X4485486Y5805750D01*
X914513Y5805750D01*
X510132Y6210132D01*
X486530Y6229501D01*
X459603Y6243894D01*
X430385Y6252757D01*
X400000Y6255750D01*
X450D01*
Y6983899D01*
X13150Y6989582D01*
X59747Y6947940D01*
X124327Y6902119D01*
X193630Y6863816D01*
X266786Y6833514D01*
X342876Y6811593D01*
X420941Y6798329D01*
X500000Y6793889D01*
X579059Y6798329D01*
X657124Y6811593D01*
X733214Y6833514D01*
X806370Y6863816D01*
X875673Y6902119D01*
X940253Y6947940D01*
X999296Y7000704D01*
X1052060Y7059747D01*
X1097881Y7124327D01*
X1136184Y7193630D01*
X1166486Y7266786D01*
X1188407Y7342876D01*
X1201671Y7420941D01*
X1206111Y7500000D01*
X1201671Y7579059D01*
X1188407Y7657124D01*
X1166486Y7733214D01*
X1136184Y7806370D01*
X1097881Y7875673D01*
X1052060Y7940253D01*
X1010418Y7986850D01*
X1016101Y7999550D01*
X3899814D01*
X4694250Y7205113D01*
D02*
G37*
G36*
X8389582Y6986849D02*
X8347941Y6940253D01*
X8302120Y6875673D01*
X8263817Y6806370D01*
X8233514Y6733214D01*
X8211593Y6657124D01*
X8198330Y6579059D01*
X8197506Y6564393D01*
X8185105Y6561653D01*
X8183679Y6564321D01*
X8163685Y6588685D01*
X8139322Y6608679D01*
X8111526Y6623536D01*
X8081366Y6632685D01*
X8050000Y6635774D01*
X8018635Y6632685D01*
X7988474Y6623536D01*
X7960679Y6608679D01*
X7936316Y6588685D01*
X7916321Y6564321D01*
X7901464Y6536526D01*
X7892315Y6506365D01*
X7889226Y6475000D01*
X7892315Y6443635D01*
X7901464Y6413474D01*
X7916321Y6385679D01*
X7936316Y6361315D01*
X7960679Y6341321D01*
X7988474Y6326464D01*
X8018635Y6317315D01*
X8050000Y6314226D01*
X8081366Y6317315D01*
X8111526Y6326464D01*
X8139322Y6341321D01*
X8163685Y6361315D01*
X8183679Y6385679D01*
X8189567Y6396695D01*
X8202815Y6394539D01*
X8211593Y6342876D01*
X8233514Y6266786D01*
X8263817Y6193630D01*
X8302120Y6124327D01*
X8347941Y6059747D01*
X8400705Y6000704D01*
X8459748Y5947940D01*
X8524327Y5902119D01*
X8593631Y5863816D01*
X8666787Y5833514D01*
X8742876Y5811593D01*
X8820941Y5798329D01*
X8832012Y5797707D01*
X8834634Y5784840D01*
X8803550Y5769511D01*
X8757772Y5738923D01*
X8731447Y5715838D01*
X9014000Y5433285D01*
X9296553Y5715837D01*
X9270228Y5738923D01*
X9224450Y5769511D01*
X9175072Y5793862D01*
X9122937Y5811559D01*
X9110307Y5814072D01*
X9109773Y5826761D01*
X9133214Y5833514D01*
X9206370Y5863816D01*
X9275674Y5902119D01*
X9340253Y5947940D01*
X9363408Y5968632D01*
X9375000Y5963445D01*
Y5642580D01*
X9362847Y5638893D01*
X9347923Y5661228D01*
X9324837Y5687553D01*
X9042284Y5405001D01*
X9324838Y5122447D01*
X9347923Y5148772D01*
X9362847Y5171107D01*
X9375000Y5167420D01*
Y1832580D01*
X9362847Y1828893D01*
X9347923Y1851228D01*
X9324837Y1877553D01*
X9042285Y1595000D01*
X9324838Y1312447D01*
X9347923Y1338772D01*
X9362847Y1361107D01*
X9375000Y1357420D01*
Y1036555D01*
X9363408Y1031368D01*
X9340253Y1052060D01*
X9275674Y1097881D01*
X9206370Y1136184D01*
X9133214Y1166486D01*
X9109772Y1173240D01*
X9110306Y1185929D01*
X9122937Y1188441D01*
X9175072Y1206138D01*
X9224450Y1230489D01*
X9270228Y1261077D01*
X9296553Y1284163D01*
X9014001Y1566716D01*
X8731447Y1284163D01*
X8757772Y1261077D01*
X8803550Y1230489D01*
X8834634Y1215160D01*
X8832012Y1202292D01*
X8820941Y1201671D01*
X8742876Y1188407D01*
X8666787Y1166486D01*
X8593631Y1136184D01*
X8524327Y1097881D01*
X8459748Y1052060D01*
X8400705Y999296D01*
X8347941Y940253D01*
X8302120Y875673D01*
X8263817Y806370D01*
X8233514Y733214D01*
X8211593Y657124D01*
X8198330Y579059D01*
X8193890Y500000D01*
X8198330Y420941D01*
X8211593Y342876D01*
X8233514Y266786D01*
X8263817Y193630D01*
X8302120Y124327D01*
X8347941Y59747D01*
X8389582Y13150D01*
X8383899Y450D01*
X1016101D01*
X1010418Y13150D01*
X1052060Y59747D01*
X1097881Y124327D01*
X1136184Y193630D01*
X1166486Y266786D01*
X1188407Y342876D01*
X1201671Y420941D01*
X1206111Y500000D01*
X1201671Y579059D01*
X1188407Y657124D01*
X1166486Y733214D01*
X1136184Y806370D01*
X1097881Y875673D01*
X1052060Y940253D01*
X999296Y999296D01*
X940253Y1052060D01*
X875673Y1097881D01*
X806370Y1136184D01*
X733214Y1166486D01*
X657124Y1188407D01*
X579059Y1201671D01*
X500000Y1206111D01*
X482673Y1205138D01*
X478061Y1216971D01*
X480791Y1219210D01*
X502034Y1245096D01*
X517820Y1274629D01*
X520509Y1283492D01*
X521359Y1283709D01*
X533690Y1283193D01*
X541386Y1264612D01*
X555812Y1245811D01*
X574613Y1231385D01*
X596506Y1222317D01*
X620001Y1219224D01*
X643496Y1222317D01*
X665389Y1231385D01*
X684189Y1245811D01*
X691997Y1255986D01*
X708005D01*
X715812Y1245811D01*
X734613Y1231385D01*
X756506Y1222317D01*
X780001Y1219224D01*
X803495Y1222317D01*
X825389Y1231385D01*
X844189Y1245811D01*
X858615Y1264612D01*
X859046Y1265652D01*
X867576Y1265860D01*
X911716Y1310000D01*
X867577Y1354140D01*
X859046Y1354348D01*
X858615Y1355388D01*
X844189Y1374189D01*
X825389Y1388614D01*
X803495Y1397683D01*
X780001Y1400776D01*
X756506Y1397683D01*
X734613Y1388614D01*
X715812Y1374189D01*
X708005Y1364014D01*
X691997D01*
X684189Y1374189D01*
X665389Y1388614D01*
X643496Y1397683D01*
X620001Y1400776D01*
X596506Y1397683D01*
X574613Y1388614D01*
X555812Y1374189D01*
X543523Y1358173D01*
X531188Y1361210D01*
X530823Y1361418D01*
Y1440000D01*
X527541Y1473326D01*
X517820Y1505371D01*
X502034Y1534904D01*
X493540Y1545254D01*
X374143Y1425858D01*
X360001Y1440000D01*
X345859Y1425858D01*
X226462Y1545254D01*
X217967Y1534904D01*
X202181Y1505371D01*
X192461Y1473326D01*
X189178Y1440000D01*
Y1340000D01*
X192461Y1306674D01*
X202181Y1274629D01*
X217967Y1245096D01*
X226462Y1234746D01*
X345859Y1354142D01*
X374143Y1325858D01*
X254746Y1206461D01*
X265097Y1197967D01*
X287891Y1185783D01*
X286452Y1172152D01*
X266786Y1166486D01*
X193630Y1136184D01*
X124327Y1097881D01*
X59747Y1052060D01*
X13150Y1010418D01*
X450Y1016101D01*
Y5944250D01*
X335487D01*
X739867Y5539869D01*
X763469Y5520499D01*
X790396Y5506106D01*
X819614Y5497243D01*
X849999Y5494250D01*
X4550000Y5494250D01*
X4580385Y5497243D01*
X4609603Y5506106D01*
X4636530Y5520499D01*
X4660132Y5539868D01*
X4960132Y5839868D01*
X4979501Y5863470D01*
X4993894Y5890397D01*
X5002757Y5919615D01*
X5005750Y5950000D01*
Y6999548D01*
X5098204D01*
X5098209Y6999549D01*
X5100110D01*
X8383899Y6999550D01*
X8389582Y6986849D01*
D02*
G37*
%LPC*%
G36*
X3462528Y7902049D02*
X3420381Y7897898D01*
X3379853Y7885604D01*
X3342502Y7865640D01*
X3309764Y7838772D01*
X3282897Y7806034D01*
X3262933Y7768684D01*
X3250639Y7728156D01*
X3246488Y7686009D01*
X3250639Y7643862D01*
X3262933Y7603334D01*
X3282897Y7565983D01*
X3309764Y7533245D01*
X3342502Y7506378D01*
X3379853Y7486414D01*
X3420381Y7474120D01*
X3462528Y7469969D01*
X3504675Y7474120D01*
X3545203Y7486414D01*
X3582553Y7506378D01*
X3615291Y7533245D01*
X3642159Y7565983D01*
X3662123Y7603334D01*
X3674417Y7643862D01*
X3678568Y7686009D01*
X3674417Y7728156D01*
X3662123Y7768684D01*
X3642159Y7806034D01*
X3615291Y7838772D01*
X3582553Y7865640D01*
X3545203Y7885604D01*
X3504675Y7897898D01*
X3462528Y7902049D01*
D02*
G37*
G36*
X1512528Y7902049D02*
X1470380Y7897898D01*
X1429853Y7885604D01*
X1392502Y7865639D01*
X1359764Y7838772D01*
X1332897Y7806034D01*
X1312932Y7768683D01*
X1300638Y7728156D01*
X1296487Y7686009D01*
X1300638Y7643861D01*
X1312932Y7603334D01*
X1332897Y7565983D01*
X1359764Y7533245D01*
X1392502Y7506378D01*
X1429853Y7486413D01*
X1470380Y7474119D01*
X1512528Y7469968D01*
X1554675Y7474119D01*
X1595203Y7486413D01*
X1632553Y7506378D01*
X1665291Y7533245D01*
X1692158Y7565983D01*
X1712123Y7603334D01*
X1724417Y7643861D01*
X1728568Y7686009D01*
X1724417Y7728156D01*
X1712123Y7768683D01*
X1692158Y7806034D01*
X1665291Y7838772D01*
X1632553Y7865639D01*
X1595203Y7885604D01*
X1554675Y7897898D01*
X1512528Y7902049D01*
D02*
G37*
G36*
X2720000Y7363724D02*
X2695614Y7358874D01*
X2674940Y7345060D01*
X2661126Y7324386D01*
X2656275Y7300000D01*
X2661126Y7275614D01*
X2674940Y7254940D01*
X2695614Y7241126D01*
X2720000Y7236275D01*
X2744386Y7241126D01*
X2765060Y7254940D01*
X2778874Y7275614D01*
X2783724Y7300000D01*
X2778874Y7324386D01*
X2765060Y7345060D01*
X2744386Y7358874D01*
X2720000Y7363724D01*
D02*
G37*
G36*
X2065515Y7171922D02*
X2040715Y7168657D01*
X2036242Y7166805D01*
X2072835Y7103424D01*
X2136216Y7140017D01*
X2133269Y7143857D01*
X2113424Y7159085D01*
X2090314Y7168657D01*
X2065515Y7171922D01*
D02*
G37*
G36*
X4015515Y7171923D02*
X3990715Y7168658D01*
X3986242Y7166805D01*
X4022835Y7103424D01*
X4086217Y7140017D01*
X4083269Y7143858D01*
X4063425Y7159085D01*
X4040315Y7168658D01*
X4015515Y7171923D01*
D02*
G37*
G36*
X2001601Y7146805D02*
X1997760Y7143857D01*
X1982532Y7124013D01*
X1972960Y7100903D01*
X1969695Y7076103D01*
X1972960Y7051303D01*
X1974812Y7046831D01*
X2038194Y7083424D01*
X2001601Y7146805D01*
D02*
G37*
G36*
X3951601D02*
X3947760Y7143858D01*
X3932533Y7124013D01*
X3922960Y7100903D01*
X3919695Y7076103D01*
X3922960Y7051303D01*
X3924813Y7046831D01*
X3988194Y7083423D01*
X3951601Y7146805D01*
D02*
G37*
G36*
X4106217Y7105376D02*
X4042835Y7068782D01*
X4079428Y7005401D01*
X4083269Y7008349D01*
X4098497Y7028193D01*
X4108070Y7051303D01*
X4111334Y7076103D01*
X4108070Y7100903D01*
X4106217Y7105376D01*
D02*
G37*
G36*
X2156216D02*
X2092835Y7068783D01*
X2129428Y7005401D01*
X2133269Y7008348D01*
X2148497Y7028193D01*
X2158069Y7051303D01*
X2161334Y7076103D01*
X2158069Y7100903D01*
X2156216Y7105376D01*
D02*
G37*
G36*
X4008194Y7048782D02*
X3944813Y7012189D01*
X3947760Y7008349D01*
X3967605Y6993121D01*
X3990715Y6983549D01*
X4015515Y6980284D01*
X4040315Y6983549D01*
X4044787Y6985401D01*
X4008194Y7048782D01*
D02*
G37*
G36*
X2058194D02*
X1994813Y7012190D01*
X1997760Y7008348D01*
X2017605Y6993121D01*
X2040715Y6983548D01*
X2065515Y6980283D01*
X2090314Y6983548D01*
X2094787Y6985401D01*
X2058194Y7048782D01*
D02*
G37*
G36*
X3768145Y7170646D02*
X3740734Y7167037D01*
X3715192Y7156458D01*
X3693258Y7139627D01*
X3676428Y7117693D01*
X3665848Y7092151D01*
X3662239Y7064740D01*
X3665848Y7037330D01*
X3676427Y7011787D01*
X3693258Y6989853D01*
X3715192Y6973023D01*
X3740734Y6962443D01*
X3768145Y6958834D01*
X3795555Y6962443D01*
X3821098Y6973023D01*
X3843032Y6989853D01*
X3859862Y7011787D01*
X3870442Y7037330D01*
X3874051Y7064740D01*
X3870442Y7092151D01*
X3859862Y7117693D01*
X3843032Y7139627D01*
X3821098Y7156457D01*
X3795555Y7167037D01*
X3768145Y7170646D01*
D02*
G37*
G36*
X1818145Y7170646D02*
X1790735Y7167037D01*
X1765192Y7156457D01*
X1743258Y7139627D01*
X1726428Y7117693D01*
X1715848Y7092150D01*
X1712239Y7064740D01*
X1715848Y7037329D01*
X1726428Y7011787D01*
X1743258Y6989853D01*
X1765192Y6973023D01*
X1790735Y6962443D01*
X1818145Y6958834D01*
X1845555Y6962443D01*
X1871098Y6973022D01*
X1893032Y6989853D01*
X1909862Y7011787D01*
X1920442Y7037329D01*
X1924051Y7064740D01*
X1920442Y7092150D01*
X1909862Y7117693D01*
X1893032Y7139627D01*
X1871098Y7156457D01*
X1845555Y7167037D01*
X1818145Y7170646D01*
D02*
G37*
G36*
X2153810Y6951295D02*
X2126400Y6947687D01*
X2100857Y6937107D01*
X2078923Y6920276D01*
X2062093Y6898342D01*
X2051513Y6872800D01*
X2047904Y6845389D01*
X2051513Y6817979D01*
X2062093Y6792437D01*
X2078923Y6770503D01*
X2100857Y6753672D01*
X2126400Y6743092D01*
X2153810Y6739484D01*
X2181221Y6743092D01*
X2206763Y6753672D01*
X2228697Y6770503D01*
X2245527Y6792437D01*
X2256108Y6817979D01*
X2259716Y6845389D01*
X2256108Y6872800D01*
X2245528Y6898342D01*
X2228697Y6920276D01*
X2206763Y6937107D01*
X2181221Y6947687D01*
X2153810Y6951295D01*
D02*
G37*
G36*
X4103810Y6951295D02*
X4076400Y6947686D01*
X4050857Y6937106D01*
X4028923Y6920276D01*
X4012093Y6898342D01*
X4001513Y6872799D01*
X3997904Y6845389D01*
X4001513Y6817978D01*
X4012093Y6792436D01*
X4028923Y6770502D01*
X4050857Y6753672D01*
X4076400Y6743092D01*
X4103810Y6739483D01*
X4131221Y6743092D01*
X4156763Y6753672D01*
X4178697Y6770502D01*
X4195527Y6792436D01*
X4206107Y6817978D01*
X4209716Y6845389D01*
X4206107Y6872799D01*
X4195528Y6898342D01*
X4178697Y6920276D01*
X4156763Y6937106D01*
X4131221Y6947686D01*
X4103810Y6951295D01*
D02*
G37*
G36*
X1753440Y6929164D02*
X1726030Y6925555D01*
X1700487Y6914976D01*
X1678553Y6898145D01*
X1661723Y6876211D01*
X1651143Y6850669D01*
X1647534Y6823258D01*
X1651143Y6795848D01*
X1661723Y6770305D01*
X1678553Y6748371D01*
X1700487Y6731541D01*
X1726030Y6720961D01*
X1753440Y6717352D01*
X1780850Y6720961D01*
X1806393Y6731541D01*
X1828327Y6748371D01*
X1845157Y6770305D01*
X1855737Y6795848D01*
X1859346Y6823258D01*
X1855737Y6850669D01*
X1845157Y6876211D01*
X1828327Y6898145D01*
X1806393Y6914975D01*
X1780850Y6925555D01*
X1753440Y6929164D01*
D02*
G37*
G36*
X3703440Y6929164D02*
X3676030Y6925555D01*
X3650487Y6914975D01*
X3628553Y6898145D01*
X3611723Y6876211D01*
X3601143Y6850668D01*
X3597534Y6823258D01*
X3601143Y6795847D01*
X3611723Y6770305D01*
X3628553Y6748371D01*
X3650487Y6731541D01*
X3676030Y6720961D01*
X3703440Y6717352D01*
X3730851Y6720961D01*
X3756393Y6731541D01*
X3778327Y6748371D01*
X3795157Y6770305D01*
X3805737Y6795847D01*
X3809346Y6823258D01*
X3805737Y6850668D01*
X3795158Y6876211D01*
X3778327Y6898145D01*
X3756393Y6914975D01*
X3730851Y6925555D01*
X3703440Y6929164D01*
D02*
G37*
G36*
X3125000Y6738529D02*
X3104515Y6734454D01*
X3087149Y6722851D01*
X3082637Y6716097D01*
X3067363D01*
X3062850Y6722851D01*
X3045484Y6734454D01*
X3025000Y6738529D01*
X3004515Y6734454D01*
X3004104Y6734179D01*
X3039141Y6699142D01*
X3024999Y6685000D01*
X3039141Y6670858D01*
X3004105Y6635821D01*
X3004515Y6635547D01*
X3014206Y6633619D01*
X3024891Y6630665D01*
X3023425Y6619822D01*
X3021471Y6610000D01*
X3023425Y6600179D01*
X3024891Y6589335D01*
X3014206Y6586382D01*
X3004515Y6584454D01*
X3004105Y6584180D01*
X3039143Y6549142D01*
X3025000Y6535000D01*
X3039143Y6520857D01*
X3004105Y6485820D01*
X3004515Y6485546D01*
X3025000Y6481472D01*
X3045484Y6485546D01*
X3062850Y6497150D01*
X3067363Y6503903D01*
X3082637D01*
X3087149Y6497150D01*
X3104515Y6485546D01*
X3125000Y6481472D01*
X3145484Y6485546D01*
X3145895Y6485821D01*
X3110858Y6520857D01*
X3125000Y6535000D01*
X3110858Y6549142D01*
X3145895Y6584179D01*
X3145484Y6584454D01*
X3135793Y6586382D01*
X3125109Y6589335D01*
X3126574Y6600179D01*
X3128528Y6610000D01*
X3126574Y6619822D01*
X3125109Y6630665D01*
X3135793Y6633619D01*
X3145484Y6635547D01*
X3145894Y6635821D01*
X3110857Y6670858D01*
X3124999Y6685000D01*
X3110857Y6699142D01*
X3145894Y6734180D01*
X3145484Y6734454D01*
X3125000Y6738529D01*
D02*
G37*
G36*
X2975820Y6705895D02*
X2975546Y6705485D01*
X2971471Y6685000D01*
X2975546Y6664516D01*
X2975820Y6664106D01*
X2996715Y6685000D01*
X2975820Y6705895D01*
D02*
G37*
G36*
X3174179Y6705895D02*
X3153284Y6685000D01*
X3174179Y6664105D01*
X3174453Y6664516D01*
X3178528Y6685000D01*
X3174453Y6705485D01*
X3174179Y6705895D01*
D02*
G37*
G36*
X3911987Y6795638D02*
X3884577Y6792030D01*
X3859034Y6781450D01*
X3837100Y6764619D01*
X3820270Y6742686D01*
X3809690Y6717143D01*
X3806081Y6689733D01*
X3809690Y6662322D01*
X3820270Y6636780D01*
X3837100Y6614846D01*
X3859034Y6598016D01*
X3884577Y6587435D01*
X3911987Y6583827D01*
X3939398Y6587435D01*
X3964940Y6598015D01*
X3986874Y6614846D01*
X4003704Y6636780D01*
X4014284Y6662322D01*
X4017893Y6689733D01*
X4014284Y6717143D01*
X4003704Y6742686D01*
X3986874Y6764619D01*
X3964940Y6781450D01*
X3939398Y6792030D01*
X3911987Y6795638D01*
D02*
G37*
G36*
X1961987D02*
X1934577Y6792030D01*
X1909034Y6781450D01*
X1887100Y6764619D01*
X1870270Y6742686D01*
X1859690Y6717143D01*
X1856081Y6689733D01*
X1859690Y6662322D01*
X1870270Y6636780D01*
X1887100Y6614846D01*
X1909034Y6598016D01*
X1934577Y6587435D01*
X1961987Y6583827D01*
X1989398Y6587435D01*
X2014940Y6598015D01*
X2036874Y6614846D01*
X2053704Y6636780D01*
X2064284Y6662322D01*
X2067893Y6689733D01*
X2064284Y6717143D01*
X2053705Y6742686D01*
X2036874Y6764619D01*
X2014940Y6781450D01*
X1989398Y6792030D01*
X1961987Y6795638D01*
D02*
G37*
G36*
X3325000Y6673725D02*
X3300613Y6668874D01*
X3279940Y6655060D01*
X3266126Y6634387D01*
X3261275Y6610000D01*
X3266126Y6585614D01*
X3279940Y6564940D01*
X3300613Y6551126D01*
X3325000Y6546276D01*
X3349386Y6551126D01*
X3370060Y6564940D01*
X3383874Y6585614D01*
X3388724Y6610000D01*
X3383874Y6634387D01*
X3370060Y6655060D01*
X3349386Y6668874D01*
X3325000Y6673725D01*
D02*
G37*
G36*
X3174180Y6555894D02*
X3153285Y6535000D01*
X3174179Y6514105D01*
X3174453Y6514516D01*
X3178528Y6535000D01*
X3174453Y6555484D01*
X3174180Y6555894D01*
D02*
G37*
G36*
X2975820Y6555895D02*
X2975546Y6555484D01*
X2971471Y6535000D01*
X2975546Y6514516D01*
X2975821Y6514104D01*
X2996716Y6535000D01*
X2975820Y6555895D01*
D02*
G37*
G36*
X3465000Y6515561D02*
X3448031Y6513327D01*
X3432220Y6506777D01*
X3418642Y6496358D01*
X3408223Y6482780D01*
X3401673Y6466969D01*
X3399439Y6450000D01*
X3401673Y6433032D01*
X3408223Y6417220D01*
X3418642Y6403642D01*
X3432220Y6393223D01*
X3448031Y6386673D01*
X3465000Y6384439D01*
X3481968Y6386673D01*
X3497780Y6393223D01*
X3511358Y6403642D01*
X3521777Y6417220D01*
X3528327Y6433032D01*
X3530561Y6450000D01*
X3528327Y6466969D01*
X3521777Y6482780D01*
X3511358Y6496358D01*
X3497780Y6506777D01*
X3481968Y6513327D01*
X3465000Y6515561D01*
D02*
G37*
G36*
X1530000Y6213724D02*
X1505614Y6208874D01*
X1484940Y6195060D01*
X1471126Y6174386D01*
X1466275Y6150000D01*
X1471126Y6125614D01*
X1484940Y6104940D01*
X1505614Y6091126D01*
X1530000Y6086275D01*
X1554386Y6091126D01*
X1575060Y6104940D01*
X1588874Y6125614D01*
X1593725Y6150000D01*
X1588874Y6174386D01*
X1575060Y6195060D01*
X1554386Y6208874D01*
X1530000Y6213724D01*
D02*
G37*
G36*
X4361967Y6344173D02*
X4319820Y6340022D01*
X4279292Y6327728D01*
X4241942Y6307764D01*
X4209204Y6280897D01*
X4182337Y6248158D01*
X4162372Y6210808D01*
X4150078Y6170280D01*
X4145927Y6128133D01*
X4150078Y6085986D01*
X4162372Y6045458D01*
X4182337Y6008108D01*
X4209204Y5975370D01*
X4241942Y5948502D01*
X4279292Y5928538D01*
X4319820Y5916244D01*
X4361967Y5912093D01*
X4404115Y5916244D01*
X4444642Y5928538D01*
X4481993Y5948502D01*
X4514731Y5975370D01*
X4541598Y6008108D01*
X4561563Y6045458D01*
X4573856Y6085986D01*
X4578008Y6128133D01*
X4573856Y6170280D01*
X4561563Y6210808D01*
X4541598Y6248158D01*
X4514731Y6280897D01*
X4481993Y6307764D01*
X4444642Y6327728D01*
X4404115Y6340022D01*
X4361967Y6344173D01*
D02*
G37*
G36*
X2411967D02*
X2369820Y6340022D01*
X2329292Y6327728D01*
X2291942Y6307764D01*
X2259204Y6280897D01*
X2232336Y6248158D01*
X2212372Y6210808D01*
X2200078Y6170280D01*
X2195927Y6128133D01*
X2200078Y6085986D01*
X2212372Y6045458D01*
X2232336Y6008108D01*
X2259204Y5975370D01*
X2291942Y5948502D01*
X2329292Y5928538D01*
X2369820Y5916244D01*
X2411967Y5912093D01*
X2454114Y5916244D01*
X2494642Y5928538D01*
X2531993Y5948502D01*
X2564731Y5975370D01*
X2591598Y6008108D01*
X2611562Y6045458D01*
X2623856Y6085986D01*
X2628007Y6128133D01*
X2623856Y6170280D01*
X2611562Y6210808D01*
X2591598Y6248158D01*
X2564731Y6280897D01*
X2531993Y6307764D01*
X2494642Y6327728D01*
X2454114Y6340022D01*
X2411967Y6344173D01*
D02*
G37*
G36*
X5427000Y6986819D02*
X5402200Y6983554D01*
X5379090Y6973982D01*
X5359246Y6958754D01*
X5344018Y6938910D01*
X5334446Y6915800D01*
X5331181Y6891000D01*
X5334446Y6866200D01*
X5344018Y6843090D01*
X5359246Y6823245D01*
X5379090Y6808018D01*
X5402200Y6798445D01*
X5427000Y6795180D01*
X5451800Y6798445D01*
X5474910Y6808018D01*
X5494755Y6823245D01*
X5509982Y6843090D01*
X5519555Y6866200D01*
X5522820Y6891000D01*
X5519555Y6915800D01*
X5509982Y6938910D01*
X5494755Y6958754D01*
X5474910Y6973982D01*
X5451800Y6983554D01*
X5427000Y6986819D01*
D02*
G37*
G36*
X5173000D02*
X5148200Y6983554D01*
X5125090Y6973982D01*
X5105246Y6958754D01*
X5090018Y6938910D01*
X5080446Y6915800D01*
X5077181Y6891000D01*
X5080446Y6866200D01*
X5090018Y6843090D01*
X5105246Y6823245D01*
X5125090Y6808018D01*
X5148200Y6798445D01*
X5173000Y6795180D01*
X5197800Y6798445D01*
X5220910Y6808018D01*
X5240755Y6823245D01*
X5255982Y6843090D01*
X5265555Y6866200D01*
X5268820Y6891000D01*
X5265555Y6915800D01*
X5255982Y6938910D01*
X5240755Y6958754D01*
X5220910Y6973982D01*
X5197800Y6983554D01*
X5173000Y6986819D01*
D02*
G37*
G36*
X7180001Y6930000D02*
X6920001D01*
Y6900000D01*
X6550000D01*
Y6600000D01*
X6920001D01*
Y6570000D01*
X7180001D01*
Y6600000D01*
X7345000D01*
Y6900000D01*
X7180001D01*
Y6930000D01*
D02*
G37*
G36*
X5800000Y6635774D02*
X5768635Y6632685D01*
X5738474Y6623536D01*
X5710679Y6608679D01*
X5686316Y6588685D01*
X5666321Y6564321D01*
X5651464Y6536526D01*
X5642315Y6506365D01*
X5639226Y6475000D01*
X5642315Y6443635D01*
X5651464Y6413474D01*
X5666321Y6385679D01*
X5686316Y6361315D01*
X5710679Y6341321D01*
X5738474Y6326464D01*
X5768635Y6317315D01*
X5800000Y6314226D01*
X5831366Y6317315D01*
X5861526Y6326464D01*
X5889321Y6341321D01*
X5913685Y6361315D01*
X5933679Y6385679D01*
X5948536Y6413474D01*
X5957685Y6443635D01*
X5960774Y6475000D01*
X5957685Y6506365D01*
X5948536Y6536526D01*
X5933679Y6564321D01*
X5913685Y6588685D01*
X5889321Y6608679D01*
X5861526Y6623536D01*
X5831366Y6632685D01*
X5800000Y6635774D01*
D02*
G37*
G36*
X5427000Y6214733D02*
X5404811Y6211812D01*
X5384134Y6203247D01*
X5382382Y6201903D01*
X5427000Y6157284D01*
X5471618Y6201903D01*
X5469867Y6203247D01*
X5449190Y6211812D01*
X5427000Y6214733D01*
D02*
G37*
G36*
X5499903Y6173618D02*
X5455284Y6129000D01*
X5499903Y6084382D01*
X5501247Y6086133D01*
X5509812Y6106810D01*
X5512733Y6129000D01*
X5509812Y6151189D01*
X5501247Y6171866D01*
X5499903Y6173618D01*
D02*
G37*
G36*
X5354097Y6173619D02*
X5352753Y6171866D01*
X5344188Y6151189D01*
X5341267Y6129000D01*
X5344188Y6106810D01*
X5352753Y6086133D01*
X5354097Y6084382D01*
X5398716Y6129000D01*
X5354097Y6173619D01*
D02*
G37*
G36*
X5427000Y6100716D02*
X5382382Y6056097D01*
X5384134Y6054753D01*
X5404811Y6046188D01*
X5427000Y6043267D01*
X5449190Y6046188D01*
X5469867Y6054753D01*
X5471619Y6056097D01*
X5427000Y6100716D01*
D02*
G37*
G36*
X5173000Y6224819D02*
X5148200Y6221554D01*
X5125090Y6211982D01*
X5105246Y6196754D01*
X5090018Y6176910D01*
X5080446Y6153800D01*
X5077181Y6129000D01*
X5080446Y6104200D01*
X5090018Y6081090D01*
X5105246Y6061245D01*
X5125090Y6046018D01*
X5148200Y6036445D01*
X5173000Y6033180D01*
X5197800Y6036445D01*
X5220910Y6046018D01*
X5240755Y6061245D01*
X5255982Y6081090D01*
X5265555Y6104200D01*
X5268820Y6129000D01*
X5265555Y6153800D01*
X5255982Y6176910D01*
X5240755Y6196754D01*
X5220910Y6211982D01*
X5197800Y6221554D01*
X5173000Y6224819D01*
D02*
G37*
G36*
X6428805Y5854923D02*
X6393563Y5850283D01*
X6360722Y5836680D01*
X6332521Y5815041D01*
X6310882Y5786840D01*
X6297280Y5754000D01*
X6292640Y5718758D01*
X6297280Y5683516D01*
X6310882Y5650676D01*
X6332521Y5622475D01*
X6360722Y5600836D01*
X6393563Y5587233D01*
X6428805Y5582593D01*
X6464047Y5587233D01*
X6496887Y5600836D01*
X6525088Y5622475D01*
X6546727Y5650676D01*
X6560330Y5683516D01*
X6564969Y5718758D01*
X6560330Y5754000D01*
X6546727Y5786840D01*
X6525088Y5815041D01*
X6496887Y5836680D01*
X6464047Y5850283D01*
X6428805Y5854923D01*
D02*
G37*
G36*
X7125000Y5905871D02*
X6925000D01*
X6889714Y5902395D01*
X6855784Y5892103D01*
X6824514Y5875389D01*
X6797105Y5852895D01*
X6774612Y5825486D01*
X6757898Y5794216D01*
X6747605Y5760286D01*
X6744130Y5725000D01*
X6747605Y5689714D01*
X6757898Y5655784D01*
X6774612Y5624514D01*
X6797105Y5597105D01*
X6824514Y5574611D01*
X6855784Y5557897D01*
X6889714Y5547605D01*
X6925000Y5544129D01*
X7125000D01*
X7160287Y5547605D01*
X7194217Y5557897D01*
X7225487Y5574611D01*
X7252896Y5597105D01*
X7275389Y5624514D01*
X7292103Y5655784D01*
X7302396Y5689714D01*
X7305871Y5725000D01*
X7302396Y5760286D01*
X7292103Y5794216D01*
X7275389Y5825486D01*
X7252896Y5852895D01*
X7225487Y5875389D01*
X7194217Y5892103D01*
X7160287Y5902395D01*
X7125000Y5905871D01*
D02*
G37*
G36*
X200000Y5731122D02*
X166064Y5726654D01*
X134439Y5713555D01*
X107283Y5692717D01*
X86446Y5665561D01*
X73347Y5633937D01*
X68879Y5600000D01*
X73347Y5566064D01*
X86446Y5534439D01*
X107283Y5507283D01*
X134439Y5486445D01*
X166064Y5473346D01*
X200000Y5468879D01*
X233937Y5473346D01*
X265561Y5486445D01*
X292717Y5507283D01*
X313555Y5534439D01*
X326654Y5566064D01*
X331122Y5600000D01*
X326654Y5633937D01*
X313555Y5665561D01*
X292717Y5692717D01*
X265561Y5713555D01*
X233937Y5726654D01*
X200000Y5731122D01*
D02*
G37*
G36*
X5300000Y5836137D02*
X5253932Y5831600D01*
X5209635Y5818162D01*
X5168810Y5796341D01*
X5133026Y5766974D01*
X5103660Y5731191D01*
X5081838Y5690366D01*
X5068401Y5646068D01*
X5063863Y5600000D01*
X5068401Y5553932D01*
X5081838Y5509635D01*
X5103660Y5468809D01*
X5133026Y5433026D01*
X5168810Y5403659D01*
X5209635Y5381838D01*
X5253932Y5368400D01*
X5300000Y5363863D01*
X5346068Y5368400D01*
X5390366Y5381838D01*
X5431191Y5403659D01*
X5466974Y5433026D01*
X5496341Y5468809D01*
X5518162Y5509635D01*
X5531600Y5553932D01*
X5536137Y5600000D01*
X5531600Y5646068D01*
X5518162Y5690366D01*
X5496341Y5731191D01*
X5466974Y5766974D01*
X5431191Y5796341D01*
X5390366Y5818162D01*
X5346068Y5831600D01*
X5300000Y5836137D01*
D02*
G37*
G36*
X400000Y5483725D02*
X375614Y5478874D01*
X354940Y5465060D01*
X341127Y5444386D01*
X336276Y5420000D01*
X341127Y5395614D01*
X354940Y5374940D01*
X375614Y5361126D01*
X400000Y5356276D01*
X424387Y5361126D01*
X445061Y5374940D01*
X458874Y5395614D01*
X463725Y5420000D01*
X458874Y5444386D01*
X445061Y5465060D01*
X424387Y5478874D01*
X400000Y5483725D01*
D02*
G37*
G36*
X4510000Y5445733D02*
X4487811Y5442812D01*
X4467134Y5434247D01*
X4449377Y5420623D01*
X4435753Y5402867D01*
X4427188Y5382189D01*
X4424267Y5360000D01*
X4427188Y5337811D01*
X4435753Y5317133D01*
X4449377Y5299377D01*
X4467134Y5285753D01*
X4487811Y5277188D01*
X4510000Y5274267D01*
X4532190Y5277188D01*
X4552867Y5285753D01*
X4570623Y5299377D01*
X4584247Y5317133D01*
X4592812Y5337811D01*
X4595734Y5360000D01*
X4592812Y5382189D01*
X4584247Y5402867D01*
X4570623Y5420623D01*
X4552867Y5434247D01*
X4532190Y5442812D01*
X4510000Y5445733D01*
D02*
G37*
G36*
X3710000Y5343212D02*
X3688464Y5340377D01*
X3668394Y5332064D01*
X3651161Y5318840D01*
X3637937Y5301606D01*
X3629624Y5281537D01*
X3626789Y5260000D01*
X3629624Y5238463D01*
X3637937Y5218394D01*
X3651161Y5201161D01*
X3668394Y5187937D01*
X3688464Y5179624D01*
X3710000Y5176788D01*
X3731537Y5179624D01*
X3751606Y5187937D01*
X3768840Y5201161D01*
X3782064Y5218394D01*
X3790377Y5238463D01*
X3793212Y5260000D01*
X3790377Y5281537D01*
X3782064Y5301606D01*
X3768840Y5318840D01*
X3751606Y5332064D01*
X3731537Y5340377D01*
X3710000Y5343212D01*
D02*
G37*
G36*
X8703163Y5687553D02*
X8680077Y5661228D01*
X8649489Y5615451D01*
X8625138Y5566072D01*
X8607441Y5513937D01*
X8596700Y5459939D01*
X8593099Y5405000D01*
X8596700Y5350061D01*
X8607441Y5296063D01*
X8625138Y5243928D01*
X8649489Y5194550D01*
X8680077Y5148772D01*
X8703163Y5122447D01*
X8985716Y5405001D01*
X8703163Y5687553D01*
D02*
G37*
G36*
X1350000Y5173724D02*
X1325614Y5168874D01*
X1304940Y5155060D01*
X1291126Y5134386D01*
X1286276Y5110000D01*
X1291126Y5085614D01*
X1304940Y5064940D01*
X1325614Y5051126D01*
X1350000Y5046275D01*
X1374386Y5051126D01*
X1395060Y5064940D01*
X1408874Y5085614D01*
X1413725Y5110000D01*
X1408874Y5134386D01*
X1395060Y5155060D01*
X1374386Y5168874D01*
X1350000Y5173724D01*
D02*
G37*
G36*
X4810000Y5113725D02*
X4785614Y5108874D01*
X4764940Y5095060D01*
X4751126Y5074386D01*
X4746275Y5050000D01*
X4751126Y5025614D01*
X4764940Y5004940D01*
X4785614Y4991126D01*
X4810000Y4986276D01*
X4834386Y4991126D01*
X4855060Y5004940D01*
X4868874Y5025614D01*
X4873725Y5050000D01*
X4868874Y5074386D01*
X4855060Y5095060D01*
X4834386Y5108874D01*
X4810000Y5113725D01*
D02*
G37*
G36*
X9014000Y5376716D02*
X8731447Y5094163D01*
X8757772Y5071077D01*
X8803550Y5040489D01*
X8852928Y5016138D01*
X8905063Y4998441D01*
X8959061Y4987700D01*
X9014000Y4984099D01*
X9068939Y4987700D01*
X9122937Y4998441D01*
X9175072Y5016138D01*
X9224450Y5040489D01*
X9270228Y5071077D01*
X9296553Y5094163D01*
X9014000Y5376716D01*
D02*
G37*
G36*
X4190001Y5163725D02*
X4165614Y5158874D01*
X4144940Y5145060D01*
X4131127Y5124386D01*
X4126276Y5100000D01*
X4131127Y5075614D01*
X4129477Y5071631D01*
X4115614Y5068874D01*
X4094940Y5055060D01*
X4081126Y5034386D01*
X4076276Y5010000D01*
X4081126Y4985614D01*
X4094940Y4964940D01*
X4115614Y4951126D01*
X4140000Y4946276D01*
X4164387Y4951126D01*
X4185060Y4964940D01*
X4198874Y4985614D01*
X4203725Y5010000D01*
X4198874Y5034386D01*
X4200524Y5038369D01*
X4214387Y5041126D01*
X4235061Y5054940D01*
X4248874Y5075614D01*
X4253725Y5100000D01*
X4248874Y5124386D01*
X4235061Y5145060D01*
X4214387Y5158874D01*
X4190001Y5163725D01*
D02*
G37*
G36*
X2540000Y4808529D02*
X2519516Y4804454D01*
X2502150Y4792850D01*
X2497637Y4786097D01*
X2482363D01*
X2477851Y4792850D01*
X2460485Y4804454D01*
X2440000Y4808529D01*
X2419516Y4804454D01*
X2419105Y4804180D01*
X2454143Y4769142D01*
X2440001Y4755000D01*
X2454143Y4740858D01*
X2419106Y4705821D01*
X2419516Y4705546D01*
X2429207Y4703619D01*
X2439891Y4700665D01*
X2438426Y4689822D01*
X2436472Y4680000D01*
X2438426Y4670178D01*
X2439891Y4659335D01*
X2429207Y4656381D01*
X2419516Y4654454D01*
X2419106Y4654180D01*
X2454143Y4619142D01*
X2440001Y4605000D01*
X2454143Y4590858D01*
X2419106Y4555820D01*
X2419516Y4555546D01*
X2440000Y4551471D01*
X2460485Y4555546D01*
X2477851Y4567150D01*
X2482363Y4573903D01*
X2497637D01*
X2502150Y4567150D01*
X2519516Y4555546D01*
X2540000Y4551471D01*
X2560485Y4555546D01*
X2560896Y4555821D01*
X2525858Y4590858D01*
X2540001Y4605000D01*
X2525858Y4619142D01*
X2560895Y4654179D01*
X2560485Y4654454D01*
X2550794Y4656381D01*
X2540109Y4659335D01*
X2541575Y4670178D01*
X2543529Y4680000D01*
X2541575Y4689822D01*
X2540109Y4700665D01*
X2550794Y4703619D01*
X2560485Y4705546D01*
X2560895Y4705821D01*
X2525858Y4740858D01*
X2540001Y4755000D01*
X2525858Y4769142D01*
X2560896Y4804179D01*
X2560485Y4804454D01*
X2540000Y4808529D01*
D02*
G37*
G36*
X200000Y5031122D02*
X166064Y5026654D01*
X134439Y5013555D01*
X107283Y4992717D01*
X86446Y4965561D01*
X73347Y4933937D01*
X68879Y4900000D01*
X73347Y4866063D01*
X86446Y4834439D01*
X107283Y4807283D01*
X134439Y4786445D01*
X166064Y4773346D01*
X200000Y4768878D01*
X233937Y4773346D01*
X265561Y4786445D01*
X292717Y4807283D01*
X313555Y4834439D01*
X326654Y4866063D01*
X331122Y4900000D01*
X326654Y4933937D01*
X313555Y4965561D01*
X292717Y4992717D01*
X265561Y5013555D01*
X233937Y5026654D01*
X200000Y5031122D01*
D02*
G37*
G36*
X2730000Y4863725D02*
X2705614Y4858874D01*
X2684940Y4845060D01*
X2671126Y4824386D01*
X2666275Y4800000D01*
X2671126Y4775614D01*
X2684940Y4754940D01*
X2705614Y4741126D01*
X2730000Y4736276D01*
X2754386Y4741126D01*
X2775060Y4754940D01*
X2788874Y4775614D01*
X2793724Y4800000D01*
X2788874Y4824386D01*
X2775060Y4845060D01*
X2754386Y4858874D01*
X2730000Y4863725D01*
D02*
G37*
G36*
X2589180Y4775895D02*
X2568285Y4755000D01*
X2589180Y4734105D01*
X2589454Y4734516D01*
X2593529Y4755000D01*
X2589454Y4775484D01*
X2589180Y4775895D01*
D02*
G37*
G36*
X2390821Y4775895D02*
X2390547Y4775484D01*
X2386472Y4755000D01*
X2390547Y4734516D01*
X2390821Y4734105D01*
X2411716Y4755000D01*
X2390821Y4775895D01*
D02*
G37*
G36*
X6225000Y4765776D02*
X6201505Y4762683D01*
X6179612Y4753615D01*
X6176816Y4751469D01*
X6225000Y4703285D01*
X6273184Y4751469D01*
X6270388Y4753615D01*
X6248495Y4762683D01*
X6225000Y4765776D01*
D02*
G37*
G36*
X2249990Y4756225D02*
X2225604Y4751374D01*
X2204930Y4737560D01*
X2191116Y4716886D01*
X2186265Y4692500D01*
X2191116Y4668114D01*
X2204930Y4647440D01*
X2225604Y4633626D01*
X2249990Y4628776D01*
X2274376Y4633626D01*
X2295050Y4647440D01*
X2308864Y4668114D01*
X2313714Y4692500D01*
X2308864Y4716886D01*
X2295050Y4737560D01*
X2274376Y4751374D01*
X2249990Y4756225D01*
D02*
G37*
G36*
X6148531Y4723185D02*
X6146385Y4720388D01*
X6137317Y4698495D01*
X6134224Y4675000D01*
X6137317Y4651505D01*
X6146385Y4629612D01*
X6148531Y4626816D01*
X6196715Y4675000D01*
X6148531Y4723185D01*
D02*
G37*
G36*
X6301469D02*
X6253284Y4675000D01*
X6301469Y4626815D01*
X6303615Y4629612D01*
X6312683Y4651505D01*
X6315776Y4675000D01*
X6312683Y4698495D01*
X6303615Y4720388D01*
X6301469Y4723185D01*
D02*
G37*
G36*
X6225000Y4646716D02*
X6176815Y4598531D01*
X6179612Y4596386D01*
X6201505Y4587317D01*
X6225000Y4584224D01*
X6248495Y4587317D01*
X6270388Y4596386D01*
X6273184Y4598531D01*
X6225000Y4646716D01*
D02*
G37*
G36*
X2589180Y4625895D02*
X2568285Y4605000D01*
X2589180Y4584105D01*
X2589454Y4584516D01*
X2593529Y4605000D01*
X2589454Y4625484D01*
X2589180Y4625895D01*
D02*
G37*
G36*
X2390821Y4625895D02*
X2390547Y4625484D01*
X2386472Y4605000D01*
X2390547Y4584516D01*
X2390821Y4584105D01*
X2411716Y4605000D01*
X2390821Y4625895D01*
D02*
G37*
G36*
X3670001Y4688725D02*
X3645614Y4683874D01*
X3624940Y4670060D01*
X3611127Y4649386D01*
X3606276Y4625000D01*
X3611127Y4600614D01*
X3624940Y4579940D01*
X3645614Y4566126D01*
X3670001Y4561276D01*
X3694387Y4566126D01*
X3715061Y4579940D01*
X3717255Y4583225D01*
X3729955D01*
X3734940Y4575764D01*
X3755614Y4561950D01*
X3780001Y4557100D01*
X3804387Y4561950D01*
X3825061Y4575764D01*
X3838874Y4596438D01*
X3843725Y4620824D01*
X3838874Y4645211D01*
X3825061Y4665884D01*
X3804387Y4679698D01*
X3780001Y4684549D01*
X3755614Y4679698D01*
X3734940Y4665884D01*
X3732746Y4662600D01*
X3720046D01*
X3715061Y4670060D01*
X3694387Y4683874D01*
X3670001Y4688725D01*
D02*
G37*
G36*
X8662000Y4854016D02*
X8620833Y4849961D01*
X8581248Y4837953D01*
X8544766Y4818453D01*
X8512789Y4792211D01*
X8486547Y4760234D01*
X8467047Y4723752D01*
X8455039Y4684167D01*
X8450984Y4643000D01*
X8455039Y4601833D01*
X8467047Y4562248D01*
X8486547Y4525766D01*
X8512789Y4493789D01*
X8544766Y4467547D01*
X8581248Y4448047D01*
X8620833Y4436039D01*
X8662000Y4431984D01*
X8703167Y4436039D01*
X8742752Y4448047D01*
X8779234Y4467547D01*
X8811211Y4493789D01*
X8837453Y4525766D01*
X8856953Y4562248D01*
X8868961Y4601833D01*
X8873016Y4643000D01*
X8868961Y4684167D01*
X8856953Y4723752D01*
X8837453Y4760234D01*
X8811211Y4792211D01*
X8779234Y4818453D01*
X8742752Y4837953D01*
X8703167Y4849961D01*
X8662000Y4854016D01*
D02*
G37*
G36*
X7900000D02*
X7858833Y4849961D01*
X7819248Y4837953D01*
X7782766Y4818453D01*
X7750789Y4792211D01*
X7724547Y4760234D01*
X7705047Y4723752D01*
X7693039Y4684167D01*
X7688984Y4643000D01*
X7693039Y4601833D01*
X7705047Y4562248D01*
X7724547Y4525766D01*
X7750789Y4493789D01*
X7782766Y4467547D01*
X7819248Y4448047D01*
X7858833Y4436039D01*
X7900000Y4431984D01*
X7941167Y4436039D01*
X7980752Y4448047D01*
X8017234Y4467547D01*
X8049211Y4493789D01*
X8075453Y4525766D01*
X8094953Y4562248D01*
X8106961Y4601833D01*
X8111016Y4643000D01*
X8106961Y4684167D01*
X8094953Y4723752D01*
X8075453Y4760234D01*
X8049211Y4792211D01*
X8017234Y4818453D01*
X7980752Y4837953D01*
X7941167Y4849961D01*
X7900000Y4854016D01*
D02*
G37*
G36*
X2730000Y4543725D02*
X2705614Y4538874D01*
X2684940Y4525060D01*
X2671126Y4504386D01*
X2666276Y4480000D01*
X2671126Y4455614D01*
X2684940Y4434940D01*
X2705614Y4421126D01*
X2730000Y4416276D01*
X2754387Y4421126D01*
X2775060Y4434940D01*
X2788874Y4455614D01*
X2793725Y4480000D01*
X2788874Y4504386D01*
X2775060Y4525060D01*
X2754387Y4538874D01*
X2730000Y4543725D01*
D02*
G37*
G36*
X7160169Y4718579D02*
X7130044Y4713605D01*
X7101469Y4702850D01*
X7075541Y4686727D01*
X7053256Y4665855D01*
X7035472Y4641037D01*
X7022871Y4613226D01*
X7015938Y4583492D01*
X7014939Y4552975D01*
X7019913Y4522851D01*
X7030667Y4494276D01*
X7046791Y4468347D01*
X7067662Y4446063D01*
X7092481Y4428279D01*
X7120291Y4415678D01*
X7150026Y4408745D01*
X7180542Y4407746D01*
X7210667Y4412719D01*
X7239242Y4423474D01*
X7265170Y4439597D01*
X7287455Y4460469D01*
X7305239Y4485287D01*
X7317840Y4513098D01*
X7324773Y4542832D01*
X7325772Y4573349D01*
X7320798Y4603473D01*
X7310044Y4632048D01*
X7293920Y4657977D01*
X7273049Y4680261D01*
X7248230Y4698045D01*
X7220420Y4710646D01*
X7190685Y4717580D01*
X7160169Y4718579D01*
D02*
G37*
G36*
X3220000Y4313725D02*
X3195614Y4308874D01*
X3174940Y4295060D01*
X3161127Y4274386D01*
X3156276Y4250000D01*
X3161127Y4225614D01*
X3174940Y4204940D01*
X3195614Y4191126D01*
X3220000Y4186276D01*
X3244387Y4191126D01*
X3265061Y4204940D01*
X3278874Y4225614D01*
X3283725Y4250000D01*
X3278874Y4274386D01*
X3265061Y4295060D01*
X3244387Y4308874D01*
X3220000Y4313725D01*
D02*
G37*
G36*
X7100001Y4240776D02*
X7076506Y4237683D01*
X7054612Y4228615D01*
X7051816Y4226469D01*
X7100000Y4178285D01*
X7148185Y4226469D01*
X7145389Y4228615D01*
X7123495Y4237683D01*
X7100001Y4240776D01*
D02*
G37*
G36*
X2320000Y4303724D02*
X2295614Y4298874D01*
X2274940Y4285060D01*
X2261126Y4264386D01*
X2256275Y4240000D01*
X2261126Y4215614D01*
X2274940Y4194940D01*
X2295614Y4181126D01*
X2320000Y4176275D01*
X2344386Y4181126D01*
X2365060Y4194940D01*
X2378874Y4215614D01*
X2383724Y4240000D01*
X2378874Y4264386D01*
X2365060Y4285060D01*
X2344386Y4298874D01*
X2320000Y4303724D01*
D02*
G37*
G36*
X7023532Y4198185D02*
X7021386Y4195388D01*
X7012317Y4173495D01*
X7009224Y4150000D01*
X7012317Y4126505D01*
X7021386Y4104612D01*
X7023531Y4101816D01*
X7071716Y4150001D01*
X7023532Y4198185D01*
D02*
G37*
G36*
X7176469Y4198185D02*
X7128284Y4150001D01*
X7176470Y4101816D01*
X7178615Y4104612D01*
X7187684Y4126505D01*
X7190777Y4150000D01*
X7187684Y4173495D01*
X7178615Y4195388D01*
X7176469Y4198185D01*
D02*
G37*
G36*
X2860000Y4223725D02*
X2835614Y4218874D01*
X2814940Y4205060D01*
X2801126Y4184386D01*
X2796276Y4160000D01*
X2801126Y4135614D01*
X2814940Y4114940D01*
X2835614Y4101126D01*
X2860000Y4096276D01*
X2884387Y4101126D01*
X2905060Y4114940D01*
X2918874Y4135614D01*
X2923725Y4160000D01*
X2918874Y4184386D01*
X2905060Y4205060D01*
X2884387Y4218874D01*
X2860000Y4223725D01*
D02*
G37*
G36*
X200000Y4331122D02*
X166064Y4326654D01*
X134440Y4313555D01*
X107283Y4292717D01*
X86446Y4265561D01*
X73347Y4233937D01*
X68879Y4200000D01*
X73347Y4166064D01*
X86446Y4134440D01*
X107283Y4107283D01*
X134440Y4086445D01*
X166064Y4073346D01*
X200000Y4068879D01*
X233937Y4073346D01*
X265561Y4086445D01*
X292717Y4107283D01*
X313555Y4134440D01*
X326654Y4166064D01*
X331122Y4200000D01*
X326654Y4233937D01*
X313555Y4265561D01*
X292717Y4292717D01*
X265561Y4313555D01*
X233937Y4326654D01*
X200000Y4331122D01*
D02*
G37*
G36*
X1710000Y4193725D02*
X1685614Y4188874D01*
X1664940Y4175060D01*
X1651126Y4154386D01*
X1646275Y4130000D01*
X1651126Y4105614D01*
X1664940Y4084940D01*
X1685614Y4071126D01*
X1710000Y4066276D01*
X1734386Y4071126D01*
X1755060Y4084940D01*
X1768874Y4105614D01*
X1773724Y4130000D01*
X1768874Y4154386D01*
X1755060Y4175060D01*
X1734386Y4188874D01*
X1710000Y4193725D01*
D02*
G37*
G36*
X7100000Y4121716D02*
X7051815Y4073532D01*
X7054612Y4071386D01*
X7076506Y4062317D01*
X7100001Y4059224D01*
X7123495Y4062317D01*
X7145389Y4071386D01*
X7148185Y4073531D01*
X7100000Y4121716D01*
D02*
G37*
G36*
X6345000Y4295000D02*
X6105000D01*
Y4055000D01*
X6345000D01*
Y4295000D01*
D02*
G37*
G36*
X4670000Y4093725D02*
X4645614Y4088874D01*
X4624940Y4075060D01*
X4611126Y4054386D01*
X4606276Y4030000D01*
X4611126Y4005614D01*
X4624940Y3984940D01*
X4645614Y3971126D01*
X4670000Y3966276D01*
X4694386Y3971126D01*
X4715060Y3984940D01*
X4728874Y4005614D01*
X4733725Y4030000D01*
X4728874Y4054386D01*
X4715060Y4075060D01*
X4694386Y4088874D01*
X4670000Y4093725D01*
D02*
G37*
G36*
X4260000Y3993725D02*
X4235614Y3988874D01*
X4214940Y3975060D01*
X4201126Y3954386D01*
X4196276Y3930000D01*
X4201126Y3905614D01*
X4214940Y3884940D01*
X4235614Y3871126D01*
X4260000Y3866275D01*
X4284387Y3871126D01*
X4305060Y3884940D01*
X4318874Y3905614D01*
X4323725Y3930000D01*
X4318874Y3954386D01*
X4305060Y3975060D01*
X4284387Y3988874D01*
X4260000Y3993725D01*
D02*
G37*
G36*
X4050001Y3973725D02*
X4025614Y3968874D01*
X4004940Y3955060D01*
X3991127Y3934386D01*
X3986276Y3910000D01*
X3991127Y3885614D01*
X4004940Y3864940D01*
X4025614Y3851126D01*
X4050001Y3846276D01*
X4074387Y3851126D01*
X4095061Y3864940D01*
X4108874Y3885614D01*
X4113725Y3910000D01*
X4108874Y3934386D01*
X4095061Y3955060D01*
X4074387Y3968874D01*
X4050001Y3973725D01*
D02*
G37*
G36*
X3380000Y3843725D02*
X3355614Y3838874D01*
X3334940Y3825060D01*
X3321126Y3804386D01*
X3316276Y3780000D01*
X3321126Y3755614D01*
X3334940Y3734940D01*
X3355614Y3721126D01*
X3380000Y3716276D01*
X3404386Y3721126D01*
X3425060Y3734940D01*
X3438874Y3755614D01*
X3443725Y3780000D01*
X3438874Y3804386D01*
X3425060Y3825060D01*
X3404386Y3838874D01*
X3380000Y3843725D01*
D02*
G37*
G36*
X6225001Y3740776D02*
X6201506Y3737683D01*
X6179612Y3728615D01*
X6176817Y3726469D01*
X6225001Y3678286D01*
X6273185Y3726469D01*
X6270389Y3728615D01*
X6248495Y3737683D01*
X6225001Y3740776D01*
D02*
G37*
G36*
X8662000Y4092016D02*
X8620833Y4087961D01*
X8581248Y4075953D01*
X8544766Y4056453D01*
X8512789Y4030211D01*
X8486547Y3998234D01*
X8467047Y3961752D01*
X8455039Y3922167D01*
X8450984Y3881000D01*
X8455039Y3839833D01*
X8467047Y3800248D01*
X8486547Y3763766D01*
X8512789Y3731789D01*
X8544766Y3705547D01*
X8581248Y3686047D01*
X8620833Y3674039D01*
X8662000Y3669984D01*
X8703167Y3674039D01*
X8742752Y3686047D01*
X8779234Y3705547D01*
X8811211Y3731789D01*
X8837453Y3763766D01*
X8856953Y3800248D01*
X8868961Y3839833D01*
X8873016Y3881000D01*
X8868961Y3922167D01*
X8856953Y3961752D01*
X8837453Y3998234D01*
X8811211Y4030211D01*
X8779234Y4056453D01*
X8742752Y4075953D01*
X8703167Y4087961D01*
X8662000Y4092016D01*
D02*
G37*
G36*
X7900000D02*
X7858833Y4087961D01*
X7819248Y4075953D01*
X7782766Y4056453D01*
X7750789Y4030211D01*
X7724547Y3998234D01*
X7705047Y3961752D01*
X7693039Y3922167D01*
X7688984Y3881000D01*
X7693039Y3839833D01*
X7705047Y3800248D01*
X7724547Y3763766D01*
X7750789Y3731789D01*
X7782766Y3705547D01*
X7819248Y3686047D01*
X7858833Y3674039D01*
X7900000Y3669984D01*
X7941167Y3674039D01*
X7980752Y3686047D01*
X8017234Y3705547D01*
X8049211Y3731789D01*
X8075453Y3763766D01*
X8094953Y3800248D01*
X8106961Y3839833D01*
X8111016Y3881000D01*
X8106961Y3922167D01*
X8094953Y3961752D01*
X8075453Y3998234D01*
X8049211Y4030211D01*
X8017234Y4056453D01*
X7980752Y4075953D01*
X7941167Y4087961D01*
X7900000Y4092016D01*
D02*
G37*
G36*
X4310001Y3744224D02*
X4285614Y3739374D01*
X4264940Y3725560D01*
X4251127Y3704886D01*
X4246276Y3680500D01*
X4251127Y3656113D01*
X4264940Y3635440D01*
X4285614Y3621626D01*
X4310001Y3616775D01*
X4334387Y3621626D01*
X4355061Y3635440D01*
X4368874Y3656113D01*
X4373725Y3680500D01*
X4368874Y3704886D01*
X4355061Y3725560D01*
X4334387Y3739374D01*
X4310001Y3744224D01*
D02*
G37*
G36*
X4740000Y3743725D02*
X4715614Y3738874D01*
X4694940Y3725060D01*
X4681126Y3704386D01*
X4676275Y3680000D01*
X4681126Y3655614D01*
X4694940Y3634940D01*
X4715614Y3621126D01*
X4740000Y3616275D01*
X4764386Y3621126D01*
X4785060Y3634940D01*
X4798874Y3655614D01*
X4803724Y3680000D01*
X4798874Y3704386D01*
X4785060Y3725060D01*
X4764386Y3738874D01*
X4740000Y3743725D01*
D02*
G37*
G36*
X6301469Y3698185D02*
X6253285Y3650001D01*
X6301470Y3601816D01*
X6303615Y3604612D01*
X6312684Y3626505D01*
X6315777Y3650000D01*
X6312684Y3673495D01*
X6303615Y3695388D01*
X6301469Y3698185D01*
D02*
G37*
G36*
X6148532D02*
X6146386Y3695388D01*
X6137317Y3673495D01*
X6134224Y3650000D01*
X6137317Y3626505D01*
X6146386Y3604612D01*
X6148531Y3601816D01*
X6196716Y3650001D01*
X6148532Y3698185D01*
D02*
G37*
G36*
X6225001Y3621717D02*
X6176815Y3573532D01*
X6179612Y3571386D01*
X6201506Y3562317D01*
X6225001Y3559224D01*
X6248495Y3562317D01*
X6270389Y3571386D01*
X6273186Y3573532D01*
X6225001Y3621717D01*
D02*
G37*
G36*
X7220000Y3770000D02*
X6980001D01*
Y3530000D01*
X7220000D01*
Y3770000D01*
D02*
G37*
G36*
X4310000Y3513724D02*
X4285614Y3508874D01*
X4264940Y3495060D01*
X4251126Y3474386D01*
X4246275Y3450000D01*
X4251126Y3425614D01*
X4264940Y3404940D01*
X4285614Y3391126D01*
X4310000Y3386275D01*
X4334386Y3391126D01*
X4355060Y3404940D01*
X4368874Y3425614D01*
X4373725Y3450000D01*
X4368874Y3474386D01*
X4355060Y3495060D01*
X4334386Y3508874D01*
X4310000Y3513724D01*
D02*
G37*
G36*
X200000Y3631122D02*
X166064Y3626654D01*
X134440Y3613555D01*
X107283Y3592717D01*
X86446Y3565561D01*
X73347Y3533937D01*
X68879Y3500000D01*
X73347Y3466063D01*
X86446Y3434439D01*
X107283Y3407283D01*
X134440Y3386445D01*
X166064Y3373346D01*
X200000Y3368878D01*
X233937Y3373346D01*
X265561Y3386445D01*
X292717Y3407283D01*
X313555Y3434439D01*
X326654Y3466063D01*
X331122Y3500000D01*
X326654Y3533937D01*
X313555Y3565561D01*
X292717Y3592717D01*
X265561Y3613555D01*
X233937Y3626654D01*
X200000Y3631122D01*
D02*
G37*
G36*
X3070000Y3483725D02*
X3045614Y3478874D01*
X3024940Y3465060D01*
X3011127Y3444386D01*
X3006276Y3420000D01*
X3011127Y3395614D01*
X3024940Y3374940D01*
X3045614Y3361126D01*
X3070000Y3356275D01*
X3094387Y3361126D01*
X3115061Y3374940D01*
X3128874Y3395614D01*
X3133725Y3420000D01*
X3128874Y3444386D01*
X3115061Y3465060D01*
X3094387Y3478874D01*
X3070000Y3483725D01*
D02*
G37*
G36*
X2580000Y3468725D02*
X2555614Y3463874D01*
X2534940Y3450060D01*
X2521127Y3429386D01*
X2516276Y3405000D01*
X2521127Y3380614D01*
X2534940Y3359940D01*
X2555614Y3346126D01*
X2580000Y3341276D01*
X2604387Y3346126D01*
X2625061Y3359940D01*
X2638874Y3380614D01*
X2643725Y3405000D01*
X2638874Y3429386D01*
X2625061Y3450060D01*
X2604387Y3463874D01*
X2580000Y3468725D01*
D02*
G37*
G36*
X7100000Y3215776D02*
X7076505Y3212683D01*
X7054612Y3203615D01*
X7051816Y3201469D01*
X7100001Y3153285D01*
X7148185Y3201469D01*
X7145388Y3203615D01*
X7123495Y3212683D01*
X7100000Y3215776D01*
D02*
G37*
G36*
X2690000Y3253725D02*
X2665614Y3248874D01*
X2644940Y3235060D01*
X2631127Y3214387D01*
X2626276Y3190000D01*
X2631127Y3165614D01*
X2644940Y3144940D01*
X2665614Y3131126D01*
X2690000Y3126276D01*
X2714387Y3131126D01*
X2735061Y3144940D01*
X2748874Y3165614D01*
X2753725Y3190000D01*
X2748874Y3214387D01*
X2735061Y3235060D01*
X2714387Y3248874D01*
X2690000Y3253725D01*
D02*
G37*
G36*
X7176469Y3173184D02*
X7128285Y3125000D01*
X7176469Y3076816D01*
X7178615Y3079612D01*
X7187683Y3101505D01*
X7190776Y3125000D01*
X7187683Y3148495D01*
X7178615Y3170388D01*
X7176469Y3173184D01*
D02*
G37*
G36*
X7023532Y3173185D02*
X7021385Y3170388D01*
X7012317Y3148495D01*
X7009224Y3125000D01*
X7012317Y3101505D01*
X7021385Y3079612D01*
X7023531Y3076815D01*
X7071716Y3125000D01*
X7023532Y3173185D01*
D02*
G37*
G36*
X7100001Y3096716D02*
X7051816Y3048531D01*
X7054612Y3046386D01*
X7076505Y3037317D01*
X7100000Y3034224D01*
X7123495Y3037317D01*
X7145388Y3046386D01*
X7148185Y3048532D01*
X7100001Y3096716D01*
D02*
G37*
G36*
X6345000Y3270000D02*
X6105001D01*
Y3030000D01*
X6345000D01*
Y3270000D01*
D02*
G37*
G36*
X2299541Y3088725D02*
X2275155Y3083874D01*
X2254481Y3070060D01*
X2240667Y3049386D01*
X2235816Y3025000D01*
X2240667Y3000614D01*
X2254481Y2979940D01*
X2275155Y2966126D01*
X2299541Y2961276D01*
X2323927Y2966126D01*
X2344601Y2979940D01*
X2358415Y3000614D01*
X2363266Y3025000D01*
X2358415Y3049386D01*
X2344601Y3070060D01*
X2323927Y3083874D01*
X2299541Y3088725D01*
D02*
G37*
G36*
X900000Y3063725D02*
X875614Y3058874D01*
X854940Y3045060D01*
X841127Y3024386D01*
X836276Y3000000D01*
X841127Y2975614D01*
X854940Y2954940D01*
X875614Y2941126D01*
X900000Y2936276D01*
X924387Y2941126D01*
X945061Y2954940D01*
X958874Y2975614D01*
X963725Y3000000D01*
X958874Y3024386D01*
X945061Y3045060D01*
X924387Y3058874D01*
X900000Y3063725D01*
D02*
G37*
G36*
X2960000Y3053725D02*
X2935614Y3048874D01*
X2914940Y3035060D01*
X2901127Y3014386D01*
X2896276Y2990000D01*
X2901127Y2965614D01*
X2914940Y2944940D01*
X2935614Y2931126D01*
X2960000Y2926276D01*
X2984387Y2931126D01*
X3005061Y2944940D01*
X3018874Y2965614D01*
X3023725Y2990000D01*
X3018874Y3014386D01*
X3005061Y3035060D01*
X2984387Y3048874D01*
X2960000Y3053725D01*
D02*
G37*
G36*
X8662000Y3350113D02*
X8616912Y3345672D01*
X8573557Y3332520D01*
X8533601Y3311163D01*
X8498579Y3282421D01*
X8469837Y3247399D01*
X8448480Y3207443D01*
X8435328Y3164088D01*
X8430887Y3119000D01*
X8435328Y3073912D01*
X8448480Y3030557D01*
X8469837Y2990601D01*
X8498579Y2955579D01*
X8533601Y2926837D01*
X8573557Y2905480D01*
X8616912Y2892328D01*
X8662000Y2887888D01*
X8707088Y2892328D01*
X8750443Y2905480D01*
X8790399Y2926837D01*
X8825421Y2955579D01*
X8854163Y2990601D01*
X8875520Y3030557D01*
X8888672Y3073912D01*
X8893113Y3119000D01*
X8888672Y3164088D01*
X8875520Y3207443D01*
X8854163Y3247399D01*
X8825421Y3282421D01*
X8790399Y3311163D01*
X8750443Y3332520D01*
X8707088Y3345672D01*
X8662000Y3350113D01*
D02*
G37*
G36*
X7900000D02*
X7854912Y3345672D01*
X7811557Y3332520D01*
X7771601Y3311163D01*
X7736579Y3282421D01*
X7707837Y3247399D01*
X7686480Y3207443D01*
X7673328Y3164088D01*
X7668887Y3119000D01*
X7673328Y3073912D01*
X7686480Y3030557D01*
X7707837Y2990601D01*
X7736579Y2955579D01*
X7771601Y2926837D01*
X7811557Y2905480D01*
X7854912Y2892328D01*
X7900000Y2887888D01*
X7945088Y2892328D01*
X7988443Y2905480D01*
X8028399Y2926837D01*
X8063421Y2955579D01*
X8092163Y2990601D01*
X8113520Y3030557D01*
X8126672Y3073912D01*
X8131113Y3119000D01*
X8126672Y3164088D01*
X8113520Y3207443D01*
X8092163Y3247399D01*
X8063421Y3282421D01*
X8028399Y3311163D01*
X7988443Y3332520D01*
X7945088Y3345672D01*
X7900000Y3350113D01*
D02*
G37*
G36*
X1970000Y2893725D02*
X1945614Y2888874D01*
X1924940Y2875060D01*
X1921350Y2869687D01*
X1908650D01*
X1905060Y2875060D01*
X1884386Y2888874D01*
X1860000Y2893724D01*
X1835614Y2888874D01*
X1814940Y2875060D01*
X1801126Y2854386D01*
X1796276Y2830000D01*
X1801126Y2805614D01*
X1814940Y2784940D01*
X1835614Y2771126D01*
X1860000Y2766275D01*
X1884386Y2771126D01*
X1905060Y2784940D01*
X1908650Y2790313D01*
X1921350D01*
X1924940Y2784940D01*
X1945614Y2771126D01*
X1970000Y2766276D01*
X1994387Y2771126D01*
X2015060Y2784940D01*
X2028874Y2805614D01*
X2033725Y2830000D01*
X2028874Y2854386D01*
X2015060Y2875060D01*
X1994387Y2888874D01*
X1970000Y2893725D01*
D02*
G37*
G36*
X2090000Y2993725D02*
X2065614Y2988874D01*
X2044940Y2975060D01*
X2031126Y2954387D01*
X2026276Y2930000D01*
X2031126Y2905614D01*
X2044940Y2884940D01*
X2065614Y2871126D01*
X2090000Y2866276D01*
X2114387Y2871126D01*
X2135060Y2884940D01*
X2148874Y2905614D01*
X2153725Y2930000D01*
X2148874Y2954387D01*
X2135060Y2975060D01*
X2114387Y2988874D01*
X2090000Y2993725D01*
D02*
G37*
G36*
X1030000D02*
X1005614Y2988874D01*
X984940Y2975060D01*
X971127Y2954387D01*
X966276Y2930000D01*
X971127Y2905614D01*
X984940Y2884940D01*
X1005614Y2871126D01*
X1030000Y2866276D01*
X1054387Y2871126D01*
X1075061Y2884940D01*
X1088874Y2905614D01*
X1093725Y2930000D01*
X1088874Y2954387D01*
X1075061Y2975060D01*
X1054387Y2988874D01*
X1030000Y2993725D01*
D02*
G37*
G36*
X1750000Y2993725D02*
X1725614Y2988874D01*
X1704940Y2975060D01*
X1691126Y2954386D01*
X1686276Y2930000D01*
X1691126Y2905614D01*
X1704940Y2884940D01*
X1725614Y2871126D01*
X1750000Y2866275D01*
X1774386Y2871126D01*
X1795060Y2884940D01*
X1808874Y2905614D01*
X1813725Y2930000D01*
X1808874Y2954386D01*
X1795060Y2975060D01*
X1774386Y2988874D01*
X1750000Y2993725D01*
D02*
G37*
G36*
X900000Y2923725D02*
X875614Y2918874D01*
X854940Y2905060D01*
X841127Y2884386D01*
X836276Y2860000D01*
X841127Y2835614D01*
X854940Y2814940D01*
X875614Y2801126D01*
X900000Y2796276D01*
X924387Y2801126D01*
X945061Y2814940D01*
X958874Y2835614D01*
X963725Y2860000D01*
X958874Y2884386D01*
X945061Y2905060D01*
X924387Y2918874D01*
X900000Y2923725D01*
D02*
G37*
G36*
X3880000Y2893724D02*
X3855614Y2888874D01*
X3834940Y2875060D01*
X3821126Y2854386D01*
X3816276Y2830000D01*
X3821126Y2805614D01*
X3834940Y2784940D01*
X3855614Y2771126D01*
X3880000Y2766275D01*
X3904386Y2771126D01*
X3925060Y2784940D01*
X3938874Y2805614D01*
X3943725Y2830000D01*
X3938874Y2854386D01*
X3925060Y2875060D01*
X3904386Y2888874D01*
X3880000Y2893724D01*
D02*
G37*
G36*
X2369990Y2883726D02*
X2345603Y2878875D01*
X2324930Y2865062D01*
X2311116Y2844388D01*
X2306265Y2820001D01*
X2311116Y2795615D01*
X2324930Y2774941D01*
X2345603Y2761128D01*
X2369990Y2756277D01*
X2394376Y2761128D01*
X2415050Y2774941D01*
X2428864Y2795615D01*
X2433714Y2820001D01*
X2428864Y2844388D01*
X2415050Y2865062D01*
X2394376Y2878875D01*
X2369990Y2883726D01*
D02*
G37*
G36*
X1030000Y2853725D02*
X1005614Y2848874D01*
X984940Y2835060D01*
X971127Y2814386D01*
X966276Y2790000D01*
X971127Y2765614D01*
X984940Y2744940D01*
X1005614Y2731126D01*
X1030000Y2726275D01*
X1054387Y2731126D01*
X1075061Y2744940D01*
X1088874Y2765614D01*
X1093725Y2790000D01*
X1088874Y2814386D01*
X1075061Y2835060D01*
X1054387Y2848874D01*
X1030000Y2853725D01*
D02*
G37*
G36*
X5850000Y2815561D02*
X5833032Y2813327D01*
X5817220Y2806777D01*
X5803642Y2796358D01*
X5793223Y2782781D01*
X5786673Y2766969D01*
X5784439Y2750000D01*
X5786673Y2733032D01*
X5793223Y2717220D01*
X5803642Y2703642D01*
X5817220Y2693223D01*
X5833032Y2686673D01*
X5850000Y2684439D01*
X5866968Y2686673D01*
X5882780Y2693223D01*
X5896358Y2703642D01*
X5906777Y2717220D01*
X5913327Y2733032D01*
X5915561Y2750000D01*
X5913327Y2766969D01*
X5906777Y2782781D01*
X5896358Y2796358D01*
X5882780Y2806777D01*
X5866968Y2813327D01*
X5850000Y2815561D01*
D02*
G37*
G36*
X200000Y2931122D02*
X166064Y2926654D01*
X134440Y2913555D01*
X107283Y2892717D01*
X86446Y2865561D01*
X73347Y2833937D01*
X68879Y2800000D01*
X73347Y2766063D01*
X86446Y2734439D01*
X107283Y2707283D01*
X134440Y2686445D01*
X166064Y2673346D01*
X200000Y2668878D01*
X233937Y2673346D01*
X265561Y2686445D01*
X292717Y2707283D01*
X313555Y2734439D01*
X326654Y2766063D01*
X331122Y2800000D01*
X326654Y2833937D01*
X313555Y2865561D01*
X292717Y2892717D01*
X265561Y2913555D01*
X233937Y2926654D01*
X200000Y2931122D01*
D02*
G37*
G36*
X6225000Y2715776D02*
X6201505Y2712683D01*
X6179612Y2703615D01*
X6176816Y2701469D01*
X6225000Y2653284D01*
X6273185Y2701469D01*
X6270388Y2703615D01*
X6248495Y2712683D01*
X6225000Y2715776D01*
D02*
G37*
G36*
X1750000Y2723725D02*
X1725614Y2718874D01*
X1704940Y2705060D01*
X1691126Y2684386D01*
X1686276Y2660000D01*
X1691126Y2635614D01*
X1704940Y2614940D01*
X1725614Y2601126D01*
X1750000Y2596275D01*
X1774386Y2601126D01*
X1795060Y2614940D01*
X1808874Y2635614D01*
X1813725Y2660000D01*
X1808874Y2684386D01*
X1795060Y2705060D01*
X1774386Y2718874D01*
X1750000Y2723725D01*
D02*
G37*
G36*
X6301469Y2673184D02*
X6253285Y2625000D01*
X6301469Y2576816D01*
X6303615Y2579612D01*
X6312683Y2601505D01*
X6315776Y2625000D01*
X6312683Y2648495D01*
X6303615Y2670388D01*
X6301469Y2673184D01*
D02*
G37*
G36*
X6148531Y2673185D02*
X6146385Y2670388D01*
X6137317Y2648495D01*
X6134224Y2625000D01*
X6137317Y2601505D01*
X6146385Y2579612D01*
X6148531Y2576815D01*
X6196716Y2625000D01*
X6148531Y2673185D01*
D02*
G37*
G36*
X6225000Y2596715D02*
X6176816Y2548531D01*
X6179612Y2546386D01*
X6201505Y2537317D01*
X6225000Y2534224D01*
X6248495Y2537317D01*
X6270388Y2546386D01*
X6273184Y2548531D01*
X6225000Y2596715D01*
D02*
G37*
G36*
X5400000Y2878212D02*
X5378463Y2875377D01*
X5358394Y2867064D01*
X5341161Y2853840D01*
X5327937Y2836606D01*
X5319624Y2816537D01*
X5316788Y2795000D01*
X5319310Y2775844D01*
Y2749154D01*
X5316788Y2730000D01*
X5319310Y2710846D01*
Y2684156D01*
X5316788Y2665000D01*
X5319310Y2645844D01*
Y2619154D01*
X5316788Y2600000D01*
X5319624Y2578463D01*
X5327937Y2558394D01*
X5341161Y2541161D01*
X5358394Y2527937D01*
X5378463Y2519624D01*
X5400000Y2516788D01*
X5421537Y2519624D01*
X5441606Y2527937D01*
X5458840Y2541161D01*
X5472064Y2558394D01*
X5480377Y2578463D01*
X5483212Y2600000D01*
X5480691Y2619154D01*
Y2645848D01*
X5483212Y2665000D01*
X5480691Y2684152D01*
Y2710846D01*
X5483212Y2730000D01*
X5480691Y2749154D01*
Y2775848D01*
X5483212Y2795000D01*
X5480377Y2816537D01*
X5472064Y2836606D01*
X5458840Y2853840D01*
X5441606Y2867064D01*
X5421537Y2875377D01*
X5400000Y2878212D01*
D02*
G37*
G36*
X5200000D02*
X5178463Y2875377D01*
X5158394Y2867064D01*
X5141160Y2853840D01*
X5127936Y2836606D01*
X5119623Y2816537D01*
X5116788Y2795000D01*
X5119310Y2775844D01*
Y2749156D01*
X5116788Y2730000D01*
X5119310Y2710844D01*
Y2684156D01*
X5116788Y2665000D01*
X5119310Y2645844D01*
Y2619154D01*
X5116788Y2600000D01*
X5119624Y2578463D01*
X5127937Y2558394D01*
X5141161Y2541161D01*
X5158394Y2527937D01*
X5178463Y2519624D01*
X5200000Y2516788D01*
X5221537Y2519624D01*
X5241606Y2527937D01*
X5258840Y2541161D01*
X5272064Y2558394D01*
X5280377Y2578463D01*
X5283212Y2600000D01*
X5280690Y2619154D01*
Y2645848D01*
X5283212Y2665000D01*
X5280690Y2684152D01*
Y2710848D01*
X5283212Y2730000D01*
X5280690Y2749152D01*
Y2775848D01*
X5283212Y2795000D01*
X5280377Y2816537D01*
X5272064Y2836606D01*
X5258840Y2853840D01*
X5241606Y2867064D01*
X5221537Y2875377D01*
X5200000Y2878212D01*
D02*
G37*
G36*
X4350000Y3350980D02*
X4330491Y3347099D01*
X4313952Y3336048D01*
X4273953Y3296048D01*
X4262902Y3279509D01*
X4259021Y3260000D01*
X4259021Y2660000D01*
X4262901Y2640491D01*
X4273952Y2623952D01*
X4343952Y2553952D01*
X4360491Y2542901D01*
X4380000Y2539021D01*
X4943950D01*
X4958394Y2527937D01*
X4978463Y2519624D01*
X5000000Y2516788D01*
X5021537Y2519624D01*
X5041606Y2527937D01*
X5058840Y2541161D01*
X5072064Y2558394D01*
X5080377Y2578463D01*
X5083212Y2600000D01*
X5080980Y2616957D01*
Y2648047D01*
X5083212Y2665000D01*
X5080980Y2681953D01*
Y2713043D01*
X5083212Y2730000D01*
X5080980Y2746957D01*
Y2778047D01*
X5083212Y2795000D01*
X5080980Y2811953D01*
Y2860001D01*
X5077099Y2879510D01*
X5066048Y2896049D01*
X4780980Y3181116D01*
X4780980Y3300000D01*
X4777099Y3319509D01*
X4766048Y3336048D01*
X4749509Y3347099D01*
X4730000Y3350979D01*
X4350000Y3350980D01*
D02*
G37*
G36*
X7220000Y2745000D02*
X6980000D01*
Y2505000D01*
X7220000D01*
Y2745000D01*
D02*
G37*
G36*
X1750000Y2573725D02*
X1725614Y2568874D01*
X1704940Y2555060D01*
X1691126Y2534386D01*
X1686276Y2510000D01*
X1691126Y2485614D01*
X1704940Y2464940D01*
X1725614Y2451126D01*
X1750000Y2446276D01*
X1774387Y2451126D01*
X1795060Y2464940D01*
X1808874Y2485614D01*
X1813725Y2510000D01*
X1808874Y2534386D01*
X1795060Y2555060D01*
X1774387Y2568874D01*
X1750000Y2573725D01*
D02*
G37*
G36*
X1380000Y2543725D02*
X1355614Y2538874D01*
X1334940Y2525060D01*
X1321126Y2504386D01*
X1316276Y2480000D01*
X1321126Y2455614D01*
X1334940Y2434940D01*
X1355614Y2421126D01*
X1380000Y2416276D01*
X1404387Y2421126D01*
X1425060Y2434940D01*
X1438874Y2455614D01*
X1443725Y2480000D01*
X1438874Y2504386D01*
X1425060Y2525060D01*
X1404387Y2538874D01*
X1380000Y2543725D01*
D02*
G37*
G36*
X2752500Y2773724D02*
X2728114Y2768874D01*
X2707440Y2755060D01*
X2693626Y2734386D01*
X2688775Y2710000D01*
X2693626Y2685614D01*
X2707440Y2664940D01*
X2728114Y2651126D01*
X2752500Y2646275D01*
X2754240Y2646621D01*
X2758418Y2625614D01*
X2772232Y2604940D01*
X2787294Y2594876D01*
X2783626Y2589386D01*
X2778775Y2565000D01*
X2783626Y2540614D01*
X2797440Y2519940D01*
X2808378Y2512631D01*
Y2497357D01*
X2804940Y2495060D01*
X2791126Y2474386D01*
X2786275Y2450000D01*
X2791126Y2425614D01*
X2804940Y2404940D01*
X2825614Y2391126D01*
X2850000Y2386275D01*
X2874386Y2391126D01*
X2895060Y2404940D01*
X2908874Y2425614D01*
X2913724Y2450000D01*
X2908874Y2474386D01*
X2895060Y2495060D01*
X2884122Y2502368D01*
Y2517643D01*
X2887560Y2519940D01*
X2901374Y2540614D01*
X2906225Y2565000D01*
X2901374Y2589386D01*
X2887560Y2610060D01*
X2872498Y2620124D01*
X2876166Y2625614D01*
X2881017Y2650000D01*
X2876166Y2674387D01*
X2862352Y2695060D01*
X2841678Y2708874D01*
X2817292Y2713725D01*
X2815552Y2713379D01*
X2811374Y2734386D01*
X2797560Y2755060D01*
X2776886Y2768874D01*
X2752500Y2773724D01*
D02*
G37*
G36*
X180000Y2503725D02*
X155614Y2498874D01*
X134940Y2485060D01*
X121127Y2464386D01*
X116276Y2440000D01*
X121127Y2415614D01*
X134940Y2394940D01*
X155614Y2381126D01*
X180000Y2376276D01*
X204387Y2381126D01*
X225061Y2394940D01*
X238874Y2415614D01*
X243725Y2440000D01*
X238874Y2464386D01*
X225061Y2485060D01*
X204387Y2498874D01*
X180000Y2503725D01*
D02*
G37*
G36*
X1160000Y2443725D02*
X1135614Y2438874D01*
X1114940Y2425060D01*
X1101127Y2404386D01*
X1096276Y2380000D01*
X1101127Y2355614D01*
X1114940Y2334940D01*
X1135614Y2321126D01*
X1160000Y2316276D01*
X1184387Y2321126D01*
X1205061Y2334940D01*
X1218874Y2355614D01*
X1223725Y2380000D01*
X1218874Y2404386D01*
X1205061Y2425060D01*
X1184387Y2438874D01*
X1160000Y2443725D01*
D02*
G37*
G36*
X1590000Y2333725D02*
X1565614Y2328874D01*
X1544940Y2315060D01*
X1531126Y2294386D01*
X1526276Y2270000D01*
X1531126Y2245614D01*
X1544940Y2224940D01*
X1565614Y2211126D01*
X1590000Y2206275D01*
X1614387Y2211126D01*
X1635060Y2224940D01*
X1648874Y2245614D01*
X1653725Y2270000D01*
X1648874Y2294386D01*
X1635060Y2315060D01*
X1614387Y2328874D01*
X1590000Y2333725D01*
D02*
G37*
G36*
X1430000Y2286225D02*
X1405614Y2281374D01*
X1384940Y2267560D01*
X1371127Y2246886D01*
X1366276Y2222500D01*
X1371127Y2198114D01*
X1384940Y2177440D01*
X1405614Y2163626D01*
X1430000Y2158775D01*
X1454387Y2163626D01*
X1475061Y2177440D01*
X1488874Y2198114D01*
X1493725Y2222500D01*
X1488874Y2246886D01*
X1475061Y2267560D01*
X1454387Y2281374D01*
X1430000Y2286225D01*
D02*
G37*
G36*
X1160000Y2283725D02*
X1135614Y2278874D01*
X1114940Y2265060D01*
X1101127Y2244386D01*
X1096276Y2220000D01*
X1101127Y2195614D01*
X1114940Y2174940D01*
X1135614Y2161126D01*
X1160000Y2156276D01*
X1184387Y2161126D01*
X1205061Y2174940D01*
X1218874Y2195614D01*
X1223725Y2220000D01*
X1218874Y2244386D01*
X1205061Y2265060D01*
X1184387Y2278874D01*
X1160000Y2283725D01*
D02*
G37*
G36*
X8662000Y2568016D02*
X8620833Y2563961D01*
X8581248Y2551953D01*
X8544766Y2532453D01*
X8512789Y2506211D01*
X8486547Y2474234D01*
X8467047Y2437752D01*
X8455039Y2398167D01*
X8450984Y2357000D01*
X8455039Y2315833D01*
X8467047Y2276248D01*
X8486547Y2239766D01*
X8512789Y2207789D01*
X8544766Y2181547D01*
X8581248Y2162047D01*
X8620833Y2150039D01*
X8662000Y2145984D01*
X8703167Y2150039D01*
X8742752Y2162047D01*
X8779234Y2181547D01*
X8811211Y2207789D01*
X8837453Y2239766D01*
X8856953Y2276248D01*
X8868961Y2315833D01*
X8873016Y2357000D01*
X8868961Y2398167D01*
X8856953Y2437752D01*
X8837453Y2474234D01*
X8811211Y2506211D01*
X8779234Y2532453D01*
X8742752Y2551953D01*
X8703167Y2563961D01*
X8662000Y2568016D01*
D02*
G37*
G36*
X7900000D02*
X7858833Y2563961D01*
X7819248Y2551953D01*
X7782766Y2532453D01*
X7750789Y2506211D01*
X7724547Y2474234D01*
X7705047Y2437752D01*
X7693039Y2398167D01*
X7688984Y2357000D01*
X7693039Y2315833D01*
X7705047Y2276248D01*
X7724547Y2239766D01*
X7750789Y2207789D01*
X7782766Y2181547D01*
X7819248Y2162047D01*
X7858833Y2150039D01*
X7900000Y2145984D01*
X7941167Y2150039D01*
X7980752Y2162047D01*
X8017234Y2181547D01*
X8049211Y2207789D01*
X8075453Y2239766D01*
X8094953Y2276248D01*
X8106961Y2315833D01*
X8111016Y2357000D01*
X8106961Y2398167D01*
X8094953Y2437752D01*
X8075453Y2474234D01*
X8049211Y2506211D01*
X8017234Y2532453D01*
X7980752Y2551953D01*
X7941167Y2563961D01*
X7900000Y2568016D01*
D02*
G37*
G36*
X7100000Y2190776D02*
X7076505Y2187683D01*
X7054612Y2178615D01*
X7051816Y2176469D01*
X7100001Y2128285D01*
X7148185Y2176469D01*
X7145388Y2178615D01*
X7123495Y2187683D01*
X7100000Y2190776D01*
D02*
G37*
G36*
X550000Y2221225D02*
X525614Y2216374D01*
X504940Y2202560D01*
X491127Y2181886D01*
X486276Y2157500D01*
X491127Y2133114D01*
X504940Y2112440D01*
X525614Y2098626D01*
X550000Y2093776D01*
X574387Y2098626D01*
X595061Y2112440D01*
X608874Y2133114D01*
X613725Y2157500D01*
X608874Y2181886D01*
X595061Y2202560D01*
X574387Y2216374D01*
X550000Y2221225D01*
D02*
G37*
G36*
X7176469Y2148184D02*
X7128285Y2100001D01*
X7176469Y2051816D01*
X7178615Y2054612D01*
X7187683Y2076505D01*
X7190776Y2100000D01*
X7187683Y2123495D01*
X7178615Y2145388D01*
X7176469Y2148184D01*
D02*
G37*
G36*
X7023532Y2148185D02*
X7021385Y2145388D01*
X7012317Y2123495D01*
X7009224Y2100000D01*
X7012317Y2076505D01*
X7021385Y2054612D01*
X7023531Y2051816D01*
X7071716Y2100001D01*
X7023532Y2148185D01*
D02*
G37*
G36*
X2847500Y2153725D02*
X2823114Y2148874D01*
X2802440Y2135060D01*
X2788626Y2114386D01*
X2783776Y2090000D01*
X2788626Y2065614D01*
X2802440Y2044940D01*
X2823114Y2031126D01*
X2847500Y2026276D01*
X2871887Y2031126D01*
X2892560Y2044940D01*
X2906374Y2065614D01*
X2911225Y2090000D01*
X2906374Y2114386D01*
X2892560Y2135060D01*
X2871887Y2148874D01*
X2847500Y2153725D01*
D02*
G37*
G36*
X1756021Y2142245D02*
X1731635Y2137395D01*
X1710961Y2123581D01*
X1697147Y2102907D01*
X1692296Y2078521D01*
X1697147Y2054134D01*
X1710961Y2033460D01*
X1731635Y2019647D01*
X1756021Y2014796D01*
X1780407Y2019647D01*
X1801081Y2033460D01*
X1814895Y2054134D01*
X1819745Y2078521D01*
X1814895Y2102907D01*
X1801081Y2123581D01*
X1780407Y2137395D01*
X1756021Y2142245D01*
D02*
G37*
G36*
X7100001Y2071716D02*
X7051816Y2023531D01*
X7054612Y2021386D01*
X7076505Y2012317D01*
X7100000Y2009224D01*
X7123495Y2012317D01*
X7145388Y2021386D01*
X7148185Y2023532D01*
X7100001Y2071716D01*
D02*
G37*
G36*
X6345000Y2245000D02*
X6105000D01*
Y2005000D01*
X6345000D01*
Y2245000D01*
D02*
G37*
G36*
X1509991Y1973728D02*
X1485605Y1968877D01*
X1464931Y1955063D01*
X1451117Y1934390D01*
X1448424Y1920846D01*
X1427390Y1925030D01*
X1403004Y1920179D01*
X1382330Y1906365D01*
X1368516Y1885691D01*
X1363666Y1861305D01*
X1368516Y1836919D01*
X1382330Y1816245D01*
X1403004Y1802431D01*
X1427390Y1797581D01*
X1451776Y1802431D01*
X1472450Y1816245D01*
X1486264Y1836919D01*
X1488958Y1850462D01*
X1509991Y1846279D01*
X1534378Y1851129D01*
X1555051Y1864943D01*
X1568865Y1885617D01*
X1573716Y1910003D01*
X1568865Y1934390D01*
X1555051Y1955063D01*
X1534378Y1968877D01*
X1509991Y1973728D01*
D02*
G37*
G36*
X550000Y2043725D02*
X525614Y2038874D01*
X504940Y2025060D01*
X491127Y2004386D01*
X486276Y1980000D01*
X491127Y1955614D01*
X504940Y1934940D01*
X525614Y1921126D01*
X550000Y1916276D01*
X574387Y1921126D01*
X595061Y1934940D01*
X608874Y1955614D01*
X613725Y1980000D01*
X608874Y2004386D01*
X595061Y2025060D01*
X574387Y2038874D01*
X550000Y2043725D01*
D02*
G37*
G36*
X2847500Y2003725D02*
X2823114Y1998874D01*
X2802440Y1985060D01*
X2788626Y1964386D01*
X2783776Y1940000D01*
X2788626Y1915614D01*
X2802440Y1894940D01*
X2823114Y1881126D01*
X2847500Y1876276D01*
X2871887Y1881126D01*
X2892560Y1894940D01*
X2906374Y1915614D01*
X2911225Y1940000D01*
X2906374Y1964386D01*
X2892560Y1985060D01*
X2871887Y1998874D01*
X2847500Y2003725D01*
D02*
G37*
G36*
X3290001Y2223725D02*
X3265614Y2218874D01*
X3244940Y2205060D01*
X3231127Y2184386D01*
X3226276Y2160000D01*
X3231127Y2135614D01*
X3244940Y2114940D01*
X3265614Y2101126D01*
X3271176Y2100020D01*
X3271385Y2099496D01*
X3272517Y2086804D01*
X3254940Y2075060D01*
X3241127Y2054386D01*
X3236276Y2030000D01*
X3241127Y2005614D01*
X3254940Y1984940D01*
X3275614Y1971126D01*
X3277335Y1970784D01*
X3279813Y1958328D01*
X3274928Y1955063D01*
X3261114Y1934390D01*
X3256263Y1910003D01*
X3261114Y1885617D01*
X3274928Y1864943D01*
X3295601Y1851129D01*
X3319988Y1846279D01*
X3344374Y1851129D01*
X3365048Y1864943D01*
X3378862Y1885617D01*
X3383712Y1910003D01*
X3378862Y1934390D01*
X3365048Y1955063D01*
X3344374Y1968877D01*
X3342653Y1969220D01*
X3340175Y1981675D01*
X3345061Y1984940D01*
X3358874Y2005614D01*
X3363725Y2030000D01*
X3358874Y2054386D01*
X3345061Y2075060D01*
X3324387Y2088874D01*
X3318825Y2089980D01*
X3318616Y2090504D01*
X3317484Y2103196D01*
X3335061Y2114940D01*
X3348874Y2135614D01*
X3353725Y2160000D01*
X3348874Y2184386D01*
X3335061Y2205060D01*
X3314387Y2218874D01*
X3290001Y2223725D01*
D02*
G37*
G36*
X2260000Y1903725D02*
X2235614Y1898874D01*
X2214940Y1885060D01*
X2201126Y1864386D01*
X2196276Y1840000D01*
X2201126Y1815614D01*
X2214940Y1794940D01*
X2235614Y1781126D01*
X2260000Y1776276D01*
X2284387Y1781126D01*
X2305060Y1794940D01*
X2318874Y1815614D01*
X2323725Y1840000D01*
X2318874Y1864386D01*
X2305060Y1885060D01*
X2284387Y1898874D01*
X2260000Y1903725D01*
D02*
G37*
G36*
X2550000Y1873725D02*
X2525614Y1868874D01*
X2504940Y1855060D01*
X2491127Y1834386D01*
X2486276Y1810000D01*
X2491127Y1785614D01*
X2504940Y1764940D01*
X2525614Y1751126D01*
X2550000Y1746276D01*
X2574387Y1751126D01*
X2595061Y1764940D01*
X2608874Y1785614D01*
X2613725Y1810000D01*
X2608874Y1834386D01*
X2595061Y1855060D01*
X2574387Y1868874D01*
X2550000Y1873725D01*
D02*
G37*
G36*
X1850000Y1863725D02*
X1825614Y1858874D01*
X1804940Y1845060D01*
X1791126Y1824386D01*
X1786276Y1800000D01*
X1791126Y1775614D01*
X1804940Y1754940D01*
X1825614Y1741126D01*
X1850000Y1736276D01*
X1874387Y1741126D01*
X1895060Y1754940D01*
X1908874Y1775614D01*
X1913725Y1800000D01*
X1908874Y1824386D01*
X1895060Y1845060D01*
X1874387Y1858874D01*
X1850000Y1863725D01*
D02*
G37*
G36*
X940000Y1823725D02*
X915614Y1818874D01*
X894940Y1805060D01*
X881127Y1784386D01*
X876276Y1760000D01*
X881127Y1735614D01*
X894940Y1714940D01*
X915614Y1701126D01*
X940000Y1696275D01*
X964387Y1701126D01*
X985061Y1714940D01*
X998874Y1735614D01*
X1003725Y1760000D01*
X998874Y1784386D01*
X985061Y1805060D01*
X964387Y1818874D01*
X940000Y1823725D01*
D02*
G37*
G36*
X760001D02*
X735614Y1818874D01*
X714940Y1805060D01*
X701127Y1784386D01*
X696276Y1760000D01*
X701127Y1735614D01*
X714940Y1714940D01*
X735614Y1701126D01*
X760001Y1696275D01*
X784387Y1701126D01*
X805061Y1714940D01*
X818874Y1735614D01*
X823725Y1760000D01*
X818874Y1784386D01*
X805061Y1805060D01*
X784387Y1818874D01*
X760001Y1823725D01*
D02*
G37*
G36*
X9014000Y2015901D02*
X8959061Y2012300D01*
X8905063Y2001559D01*
X8852928Y1983862D01*
X8803550Y1959511D01*
X8757772Y1928923D01*
X8731447Y1905838D01*
X9014001Y1623285D01*
X9296553Y1905837D01*
X9270228Y1928923D01*
X9224450Y1959511D01*
X9175072Y1983862D01*
X9122937Y2001559D01*
X9068939Y2012300D01*
X9014000Y2015901D01*
D02*
G37*
G36*
X4240000Y1723725D02*
X4215614Y1718874D01*
X4194940Y1705060D01*
X4181126Y1684386D01*
X4176275Y1660000D01*
X4181126Y1635614D01*
X4194940Y1614940D01*
X4215614Y1601126D01*
X4240000Y1596275D01*
X4264386Y1601126D01*
X4285060Y1614940D01*
X4298874Y1635614D01*
X4303724Y1660000D01*
X4298874Y1684386D01*
X4285060Y1705060D01*
X4264386Y1718874D01*
X4240000Y1723725D01*
D02*
G37*
G36*
X3230000Y1673725D02*
X3205614Y1668874D01*
X3184940Y1655060D01*
X3171126Y1634386D01*
X3166276Y1610000D01*
X3171126Y1585614D01*
X3184940Y1564940D01*
X3205614Y1551126D01*
X3230000Y1546276D01*
X3254387Y1551126D01*
X3275061Y1564940D01*
X3288874Y1585614D01*
X3293725Y1610000D01*
X3288874Y1634386D01*
X3275061Y1655060D01*
X3254387Y1668874D01*
X3230000Y1673725D01*
D02*
G37*
G36*
X860001Y1580776D02*
X836506Y1577683D01*
X814613Y1568615D01*
X795812Y1554189D01*
X788005Y1544014D01*
X771997D01*
X764189Y1554189D01*
X745389Y1568615D01*
X723495Y1577683D01*
X700001Y1580776D01*
X676506Y1577683D01*
X654612Y1568615D01*
X635812Y1554189D01*
X621386Y1535388D01*
X612318Y1513495D01*
X609224Y1490000D01*
X612318Y1466505D01*
X621386Y1444612D01*
X635812Y1425811D01*
X654612Y1411386D01*
X676506Y1402317D01*
X700001Y1399224D01*
X723495Y1402317D01*
X745389Y1411386D01*
X764189Y1425811D01*
X771997Y1435986D01*
X788005D01*
X795812Y1425811D01*
X814613Y1411386D01*
X836506Y1402317D01*
X860001Y1399224D01*
X883496Y1402317D01*
X905389Y1411386D01*
X924189Y1425811D01*
X938615Y1444612D01*
X947684Y1466505D01*
X950777Y1490000D01*
X947684Y1513495D01*
X938615Y1535388D01*
X924189Y1554189D01*
X905389Y1568615D01*
X883496Y1577683D01*
X860001Y1580776D01*
D02*
G37*
G36*
X6225000Y1700863D02*
X6198895Y1697426D01*
X6174569Y1687350D01*
X6153679Y1671321D01*
X6137650Y1650431D01*
X6127574Y1626105D01*
X6124137Y1600000D01*
X6127574Y1573895D01*
X6137650Y1549569D01*
X6153679Y1528679D01*
X6174569Y1512651D01*
X6198895Y1502574D01*
X6225000Y1499137D01*
X6251105Y1502574D01*
X6275431Y1512651D01*
X6296321Y1528679D01*
X6312350Y1549569D01*
X6322426Y1573895D01*
X6325863Y1600000D01*
X6322426Y1626105D01*
X6312350Y1650431D01*
X6296321Y1671321D01*
X6275431Y1687350D01*
X6251105Y1697426D01*
X6225000Y1700863D01*
D02*
G37*
G36*
X7220000Y1720000D02*
X6980000D01*
Y1480000D01*
X7220000D01*
Y1720000D01*
D02*
G37*
G36*
X1200001Y1610822D02*
X1166675Y1607540D01*
X1134630Y1597819D01*
X1105097Y1582033D01*
X1094746Y1573539D01*
X1200001Y1468284D01*
X1305255Y1573539D01*
X1294904Y1582033D01*
X1265372Y1597819D01*
X1233326Y1607540D01*
X1200001Y1610822D01*
D02*
G37*
G36*
X360001D02*
X326675Y1607540D01*
X294630Y1597819D01*
X265097Y1582033D01*
X254746Y1573539D01*
X360001Y1468284D01*
X465255Y1573539D01*
X454905Y1582033D01*
X425372Y1597819D01*
X393327Y1607540D01*
X360001Y1610822D01*
D02*
G37*
G36*
X1333540Y1545254D02*
X1214143Y1425858D01*
X1200001Y1440000D01*
X1185858Y1425858D01*
X1066462Y1545254D01*
X1057967Y1534904D01*
X1042181Y1505371D01*
X1032460Y1473326D01*
X1029178Y1440000D01*
Y1340000D01*
X1029573Y1335989D01*
X1017119Y1332869D01*
X1009880Y1350345D01*
X1009337Y1351053D01*
X968285Y1310000D01*
X1009338Y1268948D01*
X1009880Y1269655D01*
X1017941Y1289116D01*
X1020036Y1305028D01*
X1032460Y1306674D01*
X1042181Y1274629D01*
X1057967Y1245096D01*
X1066462Y1234746D01*
X1185858Y1354142D01*
X1200001Y1340000D01*
X1214143Y1354142D01*
X1333540Y1234746D01*
X1342034Y1245096D01*
X1357820Y1274629D01*
X1367541Y1306674D01*
X1370823Y1340000D01*
Y1440000D01*
X1367541Y1473326D01*
X1357820Y1505371D01*
X1342034Y1534904D01*
X1333540Y1545254D01*
D02*
G37*
G36*
X2120000Y1503725D02*
X2095614Y1498874D01*
X2074940Y1485060D01*
X2061126Y1464386D01*
X2056276Y1440000D01*
X2061126Y1415614D01*
X2074940Y1394940D01*
X2095614Y1381126D01*
X2120000Y1376276D01*
X2144387Y1381126D01*
X2165060Y1394940D01*
X2178874Y1415614D01*
X2183725Y1440000D01*
X2178874Y1464386D01*
X2165060Y1485060D01*
X2144387Y1498874D01*
X2120000Y1503725D01*
D02*
G37*
G36*
X2540000Y1503724D02*
X2515614Y1498874D01*
X2494940Y1485060D01*
X2481126Y1464386D01*
X2476275Y1440000D01*
X2481126Y1415614D01*
X2494940Y1394940D01*
X2515614Y1381126D01*
X2540000Y1376275D01*
X2564386Y1381126D01*
X2585060Y1394940D01*
X2598874Y1415614D01*
X2603725Y1440000D01*
X2598874Y1464386D01*
X2585060Y1485060D01*
X2564386Y1498874D01*
X2540000Y1503724D01*
D02*
G37*
G36*
X940001Y1390690D02*
X919117Y1387941D01*
X899656Y1379880D01*
X898948Y1379337D01*
X940001Y1338285D01*
X981053Y1379337D01*
X980346Y1379880D01*
X960885Y1387941D01*
X940001Y1390690D01*
D02*
G37*
G36*
X2739989Y1443729D02*
X2715603Y1438878D01*
X2694929Y1425064D01*
X2681115Y1404391D01*
X2676264Y1380004D01*
X2681115Y1355618D01*
X2687338Y1346305D01*
X2678181Y1337149D01*
X2664375Y1346374D01*
X2639989Y1351225D01*
X2615603Y1346374D01*
X2594929Y1332560D01*
X2581115Y1311886D01*
X2576265Y1287500D01*
X2581115Y1263114D01*
X2594929Y1242440D01*
X2615603Y1228626D01*
X2639989Y1223776D01*
X2664375Y1228626D01*
X2685049Y1242440D01*
X2698863Y1263114D01*
X2703714Y1287500D01*
X2698863Y1311886D01*
X2692641Y1321199D01*
X2701797Y1330355D01*
X2715603Y1321130D01*
X2729465Y1318373D01*
X2731115Y1314391D01*
X2726264Y1290005D01*
X2731115Y1265618D01*
X2744929Y1244944D01*
X2765603Y1231131D01*
X2789989Y1226280D01*
X2814375Y1231131D01*
X2835049Y1244944D01*
X2848863Y1265618D01*
X2853713Y1290005D01*
X2850695Y1305177D01*
X2860001Y1316275D01*
X2884387Y1321126D01*
X2905060Y1334940D01*
X2918874Y1355614D01*
X2923725Y1380000D01*
X2918874Y1404386D01*
X2905060Y1425060D01*
X2884387Y1438874D01*
X2860000Y1443725D01*
X2835614Y1438874D01*
X2814940Y1425060D01*
X2807633Y1414124D01*
X2792359D01*
X2785049Y1425064D01*
X2764375Y1438878D01*
X2739989Y1443729D01*
D02*
G37*
G36*
X3000000Y1443725D02*
X2975614Y1438874D01*
X2954940Y1425060D01*
X2941126Y1404386D01*
X2936276Y1380000D01*
X2941126Y1355614D01*
X2954940Y1334940D01*
X2975614Y1321126D01*
X3000000Y1316275D01*
X3024387Y1321126D01*
X3045060Y1334940D01*
X3058874Y1355614D01*
X3063725Y1380000D01*
X3058874Y1404386D01*
X3045060Y1425060D01*
X3024387Y1438874D01*
X3000000Y1443725D01*
D02*
G37*
G36*
X8703163Y1877553D02*
X8680077Y1851228D01*
X8649489Y1805451D01*
X8625138Y1756072D01*
X8607441Y1703937D01*
X8596700Y1649939D01*
X8593099Y1595000D01*
X8596700Y1540061D01*
X8607441Y1486063D01*
X8625138Y1433928D01*
X8649489Y1384550D01*
X8680077Y1338772D01*
X8703163Y1312447D01*
X8985716Y1595000D01*
X8703163Y1877553D01*
D02*
G37*
G36*
X940001Y1281716D02*
X898948Y1240663D01*
X899656Y1240120D01*
X919117Y1232059D01*
X940001Y1229310D01*
X960885Y1232059D01*
X980346Y1240120D01*
X981053Y1240663D01*
X940001Y1281716D01*
D02*
G37*
G36*
X1200001Y1311716D02*
X1094746Y1206461D01*
X1105097Y1197967D01*
X1134630Y1182181D01*
X1166675Y1172460D01*
X1200001Y1169178D01*
X1233326Y1172460D01*
X1265372Y1182181D01*
X1294904Y1197967D01*
X1305255Y1206461D01*
X1200001Y1311716D01*
D02*
G37*
G36*
X1760000Y1293725D02*
X1735614Y1288874D01*
X1714940Y1275060D01*
X1701126Y1254386D01*
X1696276Y1230000D01*
X1701126Y1205614D01*
X1714940Y1184940D01*
X1735614Y1171126D01*
X1760000Y1166276D01*
X1784387Y1171126D01*
X1805060Y1184940D01*
X1818874Y1205614D01*
X1823725Y1230000D01*
X1818874Y1254386D01*
X1805060Y1275060D01*
X1784387Y1288874D01*
X1760000Y1293725D01*
D02*
G37*
G36*
X5300000Y1636137D02*
X5253932Y1631600D01*
X5209635Y1618162D01*
X5168810Y1596341D01*
X5133026Y1566974D01*
X5103660Y1531191D01*
X5081838Y1490366D01*
X5068401Y1446068D01*
X5063863Y1400000D01*
X5068401Y1353932D01*
X5081838Y1309634D01*
X5103660Y1268809D01*
X5133026Y1233026D01*
X5168810Y1203659D01*
X5209635Y1181838D01*
X5253932Y1168400D01*
X5300000Y1163863D01*
X5346068Y1168400D01*
X5390366Y1181838D01*
X5431191Y1203659D01*
X5466974Y1233026D01*
X5496341Y1268809D01*
X5518162Y1309634D01*
X5531600Y1353932D01*
X5536137Y1400000D01*
X5531600Y1446068D01*
X5518162Y1490366D01*
X5496341Y1531191D01*
X5466974Y1566974D01*
X5431191Y1596341D01*
X5390366Y1618162D01*
X5346068Y1631600D01*
X5300000Y1636137D01*
D02*
G37*
G36*
X2190000Y1293725D02*
X2165614Y1288874D01*
X2144940Y1275060D01*
X2131127Y1254386D01*
X2126276Y1230000D01*
X2131127Y1205614D01*
X2128579Y1199464D01*
X2125614Y1198874D01*
X2104940Y1185060D01*
X2091127Y1164386D01*
X2086276Y1140000D01*
X2091127Y1115614D01*
X2104940Y1094940D01*
X2125614Y1081126D01*
X2150001Y1076275D01*
X2174387Y1081126D01*
X2195061Y1094940D01*
X2208874Y1115614D01*
X2213725Y1140000D01*
X2208874Y1164386D01*
X2211422Y1170536D01*
X2214387Y1171126D01*
X2235061Y1184940D01*
X2248874Y1205614D01*
X2253725Y1230000D01*
X2248874Y1254386D01*
X2235061Y1275060D01*
X2214387Y1288874D01*
X2190000Y1293725D01*
D02*
G37*
G36*
X3010000Y1123724D02*
X2985614Y1118874D01*
X2964940Y1105060D01*
X2951126Y1084386D01*
X2946276Y1060000D01*
X2951126Y1035614D01*
X2964940Y1014940D01*
X2985614Y1001126D01*
X3010000Y996275D01*
X3034386Y1001126D01*
X3055060Y1014940D01*
X3068874Y1035614D01*
X3073725Y1060000D01*
X3068874Y1084386D01*
X3055060Y1105060D01*
X3034386Y1118874D01*
X3010000Y1123724D01*
D02*
G37*
G36*
X6345000Y1220000D02*
X6105000D01*
Y980000D01*
X6345000D01*
Y1220000D01*
D02*
G37*
G36*
X2350000Y1043724D02*
X2325614Y1038874D01*
X2304940Y1025060D01*
X2291126Y1004386D01*
X2286276Y980000D01*
X2291126Y955614D01*
X2304940Y934940D01*
X2325614Y921126D01*
X2350000Y916275D01*
X2374387Y921126D01*
X2395060Y934940D01*
X2408874Y955614D01*
X2413725Y980000D01*
X2408874Y1004386D01*
X2395060Y1025060D01*
X2374387Y1038874D01*
X2350000Y1043724D01*
D02*
G37*
G36*
X1800000Y813725D02*
X1775614Y808874D01*
X1754940Y795060D01*
X1741126Y774386D01*
X1736275Y750000D01*
X1741126Y725614D01*
X1754940Y704940D01*
X1775614Y691126D01*
X1800000Y686275D01*
X1824386Y691126D01*
X1845060Y704940D01*
X1858874Y725614D01*
X1863724Y750000D01*
X1858874Y774386D01*
X1845060Y795060D01*
X1824386Y808874D01*
X1800000Y813725D01*
D02*
G37*
G36*
X1650000D02*
X1625614Y808874D01*
X1604940Y795060D01*
X1591126Y774386D01*
X1586275Y750000D01*
X1591126Y725614D01*
X1604940Y704940D01*
X1625614Y691126D01*
X1650000Y686275D01*
X1674386Y691126D01*
X1695060Y704940D01*
X1708874Y725614D01*
X1713725Y750000D01*
X1708874Y774386D01*
X1695060Y795060D01*
X1674386Y808874D01*
X1650000Y813725D01*
D02*
G37*
G36*
X7522000Y883906D02*
X7494590Y880297D01*
X7469047Y869717D01*
X7447113Y852887D01*
X7430283Y830953D01*
X7419703Y805410D01*
X7416094Y778000D01*
X7419703Y750590D01*
X7430283Y725047D01*
X7447113Y703113D01*
X7469047Y686283D01*
X7494590Y675703D01*
X7522000Y672094D01*
X7549410Y675703D01*
X7574953Y686283D01*
X7596887Y703113D01*
X7613717Y725047D01*
X7624297Y750590D01*
X7627906Y778000D01*
X7624297Y805410D01*
X7613717Y830953D01*
X7596887Y852887D01*
X7574953Y869717D01*
X7549410Y880297D01*
X7522000Y883906D01*
D02*
G37*
G36*
X6760000D02*
X6732590Y880297D01*
X6707047Y869717D01*
X6685113Y852887D01*
X6668283Y830953D01*
X6657703Y805410D01*
X6654094Y778000D01*
X6657703Y750590D01*
X6668283Y725047D01*
X6685113Y703113D01*
X6707047Y686283D01*
X6732590Y675703D01*
X6760000Y672094D01*
X6787410Y675703D01*
X6812953Y686283D01*
X6834887Y703113D01*
X6851717Y725047D01*
X6862297Y750590D01*
X6865906Y778000D01*
X6862297Y805410D01*
X6851717Y830953D01*
X6834887Y852887D01*
X6812953Y869717D01*
X6787410Y880297D01*
X6760000Y883906D01*
D02*
G37*
G36*
X1396001Y758790D02*
X1375116Y756041D01*
X1355655Y747980D01*
X1338944Y735157D01*
X1326121Y718445D01*
X1318060Y698984D01*
X1315310Y678100D01*
X1318060Y657216D01*
X1326121Y637755D01*
X1338944Y621044D01*
X1355655Y608221D01*
X1375116Y600160D01*
X1396001Y597410D01*
X1416885Y600160D01*
X1436346Y608221D01*
X1453057Y621044D01*
X1465880Y637755D01*
X1473941Y657216D01*
X1476691Y678100D01*
X1473941Y698984D01*
X1465880Y718445D01*
X1453057Y735157D01*
X1436346Y747980D01*
X1416885Y756041D01*
X1396001Y758790D01*
D02*
G37*
G36*
X2879038Y692763D02*
X2854652Y687912D01*
X2833978Y674098D01*
X2820165Y653424D01*
X2815314Y629038D01*
X2820165Y604652D01*
X2833978Y583978D01*
X2854652Y570164D01*
X2879038Y565314D01*
X2903425Y570164D01*
X2924099Y583978D01*
X2937912Y604652D01*
X2942763Y629038D01*
X2937912Y653424D01*
X2924099Y674098D01*
X2903425Y687912D01*
X2879038Y692763D01*
D02*
G37*
G36*
X7522000Y619819D02*
X7497200Y616555D01*
X7474090Y606982D01*
X7470250Y604035D01*
X7522000Y552284D01*
X7573751Y604035D01*
X7569910Y606982D01*
X7546800Y616555D01*
X7522000Y619819D01*
D02*
G37*
G36*
X6760000D02*
X6735200Y616555D01*
X6712090Y606982D01*
X6708250Y604035D01*
X6760000Y552284D01*
X6811751Y604035D01*
X6807910Y606982D01*
X6784800Y616555D01*
X6760000Y619819D01*
D02*
G37*
G36*
X1904001Y657190D02*
X1883116Y654441D01*
X1863655Y646380D01*
X1846944Y633557D01*
X1834121Y616845D01*
X1826060Y597384D01*
X1823310Y576500D01*
X1826060Y555616D01*
X1834121Y536155D01*
X1846944Y519444D01*
X1863655Y506621D01*
X1883116Y498560D01*
X1904001Y495810D01*
X1924885Y498560D01*
X1944346Y506621D01*
X1961057Y519444D01*
X1973880Y536155D01*
X1981941Y555616D01*
X1984691Y576500D01*
X1981941Y597384D01*
X1973880Y616845D01*
X1961057Y633557D01*
X1944346Y646380D01*
X1924885Y654441D01*
X1904001Y657190D01*
D02*
G37*
G36*
X6840035Y575750D02*
X6788285Y524000D01*
X6840035Y472250D01*
X6842982Y476090D01*
X6852554Y499200D01*
X6855819Y524000D01*
X6852554Y548800D01*
X6842982Y571910D01*
X6840035Y575750D01*
D02*
G37*
G36*
X7602035D02*
X7550285Y524000D01*
X7602035Y472250D01*
X7604982Y476090D01*
X7614554Y499200D01*
X7617819Y524000D01*
X7614554Y548800D01*
X7604982Y571910D01*
X7602035Y575750D01*
D02*
G37*
G36*
X7441965Y575751D02*
X7439018Y571910D01*
X7429445Y548800D01*
X7426180Y524000D01*
X7429445Y499200D01*
X7439018Y476090D01*
X7441965Y472249D01*
X7493716Y524000D01*
X7441965Y575751D01*
D02*
G37*
G36*
X6679965D02*
X6677018Y571910D01*
X6667445Y548800D01*
X6664180Y524000D01*
X6667445Y499200D01*
X6677018Y476090D01*
X6679965Y472249D01*
X6731716Y524000D01*
X6679965Y575751D01*
D02*
G37*
G36*
X7522000Y495716D02*
X7470250Y443965D01*
X7474090Y441018D01*
X7497200Y431445D01*
X7522000Y428180D01*
X7546800Y431445D01*
X7569910Y441018D01*
X7573751Y443965D01*
X7522000Y495716D01*
D02*
G37*
G36*
X6760000D02*
X6708250Y443965D01*
X6712090Y441018D01*
X6735200Y431445D01*
X6760000Y428180D01*
X6784800Y431445D01*
X6807910Y441018D01*
X6811751Y443965D01*
X6760000Y495716D01*
D02*
G37*
G36*
X5610000Y910871D02*
X5574714Y907395D01*
X5540784Y897103D01*
X5509513Y880389D01*
X5482105Y857895D01*
X5459611Y830487D01*
X5442897Y799216D01*
X5432605Y765286D01*
X5429129Y730000D01*
Y530000D01*
X5432605Y494714D01*
X5442897Y460784D01*
X5459611Y429513D01*
X5482105Y402105D01*
X5509513Y379611D01*
X5540784Y362897D01*
X5574714Y352605D01*
X5610000Y349129D01*
X5645286Y352605D01*
X5679216Y362897D01*
X5710486Y379611D01*
X5737895Y402105D01*
X5760389Y429513D01*
X5777103Y460784D01*
X5787395Y494714D01*
X5790871Y530000D01*
Y730000D01*
X5787395Y765286D01*
X5777103Y799216D01*
X5760389Y830487D01*
X5737895Y857895D01*
X5710486Y880389D01*
X5679216Y897103D01*
X5645286Y907395D01*
X5610000Y910871D01*
D02*
G37*
G36*
X2320000Y900871D02*
X2284714Y897395D01*
X2250784Y887103D01*
X2219514Y870389D01*
X2192105Y847895D01*
X2169612Y820487D01*
X2152898Y789216D01*
X2142605Y755286D01*
X2139130Y720000D01*
Y520000D01*
X2142605Y484714D01*
X2152898Y450784D01*
X2169612Y419514D01*
X2192105Y392105D01*
X2219514Y369611D01*
X2250784Y352897D01*
X2284714Y342605D01*
X2320000Y339129D01*
X2355287Y342605D01*
X2389217Y352897D01*
X2420487Y369611D01*
X2447896Y392105D01*
X2470389Y419514D01*
X2487103Y450784D01*
X2497396Y484714D01*
X2500871Y520000D01*
Y720000D01*
X2497396Y755286D01*
X2487103Y789216D01*
X2470389Y820487D01*
X2447896Y847895D01*
X2420487Y870389D01*
X2389217Y887103D01*
X2355287Y897395D01*
X2320000Y900871D01*
D02*
G37*
G36*
X1396001Y555590D02*
X1375116Y552841D01*
X1355655Y544780D01*
X1338944Y531957D01*
X1326121Y515245D01*
X1318060Y495784D01*
X1315310Y474900D01*
X1318060Y454016D01*
X1326121Y434555D01*
X1338944Y417844D01*
X1355655Y405021D01*
X1375116Y396960D01*
X1396001Y394210D01*
X1416885Y396960D01*
X1436346Y405021D01*
X1451663Y416774D01*
X1456524Y415328D01*
X1463341Y410384D01*
X1461275Y400000D01*
X1466126Y375614D01*
X1479940Y354940D01*
X1500614Y341126D01*
X1525000Y336275D01*
X1549386Y341126D01*
X1570060Y354940D01*
X1580243Y370181D01*
X1594757D01*
X1604940Y354940D01*
X1625614Y341126D01*
X1650000Y336275D01*
X1674386Y341126D01*
X1695060Y354940D01*
X1705243Y370181D01*
X1719757D01*
X1729940Y354940D01*
X1750614Y341126D01*
X1775000Y336275D01*
X1799386Y341126D01*
X1820060Y354940D01*
X1833874Y375614D01*
X1838725Y400000D01*
X1833874Y424386D01*
X1820060Y445060D01*
X1799386Y458874D01*
X1775000Y463724D01*
X1750614Y458874D01*
X1729940Y445060D01*
X1719757Y429819D01*
X1705243D01*
X1695060Y445060D01*
X1674386Y458874D01*
X1650000Y463724D01*
X1625614Y458874D01*
X1604940Y445060D01*
X1594757Y429819D01*
X1580243D01*
X1570060Y445060D01*
X1549386Y458874D01*
X1525000Y463724D01*
X1500614Y458874D01*
X1485523Y448791D01*
X1479841Y451354D01*
X1474275Y456549D01*
X1476691Y474900D01*
X1473941Y495784D01*
X1465880Y515245D01*
X1453057Y531957D01*
X1436346Y544780D01*
X1416885Y552841D01*
X1396001Y555590D01*
D02*
G37*
G36*
X6550000Y365561D02*
X6533032Y363327D01*
X6517220Y356777D01*
X6503642Y346358D01*
X6493223Y332780D01*
X6486673Y316968D01*
X6484439Y300000D01*
X6486673Y283031D01*
X6493223Y267219D01*
X6503642Y253642D01*
X6517220Y243223D01*
X6533032Y236673D01*
X6550000Y234439D01*
X6566969Y236673D01*
X6582780Y243223D01*
X6596358Y253642D01*
X6606777Y267219D01*
X6613327Y283031D01*
X6615561Y300000D01*
X6613327Y316968D01*
X6606777Y332780D01*
X6596358Y346358D01*
X6582780Y356777D01*
X6566969Y363327D01*
X6550000Y365561D01*
D02*
G37*
G36*
X7522000Y375906D02*
X7494590Y372297D01*
X7469047Y361717D01*
X7447113Y344887D01*
X7430283Y322953D01*
X7419703Y297410D01*
X7416094Y270000D01*
X7419703Y242590D01*
X7430283Y217047D01*
X7447113Y195113D01*
X7469047Y178283D01*
X7494590Y167703D01*
X7522000Y164094D01*
X7549410Y167703D01*
X7574953Y178283D01*
X7596887Y195113D01*
X7613717Y217047D01*
X7624297Y242590D01*
X7627906Y270000D01*
X7624297Y297410D01*
X7613717Y322953D01*
X7596887Y344887D01*
X7574953Y361717D01*
X7549410Y372297D01*
X7522000Y375906D01*
D02*
G37*
G36*
X6760000D02*
X6732590Y372297D01*
X6707047Y361717D01*
X6685113Y344887D01*
X6668283Y322953D01*
X6657703Y297410D01*
X6654094Y270000D01*
X6657703Y242590D01*
X6668283Y217047D01*
X6685113Y195113D01*
X6707047Y178283D01*
X6732590Y167703D01*
X6760000Y164094D01*
X6787410Y167703D01*
X6812953Y178283D01*
X6834887Y195113D01*
X6851717Y217047D01*
X6862297Y242590D01*
X6865906Y270000D01*
X6862297Y297410D01*
X6851717Y322953D01*
X6834887Y344887D01*
X6812953Y361717D01*
X6787410Y372297D01*
X6760000Y375906D01*
D02*
G37*
%LPD*%
G36*
X7053193Y6847862D02*
X7057912Y6847306D01*
X7062632Y6846473D01*
X7067074Y6845363D01*
X7071238Y6843975D01*
X7074847Y6842587D01*
X7078457Y6840921D01*
X7081510Y6839255D01*
X7084564Y6837867D01*
X7087063Y6836201D01*
X7089284Y6834813D01*
X7090949Y6833425D01*
X7092338Y6832315D01*
X7093448Y6831482D01*
X7094003Y6830927D01*
X7094281Y6830649D01*
X7097612Y6827318D01*
X7100389Y6823708D01*
X7102887Y6820099D01*
X7105108Y6816490D01*
X7106774Y6813159D01*
X7108440Y6809550D01*
X7110661Y6802887D01*
X7111216Y6799833D01*
X7111771Y6797057D01*
X7112326Y6794558D01*
X7112604Y6792337D01*
X7112882Y6790671D01*
Y6789283D01*
Y6788450D01*
Y6788173D01*
X7112604Y6781510D01*
X7111494Y6775402D01*
X7109828Y6770127D01*
X7108162Y6765685D01*
X7106496Y6762076D01*
X7104831Y6759300D01*
X7103720Y6757634D01*
X7103442Y6757079D01*
X7099556Y6752915D01*
X7095391Y6749306D01*
X7090949Y6746530D01*
X7086508Y6744309D01*
X7082621Y6742643D01*
X7079567Y6741532D01*
X7078457Y6741255D01*
X7077624Y6740977D01*
X7077068Y6740699D01*
X7076791D01*
X7081510Y6738201D01*
X7085397Y6735702D01*
X7088729Y6732926D01*
X7091505Y6730427D01*
X7093726Y6728207D01*
X7095391Y6726263D01*
X7096224Y6725153D01*
X7096502Y6724597D01*
X7098723Y6720711D01*
X7100389Y6716824D01*
X7101777Y6712937D01*
X7102610Y6709328D01*
X7103165Y6706274D01*
X7103442Y6704053D01*
Y6702388D01*
Y6701832D01*
X7103165Y6697113D01*
X7102332Y6692393D01*
X7101222Y6688229D01*
X7099833Y6684620D01*
X7098445Y6681566D01*
X7097335Y6679067D01*
X7096502Y6677679D01*
X7096224Y6677124D01*
X7093448Y6672960D01*
X7090117Y6669351D01*
X7086785Y6666297D01*
X7083454Y6663521D01*
X7080677Y6661577D01*
X7078179Y6659911D01*
X7076513Y6659079D01*
X7076236Y6658801D01*
X7075958D01*
X7070961Y6656580D01*
X7065964Y6654914D01*
X7060966Y6653526D01*
X7056524Y6652693D01*
X7052915Y6652138D01*
X7049861Y6651860D01*
X7042921D01*
X7039034Y6652416D01*
X7031538Y6653804D01*
X7025153Y6656025D01*
X7019601Y6658246D01*
X7017102Y6659634D01*
X7015159Y6660744D01*
X7013215Y6661855D01*
X7011827Y6662965D01*
X7010717Y6663798D01*
X7009884Y6664353D01*
X7009329Y6664631D01*
X7009051Y6664909D01*
X7003776Y6670184D01*
X6999612Y6676014D01*
X6996280Y6682121D01*
X6993504Y6688229D01*
X6991838Y6693504D01*
X6991006Y6695725D01*
X6990450Y6697668D01*
X6990173Y6699334D01*
X6989895Y6700444D01*
X6989617Y6701277D01*
Y6701555D01*
X7013215Y6705719D01*
X7014326Y6699611D01*
X7015992Y6694337D01*
X7017935Y6689895D01*
X7019878Y6686286D01*
X7021822Y6683509D01*
X7023487Y6681566D01*
X7024598Y6680178D01*
X7024875Y6679900D01*
X7028485Y6677124D01*
X7032371Y6674903D01*
X7035980Y6673515D01*
X7039589Y6672404D01*
X7042921Y6671849D01*
X7045419Y6671294D01*
X7047640D01*
X7052638Y6671572D01*
X7057080Y6672682D01*
X7060966Y6674070D01*
X7064298Y6675458D01*
X7066796Y6677124D01*
X7068740Y6678512D01*
X7070128Y6679623D01*
X7070405Y6679900D01*
X7073459Y6683232D01*
X7075680Y6686841D01*
X7077068Y6690450D01*
X7078179Y6693781D01*
X7078734Y6696835D01*
X7079289Y6699056D01*
Y6700722D01*
Y6701000D01*
Y6701277D01*
Y6704331D01*
X7078734Y6707107D01*
X7077346Y6711827D01*
X7075403Y6715991D01*
X7073182Y6719600D01*
X7070961Y6722099D01*
X7069017Y6724042D01*
X7067629Y6725153D01*
X7067352Y6725430D01*
X7067074D01*
X7062354Y6727929D01*
X7057912Y6729872D01*
X7053193Y6731260D01*
X7049029Y6732093D01*
X7045419Y6732648D01*
X7042366Y6733204D01*
X7038757D01*
X7037646Y6732926D01*
X7036258D01*
X7033482Y6753748D01*
X7037091Y6752915D01*
X7040422Y6752360D01*
X7043199Y6751804D01*
X7045697Y6751527D01*
X7047640Y6751249D01*
X7050139D01*
X7055969Y6751804D01*
X7061244Y6752915D01*
X7065964Y6754581D01*
X7069850Y6756524D01*
X7072904Y6758467D01*
X7075125Y6760133D01*
X7076513Y6761244D01*
X7077068Y6761799D01*
X7080677Y6765963D01*
X7083454Y6770405D01*
X7085397Y6774847D01*
X7086508Y6779289D01*
X7087340Y6782898D01*
X7087618Y6785952D01*
X7087896Y6787062D01*
Y6787895D01*
Y6788450D01*
Y6788728D01*
X7087340Y6794836D01*
X7085952Y6800388D01*
X7084287Y6805108D01*
X7082066Y6809272D01*
X7079845Y6812604D01*
X7078179Y6815102D01*
X7076791Y6816768D01*
X7076236Y6817323D01*
X7071794Y6821210D01*
X7067074Y6823986D01*
X7062354Y6825929D01*
X7057912Y6827318D01*
X7054026Y6828150D01*
X7050972Y6828428D01*
X7049861Y6828706D01*
X7048196D01*
X7043199Y6828428D01*
X7038479Y6827318D01*
X7034315Y6825929D01*
X7030983Y6824264D01*
X7028207Y6822876D01*
X7025986Y6821488D01*
X7024875Y6820377D01*
X7024320Y6820099D01*
X7020989Y6816213D01*
X7018213Y6811771D01*
X7015714Y6807051D01*
X7013771Y6802054D01*
X7012382Y6797890D01*
X7011827Y6795946D01*
X7011550Y6794281D01*
X7011272Y6792892D01*
X7010994Y6791782D01*
X7010717Y6791227D01*
Y6790949D01*
X6987119Y6794003D01*
X6987674Y6798445D01*
X6988507Y6802609D01*
X6991006Y6810383D01*
X6994059Y6817046D01*
X6995725Y6819822D01*
X6997391Y6822598D01*
X6999057Y6825097D01*
X7000722Y6827040D01*
X7002110Y6828983D01*
X7003499Y6830371D01*
X7004331Y6831482D01*
X7005164Y6832315D01*
X7005720Y6832870D01*
X7005997Y6833148D01*
X7009329Y6835646D01*
X7012660Y6838145D01*
X7015992Y6840088D01*
X7019601Y6841754D01*
X7026541Y6844530D01*
X7033204Y6846196D01*
X7036258Y6846751D01*
X7039034Y6847306D01*
X7041533Y6847584D01*
X7043754Y6847862D01*
X7045419Y6848139D01*
X7047918D01*
X7053193Y6847862D01*
D02*
G37*
G36*
X4730000Y3300000D02*
X4730000Y3160000D01*
X5030000Y2860001D01*
Y2600000D01*
X5020000Y2590000D01*
X4380000D01*
X4310000Y2660000D01*
X4310001Y3260000D01*
X4350000Y3300000D01*
X4730000Y3300000D01*
D02*
G37*
D17*
X200000Y5600000D02*
D03*
Y4900000D02*
D03*
Y3500000D02*
D03*
Y2800000D02*
D03*
Y4200000D02*
D03*
D18*
X6225000Y4675000D02*
D03*
X7100000Y3125000D02*
D03*
Y2100000D02*
D03*
X6225001Y3650000D02*
D03*
X7100001Y4150000D02*
D03*
X6225000Y1600000D02*
D03*
Y2625000D02*
D03*
D19*
Y4175000D02*
D03*
X7100000Y2625000D02*
D03*
Y1600000D02*
D03*
X6225001Y3150000D02*
D03*
X7100001Y3650000D02*
D03*
X6225000Y1100000D02*
D03*
Y2125000D02*
D03*
D20*
X360001Y1390000D02*
D03*
X1200001D02*
D03*
D21*
X860001Y1490000D02*
D03*
X780001Y1310000D02*
D03*
X700001Y1490000D02*
D03*
X620001Y1310000D02*
D03*
X940001D02*
D03*
D22*
X1396001Y678100D02*
D03*
Y474900D02*
D03*
X1904001Y576500D02*
D03*
D23*
X3125000Y6685000D02*
D03*
X3025000D02*
D03*
Y6535000D02*
D03*
X3125000D02*
D03*
X3075000Y6610000D02*
D03*
X2440000Y4605000D02*
D03*
X2540000D02*
D03*
Y4755000D02*
D03*
X2440000D02*
D03*
X2490000Y4680000D02*
D03*
D24*
X8662000Y3119000D02*
D03*
X7900000D02*
D03*
X8662000Y2357000D02*
D03*
X7900000D02*
D03*
Y3881000D02*
D03*
X8662000D02*
D03*
X7900000Y4643000D02*
D03*
X8662000D02*
D03*
D25*
X9014000Y1595000D02*
D03*
Y5405000D02*
D03*
D26*
X8050000Y6475000D02*
D03*
X5800000D02*
D03*
D27*
X1961987Y6689733D02*
D03*
X2153810Y6845389D02*
D03*
X1753440Y6823258D02*
D03*
X1818145Y7064740D02*
D03*
X2065515Y7076103D02*
D03*
X7522000Y270000D02*
D03*
X6760000Y778000D02*
D03*
X7522000D02*
D03*
X6760000Y270000D02*
D03*
Y524000D02*
D03*
X7522000D02*
D03*
X3911987Y6689733D02*
D03*
X4103810Y6845389D02*
D03*
X3703440Y6823258D02*
D03*
X3768145Y7064740D02*
D03*
X4015515Y7076103D02*
D03*
D28*
X6428805Y5718758D02*
D03*
X7170355Y4563162D02*
D03*
D29*
X5173000Y6891000D02*
D03*
X5427000D02*
D03*
Y6129000D02*
D03*
X5173000D02*
D03*
D30*
X500000Y500000D02*
D03*
Y7500000D02*
D03*
X8900000Y6500000D02*
D03*
Y500000D02*
D03*
D31*
X2320000Y620000D02*
D03*
X5610000Y630000D02*
D03*
D32*
X7025000Y5725000D02*
D03*
D33*
X1524997Y5099990D02*
D03*
X1800000Y750000D02*
D03*
X1500000D02*
D03*
X1650000D02*
D03*
X4655830Y5507500D02*
D03*
X5850000Y2500000D02*
D03*
X5750000Y5290000D02*
D03*
X6400000Y350000D02*
D03*
X3780001Y4620824D02*
D03*
X5290000Y6660000D02*
D03*
X1750000Y2510000D02*
D03*
X1750000Y2660000D02*
D03*
X2035001Y3040000D02*
D03*
X1380000Y2780000D02*
D03*
X1380000Y2630000D02*
D03*
X1380000Y2930000D02*
D03*
X1750000D02*
D03*
X2850000Y2450000D02*
D03*
X2842500Y2565000D02*
D03*
X2817292Y2650000D02*
D03*
X2847500Y2090000D02*
D03*
X2852500Y2735000D02*
D03*
X2752500Y2710000D02*
D03*
X3220000Y2390000D02*
D03*
Y2240000D02*
D03*
X3220000Y2090000D02*
D03*
X4240000Y1660000D02*
D03*
X1525000Y400000D02*
D03*
X3010000Y1060000D02*
D03*
X2720000Y7300000D02*
D03*
X3520000Y7200000D02*
D03*
X4310000Y3450000D02*
D03*
X4370000Y2060000D02*
D03*
X4530000Y3040000D02*
D03*
X2360000Y6610000D02*
D03*
X2450000Y6510000D02*
D03*
X1160000Y6150000D02*
D03*
X1530000D02*
D03*
X2450000Y6610000D02*
D03*
X4670000Y4030000D02*
D03*
X4810000Y5050000D02*
D03*
X3710000Y2650000D02*
D03*
X3880000Y2830000D02*
D03*
X4370000Y2330000D02*
D03*
X3660000Y4240000D02*
D03*
X3820000D02*
D03*
X3230000Y1940000D02*
D03*
X2690000Y3980000D02*
D03*
X2730000Y4800000D02*
D03*
X2320000Y4240000D02*
D03*
X1350000Y5110000D02*
D03*
X1830000Y5400000D02*
D03*
Y5210000D02*
D03*
Y5020000D02*
D03*
Y4830000D02*
D03*
X1840000Y4660000D02*
D03*
X1710000Y4130000D02*
D03*
X2249990Y4692500D02*
D03*
X3100000Y4800000D02*
D03*
X2444038Y1334038D02*
D03*
X2540000Y1440000D02*
D03*
X2739989Y1380004D02*
D03*
X2639989Y1287500D02*
D03*
X2789989Y1290005D02*
D03*
X2260000Y1440000D02*
D03*
X2395000D02*
D03*
X4560000Y1020000D02*
D03*
X3740000Y6280000D02*
D03*
Y6090000D02*
D03*
Y5910000D02*
D03*
X3325000Y6610000D02*
D03*
X3010001Y930000D02*
D03*
X1860000Y2830000D02*
D03*
X4740000Y3680000D02*
D03*
X5000000Y2665000D02*
D03*
Y2795000D02*
D03*
X5400000D02*
D03*
Y2665000D02*
D03*
X5200000Y2795000D02*
D03*
Y2730000D02*
D03*
Y2665000D02*
D03*
X1030000Y2790000D02*
D03*
Y2930000D02*
D03*
X2090000D02*
D03*
X1970000Y2830000D02*
D03*
X900000Y2860000D02*
D03*
X1710000Y1800000D02*
D03*
X2120000Y1440000D02*
D03*
X1650000Y400000D02*
D03*
X2930001Y1315000D02*
D03*
X5400000Y2730000D02*
D03*
X5000000D02*
D03*
Y2600000D02*
D03*
X4140000Y5010000D02*
D03*
X4290000Y5000000D02*
D03*
X3990000Y4240000D02*
D03*
X3650000Y4050000D02*
D03*
X3100000Y4480000D02*
D03*
X2580000Y3405000D02*
D03*
X2430000Y3405000D02*
D03*
X900000Y3000000D02*
D03*
X3290001Y2160000D02*
D03*
X3319988Y1910003D02*
D03*
X3300001Y2030000D02*
D03*
X2350000Y980000D02*
D03*
X400000Y5420000D02*
D03*
X200000Y4640000D02*
D03*
Y3940000D02*
D03*
X370001Y2580000D02*
D03*
X200000Y3240000D02*
D03*
X640000Y2650000D02*
D03*
X3490000Y4760000D02*
D03*
Y4560000D02*
D03*
Y4360000D02*
D03*
X2690000Y3190000D02*
D03*
X2369990Y2820001D02*
D03*
X890000Y4270000D02*
D03*
X2860000Y4160000D02*
D03*
X4570001Y4170000D02*
D03*
X4260000Y3930000D02*
D03*
X4420000Y4130000D02*
D03*
X4310001Y3680500D02*
D03*
X2879038Y629038D02*
D03*
X2150001Y1140000D02*
D03*
X3230000Y1610000D02*
D03*
X3140000Y1630000D02*
D03*
X2847500Y1940000D02*
D03*
X3000000Y1380000D02*
D03*
X2860000D02*
D03*
X1760000Y1230000D02*
D03*
X1810000Y1350000D02*
D03*
X1850000Y1440000D02*
D03*
X2550000Y1810000D02*
D03*
X2190000Y1230000D02*
D03*
X1427390Y1861305D02*
D03*
X1509991Y1910003D02*
D03*
X1756021Y2078521D02*
D03*
X2260000Y1840000D02*
D03*
X2964980Y3419520D02*
D03*
X2960000Y2990000D02*
D03*
X3380000Y3780000D02*
D03*
X3070000Y3420000D02*
D03*
X1850000Y1800000D02*
D03*
X5750000Y4150000D02*
D03*
Y4050000D02*
D03*
Y3950000D02*
D03*
X5850000Y4150000D02*
D03*
Y4050000D02*
D03*
Y3950000D02*
D03*
Y4250000D02*
D03*
X5750000D02*
D03*
X4050001Y3910000D02*
D03*
X4530000Y2810000D02*
D03*
X4730000Y3940000D02*
D03*
X3220000Y4250000D02*
D03*
X3875000Y4930000D02*
D03*
X4190001Y5100000D02*
D03*
X3980000Y5260000D02*
D03*
X4055001D02*
D03*
X3710000D02*
D03*
X3560000Y3780000D02*
D03*
X2680000Y2890000D02*
D03*
X2299541Y3025000D02*
D03*
X973500Y5255000D02*
D03*
X180000Y1990000D02*
D03*
Y2140000D02*
D03*
Y2290000D02*
D03*
Y2440000D02*
D03*
X550000Y1980000D02*
D03*
X800000Y2210000D02*
D03*
X900000Y2330000D02*
D03*
X550000Y2157500D02*
D03*
X200000Y5330000D02*
D03*
X3380000Y2890000D02*
D03*
X3100000Y4650000D02*
D03*
X2730000Y4480000D02*
D03*
X1160000Y2380000D02*
D03*
Y2220000D02*
D03*
X960000Y1960000D02*
D03*
X1360000Y2020000D02*
D03*
X1290000Y1920000D02*
D03*
X760001Y1760000D02*
D03*
X940000D02*
D03*
X1590000Y2270000D02*
D03*
X1430000Y2222500D02*
D03*
X1380000Y2480000D02*
D03*
X3670001Y4625000D02*
D03*
X3340001Y940000D02*
D03*
X3220000Y2540000D02*
D03*
X1775000Y400000D02*
D03*
X4425000Y7000000D02*
D03*
X3675000Y4930000D02*
D03*
X3490000Y4660000D02*
D03*
Y4460000D02*
D03*
X4850000Y4250000D02*
D03*
X4950001D02*
D03*
X5050001D02*
D03*
X5150000D02*
D03*
X5250000D02*
D03*
X5350000D02*
D03*
X5450001D02*
D03*
X5550001D02*
D03*
X5650000D02*
D03*
X5200000Y2100000D02*
D03*
X5100000D02*
D03*
X5000000D02*
D03*
Y2000000D02*
D03*
Y1900000D02*
D03*
Y1800000D02*
D03*
X5650000Y3950000D02*
D03*
Y4050000D02*
D03*
Y4150000D02*
D03*
X5550001Y3950000D02*
D03*
Y4050000D02*
D03*
Y4150000D02*
D03*
X5450001Y3950000D02*
D03*
Y4050000D02*
D03*
Y4150000D02*
D03*
X5350000Y3950000D02*
D03*
Y4050000D02*
D03*
Y4150000D02*
D03*
X5250000Y3950000D02*
D03*
Y4050000D02*
D03*
Y4150000D02*
D03*
X5150000Y3950000D02*
D03*
Y4050000D02*
D03*
Y4150000D02*
D03*
X5050001Y3950000D02*
D03*
Y4050000D02*
D03*
Y4150000D02*
D03*
X4950001Y3950000D02*
D03*
Y4050000D02*
D03*
Y4150000D02*
D03*
X4850000Y3950000D02*
D03*
Y4050000D02*
D03*
Y4150000D02*
D03*
X5400000Y2600000D02*
D03*
X5200000D02*
D03*
X5100000Y2000000D02*
D03*
Y1800000D02*
D03*
Y1900000D02*
D03*
X5600000Y1700000D02*
D03*
Y1800000D02*
D03*
Y1900000D02*
D03*
X5500000Y1800000D02*
D03*
Y1900000D02*
D03*
Y2000000D02*
D03*
X5200000Y1800000D02*
D03*
Y1900000D02*
D03*
Y2000000D02*
D03*
X5400000Y1800000D02*
D03*
Y1900000D02*
D03*
Y2000000D02*
D03*
X5300000D02*
D03*
Y1900000D02*
D03*
Y1800000D02*
D03*
D34*
X8100000Y5450000D02*
D03*
Y5550000D02*
D03*
X8050000Y5500000D02*
D03*
X8000000Y5550000D02*
D03*
X7900000D02*
D03*
X7800000D02*
D03*
X7700000D02*
D03*
X7750000Y5500000D02*
D03*
X7850000D02*
D03*
X7950000D02*
D03*
X8000000Y5450000D02*
D03*
X7900000D02*
D03*
X7800000D02*
D03*
X7700000D02*
D03*
X6550000Y300000D02*
D03*
X5850000Y2750000D02*
D03*
X4510000Y5360000D02*
D03*
X2115001Y2520000D02*
D03*
Y2220000D02*
D03*
X2415001D02*
D03*
Y2520000D02*
D03*
X3465000Y6450000D02*
D03*
D38*
X5000000Y2600000D02*
Y2790000D01*
X5400000Y2600000D02*
Y2790000D01*
X5200000Y2600000D02*
Y2790000D01*
%TF.MD5,3164679df62872be4fec220cacf89778*%
M02*
