%TF.GenerationSoftware,Altium Limited,Altium Designer,22.0.2 (36)*%
G04 Layer_Color=32896*
%FSLAX45Y45*%
%MOMM*%
%TF.SameCoordinates,6C3A6253-EFF2-48E9-9C48-1F107FDFC152*%
%TF.FilePolarity,Positive*%
%TF.FileFunction,Legend,Bot*%
%TF.Part,Single*%
G01*
G75*
%TA.AperFunction,NonConductor*%
%ADD92C,0.20000*%
%ADD93C,0.25000*%
%ADD94C,0.25400*%
%ADD95C,0.30000*%
%ADD96C,0.15000*%
%ADD97C,0.10000*%
%ADD98C,0.10160*%
G36*
X6543639Y3323742D02*
X6558452Y3320039D01*
X6571414Y3314484D01*
X6582524Y3310781D01*
X6588079Y3308929D01*
X6589930Y3307077D01*
X7558348Y2747876D01*
X7569458Y2740470D01*
X7573162Y2738618D01*
X7575013Y2736766D01*
X7584272Y2727508D01*
X7587975Y2723805D01*
X7589827Y2721953D01*
X7602788Y2705288D01*
X7612046Y2690475D01*
X7619453Y2673810D01*
X7623156Y2658996D01*
X7626860Y2646035D01*
X7628711Y2634925D01*
Y2610853D01*
X7625008Y2597892D01*
X7623156Y2584930D01*
X7619453Y2573820D01*
X7615750Y2566413D01*
X7612046Y2559007D01*
X7610195Y2555303D01*
X7608343Y2553452D01*
X7604640Y2546045D01*
X7602788Y2542342D01*
X7587975Y2525677D01*
X7571310Y2510864D01*
X7560200Y2503457D01*
X7556497Y2499754D01*
X7554645D01*
X6588079Y1942404D01*
Y1940552D01*
X6586227D01*
X6584375D01*
X6576969Y1936849D01*
X6571414Y1933146D01*
X6567710Y1931294D01*
X6565859D01*
X6560304Y1929442D01*
X6552897Y1927591D01*
X6547342Y1925739D01*
X6545490D01*
X6525122Y1923887D01*
X6506605D01*
X6489941Y1925739D01*
X6475127Y1929442D01*
X6462166Y1934997D01*
X6452907Y1938701D01*
X6447352Y1940552D01*
X6445501Y1942404D01*
X6432539Y1949811D01*
X6428836Y1951662D01*
X6426984Y1953514D01*
X6417726Y1962772D01*
X6414022Y1966476D01*
X6412171Y1968327D01*
X6399209Y1984992D01*
X6389951Y2001657D01*
X6382544Y2018322D01*
X6378841Y2034987D01*
X6375138Y2047949D01*
X6373286Y2059059D01*
Y3186720D01*
X6375138Y3195978D01*
Y3203384D01*
X6376989Y3205236D01*
Y3212643D01*
X6378841Y3220049D01*
X6380693Y3225604D01*
Y3227456D01*
X6388099Y3245973D01*
X6397358Y3262638D01*
X6408467Y3275599D01*
X6419577Y3286709D01*
X6428836Y3295967D01*
X6438094Y3301522D01*
X6443649Y3305226D01*
X6445501Y3307077D01*
Y3308929D01*
X6454759Y3312632D01*
X6460314Y3316336D01*
X6464017Y3318187D01*
X6465869D01*
X6473276Y3320039D01*
X6480682Y3321891D01*
X6484386Y3323742D01*
X6486237D01*
X6506605Y3325594D01*
X6525122D01*
X6543639Y3323742D01*
D02*
G37*
%LPC*%
G36*
X6547342Y3233011D02*
X6543639D01*
X6538084D01*
X6536232D01*
X6521419Y3231159D01*
X6508457Y3229308D01*
X6501050Y3225604D01*
X6497347Y3223753D01*
X6480682Y3208939D01*
X6469572Y3195978D01*
X6464017Y3184868D01*
X6462166Y3181165D01*
Y3179313D01*
X6464017Y3181165D01*
X6462166Y3177461D01*
X6460314Y3171906D01*
Y3157093D01*
X6458462D01*
Y2094240D01*
X6460314Y2083130D01*
X6462166Y2072020D01*
X6469572Y2055355D01*
X6475127Y2044245D01*
X6478831Y2042394D01*
Y2040542D01*
X6486237Y2034987D01*
X6488089Y2033135D01*
X6493644Y2027580D01*
X6497347Y2025729D01*
X6506605Y2022025D01*
X6515864Y2018322D01*
X6534380Y2016470D01*
X6541787D01*
X6545490Y2018322D01*
X6549194D01*
X6551045D01*
X6558452Y2020174D01*
X6560304Y2022025D01*
X6562155D01*
X6569562Y2023877D01*
X6571414Y2025729D01*
X6573265D01*
X6575117D01*
X7493540Y2557155D01*
X7504650Y2564562D01*
X7512057Y2571968D01*
X7517612Y2577523D01*
X7519463Y2579375D01*
Y2583078D01*
X7521315Y2584930D01*
X7523167D01*
X7530573Y2599743D01*
X7532425Y2612705D01*
X7534277Y2621963D01*
Y2625667D01*
X7532425D01*
Y2636777D01*
X7528722Y2646035D01*
X7523167Y2662700D01*
X7515760Y2673810D01*
X7513909Y2675661D01*
X7512057Y2677513D01*
X7506502Y2683068D01*
X7504650Y2684920D01*
X7499095Y2688623D01*
X7497244Y2690475D01*
X7495392D01*
X6576969Y3221901D01*
X6575117D01*
X6564007Y3227456D01*
X6554749Y3231159D01*
X6547342Y3233011D01*
D02*
G37*
%LPD*%
G36*
X6902861Y2471979D02*
X7428732Y2699733D01*
X7425029Y2573820D01*
X6830646Y2401616D01*
X6962114Y2670106D01*
X6645480Y2586782D01*
X6689920Y2529380D01*
X6512160Y2557155D01*
X6660293Y2684920D01*
X6641777Y2607150D01*
X7082472Y2820091D01*
X6902861Y2471979D01*
D02*
G37*
D92*
X4568001Y3635000D02*
G03*
X4568001Y3635000I-5000J0D01*
G01*
X2990001Y955000D02*
G03*
X2990001Y955000I-10000J0D01*
G01*
X3120001Y3825000D02*
G03*
X3060001Y3825000I-30000J0D01*
G01*
X4881750Y6473000D02*
G03*
X4818250Y6473000I-31750J0D01*
G01*
X3140001Y2820000D02*
G03*
X3140001Y2820000I-10000J0D01*
G01*
X2442000Y7215000D02*
X2567000Y7090000D01*
X2442000Y6965000D02*
Y7215000D01*
Y6965000D02*
X2567000Y7090000D01*
Y6965000D02*
Y7215000D01*
X2740000Y6945000D02*
Y6970000D01*
X2280000Y6945000D02*
X2740000D01*
X2280000D02*
Y6970000D01*
Y7210000D02*
Y7235000D01*
X2740000Y7210000D02*
Y7235000D01*
X2280000D02*
X2740000D01*
D93*
X1122500Y6620000D02*
G03*
X1122500Y6620000I-12500J0D01*
G01*
X1902500Y1022500D02*
G03*
X1902500Y1022500I-12500J0D01*
G01*
X1451500Y5420000D02*
G03*
X1451500Y5420000I-12500J0D01*
G01*
X1927501Y2805000D02*
G03*
X1927501Y2805000I-12500J0D01*
G01*
X4323000Y3890000D02*
X4323001Y3675000D01*
X4563001D02*
Y3880000D01*
X3035000Y6350000D02*
X3065000D01*
X3035000Y5850000D02*
X3065000D01*
X1305000Y6340000D02*
X1495000D01*
X1305000Y6680000D02*
X1495000D01*
X1975000Y1045000D02*
Y1355000D01*
X2205000Y1045000D02*
Y1355000D01*
X1975000Y1045000D02*
X2205000D01*
X1975000Y1355000D02*
X2205000D01*
X3120001Y3825000D02*
X3150001D01*
X3030001D02*
X3060001D01*
X3150001D02*
Y4105000D01*
X3030001D02*
X3150001D01*
X3030001Y3825000D02*
Y4105000D01*
X4695000Y4810000D02*
X4780000D01*
X4695000Y5110000D02*
X4780000D01*
Y4810000D02*
Y4874999D01*
Y5045000D02*
Y5110000D01*
X1260001Y1905000D02*
Y1970000D01*
Y1670000D02*
Y1735000D01*
X1175000Y1970000D02*
X1260001D01*
X1175000Y1670000D02*
X1260001D01*
X1987000Y4070000D02*
Y4190000D01*
X1927000Y4070000D02*
X1987000Y4130000D01*
X1927000Y4190000D02*
X1987000Y4130000D01*
X1927000Y4070000D02*
Y4190000D01*
X1817000Y4215000D02*
X2105000D01*
X1817000Y4045000D02*
X2105000D01*
X1413500Y5570000D02*
Y5750000D01*
X913500Y5570000D02*
Y5750000D01*
X2630001Y2697500D02*
Y2740000D01*
X2592501D02*
X2630001D01*
Y2000000D02*
Y2042500D01*
X2592501Y2000000D02*
X2630001D01*
X1900001D02*
X1937501D01*
X1900001D02*
Y2042500D01*
Y2697500D02*
Y2740000D01*
X1937501D01*
X4650000Y6473000D02*
X4818250D01*
X4881750D02*
X5050000D01*
Y6727000D01*
X4650000D02*
X5050000D01*
X4650000Y6473000D02*
Y6727000D01*
X1987000Y4280000D02*
Y4400000D01*
X1927000Y4280000D02*
X1987000Y4340000D01*
X1927000Y4400000D02*
X1987000Y4340000D01*
X1927000Y4280000D02*
Y4400000D01*
X1817000Y4425000D02*
X2105000D01*
X1817000Y4255000D02*
X2105000D01*
X2823000Y4200000D02*
Y4320000D01*
X2823001Y4260000D02*
X2883001Y4320000D01*
X2823001Y4260000D02*
X2883001Y4200000D01*
Y4320000D01*
X2705000Y4175000D02*
X2993000D01*
X2705000Y4345000D02*
X2993000D01*
X2505001Y4940000D02*
X2535001D01*
X2505001Y5440000D02*
X2535001D01*
X3195001Y5440000D02*
X3225001D01*
X3195001Y4940000D02*
X3225001D01*
D94*
X3000001Y3795001D02*
G03*
X3000001Y3795001I-10000J0D01*
G01*
X3350001Y1304999D02*
G03*
X3350001Y1304999I-10000J0D01*
G01*
X3177001Y3110000D02*
G03*
X3177001Y3110000I-10000J0D01*
G01*
X625000Y2045000D02*
X675000D01*
X625000D02*
Y2095000D01*
Y2445000D02*
Y2495000D01*
X675000D01*
X1025000D02*
X1075000D01*
Y2445000D02*
Y2495000D01*
X1025000Y2095000D02*
X1075000D01*
X1025000Y2045000D02*
X1075000Y2095000D01*
X1025000Y2045000D02*
Y2095000D01*
X3320001Y1384999D02*
Y1644999D01*
X3020001D02*
X3320001D01*
X3020001Y1384999D02*
Y1644999D01*
Y1384999D02*
X3320001D01*
X4050000Y2800000D02*
X4550000D01*
X4050000Y2300000D02*
X4550000D01*
X3147001Y3190000D02*
Y3450000D01*
X2847001D02*
X3147001D01*
X2847001Y3190000D02*
Y3450000D01*
Y3190000D02*
X3147001D01*
X4800001Y1937300D02*
X5800001D01*
X4800001Y3337300D02*
X5800001D01*
X4800000Y6000000D02*
X5800001D01*
X4800001Y1000000D02*
X5800001D01*
Y6000000D01*
X4800000D02*
X4800001Y1000000D01*
X2320000Y370000D02*
X6170000Y380000D01*
X2320000Y875000D02*
X6180000Y875000D01*
D95*
X4095000Y2250000D02*
G03*
X4095000Y2250000I-15000J0D01*
G01*
D96*
X305400Y5650000D02*
Y5845400D01*
X94600D02*
X305400D01*
X94600Y5650000D02*
Y5845400D01*
X305400Y5385400D02*
Y5550000D01*
X274600Y5354600D02*
X305400Y5385400D01*
X94600D02*
Y5550000D01*
Y5385400D02*
X125400Y5354600D01*
X274600D01*
X4345000Y3245000D02*
Y3395000D01*
X4275000D02*
X4345000Y3320000D01*
X4275000Y3245000D02*
X4345000Y3320000D01*
X4275000Y3245000D02*
Y3395000D01*
X4165000Y3222000D02*
X4455000D01*
X4165000Y3418000D02*
X4455000D01*
X2125000Y3350000D02*
X2165000D01*
X2125000Y3100000D02*
X2165000D01*
X4415000Y1705000D02*
Y1855000D01*
X4345000D02*
X4415000Y1780000D01*
X4345000Y1705000D02*
X4415000Y1780000D01*
X4345000Y1705000D02*
Y1855000D01*
X4235000Y1682000D02*
X4525000D01*
X4235000Y1878000D02*
X4525000D01*
X305400Y4950000D02*
Y5145400D01*
X94600D02*
X305400D01*
X94600Y4950000D02*
Y5145400D01*
X305400Y4685400D02*
Y4850000D01*
X274600Y4654600D02*
X305400Y4685400D01*
X94600D02*
Y4850000D01*
Y4685400D02*
X125400Y4654600D01*
X274600D01*
X305400Y3550000D02*
Y3745400D01*
X94600D02*
X305400D01*
X94600Y3550000D02*
Y3745400D01*
X305400Y3285400D02*
Y3450000D01*
X274600Y3254600D02*
X305400Y3285400D01*
X94600D02*
Y3450000D01*
Y3285400D02*
X125400Y3254600D01*
X274600D01*
X305400Y2850000D02*
Y3045400D01*
X94600D02*
X305400D01*
X94600Y2850000D02*
Y3045400D01*
X305400Y2585400D02*
Y2750000D01*
X274600Y2554600D02*
X305400Y2585400D01*
X94600D02*
Y2750000D01*
Y2585400D02*
X125400Y2554600D01*
X274600D01*
X305400Y4250000D02*
Y4445400D01*
X94600D02*
X305400D01*
X94600Y4250000D02*
Y4445400D01*
X305400Y3985400D02*
Y4150000D01*
X274600Y3954600D02*
X305400Y3985400D01*
X94600D02*
Y4150000D01*
Y3985400D02*
X125400Y3954600D01*
X274600D01*
D97*
X2915000Y6450000D02*
Y6480000D01*
Y6450000D02*
X3015000D01*
X3135000D02*
X3235000D01*
Y6480000D01*
Y6740000D02*
Y6770000D01*
X3135000D02*
X3235000D01*
X2915000D02*
X3015000D01*
X2915000Y6740000D02*
Y6770000D01*
X2987500Y6450000D02*
Y6472500D01*
X2915000D02*
X2987500D01*
X2915000Y6465000D02*
Y6472500D01*
Y6465000D02*
X2987500D01*
Y6457500D02*
Y6465000D01*
X2915000Y6457500D02*
X2987500D01*
X2650000Y4810000D02*
Y4840000D01*
X2550000D02*
X2650000D01*
X2330000D02*
X2430000D01*
X2330000Y4810000D02*
Y4840000D01*
Y4520000D02*
Y4550000D01*
Y4520000D02*
X2430000D01*
X2550000D02*
X2650000D01*
Y4550000D01*
X2577500Y4817500D02*
Y4840000D01*
Y4817500D02*
X2650000D01*
Y4825000D01*
X2577500D02*
X2650000D01*
X2577500D02*
Y4832500D01*
X2650000D01*
D98*
X5500000Y2560010D02*
X5549992Y2560012D01*
X5549999Y2310000D01*
X4849992Y2560012D02*
X4849999Y2310000D01*
X4849992Y2560012D02*
X4899984Y2560013D01*
X5500000Y3230010D02*
X5549992Y3230012D01*
X5549999Y2980000D01*
X4849992Y3230012D02*
X4849999Y2980000D01*
X4849992Y3230012D02*
X4899984Y3230013D01*
%TF.MD5,b19cb2bf05729c7b8af33a9e5ec998c4*%
M02*
