%TF.GenerationSoftware,Altium Limited,Altium Designer,22.0.2 (36)*%
G04 Layer_Color=16711935*
%FSLAX45Y45*%
%MOMM*%
%TF.SameCoordinates,6C3A6253-EFF2-48E9-9C48-1F107FDFC152*%
%TF.FilePolarity,Negative*%
%TF.FileFunction,Soldermask,Bot*%
%TF.Part,Single*%
G01*
G75*
%TA.AperFunction,SMDPad,CuDef*%
G04:AMPARAMS|DCode=99|XSize=1.8032mm|YSize=1.0932mm|CornerRadius=0.1461mm|HoleSize=0mm|Usage=FLASHONLY|Rotation=0.000|XOffset=0mm|YOffset=0mm|HoleType=Round|Shape=RoundedRectangle|*
%AMROUNDEDRECTD99*
21,1,1.80320,0.80100,0,0,0.0*
21,1,1.51100,1.09320,0,0,0.0*
1,1,0.29220,0.75550,-0.40050*
1,1,0.29220,-0.75550,-0.40050*
1,1,0.29220,-0.75550,0.40050*
1,1,0.29220,0.75550,0.40050*
%
%ADD99ROUNDEDRECTD99*%
G04:AMPARAMS|DCode=100|XSize=0.5032mm|YSize=0.9032mm|CornerRadius=0.1466mm|HoleSize=0mm|Usage=FLASHONLY|Rotation=0.000|XOffset=0mm|YOffset=0mm|HoleType=Round|Shape=RoundedRectangle|*
%AMROUNDEDRECTD100*
21,1,0.50320,0.61000,0,0,0.0*
21,1,0.21000,0.90320,0,0,0.0*
1,1,0.29320,0.10500,-0.30500*
1,1,0.29320,-0.10500,-0.30500*
1,1,0.29320,-0.10500,0.30500*
1,1,0.29320,0.10500,0.30500*
%
%ADD100ROUNDEDRECTD100*%
%ADD101R,1.80320X1.30320*%
%ADD102R,1.15320X5.50320*%
%ADD103R,1.35320X1.75320*%
%ADD104R,0.60320X1.10320*%
G04:AMPARAMS|DCode=105|XSize=0.6032mm|YSize=1.3032mm|CornerRadius=0.2016mm|HoleSize=0mm|Usage=FLASHONLY|Rotation=270.000|XOffset=0mm|YOffset=0mm|HoleType=Round|Shape=RoundedRectangle|*
%AMROUNDEDRECTD105*
21,1,0.60320,0.90000,0,0,270.0*
21,1,0.20000,1.30320,0,0,270.0*
1,1,0.40320,-0.45000,-0.10000*
1,1,0.40320,-0.45000,0.10000*
1,1,0.40320,0.45000,0.10000*
1,1,0.40320,0.45000,-0.10000*
%
%ADD105ROUNDEDRECTD105*%
%ADD106R,1.60320X1.60320*%
%ADD107R,1.10320X0.89320*%
%ADD108R,1.19320X0.89320*%
%ADD109R,1.15320X1.10320*%
%ADD110R,1.15320X1.10320*%
%ADD111R,1.20320X1.20320*%
%ADD112R,1.11320X1.42320*%
G04:AMPARAMS|DCode=113|XSize=0.8032mm|YSize=2.0032mm|CornerRadius=0.2516mm|HoleSize=0mm|Usage=FLASHONLY|Rotation=0.000|XOffset=0mm|YOffset=0mm|HoleType=Round|Shape=RoundedRectangle|*
%AMROUNDEDRECTD113*
21,1,0.80320,1.50000,0,0,0.0*
21,1,0.30000,2.00320,0,0,0.0*
1,1,0.50320,0.15000,-0.75000*
1,1,0.50320,-0.15000,-0.75000*
1,1,0.50320,-0.15000,0.75000*
1,1,0.50320,0.15000,0.75000*
%
%ADD113ROUNDEDRECTD113*%
%ADD114R,0.80320X2.00320*%
%ADD115R,1.80320X1.90320*%
%ADD116R,1.70320X1.30320*%
%ADD117R,5.80320X5.80320*%
G04:AMPARAMS|DCode=118|XSize=0.4532mm|YSize=1.1032mm|CornerRadius=0.1641mm|HoleSize=0mm|Usage=FLASHONLY|Rotation=270.000|XOffset=0mm|YOffset=0mm|HoleType=Round|Shape=RoundedRectangle|*
%AMROUNDEDRECTD118*
21,1,0.45320,0.77500,0,0,270.0*
21,1,0.12500,1.10320,0,0,270.0*
1,1,0.32820,-0.38750,-0.06250*
1,1,0.32820,-0.38750,0.06250*
1,1,0.32820,0.38750,0.06250*
1,1,0.32820,0.38750,-0.06250*
%
%ADD118ROUNDEDRECTD118*%
G04:AMPARAMS|DCode=119|XSize=0.4532mm|YSize=1.1032mm|CornerRadius=0.1641mm|HoleSize=0mm|Usage=FLASHONLY|Rotation=180.000|XOffset=0mm|YOffset=0mm|HoleType=Round|Shape=RoundedRectangle|*
%AMROUNDEDRECTD119*
21,1,0.45320,0.77500,0,0,180.0*
21,1,0.12500,1.10320,0,0,180.0*
1,1,0.32820,-0.06250,0.38750*
1,1,0.32820,0.06250,0.38750*
1,1,0.32820,0.06250,-0.38750*
1,1,0.32820,-0.06250,-0.38750*
%
%ADD119ROUNDEDRECTD119*%
%ADD120R,2.80320X2.80320*%
%ADD121R,0.50320X0.95320*%
%ADD122R,0.95320X0.50320*%
%ADD123R,0.48320X0.90320*%
%ADD124R,1.85320X2.60320*%
G04:AMPARAMS|DCode=125|XSize=0.4332mm|YSize=1.0032mm|CornerRadius=0.1476mm|HoleSize=0mm|Usage=FLASHONLY|Rotation=270.000|XOffset=0mm|YOffset=0mm|HoleType=Round|Shape=RoundedRectangle|*
%AMROUNDEDRECTD125*
21,1,0.43320,0.70800,0,0,270.0*
21,1,0.13800,1.00320,0,0,270.0*
1,1,0.29520,-0.35400,-0.06900*
1,1,0.29520,-0.35400,0.06900*
1,1,0.29520,0.35400,0.06900*
1,1,0.29520,0.35400,-0.06900*
%
%ADD125ROUNDEDRECTD125*%
%ADD126R,0.61320X1.22320*%
%ADD127R,3.00320X1.80320*%
%ADD128R,0.50320X1.10320*%
%ADD129R,5.70320X1.05320*%
%ADD130R,4.60320X1.05320*%
%ADD131R,1.05320X1.35320*%
%ADD132R,1.72320X0.81320*%
%ADD133O,1.72320X0.81320*%
G04:AMPARAMS|DCode=134|XSize=1.0032mm|YSize=0.6032mm|CornerRadius=0.1516mm|HoleSize=0mm|Usage=FLASHONLY|Rotation=0.000|XOffset=0mm|YOffset=0mm|HoleType=Round|Shape=RoundedRectangle|*
%AMROUNDEDRECTD134*
21,1,1.00320,0.30000,0,0,0.0*
21,1,0.70000,0.60320,0,0,0.0*
1,1,0.30320,0.35000,-0.15000*
1,1,0.30320,-0.35000,-0.15000*
1,1,0.30320,-0.35000,0.15000*
1,1,0.30320,0.35000,0.15000*
%
%ADD134ROUNDEDRECTD134*%
%ADD135R,2.00320X1.80320*%
%ADD136R,1.30320X1.60320*%
%ADD137R,1.30320X1.20320*%
%ADD138R,1.60320X1.40320*%
%ADD139R,1.50320X0.90320*%
%ADD140R,1.50320X5.60320*%
%ADD141R,1.20320X1.30320*%
%ADD142R,1.60320X1.30320*%
%ADD143R,0.90320X1.50320*%
%ADD144R,5.60320X1.50320*%
%ADD145R,1.80320X2.00320*%
%ADD146R,1.10320X0.60320*%
%TA.AperFunction,ComponentPad*%
%ADD147C,2.00320*%
%ADD148C,1.60320*%
%ADD149R,1.60320X1.60320*%
%ADD150O,3.20320X4.20320*%
%ADD151C,1.40320*%
%ADD152O,1.00320X0.60320*%
%ADD153C,0.85320*%
%ADD154C,3.80320*%
%ADD155C,8.20320*%
%ADD156C,2.80320*%
%ADD157C,1.70320*%
%ADD158C,6.20320*%
%ADD159C,2.30320*%
%ADD160C,1.50320*%
%TA.AperFunction,ViaPad*%
%ADD161C,6.20320*%
%TA.AperFunction,WasherPad*%
%ADD162O,0.60320X1.00320*%
%ADD163O,1.00320X0.60320*%
G36*
X7350000Y6600000D02*
X6550000D01*
Y6900000D01*
X7350000D01*
Y6600000D01*
D02*
G37*
G36*
X3231329Y6375095D02*
X3232635Y6374835D01*
X3233896Y6374407D01*
X3235091Y6373818D01*
X3236198Y6373078D01*
X3237200Y6372200D01*
X3238078Y6371198D01*
X3238817Y6370091D01*
X3239407Y6368896D01*
X3239835Y6367635D01*
X3240095Y6366329D01*
X3240182Y6365000D01*
Y6100000D01*
Y5835000D01*
X3240095Y5833671D01*
X3239835Y5832365D01*
X3239407Y5831104D01*
X3238817Y5829909D01*
X3238078Y5828802D01*
X3237200Y5827800D01*
X3236198Y5826922D01*
X3235091Y5826182D01*
X3233896Y5825593D01*
X3232635Y5825165D01*
X3231329Y5824905D01*
X3230000Y5824818D01*
X3125000D01*
X3123671Y5824905D01*
X3122365Y5825165D01*
X3121104Y5825593D01*
X3119909Y5826182D01*
X3118802Y5826922D01*
X3117800Y5827800D01*
X3116922Y5828802D01*
X3116182Y5829909D01*
X3115593Y5831104D01*
X3115165Y5832365D01*
X3114905Y5833671D01*
X3114818Y5835000D01*
Y5935000D01*
X3114838Y5935305D01*
X3114837Y5935610D01*
X3114882Y5935969D01*
X3114905Y5936329D01*
X3114965Y5936629D01*
X3115003Y5936931D01*
X3115095Y5937281D01*
X3115165Y5937635D01*
X3115263Y5937925D01*
X3115341Y5938220D01*
X3115477Y5938553D01*
X3115593Y5938896D01*
X3115729Y5939171D01*
X3115844Y5939453D01*
X3116023Y5939767D01*
X3116182Y5940091D01*
X3116352Y5940344D01*
X3116503Y5940610D01*
X3116722Y5940899D01*
X3116922Y5941198D01*
X3117123Y5941427D01*
X3117308Y5941671D01*
X3117563Y5941929D01*
X3117800Y5942200D01*
X3118030Y5942401D01*
X3118245Y5942618D01*
X3118529Y5942839D01*
X3118802Y5943078D01*
X3119056Y5943248D01*
X3119297Y5943435D01*
X3119609Y5943617D01*
X3119909Y5943818D01*
X3120182Y5943953D01*
X3120447Y5944107D01*
X3139879Y5953823D01*
X3153513Y5962912D01*
X3186914Y5996313D01*
X3201069Y6019904D01*
X3205569Y6028906D01*
X3214999Y6057196D01*
X3219755Y6100000D01*
X3214956Y6143195D01*
X3210393Y6161446D01*
X3196176Y6189880D01*
X3187087Y6203514D01*
X3163313Y6227288D01*
X3144309Y6241540D01*
X3119762Y6256269D01*
X3119287Y6256598D01*
X3118802Y6256922D01*
X3118737Y6256979D01*
X3118667Y6257028D01*
X3118239Y6257415D01*
X3117800Y6257800D01*
X3117744Y6257865D01*
X3117680Y6257922D01*
X3117304Y6258367D01*
X3116922Y6258802D01*
X3116875Y6258872D01*
X3116819Y6258938D01*
X3116505Y6259427D01*
X3116182Y6259909D01*
X3116144Y6259986D01*
X3116098Y6260058D01*
X3115854Y6260575D01*
X3115593Y6261104D01*
X3115565Y6261186D01*
X3115529Y6261262D01*
X3115354Y6261809D01*
X3115165Y6262365D01*
X3115148Y6262449D01*
X3115122Y6262531D01*
X3115019Y6263099D01*
X3114905Y6263671D01*
X3114900Y6263757D01*
X3114885Y6263841D01*
X3114857Y6264415D01*
X3114818Y6265000D01*
Y6365000D01*
X3114905Y6366329D01*
X3115165Y6367635D01*
X3115593Y6368896D01*
X3116182Y6370091D01*
X3116922Y6371198D01*
X3117800Y6372200D01*
X3118802Y6373078D01*
X3119909Y6373818D01*
X3121104Y6374407D01*
X3122365Y6374835D01*
X3123671Y6375095D01*
X3125000Y6375182D01*
X3230000D01*
X3231329Y6375095D01*
D02*
G37*
G36*
X2976329D02*
X2977635Y6374835D01*
X2978896Y6374407D01*
X2980091Y6373818D01*
X2981198Y6373078D01*
X2982200Y6372200D01*
X2983078Y6371198D01*
X2983818Y6370091D01*
X2984407Y6368896D01*
X2984835Y6367635D01*
X2985095Y6366329D01*
X2985182Y6365000D01*
Y6265000D01*
X2985143Y6264415D01*
X2985115Y6263841D01*
X2985100Y6263757D01*
X2985095Y6263671D01*
X2984981Y6263099D01*
X2984878Y6262531D01*
X2984852Y6262449D01*
X2984835Y6262365D01*
X2984646Y6261809D01*
X2984471Y6261262D01*
X2984435Y6261186D01*
X2984407Y6261104D01*
X2984146Y6260575D01*
X2983902Y6260058D01*
X2983856Y6259986D01*
X2983818Y6259909D01*
X2983495Y6259427D01*
X2983181Y6258938D01*
X2983125Y6258872D01*
X2983078Y6258802D01*
X2982696Y6258367D01*
X2982320Y6257922D01*
X2982256Y6257865D01*
X2982200Y6257800D01*
X2981761Y6257415D01*
X2981333Y6257028D01*
X2981263Y6256979D01*
X2981198Y6256922D01*
X2980713Y6256598D01*
X2980238Y6256269D01*
X2955691Y6241540D01*
X2936687Y6227288D01*
X2922712Y6213313D01*
X2908696Y6194625D01*
X2894107Y6165447D01*
X2889607Y6156446D01*
X2885027Y6138126D01*
X2880252Y6099930D01*
X2885044Y6056804D01*
X2889607Y6038554D01*
X2903696Y6010375D01*
X2917712Y5991687D01*
X2946314Y5963086D01*
X2969902Y5948933D01*
X2979553Y5944107D01*
X2979818Y5943953D01*
X2980091Y5943818D01*
X2980391Y5943617D01*
X2980703Y5943435D01*
X2980943Y5943248D01*
X2981198Y5943078D01*
X2981471Y5942839D01*
X2981755Y5942618D01*
X2981970Y5942401D01*
X2982200Y5942200D01*
X2982437Y5941929D01*
X2982692Y5941671D01*
X2982877Y5941427D01*
X2983078Y5941198D01*
X2983278Y5940899D01*
X2983497Y5940610D01*
X2983648Y5940344D01*
X2983818Y5940091D01*
X2983977Y5939767D01*
X2984156Y5939453D01*
X2984271Y5939171D01*
X2984407Y5938896D01*
X2984523Y5938553D01*
X2984659Y5938220D01*
X2984737Y5937925D01*
X2984835Y5937635D01*
X2984905Y5937281D01*
X2984997Y5936931D01*
X2985035Y5936629D01*
X2985095Y5936329D01*
X2985118Y5935969D01*
X2985163Y5935610D01*
X2985162Y5935305D01*
X2985182Y5935000D01*
Y5835000D01*
X2985095Y5833671D01*
X2984835Y5832365D01*
X2984407Y5831104D01*
X2983818Y5829909D01*
X2983078Y5828802D01*
X2982200Y5827800D01*
X2981198Y5826922D01*
X2980091Y5826182D01*
X2978896Y5825593D01*
X2977635Y5825165D01*
X2976329Y5824905D01*
X2975000Y5824818D01*
X2870000D01*
X2868671Y5824905D01*
X2867365Y5825165D01*
X2866104Y5825593D01*
X2864909Y5826182D01*
X2863802Y5826922D01*
X2862800Y5827800D01*
X2861922Y5828802D01*
X2861182Y5829909D01*
X2860593Y5831104D01*
X2860165Y5832365D01*
X2859905Y5833671D01*
X2859818Y5835000D01*
Y6100000D01*
Y6365000D01*
X2859905Y6366329D01*
X2860165Y6367635D01*
X2860593Y6368896D01*
X2861182Y6370091D01*
X2861922Y6371198D01*
X2862800Y6372200D01*
X2863802Y6373078D01*
X2864909Y6373818D01*
X2866104Y6374407D01*
X2867365Y6374835D01*
X2868671Y6375095D01*
X2870000Y6375182D01*
X2975000D01*
X2976329Y6375095D01*
D02*
G37*
G36*
X3391330Y5465095D02*
X3392636Y5464835D01*
X3393897Y5464407D01*
X3395092Y5463818D01*
X3396199Y5463078D01*
X3397200Y5462200D01*
X3398079Y5461199D01*
X3398818Y5460091D01*
X3399408Y5458897D01*
X3399836Y5457636D01*
X3400096Y5456329D01*
X3400183Y5455000D01*
Y5190000D01*
Y4925000D01*
X3400096Y4923671D01*
X3399836Y4922365D01*
X3399408Y4921104D01*
X3398818Y4919909D01*
X3398079Y4918802D01*
X3397200Y4917801D01*
X3396199Y4916923D01*
X3395092Y4916183D01*
X3393897Y4915593D01*
X3392636Y4915165D01*
X3391330Y4914906D01*
X3390001Y4914818D01*
X3285001D01*
X3283672Y4914906D01*
X3282366Y4915165D01*
X3281105Y4915593D01*
X3279910Y4916183D01*
X3278803Y4916923D01*
X3277801Y4917801D01*
X3276923Y4918802D01*
X3276183Y4919909D01*
X3275594Y4921104D01*
X3275166Y4922365D01*
X3274906Y4923671D01*
X3274819Y4925000D01*
Y5025000D01*
X3274858Y5025585D01*
X3274885Y5026159D01*
X3274901Y5026243D01*
X3274906Y5026329D01*
X3275020Y5026902D01*
X3275123Y5027470D01*
X3275149Y5027551D01*
X3275166Y5027636D01*
X3275355Y5028191D01*
X3275530Y5028738D01*
X3275566Y5028814D01*
X3275594Y5028897D01*
X3275855Y5029425D01*
X3276099Y5029942D01*
X3276145Y5030014D01*
X3276183Y5030091D01*
X3276506Y5030574D01*
X3276820Y5031062D01*
X3276876Y5031128D01*
X3276923Y5031199D01*
X3277305Y5031634D01*
X3277681Y5032078D01*
X3277745Y5032135D01*
X3277801Y5032200D01*
X3278240Y5032585D01*
X3278668Y5032973D01*
X3278738Y5033021D01*
X3278803Y5033078D01*
X3279288Y5033402D01*
X3279763Y5033731D01*
X3304310Y5048460D01*
X3323314Y5062712D01*
X3337289Y5076688D01*
X3351305Y5095375D01*
X3365894Y5124554D01*
X3370394Y5133554D01*
X3374974Y5151874D01*
X3379749Y5190070D01*
X3374957Y5233196D01*
X3370394Y5251446D01*
X3356305Y5279625D01*
X3342289Y5298313D01*
X3313688Y5326915D01*
X3290099Y5341068D01*
X3280448Y5345893D01*
X3280183Y5346048D01*
X3279910Y5346183D01*
X3279610Y5346383D01*
X3279298Y5346566D01*
X3279057Y5346752D01*
X3278803Y5346923D01*
X3278530Y5347161D01*
X3278246Y5347382D01*
X3278031Y5347599D01*
X3277801Y5347801D01*
X3277564Y5348071D01*
X3277309Y5348329D01*
X3277124Y5348573D01*
X3276923Y5348802D01*
X3276723Y5349102D01*
X3276504Y5349390D01*
X3276353Y5349656D01*
X3276183Y5349909D01*
X3276024Y5350233D01*
X3275845Y5350547D01*
X3275730Y5350829D01*
X3275594Y5351104D01*
X3275478Y5351447D01*
X3275342Y5351781D01*
X3275264Y5352076D01*
X3275166Y5352365D01*
X3275096Y5352719D01*
X3275004Y5353069D01*
X3274966Y5353372D01*
X3274906Y5353671D01*
X3274883Y5354031D01*
X3274837Y5354390D01*
X3274839Y5354695D01*
X3274819Y5355000D01*
Y5455000D01*
X3274906Y5456329D01*
X3275166Y5457636D01*
X3275594Y5458897D01*
X3276183Y5460091D01*
X3276923Y5461199D01*
X3277801Y5462200D01*
X3278803Y5463078D01*
X3279910Y5463818D01*
X3281105Y5464407D01*
X3282366Y5464835D01*
X3283672Y5465095D01*
X3285001Y5465182D01*
X3390001D01*
X3391330Y5465095D01*
D02*
G37*
G36*
X3136330D02*
X3137636Y5464835D01*
X3138897Y5464407D01*
X3140092Y5463818D01*
X3141199Y5463078D01*
X3142200Y5462200D01*
X3143079Y5461199D01*
X3143818Y5460091D01*
X3144408Y5458897D01*
X3144836Y5457636D01*
X3145096Y5456329D01*
X3145183Y5455000D01*
Y5355000D01*
X3145163Y5354695D01*
X3145164Y5354390D01*
X3145119Y5354031D01*
X3145096Y5353671D01*
X3145036Y5353372D01*
X3144998Y5353069D01*
X3144906Y5352719D01*
X3144836Y5352365D01*
X3144738Y5352076D01*
X3144660Y5351781D01*
X3144524Y5351447D01*
X3144408Y5351104D01*
X3144272Y5350829D01*
X3144157Y5350547D01*
X3143978Y5350233D01*
X3143818Y5349909D01*
X3143649Y5349656D01*
X3143498Y5349390D01*
X3143279Y5349102D01*
X3143079Y5348802D01*
X3142878Y5348573D01*
X3142693Y5348329D01*
X3142438Y5348071D01*
X3142200Y5347801D01*
X3141971Y5347599D01*
X3141756Y5347382D01*
X3141471Y5347161D01*
X3141199Y5346923D01*
X3140944Y5346752D01*
X3140704Y5346566D01*
X3140392Y5346383D01*
X3140092Y5346183D01*
X3139818Y5346048D01*
X3139554Y5345893D01*
X3120122Y5336177D01*
X3106488Y5327088D01*
X3073087Y5293687D01*
X3058932Y5270096D01*
X3054432Y5261094D01*
X3045002Y5232804D01*
X3040246Y5190000D01*
X3045045Y5146805D01*
X3049608Y5128554D01*
X3063824Y5100121D01*
X3072914Y5086486D01*
X3096688Y5062712D01*
X3115692Y5048460D01*
X3140239Y5033731D01*
X3140714Y5033402D01*
X3141199Y5033078D01*
X3141264Y5033021D01*
X3141334Y5032973D01*
X3141762Y5032585D01*
X3142200Y5032200D01*
X3142257Y5032135D01*
X3142321Y5032078D01*
X3142697Y5031634D01*
X3143079Y5031199D01*
X3143126Y5031128D01*
X3143182Y5031062D01*
X3143496Y5030574D01*
X3143818Y5030091D01*
X3143857Y5030014D01*
X3143903Y5029942D01*
X3144147Y5029425D01*
X3144408Y5028897D01*
X3144436Y5028814D01*
X3144472Y5028738D01*
X3144647Y5028191D01*
X3144836Y5027636D01*
X3144852Y5027551D01*
X3144879Y5027470D01*
X3144982Y5026902D01*
X3145096Y5026329D01*
X3145101Y5026243D01*
X3145116Y5026159D01*
X3145144Y5025585D01*
X3145183Y5025000D01*
Y4925000D01*
X3145096Y4923671D01*
X3144836Y4922365D01*
X3144408Y4921104D01*
X3143818Y4919909D01*
X3143079Y4918802D01*
X3142200Y4917801D01*
X3141199Y4916923D01*
X3140092Y4916183D01*
X3138897Y4915593D01*
X3137636Y4915165D01*
X3136330Y4914906D01*
X3135001Y4914818D01*
X3030001D01*
X3028672Y4914906D01*
X3027366Y4915165D01*
X3026105Y4915593D01*
X3024910Y4916183D01*
X3023803Y4916923D01*
X3022801Y4917801D01*
X3021923Y4918802D01*
X3021183Y4919909D01*
X3020594Y4921104D01*
X3020166Y4922365D01*
X3019906Y4923671D01*
X3019819Y4925000D01*
Y5190000D01*
Y5455000D01*
X3019906Y5456329D01*
X3020166Y5457636D01*
X3020594Y5458897D01*
X3021183Y5460091D01*
X3021923Y5461199D01*
X3022801Y5462200D01*
X3023803Y5463078D01*
X3024910Y5463818D01*
X3026105Y5464407D01*
X3027366Y5464835D01*
X3028672Y5465095D01*
X3030001Y5465182D01*
X3135001D01*
X3136330Y5465095D01*
D02*
G37*
G36*
X2701329Y5465095D02*
X2702636Y5464835D01*
X2703897Y5464407D01*
X2705091Y5463818D01*
X2706199Y5463078D01*
X2707200Y5462200D01*
X2708078Y5461198D01*
X2708818Y5460091D01*
X2709407Y5458896D01*
X2709835Y5457635D01*
X2710095Y5456329D01*
X2710182Y5455000D01*
Y5190000D01*
Y4925000D01*
X2710095Y4923671D01*
X2709835Y4922365D01*
X2709407Y4921104D01*
X2708818Y4919909D01*
X2708078Y4918802D01*
X2707200Y4917800D01*
X2706199Y4916922D01*
X2705091Y4916182D01*
X2703897Y4915593D01*
X2702636Y4915165D01*
X2701329Y4914905D01*
X2700000Y4914818D01*
X2595001D01*
X2593672Y4914905D01*
X2592365Y4915165D01*
X2591104Y4915593D01*
X2589910Y4916182D01*
X2588802Y4916922D01*
X2587801Y4917800D01*
X2586923Y4918802D01*
X2586183Y4919909D01*
X2585594Y4921104D01*
X2585166Y4922365D01*
X2584906Y4923671D01*
X2584819Y4925000D01*
Y5025000D01*
X2584857Y5025585D01*
X2584885Y5026159D01*
X2584900Y5026243D01*
X2584906Y5026329D01*
X2585020Y5026901D01*
X2585123Y5027469D01*
X2585149Y5027551D01*
X2585166Y5027635D01*
X2585354Y5028191D01*
X2585530Y5028738D01*
X2585566Y5028814D01*
X2585594Y5028896D01*
X2585854Y5029425D01*
X2586099Y5029942D01*
X2586145Y5030014D01*
X2586183Y5030091D01*
X2586505Y5030573D01*
X2586820Y5031062D01*
X2586876Y5031128D01*
X2586923Y5031198D01*
X2587304Y5031633D01*
X2587681Y5032078D01*
X2587744Y5032135D01*
X2587801Y5032200D01*
X2588240Y5032585D01*
X2588667Y5032972D01*
X2588737Y5033021D01*
X2588802Y5033078D01*
X2589287Y5033402D01*
X2589762Y5033731D01*
X2614310Y5048460D01*
X2633313Y5062712D01*
X2647289Y5076687D01*
X2661304Y5095375D01*
X2675894Y5124553D01*
X2680394Y5133554D01*
X2684974Y5151874D01*
X2689748Y5190070D01*
X2684956Y5233196D01*
X2680394Y5251446D01*
X2666305Y5279625D01*
X2652289Y5298313D01*
X2623687Y5326914D01*
X2600099Y5341067D01*
X2590447Y5345893D01*
X2590183Y5346047D01*
X2589910Y5346182D01*
X2589609Y5346383D01*
X2589298Y5346565D01*
X2589057Y5346752D01*
X2588802Y5346922D01*
X2588530Y5347161D01*
X2588245Y5347382D01*
X2588031Y5347599D01*
X2587801Y5347800D01*
X2587564Y5348071D01*
X2587309Y5348329D01*
X2587124Y5348573D01*
X2586923Y5348802D01*
X2586723Y5349101D01*
X2586504Y5349390D01*
X2586352Y5349656D01*
X2586183Y5349909D01*
X2586023Y5350233D01*
X2585844Y5350547D01*
X2585729Y5350829D01*
X2585594Y5351104D01*
X2585477Y5351447D01*
X2585341Y5351780D01*
X2585264Y5352075D01*
X2585166Y5352365D01*
X2585095Y5352719D01*
X2585004Y5353069D01*
X2584966Y5353371D01*
X2584906Y5353671D01*
X2584882Y5354031D01*
X2584837Y5354390D01*
X2584839Y5354695D01*
X2584819Y5355000D01*
Y5455000D01*
X2584906Y5456329D01*
X2585166Y5457635D01*
X2585594Y5458896D01*
X2586183Y5460091D01*
X2586923Y5461198D01*
X2587801Y5462200D01*
X2588802Y5463078D01*
X2589910Y5463818D01*
X2591104Y5464407D01*
X2592365Y5464835D01*
X2593672Y5465095D01*
X2595001Y5465182D01*
X2700000D01*
X2701329Y5465095D01*
D02*
G37*
G36*
X2446329D02*
X2447636Y5464835D01*
X2448897Y5464407D01*
X2450091Y5463818D01*
X2451199Y5463078D01*
X2452200Y5462200D01*
X2453078Y5461198D01*
X2453818Y5460091D01*
X2454407Y5458896D01*
X2454835Y5457635D01*
X2455095Y5456329D01*
X2455182Y5455000D01*
Y5355000D01*
X2455162Y5354695D01*
X2455164Y5354390D01*
X2455119Y5354031D01*
X2455095Y5353671D01*
X2455035Y5353371D01*
X2454997Y5353069D01*
X2454906Y5352719D01*
X2454835Y5352365D01*
X2454737Y5352075D01*
X2454660Y5351780D01*
X2454524Y5351447D01*
X2454407Y5351104D01*
X2454272Y5350829D01*
X2454157Y5350547D01*
X2453978Y5350233D01*
X2453818Y5349909D01*
X2453649Y5349656D01*
X2453497Y5349390D01*
X2453279Y5349101D01*
X2453078Y5348802D01*
X2452877Y5348573D01*
X2452692Y5348329D01*
X2452438Y5348071D01*
X2452200Y5347800D01*
X2451970Y5347599D01*
X2451756Y5347382D01*
X2451471Y5347161D01*
X2451199Y5346922D01*
X2450944Y5346752D01*
X2450704Y5346565D01*
X2450392Y5346383D01*
X2450091Y5346182D01*
X2449818Y5346047D01*
X2449554Y5345893D01*
X2430122Y5336177D01*
X2416487Y5327088D01*
X2383086Y5293687D01*
X2368932Y5270096D01*
X2364431Y5261094D01*
X2355001Y5232804D01*
X2350245Y5190000D01*
X2355045Y5146805D01*
X2359607Y5128554D01*
X2373824Y5100120D01*
X2382914Y5086486D01*
X2406688Y5062712D01*
X2425691Y5048460D01*
X2450239Y5033731D01*
X2450714Y5033402D01*
X2451199Y5033078D01*
X2451264Y5033021D01*
X2451334Y5032972D01*
X2451761Y5032585D01*
X2452200Y5032200D01*
X2452257Y5032135D01*
X2452320Y5032078D01*
X2452697Y5031633D01*
X2453078Y5031198D01*
X2453125Y5031128D01*
X2453181Y5031062D01*
X2453496Y5030573D01*
X2453818Y5030091D01*
X2453856Y5030014D01*
X2453902Y5029942D01*
X2454147Y5029425D01*
X2454407Y5028896D01*
X2454435Y5028814D01*
X2454471Y5028738D01*
X2454647Y5028191D01*
X2454835Y5027635D01*
X2454852Y5027551D01*
X2454878Y5027469D01*
X2454981Y5026901D01*
X2455095Y5026329D01*
X2455101Y5026243D01*
X2455116Y5026159D01*
X2455144Y5025585D01*
X2455182Y5025000D01*
Y4925000D01*
X2455095Y4923671D01*
X2454835Y4922365D01*
X2454407Y4921104D01*
X2453818Y4919909D01*
X2453078Y4918802D01*
X2452200Y4917800D01*
X2451199Y4916922D01*
X2450091Y4916182D01*
X2448897Y4915593D01*
X2447636Y4915165D01*
X2446329Y4914905D01*
X2445000Y4914818D01*
X2340001D01*
X2338672Y4914905D01*
X2337365Y4915165D01*
X2336104Y4915593D01*
X2334910Y4916182D01*
X2333802Y4916922D01*
X2332801Y4917800D01*
X2331923Y4918802D01*
X2331183Y4919909D01*
X2330594Y4921104D01*
X2330166Y4922365D01*
X2329906Y4923671D01*
X2329819Y4925000D01*
Y5190000D01*
Y5455000D01*
X2329906Y5456329D01*
X2330166Y5457635D01*
X2330594Y5458896D01*
X2331183Y5460091D01*
X2331923Y5461198D01*
X2332801Y5462200D01*
X2333802Y5463078D01*
X2334910Y5463818D01*
X2336104Y5464407D01*
X2337365Y5464835D01*
X2338672Y5465095D01*
X2340001Y5465182D01*
X2445000D01*
X2446329Y5465095D01*
D02*
G37*
D99*
X4443001Y3780000D02*
D03*
D100*
X4378001Y3879500D02*
D03*
X4443001D02*
D03*
X4508001D02*
D03*
X4378001Y3680500D02*
D03*
X4443001D02*
D03*
X4508001D02*
D03*
D101*
X200000Y5435000D02*
D03*
Y5765000D02*
D03*
Y4735000D02*
D03*
Y5065000D02*
D03*
Y3335000D02*
D03*
Y3665000D02*
D03*
Y2635000D02*
D03*
Y2965000D02*
D03*
Y4035000D02*
D03*
Y4365000D02*
D03*
D102*
X3277500Y6100000D02*
D03*
X2822500D02*
D03*
X2292501Y5190000D02*
D03*
X2747500D02*
D03*
X3437501Y5190000D02*
D03*
X2982501D02*
D03*
D103*
X1217500Y6622500D02*
D03*
X1582500D02*
D03*
Y6397500D02*
D03*
X1217500D02*
D03*
D104*
X2920001Y960000D02*
D03*
Y1130000D02*
D03*
X2840001D02*
D03*
Y960000D02*
D03*
D105*
X1890000Y1102500D02*
D03*
Y1167500D02*
D03*
Y1232500D02*
D03*
Y1297500D02*
D03*
X2290000Y1102500D02*
D03*
Y1167500D02*
D03*
Y1232500D02*
D03*
Y1297500D02*
D03*
D106*
X4170000Y3320000D02*
D03*
X4450000D02*
D03*
X4240000Y1780000D02*
D03*
X4520000D02*
D03*
D107*
X3219501Y3870000D02*
D03*
Y4060001D02*
D03*
D108*
X2960501Y3870000D02*
D03*
Y3965000D02*
D03*
Y4060001D02*
D03*
D109*
X4610000Y4865000D02*
D03*
X4810000Y4960000D02*
D03*
D110*
X4610000Y5055000D02*
D03*
D111*
X1295000Y1820000D02*
D03*
X1085000Y1915000D02*
D03*
Y1725000D02*
D03*
D112*
X1796500Y4130000D02*
D03*
X2123500D02*
D03*
X1796500Y4340000D02*
D03*
X2123500D02*
D03*
X3013500Y4260000D02*
D03*
X2686500D02*
D03*
D113*
X1354000Y5400000D02*
D03*
D114*
X1227000D02*
D03*
X1100000D02*
D03*
X973000D02*
D03*
Y5920000D02*
D03*
X1100000D02*
D03*
X1227000D02*
D03*
X1354000D02*
D03*
D115*
X2313000Y7090000D02*
D03*
X2707000D02*
D03*
D116*
X5670000Y2745000D02*
D03*
Y2535000D02*
D03*
X900000Y4605000D02*
D03*
Y4395000D02*
D03*
D117*
X2265001Y2370000D02*
D03*
D118*
X1920000Y2645000D02*
D03*
Y2595000D02*
D03*
Y2545000D02*
D03*
Y2495000D02*
D03*
Y2445000D02*
D03*
Y2395000D02*
D03*
Y2345000D02*
D03*
Y2295000D02*
D03*
Y2245000D02*
D03*
Y2195000D02*
D03*
Y2145000D02*
D03*
Y2095000D02*
D03*
X2610000D02*
D03*
Y2145000D02*
D03*
Y2195000D02*
D03*
Y2245000D02*
D03*
Y2295000D02*
D03*
Y2345000D02*
D03*
Y2395000D02*
D03*
Y2445000D02*
D03*
Y2495000D02*
D03*
Y2545000D02*
D03*
Y2595000D02*
D03*
Y2645000D02*
D03*
D119*
X1990001Y2020000D02*
D03*
X2040000D02*
D03*
X2090000D02*
D03*
X2140001D02*
D03*
X2190000D02*
D03*
X2240001D02*
D03*
X2290001D02*
D03*
X2340000D02*
D03*
X2390001D02*
D03*
X2440000D02*
D03*
X2490000D02*
D03*
X2540001D02*
D03*
Y2720000D02*
D03*
X2490000D02*
D03*
X2440000D02*
D03*
X2390001D02*
D03*
X2340000D02*
D03*
X2290001D02*
D03*
X2240001D02*
D03*
X2190000D02*
D03*
X2140001D02*
D03*
X2090000D02*
D03*
X2040000D02*
D03*
X1990001D02*
D03*
D120*
X850000Y2270000D02*
D03*
D121*
X875000Y2070000D02*
D03*
X925000D02*
D03*
X975000D02*
D03*
X725000D02*
D03*
X775000D02*
D03*
X825000D02*
D03*
Y2470000D02*
D03*
X775000D02*
D03*
X725000D02*
D03*
X975000D02*
D03*
X925000D02*
D03*
X875000D02*
D03*
D122*
X1050000Y2295000D02*
D03*
Y2345000D02*
D03*
Y2395000D02*
D03*
Y2145000D02*
D03*
Y2195000D02*
D03*
Y2245000D02*
D03*
X650000Y2295000D02*
D03*
Y2345000D02*
D03*
Y2395000D02*
D03*
Y2145000D02*
D03*
Y2195000D02*
D03*
Y2245000D02*
D03*
D123*
X3050000Y6765000D02*
D03*
X3100000D02*
D03*
X3050000Y6455000D02*
D03*
X3100000D02*
D03*
X2515000Y4525000D02*
D03*
X2465000D02*
D03*
X2515000Y4835000D02*
D03*
X2465000D02*
D03*
D124*
X3075000Y6610000D02*
D03*
X2490000Y4680000D02*
D03*
D125*
X2927500Y6610000D02*
D03*
Y6510000D02*
D03*
Y6560000D02*
D03*
Y6660000D02*
D03*
Y6710000D02*
D03*
X3222500Y6510000D02*
D03*
Y6560000D02*
D03*
Y6660000D02*
D03*
Y6710000D02*
D03*
Y6610000D02*
D03*
X2637500Y4680000D02*
D03*
Y4780000D02*
D03*
Y4730000D02*
D03*
Y4630000D02*
D03*
Y4580000D02*
D03*
X2342500Y4780000D02*
D03*
Y4730000D02*
D03*
Y4630000D02*
D03*
Y4580000D02*
D03*
Y4680000D02*
D03*
D126*
X3137501Y1734999D02*
D03*
X3072501D02*
D03*
X3267501D02*
D03*
X3202501D02*
D03*
X3137501Y1294999D02*
D03*
X3072501D02*
D03*
X3267501D02*
D03*
X3202501D02*
D03*
X2964501Y3540000D02*
D03*
X2899501D02*
D03*
X3094501D02*
D03*
X3029501D02*
D03*
X2964501Y3100000D02*
D03*
X2899501D02*
D03*
X3094501D02*
D03*
X3029501D02*
D03*
D127*
X3780001Y4935000D02*
D03*
D128*
X3605001Y4725000D02*
D03*
X3705001D02*
D03*
X3805001D02*
D03*
X3855001D02*
D03*
X3905001D02*
D03*
X3955001D02*
D03*
Y5145000D02*
D03*
X3905001D02*
D03*
X3855001D02*
D03*
X3805001D02*
D03*
X3705001D02*
D03*
X3605001D02*
D03*
D129*
X5200001Y2515000D02*
D03*
Y3185000D02*
D03*
D130*
Y2205000D02*
D03*
Y2875000D02*
D03*
D131*
X5505000Y2220000D02*
D03*
X4895001D02*
D03*
X5505000Y2890000D02*
D03*
X4895001D02*
D03*
D132*
X4532500Y6536500D02*
D03*
D133*
Y6663500D02*
D03*
X5167500Y6536500D02*
D03*
Y6663500D02*
D03*
D134*
X4090000Y2355000D02*
D03*
Y2420000D02*
D03*
Y2485000D02*
D03*
Y2550000D02*
D03*
Y2615000D02*
D03*
Y2680000D02*
D03*
Y2745000D02*
D03*
X4510000D02*
D03*
Y2680000D02*
D03*
Y2615000D02*
D03*
Y2550000D02*
D03*
Y2485000D02*
D03*
Y2420000D02*
D03*
Y2355000D02*
D03*
D135*
X5800000Y3790000D02*
D03*
Y3490000D02*
D03*
X5340000D02*
D03*
Y3790000D02*
D03*
X5570000Y3490000D02*
D03*
Y3790000D02*
D03*
X4880000D02*
D03*
Y3490000D02*
D03*
X5110000Y3790000D02*
D03*
Y3490000D02*
D03*
D136*
X1932500Y5210000D02*
D03*
X2107500D02*
D03*
X3217501Y4760000D02*
D03*
X3392500D02*
D03*
X3217501Y4360000D02*
D03*
X3392500D02*
D03*
X3222501Y4560000D02*
D03*
X3397500D02*
D03*
X1932500Y5400000D02*
D03*
X2107500D02*
D03*
X3462500Y6280000D02*
D03*
X3637500D02*
D03*
X3462500Y5900000D02*
D03*
X3637500D02*
D03*
X2107500Y4830000D02*
D03*
X1932500D02*
D03*
X2562500Y6540000D02*
D03*
X2737500D02*
D03*
X4937500Y990000D02*
D03*
X4762500D02*
D03*
X3637500Y6090000D02*
D03*
X3462500D02*
D03*
X1932500Y5020000D02*
D03*
X2107500D02*
D03*
D137*
X1475000Y2930000D02*
D03*
X1645000D02*
D03*
X2775001Y2890000D02*
D03*
X2945000D02*
D03*
X2955000Y2090000D02*
D03*
X3125000D02*
D03*
X3285000Y2890000D02*
D03*
X3115000D02*
D03*
X445000Y2140000D02*
D03*
X275000D02*
D03*
Y2290000D02*
D03*
X445000D02*
D03*
X735001Y2640000D02*
D03*
X905000D02*
D03*
X445000Y1990000D02*
D03*
X275000D02*
D03*
X2955000Y2240000D02*
D03*
X3125000D02*
D03*
Y2540000D02*
D03*
X2955000D02*
D03*
X3125000Y2390000D02*
D03*
X2955000D02*
D03*
X2955000Y1940000D02*
D03*
X3125000D02*
D03*
X4535000Y2150000D02*
D03*
X4365000D02*
D03*
X1355000Y5200000D02*
D03*
X1525000D02*
D03*
X3005000Y4480000D02*
D03*
X2835000D02*
D03*
Y4650000D02*
D03*
X3005000D02*
D03*
X3385000Y4050000D02*
D03*
X3555000D02*
D03*
X1645000Y2630000D02*
D03*
X1475000D02*
D03*
X1645001Y2020000D02*
D03*
X1475001D02*
D03*
X4635001Y4700000D02*
D03*
X4465001D02*
D03*
X1935000Y4660000D02*
D03*
X2105000D02*
D03*
X2495000Y4340000D02*
D03*
X2325000D02*
D03*
X4405000Y4030000D02*
D03*
X4575000D02*
D03*
X1255000Y6150000D02*
D03*
X1425000D02*
D03*
X4535000Y2950000D02*
D03*
X4365000D02*
D03*
X2835000Y4800000D02*
D03*
X3005000D02*
D03*
X275000Y2440000D02*
D03*
X445000D02*
D03*
X1645001Y2780000D02*
D03*
X1475001D02*
D03*
X4535000Y3130000D02*
D03*
X4365000D02*
D03*
X5325001Y4560000D02*
D03*
X5495000D02*
D03*
X4965000D02*
D03*
X5135000D02*
D03*
X6315000Y725000D02*
D03*
X6485000D02*
D03*
X1645001Y2480000D02*
D03*
X1475001D02*
D03*
X3555000Y3870000D02*
D03*
X3385000D02*
D03*
X1935000Y4510000D02*
D03*
X2105000D02*
D03*
X4365000Y1970000D02*
D03*
X4535000D02*
D03*
D138*
X2255000Y3310000D02*
D03*
Y3140000D02*
D03*
X2035000Y3310000D02*
D03*
Y3140000D02*
D03*
D139*
X6040000Y1305000D02*
D03*
X5720000D02*
D03*
D140*
Y1660000D02*
D03*
X6040000D02*
D03*
D141*
X5350000Y6535000D02*
D03*
Y6365000D02*
D03*
X3415000Y3060000D02*
D03*
Y3230000D02*
D03*
X3570001Y1229999D02*
D03*
Y1399999D02*
D03*
X3250001Y935000D02*
D03*
Y1105000D02*
D03*
X3415000Y3580000D02*
D03*
Y3410000D02*
D03*
X3570001Y1799999D02*
D03*
Y1629999D02*
D03*
X2450000Y1065000D02*
D03*
Y1235000D02*
D03*
X1850000Y3305000D02*
D03*
Y3135000D02*
D03*
X2430000Y3135000D02*
D03*
Y3305000D02*
D03*
X3100000Y1105000D02*
D03*
Y935000D02*
D03*
X1850000Y1705000D02*
D03*
Y1535000D02*
D03*
X2260000D02*
D03*
Y1705000D02*
D03*
X2410000Y1535000D02*
D03*
Y1705000D02*
D03*
X4140001Y4335000D02*
D03*
Y4505000D02*
D03*
X2780000Y3975000D02*
D03*
Y3805000D02*
D03*
X4650000Y3855000D02*
D03*
Y3685000D02*
D03*
X3565000Y3060000D02*
D03*
Y3230000D02*
D03*
X3720001Y1229999D02*
D03*
Y1399999D02*
D03*
X3265000Y3230000D02*
D03*
Y3060000D02*
D03*
X3420001Y1399999D02*
D03*
Y1229999D02*
D03*
X3565000Y3580000D02*
D03*
Y3410000D02*
D03*
X3720001Y1799999D02*
D03*
Y1629999D02*
D03*
X3265000Y3410000D02*
D03*
Y3580000D02*
D03*
X3420001Y1629999D02*
D03*
Y1799999D02*
D03*
X2580000Y3305000D02*
D03*
Y3135000D02*
D03*
X1700000Y1535000D02*
D03*
Y1705000D02*
D03*
X4140001Y4915000D02*
D03*
Y4745000D02*
D03*
X4290001Y4735000D02*
D03*
Y4905000D02*
D03*
X4640000Y5225000D02*
D03*
Y5395000D02*
D03*
X4670000Y4195000D02*
D03*
Y4365000D02*
D03*
X6300000Y365000D02*
D03*
Y535000D02*
D03*
X2110000Y1535000D02*
D03*
Y1705000D02*
D03*
X2560000Y1535000D02*
D03*
Y1705000D02*
D03*
X3040000Y6915000D02*
D03*
Y7085000D02*
D03*
X4700001Y2885000D02*
D03*
Y2715000D02*
D03*
X5670000Y2915000D02*
D03*
Y3085000D02*
D03*
X4700001Y2215000D02*
D03*
Y2385000D02*
D03*
X3190000Y6915000D02*
D03*
Y7085000D02*
D03*
X4525000Y6985000D02*
D03*
Y6815000D02*
D03*
X3340000Y7085000D02*
D03*
Y6915000D02*
D03*
X3490000Y7085000D02*
D03*
Y6915000D02*
D03*
X400000Y4815000D02*
D03*
Y4985000D02*
D03*
Y3415000D02*
D03*
Y3585000D02*
D03*
Y2715000D02*
D03*
Y2885000D02*
D03*
Y4115000D02*
D03*
Y4285000D02*
D03*
Y5515000D02*
D03*
Y5685000D02*
D03*
X3990001Y4335000D02*
D03*
Y4505000D02*
D03*
X6500000Y940000D02*
D03*
Y1110000D02*
D03*
X3880000Y2735000D02*
D03*
Y2565000D02*
D03*
X4050001Y3805000D02*
D03*
Y3635000D02*
D03*
X4200000Y3635000D02*
D03*
Y3805000D02*
D03*
X5670000Y2325000D02*
D03*
Y2155000D02*
D03*
X4450000Y5045000D02*
D03*
Y4875000D02*
D03*
X4400000Y5395000D02*
D03*
Y5225000D02*
D03*
X3660000Y4505000D02*
D03*
Y4335000D02*
D03*
X4210000Y5395000D02*
D03*
Y5225000D02*
D03*
X3820000Y4505000D02*
D03*
Y4335000D02*
D03*
X5500000Y6535000D02*
D03*
Y6365000D02*
D03*
D142*
X5760000Y5587500D02*
D03*
Y5412500D02*
D03*
X6380000Y1282500D02*
D03*
Y1457500D02*
D03*
D143*
X7555000Y4990000D02*
D03*
Y5310000D02*
D03*
D144*
X7910000D02*
D03*
Y4990000D02*
D03*
D145*
X2410000Y6760000D02*
D03*
X2710000D02*
D03*
X4010001Y5390000D02*
D03*
X3710001D02*
D03*
D146*
X3125001Y2760000D02*
D03*
X2955000D02*
D03*
Y2680000D02*
D03*
X3125001D02*
D03*
D147*
X200000Y5600000D02*
D03*
Y4900000D02*
D03*
Y3500000D02*
D03*
Y2800000D02*
D03*
Y4200000D02*
D03*
D148*
X6225000Y4675000D02*
D03*
X7100000Y3125000D02*
D03*
Y2100000D02*
D03*
X6225001Y3650000D02*
D03*
X7100001Y4150000D02*
D03*
X6225000Y1600000D02*
D03*
Y2625000D02*
D03*
D149*
Y4175000D02*
D03*
X7100000Y2625000D02*
D03*
Y1600000D02*
D03*
X6225001Y3150000D02*
D03*
X7100001Y3650000D02*
D03*
X6225000Y1100000D02*
D03*
Y2125000D02*
D03*
D150*
X360001Y1390000D02*
D03*
X1200001D02*
D03*
D151*
X860001Y1490000D02*
D03*
X780001Y1310000D02*
D03*
X700001Y1490000D02*
D03*
X620001Y1310000D02*
D03*
X940001D02*
D03*
D152*
X1396001Y678100D02*
D03*
Y474900D02*
D03*
X1904001Y576500D02*
D03*
D153*
X3125000Y6685000D02*
D03*
X3025000D02*
D03*
Y6535000D02*
D03*
X3125000D02*
D03*
X3075000Y6610000D02*
D03*
X2440000Y4605000D02*
D03*
X2540000D02*
D03*
Y4755000D02*
D03*
X2440000D02*
D03*
X2490000Y4680000D02*
D03*
D154*
X8662000Y3119000D02*
D03*
X7900000D02*
D03*
X8662000Y2357000D02*
D03*
X7900000D02*
D03*
Y3881000D02*
D03*
X8662000D02*
D03*
X7900000Y4643000D02*
D03*
X8662000D02*
D03*
D155*
X9014000Y1595000D02*
D03*
Y5405000D02*
D03*
D156*
X8050000Y6475000D02*
D03*
X5800000D02*
D03*
D157*
X1961987Y6689733D02*
D03*
X2153810Y6845389D02*
D03*
X1753440Y6823258D02*
D03*
X1818145Y7064740D02*
D03*
X2065515Y7076103D02*
D03*
X7522000Y270000D02*
D03*
X6760000Y778000D02*
D03*
X7522000D02*
D03*
X6760000Y270000D02*
D03*
Y524000D02*
D03*
X7522000D02*
D03*
X3911987Y6689733D02*
D03*
X4103810Y6845389D02*
D03*
X3703440Y6823258D02*
D03*
X3768145Y7064740D02*
D03*
X4015515Y7076103D02*
D03*
D158*
X3462528Y7686009D02*
D03*
X5300000Y1400000D02*
D03*
Y5600000D02*
D03*
X4361967Y6128133D02*
D03*
X2411967D02*
D03*
X1512528Y7686009D02*
D03*
D159*
X6428805Y5718758D02*
D03*
X7170355Y4563162D02*
D03*
D160*
X5173000Y6891000D02*
D03*
X5427000D02*
D03*
Y6129000D02*
D03*
X5173000D02*
D03*
D161*
X500000Y500000D02*
D03*
Y7500000D02*
D03*
X8900000Y6500000D02*
D03*
Y500000D02*
D03*
D162*
X2320000Y620000D02*
D03*
X5610000Y630000D02*
D03*
D163*
X7025000Y5725000D02*
D03*
%TF.MD5,f1277ee43258bca1e585dc9db919c16a*%
M02*
