%TF.GenerationSoftware,Altium Limited,Altium Designer,22.0.2 (36)*%
G04 Layer_Physical_Order=2*
G04 Layer_Color=36540*
%FSLAX45Y45*%
%MOMM*%
%TF.SameCoordinates,6C3A6253-EFF2-48E9-9C48-1F107FDFC152*%
%TF.FilePolarity,Positive*%
%TF.FileFunction,Copper,L2,Inr,Signal*%
%TF.Part,Single*%
G01*
G75*
%TA.AperFunction,Conductor*%
%ADD12C,4.00000*%
%ADD13C,0.25000*%
%ADD14C,0.30000*%
%ADD15C,0.65000*%
%TA.AperFunction,ComponentPad*%
%ADD17C,1.80000*%
%ADD18C,1.40000*%
%ADD19R,1.40000X1.40000*%
%ADD20O,3.00000X4.00000*%
%ADD21C,1.20000*%
%ADD22O,0.80000X0.40000*%
%ADD23C,0.65000*%
%ADD24C,3.60000*%
%ADD25C,8.00000*%
%ADD26C,2.60000*%
%ADD27C,1.50000*%
%ADD28C,2.10000*%
%ADD29C,1.30000*%
%TA.AperFunction,ViaPad*%
%ADD30C,6.00000*%
%TA.AperFunction,WasherPad*%
%ADD31O,0.40000X0.80000*%
%ADD32O,0.80000X0.40000*%
%TA.AperFunction,ViaPad*%
%ADD33C,0.65000*%
%ADD34C,0.70000*%
%TA.AperFunction,Conductor*%
%ADD35C,0.50000*%
%ADD36C,5.00000*%
%ADD37C,1.00000*%
%ADD38C,0.60000*%
G36*
X739867Y5539869D02*
X763469Y5520499D01*
X790396Y5506106D01*
X819614Y5497243D01*
X830000Y5496220D01*
Y5469999D01*
X1801145Y5470000D01*
X1801551Y5468989D01*
X1803257Y5457299D01*
X1784940Y5445060D01*
X1771126Y5424386D01*
X1766275Y5400000D01*
X1771126Y5375614D01*
X1784940Y5354940D01*
X1805614Y5341126D01*
X1830000Y5336276D01*
X1854386Y5341126D01*
X1875060Y5354940D01*
X1888874Y5375614D01*
X1893724Y5400000D01*
X1888874Y5424386D01*
X1875060Y5445060D01*
X1856743Y5457300D01*
X1858449Y5468989D01*
X1858855Y5470000D01*
X1900001D01*
X2352079D01*
Y4307846D01*
X2339378Y4299870D01*
X2320000Y4303724D01*
X2295614Y4298874D01*
X2274940Y4285060D01*
X2261126Y4264386D01*
X2256275Y4240000D01*
X2261126Y4215614D01*
X2274940Y4194940D01*
X2295614Y4181126D01*
X2320000Y4176275D01*
X2344386Y4181126D01*
X2365060Y4194940D01*
X2374720Y4209398D01*
X2390112Y4211967D01*
X2502079Y4100000D01*
X2841274D01*
X2860000Y4096276D01*
X2878727Y4100000D01*
X3286833Y4100000D01*
X3296590Y4093481D01*
X3320000Y4088825D01*
X3587303D01*
X3593289Y4077624D01*
X3591126Y4074386D01*
X3586275Y4050000D01*
X3591126Y4025613D01*
X3604940Y4004940D01*
X3625614Y3991126D01*
X3650000Y3986275D01*
X3674386Y3991126D01*
X3695060Y4004940D01*
X3708874Y4025613D01*
X3713724Y4050000D01*
X3708874Y4074386D01*
X3706710Y4077624D01*
X3712697Y4088825D01*
X3844661D01*
X3946743Y3986743D01*
X3966589Y3973481D01*
X3990000Y3968825D01*
X4003665D01*
X4007352Y3956672D01*
X4004940Y3955060D01*
X3991127Y3934386D01*
X3986276Y3910000D01*
X3991127Y3885614D01*
X4004940Y3864940D01*
X4025614Y3851126D01*
X4048550Y3846564D01*
X4127557Y3767557D01*
X4142442Y3757611D01*
X4160001Y3754118D01*
X4210000D01*
Y3436515D01*
X4166742Y3393258D01*
X4153481Y3373411D01*
X4148825Y3350000D01*
Y1691353D01*
X4153481Y1667942D01*
X4166742Y1648096D01*
X4184955Y1629883D01*
X4194940Y1614940D01*
X4210000Y1604877D01*
Y450D01*
X1016101D01*
X1010418Y13150D01*
X1052060Y59747D01*
X1097881Y124327D01*
X1136184Y193630D01*
X1166486Y266786D01*
X1188407Y342876D01*
X1201671Y420941D01*
X1206111Y500000D01*
X1201671Y579059D01*
X1188407Y657124D01*
X1166486Y733214D01*
X1136184Y806370D01*
X1097881Y875673D01*
X1052060Y940253D01*
X999296Y999296D01*
X940253Y1052060D01*
X875673Y1097881D01*
X806370Y1136184D01*
X733214Y1166486D01*
X657124Y1188407D01*
X579059Y1201671D01*
X500000Y1206111D01*
X499377Y1206076D01*
X493097Y1218443D01*
X510389Y1239514D01*
X525965Y1268654D01*
X533096Y1269761D01*
X539722Y1268630D01*
X541386Y1264612D01*
X555812Y1245811D01*
X574613Y1231385D01*
X596506Y1222317D01*
X620001Y1219224D01*
X643496Y1222317D01*
X665389Y1231385D01*
X684189Y1245811D01*
X691997Y1255986D01*
X708005D01*
X715812Y1245811D01*
X734613Y1231385D01*
X756506Y1222317D01*
X780001Y1219224D01*
X803495Y1222317D01*
X825389Y1231385D01*
X844189Y1245811D01*
X851997Y1255986D01*
X868005D01*
X875812Y1245811D01*
X894612Y1231385D01*
X916506Y1222317D01*
X940001Y1219224D01*
X963495Y1222317D01*
X985389Y1231385D01*
X1004189Y1245811D01*
X1018615Y1264612D01*
X1020280Y1268630D01*
X1026906Y1269761D01*
X1034036Y1268654D01*
X1049612Y1239514D01*
X1072106Y1212105D01*
X1099514Y1189612D01*
X1130784Y1172897D01*
X1164714Y1162605D01*
X1200001Y1159129D01*
X1235287Y1162605D01*
X1269217Y1172897D01*
X1300487Y1189612D01*
X1327896Y1212105D01*
X1350389Y1239514D01*
X1367103Y1270784D01*
X1377396Y1304714D01*
X1380872Y1340000D01*
Y1440000D01*
X1377396Y1475286D01*
X1367103Y1509216D01*
X1350389Y1540486D01*
X1327896Y1567895D01*
X1300487Y1590388D01*
X1269217Y1607103D01*
X1235287Y1617395D01*
X1200001Y1620871D01*
X1164714Y1617395D01*
X1130784Y1607103D01*
X1099514Y1590388D01*
X1072106Y1567895D01*
X1049612Y1540486D01*
X1032898Y1509216D01*
X1022605Y1475286D01*
X1019130Y1440000D01*
Y1375580D01*
X1006430Y1371269D01*
X1004189Y1374189D01*
X985389Y1388614D01*
X963495Y1397683D01*
X940001Y1400776D01*
X916506Y1397683D01*
X894612Y1388614D01*
X875812Y1374189D01*
X868005Y1364014D01*
X851997D01*
X844189Y1374189D01*
X825389Y1388614D01*
X803495Y1397683D01*
X780001Y1400776D01*
X756506Y1397683D01*
X734613Y1388614D01*
X715812Y1374189D01*
X708005Y1364014D01*
X691997D01*
X684189Y1374189D01*
X665389Y1388614D01*
X643496Y1397683D01*
X620001Y1400776D01*
X596506Y1397683D01*
X574613Y1388614D01*
X555812Y1374189D01*
X553572Y1371269D01*
X540872Y1375580D01*
Y1440000D01*
X537396Y1475286D01*
X527104Y1509216D01*
X510389Y1540486D01*
X487896Y1567895D01*
X460487Y1590388D01*
X429217Y1607103D01*
X395287Y1617395D01*
X360001Y1620871D01*
X324715Y1617395D01*
X290785Y1607103D01*
X259514Y1590388D01*
X232106Y1567895D01*
X209612Y1540486D01*
X192898Y1509216D01*
X182605Y1475286D01*
X179130Y1440000D01*
Y1340000D01*
X182605Y1304714D01*
X192898Y1270784D01*
X209612Y1239514D01*
X232106Y1212105D01*
X259514Y1189612D01*
X275287Y1181181D01*
X273954Y1168551D01*
X266786Y1166486D01*
X193630Y1136184D01*
X124327Y1097881D01*
X59747Y1052060D01*
X13150Y1010418D01*
X450Y1016101D01*
Y5944250D01*
X335487D01*
X739867Y5539869D01*
D02*
G37*
G36*
X8100000Y2600000D02*
Y2430417D01*
X8087300Y2428533D01*
X8085670Y2433907D01*
X8067098Y2468652D01*
X8054855Y2483571D01*
X7928285Y2357000D01*
X8054855Y2230430D01*
X8067098Y2245349D01*
X8085670Y2280093D01*
X8087300Y2285467D01*
X8100000Y2283583D01*
Y2200000D01*
X7250000Y1350000D01*
X6450000D01*
Y1850000D01*
X7105001Y2505000D01*
X7220000D01*
Y2600000D01*
X8100000Y2600000D01*
D02*
G37*
G36*
X8208875Y6641125D02*
X8198330Y6579059D01*
X8196479Y6546102D01*
X8183599Y6543257D01*
X8175324Y6558739D01*
X8169329Y6566044D01*
X8078285Y6475000D01*
X8169329Y6383956D01*
X8175324Y6391261D01*
X8186832Y6412792D01*
X8200081Y6410636D01*
X8211593Y6342876D01*
X8233514Y6266786D01*
X8263817Y6193630D01*
X8302120Y6124327D01*
X8347941Y6059747D01*
X8400705Y6000704D01*
X8459748Y5947940D01*
X8524327Y5902119D01*
X8593631Y5863816D01*
X8666787Y5833514D01*
X8742876Y5811593D01*
X8813297Y5799628D01*
X8815225Y5786418D01*
X8798539Y5778190D01*
X8751671Y5746874D01*
X8709292Y5709708D01*
X8672126Y5667329D01*
X8640810Y5620461D01*
X8615880Y5569907D01*
X8597761Y5516531D01*
X8586764Y5461247D01*
X8583078Y5405000D01*
X8586764Y5348753D01*
X8597761Y5293469D01*
X8615880Y5240093D01*
X8640810Y5189539D01*
X8672126Y5142671D01*
X8709292Y5100292D01*
X8751671Y5063126D01*
X8798539Y5031810D01*
X8849093Y5006880D01*
X8902469Y4988761D01*
X8957753Y4977764D01*
X9000000Y4974995D01*
Y3850000D01*
X8800000Y3650000D01*
X7750000D01*
X7400000Y4000000D01*
Y6650000D01*
X7550000Y6800000D01*
X8050000D01*
X8208875Y6641125D01*
D02*
G37*
G36*
X6913437Y6846196D02*
Y6845085D01*
Y6843420D01*
X6913159Y6841199D01*
X6912881Y6838700D01*
X6912326Y6835924D01*
X6911771Y6833148D01*
X6910660Y6830094D01*
Y6829816D01*
X6910383Y6829539D01*
X6909827Y6827873D01*
X6908717Y6825374D01*
X6907051Y6822043D01*
X6904830Y6818156D01*
X6902054Y6813714D01*
X6899000Y6809272D01*
X6895113Y6804553D01*
Y6804275D01*
X6894558Y6803997D01*
X6893170Y6802332D01*
X6890672Y6799833D01*
X6887062Y6796224D01*
X6882898Y6792060D01*
X6877623Y6787062D01*
X6871238Y6781510D01*
X6864297Y6775680D01*
X6864020Y6775402D01*
X6862909Y6774569D01*
X6861244Y6773181D01*
X6859300Y6771516D01*
X6856802Y6769295D01*
X6853748Y6766796D01*
X6850694Y6764020D01*
X6847085Y6760966D01*
X6840144Y6754303D01*
X6833204Y6747640D01*
X6829872Y6744309D01*
X6826818Y6740977D01*
X6824042Y6737923D01*
X6821821Y6734869D01*
Y6734592D01*
X6821266Y6734314D01*
X6820711Y6733481D01*
X6820156Y6732371D01*
X6818212Y6729317D01*
X6815991Y6725708D01*
X6814048Y6721266D01*
X6812104Y6716546D01*
X6810994Y6711272D01*
X6810439Y6706274D01*
Y6705997D01*
Y6705719D01*
X6810716Y6704053D01*
X6810994Y6701277D01*
X6811827Y6698223D01*
X6812937Y6694337D01*
X6814881Y6690450D01*
X6817379Y6686563D01*
X6820711Y6682677D01*
X6821266Y6682121D01*
X6822654Y6681011D01*
X6824597Y6679623D01*
X6827651Y6677679D01*
X6831538Y6676014D01*
X6835980Y6674348D01*
X6841255Y6673237D01*
X6847085Y6672960D01*
X6848751D01*
X6849861Y6673237D01*
X6853193Y6673515D01*
X6857079Y6674348D01*
X6861244Y6675458D01*
X6865963Y6677402D01*
X6870405Y6679900D01*
X6874569Y6683232D01*
X6875125Y6683787D01*
X6876235Y6685175D01*
X6877901Y6687396D01*
X6879567Y6690728D01*
X6881510Y6694614D01*
X6883176Y6699611D01*
X6884286Y6705164D01*
X6884841Y6711549D01*
X6908995Y6709051D01*
Y6708773D01*
X6908717Y6707940D01*
Y6706552D01*
X6908439Y6704609D01*
X6907884Y6702388D01*
X6907329Y6699889D01*
X6906496Y6696835D01*
X6905663Y6693781D01*
X6903442Y6687118D01*
X6900111Y6680456D01*
X6898167Y6677124D01*
X6895669Y6673793D01*
X6893170Y6670739D01*
X6890394Y6667963D01*
X6890116Y6667685D01*
X6889561Y6667407D01*
X6888728Y6666574D01*
X6887340Y6665742D01*
X6885674Y6664631D01*
X6883731Y6663521D01*
X6881510Y6662132D01*
X6878734Y6660744D01*
X6875680Y6659356D01*
X6872348Y6657968D01*
X6868739Y6656858D01*
X6864853Y6655747D01*
X6860688Y6654914D01*
X6856246Y6654081D01*
X6851527Y6653804D01*
X6846530Y6653526D01*
X6843753D01*
X6841810Y6653804D01*
X6839589Y6654081D01*
X6836813Y6654359D01*
X6833759Y6654914D01*
X6830705Y6655470D01*
X6823487Y6657413D01*
X6816269Y6660189D01*
X6812660Y6661855D01*
X6809051Y6663798D01*
X6805719Y6666297D01*
X6802665Y6669073D01*
X6802388Y6669351D01*
X6801832Y6669628D01*
X6801277Y6670739D01*
X6800167Y6671849D01*
X6798779Y6673237D01*
X6797391Y6675181D01*
X6796002Y6677124D01*
X6794337Y6679623D01*
X6791560Y6684897D01*
X6788784Y6691560D01*
X6787674Y6694892D01*
X6787119Y6698779D01*
X6786563Y6702665D01*
X6786286Y6706830D01*
Y6707385D01*
Y6708773D01*
X6786563Y6710994D01*
X6786841Y6714048D01*
X6787396Y6717379D01*
X6788507Y6721266D01*
X6789617Y6725430D01*
X6791283Y6729595D01*
X6791560Y6730150D01*
X6792116Y6731538D01*
X6793226Y6733759D01*
X6794892Y6736813D01*
X6797113Y6740144D01*
X6799889Y6744309D01*
X6803221Y6748473D01*
X6807107Y6753192D01*
X6807663Y6753748D01*
X6809051Y6755413D01*
X6810439Y6756802D01*
X6811827Y6758190D01*
X6813493Y6759855D01*
X6815714Y6762076D01*
X6817935Y6764297D01*
X6820711Y6766796D01*
X6823487Y6769572D01*
X6826818Y6772626D01*
X6830428Y6775680D01*
X6834314Y6779289D01*
X6838756Y6782898D01*
X6843198Y6786785D01*
X6843476Y6787062D01*
X6844031Y6787618D01*
X6845142Y6788450D01*
X6846530Y6789561D01*
X6848195Y6791227D01*
X6850139Y6792892D01*
X6854581Y6796502D01*
X6859300Y6800666D01*
X6863742Y6804830D01*
X6867629Y6808439D01*
X6869295Y6809827D01*
X6870683Y6811215D01*
X6870960Y6811493D01*
X6871793Y6812326D01*
X6872904Y6813436D01*
X6874292Y6815102D01*
X6875680Y6817046D01*
X6877346Y6818989D01*
X6880677Y6823708D01*
X6786008D01*
Y6846473D01*
X6913437D01*
Y6846196D01*
D02*
G37*
%LPC*%
G36*
X200000Y5731122D02*
X166064Y5726654D01*
X134439Y5713555D01*
X107283Y5692717D01*
X86446Y5665561D01*
X73347Y5633937D01*
X68879Y5600000D01*
X73347Y5566064D01*
X86446Y5534439D01*
X107283Y5507283D01*
X134439Y5486445D01*
X166064Y5473346D01*
X200000Y5468879D01*
X233937Y5473346D01*
X265561Y5486445D01*
X292717Y5507283D01*
X313555Y5534439D01*
X326654Y5566064D01*
X331122Y5600000D01*
X326654Y5633937D01*
X313555Y5665561D01*
X292717Y5692717D01*
X265561Y5713555D01*
X233937Y5726654D01*
X200000Y5731122D01*
D02*
G37*
G36*
Y5393725D02*
X175614Y5388874D01*
X154940Y5375060D01*
X141126Y5354386D01*
X136276Y5330000D01*
X141126Y5305614D01*
X154940Y5284940D01*
X175614Y5271126D01*
X200000Y5266275D01*
X224387Y5271126D01*
X245060Y5284940D01*
X258874Y5305614D01*
X263725Y5330000D01*
X258874Y5354386D01*
X245060Y5375060D01*
X224387Y5388874D01*
X200000Y5393725D01*
D02*
G37*
G36*
X973500Y5318724D02*
X949114Y5313874D01*
X928440Y5300060D01*
X914627Y5279386D01*
X909776Y5255000D01*
X914627Y5230614D01*
X928440Y5209940D01*
X949114Y5196126D01*
X973500Y5191275D01*
X997887Y5196126D01*
X1018561Y5209940D01*
X1032374Y5230614D01*
X1037225Y5255000D01*
X1032374Y5279386D01*
X1018561Y5300060D01*
X997887Y5313874D01*
X973500Y5318724D01*
D02*
G37*
G36*
X1830000Y5273725D02*
X1805614Y5268874D01*
X1784940Y5255060D01*
X1771126Y5234386D01*
X1766275Y5210000D01*
X1771126Y5185614D01*
X1784940Y5164940D01*
X1805614Y5151126D01*
X1830000Y5146275D01*
X1854386Y5151126D01*
X1875060Y5164940D01*
X1888874Y5185614D01*
X1893724Y5210000D01*
X1888874Y5234386D01*
X1875060Y5255060D01*
X1854386Y5268874D01*
X1830000Y5273725D01*
D02*
G37*
G36*
X1524997Y5163714D02*
X1500611Y5158864D01*
X1479937Y5145050D01*
X1466123Y5124376D01*
X1461272Y5099990D01*
X1466123Y5075604D01*
X1479937Y5054930D01*
X1500611Y5041116D01*
X1524997Y5036265D01*
X1549383Y5041116D01*
X1570057Y5054930D01*
X1583871Y5075604D01*
X1588721Y5099990D01*
X1583871Y5124376D01*
X1570057Y5145050D01*
X1549383Y5158864D01*
X1524997Y5163714D01*
D02*
G37*
G36*
X1830000Y5083725D02*
X1805614Y5078874D01*
X1784940Y5065060D01*
X1771126Y5044386D01*
X1766275Y5020000D01*
X1771126Y4995614D01*
X1784940Y4974940D01*
X1805614Y4961126D01*
X1830000Y4956276D01*
X1854386Y4961126D01*
X1875060Y4974940D01*
X1888874Y4995614D01*
X1893724Y5020000D01*
X1888874Y5044386D01*
X1875060Y5065060D01*
X1854386Y5078874D01*
X1830000Y5083725D01*
D02*
G37*
G36*
X200000Y5031122D02*
X166064Y5026654D01*
X134439Y5013555D01*
X107283Y4992717D01*
X86446Y4965561D01*
X73347Y4933937D01*
X68879Y4900000D01*
X73347Y4866063D01*
X86446Y4834439D01*
X107283Y4807283D01*
X134439Y4786445D01*
X166064Y4773346D01*
X200000Y4768878D01*
X233937Y4773346D01*
X265561Y4786445D01*
X292717Y4807283D01*
X313555Y4834439D01*
X326654Y4866063D01*
X331122Y4900000D01*
X326654Y4933937D01*
X313555Y4965561D01*
X292717Y4992717D01*
X265561Y5013555D01*
X233937Y5026654D01*
X200000Y5031122D01*
D02*
G37*
G36*
X1830000Y4893725D02*
X1805614Y4888874D01*
X1784940Y4875060D01*
X1771126Y4854386D01*
X1766275Y4830000D01*
X1771126Y4805614D01*
X1784940Y4784940D01*
X1805614Y4771126D01*
X1830000Y4766275D01*
X1854386Y4771126D01*
X1875060Y4784940D01*
X1888874Y4805614D01*
X1893724Y4830000D01*
X1888874Y4854386D01*
X1875060Y4875060D01*
X1854386Y4888874D01*
X1830000Y4893725D01*
D02*
G37*
G36*
X1840000Y4723725D02*
X1815614Y4718874D01*
X1794940Y4705060D01*
X1781126Y4684386D01*
X1776275Y4660000D01*
X1781126Y4635614D01*
X1794940Y4614940D01*
X1815614Y4601126D01*
X1840000Y4596276D01*
X1864386Y4601126D01*
X1885060Y4614940D01*
X1898874Y4635614D01*
X1903724Y4660000D01*
X1898874Y4684386D01*
X1885060Y4705060D01*
X1864386Y4718874D01*
X1840000Y4723725D01*
D02*
G37*
G36*
X200000Y4703725D02*
X175614Y4698874D01*
X154940Y4685060D01*
X141126Y4664386D01*
X136276Y4640000D01*
X141126Y4615614D01*
X154940Y4594940D01*
X175614Y4581126D01*
X200000Y4576276D01*
X224387Y4581126D01*
X245060Y4594940D01*
X258874Y4615614D01*
X263725Y4640000D01*
X258874Y4664386D01*
X245060Y4685060D01*
X224387Y4698874D01*
X200000Y4703725D01*
D02*
G37*
G36*
X890000Y4333724D02*
X865614Y4328874D01*
X844940Y4315060D01*
X831126Y4294386D01*
X826275Y4270000D01*
X831126Y4245614D01*
X844940Y4224940D01*
X865614Y4211126D01*
X890000Y4206275D01*
X914386Y4211126D01*
X935060Y4224940D01*
X948874Y4245614D01*
X953725Y4270000D01*
X948874Y4294386D01*
X935060Y4315060D01*
X914386Y4328874D01*
X890000Y4333724D01*
D02*
G37*
G36*
X200000Y4331122D02*
X166064Y4326654D01*
X134440Y4313555D01*
X107283Y4292717D01*
X86446Y4265561D01*
X73347Y4233937D01*
X68879Y4200000D01*
X73347Y4166064D01*
X86446Y4134440D01*
X107283Y4107283D01*
X134440Y4086445D01*
X166064Y4073346D01*
X200000Y4068879D01*
X233937Y4073346D01*
X265561Y4086445D01*
X292717Y4107283D01*
X313555Y4134440D01*
X326654Y4166064D01*
X331122Y4200000D01*
X326654Y4233937D01*
X313555Y4265561D01*
X292717Y4292717D01*
X265561Y4313555D01*
X233937Y4326654D01*
X200000Y4331122D01*
D02*
G37*
G36*
X1710000Y4193725D02*
X1685614Y4188874D01*
X1664940Y4175060D01*
X1651126Y4154386D01*
X1646275Y4130000D01*
X1651126Y4105614D01*
X1664940Y4084940D01*
X1685614Y4071126D01*
X1710000Y4066276D01*
X1734386Y4071126D01*
X1755060Y4084940D01*
X1768874Y4105614D01*
X1773724Y4130000D01*
X1768874Y4154386D01*
X1755060Y4175060D01*
X1734386Y4188874D01*
X1710000Y4193725D01*
D02*
G37*
G36*
X2690000Y4043724D02*
X2665614Y4038874D01*
X2644940Y4025060D01*
X2631126Y4004386D01*
X2626275Y3980000D01*
X2631126Y3955614D01*
X2644940Y3934940D01*
X2665614Y3921126D01*
X2690000Y3916275D01*
X2714386Y3921126D01*
X2735060Y3934940D01*
X2748874Y3955614D01*
X2753724Y3980000D01*
X2748874Y4004386D01*
X2735060Y4025060D01*
X2714386Y4038874D01*
X2690000Y4043724D01*
D02*
G37*
G36*
X200000Y4003725D02*
X175614Y3998874D01*
X154940Y3985060D01*
X141126Y3964386D01*
X136276Y3940000D01*
X141126Y3915614D01*
X154940Y3894940D01*
X175614Y3881126D01*
X200000Y3876275D01*
X224387Y3881126D01*
X245060Y3894940D01*
X258874Y3915614D01*
X263725Y3940000D01*
X258874Y3964386D01*
X245060Y3985060D01*
X224387Y3998874D01*
X200000Y4003725D01*
D02*
G37*
G36*
X3560000Y3843725D02*
X3535614Y3838874D01*
X3514940Y3825060D01*
X3501126Y3804386D01*
X3496275Y3780000D01*
X3501126Y3755614D01*
X3514940Y3734940D01*
X3535614Y3721126D01*
X3560000Y3716276D01*
X3584386Y3721126D01*
X3605060Y3734940D01*
X3618874Y3755614D01*
X3623725Y3780000D01*
X3618874Y3804386D01*
X3605060Y3825060D01*
X3584386Y3838874D01*
X3560000Y3843725D01*
D02*
G37*
G36*
X200000Y3631122D02*
X166064Y3626654D01*
X134440Y3613555D01*
X107283Y3592717D01*
X86446Y3565561D01*
X73347Y3533937D01*
X68879Y3500000D01*
X73347Y3466063D01*
X86446Y3434439D01*
X107283Y3407283D01*
X134440Y3386445D01*
X166064Y3373346D01*
X200000Y3368878D01*
X233937Y3373346D01*
X265561Y3386445D01*
X292717Y3407283D01*
X313555Y3434439D01*
X326654Y3466063D01*
X331122Y3500000D01*
X326654Y3533937D01*
X313555Y3565561D01*
X292717Y3592717D01*
X265561Y3613555D01*
X233937Y3626654D01*
X200000Y3631122D01*
D02*
G37*
G36*
X2430000Y3468724D02*
X2405614Y3463873D01*
X2384940Y3450060D01*
X2371126Y3429386D01*
X2366276Y3405000D01*
X2371126Y3380613D01*
X2384940Y3359939D01*
X2405614Y3346126D01*
X2430000Y3341275D01*
X2454387Y3346126D01*
X2475060Y3359939D01*
X2488874Y3380613D01*
X2493725Y3405000D01*
X2488874Y3429386D01*
X2475060Y3450060D01*
X2454387Y3463873D01*
X2430000Y3468724D01*
D02*
G37*
G36*
X200000Y3303725D02*
X175614Y3298874D01*
X154940Y3285060D01*
X141126Y3264386D01*
X136276Y3240000D01*
X141126Y3215614D01*
X154940Y3194940D01*
X175614Y3181126D01*
X200000Y3176276D01*
X224387Y3181126D01*
X245060Y3194940D01*
X258874Y3215614D01*
X263725Y3240000D01*
X258874Y3264386D01*
X245060Y3285060D01*
X224387Y3298874D01*
X200000Y3303725D01*
D02*
G37*
G36*
X2690000Y3253725D02*
X2665614Y3248874D01*
X2644940Y3235060D01*
X2631127Y3214387D01*
X2626276Y3190000D01*
X2631127Y3165614D01*
X2644940Y3144940D01*
X2665614Y3131126D01*
X2690000Y3126276D01*
X2714387Y3131126D01*
X2735061Y3144940D01*
X2748874Y3165614D01*
X2753725Y3190000D01*
X2748874Y3214387D01*
X2735061Y3235060D01*
X2714387Y3248874D01*
X2690000Y3253725D01*
D02*
G37*
G36*
X2299541Y3088725D02*
X2275155Y3083874D01*
X2254481Y3070060D01*
X2240667Y3049386D01*
X2235816Y3025000D01*
X2240667Y3000614D01*
X2254481Y2979940D01*
X2275155Y2966126D01*
X2299541Y2961276D01*
X2323927Y2966126D01*
X2344601Y2979940D01*
X2358415Y3000614D01*
X2363266Y3025000D01*
X2358415Y3049386D01*
X2344601Y3070060D01*
X2323927Y3083874D01*
X2299541Y3088725D01*
D02*
G37*
G36*
X900000Y3063725D02*
X875614Y3058874D01*
X854940Y3045060D01*
X841127Y3024386D01*
X836276Y3000000D01*
X841127Y2975614D01*
X854940Y2954940D01*
X875614Y2941126D01*
X900000Y2936276D01*
X924387Y2941126D01*
X945061Y2954940D01*
X958874Y2975614D01*
X963725Y3000000D01*
X958874Y3024386D01*
X945061Y3045060D01*
X924387Y3058874D01*
X900000Y3063725D01*
D02*
G37*
G36*
X1970000Y2893725D02*
X1945614Y2888874D01*
X1924940Y2875060D01*
X1921350Y2869687D01*
X1908650D01*
X1905060Y2875060D01*
X1884386Y2888874D01*
X1860000Y2893724D01*
X1835614Y2888874D01*
X1814940Y2875060D01*
X1801126Y2854386D01*
X1796276Y2830000D01*
X1801126Y2805614D01*
X1814940Y2784940D01*
X1835614Y2771126D01*
X1860000Y2766275D01*
X1884386Y2771126D01*
X1905060Y2784940D01*
X1908650Y2790313D01*
X1921350D01*
X1924940Y2784940D01*
X1945614Y2771126D01*
X1970000Y2766276D01*
X1994387Y2771126D01*
X2015060Y2784940D01*
X2028874Y2805614D01*
X2033725Y2830000D01*
X2028874Y2854386D01*
X2015060Y2875060D01*
X1994387Y2888874D01*
X1970000Y2893725D01*
D02*
G37*
G36*
X2035001Y3103725D02*
X2010614Y3098874D01*
X1989940Y3085060D01*
X1976127Y3064386D01*
X1971276Y3040000D01*
X1976127Y3015614D01*
X1989940Y2994940D01*
X2010614Y2981126D01*
X2031008Y2977069D01*
X2036740Y2967381D01*
X2037435Y2963828D01*
X2031126Y2954387D01*
X2026276Y2930000D01*
X2031126Y2905614D01*
X2044940Y2884940D01*
X2065614Y2871126D01*
X2090000Y2866276D01*
X2114387Y2871126D01*
X2135060Y2884940D01*
X2148874Y2905614D01*
X2153725Y2930000D01*
X2148874Y2954387D01*
X2135060Y2975060D01*
X2114387Y2988874D01*
X2093993Y2992931D01*
X2088261Y3002619D01*
X2087566Y3006172D01*
X2093874Y3015614D01*
X2098725Y3040000D01*
X2093874Y3064386D01*
X2080061Y3085060D01*
X2059387Y3098874D01*
X2035001Y3103725D01*
D02*
G37*
G36*
X1030000Y2993725D02*
X1005614Y2988874D01*
X984940Y2975060D01*
X971127Y2954387D01*
X966276Y2930000D01*
X971127Y2905614D01*
X984940Y2884940D01*
X1005614Y2871126D01*
X1030000Y2866276D01*
X1054387Y2871126D01*
X1075061Y2884940D01*
X1088874Y2905614D01*
X1093725Y2930000D01*
X1088874Y2954387D01*
X1075061Y2975060D01*
X1054387Y2988874D01*
X1030000Y2993725D01*
D02*
G37*
G36*
X1380000Y2993725D02*
X1355614Y2988874D01*
X1334940Y2975060D01*
X1321126Y2954386D01*
X1316275Y2930000D01*
X1321126Y2905614D01*
X1334940Y2884940D01*
X1355614Y2871126D01*
X1380000Y2866275D01*
X1404386Y2871126D01*
X1425060Y2884940D01*
X1438874Y2905614D01*
X1443725Y2930000D01*
X1438874Y2954386D01*
X1425060Y2975060D01*
X1404386Y2988874D01*
X1380000Y2993725D01*
D02*
G37*
G36*
X3400000Y3855588D02*
X3399999Y3855588D01*
X3045000D01*
X3033295Y3853259D01*
X3023371Y3846629D01*
X2803371Y3626629D01*
X2796741Y3616705D01*
X2794412Y3605000D01*
X2794412Y3604998D01*
Y2805905D01*
X2794751Y2804204D01*
X2794605Y2802474D01*
X2795906Y2798396D01*
X2796741Y2794200D01*
X2797705Y2792757D01*
X2798232Y2791104D01*
X2799614Y2789468D01*
X2801078Y2787708D01*
X2803371Y2784276D01*
X2801994Y2771910D01*
X2799898Y2768772D01*
X2782768Y2764944D01*
X2776886Y2768874D01*
X2752500Y2773724D01*
X2728114Y2768874D01*
X2707440Y2755060D01*
X2693626Y2734386D01*
X2688775Y2710000D01*
X2693626Y2685614D01*
X2707440Y2664940D01*
X2728114Y2651126D01*
X2752500Y2646275D01*
X2754240Y2646621D01*
X2758418Y2625614D01*
X2772232Y2604940D01*
X2787294Y2594876D01*
X2783626Y2589386D01*
X2778775Y2565000D01*
X2783626Y2540614D01*
X2797440Y2519940D01*
X2808378Y2512631D01*
Y2497357D01*
X2804940Y2495060D01*
X2791126Y2474386D01*
X2786275Y2450000D01*
X2791126Y2425614D01*
X2800307Y2411874D01*
X2803001Y2401369D01*
X2798855Y2393731D01*
X2798024Y2392718D01*
X2797584Y2391266D01*
X2796741Y2390004D01*
X2795864Y2385598D01*
X2794559Y2381297D01*
X2794708Y2379786D01*
X2794412Y2378299D01*
Y2123046D01*
X2788626Y2114386D01*
X2783776Y2090000D01*
X2788626Y2065614D01*
X2794412Y2056955D01*
Y2003725D01*
X2796741Y1992019D01*
X2803371Y1982096D01*
X2813295Y1975465D01*
X2825000Y1973137D01*
X2844488D01*
X2859952Y1970061D01*
X2870508Y1963008D01*
X2877561Y1952452D01*
X2880038Y1940000D01*
X2877561Y1927549D01*
X2870508Y1916993D01*
X2859952Y1909939D01*
X2844488Y1906863D01*
X2825000D01*
X2813295Y1904535D01*
X2803371Y1897905D01*
X2796741Y1887981D01*
X2794412Y1876276D01*
Y1445656D01*
X2795366Y1440863D01*
X2795972Y1436013D01*
X2796523Y1435044D01*
X2796741Y1433950D01*
X2799456Y1429887D01*
X2801197Y1426824D01*
X2800583Y1424676D01*
X2787942Y1422698D01*
X2786163Y1423397D01*
X2785049Y1425064D01*
X2764375Y1438878D01*
X2739989Y1443729D01*
X2715603Y1438878D01*
X2694929Y1425064D01*
X2681115Y1404391D01*
X2676264Y1380004D01*
X2681115Y1355618D01*
X2687338Y1346305D01*
X2678181Y1337149D01*
X2664375Y1346374D01*
X2639989Y1351225D01*
X2615603Y1346374D01*
X2594929Y1332560D01*
X2581115Y1311886D01*
X2576265Y1287500D01*
X2581115Y1263114D01*
X2594929Y1242440D01*
X2615603Y1228626D01*
X2639989Y1223776D01*
X2664375Y1228626D01*
X2685049Y1242440D01*
X2698863Y1263114D01*
X2703714Y1287500D01*
X2698863Y1311886D01*
X2692641Y1321199D01*
X2701797Y1330355D01*
X2715603Y1321130D01*
X2729465Y1318373D01*
X2731115Y1314391D01*
X2726264Y1290005D01*
X2731115Y1265618D01*
X2744929Y1244944D01*
X2765603Y1231131D01*
X2789989Y1226280D01*
X2794412Y1222650D01*
Y1165000D01*
X2796741Y1153295D01*
X2803371Y1143372D01*
X2803372Y1143371D01*
X2959826Y986917D01*
X2964940Y975060D01*
X2960706Y968723D01*
X2951127Y954386D01*
X2946276Y930000D01*
X2951127Y905614D01*
X2964940Y884940D01*
X2985614Y871126D01*
X3010001Y866276D01*
X3034387Y871126D01*
X3055061Y884940D01*
X3068874Y905614D01*
X3073725Y930000D01*
X3068874Y954386D01*
X3066318Y958212D01*
X3072305Y969412D01*
X3229999D01*
X3230000Y969412D01*
X3241706Y971741D01*
X3251629Y978371D01*
X3301629Y1028371D01*
X3308260Y1038295D01*
X3310588Y1050000D01*
X3310588Y1050001D01*
Y1838564D01*
X3319988Y1846279D01*
X3344374Y1851129D01*
X3365048Y1864943D01*
X3378862Y1885617D01*
X3383712Y1910003D01*
X3378862Y1934390D01*
X3365048Y1955063D01*
X3344374Y1968877D01*
X3342653Y1969220D01*
X3340175Y1981675D01*
X3345061Y1984940D01*
X3358874Y2005614D01*
X3363725Y2030000D01*
X3358874Y2054386D01*
X3345061Y2075060D01*
X3324387Y2088874D01*
X3318825Y2089980D01*
X3318616Y2090504D01*
X3317484Y2103196D01*
X3335061Y2114940D01*
X3348874Y2135614D01*
X3353725Y2160000D01*
X3348874Y2184386D01*
X3335061Y2205060D01*
X3314387Y2218874D01*
X3290773Y2223571D01*
X3282437Y2233524D01*
X3283725Y2240000D01*
X3280962Y2253889D01*
X3288880Y2256291D01*
X3290217Y2257006D01*
X3291706Y2257302D01*
X3295443Y2259799D01*
X3299405Y2261917D01*
X3300367Y2263089D01*
X3301629Y2263932D01*
X3304126Y2267669D01*
X3306976Y2271142D01*
X3307417Y2272595D01*
X3308260Y2273856D01*
X3309136Y2278262D01*
X3310441Y2282563D01*
X3310292Y2284073D01*
X3310588Y2285561D01*
X3310588Y2344439D01*
X3310292Y2345927D01*
X3310440Y2347437D01*
X3309136Y2351737D01*
X3308259Y2356144D01*
X3307417Y2357405D01*
X3306976Y2358858D01*
X3304125Y2362332D01*
X3301629Y2366068D01*
X3300367Y2366911D01*
X3299405Y2368083D01*
X3295442Y2370202D01*
X3291705Y2372698D01*
X3290218Y2372994D01*
X3288880Y2373710D01*
X3280962Y2376111D01*
X3283725Y2390000D01*
X3280962Y2403889D01*
X3288880Y2406291D01*
X3290218Y2407006D01*
X3291705Y2407302D01*
X3295442Y2409798D01*
X3299405Y2411917D01*
X3300367Y2413089D01*
X3301629Y2413932D01*
X3304125Y2417669D01*
X3306976Y2421142D01*
X3307417Y2422595D01*
X3308259Y2423856D01*
X3309136Y2428262D01*
X3310440Y2432563D01*
X3310292Y2434073D01*
X3310588Y2435561D01*
Y2494440D01*
X3310292Y2495928D01*
X3310440Y2497438D01*
X3309136Y2501739D01*
X3308259Y2506145D01*
X3307417Y2507406D01*
X3306976Y2508859D01*
X3304125Y2512332D01*
X3301629Y2516068D01*
X3300367Y2516912D01*
X3299404Y2518084D01*
X3295442Y2520202D01*
X3291705Y2522699D01*
X3290218Y2522995D01*
X3288879Y2523710D01*
X3280962Y2526112D01*
X3283725Y2540000D01*
X3280962Y2553888D01*
X3288879Y2556290D01*
X3290218Y2557005D01*
X3291705Y2557301D01*
X3295442Y2559798D01*
X3299404Y2561916D01*
X3300367Y2563088D01*
X3301629Y2563932D01*
X3304125Y2567668D01*
X3306976Y2571141D01*
X3307417Y2572594D01*
X3308259Y2573855D01*
X3309136Y2578261D01*
X3310440Y2582562D01*
X3310292Y2584072D01*
X3310588Y2585560D01*
Y2858526D01*
X3323288Y2862379D01*
X3334940Y2844940D01*
X3355614Y2831126D01*
X3380000Y2826276D01*
X3404387Y2831126D01*
X3425060Y2844940D01*
X3438874Y2865614D01*
X3443725Y2890000D01*
X3438874Y2914386D01*
X3425060Y2935060D01*
X3404387Y2948874D01*
X3380000Y2953725D01*
X3355614Y2948874D01*
X3334940Y2935060D01*
X3323288Y2917621D01*
X3310588Y2921474D01*
Y3527330D01*
X3461629Y3678371D01*
X3468260Y3688295D01*
X3470588Y3700000D01*
X3470588Y3700001D01*
X3470588Y3785000D01*
X3468260Y3796706D01*
X3461629Y3806629D01*
X3461629Y3806629D01*
X3421630Y3846628D01*
X3421629Y3846629D01*
X3411706Y3853259D01*
X3400000Y3855588D01*
D02*
G37*
G36*
X2680000Y2953725D02*
X2655614Y2948874D01*
X2634940Y2935060D01*
X2621127Y2914386D01*
X2616276Y2890000D01*
X2621127Y2865614D01*
X2634940Y2844940D01*
X2655614Y2831126D01*
X2680000Y2826276D01*
X2704387Y2831126D01*
X2725061Y2844940D01*
X2738874Y2865614D01*
X2743725Y2890000D01*
X2738874Y2914386D01*
X2725061Y2935060D01*
X2704387Y2948874D01*
X2680000Y2953725D01*
D02*
G37*
G36*
X900000Y2923725D02*
X875614Y2918874D01*
X854940Y2905060D01*
X841127Y2884386D01*
X836276Y2860000D01*
X841127Y2835614D01*
X854940Y2814940D01*
X875614Y2801126D01*
X900000Y2796276D01*
X924387Y2801126D01*
X945061Y2814940D01*
X958874Y2835614D01*
X963725Y2860000D01*
X958874Y2884386D01*
X945061Y2905060D01*
X924387Y2918874D01*
X900000Y2923725D01*
D02*
G37*
G36*
X2369990Y2883726D02*
X2345603Y2878875D01*
X2324930Y2865062D01*
X2311116Y2844388D01*
X2306265Y2820001D01*
X2311116Y2795615D01*
X2324930Y2774941D01*
X2345603Y2761128D01*
X2369990Y2756277D01*
X2394376Y2761128D01*
X2415050Y2774941D01*
X2428864Y2795615D01*
X2433714Y2820001D01*
X2428864Y2844388D01*
X2415050Y2865062D01*
X2394376Y2878875D01*
X2369990Y2883726D01*
D02*
G37*
G36*
X1030000Y2853725D02*
X1005614Y2848874D01*
X984940Y2835060D01*
X971127Y2814386D01*
X966276Y2790000D01*
X971127Y2765614D01*
X984940Y2744940D01*
X1005614Y2731126D01*
X1030000Y2726275D01*
X1054387Y2731126D01*
X1075061Y2744940D01*
X1088874Y2765614D01*
X1093725Y2790000D01*
X1088874Y2814386D01*
X1075061Y2835060D01*
X1054387Y2848874D01*
X1030000Y2853725D01*
D02*
G37*
G36*
X1380000Y2843725D02*
X1355614Y2838874D01*
X1334940Y2825060D01*
X1321126Y2804386D01*
X1316275Y2780000D01*
X1321126Y2755614D01*
X1334940Y2734940D01*
X1355614Y2721126D01*
X1380000Y2716275D01*
X1404386Y2721126D01*
X1425060Y2734940D01*
X1438874Y2755614D01*
X1443725Y2780000D01*
X1438874Y2804386D01*
X1425060Y2825060D01*
X1404386Y2838874D01*
X1380000Y2843725D01*
D02*
G37*
G36*
X200000Y2931122D02*
X166064Y2926654D01*
X134440Y2913555D01*
X107283Y2892717D01*
X86446Y2865561D01*
X73347Y2833937D01*
X68879Y2800000D01*
X73347Y2766063D01*
X86446Y2734439D01*
X107283Y2707283D01*
X134440Y2686445D01*
X166064Y2673346D01*
X200000Y2668878D01*
X233937Y2673346D01*
X265561Y2686445D01*
X292717Y2707283D01*
X313555Y2734439D01*
X326654Y2766063D01*
X331122Y2800000D01*
X326654Y2833937D01*
X313555Y2865561D01*
X292717Y2892717D01*
X265561Y2913555D01*
X233937Y2926654D01*
X200000Y2931122D01*
D02*
G37*
G36*
X1750000Y2723725D02*
X1725614Y2718874D01*
X1704940Y2705060D01*
X1691126Y2684386D01*
X1686276Y2660000D01*
X1691126Y2635614D01*
X1704940Y2614940D01*
X1725614Y2601126D01*
X1750000Y2596275D01*
X1774386Y2601126D01*
X1795060Y2614940D01*
X1808874Y2635614D01*
X1813725Y2660000D01*
X1808874Y2684386D01*
X1795060Y2705060D01*
X1774386Y2718874D01*
X1750000Y2723725D01*
D02*
G37*
G36*
X3710000Y2713725D02*
X3685614Y2708874D01*
X3664940Y2695060D01*
X3651126Y2674386D01*
X3646275Y2650000D01*
X3651126Y2625614D01*
X3664940Y2604940D01*
X3685614Y2591126D01*
X3710000Y2586275D01*
X3734386Y2591126D01*
X3755060Y2604940D01*
X3768874Y2625614D01*
X3773724Y2650000D01*
X3768874Y2674386D01*
X3755060Y2695060D01*
X3734386Y2708874D01*
X3710000Y2713725D01*
D02*
G37*
G36*
X640000D02*
X615614Y2708874D01*
X594940Y2695060D01*
X581127Y2674386D01*
X576276Y2650000D01*
X581127Y2625614D01*
X594940Y2604940D01*
X615614Y2591126D01*
X640000Y2586275D01*
X664387Y2591126D01*
X685061Y2604940D01*
X698874Y2625614D01*
X703725Y2650000D01*
X698874Y2674386D01*
X685061Y2695060D01*
X664387Y2708874D01*
X640000Y2713725D01*
D02*
G37*
G36*
X1380000Y2693725D02*
X1355614Y2688874D01*
X1334940Y2675060D01*
X1321126Y2654386D01*
X1316276Y2630000D01*
X1321126Y2605614D01*
X1334940Y2584940D01*
X1355614Y2571126D01*
X1380000Y2566276D01*
X1404387Y2571126D01*
X1425060Y2584940D01*
X1438874Y2605614D01*
X1443725Y2630000D01*
X1438874Y2654386D01*
X1425060Y2675060D01*
X1404387Y2688874D01*
X1380000Y2693725D01*
D02*
G37*
G36*
X370001Y2643725D02*
X345614Y2638874D01*
X324940Y2625060D01*
X311127Y2604386D01*
X306276Y2580000D01*
X311127Y2555614D01*
X324940Y2534940D01*
X345614Y2521126D01*
X370001Y2516276D01*
X394387Y2521126D01*
X415061Y2534940D01*
X428874Y2555614D01*
X433725Y2580000D01*
X428874Y2604386D01*
X415061Y2625060D01*
X394387Y2638874D01*
X370001Y2643725D01*
D02*
G37*
G36*
X2415001Y2585561D02*
X2398032Y2583327D01*
X2382220Y2576777D01*
X2368642Y2566359D01*
X2358223Y2552781D01*
X2351674Y2536969D01*
X2349440Y2520000D01*
X2351674Y2503032D01*
X2358223Y2487220D01*
X2368642Y2473642D01*
X2382220Y2463223D01*
X2398032Y2456674D01*
X2415001Y2454440D01*
X2431969Y2456674D01*
X2447781Y2463223D01*
X2461359Y2473642D01*
X2471778Y2487220D01*
X2478327Y2503032D01*
X2480561Y2520000D01*
X2478327Y2536969D01*
X2471778Y2552781D01*
X2461359Y2566359D01*
X2447781Y2576777D01*
X2431969Y2583327D01*
X2415001Y2585561D01*
D02*
G37*
G36*
X2115001D02*
X2098032Y2583327D01*
X2082220Y2576777D01*
X2068642Y2566359D01*
X2058223Y2552781D01*
X2051674Y2536969D01*
X2049440Y2520000D01*
X2051674Y2503032D01*
X2058223Y2487220D01*
X2068642Y2473642D01*
X2082220Y2463223D01*
X2098032Y2456674D01*
X2115001Y2454440D01*
X2131969Y2456674D01*
X2147781Y2463223D01*
X2161359Y2473642D01*
X2171778Y2487220D01*
X2178327Y2503032D01*
X2180561Y2520000D01*
X2178327Y2536969D01*
X2171778Y2552781D01*
X2161359Y2566359D01*
X2147781Y2576777D01*
X2131969Y2583327D01*
X2115001Y2585561D01*
D02*
G37*
G36*
X1750000Y2573725D02*
X1725614Y2568874D01*
X1704940Y2555060D01*
X1691126Y2534386D01*
X1686276Y2510000D01*
X1691126Y2485614D01*
X1704940Y2464940D01*
X1725614Y2451126D01*
X1750000Y2446276D01*
X1774387Y2451126D01*
X1795060Y2464940D01*
X1808874Y2485614D01*
X1813725Y2510000D01*
X1808874Y2534386D01*
X1795060Y2555060D01*
X1774387Y2568874D01*
X1750000Y2573725D01*
D02*
G37*
G36*
X180000Y2503725D02*
X155614Y2498874D01*
X134940Y2485060D01*
X121127Y2464386D01*
X116276Y2440000D01*
X121127Y2415614D01*
X134940Y2394940D01*
X155614Y2381126D01*
X180000Y2376276D01*
X204387Y2381126D01*
X225061Y2394940D01*
X238874Y2415614D01*
X243725Y2440000D01*
X238874Y2464386D01*
X225061Y2485060D01*
X204387Y2498874D01*
X180000Y2503725D01*
D02*
G37*
G36*
X1160000Y2443725D02*
X1135614Y2438874D01*
X1114940Y2425060D01*
X1101127Y2404386D01*
X1096276Y2380000D01*
X1101127Y2355614D01*
X1114940Y2334940D01*
X1135614Y2321126D01*
X1160000Y2316276D01*
X1184387Y2321126D01*
X1205061Y2334940D01*
X1218874Y2355614D01*
X1223725Y2380000D01*
X1218874Y2404386D01*
X1205061Y2425060D01*
X1184387Y2438874D01*
X1160000Y2443725D01*
D02*
G37*
G36*
X900000Y2393725D02*
X875614Y2388874D01*
X854940Y2375060D01*
X841127Y2354386D01*
X836276Y2330000D01*
X841127Y2305614D01*
X854940Y2284940D01*
X875614Y2271126D01*
X900000Y2266276D01*
X924387Y2271126D01*
X945061Y2284940D01*
X958874Y2305614D01*
X963725Y2330000D01*
X958874Y2354386D01*
X945061Y2375060D01*
X924387Y2388874D01*
X900000Y2393725D01*
D02*
G37*
G36*
X180000Y2353725D02*
X155614Y2348874D01*
X134940Y2335060D01*
X121127Y2314386D01*
X116276Y2290000D01*
X121127Y2265614D01*
X134940Y2244940D01*
X155614Y2231126D01*
X180000Y2226275D01*
X204387Y2231126D01*
X225061Y2244940D01*
X238874Y2265614D01*
X243725Y2290000D01*
X238874Y2314386D01*
X225061Y2335060D01*
X204387Y2348874D01*
X180000Y2353725D01*
D02*
G37*
G36*
X1590000Y2333725D02*
X1565614Y2328874D01*
X1544940Y2315060D01*
X1531126Y2294386D01*
X1526276Y2270000D01*
X1531126Y2245614D01*
X1544940Y2224940D01*
X1565614Y2211126D01*
X1590000Y2206275D01*
X1614387Y2211126D01*
X1635060Y2224940D01*
X1648874Y2245614D01*
X1653725Y2270000D01*
X1648874Y2294386D01*
X1635060Y2315060D01*
X1614387Y2328874D01*
X1590000Y2333725D01*
D02*
G37*
G36*
X1430000Y2286225D02*
X1405614Y2281374D01*
X1384940Y2267560D01*
X1371127Y2246886D01*
X1366276Y2222500D01*
X1371127Y2198114D01*
X1384940Y2177440D01*
X1405614Y2163626D01*
X1430000Y2158775D01*
X1454387Y2163626D01*
X1475061Y2177440D01*
X1488874Y2198114D01*
X1493725Y2222500D01*
X1488874Y2246886D01*
X1475061Y2267560D01*
X1454387Y2281374D01*
X1430000Y2286225D01*
D02*
G37*
G36*
X1160000Y2283725D02*
X1135614Y2278874D01*
X1114940Y2265060D01*
X1101127Y2244386D01*
X1096276Y2220000D01*
X1101127Y2195614D01*
X1114940Y2174940D01*
X1135614Y2161126D01*
X1160000Y2156276D01*
X1184387Y2161126D01*
X1205061Y2174940D01*
X1218874Y2195614D01*
X1223725Y2220000D01*
X1218874Y2244386D01*
X1205061Y2265060D01*
X1184387Y2278874D01*
X1160000Y2283725D01*
D02*
G37*
G36*
X2415001Y2285561D02*
X2398032Y2283327D01*
X2382220Y2276778D01*
X2368642Y2266359D01*
X2358223Y2252781D01*
X2351674Y2236969D01*
X2349440Y2220000D01*
X2351674Y2203032D01*
X2358223Y2187220D01*
X2368642Y2173642D01*
X2382220Y2163223D01*
X2398032Y2156674D01*
X2415001Y2154440D01*
X2431969Y2156674D01*
X2447781Y2163223D01*
X2461359Y2173642D01*
X2471778Y2187220D01*
X2478327Y2203032D01*
X2480561Y2220000D01*
X2478327Y2236969D01*
X2471778Y2252781D01*
X2461359Y2266359D01*
X2447781Y2276778D01*
X2431969Y2283327D01*
X2415001Y2285561D01*
D02*
G37*
G36*
X2115001D02*
X2098032Y2283327D01*
X2082220Y2276778D01*
X2068642Y2266359D01*
X2058223Y2252781D01*
X2051674Y2236969D01*
X2049440Y2220000D01*
X2051674Y2203032D01*
X2058223Y2187220D01*
X2068642Y2173642D01*
X2082220Y2163223D01*
X2098032Y2156674D01*
X2115001Y2154440D01*
X2131969Y2156674D01*
X2147781Y2163223D01*
X2161359Y2173642D01*
X2171778Y2187220D01*
X2178327Y2203032D01*
X2180561Y2220000D01*
X2178327Y2236969D01*
X2171778Y2252781D01*
X2161359Y2266359D01*
X2147781Y2276778D01*
X2131969Y2283327D01*
X2115001Y2285561D01*
D02*
G37*
G36*
X800000Y2273725D02*
X775614Y2268874D01*
X754940Y2255060D01*
X741127Y2234386D01*
X736276Y2210000D01*
X741127Y2185614D01*
X754940Y2164940D01*
X775614Y2151126D01*
X800000Y2146276D01*
X824387Y2151126D01*
X845061Y2164940D01*
X858874Y2185614D01*
X863725Y2210000D01*
X858874Y2234386D01*
X845061Y2255060D01*
X824387Y2268874D01*
X800000Y2273725D01*
D02*
G37*
G36*
X550000Y2221225D02*
X525614Y2216374D01*
X504940Y2202560D01*
X491127Y2181886D01*
X486276Y2157500D01*
X491127Y2133114D01*
X504940Y2112440D01*
X525614Y2098626D01*
X550000Y2093776D01*
X574387Y2098626D01*
X595061Y2112440D01*
X608874Y2133114D01*
X613725Y2157500D01*
X608874Y2181886D01*
X595061Y2202560D01*
X574387Y2216374D01*
X550000Y2221225D01*
D02*
G37*
G36*
X180000Y2203725D02*
X155614Y2198874D01*
X134940Y2185060D01*
X121127Y2164386D01*
X116276Y2140000D01*
X121127Y2115614D01*
X134940Y2094940D01*
X155614Y2081126D01*
X180000Y2076276D01*
X204387Y2081126D01*
X225061Y2094940D01*
X238874Y2115614D01*
X243725Y2140000D01*
X238874Y2164386D01*
X225061Y2185060D01*
X204387Y2198874D01*
X180000Y2203725D01*
D02*
G37*
G36*
X1756021Y2142245D02*
X1731635Y2137395D01*
X1710961Y2123581D01*
X1697147Y2102907D01*
X1692296Y2078521D01*
X1697147Y2054134D01*
X1710961Y2033460D01*
X1731635Y2019647D01*
X1756021Y2014796D01*
X1780407Y2019647D01*
X1801081Y2033460D01*
X1814895Y2054134D01*
X1819745Y2078521D01*
X1814895Y2102907D01*
X1801081Y2123581D01*
X1780407Y2137395D01*
X1756021Y2142245D01*
D02*
G37*
G36*
X1360000Y2083725D02*
X1335614Y2078874D01*
X1314940Y2065060D01*
X1301126Y2044386D01*
X1296276Y2020000D01*
X1301126Y1995614D01*
X1302775Y1993147D01*
X1295719Y1982587D01*
X1290000Y1983725D01*
X1265614Y1978874D01*
X1244940Y1965060D01*
X1231127Y1944387D01*
X1226276Y1920000D01*
X1231127Y1895614D01*
X1244940Y1874940D01*
X1265614Y1861126D01*
X1290000Y1856276D01*
X1314387Y1861126D01*
X1335061Y1874940D01*
X1348874Y1895614D01*
X1353725Y1920000D01*
X1348874Y1944387D01*
X1347226Y1946853D01*
X1354282Y1957413D01*
X1360000Y1956275D01*
X1384387Y1961126D01*
X1405060Y1974940D01*
X1418874Y1995614D01*
X1423725Y2020000D01*
X1418874Y2044386D01*
X1405060Y2065060D01*
X1384387Y2078874D01*
X1360000Y2083725D01*
D02*
G37*
G36*
X180000Y2053725D02*
X155614Y2048874D01*
X134940Y2035060D01*
X121127Y2014386D01*
X116276Y1990000D01*
X121127Y1965614D01*
X134940Y1944940D01*
X155614Y1931126D01*
X180000Y1926276D01*
X204387Y1931126D01*
X225061Y1944940D01*
X238874Y1965614D01*
X243725Y1990000D01*
X238874Y2014386D01*
X225061Y2035060D01*
X204387Y2048874D01*
X180000Y2053725D01*
D02*
G37*
G36*
X1509991Y1973728D02*
X1485605Y1968877D01*
X1464931Y1955063D01*
X1451117Y1934390D01*
X1448424Y1920846D01*
X1427390Y1925030D01*
X1403004Y1920179D01*
X1382330Y1906365D01*
X1368516Y1885691D01*
X1363666Y1861305D01*
X1368516Y1836919D01*
X1382330Y1816245D01*
X1403004Y1802431D01*
X1427390Y1797581D01*
X1451776Y1802431D01*
X1472450Y1816245D01*
X1486264Y1836919D01*
X1488958Y1850462D01*
X1509991Y1846279D01*
X1534378Y1851129D01*
X1555051Y1864943D01*
X1568865Y1885617D01*
X1573716Y1910003D01*
X1568865Y1934390D01*
X1555051Y1955063D01*
X1534378Y1968877D01*
X1509991Y1973728D01*
D02*
G37*
G36*
X550000Y2043725D02*
X525614Y2038874D01*
X504940Y2025060D01*
X491127Y2004386D01*
X486276Y1980000D01*
X491127Y1955614D01*
X504940Y1934940D01*
X525614Y1921126D01*
X550000Y1916276D01*
X574387Y1921126D01*
X595061Y1934940D01*
X608874Y1955614D01*
X613725Y1980000D01*
X608874Y2004386D01*
X595061Y2025060D01*
X574387Y2038874D01*
X550000Y2043725D01*
D02*
G37*
G36*
X960000Y2023725D02*
X935614Y2018874D01*
X914940Y2005060D01*
X901126Y1984386D01*
X896276Y1960000D01*
X901126Y1935614D01*
X914940Y1914940D01*
X935614Y1901126D01*
X960000Y1896276D01*
X984387Y1901126D01*
X1005060Y1914940D01*
X1018874Y1935614D01*
X1023725Y1960000D01*
X1018874Y1984386D01*
X1005060Y2005060D01*
X984387Y2018874D01*
X960000Y2023725D01*
D02*
G37*
G36*
X2260000Y1903725D02*
X2235614Y1898874D01*
X2214940Y1885060D01*
X2201126Y1864386D01*
X2196276Y1840000D01*
X2201126Y1815614D01*
X2214940Y1794940D01*
X2235614Y1781126D01*
X2260000Y1776276D01*
X2284387Y1781126D01*
X2305060Y1794940D01*
X2318874Y1815614D01*
X2323725Y1840000D01*
X2318874Y1864386D01*
X2305060Y1885060D01*
X2284387Y1898874D01*
X2260000Y1903725D01*
D02*
G37*
G36*
X2550000Y1873725D02*
X2525614Y1868874D01*
X2504940Y1855060D01*
X2491127Y1834386D01*
X2486276Y1810000D01*
X2491127Y1785614D01*
X2504940Y1764940D01*
X2525614Y1751126D01*
X2550000Y1746276D01*
X2574387Y1751126D01*
X2595061Y1764940D01*
X2608874Y1785614D01*
X2613725Y1810000D01*
X2608874Y1834386D01*
X2595061Y1855060D01*
X2574387Y1868874D01*
X2550000Y1873725D01*
D02*
G37*
G36*
X1710000Y1863725D02*
X1685614Y1858874D01*
X1664940Y1845060D01*
X1651126Y1824386D01*
X1646276Y1800000D01*
X1651126Y1775614D01*
X1664940Y1754940D01*
X1685614Y1741126D01*
X1710000Y1736276D01*
X1734387Y1741126D01*
X1755060Y1754940D01*
X1768874Y1775614D01*
X1773725Y1800000D01*
X1768874Y1824386D01*
X1755060Y1845060D01*
X1734387Y1858874D01*
X1710000Y1863725D01*
D02*
G37*
G36*
X940000Y1823725D02*
X915614Y1818874D01*
X894940Y1805060D01*
X881127Y1784386D01*
X876276Y1760000D01*
X881127Y1735614D01*
X894940Y1714940D01*
X915614Y1701126D01*
X940000Y1696275D01*
X964387Y1701126D01*
X985061Y1714940D01*
X998874Y1735614D01*
X1003725Y1760000D01*
X998874Y1784386D01*
X985061Y1805060D01*
X964387Y1818874D01*
X940000Y1823725D01*
D02*
G37*
G36*
X760001D02*
X735614Y1818874D01*
X714940Y1805060D01*
X701127Y1784386D01*
X696276Y1760000D01*
X701127Y1735614D01*
X714940Y1714940D01*
X735614Y1701126D01*
X760001Y1696275D01*
X784387Y1701126D01*
X805061Y1714940D01*
X818874Y1735614D01*
X823725Y1760000D01*
X818874Y1784386D01*
X805061Y1805060D01*
X784387Y1818874D01*
X760001Y1823725D01*
D02*
G37*
G36*
X860001Y1580776D02*
X836506Y1577683D01*
X814613Y1568615D01*
X795812Y1554189D01*
X788005Y1544014D01*
X771997D01*
X764189Y1554189D01*
X745389Y1568615D01*
X723495Y1577683D01*
X700001Y1580776D01*
X676506Y1577683D01*
X654612Y1568615D01*
X635812Y1554189D01*
X621386Y1535388D01*
X612318Y1513495D01*
X609224Y1490000D01*
X612318Y1466505D01*
X621386Y1444612D01*
X635812Y1425811D01*
X654612Y1411386D01*
X676506Y1402317D01*
X700001Y1399224D01*
X723495Y1402317D01*
X745389Y1411386D01*
X764189Y1425811D01*
X771997Y1435986D01*
X788005D01*
X795812Y1425811D01*
X814613Y1411386D01*
X836506Y1402317D01*
X860001Y1399224D01*
X883496Y1402317D01*
X905389Y1411386D01*
X924189Y1425811D01*
X938615Y1444612D01*
X947684Y1466505D01*
X950777Y1490000D01*
X947684Y1513495D01*
X938615Y1535388D01*
X924189Y1554189D01*
X905389Y1568615D01*
X883496Y1577683D01*
X860001Y1580776D01*
D02*
G37*
G36*
X2395000Y1503725D02*
X2370614Y1498874D01*
X2349940Y1485060D01*
X2336126Y1464386D01*
X2333975Y1453569D01*
X2321026D01*
X2318874Y1464386D01*
X2305060Y1485060D01*
X2284387Y1498874D01*
X2260000Y1503725D01*
X2235614Y1498874D01*
X2214940Y1485060D01*
X2201126Y1464386D01*
X2196276Y1440000D01*
X2201126Y1415614D01*
X2214940Y1394940D01*
X2235614Y1381126D01*
X2260000Y1376276D01*
X2284387Y1381126D01*
X2305060Y1394940D01*
X2318874Y1415614D01*
X2321026Y1426431D01*
X2333975D01*
X2336126Y1415614D01*
X2349940Y1394940D01*
X2370614Y1381126D01*
X2383364Y1378590D01*
X2389209Y1364479D01*
X2385164Y1358425D01*
X2380314Y1334038D01*
X2385164Y1309652D01*
X2398978Y1288978D01*
X2419652Y1275164D01*
X2444038Y1270314D01*
X2468424Y1275164D01*
X2489098Y1288978D01*
X2502912Y1309652D01*
X2507763Y1334038D01*
X2502912Y1358425D01*
X2489098Y1379098D01*
X2468424Y1392912D01*
X2455674Y1395448D01*
X2449829Y1409560D01*
X2453874Y1415614D01*
X2458725Y1440000D01*
X2453874Y1464386D01*
X2440060Y1485060D01*
X2419387Y1498874D01*
X2395000Y1503725D01*
D02*
G37*
G36*
X1850000Y1503724D02*
X1825614Y1498874D01*
X1804940Y1485060D01*
X1791126Y1464386D01*
X1786276Y1440000D01*
X1789729Y1422641D01*
X1786132Y1410608D01*
X1781979Y1406445D01*
X1764940Y1395060D01*
X1751127Y1374386D01*
X1746276Y1350000D01*
X1751127Y1325614D01*
X1764362Y1305806D01*
X1762597Y1299628D01*
X1759126Y1293551D01*
X1735614Y1288874D01*
X1714940Y1275060D01*
X1701126Y1254386D01*
X1696276Y1230000D01*
X1701126Y1205614D01*
X1714940Y1184940D01*
X1735614Y1171126D01*
X1760000Y1166276D01*
X1784387Y1171126D01*
X1805060Y1184940D01*
X1818874Y1205614D01*
X1823725Y1230000D01*
X1818874Y1254386D01*
X1805639Y1274194D01*
X1807403Y1280372D01*
X1810875Y1286450D01*
X1834387Y1291126D01*
X1855061Y1304940D01*
X1868874Y1325614D01*
X1873725Y1350000D01*
X1870272Y1367359D01*
X1874387Y1381126D01*
X1895060Y1394940D01*
X1908874Y1415614D01*
X1913725Y1440000D01*
X1908874Y1464386D01*
X1895060Y1485060D01*
X1874387Y1498874D01*
X1850000Y1503724D01*
D02*
G37*
G36*
X2190000Y1293725D02*
X2165614Y1288874D01*
X2144940Y1275060D01*
X2131127Y1254386D01*
X2126276Y1230000D01*
X2131127Y1205614D01*
X2128579Y1199464D01*
X2125614Y1198874D01*
X2104940Y1185060D01*
X2091127Y1164386D01*
X2086276Y1140000D01*
X2091127Y1115614D01*
X2104940Y1094940D01*
X2125614Y1081126D01*
X2150001Y1076275D01*
X2174387Y1081126D01*
X2195061Y1094940D01*
X2208874Y1115614D01*
X2213725Y1140000D01*
X2208874Y1164386D01*
X2211422Y1170536D01*
X2214387Y1171126D01*
X2235061Y1184940D01*
X2248874Y1205614D01*
X2253725Y1230000D01*
X2248874Y1254386D01*
X2235061Y1275060D01*
X2214387Y1288874D01*
X2190000Y1293725D01*
D02*
G37*
G36*
X3340001Y1003725D02*
X3315614Y998874D01*
X3294941Y985060D01*
X3281127Y964386D01*
X3276276Y940000D01*
X3281127Y915614D01*
X3294941Y894940D01*
X3315614Y881126D01*
X3340001Y876276D01*
X3364387Y881126D01*
X3385061Y894940D01*
X3398875Y915614D01*
X3403725Y940000D01*
X3398875Y964386D01*
X3385061Y985060D01*
X3364387Y998874D01*
X3340001Y1003725D01*
D02*
G37*
G36*
X1500000Y813725D02*
X1475614Y808874D01*
X1454940Y795060D01*
X1441126Y774386D01*
X1438436Y760861D01*
X1423946Y753116D01*
X1416885Y756041D01*
X1396001Y758790D01*
X1375116Y756041D01*
X1355655Y747980D01*
X1338944Y735157D01*
X1326121Y718445D01*
X1318060Y698984D01*
X1315310Y678100D01*
X1318060Y657216D01*
X1326121Y637755D01*
X1338944Y621044D01*
X1355655Y608221D01*
X1375116Y600160D01*
X1396001Y597410D01*
X1416885Y600160D01*
X1436346Y608221D01*
X1453057Y621044D01*
X1465880Y637755D01*
X1473941Y657216D01*
X1476673Y677966D01*
X1476695Y678104D01*
X1488113Y688640D01*
X1500000Y686275D01*
X1524386Y691126D01*
X1545060Y704940D01*
X1558874Y725614D01*
X1563725Y750000D01*
X1558874Y774386D01*
X1545060Y795060D01*
X1524386Y808874D01*
X1500000Y813725D01*
D02*
G37*
G36*
X1650000D02*
X1625614Y808874D01*
X1604940Y795060D01*
X1591126Y774386D01*
X1586275Y750000D01*
X1591126Y725614D01*
X1604940Y704940D01*
X1625614Y691126D01*
X1650000Y686275D01*
X1674386Y691126D01*
X1695060Y704940D01*
X1708874Y725614D01*
X1713725Y750000D01*
X1708874Y774386D01*
X1695060Y795060D01*
X1674386Y808874D01*
X1650000Y813725D01*
D02*
G37*
G36*
X2879038Y692763D02*
X2854652Y687912D01*
X2833978Y674098D01*
X2820165Y653424D01*
X2815314Y629038D01*
X2820165Y604652D01*
X2833978Y583978D01*
X2854652Y570164D01*
X2879038Y565314D01*
X2903425Y570164D01*
X2924099Y583978D01*
X2937912Y604652D01*
X2942763Y629038D01*
X2937912Y653424D01*
X2924099Y674098D01*
X2903425Y687912D01*
X2879038Y692763D01*
D02*
G37*
G36*
X1904001Y657190D02*
X1883116Y654441D01*
X1863655Y646380D01*
X1846944Y633557D01*
X1834121Y616845D01*
X1826060Y597384D01*
X1823310Y576500D01*
X1826060Y555616D01*
X1834121Y536155D01*
X1846944Y519444D01*
X1863655Y506621D01*
X1883116Y498560D01*
X1904001Y495810D01*
X1924885Y498560D01*
X1944346Y506621D01*
X1961057Y519444D01*
X1973880Y536155D01*
X1981941Y555616D01*
X1984691Y576500D01*
X1981941Y597384D01*
X1973880Y616845D01*
X1961057Y633557D01*
X1944346Y646380D01*
X1924885Y654441D01*
X1904001Y657190D01*
D02*
G37*
G36*
X2320000Y900871D02*
X2284714Y897395D01*
X2250784Y887103D01*
X2219514Y870389D01*
X2192105Y847895D01*
X2169612Y820487D01*
X2152898Y789216D01*
X2142605Y755286D01*
X2139130Y720000D01*
Y520000D01*
X2142605Y484714D01*
X2152898Y450784D01*
X2169612Y419514D01*
X2192105Y392105D01*
X2219514Y369611D01*
X2250784Y352897D01*
X2284714Y342605D01*
X2320000Y339129D01*
X2355287Y342605D01*
X2389217Y352897D01*
X2420487Y369611D01*
X2447896Y392105D01*
X2470389Y419514D01*
X2487103Y450784D01*
X2497396Y484714D01*
X2500871Y520000D01*
Y720000D01*
X2497396Y755286D01*
X2487103Y789216D01*
X2470389Y820487D01*
X2447896Y847895D01*
X2420487Y870389D01*
X2389217Y887103D01*
X2355287Y897395D01*
X2320000Y900871D01*
D02*
G37*
G36*
X1396001Y555590D02*
X1375116Y552841D01*
X1355655Y544780D01*
X1338944Y531957D01*
X1326121Y515245D01*
X1318060Y495784D01*
X1315310Y474900D01*
X1318060Y454016D01*
X1326121Y434555D01*
X1338944Y417844D01*
X1355655Y405021D01*
X1375116Y396960D01*
X1396001Y394210D01*
X1416885Y396960D01*
X1436346Y405021D01*
X1451663Y416774D01*
X1456524Y415328D01*
X1463341Y410384D01*
X1461275Y400000D01*
X1466126Y375614D01*
X1479940Y354940D01*
X1500614Y341126D01*
X1525000Y336275D01*
X1549386Y341126D01*
X1570060Y354940D01*
X1580243Y370181D01*
X1594757D01*
X1604940Y354940D01*
X1625614Y341126D01*
X1650000Y336275D01*
X1674386Y341126D01*
X1695060Y354940D01*
X1705243Y370181D01*
X1719757D01*
X1729940Y354940D01*
X1750614Y341126D01*
X1775000Y336275D01*
X1799386Y341126D01*
X1820060Y354940D01*
X1833874Y375614D01*
X1838725Y400000D01*
X1833874Y424386D01*
X1820060Y445060D01*
X1799386Y458874D01*
X1775000Y463724D01*
X1750614Y458874D01*
X1729940Y445060D01*
X1719757Y429819D01*
X1705243D01*
X1695060Y445060D01*
X1674386Y458874D01*
X1650000Y463724D01*
X1625614Y458874D01*
X1604940Y445060D01*
X1594757Y429819D01*
X1580243D01*
X1570060Y445060D01*
X1549386Y458874D01*
X1525000Y463724D01*
X1500614Y458874D01*
X1485523Y448791D01*
X1479841Y451354D01*
X1474275Y456549D01*
X1476691Y474900D01*
X1473941Y495784D01*
X1465880Y515245D01*
X1453057Y531957D01*
X1436346Y544780D01*
X1416885Y552841D01*
X1396001Y555590D01*
D02*
G37*
%LPD*%
G36*
X3440000Y3785000D02*
X3440000Y3700000D01*
X3280000Y3540000D01*
Y2585560D01*
X3267300Y2581708D01*
X3265060Y2585060D01*
X3244386Y2598874D01*
X3220000Y2603725D01*
X3195614Y2598874D01*
X3174940Y2585060D01*
X3161126Y2564386D01*
X3156276Y2540000D01*
X3161126Y2515614D01*
X3174940Y2494940D01*
X3195614Y2481126D01*
X3220000Y2476275D01*
X3244386Y2481126D01*
X3265060Y2494940D01*
X3267300Y2498292D01*
X3280000Y2494440D01*
Y2435561D01*
X3267300Y2431708D01*
X3265061Y2435060D01*
X3244387Y2448874D01*
X3220000Y2453725D01*
X3195614Y2448874D01*
X3174940Y2435060D01*
X3161127Y2414386D01*
X3156276Y2390000D01*
X3161127Y2365614D01*
X3174940Y2344940D01*
X3195614Y2331126D01*
X3220000Y2326276D01*
X3244387Y2331126D01*
X3265061Y2344940D01*
X3267300Y2348292D01*
X3280000Y2344439D01*
X3280000Y2285561D01*
X3267300Y2281708D01*
X3265061Y2285060D01*
X3244387Y2298874D01*
X3220000Y2303725D01*
X3195614Y2298874D01*
X3174940Y2285060D01*
X3161127Y2264386D01*
X3156276Y2240000D01*
X3161127Y2215614D01*
X3174940Y2194940D01*
X3195614Y2181126D01*
X3219228Y2176429D01*
X3224719Y2169873D01*
X3221020Y2156656D01*
X3214782Y2152687D01*
X3195614Y2148874D01*
X3174940Y2135060D01*
X3161126Y2114386D01*
X3156276Y2090000D01*
X3161126Y2065614D01*
X3174940Y2044940D01*
X3195614Y2031126D01*
X3220000Y2026276D01*
X3236369Y2029532D01*
X3239295Y2014825D01*
X3230000Y2003724D01*
X3205614Y1998874D01*
X3184940Y1985060D01*
X3171126Y1964386D01*
X3166275Y1940000D01*
X3171126Y1915614D01*
X3184940Y1894940D01*
X3205614Y1881126D01*
X3230000Y1876275D01*
X3254386Y1881126D01*
X3261110Y1885619D01*
X3261114Y1885617D01*
X3274928Y1864943D01*
X3280000Y1861554D01*
Y1050000D01*
X3230000Y1000000D01*
X2990000D01*
X2825000Y1165000D01*
Y1238230D01*
X2835049Y1244944D01*
X2848863Y1265618D01*
X2853713Y1290005D01*
X2852318Y1297022D01*
X2863214Y1307341D01*
X2868046Y1306104D01*
X2871127Y1290614D01*
X2884941Y1269940D01*
X2905614Y1256126D01*
X2930001Y1251276D01*
X2954387Y1256126D01*
X2975061Y1269940D01*
X2988875Y1290614D01*
X2993725Y1315000D01*
X3006176Y1317504D01*
X3024387Y1321126D01*
X3045060Y1334940D01*
X3058874Y1355614D01*
X3063725Y1380000D01*
X3058874Y1404386D01*
X3045060Y1425060D01*
X3024387Y1438874D01*
X3000000Y1443725D01*
X2975614Y1438874D01*
X2954940Y1425060D01*
X2941126Y1404386D01*
X2938525Y1391307D01*
X2930001Y1387101D01*
X2921476Y1391307D01*
X2918874Y1404386D01*
X2905060Y1425060D01*
X2884387Y1438874D01*
X2860000Y1443725D01*
X2837700Y1439289D01*
X2825000Y1445656D01*
Y1876276D01*
X2847500D01*
X2871887Y1881126D01*
X2892560Y1894940D01*
X2906374Y1915614D01*
X2911225Y1940000D01*
X2906374Y1964386D01*
X2892560Y1985060D01*
X2871887Y1998874D01*
X2847500Y2003725D01*
X2825000D01*
Y2378299D01*
X2837700Y2388722D01*
X2850000Y2386275D01*
X2874386Y2391126D01*
X2895060Y2404940D01*
X2908874Y2425614D01*
X2913724Y2450000D01*
X2908874Y2474386D01*
X2895060Y2495060D01*
X2884122Y2502368D01*
Y2517643D01*
X2887560Y2519940D01*
X2901374Y2540614D01*
X2906225Y2565000D01*
X2901374Y2589386D01*
X2887560Y2610060D01*
X2872498Y2620124D01*
X2876166Y2625614D01*
X2881017Y2650000D01*
X2878338Y2663466D01*
X2877009Y2675056D01*
X2886144Y2682312D01*
X2897560Y2689940D01*
X2911374Y2710614D01*
X2916225Y2735000D01*
X2911374Y2759386D01*
X2897560Y2780060D01*
X2876886Y2793874D01*
X2852500Y2798725D01*
X2837700Y2795781D01*
X2825000Y2805905D01*
Y3605000D01*
X3045000Y3825000D01*
X3400000D01*
X3440000Y3785000D01*
D02*
G37*
%LPC*%
G36*
X2964980Y3483245D02*
X2940594Y3478394D01*
X2919920Y3464581D01*
X2906106Y3443907D01*
X2901256Y3419520D01*
X2906106Y3395134D01*
X2919920Y3374460D01*
X2940594Y3360647D01*
X2964980Y3355796D01*
X2989366Y3360647D01*
X3010040Y3374460D01*
X3023854Y3395134D01*
X3028705Y3419520D01*
X3023854Y3443907D01*
X3010040Y3464581D01*
X2989366Y3478394D01*
X2964980Y3483245D01*
D02*
G37*
G36*
X3140000Y1693725D02*
X3115614Y1688874D01*
X3094940Y1675060D01*
X3081126Y1654386D01*
X3076276Y1630000D01*
X3081126Y1605614D01*
X3094940Y1584940D01*
X3115614Y1571126D01*
X3140000Y1566276D01*
X3164387Y1571126D01*
X3185060Y1584940D01*
X3198874Y1605614D01*
X3203725Y1630000D01*
X3198874Y1654386D01*
X3185060Y1675060D01*
X3164387Y1688874D01*
X3140000Y1693725D01*
D02*
G37*
G36*
X7900000Y2557968D02*
X7860793Y2554106D01*
X7823093Y2542670D01*
X7788348Y2524099D01*
X7773430Y2511855D01*
X7900000Y2385285D01*
X8026570Y2511855D01*
X8011651Y2524099D01*
X7976907Y2542670D01*
X7939207Y2554106D01*
X7900000Y2557968D01*
D02*
G37*
G36*
X7745145Y2483571D02*
X7732901Y2468652D01*
X7714330Y2433907D01*
X7702894Y2396207D01*
X7699032Y2357000D01*
X7702894Y2317793D01*
X7714330Y2280093D01*
X7732901Y2245349D01*
X7745145Y2230430D01*
X7871716Y2357000D01*
X7745145Y2483571D01*
D02*
G37*
G36*
X7900000Y2328716D02*
X7773429Y2202145D01*
X7788348Y2189902D01*
X7823093Y2171330D01*
X7860793Y2159894D01*
X7900000Y2156033D01*
X7939207Y2159894D01*
X7976907Y2171330D01*
X8011651Y2189902D01*
X8026571Y2202145D01*
X7900000Y2328716D01*
D02*
G37*
G36*
X7100000Y2200863D02*
X7073895Y2197426D01*
X7049569Y2187350D01*
X7028679Y2171321D01*
X7012650Y2150431D01*
X7002574Y2126105D01*
X6999137Y2100000D01*
X7002574Y2073895D01*
X7012650Y2049569D01*
X7028679Y2028679D01*
X7049569Y2012651D01*
X7073895Y2002574D01*
X7100000Y1999137D01*
X7126105Y2002574D01*
X7150431Y2012651D01*
X7171321Y2028679D01*
X7187350Y2049569D01*
X7197426Y2073895D01*
X7200863Y2100000D01*
X7197426Y2126105D01*
X7187350Y2150431D01*
X7171321Y2171321D01*
X7150431Y2187350D01*
X7126105Y2197426D01*
X7100000Y2200863D01*
D02*
G37*
G36*
X7220000Y1720000D02*
X6980000D01*
Y1480000D01*
X7220000D01*
Y1720000D01*
D02*
G37*
G36*
X8050000Y6625726D02*
X8020595Y6622830D01*
X7992320Y6614252D01*
X7966261Y6600324D01*
X7958956Y6594329D01*
X8050000Y6503284D01*
X8141044Y6594328D01*
X8133739Y6600324D01*
X8107680Y6614252D01*
X8079405Y6622830D01*
X8050000Y6625726D01*
D02*
G37*
G36*
X7930672Y6566044D02*
X7924676Y6558739D01*
X7910748Y6532680D01*
X7902171Y6504405D01*
X7899275Y6475000D01*
X7902171Y6445595D01*
X7910748Y6417320D01*
X7924676Y6391261D01*
X7930672Y6383956D01*
X8021716Y6475000D01*
X7930672Y6566044D01*
D02*
G37*
G36*
X8050000Y6446716D02*
X7958956Y6355672D01*
X7966261Y6349676D01*
X7992320Y6335748D01*
X8020595Y6327170D01*
X8050000Y6324274D01*
X8079405Y6327170D01*
X8107680Y6335748D01*
X8133739Y6349676D01*
X8141044Y6355672D01*
X8050000Y6446716D01*
D02*
G37*
G36*
X8000000Y5615561D02*
X7983032Y5613327D01*
X7967220Y5606777D01*
X7959133Y5600572D01*
X7950000Y5597560D01*
X7940867Y5600572D01*
X7932780Y5606777D01*
X7916968Y5613327D01*
X7900000Y5615561D01*
X7883031Y5613327D01*
X7867220Y5606777D01*
X7859133Y5600572D01*
X7850000Y5597560D01*
X7840867Y5600572D01*
X7832780Y5606777D01*
X7816968Y5613327D01*
X7800000Y5615561D01*
X7783031Y5613327D01*
X7767219Y5606777D01*
X7759133Y5600572D01*
X7750000Y5597560D01*
X7740867Y5600572D01*
X7732781Y5606777D01*
X7716969Y5613327D01*
X7700000Y5615561D01*
X7683032Y5613327D01*
X7667220Y5606777D01*
X7653642Y5596359D01*
X7643223Y5582781D01*
X7636673Y5566969D01*
X7634439Y5550000D01*
X7636673Y5533032D01*
X7643223Y5517220D01*
X7653642Y5503642D01*
X7649428Y5490867D01*
X7643223Y5482781D01*
X7636673Y5466969D01*
X7634439Y5450000D01*
X7636673Y5433032D01*
X7643223Y5417220D01*
X7653642Y5403642D01*
X7667220Y5393223D01*
X7683032Y5386674D01*
X7700000Y5384440D01*
X7716969Y5386674D01*
X7732781Y5393223D01*
X7740867Y5399428D01*
X7750000Y5402441D01*
X7759133Y5399428D01*
X7767219Y5393223D01*
X7783031Y5386674D01*
X7800000Y5384440D01*
X7816968Y5386674D01*
X7832780Y5393223D01*
X7840867Y5399428D01*
X7853642Y5403642D01*
X7867220Y5393223D01*
X7883031Y5386674D01*
X7900000Y5384440D01*
X7916968Y5386674D01*
X7932780Y5393223D01*
X7946358Y5403642D01*
X7959133Y5399428D01*
X7967220Y5393223D01*
X7983032Y5386674D01*
X8000000Y5384440D01*
X8016968Y5386674D01*
X8032780Y5393223D01*
X8040867Y5399428D01*
X8053642Y5403642D01*
X8067220Y5393223D01*
X8083032Y5386673D01*
X8100000Y5384439D01*
X8116969Y5386673D01*
X8132780Y5393223D01*
X8146358Y5403642D01*
X8156777Y5417220D01*
X8163327Y5433032D01*
X8165561Y5450000D01*
X8163327Y5466968D01*
X8156777Y5482780D01*
X8150572Y5490867D01*
X8147560Y5500000D01*
X8150572Y5509133D01*
X8156777Y5517220D01*
X8163327Y5533032D01*
X8165561Y5550000D01*
X8163327Y5566969D01*
X8156777Y5582781D01*
X8146358Y5596358D01*
X8132780Y5606777D01*
X8116969Y5613327D01*
X8100000Y5615561D01*
X8083032Y5613327D01*
X8067220Y5606777D01*
X8059133Y5600572D01*
X8046358Y5596359D01*
X8032780Y5606777D01*
X8016968Y5613327D01*
X8000000Y5615561D01*
D02*
G37*
G36*
X8662000Y4854016D02*
X8620833Y4849961D01*
X8581248Y4837953D01*
X8544766Y4818453D01*
X8512789Y4792211D01*
X8486547Y4760234D01*
X8467047Y4723752D01*
X8455039Y4684167D01*
X8450984Y4643000D01*
X8455039Y4601833D01*
X8467047Y4562248D01*
X8486547Y4525766D01*
X8512789Y4493789D01*
X8544766Y4467547D01*
X8581248Y4448047D01*
X8620833Y4436039D01*
X8662000Y4431984D01*
X8703167Y4436039D01*
X8742752Y4448047D01*
X8779234Y4467547D01*
X8811211Y4493789D01*
X8837453Y4525766D01*
X8856953Y4562248D01*
X8868961Y4601833D01*
X8873016Y4643000D01*
X8868961Y4684167D01*
X8856953Y4723752D01*
X8837453Y4760234D01*
X8811211Y4792211D01*
X8779234Y4818453D01*
X8742752Y4837953D01*
X8703167Y4849961D01*
X8662000Y4854016D01*
D02*
G37*
G36*
X7900000D02*
X7858833Y4849961D01*
X7819248Y4837953D01*
X7782766Y4818453D01*
X7750789Y4792211D01*
X7724547Y4760234D01*
X7705047Y4723752D01*
X7693039Y4684167D01*
X7688984Y4643000D01*
X7693039Y4601833D01*
X7705047Y4562248D01*
X7724547Y4525766D01*
X7750789Y4493789D01*
X7782766Y4467547D01*
X7819248Y4448047D01*
X7858833Y4436039D01*
X7900000Y4431984D01*
X7941167Y4436039D01*
X7980752Y4448047D01*
X8017234Y4467547D01*
X8049211Y4493789D01*
X8075453Y4525766D01*
X8094953Y4562248D01*
X8106961Y4601833D01*
X8111016Y4643000D01*
X8106961Y4684167D01*
X8094953Y4723752D01*
X8075453Y4760234D01*
X8049211Y4792211D01*
X8017234Y4818453D01*
X7980752Y4837953D01*
X7941167Y4849961D01*
X7900000Y4854016D01*
D02*
G37*
G36*
X8662000Y4081968D02*
X8622793Y4078106D01*
X8585093Y4066670D01*
X8550348Y4048099D01*
X8535430Y4035855D01*
X8662000Y3909285D01*
X8788570Y4035855D01*
X8773651Y4048099D01*
X8738907Y4066670D01*
X8701207Y4078106D01*
X8662000Y4081968D01*
D02*
G37*
G36*
X7900000D02*
X7860793Y4078106D01*
X7823093Y4066670D01*
X7788348Y4048099D01*
X7773430Y4035855D01*
X7900000Y3909285D01*
X8026570Y4035855D01*
X8011651Y4048099D01*
X7976907Y4066670D01*
X7939207Y4078106D01*
X7900000Y4081968D01*
D02*
G37*
G36*
X8816855Y4007571D02*
X8690285Y3881000D01*
X8816855Y3754430D01*
X8829098Y3769349D01*
X8847670Y3804093D01*
X8859106Y3841793D01*
X8862968Y3881000D01*
X8859106Y3920207D01*
X8847670Y3957907D01*
X8829098Y3992652D01*
X8816855Y4007571D01*
D02*
G37*
G36*
X8054855D02*
X7928285Y3881000D01*
X8054855Y3754430D01*
X8067098Y3769349D01*
X8085670Y3804093D01*
X8097106Y3841793D01*
X8100968Y3881000D01*
X8097106Y3920207D01*
X8085670Y3957907D01*
X8067098Y3992652D01*
X8054855Y4007571D01*
D02*
G37*
G36*
X8507145D02*
X8494901Y3992652D01*
X8476330Y3957907D01*
X8464894Y3920207D01*
X8461032Y3881000D01*
X8464894Y3841793D01*
X8476330Y3804093D01*
X8494901Y3769349D01*
X8507145Y3754430D01*
X8633716Y3881000D01*
X8507145Y4007571D01*
D02*
G37*
G36*
X7745145D02*
X7732901Y3992652D01*
X7714330Y3957907D01*
X7702894Y3920207D01*
X7699032Y3881000D01*
X7702894Y3841793D01*
X7714330Y3804093D01*
X7732901Y3769349D01*
X7745145Y3754430D01*
X7871716Y3881000D01*
X7745145Y4007571D01*
D02*
G37*
G36*
X8662000Y3852716D02*
X8535429Y3726145D01*
X8550348Y3713902D01*
X8585093Y3695330D01*
X8622793Y3683894D01*
X8662000Y3680033D01*
X8701207Y3683894D01*
X8738907Y3695330D01*
X8773651Y3713902D01*
X8788571Y3726145D01*
X8662000Y3852716D01*
D02*
G37*
G36*
X7900000D02*
X7773429Y3726145D01*
X7788348Y3713902D01*
X7823093Y3695330D01*
X7860793Y3683894D01*
X7900000Y3680033D01*
X7939207Y3683894D01*
X7976907Y3695330D01*
X8011651Y3713902D01*
X8026571Y3726145D01*
X7900000Y3852716D01*
D02*
G37*
%LPD*%
D12*
X5800000Y6475000D02*
X6428805Y5718758D01*
D13*
X6550000Y300000D02*
Y400000D01*
X5950000Y1000000D02*
X6550000Y400000D01*
X5850000Y2750000D02*
X5950000Y2650000D01*
Y1000000D02*
Y2650000D01*
D14*
X4160001Y3800000D02*
X4670002D01*
X4730000Y3680000D02*
Y3740002D01*
X4670002Y3800000D02*
X4730000Y3740002D01*
X4050001Y3910000D02*
X4160001Y3800000D01*
D15*
X1961987Y6689733D02*
Y6837414D01*
X2057286Y6932713D01*
X2720000Y1940000D02*
X2847500D01*
D17*
X200000Y5600000D02*
D03*
Y4900000D02*
D03*
Y3500000D02*
D03*
Y2800000D02*
D03*
Y4200000D02*
D03*
D18*
X6225000Y4675000D02*
D03*
X7100000Y3125000D02*
D03*
Y2100000D02*
D03*
X6225001Y3650000D02*
D03*
X7100001Y4150000D02*
D03*
X6225000Y1600000D02*
D03*
Y2625000D02*
D03*
D19*
Y4175000D02*
D03*
X7100000Y2625000D02*
D03*
Y1600000D02*
D03*
X6225001Y3150000D02*
D03*
X7100001Y3650000D02*
D03*
X6225000Y1100000D02*
D03*
Y2125000D02*
D03*
D20*
X360001Y1390000D02*
D03*
X1200001D02*
D03*
D21*
X860001Y1490000D02*
D03*
X780001Y1310000D02*
D03*
X700001Y1490000D02*
D03*
X620001Y1310000D02*
D03*
X940001D02*
D03*
D22*
X1396001Y678100D02*
D03*
Y474900D02*
D03*
X1904001Y576500D02*
D03*
D23*
X3125000Y6685000D02*
D03*
X3025000D02*
D03*
Y6535000D02*
D03*
X3125000D02*
D03*
X3075000Y6610000D02*
D03*
X2440000Y4605000D02*
D03*
X2540000D02*
D03*
Y4755000D02*
D03*
X2440000D02*
D03*
X2490000Y4680000D02*
D03*
D24*
X8662000Y3119000D02*
D03*
X7900000D02*
D03*
X8662000Y2357000D02*
D03*
X7900000D02*
D03*
Y3881000D02*
D03*
X8662000D02*
D03*
X7900000Y4643000D02*
D03*
X8662000D02*
D03*
D25*
X9014000Y1595000D02*
D03*
Y5405000D02*
D03*
D26*
X8050000Y6475000D02*
D03*
X5800000D02*
D03*
D27*
X1961987Y6689733D02*
D03*
X2153810Y6845389D02*
D03*
X1753440Y6823258D02*
D03*
X1818145Y7064740D02*
D03*
X2065515Y7076103D02*
D03*
X7522000Y270000D02*
D03*
X6760000Y778000D02*
D03*
X7522000D02*
D03*
X6760000Y270000D02*
D03*
Y524000D02*
D03*
X7522000D02*
D03*
X3911987Y6689733D02*
D03*
X4103810Y6845389D02*
D03*
X3703440Y6823258D02*
D03*
X3768145Y7064740D02*
D03*
X4015515Y7076103D02*
D03*
D28*
X6428805Y5718758D02*
D03*
X7170355Y4563162D02*
D03*
D29*
X5173000Y6891000D02*
D03*
X5427000D02*
D03*
Y6129000D02*
D03*
X5173000D02*
D03*
D30*
X500000Y500000D02*
D03*
Y7500000D02*
D03*
X8900000Y6500000D02*
D03*
Y500000D02*
D03*
D31*
X2320000Y620000D02*
D03*
X5610000Y630000D02*
D03*
D32*
X7025000Y5725000D02*
D03*
D33*
X1524997Y5099990D02*
D03*
X1800000Y750000D02*
D03*
X1500000D02*
D03*
X1650000D02*
D03*
X4655830Y5507500D02*
D03*
X5850000Y2500000D02*
D03*
X5750000Y5290000D02*
D03*
X6400000Y350000D02*
D03*
X3780001Y4620824D02*
D03*
X5290000Y6660000D02*
D03*
X1750000Y2510000D02*
D03*
X1750000Y2660000D02*
D03*
X2035001Y3040000D02*
D03*
X1380000Y2780000D02*
D03*
X1380000Y2630000D02*
D03*
X1380000Y2930000D02*
D03*
X1750000D02*
D03*
X2850000Y2450000D02*
D03*
X2842500Y2565000D02*
D03*
X2817292Y2650000D02*
D03*
X2847500Y2090000D02*
D03*
X2852500Y2735000D02*
D03*
X2752500Y2710000D02*
D03*
X3220000Y2390000D02*
D03*
Y2240000D02*
D03*
X3220000Y2090000D02*
D03*
X4240000Y1660000D02*
D03*
X1525000Y400000D02*
D03*
X3010000Y1060000D02*
D03*
X2720000Y7300000D02*
D03*
X3520000Y7200000D02*
D03*
X4310000Y3450000D02*
D03*
X4370000Y2060000D02*
D03*
X4530000Y3040000D02*
D03*
X2360000Y6610000D02*
D03*
X2450000Y6510000D02*
D03*
X1160000Y6150000D02*
D03*
X1530000D02*
D03*
X2450000Y6610000D02*
D03*
X4670000Y4030000D02*
D03*
X4810000Y5050000D02*
D03*
X3710000Y2650000D02*
D03*
X3880000Y2830000D02*
D03*
X4370000Y2330000D02*
D03*
X3660000Y4240000D02*
D03*
X3820000D02*
D03*
X3230000Y1940000D02*
D03*
X2690000Y3980000D02*
D03*
X2730000Y4800000D02*
D03*
X2320000Y4240000D02*
D03*
X1350000Y5110000D02*
D03*
X1830000Y5400000D02*
D03*
Y5210000D02*
D03*
Y5020000D02*
D03*
Y4830000D02*
D03*
X1840000Y4660000D02*
D03*
X1710000Y4130000D02*
D03*
X2249990Y4692500D02*
D03*
X3100000Y4800000D02*
D03*
X2444038Y1334038D02*
D03*
X2540000Y1440000D02*
D03*
X2739989Y1380004D02*
D03*
X2639989Y1287500D02*
D03*
X2789989Y1290005D02*
D03*
X2260000Y1440000D02*
D03*
X2395000D02*
D03*
X4560000Y1020000D02*
D03*
X3740000Y6280000D02*
D03*
Y6090000D02*
D03*
Y5910000D02*
D03*
X3325000Y6610000D02*
D03*
X3010001Y930000D02*
D03*
X1860000Y2830000D02*
D03*
X4740000Y3680000D02*
D03*
X5000000Y2665000D02*
D03*
Y2795000D02*
D03*
X5400000D02*
D03*
Y2665000D02*
D03*
X5200000Y2795000D02*
D03*
Y2730000D02*
D03*
Y2665000D02*
D03*
X1030000Y2790000D02*
D03*
Y2930000D02*
D03*
X2090000D02*
D03*
X1970000Y2830000D02*
D03*
X900000Y2860000D02*
D03*
X1710000Y1800000D02*
D03*
X2120000Y1440000D02*
D03*
X1650000Y400000D02*
D03*
X2930001Y1315000D02*
D03*
X5400000Y2730000D02*
D03*
X5000000D02*
D03*
Y2600000D02*
D03*
X4140000Y5010000D02*
D03*
X4290000Y5000000D02*
D03*
X3990000Y4240000D02*
D03*
X3650000Y4050000D02*
D03*
X3100000Y4480000D02*
D03*
X2580000Y3405000D02*
D03*
X2430000Y3405000D02*
D03*
X900000Y3000000D02*
D03*
X3290001Y2160000D02*
D03*
X3319988Y1910003D02*
D03*
X3300001Y2030000D02*
D03*
X2350000Y980000D02*
D03*
X400000Y5420000D02*
D03*
X200000Y4640000D02*
D03*
Y3940000D02*
D03*
X370001Y2580000D02*
D03*
X200000Y3240000D02*
D03*
X640000Y2650000D02*
D03*
X3490000Y4760000D02*
D03*
Y4560000D02*
D03*
Y4360000D02*
D03*
X2690000Y3190000D02*
D03*
X2369990Y2820001D02*
D03*
X890000Y4270000D02*
D03*
X2860000Y4160000D02*
D03*
X4570001Y4170000D02*
D03*
X4260000Y3930000D02*
D03*
X4420000Y4130000D02*
D03*
X4310001Y3680500D02*
D03*
X2879038Y629038D02*
D03*
X2150001Y1140000D02*
D03*
X3230000Y1610000D02*
D03*
X3140000Y1630000D02*
D03*
X2847500Y1940000D02*
D03*
X3000000Y1380000D02*
D03*
X2860000D02*
D03*
X1760000Y1230000D02*
D03*
X1810000Y1350000D02*
D03*
X1850000Y1440000D02*
D03*
X2550000Y1810000D02*
D03*
X2190000Y1230000D02*
D03*
X1427390Y1861305D02*
D03*
X1509991Y1910003D02*
D03*
X1756021Y2078521D02*
D03*
X2260000Y1840000D02*
D03*
X2964980Y3419520D02*
D03*
X2960000Y2990000D02*
D03*
X3380000Y3780000D02*
D03*
X3070000Y3420000D02*
D03*
X1850000Y1800000D02*
D03*
X5750000Y4150000D02*
D03*
Y4050000D02*
D03*
Y3950000D02*
D03*
X5850000Y4150000D02*
D03*
Y4050000D02*
D03*
Y3950000D02*
D03*
Y4250000D02*
D03*
X5750000D02*
D03*
X4050001Y3910000D02*
D03*
X4530000Y2810000D02*
D03*
X4730000Y3940000D02*
D03*
X3220000Y4250000D02*
D03*
X3875000Y4930000D02*
D03*
X4190001Y5100000D02*
D03*
X3980000Y5260000D02*
D03*
X4055001D02*
D03*
X3710000D02*
D03*
X3560000Y3780000D02*
D03*
X2680000Y2890000D02*
D03*
X2299541Y3025000D02*
D03*
X973500Y5255000D02*
D03*
X180000Y1990000D02*
D03*
Y2140000D02*
D03*
Y2290000D02*
D03*
Y2440000D02*
D03*
X550000Y1980000D02*
D03*
X800000Y2210000D02*
D03*
X900000Y2330000D02*
D03*
X550000Y2157500D02*
D03*
X200000Y5330000D02*
D03*
X3380000Y2890000D02*
D03*
X3100000Y4650000D02*
D03*
X2730000Y4480000D02*
D03*
X1160000Y2380000D02*
D03*
Y2220000D02*
D03*
X960000Y1960000D02*
D03*
X1360000Y2020000D02*
D03*
X1290000Y1920000D02*
D03*
X760001Y1760000D02*
D03*
X940000D02*
D03*
X1590000Y2270000D02*
D03*
X1430000Y2222500D02*
D03*
X1380000Y2480000D02*
D03*
X3670001Y4625000D02*
D03*
X3340001Y940000D02*
D03*
X3220000Y2540000D02*
D03*
X1775000Y400000D02*
D03*
X4425000Y7000000D02*
D03*
X3675000Y4930000D02*
D03*
X3490000Y4660000D02*
D03*
Y4460000D02*
D03*
X4850000Y4250000D02*
D03*
X4950001D02*
D03*
X5050001D02*
D03*
X5150000D02*
D03*
X5250000D02*
D03*
X5350000D02*
D03*
X5450001D02*
D03*
X5550001D02*
D03*
X5650000D02*
D03*
X5200000Y2100000D02*
D03*
X5100000D02*
D03*
X5000000D02*
D03*
Y2000000D02*
D03*
Y1900000D02*
D03*
Y1800000D02*
D03*
X5650000Y3950000D02*
D03*
Y4050000D02*
D03*
Y4150000D02*
D03*
X5550001Y3950000D02*
D03*
Y4050000D02*
D03*
Y4150000D02*
D03*
X5450001Y3950000D02*
D03*
Y4050000D02*
D03*
Y4150000D02*
D03*
X5350000Y3950000D02*
D03*
Y4050000D02*
D03*
Y4150000D02*
D03*
X5250000Y3950000D02*
D03*
Y4050000D02*
D03*
Y4150000D02*
D03*
X5150000Y3950000D02*
D03*
Y4050000D02*
D03*
Y4150000D02*
D03*
X5050001Y3950000D02*
D03*
Y4050000D02*
D03*
Y4150000D02*
D03*
X4950001Y3950000D02*
D03*
Y4050000D02*
D03*
Y4150000D02*
D03*
X4850000Y3950000D02*
D03*
Y4050000D02*
D03*
Y4150000D02*
D03*
X5400000Y2600000D02*
D03*
X5200000D02*
D03*
X5100000Y2000000D02*
D03*
Y1800000D02*
D03*
Y1900000D02*
D03*
X5600000Y1700000D02*
D03*
Y1800000D02*
D03*
Y1900000D02*
D03*
X5500000Y1800000D02*
D03*
Y1900000D02*
D03*
Y2000000D02*
D03*
X5200000Y1800000D02*
D03*
Y1900000D02*
D03*
Y2000000D02*
D03*
X5400000Y1800000D02*
D03*
Y1900000D02*
D03*
Y2000000D02*
D03*
X5300000D02*
D03*
Y1900000D02*
D03*
Y1800000D02*
D03*
D34*
X8100000Y5450000D02*
D03*
Y5550000D02*
D03*
X8050000Y5500000D02*
D03*
X8000000Y5550000D02*
D03*
X7900000D02*
D03*
X7800000D02*
D03*
X7700000D02*
D03*
X7750000Y5500000D02*
D03*
X7850000D02*
D03*
X7950000D02*
D03*
X8000000Y5450000D02*
D03*
X7900000D02*
D03*
X7800000D02*
D03*
X7700000D02*
D03*
X6550000Y300000D02*
D03*
X5850000Y2750000D02*
D03*
X4510000Y5360000D02*
D03*
X2115001Y2520000D02*
D03*
Y2220000D02*
D03*
X2415001D02*
D03*
Y2520000D02*
D03*
X3465000Y6450000D02*
D03*
D35*
X4567973Y5430000D02*
X4597973Y5400000D01*
X4902028D01*
X5302028Y5000000D01*
X4510000Y5430000D02*
X4567973D01*
X5302028Y5000000D02*
X6750000D01*
X7150000Y4550000D02*
Y4600000D01*
X6750000Y5000000D02*
X7150000Y4600000D01*
X4510000Y5360000D02*
Y5430000D01*
X2200000Y7010000D02*
X2202428Y7012428D01*
Y7028358D01*
X4495000Y5430000D02*
X4510000D01*
X2057286Y6932713D02*
X2200000Y7010000D01*
X3880001Y5430000D02*
X4490000D01*
X3820000Y5370000D02*
X3820001D01*
X3880001Y5430000D01*
X3710000Y5260000D02*
X3820000Y5370000D01*
D36*
X7900000Y2357000D02*
X8662000D01*
X7470000Y1927000D02*
X7900000Y2357000D01*
X6350000Y1600000D02*
X6535736D01*
D37*
X2720000Y7230000D02*
X3320000D01*
X2720000Y7278579D02*
Y7300000D01*
X1760000Y7230000D02*
X2720000D01*
X3320000D02*
X3678440Y6871560D01*
X1650000Y7120000D02*
X1760000Y7230000D01*
X2350000Y6950000D02*
X3170001D01*
X3590001Y6530000D02*
X3990000D01*
X3170001Y6950000D02*
X3590001Y6530000D01*
X2264071Y7090000D02*
X3220001D01*
X3640001Y6670000D02*
X3856899D01*
X3220001Y7090000D02*
X3640001Y6670000D01*
X3703440Y6823258D02*
Y6836788D01*
X3678440Y6861788D02*
X3703440Y6836788D01*
X3678440Y6861788D02*
Y6871560D01*
X2163377Y6854956D02*
X2254956D01*
X2350000Y6950000D01*
X2202428Y7028358D02*
X2202428D01*
X2264071Y7090000D01*
X2153810Y6845389D02*
X2163377Y6854956D01*
X1650000Y6926698D02*
Y7120000D01*
Y6926698D02*
X1753440Y6823258D01*
X3867065Y6680166D02*
X3901822D01*
X3856899Y6670000D02*
X3867065Y6680166D01*
X3990000Y6530000D02*
X4103810Y6643810D01*
Y6845389D01*
D38*
X4210000Y3350000D02*
X4310000Y3450000D01*
X4240000Y1660000D02*
Y1661353D01*
X4210000Y1691353D02*
Y3350000D01*
Y1691353D02*
X4240000Y1661353D01*
X4310000Y3450000D02*
X4310001D01*
X4540000Y3680000D01*
X3325000Y6610000D02*
X3325956Y6609044D01*
Y6604044D02*
X3463087Y6466913D01*
Y6451913D02*
Y6466913D01*
X3325956Y6604044D02*
Y6609044D01*
X2410000Y6830000D02*
X3100000D01*
X3319043Y6610957D02*
X3324043D01*
X3100000Y6830000D02*
X3319043Y6610957D01*
X3324043D02*
X3325956Y6609044D01*
X3463087Y6451913D02*
X3465000Y6450000D01*
X1530000Y6150000D02*
X1730000D01*
X2410000Y6830000D01*
X3870000Y4150000D02*
X3990000Y4030000D01*
X4670000D01*
X5200000Y2600000D02*
Y2795000D01*
Y2600000D02*
X5200000Y2600000D01*
X5000000D02*
X5000001Y2790000D01*
X5400000Y2600000D02*
X5400001Y2790000D01*
X3320000Y4150000D02*
X3870000D01*
X3220000Y4250000D02*
X3320000Y4150000D01*
X4540000Y3680000D02*
X4730000D01*
%TF.MD5,bca0696f7b700118a30c525249944824*%
M02*
