%TF.GenerationSoftware,Altium Limited,Altium Designer,22.0.2 (36)*%
G04 Layer_Color=128*
%FSLAX45Y45*%
%MOMM*%
%TF.SameCoordinates,6C3A6253-EFF2-48E9-9C48-1F107FDFC152*%
%TF.FilePolarity,Positive*%
%TF.FileFunction,Paste,Bot*%
%TF.Part,Single*%
G01*
G75*
%TA.AperFunction,SMDPad,CuDef*%
G04:AMPARAMS|DCode=40|XSize=0.3mm|YSize=0.7mm|CornerRadius=0.045mm|HoleSize=0mm|Usage=FLASHONLY|Rotation=0.000|XOffset=0mm|YOffset=0mm|HoleType=Round|Shape=RoundedRectangle|*
%AMROUNDEDRECTD40*
21,1,0.30000,0.61000,0,0,0.0*
21,1,0.21000,0.70000,0,0,0.0*
1,1,0.09000,0.10500,-0.30500*
1,1,0.09000,-0.10500,-0.30500*
1,1,0.09000,-0.10500,0.30500*
1,1,0.09000,0.10500,0.30500*
%
%ADD40ROUNDEDRECTD40*%
%ADD41R,1.60000X1.10000*%
%ADD42R,0.95000X5.30000*%
%ADD43R,1.15000X1.55000*%
%ADD44R,0.40000X0.90000*%
G04:AMPARAMS|DCode=45|XSize=0.4mm|YSize=1.1mm|CornerRadius=0.1mm|HoleSize=0mm|Usage=FLASHONLY|Rotation=270.000|XOffset=0mm|YOffset=0mm|HoleType=Round|Shape=RoundedRectangle|*
%AMROUNDEDRECTD45*
21,1,0.40000,0.90000,0,0,270.0*
21,1,0.20000,1.10000,0,0,270.0*
1,1,0.20000,-0.45000,-0.10000*
1,1,0.20000,-0.45000,0.10000*
1,1,0.20000,0.45000,0.10000*
1,1,0.20000,0.45000,-0.10000*
%
%ADD45ROUNDEDRECTD45*%
%ADD46R,1.40000X1.40000*%
%ADD47R,0.90000X0.69000*%
%ADD48R,0.99000X0.69000*%
%ADD49R,0.95000X0.90000*%
%ADD50R,0.95000X0.90000*%
%ADD51R,1.00000X1.00000*%
%ADD52R,0.91000X1.22000*%
G04:AMPARAMS|DCode=53|XSize=0.6mm|YSize=1.8mm|CornerRadius=0.15mm|HoleSize=0mm|Usage=FLASHONLY|Rotation=0.000|XOffset=0mm|YOffset=0mm|HoleType=Round|Shape=RoundedRectangle|*
%AMROUNDEDRECTD53*
21,1,0.60000,1.50000,0,0,0.0*
21,1,0.30000,1.80000,0,0,0.0*
1,1,0.30000,0.15000,-0.75000*
1,1,0.30000,-0.15000,-0.75000*
1,1,0.30000,-0.15000,0.75000*
1,1,0.30000,0.15000,0.75000*
%
%ADD53ROUNDEDRECTD53*%
%ADD54R,0.60000X1.80000*%
%ADD55R,1.60000X1.70000*%
%ADD56R,1.50000X1.10000*%
G04:AMPARAMS|DCode=58|XSize=0.25mm|YSize=0.9mm|CornerRadius=0.0625mm|HoleSize=0mm|Usage=FLASHONLY|Rotation=270.000|XOffset=0mm|YOffset=0mm|HoleType=Round|Shape=RoundedRectangle|*
%AMROUNDEDRECTD58*
21,1,0.25000,0.77500,0,0,270.0*
21,1,0.12500,0.90000,0,0,270.0*
1,1,0.12500,-0.38750,-0.06250*
1,1,0.12500,-0.38750,0.06250*
1,1,0.12500,0.38750,0.06250*
1,1,0.12500,0.38750,-0.06250*
%
%ADD58ROUNDEDRECTD58*%
G04:AMPARAMS|DCode=59|XSize=0.25mm|YSize=0.9mm|CornerRadius=0.0625mm|HoleSize=0mm|Usage=FLASHONLY|Rotation=180.000|XOffset=0mm|YOffset=0mm|HoleType=Round|Shape=RoundedRectangle|*
%AMROUNDEDRECTD59*
21,1,0.25000,0.77500,0,0,180.0*
21,1,0.12500,0.90000,0,0,180.0*
1,1,0.12500,-0.06250,0.38750*
1,1,0.12500,0.06250,0.38750*
1,1,0.12500,0.06250,-0.38750*
1,1,0.12500,-0.06250,-0.38750*
%
%ADD59ROUNDEDRECTD59*%
%ADD61R,0.30000X0.75000*%
%ADD62R,0.75000X0.30000*%
G04:AMPARAMS|DCode=65|XSize=0.23mm|YSize=0.8mm|CornerRadius=0.046mm|HoleSize=0mm|Usage=FLASHONLY|Rotation=270.000|XOffset=0mm|YOffset=0mm|HoleType=Round|Shape=RoundedRectangle|*
%AMROUNDEDRECTD65*
21,1,0.23000,0.70800,0,0,270.0*
21,1,0.13800,0.80000,0,0,270.0*
1,1,0.09200,-0.35400,-0.06900*
1,1,0.09200,-0.35400,0.06900*
1,1,0.09200,0.35400,0.06900*
1,1,0.09200,0.35400,-0.06900*
%
%ADD65ROUNDEDRECTD65*%
%ADD66R,0.41000X1.02000*%
%ADD67R,2.80000X1.60000*%
%ADD68R,0.30000X0.90000*%
%ADD72R,1.52000X0.61000*%
%ADD73O,1.52000X0.61000*%
G04:AMPARAMS|DCode=74|XSize=0.8mm|YSize=0.4mm|CornerRadius=0.05mm|HoleSize=0mm|Usage=FLASHONLY|Rotation=0.000|XOffset=0mm|YOffset=0mm|HoleType=Round|Shape=RoundedRectangle|*
%AMROUNDEDRECTD74*
21,1,0.80000,0.30000,0,0,0.0*
21,1,0.70000,0.40000,0,0,0.0*
1,1,0.10000,0.35000,-0.15000*
1,1,0.10000,-0.35000,-0.15000*
1,1,0.10000,-0.35000,0.15000*
1,1,0.10000,0.35000,0.15000*
%
%ADD74ROUNDEDRECTD74*%
%ADD75R,1.80000X1.60000*%
%ADD76R,1.10000X1.40000*%
%ADD77R,1.10000X1.00000*%
%ADD78R,1.40000X1.20000*%
%ADD79R,1.30000X0.70000*%
%ADD80R,1.30000X5.40000*%
%ADD81R,1.00000X1.10000*%
%ADD82R,1.40000X1.10000*%
%ADD83R,0.70000X1.30000*%
%ADD84R,5.40000X1.30000*%
%ADD85R,1.60000X1.80000*%
%ADD86R,0.90000X0.40000*%
%TA.AperFunction,OtherPad,Pad U7-2 (31.15mm,65.525mm)*%
G04:AMPARAMS|DCode=164|XSize=1.05mm|YSize=0.68mm|CornerRadius=0.136mm|HoleSize=0mm|Usage=FLASHONLY|Rotation=90.000|XOffset=0mm|YOffset=0mm|HoleType=Round|Shape=RoundedRectangle|*
%AMROUNDEDRECTD164*
21,1,1.05000,0.40800,0,0,90.0*
21,1,0.77800,0.68000,0,0,90.0*
1,1,0.27200,0.20400,0.38900*
1,1,0.27200,0.20400,-0.38900*
1,1,0.27200,-0.20400,-0.38900*
1,1,0.27200,-0.20400,0.38900*
%
%ADD164ROUNDEDRECTD164*%
%TA.AperFunction,OtherPad,Pad U7-2 (31.15mm,66.675mm)*%
G04:AMPARAMS|DCode=165|XSize=1.05mm|YSize=0.68mm|CornerRadius=0.136mm|HoleSize=0mm|Usage=FLASHONLY|Rotation=270.000|XOffset=0mm|YOffset=0mm|HoleType=Round|Shape=RoundedRectangle|*
%AMROUNDEDRECTD165*
21,1,1.05000,0.40800,0,0,270.0*
21,1,0.77800,0.68000,0,0,270.0*
1,1,0.27200,-0.20400,-0.38900*
1,1,0.27200,-0.20400,0.38900*
1,1,0.27200,0.20400,0.38900*
1,1,0.27200,0.20400,-0.38900*
%
%ADD165ROUNDEDRECTD165*%
%TA.AperFunction,OtherPad,Pad U7-2 (30.35mm,66.675mm)*%
G04:AMPARAMS|DCode=166|XSize=1.05mm|YSize=0.68mm|CornerRadius=0.136mm|HoleSize=0mm|Usage=FLASHONLY|Rotation=270.000|XOffset=0mm|YOffset=0mm|HoleType=Round|Shape=RoundedRectangle|*
%AMROUNDEDRECTD166*
21,1,1.05000,0.40800,0,0,270.0*
21,1,0.77800,0.68000,0,0,270.0*
1,1,0.27200,-0.20400,-0.38900*
1,1,0.27200,-0.20400,0.38900*
1,1,0.27200,0.20400,0.38900*
1,1,0.27200,0.20400,-0.38900*
%
%ADD166ROUNDEDRECTD166*%
%TA.AperFunction,OtherPad,Pad U7-2 (30.35mm,65.525mm)*%
G04:AMPARAMS|DCode=167|XSize=1.05mm|YSize=0.68mm|CornerRadius=0.136mm|HoleSize=0mm|Usage=FLASHONLY|Rotation=90.000|XOffset=0mm|YOffset=0mm|HoleType=Round|Shape=RoundedRectangle|*
%AMROUNDEDRECTD167*
21,1,1.05000,0.40800,0,0,90.0*
21,1,0.77800,0.68000,0,0,90.0*
1,1,0.27200,0.20400,0.38900*
1,1,0.27200,0.20400,-0.38900*
1,1,0.27200,-0.20400,-0.38900*
1,1,0.27200,-0.20400,0.38900*
%
%ADD167ROUNDEDRECTD167*%
%TA.AperFunction,OtherPad,Pad U7-3 (31mm,64.55mm)*%
G04:AMPARAMS|DCode=168|XSize=0.5mm|YSize=0.26mm|CornerRadius=0.013mm|HoleSize=0mm|Usage=FLASHONLY|Rotation=90.000|XOffset=0mm|YOffset=0mm|HoleType=Round|Shape=RoundedRectangle|*
%AMROUNDEDRECTD168*
21,1,0.50000,0.23400,0,0,90.0*
21,1,0.47400,0.26000,0,0,90.0*
1,1,0.02600,0.11700,0.23700*
1,1,0.02600,0.11700,-0.23700*
1,1,0.02600,-0.11700,-0.23700*
1,1,0.02600,-0.11700,0.23700*
%
%ADD168ROUNDEDRECTD168*%
%TA.AperFunction,OtherPad,Pad U7-4 (30.5mm,64.55mm)*%
G04:AMPARAMS|DCode=169|XSize=0.5mm|YSize=0.26mm|CornerRadius=0.013mm|HoleSize=0mm|Usage=FLASHONLY|Rotation=90.000|XOffset=0mm|YOffset=0mm|HoleType=Round|Shape=RoundedRectangle|*
%AMROUNDEDRECTD169*
21,1,0.50000,0.23400,0,0,90.0*
21,1,0.47400,0.26000,0,0,90.0*
1,1,0.02600,0.11700,0.23700*
1,1,0.02600,0.11700,-0.23700*
1,1,0.02600,-0.11700,-0.23700*
1,1,0.02600,-0.11700,0.23700*
%
%ADD169ROUNDEDRECTD169*%
%TA.AperFunction,OtherPad,Pad U7-4 (30.5mm,67.65mm)*%
G04:AMPARAMS|DCode=170|XSize=0.5mm|YSize=0.26mm|CornerRadius=0.013mm|HoleSize=0mm|Usage=FLASHONLY|Rotation=270.000|XOffset=0mm|YOffset=0mm|HoleType=Round|Shape=RoundedRectangle|*
%AMROUNDEDRECTD170*
21,1,0.50000,0.23400,0,0,270.0*
21,1,0.47400,0.26000,0,0,270.0*
1,1,0.02600,-0.11700,-0.23700*
1,1,0.02600,-0.11700,0.23700*
1,1,0.02600,0.11700,0.23700*
1,1,0.02600,0.11700,-0.23700*
%
%ADD170ROUNDEDRECTD170*%
%TA.AperFunction,OtherPad,Pad U7-3 (31mm,67.65mm)*%
G04:AMPARAMS|DCode=171|XSize=0.5mm|YSize=0.26mm|CornerRadius=0.013mm|HoleSize=0mm|Usage=FLASHONLY|Rotation=270.000|XOffset=0mm|YOffset=0mm|HoleType=Round|Shape=RoundedRectangle|*
%AMROUNDEDRECTD171*
21,1,0.50000,0.23400,0,0,270.0*
21,1,0.47400,0.26000,0,0,270.0*
1,1,0.02600,-0.11700,-0.23700*
1,1,0.02600,-0.11700,0.23700*
1,1,0.02600,0.11700,0.23700*
1,1,0.02600,0.11700,-0.23700*
%
%ADD171ROUNDEDRECTD171*%
%TA.AperFunction,OtherPad,Pad U9-2 (24.5mm,47.375mm)*%
G04:AMPARAMS|DCode=172|XSize=1.05mm|YSize=0.68mm|CornerRadius=0.136mm|HoleSize=0mm|Usage=FLASHONLY|Rotation=270.000|XOffset=0mm|YOffset=0mm|HoleType=Round|Shape=RoundedRectangle|*
%AMROUNDEDRECTD172*
21,1,1.05000,0.40800,0,0,270.0*
21,1,0.77800,0.68000,0,0,270.0*
1,1,0.27200,-0.20400,-0.38900*
1,1,0.27200,-0.20400,0.38900*
1,1,0.27200,0.20400,0.38900*
1,1,0.27200,0.20400,-0.38900*
%
%ADD172ROUNDEDRECTD172*%
%TA.AperFunction,OtherPad,Pad U9-2 (24.5mm,46.225mm)*%
G04:AMPARAMS|DCode=173|XSize=1.05mm|YSize=0.68mm|CornerRadius=0.136mm|HoleSize=0mm|Usage=FLASHONLY|Rotation=90.000|XOffset=0mm|YOffset=0mm|HoleType=Round|Shape=RoundedRectangle|*
%AMROUNDEDRECTD173*
21,1,1.05000,0.40800,0,0,90.0*
21,1,0.77800,0.68000,0,0,90.0*
1,1,0.27200,0.20400,0.38900*
1,1,0.27200,0.20400,-0.38900*
1,1,0.27200,-0.20400,-0.38900*
1,1,0.27200,-0.20400,0.38900*
%
%ADD173ROUNDEDRECTD173*%
%TA.AperFunction,OtherPad,Pad U9-2 (25.3mm,46.225mm)*%
G04:AMPARAMS|DCode=174|XSize=1.05mm|YSize=0.68mm|CornerRadius=0.136mm|HoleSize=0mm|Usage=FLASHONLY|Rotation=90.000|XOffset=0mm|YOffset=0mm|HoleType=Round|Shape=RoundedRectangle|*
%AMROUNDEDRECTD174*
21,1,1.05000,0.40800,0,0,90.0*
21,1,0.77800,0.68000,0,0,90.0*
1,1,0.27200,0.20400,0.38900*
1,1,0.27200,0.20400,-0.38900*
1,1,0.27200,-0.20400,-0.38900*
1,1,0.27200,-0.20400,0.38900*
%
%ADD174ROUNDEDRECTD174*%
%TA.AperFunction,OtherPad,Pad U9-2 (25.3mm,47.375mm)*%
G04:AMPARAMS|DCode=175|XSize=1.05mm|YSize=0.68mm|CornerRadius=0.136mm|HoleSize=0mm|Usage=FLASHONLY|Rotation=270.000|XOffset=0mm|YOffset=0mm|HoleType=Round|Shape=RoundedRectangle|*
%AMROUNDEDRECTD175*
21,1,1.05000,0.40800,0,0,270.0*
21,1,0.77800,0.68000,0,0,270.0*
1,1,0.27200,-0.20400,-0.38900*
1,1,0.27200,-0.20400,0.38900*
1,1,0.27200,0.20400,0.38900*
1,1,0.27200,0.20400,-0.38900*
%
%ADD175ROUNDEDRECTD175*%
%TA.AperFunction,OtherPad,Pad U9-3 (24.65mm,48.35mm)*%
G04:AMPARAMS|DCode=176|XSize=0.5mm|YSize=0.26mm|CornerRadius=0.013mm|HoleSize=0mm|Usage=FLASHONLY|Rotation=270.000|XOffset=0mm|YOffset=0mm|HoleType=Round|Shape=RoundedRectangle|*
%AMROUNDEDRECTD176*
21,1,0.50000,0.23400,0,0,270.0*
21,1,0.47400,0.26000,0,0,270.0*
1,1,0.02600,-0.11700,-0.23700*
1,1,0.02600,-0.11700,0.23700*
1,1,0.02600,0.11700,0.23700*
1,1,0.02600,0.11700,-0.23700*
%
%ADD176ROUNDEDRECTD176*%
%TA.AperFunction,OtherPad,Pad U9-4 (25.15mm,48.35mm)*%
G04:AMPARAMS|DCode=177|XSize=0.5mm|YSize=0.26mm|CornerRadius=0.013mm|HoleSize=0mm|Usage=FLASHONLY|Rotation=270.000|XOffset=0mm|YOffset=0mm|HoleType=Round|Shape=RoundedRectangle|*
%AMROUNDEDRECTD177*
21,1,0.50000,0.23400,0,0,270.0*
21,1,0.47400,0.26000,0,0,270.0*
1,1,0.02600,-0.11700,-0.23700*
1,1,0.02600,-0.11700,0.23700*
1,1,0.02600,0.11700,0.23700*
1,1,0.02600,0.11700,-0.23700*
%
%ADD177ROUNDEDRECTD177*%
%TA.AperFunction,OtherPad,Pad U9-4 (25.15mm,45.25mm)*%
G04:AMPARAMS|DCode=178|XSize=0.5mm|YSize=0.26mm|CornerRadius=0.013mm|HoleSize=0mm|Usage=FLASHONLY|Rotation=90.000|XOffset=0mm|YOffset=0mm|HoleType=Round|Shape=RoundedRectangle|*
%AMROUNDEDRECTD178*
21,1,0.50000,0.23400,0,0,90.0*
21,1,0.47400,0.26000,0,0,90.0*
1,1,0.02600,0.11700,0.23700*
1,1,0.02600,0.11700,-0.23700*
1,1,0.02600,-0.11700,-0.23700*
1,1,0.02600,-0.11700,0.23700*
%
%ADD178ROUNDEDRECTD178*%
%TA.AperFunction,OtherPad,Pad U9-3 (24.65mm,45.25mm)*%
G04:AMPARAMS|DCode=179|XSize=0.5mm|YSize=0.26mm|CornerRadius=0.013mm|HoleSize=0mm|Usage=FLASHONLY|Rotation=90.000|XOffset=0mm|YOffset=0mm|HoleType=Round|Shape=RoundedRectangle|*
%AMROUNDEDRECTD179*
21,1,0.50000,0.23400,0,0,90.0*
21,1,0.47400,0.26000,0,0,90.0*
1,1,0.02600,0.11700,0.23700*
1,1,0.02600,0.11700,-0.23700*
1,1,0.02600,-0.11700,-0.23700*
1,1,0.02600,-0.11700,0.23700*
%
%ADD179ROUNDEDRECTD179*%
%TA.AperFunction,NonConductor*%
%ADD180R,2.00000X2.00000*%
%TA.AperFunction,SMDPad,CuDef*%
G04:AMPARAMS|DCode=181|XSize=1.4mm|YSize=0.69mm|CornerRadius=0mm|HoleSize=0mm|Usage=FLASHONLY|Rotation=0.000|XOffset=0mm|YOffset=0mm|HoleType=Round|Shape=RoundedRectangle|*
%AMROUNDEDRECTD181*
21,1,1.40000,0.69000,0,0,0.0*
21,1,1.40000,0.69000,0,0,0.0*
1,1,0.00000,0.70000,-0.34500*
1,1,0.00000,-0.70000,-0.34500*
1,1,0.00000,-0.70000,0.34500*
1,1,0.00000,0.70000,0.34500*
%
%ADD181ROUNDEDRECTD181*%
%ADD182R,4.60000X4.60000*%
%ADD183R,5.30000X0.65000*%
%ADD184R,4.20000X0.65000*%
%ADD185R,0.65000X0.95000*%
G36*
X3519529Y7973450D02*
X3566917Y7959824D01*
X3611350Y7938444D01*
X3651570Y7909917D01*
X3686436Y7875051D01*
X3714963Y7834831D01*
X3736343Y7790398D01*
X3749969Y7743010D01*
X3752713Y7718509D01*
X3649721D01*
Y7718543D01*
X3646679Y7732786D01*
X3637373Y7760367D01*
X3623963Y7786202D01*
X3606763Y7809686D01*
X3586179Y7830267D01*
X3562692Y7847462D01*
X3536854Y7860867D01*
X3509272Y7870169D01*
X3495028Y7873209D01*
Y7976194D01*
X3519529Y7973450D01*
D02*
G37*
G36*
X3430028Y7873202D02*
X3429994D01*
X3415750Y7870160D01*
X3388170Y7860854D01*
X3362334Y7847444D01*
X3338850Y7830244D01*
X3318269Y7809660D01*
X3301074Y7786173D01*
X3287669Y7760335D01*
X3278368Y7732753D01*
X3275328Y7718509D01*
X3172342D01*
X3175086Y7743010D01*
X3188713Y7790398D01*
X3210092Y7834831D01*
X3238619Y7875051D01*
X3273486Y7909917D01*
X3313705Y7938444D01*
X3358138Y7959824D01*
X3405526Y7973450D01*
X3430027Y7976194D01*
X3430028Y7873202D01*
D02*
G37*
G36*
X1569529Y7973450D02*
X1616917Y7959823D01*
X1661350Y7938444D01*
X1701569Y7909917D01*
X1736436Y7875050D01*
X1764963Y7834831D01*
X1786342Y7790398D01*
X1799969Y7743010D01*
X1802713Y7718509D01*
X1699721D01*
Y7718542D01*
X1696679Y7732786D01*
X1687373Y7760366D01*
X1673962Y7786202D01*
X1656763Y7809686D01*
X1636178Y7830267D01*
X1612691Y7847462D01*
X1586854Y7860867D01*
X1559271Y7870168D01*
X1545028Y7873208D01*
Y7976194D01*
X1569529Y7973450D01*
D02*
G37*
G36*
X1480028Y7873202D02*
X1479993D01*
X1465750Y7870160D01*
X1438169Y7860853D01*
X1412334Y7847443D01*
X1388850Y7830244D01*
X1368269Y7809659D01*
X1351074Y7786172D01*
X1337669Y7760335D01*
X1328367Y7732752D01*
X1325328Y7718509D01*
X1222342D01*
X1225086Y7743010D01*
X1238713Y7790398D01*
X1260092Y7834831D01*
X1288619Y7875050D01*
X1323486Y7909917D01*
X1363705Y7938444D01*
X1408138Y7959823D01*
X1455526Y7973450D01*
X1480027Y7976194D01*
X1480028Y7873202D01*
D02*
G37*
G36*
X3752713Y7653508D02*
X3749969Y7629007D01*
X3736343Y7581619D01*
X3714963Y7537186D01*
X3686436Y7496967D01*
X3651570Y7462100D01*
X3611350Y7433573D01*
X3566917Y7412194D01*
X3519529Y7398567D01*
X3495028Y7395823D01*
Y7498815D01*
X3495062D01*
Y7498815D01*
X3509305Y7501857D01*
X3536886Y7511164D01*
X3562721Y7524574D01*
X3586205Y7541773D01*
X3606786Y7562358D01*
X3623981Y7585845D01*
X3637386Y7611682D01*
X3646688Y7639265D01*
X3649728Y7653509D01*
X3752713D01*
Y7653508D01*
D02*
G37*
G36*
X1802713Y7653508D02*
X1799969Y7629007D01*
X1786342Y7581619D01*
X1764963Y7537186D01*
X1736436Y7496966D01*
X1701569Y7462100D01*
X1661350Y7433573D01*
X1616917Y7412193D01*
X1569529Y7398567D01*
X1545028Y7395823D01*
Y7498815D01*
X1545061D01*
Y7498815D01*
X1559305Y7501857D01*
X1586886Y7511163D01*
X1612721Y7524573D01*
X1636205Y7541773D01*
X1656786Y7562357D01*
X1673981Y7585844D01*
X1687386Y7611682D01*
X1696687Y7639264D01*
X1699727Y7653508D01*
X1802713D01*
Y7653508D01*
D02*
G37*
G36*
X3275334Y7653475D02*
X3275334Y7653475D01*
X3278376Y7639231D01*
X3287683Y7611651D01*
X3301093Y7585815D01*
X3318292Y7562331D01*
X3338877Y7541750D01*
X3362364Y7524555D01*
X3388201Y7511150D01*
X3415784Y7501849D01*
X3430028Y7498809D01*
Y7395823D01*
X3430027Y7395823D01*
X3405526Y7398567D01*
X3358138Y7412194D01*
X3313705Y7433573D01*
X3273486Y7462100D01*
X3238619Y7496967D01*
X3210092Y7537186D01*
X3188713Y7581619D01*
X3175086Y7629007D01*
X3172342Y7653508D01*
X3275334Y7653509D01*
Y7653475D01*
D02*
G37*
G36*
X1325334Y7653475D02*
X1325334Y7653474D01*
X1328376Y7639231D01*
X1337682Y7611650D01*
X1351093Y7585815D01*
X1368292Y7562331D01*
X1388877Y7541750D01*
X1412363Y7524555D01*
X1438201Y7511150D01*
X1465783Y7501848D01*
X1480028Y7498809D01*
Y7395823D01*
X1480027Y7395823D01*
X1455526Y7398567D01*
X1408138Y7412193D01*
X1363705Y7433573D01*
X1323486Y7462100D01*
X1288619Y7496966D01*
X1260092Y7537186D01*
X1238713Y7581619D01*
X1225086Y7629007D01*
X1222342Y7653508D01*
X1325334Y7653508D01*
Y7653475D01*
D02*
G37*
G36*
X4418969Y6415574D02*
X4466357Y6401948D01*
X4510790Y6380568D01*
X4551009Y6352041D01*
X4585876Y6317175D01*
X4614403Y6276956D01*
X4635782Y6232523D01*
X4649409Y6185134D01*
X4652153Y6160633D01*
X4549161D01*
Y6160667D01*
X4546119Y6174910D01*
X4536812Y6202491D01*
X4523402Y6228326D01*
X4506203Y6251810D01*
X4485618Y6272391D01*
X4462131Y6289586D01*
X4436294Y6302991D01*
X4408711Y6312293D01*
X4394467Y6315333D01*
Y6418319D01*
X4418969Y6415574D01*
D02*
G37*
G36*
X4329467Y6315327D02*
X4329433D01*
X4315190Y6312285D01*
X4287609Y6302978D01*
X4261774Y6289568D01*
X4238290Y6272368D01*
X4217709Y6251784D01*
X4200514Y6228297D01*
X4187109Y6202459D01*
X4177807Y6174877D01*
X4174768Y6160633D01*
X4071782D01*
X4074526Y6185134D01*
X4088152Y6232523D01*
X4109532Y6276956D01*
X4138059Y6317175D01*
X4172925Y6352041D01*
X4213144Y6380568D01*
X4257577Y6401948D01*
X4304966Y6415574D01*
X4329467Y6418319D01*
X4329467Y6315327D01*
D02*
G37*
G36*
X2468968Y6415574D02*
X2516357Y6401948D01*
X2560790Y6380568D01*
X2601009Y6352041D01*
X2635876Y6317175D01*
X2664402Y6276956D01*
X2685782Y6232523D01*
X2699409Y6185134D01*
X2702153Y6160633D01*
X2599161D01*
Y6160667D01*
X2596119Y6174910D01*
X2586812Y6202491D01*
X2573402Y6228326D01*
X2556203Y6251810D01*
X2535618Y6272391D01*
X2512131Y6289586D01*
X2486293Y6302991D01*
X2458711Y6312293D01*
X2444467Y6315333D01*
Y6418319D01*
X2468968Y6415574D01*
D02*
G37*
G36*
X2379467Y6315327D02*
X2379433D01*
X2365190Y6312285D01*
X2337609Y6302978D01*
X2311774Y6289568D01*
X2288290Y6272368D01*
X2267709Y6251784D01*
X2250514Y6228297D01*
X2237109Y6202459D01*
X2227807Y6174877D01*
X2224767Y6160633D01*
X2121781D01*
X2124526Y6185134D01*
X2138152Y6232523D01*
X2159532Y6276956D01*
X2188059Y6317175D01*
X2222925Y6352041D01*
X2263144Y6380568D01*
X2307577Y6401948D01*
X2354966Y6415574D01*
X2379467Y6418319D01*
X2379467Y6315327D01*
D02*
G37*
G36*
X3230000Y6100000D02*
X3225000Y6145000D01*
X3220000Y6165000D01*
X3205000Y6195000D01*
X3195000Y6210000D01*
X3170000Y6235000D01*
X3150000Y6250000D01*
X3125000Y6265000D01*
Y6365000D01*
X3230000D01*
Y6100000D01*
D02*
G37*
G36*
X2975000Y6265000D02*
X2950000Y6250000D01*
X2930000Y6235000D01*
X2915000Y6220000D01*
X2900000Y6200000D01*
X2885000Y6170000D01*
X2880000Y6160000D01*
X2875000Y6140000D01*
X2870000Y6100000D01*
Y6365000D01*
X2975000D01*
Y6265000D01*
D02*
G37*
G36*
X4652153Y6095633D02*
X4649409Y6071132D01*
X4635782Y6023743D01*
X4614403Y5979310D01*
X4585876Y5939091D01*
X4551009Y5904224D01*
X4510790Y5875698D01*
X4466357Y5854318D01*
X4418969Y5840691D01*
X4394467Y5837947D01*
Y5940939D01*
X4394501D01*
Y5940939D01*
X4408745Y5943981D01*
X4436325Y5953288D01*
X4462161Y5966698D01*
X4485645Y5983897D01*
X4506225Y6004482D01*
X4523420Y6027969D01*
X4536826Y6053807D01*
X4546127Y6081389D01*
X4549167Y6095633D01*
X4652153D01*
Y6095633D01*
D02*
G37*
G36*
X2702153D02*
X2699409Y6071132D01*
X2685782Y6023743D01*
X2664402Y5979310D01*
X2635876Y5939091D01*
X2601009Y5904224D01*
X2560790Y5875698D01*
X2516357Y5854318D01*
X2468968Y5840691D01*
X2444467Y5837947D01*
Y5940939D01*
X2444501D01*
Y5940939D01*
X2458745Y5943981D01*
X2486325Y5953288D01*
X2512161Y5966698D01*
X2535644Y5983897D01*
X2556225Y6004482D01*
X2573420Y6027969D01*
X2586826Y6053807D01*
X2596127Y6081389D01*
X2599167Y6095633D01*
X2702153D01*
Y6095633D01*
D02*
G37*
G36*
X4174774Y6095599D02*
X4174773Y6095599D01*
X4177816Y6081355D01*
X4187122Y6053775D01*
X4200532Y6027939D01*
X4217732Y6004456D01*
X4238316Y5983875D01*
X4261803Y5966680D01*
X4287641Y5953274D01*
X4315223Y5943973D01*
X4329467Y5940933D01*
Y5837947D01*
X4329467Y5837947D01*
X4304966Y5840691D01*
X4257577Y5854318D01*
X4213144Y5875698D01*
X4172925Y5904224D01*
X4138059Y5939091D01*
X4109532Y5979310D01*
X4088152Y6023743D01*
X4074526Y6071132D01*
X4071782Y6095633D01*
X4174774Y6095633D01*
Y6095599D01*
D02*
G37*
G36*
X2224774D02*
X2224773Y6095599D01*
X2227815Y6081355D01*
X2237122Y6053775D01*
X2250532Y6027939D01*
X2267732Y6004456D01*
X2288316Y5983875D01*
X2311803Y5966680D01*
X2337641Y5953274D01*
X2365223Y5943973D01*
X2379467Y5940933D01*
Y5837947D01*
X2379467Y5837947D01*
X2354966Y5840691D01*
X2307577Y5854318D01*
X2263144Y5875698D01*
X2222925Y5904224D01*
X2188059Y5939091D01*
X2159532Y5979310D01*
X2138152Y6023743D01*
X2124526Y6071132D01*
X2121781Y6095633D01*
X2224774Y6095633D01*
Y6095599D01*
D02*
G37*
G36*
X3230000Y5835000D02*
X3125000D01*
Y5935000D01*
X3145000Y5945000D01*
X3160000Y5955000D01*
X3195000Y5990000D01*
X3210000Y6015000D01*
X3215000Y6025000D01*
X3225000Y6055000D01*
X3230000Y6100000D01*
Y5835000D01*
D02*
G37*
G36*
X2875000Y6055000D02*
X2880000Y6035000D01*
X2895000Y6005000D01*
X2910000Y5985000D01*
X2940000Y5955000D01*
X2965000Y5940000D01*
X2975000Y5935000D01*
Y5835000D01*
X2870000D01*
Y6100000D01*
X2875000Y6055000D01*
D02*
G37*
G36*
X5357001Y5887442D02*
X5404390Y5873815D01*
X5448823Y5852435D01*
X5489042Y5823909D01*
X5523909Y5789042D01*
X5552435Y5748823D01*
X5573815Y5704390D01*
X5587442Y5657001D01*
X5590186Y5632500D01*
X5487194D01*
Y5632534D01*
X5484152Y5646778D01*
X5474845Y5674358D01*
X5461435Y5700194D01*
X5444236Y5723677D01*
X5423651Y5744258D01*
X5400164Y5761453D01*
X5374327Y5774859D01*
X5346744Y5784160D01*
X5332500Y5787200D01*
Y5890186D01*
X5357001Y5887442D01*
D02*
G37*
G36*
X5267500Y5787194D02*
X5267466D01*
X5253223Y5784152D01*
X5225642Y5774845D01*
X5199807Y5761435D01*
X5176323Y5744236D01*
X5155742Y5723651D01*
X5138547Y5700164D01*
X5125142Y5674326D01*
X5115840Y5646744D01*
X5112801Y5632500D01*
X5009814D01*
X5012559Y5657001D01*
X5026185Y5704390D01*
X5047565Y5748823D01*
X5076092Y5789042D01*
X5110958Y5823909D01*
X5151177Y5852435D01*
X5195610Y5873815D01*
X5242999Y5887442D01*
X5267500Y5890186D01*
X5267500Y5787194D01*
D02*
G37*
G36*
X5590186Y5567500D02*
X5587442Y5542999D01*
X5573815Y5495610D01*
X5552435Y5451177D01*
X5523909Y5410958D01*
X5489042Y5376092D01*
X5448823Y5347565D01*
X5404390Y5326185D01*
X5357001Y5312559D01*
X5332500Y5309814D01*
Y5412807D01*
X5332534D01*
Y5412806D01*
X5346778Y5415848D01*
X5374358Y5425155D01*
X5400194Y5438565D01*
X5423677Y5455765D01*
X5444258Y5476349D01*
X5461453Y5499836D01*
X5474859Y5525674D01*
X5484160Y5553256D01*
X5487200Y5567500D01*
X5590186D01*
Y5567500D01*
D02*
G37*
G36*
X5112807Y5567466D02*
X5112806Y5567466D01*
X5115849Y5553223D01*
X5125155Y5525642D01*
X5138565Y5499807D01*
X5155765Y5476323D01*
X5176349Y5455742D01*
X5199836Y5438547D01*
X5225674Y5425142D01*
X5253256Y5415840D01*
X5267500Y5412800D01*
Y5309815D01*
X5267500Y5309814D01*
X5242999Y5312559D01*
X5195610Y5326185D01*
X5151177Y5347565D01*
X5110958Y5376092D01*
X5076092Y5410958D01*
X5047565Y5451177D01*
X5026185Y5495610D01*
X5012559Y5542999D01*
X5009814Y5567500D01*
X5112807Y5567500D01*
Y5567466D01*
D02*
G37*
G36*
X3390001Y5190000D02*
X3385001Y5235000D01*
X3380001Y5255000D01*
X3365001Y5285000D01*
X3350001Y5305000D01*
X3320001Y5335000D01*
X3295001Y5350000D01*
X3285001Y5355000D01*
Y5455000D01*
X3390001D01*
Y5190000D01*
D02*
G37*
G36*
X3135001Y5355000D02*
X3115001Y5345000D01*
X3100001Y5335000D01*
X3065001Y5300000D01*
X3050001Y5275000D01*
X3045001Y5265000D01*
X3035001Y5235000D01*
X3030001Y5190000D01*
Y5455000D01*
X3135001D01*
Y5355000D01*
D02*
G37*
G36*
X2700000Y5190000D02*
X2695000Y5235000D01*
X2690000Y5255000D01*
X2675000Y5285000D01*
X2660001Y5305000D01*
X2630001Y5335000D01*
X2605001Y5350000D01*
X2595001Y5355000D01*
Y5455000D01*
X2700000D01*
Y5190000D01*
D02*
G37*
G36*
X2445000Y5355000D02*
X2425000Y5345000D01*
X2410001Y5335000D01*
X2375001Y5300000D01*
X2360001Y5275000D01*
X2355001Y5265000D01*
X2345001Y5235000D01*
X2340001Y5190000D01*
Y5455000D01*
X2445000D01*
Y5355000D01*
D02*
G37*
G36*
X3390001Y4925000D02*
X3285001D01*
Y5025000D01*
X3310001Y5040000D01*
X3330001Y5055000D01*
X3345001Y5070000D01*
X3360001Y5090000D01*
X3375001Y5120000D01*
X3380001Y5130000D01*
X3385001Y5150000D01*
X3390001Y5190000D01*
Y4925000D01*
D02*
G37*
G36*
X3035001Y5145000D02*
X3040001Y5125000D01*
X3055001Y5095000D01*
X3065001Y5080000D01*
X3090001Y5055000D01*
X3110001Y5040000D01*
X3135001Y5025000D01*
Y4925000D01*
X3030001D01*
Y5190000D01*
X3035001Y5145000D01*
D02*
G37*
G36*
X2700000Y4925000D02*
X2595001D01*
Y5025000D01*
X2620001Y5040000D01*
X2640001Y5055000D01*
X2655001Y5070000D01*
X2670001Y5090000D01*
X2685000Y5120000D01*
X2690000Y5130000D01*
X2695000Y5150000D01*
X2700000Y5190000D01*
Y4925000D01*
D02*
G37*
G36*
X2345001Y5145000D02*
X2350001Y5125000D01*
X2365001Y5095000D01*
X2375001Y5080000D01*
X2400001Y5055000D01*
X2420000Y5040000D01*
X2445000Y5025000D01*
Y4925000D01*
X2340001D01*
Y5190000D01*
X2345001Y5145000D01*
D02*
G37*
G36*
X5357001Y1687441D02*
X5404390Y1673815D01*
X5448823Y1652435D01*
X5489042Y1623908D01*
X5523909Y1589042D01*
X5552435Y1548823D01*
X5573815Y1504390D01*
X5587442Y1457001D01*
X5590186Y1432500D01*
X5487194D01*
Y1432534D01*
X5484152Y1446777D01*
X5474845Y1474358D01*
X5461435Y1500193D01*
X5444236Y1523677D01*
X5423651Y1544258D01*
X5400164Y1561453D01*
X5374327Y1574858D01*
X5346744Y1584160D01*
X5332500Y1587200D01*
Y1690186D01*
X5357001Y1687441D01*
D02*
G37*
G36*
X5267500Y1587194D02*
X5267466D01*
X5253223Y1584152D01*
X5225642Y1574845D01*
X5199807Y1561435D01*
X5176323Y1544235D01*
X5155742Y1523651D01*
X5138547Y1500164D01*
X5125142Y1474326D01*
X5115840Y1446744D01*
X5112801Y1432500D01*
X5009814D01*
X5012559Y1457001D01*
X5026185Y1504390D01*
X5047565Y1548823D01*
X5076092Y1589042D01*
X5110958Y1623908D01*
X5151177Y1652435D01*
X5195610Y1673815D01*
X5242999Y1687441D01*
X5267500Y1690186D01*
X5267500Y1587194D01*
D02*
G37*
G36*
X5590186Y1367500D02*
X5587442Y1342999D01*
X5573815Y1295610D01*
X5552435Y1251177D01*
X5523909Y1210958D01*
X5489042Y1176091D01*
X5448823Y1147565D01*
X5404390Y1126185D01*
X5357001Y1112558D01*
X5332500Y1109814D01*
Y1212806D01*
X5332534D01*
Y1212806D01*
X5346778Y1215848D01*
X5374358Y1225155D01*
X5400194Y1238565D01*
X5423677Y1255764D01*
X5444258Y1276349D01*
X5461453Y1299836D01*
X5474859Y1325673D01*
X5484160Y1353256D01*
X5487200Y1367500D01*
X5590186D01*
Y1367500D01*
D02*
G37*
G36*
X5112807Y1367466D02*
X5112806Y1367466D01*
X5115849Y1353222D01*
X5125155Y1325642D01*
X5138565Y1299806D01*
X5155765Y1276323D01*
X5176349Y1255742D01*
X5199836Y1238547D01*
X5225674Y1225141D01*
X5253256Y1215840D01*
X5267500Y1212800D01*
Y1109814D01*
X5267500Y1109814D01*
X5242999Y1112558D01*
X5195610Y1126185D01*
X5151177Y1147565D01*
X5110958Y1176091D01*
X5076092Y1210958D01*
X5047565Y1251177D01*
X5026185Y1295610D01*
X5012559Y1342999D01*
X5009814Y1367500D01*
X5112807Y1367500D01*
Y1367466D01*
D02*
G37*
D40*
X4378001Y3879500D02*
D03*
X4443001D02*
D03*
X4508001D02*
D03*
X4378001Y3680500D02*
D03*
X4443001D02*
D03*
X4508001D02*
D03*
D41*
X200000Y5435000D02*
D03*
Y5765000D02*
D03*
Y4735000D02*
D03*
Y5065000D02*
D03*
Y3335000D02*
D03*
Y3665000D02*
D03*
Y2635000D02*
D03*
Y2965000D02*
D03*
Y4035000D02*
D03*
Y4365000D02*
D03*
D42*
X3277500Y6100000D02*
D03*
X2822500D02*
D03*
X2292501Y5190000D02*
D03*
X2747500D02*
D03*
X3437501Y5190000D02*
D03*
X2982501D02*
D03*
D43*
X1217500Y6622500D02*
D03*
X1582500D02*
D03*
Y6397500D02*
D03*
X1217500D02*
D03*
D44*
X2920001Y960000D02*
D03*
Y1130000D02*
D03*
X2840001D02*
D03*
Y960000D02*
D03*
D45*
X1890000Y1102500D02*
D03*
Y1167500D02*
D03*
Y1232500D02*
D03*
Y1297500D02*
D03*
X2290000Y1102500D02*
D03*
Y1167500D02*
D03*
Y1232500D02*
D03*
Y1297500D02*
D03*
D46*
X4170000Y3320000D02*
D03*
X4450000D02*
D03*
X4240000Y1780000D02*
D03*
X4520000D02*
D03*
D47*
X3219501Y3870000D02*
D03*
Y4060001D02*
D03*
D48*
X2960501Y3870000D02*
D03*
Y3965000D02*
D03*
Y4060001D02*
D03*
D49*
X4610000Y4865000D02*
D03*
X4810000Y4960000D02*
D03*
D50*
X4610000Y5055000D02*
D03*
D51*
X1295000Y1820000D02*
D03*
X1085000Y1915000D02*
D03*
Y1725000D02*
D03*
D52*
X1796500Y4130000D02*
D03*
X2123500D02*
D03*
X1796500Y4340000D02*
D03*
X2123500D02*
D03*
X3013500Y4260000D02*
D03*
X2686500D02*
D03*
D53*
X1354000Y5400000D02*
D03*
D54*
X1227000D02*
D03*
X1100000D02*
D03*
X973000D02*
D03*
Y5920000D02*
D03*
X1100000D02*
D03*
X1227000D02*
D03*
X1354000D02*
D03*
D55*
X2313000Y7090000D02*
D03*
X2707000D02*
D03*
D56*
X5670000Y2745000D02*
D03*
Y2535000D02*
D03*
X900000Y4605000D02*
D03*
Y4395000D02*
D03*
D58*
X1920000Y2645000D02*
D03*
Y2595000D02*
D03*
Y2545000D02*
D03*
Y2495000D02*
D03*
Y2445000D02*
D03*
Y2395000D02*
D03*
Y2345000D02*
D03*
Y2295000D02*
D03*
Y2245000D02*
D03*
Y2195000D02*
D03*
Y2145000D02*
D03*
Y2095000D02*
D03*
X2610000D02*
D03*
Y2145000D02*
D03*
Y2195000D02*
D03*
Y2245000D02*
D03*
Y2295000D02*
D03*
Y2345000D02*
D03*
Y2395000D02*
D03*
Y2445000D02*
D03*
Y2495000D02*
D03*
Y2545000D02*
D03*
Y2595000D02*
D03*
Y2645000D02*
D03*
D59*
X1990001Y2020000D02*
D03*
X2040000D02*
D03*
X2090000D02*
D03*
X2140001D02*
D03*
X2190000D02*
D03*
X2240001D02*
D03*
X2290001D02*
D03*
X2340000D02*
D03*
X2390001D02*
D03*
X2440000D02*
D03*
X2490000D02*
D03*
X2540001D02*
D03*
Y2720000D02*
D03*
X2490000D02*
D03*
X2440000D02*
D03*
X2390001D02*
D03*
X2340000D02*
D03*
X2290001D02*
D03*
X2240001D02*
D03*
X2190000D02*
D03*
X2140001D02*
D03*
X2090000D02*
D03*
X2040000D02*
D03*
X1990001D02*
D03*
D61*
X875000Y2070000D02*
D03*
X925000D02*
D03*
X975000D02*
D03*
X725000D02*
D03*
X775000D02*
D03*
X825000D02*
D03*
Y2470000D02*
D03*
X775000D02*
D03*
X725000D02*
D03*
X975000D02*
D03*
X925000D02*
D03*
X875000D02*
D03*
D62*
X1050000Y2295000D02*
D03*
Y2345000D02*
D03*
Y2395000D02*
D03*
Y2145000D02*
D03*
Y2195000D02*
D03*
Y2245000D02*
D03*
X650000Y2295000D02*
D03*
Y2345000D02*
D03*
Y2395000D02*
D03*
Y2145000D02*
D03*
Y2195000D02*
D03*
Y2245000D02*
D03*
D65*
X2927500Y6610000D02*
D03*
Y6510000D02*
D03*
Y6560000D02*
D03*
Y6660000D02*
D03*
Y6710000D02*
D03*
X3222500Y6510000D02*
D03*
Y6560000D02*
D03*
Y6660000D02*
D03*
Y6710000D02*
D03*
Y6610000D02*
D03*
X2637500Y4680000D02*
D03*
Y4780000D02*
D03*
Y4730000D02*
D03*
Y4630000D02*
D03*
Y4580000D02*
D03*
X2342500Y4780000D02*
D03*
Y4730000D02*
D03*
Y4630000D02*
D03*
Y4580000D02*
D03*
Y4680000D02*
D03*
D66*
X3137501Y1734999D02*
D03*
X3072501D02*
D03*
X3267501D02*
D03*
X3202501D02*
D03*
X3137501Y1294999D02*
D03*
X3072501D02*
D03*
X3267501D02*
D03*
X3202501D02*
D03*
X2964501Y3540000D02*
D03*
X2899501D02*
D03*
X3094501D02*
D03*
X3029501D02*
D03*
X2964501Y3100000D02*
D03*
X2899501D02*
D03*
X3094501D02*
D03*
X3029501D02*
D03*
D67*
X3780001Y4935000D02*
D03*
D68*
X3605001Y4725000D02*
D03*
X3705001D02*
D03*
X3805001D02*
D03*
X3855001D02*
D03*
X3905001D02*
D03*
X3955001D02*
D03*
Y5145000D02*
D03*
X3905001D02*
D03*
X3855001D02*
D03*
X3805001D02*
D03*
X3705001D02*
D03*
X3605001D02*
D03*
D72*
X4532500Y6536500D02*
D03*
D73*
Y6663500D02*
D03*
X5167500Y6536500D02*
D03*
Y6663500D02*
D03*
D74*
X4090000Y2355000D02*
D03*
Y2420000D02*
D03*
Y2485000D02*
D03*
Y2550000D02*
D03*
Y2615000D02*
D03*
Y2680000D02*
D03*
Y2745000D02*
D03*
X4510000D02*
D03*
Y2680000D02*
D03*
Y2615000D02*
D03*
Y2550000D02*
D03*
Y2485000D02*
D03*
Y2420000D02*
D03*
Y2355000D02*
D03*
D75*
X5800000Y3790000D02*
D03*
Y3490000D02*
D03*
X5340000D02*
D03*
Y3790000D02*
D03*
X5570000Y3490000D02*
D03*
Y3790000D02*
D03*
X4880000D02*
D03*
Y3490000D02*
D03*
X5110000Y3790000D02*
D03*
Y3490000D02*
D03*
D76*
X1932500Y5210000D02*
D03*
X2107500D02*
D03*
X3217501Y4760000D02*
D03*
X3392500D02*
D03*
X3217501Y4360000D02*
D03*
X3392500D02*
D03*
X3222501Y4560000D02*
D03*
X3397500D02*
D03*
X1932500Y5400000D02*
D03*
X2107500D02*
D03*
X3462500Y6280000D02*
D03*
X3637500D02*
D03*
X3462500Y5900000D02*
D03*
X3637500D02*
D03*
X2107500Y4830000D02*
D03*
X1932500D02*
D03*
X2562500Y6540000D02*
D03*
X2737500D02*
D03*
X4937500Y990000D02*
D03*
X4762500D02*
D03*
X3637500Y6090000D02*
D03*
X3462500D02*
D03*
X1932500Y5020000D02*
D03*
X2107500D02*
D03*
D77*
X1475000Y2930000D02*
D03*
X1645000D02*
D03*
X2775001Y2890000D02*
D03*
X2945000D02*
D03*
X2955000Y2090000D02*
D03*
X3125000D02*
D03*
X3285000Y2890000D02*
D03*
X3115000D02*
D03*
X445000Y2140000D02*
D03*
X275000D02*
D03*
Y2290000D02*
D03*
X445000D02*
D03*
X735001Y2640000D02*
D03*
X905000D02*
D03*
X445000Y1990000D02*
D03*
X275000D02*
D03*
X2955000Y2240000D02*
D03*
X3125000D02*
D03*
Y2540000D02*
D03*
X2955000D02*
D03*
X3125000Y2390000D02*
D03*
X2955000D02*
D03*
X2955000Y1940000D02*
D03*
X3125000D02*
D03*
X4535000Y2150000D02*
D03*
X4365000D02*
D03*
X1355000Y5200000D02*
D03*
X1525000D02*
D03*
X3005000Y4480000D02*
D03*
X2835000D02*
D03*
Y4650000D02*
D03*
X3005000D02*
D03*
X3385000Y4050000D02*
D03*
X3555000D02*
D03*
X1645000Y2630000D02*
D03*
X1475000D02*
D03*
X1645001Y2020000D02*
D03*
X1475001D02*
D03*
X4635001Y4700000D02*
D03*
X4465001D02*
D03*
X1935000Y4660000D02*
D03*
X2105000D02*
D03*
X2495000Y4340000D02*
D03*
X2325000D02*
D03*
X4405000Y4030000D02*
D03*
X4575000D02*
D03*
X1255000Y6150000D02*
D03*
X1425000D02*
D03*
X4535000Y2950000D02*
D03*
X4365000D02*
D03*
X2835000Y4800000D02*
D03*
X3005000D02*
D03*
X275000Y2440000D02*
D03*
X445000D02*
D03*
X1645001Y2780000D02*
D03*
X1475001D02*
D03*
X4535000Y3130000D02*
D03*
X4365000D02*
D03*
X5325001Y4560000D02*
D03*
X5495000D02*
D03*
X4965000D02*
D03*
X5135000D02*
D03*
X6315000Y725000D02*
D03*
X6485000D02*
D03*
X1645001Y2480000D02*
D03*
X1475001D02*
D03*
X3555000Y3870000D02*
D03*
X3385000D02*
D03*
X1935000Y4510000D02*
D03*
X2105000D02*
D03*
X4365000Y1970000D02*
D03*
X4535000D02*
D03*
D78*
X2255000Y3310000D02*
D03*
Y3140000D02*
D03*
X2035000Y3310000D02*
D03*
Y3140000D02*
D03*
D79*
X6040000Y1305000D02*
D03*
X5720000D02*
D03*
D80*
Y1660000D02*
D03*
X6040000D02*
D03*
D81*
X5350000Y6535000D02*
D03*
Y6365000D02*
D03*
X3415000Y3060000D02*
D03*
Y3230000D02*
D03*
X3570001Y1229999D02*
D03*
Y1399999D02*
D03*
X3250001Y935000D02*
D03*
Y1105000D02*
D03*
X3415000Y3580000D02*
D03*
Y3410000D02*
D03*
X3570001Y1799999D02*
D03*
Y1629999D02*
D03*
X2450000Y1065000D02*
D03*
Y1235000D02*
D03*
X1850000Y3305000D02*
D03*
Y3135000D02*
D03*
X2430000Y3135000D02*
D03*
Y3305000D02*
D03*
X3100000Y1105000D02*
D03*
Y935000D02*
D03*
X1850000Y1705000D02*
D03*
Y1535000D02*
D03*
X2260000D02*
D03*
Y1705000D02*
D03*
X2410000Y1535000D02*
D03*
Y1705000D02*
D03*
X4140001Y4335000D02*
D03*
Y4505000D02*
D03*
X2780000Y3975000D02*
D03*
Y3805000D02*
D03*
X4650000Y3855000D02*
D03*
Y3685000D02*
D03*
X3565000Y3060000D02*
D03*
Y3230000D02*
D03*
X3720001Y1229999D02*
D03*
Y1399999D02*
D03*
X3265000Y3230000D02*
D03*
Y3060000D02*
D03*
X3420001Y1399999D02*
D03*
Y1229999D02*
D03*
X3565000Y3580000D02*
D03*
Y3410000D02*
D03*
X3720001Y1799999D02*
D03*
Y1629999D02*
D03*
X3265000Y3410000D02*
D03*
Y3580000D02*
D03*
X3420001Y1629999D02*
D03*
Y1799999D02*
D03*
X2580000Y3305000D02*
D03*
Y3135000D02*
D03*
X1700000Y1535000D02*
D03*
Y1705000D02*
D03*
X4140001Y4915000D02*
D03*
Y4745000D02*
D03*
X4290001Y4735000D02*
D03*
Y4905000D02*
D03*
X4640000Y5225000D02*
D03*
Y5395000D02*
D03*
X4670000Y4195000D02*
D03*
Y4365000D02*
D03*
X6300000Y365000D02*
D03*
Y535000D02*
D03*
X2110000Y1535000D02*
D03*
Y1705000D02*
D03*
X2560000Y1535000D02*
D03*
Y1705000D02*
D03*
X3040000Y6915000D02*
D03*
Y7085000D02*
D03*
X4700001Y2885000D02*
D03*
Y2715000D02*
D03*
X5670000Y2915000D02*
D03*
Y3085000D02*
D03*
X4700001Y2215000D02*
D03*
Y2385000D02*
D03*
X3190000Y6915000D02*
D03*
Y7085000D02*
D03*
X4525000Y6985000D02*
D03*
Y6815000D02*
D03*
X3340000Y7085000D02*
D03*
Y6915000D02*
D03*
X3490000Y7085000D02*
D03*
Y6915000D02*
D03*
X400000Y4815000D02*
D03*
Y4985000D02*
D03*
Y3415000D02*
D03*
Y3585000D02*
D03*
Y2715000D02*
D03*
Y2885000D02*
D03*
Y4115000D02*
D03*
Y4285000D02*
D03*
Y5515000D02*
D03*
Y5685000D02*
D03*
X3990001Y4335000D02*
D03*
Y4505000D02*
D03*
X6500000Y940000D02*
D03*
Y1110000D02*
D03*
X3880000Y2735000D02*
D03*
Y2565000D02*
D03*
X4050001Y3805000D02*
D03*
Y3635000D02*
D03*
X4200000Y3635000D02*
D03*
Y3805000D02*
D03*
X5670000Y2325000D02*
D03*
Y2155000D02*
D03*
X4450000Y5045000D02*
D03*
Y4875000D02*
D03*
X4400000Y5395000D02*
D03*
Y5225000D02*
D03*
X3660000Y4505000D02*
D03*
Y4335000D02*
D03*
X4210000Y5395000D02*
D03*
Y5225000D02*
D03*
X3820000Y4505000D02*
D03*
Y4335000D02*
D03*
X5500000Y6535000D02*
D03*
Y6365000D02*
D03*
D82*
X5760000Y5587500D02*
D03*
Y5412500D02*
D03*
X6380000Y1282500D02*
D03*
Y1457500D02*
D03*
D83*
X7555000Y4990000D02*
D03*
Y5310000D02*
D03*
D84*
X7910000D02*
D03*
Y4990000D02*
D03*
D85*
X2410000Y6760000D02*
D03*
X2710000D02*
D03*
X4010001Y5390000D02*
D03*
X3710001D02*
D03*
D86*
X3125001Y2760000D02*
D03*
X2955000D02*
D03*
Y2680000D02*
D03*
X3125001D02*
D03*
D164*
X3115000Y6552500D02*
D03*
D165*
Y6667500D02*
D03*
D166*
X3035000D02*
D03*
D167*
Y6552500D02*
D03*
D168*
X3100000Y6455000D02*
D03*
D169*
X3050000D02*
D03*
D170*
Y6765000D02*
D03*
D171*
X3100000D02*
D03*
D172*
X2450000Y4737500D02*
D03*
D173*
Y4622500D02*
D03*
D174*
X2530000D02*
D03*
D175*
Y4737500D02*
D03*
D176*
X2465000Y4835000D02*
D03*
D177*
X2515000D02*
D03*
D178*
Y4525000D02*
D03*
D179*
X2465000D02*
D03*
D180*
X849995Y2269961D02*
D03*
D181*
X4443001Y3780000D02*
D03*
D182*
X2265001Y2370000D02*
D03*
D183*
X5200001Y2515000D02*
D03*
Y3185000D02*
D03*
D184*
Y2205000D02*
D03*
Y2875000D02*
D03*
D185*
X5505000Y2220000D02*
D03*
X4895001D02*
D03*
X5505000Y2890000D02*
D03*
X4895001D02*
D03*
%TF.MD5,bd1eb75a05a401e4c5c051a2e13fe64d*%
M02*
