%TF.GenerationSoftware,Altium Limited,Altium Designer,22.0.2 (36)*%
G04 Layer_Color=128*
%FSLAX45Y45*%
%MOMM*%
%TF.SameCoordinates,8084254D-3EA1-499E-96B0-688E0DB6412D*%
%TF.FilePolarity,Positive*%
%TF.FileFunction,Paste,Bot*%
%TF.Part,Single*%
G01*
G75*
%TA.AperFunction,SMDPad,CuDef*%
G04:AMPARAMS|DCode=42|XSize=0.3mm|YSize=0.7mm|CornerRadius=0.045mm|HoleSize=0mm|Usage=FLASHONLY|Rotation=0.000|XOffset=0mm|YOffset=0mm|HoleType=Round|Shape=RoundedRectangle|*
%AMROUNDEDRECTD42*
21,1,0.30000,0.61000,0,0,0.0*
21,1,0.21000,0.70000,0,0,0.0*
1,1,0.09000,0.10500,-0.30500*
1,1,0.09000,-0.10500,-0.30500*
1,1,0.09000,-0.10500,0.30500*
1,1,0.09000,0.10500,0.30500*
%
%ADD42ROUNDEDRECTD42*%
G04:AMPARAMS|DCode=43|XSize=1.6mm|YSize=0.89mm|CornerRadius=0.0445mm|HoleSize=0mm|Usage=FLASHONLY|Rotation=0.000|XOffset=0mm|YOffset=0mm|HoleType=Round|Shape=RoundedRectangle|*
%AMROUNDEDRECTD43*
21,1,1.60000,0.80100,0,0,0.0*
21,1,1.51100,0.89000,0,0,0.0*
1,1,0.08900,0.75550,-0.40050*
1,1,0.08900,-0.75550,-0.40050*
1,1,0.08900,-0.75550,0.40050*
1,1,0.08900,0.75550,0.40050*
%
%ADD43ROUNDEDRECTD43*%
%ADD44R,1.60000X1.10000*%
%ADD45R,0.95000X5.30000*%
%ADD46R,1.55000X1.15000*%
%ADD47R,0.40000X0.90000*%
%ADD48R,1.05000X2.20000*%
%ADD49R,1.00000X1.00000*%
G04:AMPARAMS|DCode=50|XSize=0.4mm|YSize=1.1mm|CornerRadius=0.1mm|HoleSize=0mm|Usage=FLASHONLY|Rotation=270.000|XOffset=0mm|YOffset=0mm|HoleType=Round|Shape=RoundedRectangle|*
%AMROUNDEDRECTD50*
21,1,0.40000,0.90000,0,0,270.0*
21,1,0.20000,1.10000,0,0,270.0*
1,1,0.20000,-0.45000,-0.10000*
1,1,0.20000,-0.45000,0.10000*
1,1,0.20000,0.45000,0.10000*
1,1,0.20000,0.45000,-0.10000*
%
%ADD50ROUNDEDRECTD50*%
%ADD51R,1.40000X1.40000*%
%ADD52R,0.90000X0.69000*%
%ADD53R,0.99000X0.69000*%
%ADD54R,0.95000X0.90000*%
%ADD55R,0.95000X0.90000*%
%ADD56R,0.91000X1.22000*%
%ADD57R,0.60000X1.80000*%
G04:AMPARAMS|DCode=58|XSize=0.6mm|YSize=1.8mm|CornerRadius=0.15mm|HoleSize=0mm|Usage=FLASHONLY|Rotation=0.000|XOffset=0mm|YOffset=0mm|HoleType=Round|Shape=RoundedRectangle|*
%AMROUNDEDRECTD58*
21,1,0.60000,1.50000,0,0,0.0*
21,1,0.30000,1.80000,0,0,0.0*
1,1,0.30000,0.15000,-0.75000*
1,1,0.30000,-0.15000,-0.75000*
1,1,0.30000,-0.15000,0.75000*
1,1,0.30000,0.15000,0.75000*
%
%ADD58ROUNDEDRECTD58*%
%ADD59R,1.50000X1.10000*%
G04:AMPARAMS|DCode=60|XSize=0.25mm|YSize=0.9mm|CornerRadius=0.0625mm|HoleSize=0mm|Usage=FLASHONLY|Rotation=180.000|XOffset=0mm|YOffset=0mm|HoleType=Round|Shape=RoundedRectangle|*
%AMROUNDEDRECTD60*
21,1,0.25000,0.77500,0,0,180.0*
21,1,0.12500,0.90000,0,0,180.0*
1,1,0.12500,-0.06250,0.38750*
1,1,0.12500,0.06250,0.38750*
1,1,0.12500,0.06250,-0.38750*
1,1,0.12500,-0.06250,-0.38750*
%
%ADD60ROUNDEDRECTD60*%
G04:AMPARAMS|DCode=61|XSize=0.25mm|YSize=0.9mm|CornerRadius=0.0625mm|HoleSize=0mm|Usage=FLASHONLY|Rotation=270.000|XOffset=0mm|YOffset=0mm|HoleType=Round|Shape=RoundedRectangle|*
%AMROUNDEDRECTD61*
21,1,0.25000,0.77500,0,0,270.0*
21,1,0.12500,0.90000,0,0,270.0*
1,1,0.12500,-0.38750,-0.06250*
1,1,0.12500,-0.38750,0.06250*
1,1,0.12500,0.38750,0.06250*
1,1,0.12500,0.38750,-0.06250*
%
%ADD61ROUNDEDRECTD61*%
%ADD62R,5.60000X5.60000*%
%ADD63R,0.75000X0.30000*%
%ADD64R,0.30000X0.75000*%
G04:AMPARAMS|DCode=66|XSize=0.23mm|YSize=0.8mm|CornerRadius=0.046mm|HoleSize=0mm|Usage=FLASHONLY|Rotation=270.000|XOffset=0mm|YOffset=0mm|HoleType=Round|Shape=RoundedRectangle|*
%AMROUNDEDRECTD66*
21,1,0.23000,0.70800,0,0,270.0*
21,1,0.13800,0.80000,0,0,270.0*
1,1,0.09200,-0.35400,-0.06900*
1,1,0.09200,-0.35400,0.06900*
1,1,0.09200,0.35400,0.06900*
1,1,0.09200,0.35400,-0.06900*
%
%ADD66ROUNDEDRECTD66*%
%ADD69R,0.41000X1.02000*%
%ADD70R,0.30000X0.90000*%
%ADD71R,2.80000X1.60000*%
%ADD72R,0.85000X1.15000*%
%ADD75O,1.52000X0.61000*%
%ADD76R,1.52000X0.61000*%
G04:AMPARAMS|DCode=77|XSize=0.8mm|YSize=0.4mm|CornerRadius=0.05mm|HoleSize=0mm|Usage=FLASHONLY|Rotation=0.000|XOffset=0mm|YOffset=0mm|HoleType=Round|Shape=RoundedRectangle|*
%AMROUNDEDRECTD77*
21,1,0.80000,0.30000,0,0,0.0*
21,1,0.70000,0.40000,0,0,0.0*
1,1,0.10000,0.35000,-0.15000*
1,1,0.10000,-0.35000,-0.15000*
1,1,0.10000,-0.35000,0.15000*
1,1,0.10000,0.35000,0.15000*
%
%ADD77ROUNDEDRECTD77*%
%ADD78R,1.60000X1.80000*%
%ADD79R,1.10000X1.40000*%
%ADD80R,1.00000X1.10000*%
%ADD81R,1.40000X1.20000*%
%ADD82R,1.30000X5.40000*%
%ADD83R,1.30000X0.70000*%
%ADD84R,1.40000X1.10000*%
%ADD85R,1.10000X1.00000*%
%ADD86R,1.80000X1.60000*%
%ADD87R,0.70000X1.30000*%
%ADD88R,5.40000X1.30000*%
%ADD89R,1.10000X1.50000*%
%ADD90R,1.40000X1.40000*%
%ADD91R,0.90000X0.40000*%
%TA.AperFunction,OtherPad,Pad U7-3 (28.5mm,59.45mm)*%
G04:AMPARAMS|DCode=174|XSize=0.5mm|YSize=0.26mm|CornerRadius=0.013mm|HoleSize=0mm|Usage=FLASHONLY|Rotation=90.000|XOffset=0mm|YOffset=0mm|HoleType=Round|Shape=RoundedRectangle|*
%AMROUNDEDRECTD174*
21,1,0.50000,0.23400,0,0,90.0*
21,1,0.47400,0.26000,0,0,90.0*
1,1,0.02600,0.11700,0.23700*
1,1,0.02600,0.11700,-0.23700*
1,1,0.02600,-0.11700,-0.23700*
1,1,0.02600,-0.11700,0.23700*
%
%ADD174ROUNDEDRECTD174*%
%TA.AperFunction,OtherPad,Pad U7-4 (29mm,59.45mm)*%
G04:AMPARAMS|DCode=175|XSize=0.5mm|YSize=0.26mm|CornerRadius=0.013mm|HoleSize=0mm|Usage=FLASHONLY|Rotation=90.000|XOffset=0mm|YOffset=0mm|HoleType=Round|Shape=RoundedRectangle|*
%AMROUNDEDRECTD175*
21,1,0.50000,0.23400,0,0,90.0*
21,1,0.47400,0.26000,0,0,90.0*
1,1,0.02600,0.11700,0.23700*
1,1,0.02600,0.11700,-0.23700*
1,1,0.02600,-0.11700,-0.23700*
1,1,0.02600,-0.11700,0.23700*
%
%ADD175ROUNDEDRECTD175*%
%TA.AperFunction,OtherPad,Pad U7-4 (29mm,62.55mm)*%
G04:AMPARAMS|DCode=176|XSize=0.5mm|YSize=0.26mm|CornerRadius=0.013mm|HoleSize=0mm|Usage=FLASHONLY|Rotation=270.000|XOffset=0mm|YOffset=0mm|HoleType=Round|Shape=RoundedRectangle|*
%AMROUNDEDRECTD176*
21,1,0.50000,0.23400,0,0,270.0*
21,1,0.47400,0.26000,0,0,270.0*
1,1,0.02600,-0.11700,-0.23700*
1,1,0.02600,-0.11700,0.23700*
1,1,0.02600,0.11700,0.23700*
1,1,0.02600,0.11700,-0.23700*
%
%ADD176ROUNDEDRECTD176*%
%TA.AperFunction,OtherPad,Pad U7-3 (28.5mm,62.55mm)*%
G04:AMPARAMS|DCode=177|XSize=0.5mm|YSize=0.26mm|CornerRadius=0.013mm|HoleSize=0mm|Usage=FLASHONLY|Rotation=270.000|XOffset=0mm|YOffset=0mm|HoleType=Round|Shape=RoundedRectangle|*
%AMROUNDEDRECTD177*
21,1,0.50000,0.23400,0,0,270.0*
21,1,0.47400,0.26000,0,0,270.0*
1,1,0.02600,-0.11700,-0.23700*
1,1,0.02600,-0.11700,0.23700*
1,1,0.02600,0.11700,0.23700*
1,1,0.02600,0.11700,-0.23700*
%
%ADD177ROUNDEDRECTD177*%
%TA.AperFunction,OtherPad,Pad U7-2 (29.15mm,61.575mm)*%
G04:AMPARAMS|DCode=178|XSize=1.05mm|YSize=0.68mm|CornerRadius=0.136mm|HoleSize=0mm|Usage=FLASHONLY|Rotation=270.000|XOffset=0mm|YOffset=0mm|HoleType=Round|Shape=RoundedRectangle|*
%AMROUNDEDRECTD178*
21,1,1.05000,0.40800,0,0,270.0*
21,1,0.77800,0.68000,0,0,270.0*
1,1,0.27200,-0.20400,-0.38900*
1,1,0.27200,-0.20400,0.38900*
1,1,0.27200,0.20400,0.38900*
1,1,0.27200,0.20400,-0.38900*
%
%ADD178ROUNDEDRECTD178*%
%TA.AperFunction,OtherPad,Pad U7-2 (29.15mm,60.425mm)*%
G04:AMPARAMS|DCode=179|XSize=1.05mm|YSize=0.68mm|CornerRadius=0.136mm|HoleSize=0mm|Usage=FLASHONLY|Rotation=90.000|XOffset=0mm|YOffset=0mm|HoleType=Round|Shape=RoundedRectangle|*
%AMROUNDEDRECTD179*
21,1,1.05000,0.40800,0,0,90.0*
21,1,0.77800,0.68000,0,0,90.0*
1,1,0.27200,0.20400,0.38900*
1,1,0.27200,0.20400,-0.38900*
1,1,0.27200,-0.20400,-0.38900*
1,1,0.27200,-0.20400,0.38900*
%
%ADD179ROUNDEDRECTD179*%
%TA.AperFunction,OtherPad,Pad U7-2 (28.35mm,60.425mm)*%
G04:AMPARAMS|DCode=180|XSize=1.05mm|YSize=0.68mm|CornerRadius=0.136mm|HoleSize=0mm|Usage=FLASHONLY|Rotation=90.000|XOffset=0mm|YOffset=0mm|HoleType=Round|Shape=RoundedRectangle|*
%AMROUNDEDRECTD180*
21,1,1.05000,0.40800,0,0,90.0*
21,1,0.77800,0.68000,0,0,90.0*
1,1,0.27200,0.20400,0.38900*
1,1,0.27200,0.20400,-0.38900*
1,1,0.27200,-0.20400,-0.38900*
1,1,0.27200,-0.20400,0.38900*
%
%ADD180ROUNDEDRECTD180*%
%TA.AperFunction,OtherPad,Pad U7-2 (28.35mm,61.575mm)*%
G04:AMPARAMS|DCode=181|XSize=1.05mm|YSize=0.68mm|CornerRadius=0.136mm|HoleSize=0mm|Usage=FLASHONLY|Rotation=270.000|XOffset=0mm|YOffset=0mm|HoleType=Round|Shape=RoundedRectangle|*
%AMROUNDEDRECTD181*
21,1,1.05000,0.40800,0,0,270.0*
21,1,0.77800,0.68000,0,0,270.0*
1,1,0.27200,-0.20400,-0.38900*
1,1,0.27200,-0.20400,0.38900*
1,1,0.27200,0.20400,0.38900*
1,1,0.27200,0.20400,-0.38900*
%
%ADD181ROUNDEDRECTD181*%
%TA.AperFunction,OtherPad,Pad U9-3 (24.65mm,45.25mm)*%
G04:AMPARAMS|DCode=182|XSize=0.5mm|YSize=0.26mm|CornerRadius=0.013mm|HoleSize=0mm|Usage=FLASHONLY|Rotation=90.000|XOffset=0mm|YOffset=0mm|HoleType=Round|Shape=RoundedRectangle|*
%AMROUNDEDRECTD182*
21,1,0.50000,0.23400,0,0,90.0*
21,1,0.47400,0.26000,0,0,90.0*
1,1,0.02600,0.11700,0.23700*
1,1,0.02600,0.11700,-0.23700*
1,1,0.02600,-0.11700,-0.23700*
1,1,0.02600,-0.11700,0.23700*
%
%ADD182ROUNDEDRECTD182*%
%TA.AperFunction,OtherPad,Pad U9-4 (25.15mm,45.25mm)*%
G04:AMPARAMS|DCode=183|XSize=0.5mm|YSize=0.26mm|CornerRadius=0.013mm|HoleSize=0mm|Usage=FLASHONLY|Rotation=90.000|XOffset=0mm|YOffset=0mm|HoleType=Round|Shape=RoundedRectangle|*
%AMROUNDEDRECTD183*
21,1,0.50000,0.23400,0,0,90.0*
21,1,0.47400,0.26000,0,0,90.0*
1,1,0.02600,0.11700,0.23700*
1,1,0.02600,0.11700,-0.23700*
1,1,0.02600,-0.11700,-0.23700*
1,1,0.02600,-0.11700,0.23700*
%
%ADD183ROUNDEDRECTD183*%
%TA.AperFunction,OtherPad,Pad U9-4 (25.15mm,48.35mm)*%
G04:AMPARAMS|DCode=184|XSize=0.5mm|YSize=0.26mm|CornerRadius=0.013mm|HoleSize=0mm|Usage=FLASHONLY|Rotation=270.000|XOffset=0mm|YOffset=0mm|HoleType=Round|Shape=RoundedRectangle|*
%AMROUNDEDRECTD184*
21,1,0.50000,0.23400,0,0,270.0*
21,1,0.47400,0.26000,0,0,270.0*
1,1,0.02600,-0.11700,-0.23700*
1,1,0.02600,-0.11700,0.23700*
1,1,0.02600,0.11700,0.23700*
1,1,0.02600,0.11700,-0.23700*
%
%ADD184ROUNDEDRECTD184*%
%TA.AperFunction,OtherPad,Pad U9-3 (24.65mm,48.35mm)*%
G04:AMPARAMS|DCode=185|XSize=0.5mm|YSize=0.26mm|CornerRadius=0.013mm|HoleSize=0mm|Usage=FLASHONLY|Rotation=270.000|XOffset=0mm|YOffset=0mm|HoleType=Round|Shape=RoundedRectangle|*
%AMROUNDEDRECTD185*
21,1,0.50000,0.23400,0,0,270.0*
21,1,0.47400,0.26000,0,0,270.0*
1,1,0.02600,-0.11700,-0.23700*
1,1,0.02600,-0.11700,0.23700*
1,1,0.02600,0.11700,0.23700*
1,1,0.02600,0.11700,-0.23700*
%
%ADD185ROUNDEDRECTD185*%
%TA.AperFunction,OtherPad,Pad U9-2 (25.3mm,47.375mm)*%
G04:AMPARAMS|DCode=186|XSize=1.05mm|YSize=0.68mm|CornerRadius=0.136mm|HoleSize=0mm|Usage=FLASHONLY|Rotation=270.000|XOffset=0mm|YOffset=0mm|HoleType=Round|Shape=RoundedRectangle|*
%AMROUNDEDRECTD186*
21,1,1.05000,0.40800,0,0,270.0*
21,1,0.77800,0.68000,0,0,270.0*
1,1,0.27200,-0.20400,-0.38900*
1,1,0.27200,-0.20400,0.38900*
1,1,0.27200,0.20400,0.38900*
1,1,0.27200,0.20400,-0.38900*
%
%ADD186ROUNDEDRECTD186*%
%TA.AperFunction,OtherPad,Pad U9-2 (25.3mm,46.225mm)*%
G04:AMPARAMS|DCode=187|XSize=1.05mm|YSize=0.68mm|CornerRadius=0.136mm|HoleSize=0mm|Usage=FLASHONLY|Rotation=90.000|XOffset=0mm|YOffset=0mm|HoleType=Round|Shape=RoundedRectangle|*
%AMROUNDEDRECTD187*
21,1,1.05000,0.40800,0,0,90.0*
21,1,0.77800,0.68000,0,0,90.0*
1,1,0.27200,0.20400,0.38900*
1,1,0.27200,0.20400,-0.38900*
1,1,0.27200,-0.20400,-0.38900*
1,1,0.27200,-0.20400,0.38900*
%
%ADD187ROUNDEDRECTD187*%
%TA.AperFunction,OtherPad,Pad U9-2 (24.5mm,46.225mm)*%
G04:AMPARAMS|DCode=188|XSize=1.05mm|YSize=0.68mm|CornerRadius=0.136mm|HoleSize=0mm|Usage=FLASHONLY|Rotation=90.000|XOffset=0mm|YOffset=0mm|HoleType=Round|Shape=RoundedRectangle|*
%AMROUNDEDRECTD188*
21,1,1.05000,0.40800,0,0,90.0*
21,1,0.77800,0.68000,0,0,90.0*
1,1,0.27200,0.20400,0.38900*
1,1,0.27200,0.20400,-0.38900*
1,1,0.27200,-0.20400,-0.38900*
1,1,0.27200,-0.20400,0.38900*
%
%ADD188ROUNDEDRECTD188*%
%TA.AperFunction,OtherPad,Pad U9-2 (24.5mm,47.375mm)*%
G04:AMPARAMS|DCode=189|XSize=1.05mm|YSize=0.68mm|CornerRadius=0.136mm|HoleSize=0mm|Usage=FLASHONLY|Rotation=270.000|XOffset=0mm|YOffset=0mm|HoleType=Round|Shape=RoundedRectangle|*
%AMROUNDEDRECTD189*
21,1,1.05000,0.40800,0,0,270.0*
21,1,0.77800,0.68000,0,0,270.0*
1,1,0.27200,-0.20400,-0.38900*
1,1,0.27200,-0.20400,0.38900*
1,1,0.27200,0.20400,0.38900*
1,1,0.27200,0.20400,-0.38900*
%
%ADD189ROUNDEDRECTD189*%
%TA.AperFunction,NonConductor*%
%ADD190R,2.00000X2.00000*%
%TA.AperFunction,SMDPad,CuDef*%
%ADD191R,0.65000X0.95000*%
%ADD192R,4.20000X0.65000*%
%ADD193R,5.30000X0.65000*%
G36*
X3080000Y6600000D02*
X3075000Y6645000D01*
X3070000Y6665000D01*
X3055000Y6695000D01*
X3040000Y6715000D01*
X3010000Y6745000D01*
X2985000Y6760000D01*
X2975000Y6765000D01*
Y6865000D01*
X3080000D01*
Y6600000D01*
D02*
G37*
G36*
X2825000Y6765000D02*
X2805000Y6755000D01*
X2790000Y6745000D01*
X2755000Y6710000D01*
X2740000Y6685000D01*
X2735000Y6675000D01*
X2725000Y6645000D01*
X2720000Y6600000D01*
Y6865000D01*
X2825000D01*
Y6765000D01*
D02*
G37*
G36*
X3080000Y6335000D02*
X2975000D01*
Y6435000D01*
X3000000Y6450000D01*
X3020000Y6465000D01*
X3035000Y6480000D01*
X3050000Y6500000D01*
X3065000Y6530000D01*
X3070000Y6540000D01*
X3075000Y6560000D01*
X3080000Y6600000D01*
Y6335000D01*
D02*
G37*
G36*
X2725000Y6555000D02*
X2730000Y6535000D01*
X2745000Y6505000D01*
X2755000Y6490000D01*
X2780000Y6465000D01*
X2800000Y6450000D01*
X2825000Y6435000D01*
Y6335000D01*
X2720000D01*
Y6600000D01*
X2725000Y6555000D01*
D02*
G37*
G36*
X5357001Y5887442D02*
X5404390Y5873815D01*
X5448823Y5852435D01*
X5489042Y5823909D01*
X5523909Y5789042D01*
X5552435Y5748823D01*
X5573815Y5704390D01*
X5587442Y5657001D01*
X5590186Y5632500D01*
X5487194D01*
Y5632534D01*
X5484152Y5646778D01*
X5474845Y5674358D01*
X5461435Y5700194D01*
X5444236Y5723677D01*
X5423651Y5744258D01*
X5400164Y5761453D01*
X5374327Y5774859D01*
X5346744Y5784160D01*
X5332500Y5787200D01*
Y5890186D01*
X5357001Y5887442D01*
D02*
G37*
G36*
X5267500Y5787194D02*
X5267466D01*
X5253223Y5784152D01*
X5225642Y5774845D01*
X5199807Y5761435D01*
X5176323Y5744236D01*
X5155742Y5723651D01*
X5138547Y5700164D01*
X5125142Y5674326D01*
X5115840Y5646744D01*
X5112801Y5632500D01*
X5009814D01*
X5012559Y5657001D01*
X5026185Y5704390D01*
X5047565Y5748823D01*
X5076092Y5789042D01*
X5110958Y5823909D01*
X5151177Y5852435D01*
X5195610Y5873815D01*
X5242999Y5887442D01*
X5267500Y5890186D01*
X5267500Y5787194D01*
D02*
G37*
G36*
X5590186Y5567500D02*
X5587442Y5542999D01*
X5573815Y5495610D01*
X5552435Y5451177D01*
X5523909Y5410958D01*
X5489042Y5376092D01*
X5448823Y5347565D01*
X5404390Y5326185D01*
X5357001Y5312559D01*
X5332500Y5309814D01*
Y5412807D01*
X5332534D01*
Y5412806D01*
X5346778Y5415848D01*
X5374358Y5425155D01*
X5400194Y5438565D01*
X5423677Y5455765D01*
X5444258Y5476349D01*
X5461453Y5499836D01*
X5474859Y5525674D01*
X5484160Y5553256D01*
X5487200Y5567500D01*
X5590186D01*
Y5567500D01*
D02*
G37*
G36*
X5112807Y5567466D02*
X5112806Y5567466D01*
X5115849Y5553223D01*
X5125155Y5525642D01*
X5138565Y5499807D01*
X5155765Y5476323D01*
X5176349Y5455742D01*
X5199836Y5438547D01*
X5225674Y5425142D01*
X5253256Y5415840D01*
X5267500Y5412800D01*
Y5309815D01*
X5267500Y5309814D01*
X5242999Y5312559D01*
X5195610Y5326185D01*
X5151177Y5347565D01*
X5110958Y5376092D01*
X5076092Y5410958D01*
X5047565Y5451177D01*
X5026185Y5495610D01*
X5012559Y5542999D01*
X5009814Y5567500D01*
X5112807Y5567500D01*
Y5567466D01*
D02*
G37*
G36*
X3390001Y5190000D02*
X3385001Y5235000D01*
X3380001Y5255000D01*
X3365001Y5285000D01*
X3350001Y5305000D01*
X3320001Y5335000D01*
X3295001Y5350000D01*
X3285001Y5355000D01*
Y5455000D01*
X3390001D01*
Y5190000D01*
D02*
G37*
G36*
X3135001Y5355000D02*
X3115001Y5345000D01*
X3100001Y5335000D01*
X3065001Y5300000D01*
X3050001Y5275000D01*
X3045001Y5265000D01*
X3035001Y5235000D01*
X3030001Y5190000D01*
Y5455000D01*
X3135001D01*
Y5355000D01*
D02*
G37*
G36*
X2700000Y5190000D02*
X2695000Y5235000D01*
X2690000Y5255000D01*
X2675000Y5285000D01*
X2660001Y5305000D01*
X2630001Y5335000D01*
X2605001Y5350000D01*
X2595001Y5355000D01*
Y5455000D01*
X2700000D01*
Y5190000D01*
D02*
G37*
G36*
X2445000Y5355000D02*
X2425000Y5345000D01*
X2410001Y5335000D01*
X2375001Y5300000D01*
X2360001Y5275000D01*
X2355001Y5265000D01*
X2345001Y5235000D01*
X2340001Y5190000D01*
Y5455000D01*
X2445000D01*
Y5355000D01*
D02*
G37*
G36*
X3390001Y4925000D02*
X3285001D01*
Y5025000D01*
X3310001Y5040000D01*
X3330001Y5055000D01*
X3345001Y5070000D01*
X3360001Y5090000D01*
X3375001Y5120000D01*
X3380001Y5130000D01*
X3385001Y5150000D01*
X3390001Y5190000D01*
Y4925000D01*
D02*
G37*
G36*
X3035001Y5145000D02*
X3040001Y5125000D01*
X3055001Y5095000D01*
X3065001Y5080000D01*
X3090001Y5055000D01*
X3110001Y5040000D01*
X3135001Y5025000D01*
Y4925000D01*
X3030001D01*
Y5190000D01*
X3035001Y5145000D01*
D02*
G37*
G36*
X2700000Y4925000D02*
X2595001D01*
Y5025000D01*
X2620001Y5040000D01*
X2640001Y5055000D01*
X2655001Y5070000D01*
X2670001Y5090000D01*
X2685000Y5120000D01*
X2690000Y5130000D01*
X2695000Y5150000D01*
X2700000Y5190000D01*
Y4925000D01*
D02*
G37*
G36*
X2345001Y5145000D02*
X2350001Y5125000D01*
X2365001Y5095000D01*
X2375001Y5080000D01*
X2400001Y5055000D01*
X2420000Y5040000D01*
X2445000Y5025000D01*
Y4925000D01*
X2340001D01*
Y5190000D01*
X2345001Y5145000D01*
D02*
G37*
G36*
X5357001Y1687441D02*
X5404390Y1673815D01*
X5448823Y1652435D01*
X5489042Y1623908D01*
X5523909Y1589042D01*
X5552435Y1548823D01*
X5573815Y1504390D01*
X5587442Y1457001D01*
X5590186Y1432500D01*
X5487194D01*
Y1432534D01*
X5484152Y1446777D01*
X5474845Y1474358D01*
X5461435Y1500193D01*
X5444236Y1523677D01*
X5423651Y1544258D01*
X5400164Y1561453D01*
X5374327Y1574858D01*
X5346744Y1584160D01*
X5332500Y1587200D01*
Y1690186D01*
X5357001Y1687441D01*
D02*
G37*
G36*
X5267500Y1587194D02*
X5267466D01*
X5253223Y1584152D01*
X5225642Y1574845D01*
X5199807Y1561435D01*
X5176323Y1544235D01*
X5155742Y1523651D01*
X5138547Y1500164D01*
X5125142Y1474326D01*
X5115840Y1446744D01*
X5112801Y1432500D01*
X5009814D01*
X5012559Y1457001D01*
X5026185Y1504390D01*
X5047565Y1548823D01*
X5076092Y1589042D01*
X5110958Y1623908D01*
X5151177Y1652435D01*
X5195610Y1673815D01*
X5242999Y1687441D01*
X5267500Y1690186D01*
X5267500Y1587194D01*
D02*
G37*
G36*
X5590186Y1367500D02*
X5587442Y1342999D01*
X5573815Y1295610D01*
X5552435Y1251177D01*
X5523909Y1210958D01*
X5489042Y1176091D01*
X5448823Y1147565D01*
X5404390Y1126185D01*
X5357001Y1112558D01*
X5332500Y1109814D01*
Y1212806D01*
X5332534D01*
Y1212806D01*
X5346778Y1215848D01*
X5374358Y1225155D01*
X5400194Y1238565D01*
X5423677Y1255764D01*
X5444258Y1276349D01*
X5461453Y1299836D01*
X5474859Y1325673D01*
X5484160Y1353256D01*
X5487200Y1367500D01*
X5590186D01*
Y1367500D01*
D02*
G37*
G36*
X5112807Y1367466D02*
X5112806Y1367466D01*
X5115849Y1353222D01*
X5125155Y1325642D01*
X5138565Y1299806D01*
X5155765Y1276323D01*
X5176349Y1255742D01*
X5199836Y1238547D01*
X5225674Y1225141D01*
X5253256Y1215840D01*
X5267500Y1212800D01*
Y1109814D01*
X5267500Y1109814D01*
X5242999Y1112558D01*
X5195610Y1126185D01*
X5151177Y1147565D01*
X5110958Y1176091D01*
X5076092Y1210958D01*
X5047565Y1251177D01*
X5026185Y1295610D01*
X5012559Y1342999D01*
X5009814Y1367500D01*
X5112807Y1367500D01*
Y1367466D01*
D02*
G37*
D42*
X4508001Y3680500D02*
D03*
X4443001D02*
D03*
X4378001D02*
D03*
X4508001Y3879500D02*
D03*
X4443001D02*
D03*
X4378001D02*
D03*
D43*
X4443001Y3780000D02*
D03*
D44*
X200000Y5765000D02*
D03*
Y5435000D02*
D03*
Y5065000D02*
D03*
Y4735000D02*
D03*
Y3665000D02*
D03*
Y3335000D02*
D03*
Y2965000D02*
D03*
Y2635000D02*
D03*
Y4365000D02*
D03*
Y4035000D02*
D03*
D45*
X3127500Y6600000D02*
D03*
X2672500D02*
D03*
X2747500Y5190000D02*
D03*
X2292501D02*
D03*
X2982501Y5190000D02*
D03*
X3437501D02*
D03*
D46*
X1112500Y5342500D02*
D03*
Y5707500D02*
D03*
X887500D02*
D03*
Y5342500D02*
D03*
D47*
X2840001Y960000D02*
D03*
Y1130000D02*
D03*
X2920001D02*
D03*
Y960000D02*
D03*
D48*
X1720001Y440000D02*
D03*
X2060000D02*
D03*
X4520000Y1250000D02*
D03*
X4180001D02*
D03*
X1250001Y440000D02*
D03*
X1590000D02*
D03*
D49*
X1890001Y290000D02*
D03*
X1085000Y1725000D02*
D03*
Y1915000D02*
D03*
X1295000Y1820000D02*
D03*
X4350000Y1400000D02*
D03*
X1420000Y290000D02*
D03*
D50*
X2290000Y1297500D02*
D03*
Y1232500D02*
D03*
Y1167500D02*
D03*
Y1102500D02*
D03*
X1890000Y1297500D02*
D03*
Y1232500D02*
D03*
Y1167500D02*
D03*
Y1102500D02*
D03*
D51*
X4520000Y3460000D02*
D03*
X4240000D02*
D03*
D52*
X3219501Y4060001D02*
D03*
Y3870000D02*
D03*
D53*
X2960501Y4060001D02*
D03*
Y3965000D02*
D03*
Y3870000D02*
D03*
D54*
X4650001Y4940000D02*
D03*
X4450000Y4845000D02*
D03*
D55*
Y5035000D02*
D03*
D56*
X2143500Y4060000D02*
D03*
X1816500D02*
D03*
X2143501Y4280000D02*
D03*
X1816501D02*
D03*
X2686500Y4260000D02*
D03*
X3013500D02*
D03*
D57*
X1290500Y4985000D02*
D03*
X1163500D02*
D03*
X1036500D02*
D03*
X909500D02*
D03*
Y4465000D02*
D03*
X1036500D02*
D03*
X1163500D02*
D03*
D58*
X1290500D02*
D03*
D59*
X5670000Y2535000D02*
D03*
Y2745000D02*
D03*
D60*
X1990001Y2720000D02*
D03*
X2040000D02*
D03*
X2090000D02*
D03*
X2140001D02*
D03*
X2190000D02*
D03*
X2240001D02*
D03*
X2290001D02*
D03*
X2340000D02*
D03*
X2390001D02*
D03*
X2440000D02*
D03*
X2490000D02*
D03*
X2540001D02*
D03*
Y2020000D02*
D03*
X2490000D02*
D03*
X2440000D02*
D03*
X2390001D02*
D03*
X2340000D02*
D03*
X2290001D02*
D03*
X2240001D02*
D03*
X2190000D02*
D03*
X2140001D02*
D03*
X2090000D02*
D03*
X2040000D02*
D03*
X1990001D02*
D03*
D61*
X2610000Y2645000D02*
D03*
Y2595000D02*
D03*
Y2545000D02*
D03*
Y2495000D02*
D03*
Y2445000D02*
D03*
Y2395000D02*
D03*
Y2345000D02*
D03*
Y2295000D02*
D03*
Y2245000D02*
D03*
Y2195000D02*
D03*
Y2145000D02*
D03*
Y2095000D02*
D03*
X1920000D02*
D03*
Y2145000D02*
D03*
Y2195000D02*
D03*
Y2245000D02*
D03*
Y2295000D02*
D03*
Y2345000D02*
D03*
Y2395000D02*
D03*
Y2445000D02*
D03*
Y2495000D02*
D03*
Y2545000D02*
D03*
Y2595000D02*
D03*
Y2645000D02*
D03*
D62*
X2265001Y2370000D02*
D03*
D63*
X650000Y2245000D02*
D03*
Y2195000D02*
D03*
Y2145000D02*
D03*
Y2395000D02*
D03*
Y2345000D02*
D03*
Y2295000D02*
D03*
X1050000Y2245000D02*
D03*
Y2195000D02*
D03*
Y2145000D02*
D03*
Y2395000D02*
D03*
Y2345000D02*
D03*
Y2295000D02*
D03*
D64*
X875000Y2470000D02*
D03*
X925000D02*
D03*
X975000D02*
D03*
X725000D02*
D03*
X775000D02*
D03*
X825000D02*
D03*
Y2070000D02*
D03*
X775000D02*
D03*
X725000D02*
D03*
X975000D02*
D03*
X925000D02*
D03*
X875000D02*
D03*
D66*
X2727500Y6100000D02*
D03*
Y6000000D02*
D03*
Y6050000D02*
D03*
Y6150000D02*
D03*
Y6200000D02*
D03*
X3022500Y6000000D02*
D03*
Y6050000D02*
D03*
Y6150000D02*
D03*
Y6200000D02*
D03*
Y6100000D02*
D03*
X2342500Y4680000D02*
D03*
Y4580000D02*
D03*
Y4630000D02*
D03*
Y4730000D02*
D03*
Y4780000D02*
D03*
X2637500Y4580000D02*
D03*
Y4630000D02*
D03*
Y4730000D02*
D03*
Y4780000D02*
D03*
Y4680000D02*
D03*
D69*
X3202501Y1294999D02*
D03*
X3267501D02*
D03*
X3072501D02*
D03*
X3137501D02*
D03*
X3202501Y1734999D02*
D03*
X3267501D02*
D03*
X3072501D02*
D03*
X3137501D02*
D03*
X3029501Y3100000D02*
D03*
X3094501D02*
D03*
X2899501D02*
D03*
X2964501D02*
D03*
X3029501Y3540000D02*
D03*
X3094501D02*
D03*
X2899501D02*
D03*
X2964501D02*
D03*
D70*
X3605001Y5145000D02*
D03*
X3705001D02*
D03*
X3805001D02*
D03*
X3855001D02*
D03*
X3905001D02*
D03*
X3955001D02*
D03*
Y4725000D02*
D03*
X3905001D02*
D03*
X3855001D02*
D03*
X3805001D02*
D03*
X3705001D02*
D03*
X3605001D02*
D03*
D71*
X3780001Y4935000D02*
D03*
D72*
X4895001Y2220000D02*
D03*
Y2890000D02*
D03*
D75*
X4935000Y6627000D02*
D03*
Y6500000D02*
D03*
X4300000Y6627000D02*
D03*
D76*
Y6500000D02*
D03*
D77*
X4510000Y2355000D02*
D03*
Y2420000D02*
D03*
Y2485000D02*
D03*
Y2550000D02*
D03*
Y2615000D02*
D03*
Y2680000D02*
D03*
Y2745000D02*
D03*
X4090000D02*
D03*
Y2680000D02*
D03*
Y2615000D02*
D03*
Y2550000D02*
D03*
Y2485000D02*
D03*
Y2420000D02*
D03*
Y2355000D02*
D03*
D78*
X5000000Y970000D02*
D03*
X5300000D02*
D03*
X3710001Y5390000D02*
D03*
X4010001D02*
D03*
D79*
X3237501Y6200000D02*
D03*
X3412500D02*
D03*
X3392500Y4760000D02*
D03*
X3217501D02*
D03*
X3392500Y4360000D02*
D03*
X3217501D02*
D03*
X3397500Y4560000D02*
D03*
X3222501D02*
D03*
X2832501Y4480000D02*
D03*
X3007500D02*
D03*
X2147500Y5300000D02*
D03*
X1972500D02*
D03*
X2312501Y6700000D02*
D03*
X2487500D02*
D03*
D80*
X2740001Y4050000D02*
D03*
Y3880000D02*
D03*
X2730000Y1705000D02*
D03*
Y1535000D02*
D03*
X3415000Y3230000D02*
D03*
Y3060000D02*
D03*
X3570001Y1399999D02*
D03*
Y1229999D02*
D03*
X3250001Y1105000D02*
D03*
Y935000D02*
D03*
X3415000Y3410000D02*
D03*
Y3580000D02*
D03*
X3570001Y1629999D02*
D03*
Y1799999D02*
D03*
X2450000Y1235000D02*
D03*
Y1065000D02*
D03*
X1870000Y3140001D02*
D03*
Y3310000D02*
D03*
X2420000Y3310000D02*
D03*
Y3140000D02*
D03*
X1850000Y1535000D02*
D03*
Y1705000D02*
D03*
X3880000Y2565000D02*
D03*
Y2735000D02*
D03*
X1290000Y4085000D02*
D03*
Y4255000D02*
D03*
X2260000Y1705000D02*
D03*
Y1535000D02*
D03*
X2410000Y1705000D02*
D03*
Y1535000D02*
D03*
X4140001Y4505000D02*
D03*
Y4335000D02*
D03*
X4650000Y3685000D02*
D03*
Y3855000D02*
D03*
X3100001Y935000D02*
D03*
Y1105000D02*
D03*
X3565000Y3230000D02*
D03*
Y3060000D02*
D03*
X3720001Y1399999D02*
D03*
Y1229999D02*
D03*
X3265000Y3060000D02*
D03*
Y3230000D02*
D03*
X3420001Y1229999D02*
D03*
Y1399999D02*
D03*
X3565000Y3410000D02*
D03*
Y3580000D02*
D03*
X3720001Y1629999D02*
D03*
Y1799999D02*
D03*
X3265000Y3580000D02*
D03*
Y3410000D02*
D03*
X3420001Y1799999D02*
D03*
Y1629999D02*
D03*
X2570000Y3140000D02*
D03*
Y3310000D02*
D03*
X1700000Y1705000D02*
D03*
Y1535000D02*
D03*
X4210000Y5205000D02*
D03*
Y5375000D02*
D03*
X4140001Y4745000D02*
D03*
Y4915000D02*
D03*
X3830000Y4335000D02*
D03*
Y4505000D02*
D03*
X4290001Y4905000D02*
D03*
Y4735000D02*
D03*
X4630000Y5375000D02*
D03*
Y5205000D02*
D03*
X4670000Y4365000D02*
D03*
Y4195000D02*
D03*
X6530000Y525000D02*
D03*
Y355000D02*
D03*
X2110000Y1705000D02*
D03*
Y1535000D02*
D03*
X2560000Y1705000D02*
D03*
Y1535000D02*
D03*
X1470000Y4975000D02*
D03*
Y5145000D02*
D03*
X4700001Y2715000D02*
D03*
Y2885000D02*
D03*
Y3235000D02*
D03*
Y3065000D02*
D03*
X5670000Y3085000D02*
D03*
Y2915000D02*
D03*
X4700001Y2385000D02*
D03*
Y2215000D02*
D03*
X400000Y4985000D02*
D03*
Y4815000D02*
D03*
Y3585000D02*
D03*
Y3415000D02*
D03*
Y2885000D02*
D03*
Y2715000D02*
D03*
Y4285000D02*
D03*
Y4115000D02*
D03*
Y5685000D02*
D03*
Y5515000D02*
D03*
X3990001Y4505000D02*
D03*
Y4335000D02*
D03*
X6530000Y1185000D02*
D03*
Y1015000D02*
D03*
Y855000D02*
D03*
Y685000D02*
D03*
X4050001Y3635000D02*
D03*
Y3805000D02*
D03*
X4200000Y3805000D02*
D03*
Y3635000D02*
D03*
X4700001Y2035000D02*
D03*
Y1865000D02*
D03*
X5670000Y2155000D02*
D03*
Y2325000D02*
D03*
X2880000Y1705000D02*
D03*
Y1535000D02*
D03*
D81*
X2035000Y3140000D02*
D03*
Y3310000D02*
D03*
X2255000Y3140000D02*
D03*
Y3310000D02*
D03*
D82*
X6060000Y1660000D02*
D03*
X5740000D02*
D03*
D83*
Y1305000D02*
D03*
X6060000D02*
D03*
D84*
X3655001Y4337500D02*
D03*
Y4512500D02*
D03*
X6250000Y1487500D02*
D03*
Y1312500D02*
D03*
X4380001Y5202500D02*
D03*
Y5377500D02*
D03*
D85*
X2945000Y2890000D02*
D03*
X2775001D02*
D03*
X3125000Y2090000D02*
D03*
X2955000D02*
D03*
X3115000Y2890000D02*
D03*
X3285000D02*
D03*
X275000Y2140000D02*
D03*
X445000D02*
D03*
Y2290000D02*
D03*
X275000D02*
D03*
X905000Y2640000D02*
D03*
X735001D02*
D03*
X275000Y1990000D02*
D03*
X445000D02*
D03*
X3125000Y2240000D02*
D03*
X2955000D02*
D03*
X3535000Y3870000D02*
D03*
X3365000D02*
D03*
X2955000Y2540000D02*
D03*
X3125000D02*
D03*
X2955000Y2390000D02*
D03*
X3125000D02*
D03*
X4365001Y2150000D02*
D03*
X4535001D02*
D03*
X4365001Y2000000D02*
D03*
X4535001D02*
D03*
X2145001Y5120000D02*
D03*
X1975001D02*
D03*
X3005000Y4650000D02*
D03*
X2835000D02*
D03*
X3535000Y4050000D02*
D03*
X3365000D02*
D03*
X1475000Y2630000D02*
D03*
X1645000D02*
D03*
X1475001Y2020000D02*
D03*
X1645001D02*
D03*
X4465001Y4700000D02*
D03*
X4635001D02*
D03*
X1965000Y4460000D02*
D03*
X2135000D02*
D03*
X2135001Y4620000D02*
D03*
X1965001D02*
D03*
X2135001Y4780000D02*
D03*
X1965001D02*
D03*
X2315001Y4350000D02*
D03*
X2485001D02*
D03*
X3240000Y5975000D02*
D03*
X3410000D02*
D03*
X1645001Y2930000D02*
D03*
X1475001D02*
D03*
X4365000Y2950000D02*
D03*
X4535000D02*
D03*
Y1850000D02*
D03*
X4365000D02*
D03*
X4365001Y3260000D02*
D03*
X4535001D02*
D03*
X3125000Y1940000D02*
D03*
X2955000D02*
D03*
X2315001Y6450000D02*
D03*
X2485001D02*
D03*
X2315000Y5975000D02*
D03*
X2485000D02*
D03*
X4460000Y6850000D02*
D03*
X4290001D02*
D03*
X2485001Y6125000D02*
D03*
X2315001D02*
D03*
X2485001Y6300000D02*
D03*
X2315001D02*
D03*
X445000Y2440000D02*
D03*
X275000D02*
D03*
X1475001Y2780000D02*
D03*
X1645001D02*
D03*
X4535000Y3100000D02*
D03*
X4365000D02*
D03*
X5495000Y4560000D02*
D03*
X5325001D02*
D03*
X5135000D02*
D03*
X4965000D02*
D03*
X4575001Y4040000D02*
D03*
X4405001D02*
D03*
X3005000Y4800000D02*
D03*
X2835000D02*
D03*
X1475001Y2480000D02*
D03*
X1645001D02*
D03*
D86*
X5760000Y5710000D02*
D03*
Y5410000D02*
D03*
X5330001Y3790000D02*
D03*
Y3490000D02*
D03*
X5550000Y3790000D02*
D03*
Y3490000D02*
D03*
X4890000D02*
D03*
Y3790000D02*
D03*
X5110000Y3490000D02*
D03*
Y3790000D02*
D03*
X3425001Y6450000D02*
D03*
Y6750000D02*
D03*
X5770000Y3490000D02*
D03*
Y3790000D02*
D03*
D87*
X7505000Y4990000D02*
D03*
Y5310000D02*
D03*
D88*
X7860000D02*
D03*
Y4990000D02*
D03*
D89*
X1755000Y3630000D02*
D03*
X1965000D02*
D03*
D90*
X4170000Y1860000D02*
D03*
Y1580000D02*
D03*
D91*
X3125001Y2680000D02*
D03*
X2955000D02*
D03*
Y2760000D02*
D03*
X3125001D02*
D03*
D174*
X2850000Y5945000D02*
D03*
D175*
X2900000D02*
D03*
D176*
Y6255000D02*
D03*
D177*
X2850000D02*
D03*
D178*
X2915000Y6157500D02*
D03*
D179*
Y6042500D02*
D03*
D180*
X2835000D02*
D03*
D181*
Y6157500D02*
D03*
D182*
X2465000Y4525000D02*
D03*
D183*
X2515000D02*
D03*
D184*
Y4835000D02*
D03*
D185*
X2465000D02*
D03*
D186*
X2530000Y4737500D02*
D03*
D187*
Y4622500D02*
D03*
D188*
X2450000D02*
D03*
D189*
Y4737500D02*
D03*
D190*
X849995Y2269980D02*
D03*
D191*
X5505000Y2220000D02*
D03*
Y2890000D02*
D03*
D192*
X5200001Y2205000D02*
D03*
Y2875000D02*
D03*
D193*
Y2515000D02*
D03*
Y3185000D02*
D03*
%TF.MD5,e01b3a729eb2471e7a9d71dc187b8282*%
M02*
