%TF.GenerationSoftware,Altium Limited,Altium Designer,22.0.2 (36)*%
G04 Layer_Physical_Order=1*
G04 Layer_Color=255*
%FSLAX45Y45*%
%MOMM*%
%TF.SameCoordinates,8084254D-3EA1-499E-96B0-688E0DB6412D*%
%TF.FilePolarity,Positive*%
%TF.FileFunction,Copper,L1,Top,Signal*%
%TF.Part,Single*%
G01*
G75*
%TA.AperFunction,SMDPad,CuDef*%
%ADD10R,8.00000X8.50000*%
%TA.AperFunction,BGAPad,CuDef*%
%ADD11C,0.80000*%
%TA.AperFunction,SMDPad,CuDef*%
%ADD12R,2.20000X1.05000*%
%ADD13R,1.00000X1.00000*%
%TA.AperFunction,Conductor*%
%ADD14C,0.25000*%
%ADD15C,5.00000*%
%ADD16C,0.30000*%
%ADD17C,0.70000*%
%ADD18C,0.60000*%
%ADD19C,0.23000*%
%ADD20C,0.20000*%
%TA.AperFunction,ComponentPad*%
%ADD21C,1.80000*%
%ADD22C,1.40000*%
%ADD23R,1.40000X1.40000*%
%ADD24C,1.20000*%
%ADD25O,3.00000X4.00000*%
%ADD26O,0.80000X0.40000*%
%ADD27C,0.65000*%
%ADD28C,8.00000*%
%ADD29C,3.60000*%
%ADD30C,2.60000*%
%ADD31C,2.10000*%
%ADD32C,2.99999*%
%ADD33R,1.52000X1.52000*%
%ADD34C,1.52000*%
%ADD35C,1.50000*%
%ADD36C,1.30000*%
%TA.AperFunction,ViaPad*%
%ADD37C,6.00000*%
%TA.AperFunction,WasherPad*%
%ADD38O,0.40000X0.80000*%
%ADD39O,0.80000X0.40000*%
%TA.AperFunction,ViaPad*%
%ADD40C,0.65000*%
G36*
X5030000Y2830000D02*
X5430000D01*
X5440000Y2820000D01*
Y2480000D01*
X4430000Y2480000D01*
X4340667Y2390667D01*
X4338464Y2390377D01*
X4318394Y2382064D01*
X4301161Y2368840D01*
X4287937Y2351606D01*
X4279624Y2331537D01*
X4279334Y2329333D01*
X4220000Y2270000D01*
X4220000Y1802700D01*
X4213482Y1790000D01*
X3450000D01*
X3450000Y2430000D01*
X4130000Y3110000D01*
X4457614Y3110000D01*
X4460057Y3107557D01*
X4474942Y3097611D01*
X4492500Y3094119D01*
X4550000D01*
X4567558Y3097611D01*
X4582443Y3107557D01*
X4584076Y3110000D01*
X4750000Y3110000D01*
X5030000Y2830000D01*
D02*
G37*
G36*
X8535247Y3312300D02*
X8510094Y3304670D01*
X8475349Y3286099D01*
X8460430Y3273855D01*
X8601143Y3133142D01*
X8741856Y2992430D01*
X8754099Y3007349D01*
X8762301Y3022693D01*
X8775001Y3019511D01*
Y2509321D01*
X8763043Y2505042D01*
X8750422Y2520421D01*
X8715400Y2549163D01*
X8675444Y2570520D01*
X8632088Y2583672D01*
X8587001Y2588113D01*
X8541913Y2583672D01*
X8498558Y2570520D01*
X8458601Y2549163D01*
X8423579Y2520421D01*
X8394837Y2485399D01*
X8373480Y2445443D01*
X8360329Y2402088D01*
X8355888Y2357000D01*
X8360329Y2311912D01*
X8373480Y2268557D01*
X8394837Y2228601D01*
X8423579Y2193579D01*
X8458601Y2164837D01*
X8498558Y2143480D01*
X8541913Y2130328D01*
X8587001Y2125888D01*
X8632088Y2130328D01*
X8675444Y2143480D01*
X8715400Y2164837D01*
X8750422Y2193579D01*
X8763043Y2208958D01*
X8775001Y2204679D01*
Y2014549D01*
X8766424Y2011638D01*
X8713518Y1985547D01*
X8664470Y1952775D01*
X8620120Y1913881D01*
X8581226Y1869530D01*
X8548453Y1820483D01*
X8522363Y1767577D01*
X8503402Y1711718D01*
X8491893Y1653863D01*
X8488035Y1595000D01*
X8491893Y1536137D01*
X8503402Y1478282D01*
X8522363Y1422423D01*
X8548453Y1369517D01*
X8581226Y1320470D01*
X8620120Y1276119D01*
X8642971Y1256080D01*
X8643387Y1243386D01*
X8138108Y738107D01*
X8127341Y745302D01*
X8127783Y746369D01*
X8132079Y779000D01*
X8127783Y811632D01*
X8115188Y842039D01*
X8095151Y868151D01*
X8069040Y888187D01*
X8038632Y900783D01*
X8006000Y905079D01*
X7973369Y900783D01*
X7942961Y888187D01*
X7916850Y868151D01*
X7896813Y842039D01*
X7884218Y811632D01*
X7879922Y779000D01*
X7884218Y746369D01*
X7896813Y715961D01*
X7916850Y689849D01*
X7942961Y669813D01*
X7970229Y658518D01*
X7970234Y658498D01*
Y645502D01*
X7970229Y645482D01*
X7942961Y634187D01*
X7916850Y614151D01*
X7896813Y588039D01*
X7884218Y557632D01*
X7879922Y525000D01*
X7884218Y492369D01*
X7886605Y486605D01*
X7425488Y25488D01*
X3450000D01*
Y900000D01*
X5400000D01*
X6103107Y1603107D01*
X6115564Y1600630D01*
X6120181Y1589482D01*
X6139416Y1564415D01*
X6164483Y1545180D01*
X6193674Y1533089D01*
X6225001Y1528965D01*
X6256327Y1533089D01*
X6285518Y1545180D01*
X6310585Y1564415D01*
X6329820Y1589482D01*
X6341912Y1618674D01*
X6346036Y1650000D01*
X6341912Y1681326D01*
X6329820Y1710518D01*
X6310585Y1735585D01*
X6285518Y1754820D01*
X6274371Y1759437D01*
X6271893Y1771893D01*
X7050000Y2550000D01*
X7200000D01*
Y2700000D01*
X7611964Y3111964D01*
X7625192Y3107231D01*
X7627895Y3079793D01*
X7639331Y3042093D01*
X7657902Y3007349D01*
X7670146Y2992429D01*
X7810859Y3133142D01*
X7951571Y3273855D01*
X7936652Y3286099D01*
X7901907Y3304670D01*
X7876754Y3312300D01*
X7878638Y3325000D01*
X8533363D01*
X8535247Y3312300D01*
D02*
G37*
G36*
X9271473Y3176798D02*
X9121280D01*
X9121557Y3176521D01*
X9122668Y3175133D01*
X9124334Y3173467D01*
X9126277Y3170691D01*
X9128775Y3167637D01*
X9131552Y3163750D01*
X9134606Y3159308D01*
X9137659Y3154311D01*
Y3154033D01*
X9137937Y3153756D01*
X9139048Y3152090D01*
X9140436Y3149314D01*
X9142101Y3145982D01*
X9144045Y3142096D01*
X9145988Y3137931D01*
X9147931Y3133767D01*
X9149597Y3129603D01*
X9126832D01*
Y3129880D01*
X9126277Y3130435D01*
X9125999Y3131546D01*
X9125166Y3132934D01*
X9124334Y3134600D01*
X9123223Y3136543D01*
X9120447Y3141263D01*
X9117393Y3146815D01*
X9113506Y3152368D01*
X9109064Y3158198D01*
X9104345Y3164028D01*
X9104067Y3164305D01*
X9103790Y3164583D01*
X9102957Y3165416D01*
X9102124Y3166526D01*
X9099348Y3169025D01*
X9096016Y3172356D01*
X9092129Y3175688D01*
X9087687Y3179297D01*
X9083245Y3182351D01*
X9078526Y3185127D01*
Y3200396D01*
X9271473D01*
Y3176798D01*
D02*
G37*
%LPC*%
G36*
X7979856Y3245570D02*
X7853286Y3119000D01*
X7979856Y2992430D01*
X7992099Y3007349D01*
X8010671Y3042093D01*
X8022107Y3079793D01*
X8025968Y3119000D01*
X8022107Y3158207D01*
X8010671Y3195907D01*
X7992099Y3230652D01*
X7979856Y3245570D01*
D02*
G37*
G36*
X8432146Y3245571D02*
X8419902Y3230652D01*
X8401331Y3195907D01*
X8389895Y3158207D01*
X8386033Y3119000D01*
X8389895Y3079793D01*
X8401331Y3042093D01*
X8419902Y3007349D01*
X8432146Y2992429D01*
X8558717Y3119000D01*
X8432146Y3245571D01*
D02*
G37*
G36*
X8587001Y3090716D02*
X8460430Y2964145D01*
X8475349Y2951902D01*
X8510094Y2933330D01*
X8547794Y2921894D01*
X8587001Y2918033D01*
X8626208Y2921894D01*
X8663907Y2933330D01*
X8698652Y2951902D01*
X8713571Y2964145D01*
X8587001Y3090716D01*
D02*
G37*
G36*
X7825001D02*
X7698430Y2964145D01*
X7713349Y2951902D01*
X7748094Y2933330D01*
X7785794Y2921894D01*
X7825001Y2918033D01*
X7864208Y2921894D01*
X7901907Y2933330D01*
X7936652Y2951902D01*
X7951571Y2964145D01*
X7825001Y3090716D01*
D02*
G37*
G36*
X7825001Y2588113D02*
X7779913Y2583672D01*
X7736558Y2570520D01*
X7696601Y2549163D01*
X7661579Y2520421D01*
X7632837Y2485399D01*
X7611480Y2445443D01*
X7598329Y2402088D01*
X7593888Y2357000D01*
X7598329Y2311912D01*
X7611480Y2268557D01*
X7632837Y2228601D01*
X7661579Y2193579D01*
X7696601Y2164837D01*
X7736558Y2143480D01*
X7779913Y2130328D01*
X7825001Y2125888D01*
X7870088Y2130328D01*
X7913444Y2143480D01*
X7953400Y2164837D01*
X7988422Y2193579D01*
X8017164Y2228601D01*
X8038521Y2268557D01*
X8051672Y2311912D01*
X8056113Y2357000D01*
X8051672Y2402088D01*
X8038521Y2445443D01*
X8017164Y2485399D01*
X7988422Y2520421D01*
X7953400Y2549163D01*
X7913444Y2570520D01*
X7870088Y2583672D01*
X7825001Y2588113D01*
D02*
G37*
G36*
X7100001Y2271035D02*
X7068674Y2266911D01*
X7039483Y2254820D01*
X7014416Y2235585D01*
X6995181Y2210518D01*
X6983089Y2181326D01*
X6978965Y2150000D01*
X6983089Y2118674D01*
X6995181Y2089482D01*
X7014416Y2064415D01*
X7039483Y2045180D01*
X7068674Y2033089D01*
X7100001Y2028965D01*
X7131327Y2033089D01*
X7160518Y2045180D01*
X7185585Y2064415D01*
X7204820Y2089482D01*
X7216912Y2118674D01*
X7221036Y2150000D01*
X7216912Y2181326D01*
X7204820Y2210518D01*
X7185585Y2235585D01*
X7160518Y2254820D01*
X7131327Y2266911D01*
X7100001Y2271035D01*
D02*
G37*
G36*
X7200000Y1750000D02*
X7000001D01*
Y1550000D01*
X7200000D01*
Y1750000D01*
D02*
G37*
G36*
X6286716Y1240000D02*
X6163286D01*
X6225001Y1178285D01*
X6286716Y1240000D01*
D02*
G37*
G36*
X6315000Y1211715D02*
X6253285Y1150000D01*
X6315000Y1088286D01*
Y1211715D01*
D02*
G37*
G36*
X6135001Y1211716D02*
Y1088284D01*
X6196717Y1150000D01*
X6135001Y1211716D01*
D02*
G37*
G36*
X6225001Y1121716D02*
X6163285Y1060000D01*
X6286717D01*
X6225001Y1121716D01*
D02*
G37*
G36*
X6175001Y905871D02*
X6139714Y902395D01*
X6105784Y892103D01*
X6074514Y875389D01*
X6047106Y852895D01*
X6024612Y825487D01*
X6007898Y794216D01*
X5997605Y760286D01*
X5994130Y725000D01*
Y525000D01*
X5997605Y489714D01*
X6007898Y455784D01*
X6024612Y424514D01*
X6047106Y397105D01*
X6074514Y374611D01*
X6105784Y357897D01*
X6139714Y347605D01*
X6175001Y344129D01*
X6210287Y347605D01*
X6244217Y357897D01*
X6275487Y374611D01*
X6302896Y397105D01*
X6325389Y424514D01*
X6342103Y455784D01*
X6352396Y489714D01*
X6355871Y525000D01*
Y725000D01*
X6352396Y760286D01*
X6342103Y794216D01*
X6325389Y825487D01*
X6302896Y852895D01*
X6275487Y875389D01*
X6244217Y892103D01*
X6210287Y902395D01*
X6175001Y905871D01*
D02*
G37*
G36*
X6620000Y423212D02*
X6598464Y420377D01*
X6578395Y412064D01*
X6561161Y398840D01*
X6547937Y381606D01*
X6539624Y361537D01*
X6536789Y340000D01*
X6539624Y318463D01*
X6547937Y298394D01*
X6561161Y281160D01*
X6578395Y267936D01*
X6598464Y259624D01*
X6620000Y256788D01*
X6641537Y259624D01*
X6661606Y267936D01*
X6678840Y281160D01*
X6692064Y298394D01*
X6700377Y318463D01*
X6703212Y340000D01*
X6700377Y361537D01*
X6692064Y381606D01*
X6678840Y398840D01*
X6661606Y412064D01*
X6641537Y420377D01*
X6620000Y423212D01*
D02*
G37*
G36*
X7244000Y905079D02*
X7211369Y900783D01*
X7180961Y888187D01*
X7154850Y868151D01*
X7134813Y842039D01*
X7122218Y811632D01*
X7117922Y779000D01*
X7122218Y746369D01*
X7134813Y715961D01*
X7154850Y689849D01*
X7180961Y669813D01*
X7208229Y658518D01*
X7208234Y658498D01*
Y645502D01*
X7208229Y645482D01*
X7180961Y634187D01*
X7154850Y614151D01*
X7134813Y588039D01*
X7122218Y557632D01*
X7117922Y525000D01*
X7122218Y492369D01*
X7134813Y461961D01*
X7154850Y435849D01*
X7180961Y415813D01*
X7208229Y404518D01*
X7208234Y404498D01*
Y391502D01*
X7208229Y391482D01*
X7180961Y380187D01*
X7154850Y360151D01*
X7134813Y334039D01*
X7122218Y303632D01*
X7117922Y271000D01*
X7122218Y238369D01*
X7134813Y207961D01*
X7154850Y181849D01*
X7180961Y161813D01*
X7211369Y149218D01*
X7244000Y144922D01*
X7276632Y149218D01*
X7307040Y161813D01*
X7333151Y181849D01*
X7353188Y207961D01*
X7365783Y238369D01*
X7370079Y271000D01*
X7365783Y303632D01*
X7353188Y334039D01*
X7333151Y360151D01*
X7307040Y380187D01*
X7279772Y391482D01*
X7279767Y391502D01*
Y404498D01*
X7279772Y404518D01*
X7307040Y415813D01*
X7333151Y435849D01*
X7353188Y461961D01*
X7365783Y492369D01*
X7370079Y525000D01*
X7365783Y557632D01*
X7353188Y588039D01*
X7333151Y614151D01*
X7307040Y634187D01*
X7279772Y645482D01*
X7279767Y645502D01*
Y658498D01*
X7279772Y658518D01*
X7307040Y669813D01*
X7333151Y689849D01*
X7353188Y715961D01*
X7365783Y746369D01*
X7370079Y779000D01*
X7365783Y811632D01*
X7353188Y842039D01*
X7333151Y868151D01*
X7307040Y888187D01*
X7276632Y900783D01*
X7244000Y905079D01*
D02*
G37*
%LPD*%
D10*
X3840001Y470000D02*
D03*
Y2170000D02*
D03*
D11*
X1777001Y890000D02*
D03*
Y763000D02*
D03*
X1650001Y890000D02*
D03*
Y763000D02*
D03*
X1523001Y890000D02*
D03*
Y763000D02*
D03*
D12*
X4550000Y3480000D02*
D03*
Y3140000D02*
D03*
D13*
X4700000Y3310000D02*
D03*
D14*
X550000Y2150000D02*
Y3100000D01*
X680000Y1880000D02*
Y2020000D01*
X550000Y2150000D02*
X680000Y2020000D01*
X1510000Y4060000D02*
X1686368D01*
X550000Y3100000D02*
X1510000Y4060000D01*
X2965000Y1525000D02*
Y2075000D01*
X3047500Y2157500D01*
X950000Y2700000D02*
X1751977D01*
X1800714Y2651263D01*
X820000Y2830000D02*
X950000Y2700000D01*
X1042177Y2930000D02*
X1062177Y2950000D01*
X1030000Y2790000D02*
X1036266Y2796265D01*
X1076265D01*
X1062177Y2950000D02*
X2057823D01*
X1060000Y2860000D02*
X1100000Y2900000D01*
X900000Y2860000D02*
X1060000D01*
X1030000Y2930000D02*
X1042177D01*
X1076265Y2796265D02*
X1130000Y2850000D01*
X2057823Y2950000D02*
X2077823Y2930000D01*
X2090000D01*
X1797823Y2830000D02*
X1810000D01*
X1130000Y2850000D02*
X1777823D01*
X1797823Y2830000D01*
X1900001Y2900000D02*
X1970000Y2830000D01*
X1100000Y2900000D02*
X1900001D01*
X820000Y2920000D02*
X900000Y3000000D01*
X820000Y2830000D02*
Y2920000D01*
X2935460Y1220000D02*
X3067501Y1352041D01*
X2580000Y1220000D02*
X2935460D01*
X2242178Y1170000D02*
X2949099D01*
X2971599Y1192500D02*
X2971600D01*
X2949099Y1170000D02*
X2971599Y1192500D01*
X2260000Y1120000D02*
X2962739D01*
X2990239Y1147500D02*
X2990239D01*
X2962739Y1120000D02*
X2990239Y1147500D01*
X2990239D02*
X3157500Y1314762D01*
X2971600Y1192500D02*
X3112501Y1333401D01*
X3070000Y1560000D02*
X3157500Y1472500D01*
Y1314762D02*
Y1472500D01*
X3010000Y1550000D02*
X3112501Y1447500D01*
Y1333401D02*
Y1447500D01*
X2965000Y1525000D02*
X3067501Y1422500D01*
Y1352041D02*
Y1422500D01*
X2738728Y1381266D02*
X2739989Y1380004D01*
X2670001Y1354533D02*
Y2450000D01*
X2620000Y1340894D02*
Y2500000D01*
X2734529Y1290005D02*
X2789989D01*
X2470000Y1420000D02*
X2520000Y1370000D01*
X2470000Y1420000D02*
Y1940000D01*
X2631379Y1296110D02*
X2639989Y1287500D01*
X2520000Y1280000D02*
X2580000Y1220000D01*
X365000Y2045001D02*
Y2375001D01*
X430001Y1980000D02*
X550000D01*
X365000Y2045001D02*
X430001Y1980000D01*
X180000Y2440000D02*
X300001D01*
X365000Y2375001D01*
X3047500Y2157500D02*
X3290001D01*
X3279985Y1870000D02*
X3319988Y1910003D01*
X3120000Y1870000D02*
X3279985D01*
X3292501Y2022500D02*
X3300001Y2030000D01*
X3112501Y2022500D02*
X3292501D01*
X1750000Y2510000D02*
X1890001D01*
X3060500Y3680500D02*
X4310001D01*
X1890001Y2510000D02*
X3060500Y3680500D01*
X1890000Y1070000D02*
X2050000Y910000D01*
X2590000D02*
X2870963Y629038D01*
X2050000Y910000D02*
X2590000D01*
X2270000Y2820000D02*
X2640001Y3190000D01*
X2690000D01*
X2870963Y629038D02*
X2879038D01*
X1760000Y1230000D02*
X1960001D01*
X2130001Y1060000D01*
X2200000D01*
X2260000Y1120000D01*
X2212177Y1140000D02*
X2242178Y1170000D01*
X2150001Y1140000D02*
X2212177D01*
X3070000Y1560000D02*
Y1820000D01*
X3120000Y1870000D01*
X3010000Y1550000D02*
Y1920000D01*
X2797500Y2143682D02*
Y2370000D01*
X3010000Y1920000D02*
X3112501Y2022500D01*
X2780000Y1460000D02*
Y2126182D01*
Y1460000D02*
X2860000Y1380000D01*
X2780000Y2126182D02*
X2797500Y2143682D01*
X2631379Y1296110D02*
Y1329516D01*
X2620000Y1340894D02*
X2631379Y1329516D01*
X2670001Y1354533D02*
X2734529Y1290005D01*
X1800000Y1070000D02*
X1890000D01*
X1590000Y1280000D02*
X1800000Y1070000D01*
X1590000Y1510000D02*
X1700000Y1620000D01*
X1590000Y1280000D02*
Y1510000D01*
X2040000Y1620000D02*
X2260000Y1840000D01*
X1700000Y1620000D02*
X2040000D01*
X2330000Y1480000D02*
Y1890000D01*
X2141480Y2078521D02*
X2330000Y1890000D01*
X2190000Y1230000D02*
X2327500Y1367500D01*
Y1477500D01*
X2330000Y1480000D01*
X1710000Y2150000D02*
X2260001D01*
X2470000Y1940000D01*
X2270000Y2266089D02*
X2550000Y1986089D01*
Y1810000D02*
Y1986089D01*
X2715000Y1455000D02*
Y2382959D01*
Y1455000D02*
X2738728Y1431273D01*
X2715000Y2382959D02*
X2773431Y2441390D01*
X2738728Y1381266D02*
Y1431273D01*
X2670001Y2450000D02*
X2715695Y2495695D01*
X2773183D01*
X2827488Y2550000D01*
X2620000Y2500000D02*
X2759988Y2639988D01*
X1756021Y2078521D02*
X2141480D01*
X2520000Y1280000D02*
Y1370000D01*
X2270000Y2266089D02*
Y2820000D01*
X2831390Y2441390D02*
X2840000Y2450000D01*
X2773431Y2441390D02*
X2831390D01*
X2759988Y2639988D02*
Y2640001D01*
X607501Y1807500D02*
X680000Y1880000D01*
X607501Y1322500D02*
X620001Y1310000D01*
X607501Y1322500D02*
Y1807500D01*
X1160000Y2220000D02*
Y2380000D01*
X1590000Y2270000D02*
X1710000Y2150000D01*
D15*
X6334270Y5712828D02*
X6358450Y5680596D01*
X5800000Y6425000D02*
X6334270Y5712828D01*
D16*
X2917500Y1867500D02*
Y2282500D01*
X2920001Y2285000D02*
Y2700000D01*
X2917500Y2282500D02*
X2920001Y2285000D01*
X3890000Y4550000D02*
X4250000Y4910000D01*
X4500000D02*
X4650000Y5060000D01*
X4250000Y4910000D02*
X4500000D01*
X3745001Y4550000D02*
X3890000D01*
X3850825Y4620824D02*
X4210000Y4980000D01*
Y5100000D01*
X3780001Y4620824D02*
X3850825D01*
X2320000Y4230000D02*
X2790000D01*
X2860000Y4160000D02*
X4030000Y4160000D01*
X2790000Y4230000D02*
X2860000Y4160000D01*
X1650001Y670000D02*
Y763000D01*
X1648976Y891025D02*
Y968975D01*
X1650001Y970000D01*
X3460000Y5010000D02*
X4140000D01*
X3220000Y4770000D02*
X3460000Y5010000D01*
X1600000Y2580000D02*
X1854541D01*
X2299541Y3025000D02*
X2299541D01*
X1854541Y2580000D02*
X2299541Y3025000D01*
X2369990Y2820001D02*
X2799999D01*
X4402500Y3230000D02*
X4492500Y3140000D01*
X4550000D01*
X4400000Y3230000D02*
X4402500D01*
X4400000D02*
Y3387500D01*
X4492500Y3480000D02*
X4550000D01*
X4400000Y3387500D02*
X4492500Y3480000D01*
X4030000Y4160000D02*
X4260000Y3930000D01*
X2830000Y1550000D02*
Y1780000D01*
X3000000Y1380000D02*
Y1380001D01*
X2830000Y1550000D02*
X3000000Y1380001D01*
X2830000Y1780000D02*
X2917500Y1867500D01*
X2799999Y2820001D02*
X2920001Y2700000D01*
X1648976Y891025D02*
X1650001Y890000D01*
X1427390Y1861305D02*
X1430000Y1863915D01*
Y2222500D01*
X1500000Y1919994D02*
X1509991Y1910003D01*
X1500000Y1919994D02*
Y2480000D01*
X3220000Y4250000D02*
Y4770000D01*
X3670001Y4625000D02*
X3745001Y4550000D01*
X1500000Y2480000D02*
X1600000Y2580000D01*
X1489741Y968916D02*
Y979740D01*
Y968916D02*
X1513434Y945223D01*
Y899567D02*
Y945223D01*
Y899567D02*
X1523001Y890000D01*
X1777001D02*
X1850001Y963000D01*
Y965000D01*
X1500001Y665000D02*
Y740000D01*
X1523001Y763000D01*
X1777001D02*
X1850001Y690000D01*
D17*
X2730000Y4650000D02*
X2740000Y4660000D01*
X2730000Y4480000D02*
Y4650000D01*
X2740000Y4660000D02*
Y4800000D01*
X2375000Y6735000D02*
X3433995D01*
X2125000Y6485000D02*
X2375000Y6735000D01*
X2300442Y6915000D02*
X3508553D01*
X1825000Y6312279D02*
X2337721Y6825000D01*
X3725000Y6300000D02*
Y6698553D01*
X1825000Y6300000D02*
Y6312279D01*
X1700000Y6475000D02*
X1860442D01*
X2337721Y6825000D02*
X3471274D01*
X3575000Y6191005D02*
Y6721274D01*
X1860442Y6475000D02*
X2300442Y6915000D01*
X3508553D02*
X3725000Y6698553D01*
X2125000Y6300000D02*
Y6485000D01*
X3471274Y6825000D02*
X3575000Y6721274D01*
X3594000Y5931000D02*
Y6031001D01*
X3669844Y5855156D02*
X4099532D01*
X3594000Y5931000D02*
X3669844Y5855156D01*
X3475000Y6150001D02*
Y6693995D01*
Y6150001D02*
X3594000Y6031001D01*
X1566000Y6341000D02*
X1700000Y6475000D01*
X1525001Y6300000D02*
X1566000Y6341000D01*
Y6341000D01*
X3433995Y6735000D02*
X3475000Y6693995D01*
X3616006Y6150000D02*
X3850001D01*
X3575000Y6191005D02*
X3616006Y6150000D01*
X3850001D02*
X3959001Y6259000D01*
X4002811Y6300000D02*
X4025000D01*
X3961811Y6259000D02*
X4002811Y6300000D01*
X3959001Y6259000D02*
X3961811D01*
X4099532Y5855156D02*
X4175000Y5930625D01*
Y6150000D01*
X4325000Y6300000D01*
D18*
X1370000Y5650000D02*
X1594001Y5874000D01*
X1370000Y4970000D02*
Y5650000D01*
X1594001Y5874000D02*
X1877191D01*
X1878191Y5875000D02*
X2071810D01*
X2072810Y5874000D01*
X2199000D01*
X2425000Y6100000D02*
X2625000D01*
X2199000Y5874000D02*
X2425000Y6100000D01*
X1877191Y5874000D02*
X1878191Y5875000D01*
D19*
X4700000Y3310000D02*
X4780000Y3230000D01*
X4790000D01*
D20*
X760001Y1760000D02*
X940000D01*
D21*
X200000Y5600000D02*
D03*
Y4900000D02*
D03*
Y3500000D02*
D03*
Y2800000D02*
D03*
Y4200000D02*
D03*
D22*
X6225001Y4650000D02*
D03*
X7100001Y3150000D02*
D03*
Y2150000D02*
D03*
X6225001Y3650000D02*
D03*
X7100001Y4150000D02*
D03*
X6225001Y1650000D02*
D03*
Y2650000D02*
D03*
D23*
Y4150000D02*
D03*
X7100001Y2650000D02*
D03*
Y1650000D02*
D03*
X6225001Y3150000D02*
D03*
X7100001Y3650000D02*
D03*
X6225001Y1150000D02*
D03*
Y2150000D02*
D03*
D24*
X940001Y1310000D02*
D03*
X620001D02*
D03*
X700001Y1490000D02*
D03*
X780001Y1310000D02*
D03*
X860001Y1490000D02*
D03*
D25*
X1200001Y1390000D02*
D03*
X360001D02*
D03*
D26*
X1904001Y826500D02*
D03*
X1396001Y724900D02*
D03*
Y928100D02*
D03*
D27*
X2875000Y6100000D02*
D03*
X2825000Y6175000D02*
D03*
X2925000D02*
D03*
Y6025000D02*
D03*
X2825000D02*
D03*
X2490000Y4680000D02*
D03*
X2440000Y4755000D02*
D03*
X2540000D02*
D03*
Y4605000D02*
D03*
X2440000D02*
D03*
D28*
X8939001Y5405000D02*
D03*
Y1595000D02*
D03*
D29*
X8587001Y4643000D02*
D03*
X7825001D02*
D03*
X8587001Y3881000D02*
D03*
X7825001D02*
D03*
Y2357000D02*
D03*
X8587001D02*
D03*
X7825001Y3119000D02*
D03*
X8587001D02*
D03*
D30*
X5800000Y6425000D02*
D03*
X8050000D02*
D03*
D31*
X7095776Y4572202D02*
D03*
X6354225Y5727798D02*
D03*
D32*
X4025000Y6729997D02*
D03*
X1825000Y6729996D02*
D03*
D33*
X3725000Y6300000D02*
D03*
X1525001Y6300000D02*
D03*
D34*
X4025000Y6300000D02*
D03*
X4325000D02*
D03*
X3725000Y6000001D02*
D03*
X4025000D02*
D03*
X4325000D02*
D03*
X2125001Y6000000D02*
D03*
X1825000D02*
D03*
X1525001D02*
D03*
X2125000Y6300000D02*
D03*
X1825000D02*
D03*
D35*
X8006000Y525000D02*
D03*
X7244000D02*
D03*
Y271000D02*
D03*
X8006000Y779000D02*
D03*
X7244000D02*
D03*
X8006000Y271000D02*
D03*
D36*
X5023000Y6881000D02*
D03*
X5277000D02*
D03*
Y6119000D02*
D03*
X5023000D02*
D03*
D37*
X500000Y500000D02*
D03*
Y6500000D02*
D03*
X8900000D02*
D03*
Y500000D02*
D03*
D38*
X2320000Y620000D02*
D03*
X6175001Y625000D02*
D03*
D39*
X7025000Y5725000D02*
D03*
D40*
X3125000Y5975000D02*
D03*
X4740000Y3680000D02*
D03*
X1690000Y4060000D02*
D03*
X2240000D02*
D03*
X5000000Y2665000D02*
D03*
Y2795000D02*
D03*
X5400000D02*
D03*
Y2665000D02*
D03*
X5200000Y2795000D02*
D03*
Y2730000D02*
D03*
Y2665000D02*
D03*
X2115001Y2220000D02*
D03*
X2415001D02*
D03*
Y2520000D02*
D03*
X2115001D02*
D03*
X2320000Y4230000D02*
D03*
X2249990Y4679998D02*
D03*
X2847500Y2090000D02*
D03*
X1392960Y2767500D02*
D03*
X1030000Y2790000D02*
D03*
Y2930000D02*
D03*
X1650001Y3020000D02*
D03*
X1480000Y3030000D02*
D03*
X2090000Y2930000D02*
D03*
X1970000Y2830000D02*
D03*
X1810000D02*
D03*
X1380000Y2630000D02*
D03*
X900000Y2860000D02*
D03*
X1710000Y1800000D02*
D03*
X2120000Y1440000D02*
D03*
X1650001Y670000D02*
D03*
Y970000D02*
D03*
X3000000Y1050000D02*
D03*
X2930001Y1315000D02*
D03*
X2739989Y1380004D02*
D03*
X2789989Y1290005D02*
D03*
X2542730Y1442730D02*
D03*
X2639989Y1287500D02*
D03*
X2452500Y1327270D02*
D03*
X5400000Y2730000D02*
D03*
X5000000D02*
D03*
Y2600000D02*
D03*
X4140000Y5010000D02*
D03*
X4290000Y5000000D02*
D03*
X3990000Y4240000D02*
D03*
X3830000D02*
D03*
X3660000D02*
D03*
X3630000Y4050000D02*
D03*
X3100000Y4480000D02*
D03*
X2570000Y3410000D02*
D03*
X2420000D02*
D03*
X3220000Y2240000D02*
D03*
Y2390000D02*
D03*
X4860000Y990000D02*
D03*
X900000Y3000000D02*
D03*
X3290001Y2160000D02*
D03*
X3319988Y1910003D02*
D03*
X3300001Y2030000D02*
D03*
X3620000Y2730000D02*
D03*
X3750000Y2870000D02*
D03*
X2350000Y980000D02*
D03*
X400000Y5420000D02*
D03*
X200000Y4640000D02*
D03*
Y3940000D02*
D03*
X370001Y2580000D02*
D03*
X200000Y3240000D02*
D03*
X640000Y2650000D02*
D03*
X4730000Y5360000D02*
D03*
X4650000Y5060000D02*
D03*
X4495000Y5370000D02*
D03*
X3490000Y4760000D02*
D03*
Y4560000D02*
D03*
Y4360000D02*
D03*
X1380000Y4090000D02*
D03*
X2690000Y3190000D02*
D03*
X2369990Y2820001D02*
D03*
X1630000Y3640000D02*
D03*
X7040000Y6600000D02*
D03*
Y6520000D02*
D03*
X6960000D02*
D03*
Y6360000D02*
D03*
Y6440000D02*
D03*
X7040000Y6360000D02*
D03*
Y6440000D02*
D03*
X6960000Y6280000D02*
D03*
X7040000Y6200000D02*
D03*
Y6280000D02*
D03*
X7200000Y6600000D02*
D03*
Y6520000D02*
D03*
X7120000Y6600000D02*
D03*
Y6520000D02*
D03*
Y6360000D02*
D03*
Y6440000D02*
D03*
X7200000Y6360000D02*
D03*
Y6440000D02*
D03*
X7120000Y6200000D02*
D03*
Y6280000D02*
D03*
X7200000Y6200000D02*
D03*
Y6280000D02*
D03*
X7360001Y6280000D02*
D03*
Y6200000D02*
D03*
X7280000Y6280000D02*
D03*
Y6200000D02*
D03*
X7360001Y6440000D02*
D03*
Y6360000D02*
D03*
X7280000Y6440000D02*
D03*
Y6360000D02*
D03*
Y6520000D02*
D03*
Y6600000D02*
D03*
X7360001Y6520000D02*
D03*
X5750000Y5290000D02*
D03*
X2860000Y4160000D02*
D03*
X2648662Y4035287D02*
D03*
X5970001Y2530000D02*
D03*
X4570001Y4170000D02*
D03*
X4260000Y3930000D02*
D03*
X4420000Y4130000D02*
D03*
X4310001Y3680500D02*
D03*
X4130000Y3450000D02*
D03*
X2879038Y629038D02*
D03*
X4280000Y1580000D02*
D03*
X6620000Y340000D02*
D03*
X4360000Y2310000D02*
D03*
Y2230000D02*
D03*
X2150001Y1140000D02*
D03*
X3220000Y1940000D02*
D03*
X3230000Y1610000D02*
D03*
X3140000Y1630000D02*
D03*
X2847500Y1940000D02*
D03*
X2850000Y2660000D02*
D03*
X3000000Y1380000D02*
D03*
X2860000D02*
D03*
X1760000Y1230000D02*
D03*
X1810000Y1350000D02*
D03*
X1850000Y1440000D02*
D03*
X2260000Y1440000D02*
D03*
X2550000Y1810000D02*
D03*
X2190000Y1230000D02*
D03*
X2395000Y1440000D02*
D03*
X1427390Y1861305D02*
D03*
X1509991Y1910003D02*
D03*
X1756021Y2078521D02*
D03*
X2260000Y1840000D02*
D03*
X3010001Y930000D02*
D03*
X2964980Y3419520D02*
D03*
X2960000Y2990000D02*
D03*
X3370000Y3770000D02*
D03*
X3070000Y3420000D02*
D03*
X2060000Y590000D02*
D03*
X1260001Y280000D02*
D03*
Y600000D02*
D03*
X1600000Y590000D02*
D03*
X1720000D02*
D03*
X2060000Y290000D02*
D03*
X2797500Y2370000D02*
D03*
X1850000Y1800000D02*
D03*
X5750000Y4150000D02*
D03*
Y4050000D02*
D03*
Y3950000D02*
D03*
X5850000Y4150000D02*
D03*
Y4050000D02*
D03*
Y3950000D02*
D03*
Y4250000D02*
D03*
X5750000D02*
D03*
X4050001Y3910000D02*
D03*
X4190001Y1420000D02*
D03*
X4520000D02*
D03*
X4530000Y2810000D02*
D03*
X4560001Y3150000D02*
D03*
X4790000Y3230000D02*
D03*
X2759988Y2640001D02*
D03*
X4670000Y4040000D02*
D03*
X4730000Y3940000D02*
D03*
X3220000Y4250000D02*
D03*
X3875000Y4930000D02*
D03*
X5060000Y6630000D02*
D03*
X4210000Y5100000D02*
D03*
X3980000Y5260000D02*
D03*
X4055001D02*
D03*
X3710000D02*
D03*
X3530000Y3780000D02*
D03*
X2680000Y2890000D02*
D03*
X2150001Y5430000D02*
D03*
X1970000Y5020000D02*
D03*
X2150001D02*
D03*
X1970000Y4880000D02*
D03*
X2299541Y3025000D02*
D03*
X1380000Y4250000D02*
D03*
X910000Y4320000D02*
D03*
X180000Y1990000D02*
D03*
Y2140000D02*
D03*
Y2290000D02*
D03*
Y2440000D02*
D03*
X550000Y1980000D02*
D03*
X800000Y2210000D02*
D03*
X900000Y2330000D02*
D03*
X550000Y2157500D02*
D03*
X200000Y5330000D02*
D03*
X3380000Y2890000D02*
D03*
X3100000Y4650000D02*
D03*
X2740000Y4800000D02*
D03*
X3100000D02*
D03*
X2730000Y4480000D02*
D03*
X1160000Y2380000D02*
D03*
Y2220000D02*
D03*
X960000Y1960000D02*
D03*
X1360000Y2020000D02*
D03*
X1290000Y1920000D02*
D03*
X760001Y1760000D02*
D03*
X940000D02*
D03*
X3220000Y2090000D02*
D03*
X2827488Y2550000D02*
D03*
X1489741Y979740D02*
D03*
X1590000Y2270000D02*
D03*
X1430000Y2222500D02*
D03*
X2318640Y6551361D02*
D03*
X1470000Y5250000D02*
D03*
X1370000Y4970000D02*
D03*
X1380000Y2480000D02*
D03*
X1750000Y2510000D02*
D03*
X1800714Y2651263D02*
D03*
X1990000Y5430000D02*
D03*
X3670001Y4625000D02*
D03*
X3780001Y4620824D02*
D03*
X3340001Y940000D02*
D03*
X1780000Y3140000D02*
D03*
X2840000Y2450000D02*
D03*
X3220000Y2540000D02*
D03*
X1850001Y965000D02*
D03*
X1500001Y665000D02*
D03*
X1850001Y690000D02*
D03*
X2325000Y5875000D02*
D03*
X1200000Y5150000D02*
D03*
X3375000Y6075000D02*
D03*
X3125000Y6150000D02*
D03*
X3275000Y6625000D02*
D03*
X4275000Y6750000D02*
D03*
X2625000Y6100000D02*
D03*
X2500000Y6575000D02*
D03*
X3675000Y4930000D02*
D03*
X3490000Y4660000D02*
D03*
Y4460000D02*
D03*
X4850000Y4250000D02*
D03*
X4950001D02*
D03*
X5050001D02*
D03*
X5150000D02*
D03*
X5250000D02*
D03*
X5350000D02*
D03*
X5450001D02*
D03*
X5550001D02*
D03*
X5650000D02*
D03*
X5200000Y2100000D02*
D03*
X5100000D02*
D03*
X5000000D02*
D03*
Y2000000D02*
D03*
Y1900000D02*
D03*
Y1800000D02*
D03*
X5650000Y3950000D02*
D03*
Y4050000D02*
D03*
Y4150000D02*
D03*
X5550001Y3950000D02*
D03*
Y4050000D02*
D03*
Y4150000D02*
D03*
X5450001Y3950000D02*
D03*
Y4050000D02*
D03*
Y4150000D02*
D03*
X5350000Y3950000D02*
D03*
Y4050000D02*
D03*
Y4150000D02*
D03*
X5250000Y3950000D02*
D03*
Y4050000D02*
D03*
Y4150000D02*
D03*
X5150000Y3950000D02*
D03*
Y4050000D02*
D03*
Y4150000D02*
D03*
X5050001Y3950000D02*
D03*
Y4050000D02*
D03*
Y4150000D02*
D03*
X4950001Y3950000D02*
D03*
Y4050000D02*
D03*
Y4150000D02*
D03*
X4850000Y3950000D02*
D03*
Y4050000D02*
D03*
Y4150000D02*
D03*
X5400000Y2600000D02*
D03*
X5200000D02*
D03*
X5100000Y2000000D02*
D03*
Y1800000D02*
D03*
Y1900000D02*
D03*
X5600000Y1700000D02*
D03*
Y1800000D02*
D03*
Y1900000D02*
D03*
X5500000Y1800000D02*
D03*
Y1900000D02*
D03*
Y2000000D02*
D03*
X5200000Y1800000D02*
D03*
Y1900000D02*
D03*
Y2000000D02*
D03*
X5400000Y1800000D02*
D03*
Y1900000D02*
D03*
Y2000000D02*
D03*
X5300000D02*
D03*
Y1900000D02*
D03*
Y1800000D02*
D03*
%TF.MD5,80b5acf033aee0f146a257ffcb12f8c2*%
M02*
