%TF.GenerationSoftware,Altium Limited,Altium Designer,22.0.2 (36)*%
G04 Layer_Color=32896*
%FSLAX45Y45*%
%MOMM*%
%TF.SameCoordinates,8084254D-3EA1-499E-96B0-688E0DB6412D*%
%TF.FilePolarity,Positive*%
%TF.FileFunction,Legend,Bot*%
%TF.Part,Single*%
G01*
G75*
%TA.AperFunction,NonConductor*%
%ADD96C,0.20000*%
%ADD97C,0.25000*%
%ADD98C,0.25400*%
%ADD99C,0.30000*%
%ADD100C,0.15000*%
%ADD101C,0.10000*%
%ADD102C,0.10160*%
G36*
X6543639Y3323742D02*
X6558452Y3320039D01*
X6571414Y3314484D01*
X6582524Y3310781D01*
X6588079Y3308929D01*
X6589930Y3307077D01*
X7558348Y2747876D01*
X7569458Y2740470D01*
X7573162Y2738618D01*
X7575013Y2736766D01*
X7584272Y2727508D01*
X7587975Y2723805D01*
X7589827Y2721953D01*
X7602788Y2705288D01*
X7612046Y2690475D01*
X7619453Y2673810D01*
X7623156Y2658996D01*
X7626860Y2646035D01*
X7628711Y2634925D01*
Y2610853D01*
X7625008Y2597892D01*
X7623156Y2584930D01*
X7619453Y2573820D01*
X7615750Y2566413D01*
X7612046Y2559007D01*
X7610195Y2555303D01*
X7608343Y2553452D01*
X7604640Y2546045D01*
X7602788Y2542342D01*
X7587975Y2525677D01*
X7571310Y2510864D01*
X7560200Y2503457D01*
X7556497Y2499754D01*
X7554645D01*
X6588079Y1942404D01*
Y1940552D01*
X6586227D01*
X6584375D01*
X6576969Y1936849D01*
X6571414Y1933146D01*
X6567710Y1931294D01*
X6565859D01*
X6560304Y1929442D01*
X6552897Y1927591D01*
X6547342Y1925739D01*
X6545490D01*
X6525122Y1923887D01*
X6506605D01*
X6489941Y1925739D01*
X6475127Y1929442D01*
X6462166Y1934997D01*
X6452907Y1938701D01*
X6447352Y1940552D01*
X6445501Y1942404D01*
X6432539Y1949811D01*
X6428836Y1951662D01*
X6426984Y1953514D01*
X6417726Y1962772D01*
X6414022Y1966476D01*
X6412171Y1968327D01*
X6399209Y1984992D01*
X6389951Y2001657D01*
X6382544Y2018322D01*
X6378841Y2034987D01*
X6375138Y2047949D01*
X6373286Y2059059D01*
Y3186720D01*
X6375138Y3195978D01*
Y3203384D01*
X6376989Y3205236D01*
Y3212643D01*
X6378841Y3220049D01*
X6380693Y3225604D01*
Y3227456D01*
X6388099Y3245973D01*
X6397358Y3262638D01*
X6408467Y3275599D01*
X6419577Y3286709D01*
X6428836Y3295967D01*
X6438094Y3301522D01*
X6443649Y3305226D01*
X6445501Y3307077D01*
Y3308929D01*
X6454759Y3312632D01*
X6460314Y3316336D01*
X6464017Y3318187D01*
X6465869D01*
X6473276Y3320039D01*
X6480682Y3321891D01*
X6484386Y3323742D01*
X6486237D01*
X6506605Y3325594D01*
X6525122D01*
X6543639Y3323742D01*
D02*
G37*
G36*
X9163739Y2364653D02*
X9163600Y2361324D01*
X9163461Y2358412D01*
X9163184Y2355777D01*
X9162907Y2353558D01*
X9162629Y2351755D01*
X9162491Y2350368D01*
X9162213Y2349536D01*
Y2349259D01*
X9161520Y2346901D01*
X9160826Y2344960D01*
X9159994Y2343157D01*
X9159162Y2341631D01*
X9158608Y2340383D01*
X9158053Y2339412D01*
X9157637Y2338858D01*
X9157498Y2338719D01*
X9156250Y2337193D01*
X9154724Y2335807D01*
X9153199Y2334697D01*
X9151812Y2333588D01*
X9150425Y2332756D01*
X9149454Y2332201D01*
X9148761Y2331785D01*
X9148484Y2331646D01*
X9146265Y2330675D01*
X9144046Y2329982D01*
X9141965Y2329427D01*
X9140024Y2329150D01*
X9138360Y2328872D01*
X9136973Y2328734D01*
X9136141D01*
X9136002D01*
X9135863D01*
X9132812Y2328872D01*
X9130039Y2329427D01*
X9127681Y2330259D01*
X9125462Y2331091D01*
X9123798Y2331923D01*
X9122550Y2332756D01*
X9121718Y2333310D01*
X9121440Y2333449D01*
X9119221Y2335391D01*
X9117418Y2337471D01*
X9115893Y2339828D01*
X9114645Y2341909D01*
X9113674Y2343850D01*
X9113119Y2345514D01*
X9112842Y2346069D01*
X9112703Y2346485D01*
X9112564Y2346763D01*
Y2346901D01*
X9111178Y2344544D01*
X9109791Y2342463D01*
X9108265Y2340799D01*
X9106878Y2339412D01*
X9105769Y2338303D01*
X9104659Y2337471D01*
X9104105Y2337055D01*
X9103827Y2336916D01*
X9101747Y2335807D01*
X9099806Y2334975D01*
X9097864Y2334281D01*
X9096061Y2333865D01*
X9094536Y2333588D01*
X9093287Y2333449D01*
X9092594D01*
X9092317D01*
X9089959Y2333588D01*
X9087601Y2334004D01*
X9085521Y2334697D01*
X9083579Y2335391D01*
X9081915Y2336084D01*
X9080806Y2336777D01*
X9079974Y2337193D01*
X9079696Y2337332D01*
X9077616Y2338858D01*
X9075675Y2340522D01*
X9074149Y2342325D01*
X9072901Y2343989D01*
X9071930Y2345376D01*
X9071237Y2346624D01*
X9070821Y2347456D01*
X9070682Y2347595D01*
Y2347733D01*
X9069711Y2350368D01*
X9069018Y2353281D01*
X9068463Y2356193D01*
X9068186Y2358967D01*
X9067908Y2361463D01*
Y2362573D01*
X9067770Y2363543D01*
Y2401265D01*
X9163739D01*
Y2364653D01*
D02*
G37*
G36*
X9238684Y2410627D02*
X9242983Y2410072D01*
X9247143Y2409240D01*
X9248946Y2408685D01*
X9250749Y2408130D01*
X9252275Y2407714D01*
X9253661Y2407160D01*
X9254910Y2406743D01*
X9256019Y2406327D01*
X9256851Y2406050D01*
X9257406Y2405773D01*
X9257822Y2405495D01*
X9257961D01*
X9261982Y2403138D01*
X9265450Y2400641D01*
X9268501Y2397868D01*
X9270997Y2395233D01*
X9273077Y2392875D01*
X9273909Y2391904D01*
X9274464Y2391072D01*
X9275019Y2390240D01*
X9275435Y2389685D01*
X9275574Y2389408D01*
X9275712Y2389269D01*
X9276822Y2387189D01*
X9277792Y2385109D01*
X9279457Y2380948D01*
X9280566Y2376926D01*
X9281398Y2373182D01*
X9281676Y2371379D01*
X9281814Y2369854D01*
X9282092Y2368467D01*
Y2367219D01*
X9282230Y2366386D01*
Y2365000D01*
X9281953Y2360423D01*
X9281260Y2356124D01*
X9280427Y2352102D01*
X9279873Y2350299D01*
X9279318Y2348635D01*
X9278763Y2347109D01*
X9278209Y2345723D01*
X9277792Y2344613D01*
X9277376Y2343642D01*
X9276960Y2342810D01*
X9276683Y2342117D01*
X9276406Y2341839D01*
Y2341701D01*
X9273909Y2337818D01*
X9271136Y2334489D01*
X9268223Y2331715D01*
X9265450Y2329358D01*
X9262815Y2327416D01*
X9261844Y2326723D01*
X9260873Y2326168D01*
X9260041Y2325613D01*
X9259486Y2325336D01*
X9259070Y2325059D01*
X9258931D01*
X9256713Y2323949D01*
X9254494Y2323117D01*
X9250056Y2321591D01*
X9245618Y2320482D01*
X9241596Y2319789D01*
X9239793Y2319650D01*
X9238129Y2319373D01*
X9236603Y2319234D01*
X9235355D01*
X9234246Y2319095D01*
X9233552D01*
X9232998D01*
X9232859D01*
X9227589Y2319373D01*
X9222735Y2319927D01*
X9220516Y2320343D01*
X9218297Y2320898D01*
X9216355Y2321453D01*
X9214553Y2321869D01*
X9212888Y2322424D01*
X9211363Y2322978D01*
X9210115Y2323394D01*
X9209005Y2323949D01*
X9208173Y2324226D01*
X9207618Y2324504D01*
X9207202Y2324781D01*
X9207064D01*
X9203042Y2327000D01*
X9199436Y2329635D01*
X9196385Y2332409D01*
X9193889Y2334905D01*
X9191947Y2337263D01*
X9191115Y2338372D01*
X9190422Y2339204D01*
X9190005Y2340036D01*
X9189589Y2340591D01*
X9189451Y2340869D01*
X9189312Y2341007D01*
X9188203Y2343088D01*
X9187232Y2345168D01*
X9185568Y2349190D01*
X9184458Y2353350D01*
X9183765Y2356956D01*
X9183487Y2358620D01*
X9183210Y2360284D01*
X9183071Y2361532D01*
Y2362781D01*
X9182933Y2363751D01*
Y2365000D01*
X9183071Y2368744D01*
X9183487Y2372211D01*
X9184181Y2375540D01*
X9185013Y2378729D01*
X9186122Y2381642D01*
X9187232Y2384415D01*
X9188480Y2386912D01*
X9189728Y2389131D01*
X9190976Y2391211D01*
X9192224Y2393014D01*
X9193334Y2394539D01*
X9194443Y2395787D01*
X9195275Y2396758D01*
X9195969Y2397590D01*
X9196385Y2398006D01*
X9196524Y2398145D01*
X9199159Y2400364D01*
X9201932Y2402306D01*
X9204983Y2404108D01*
X9208034Y2405495D01*
X9211224Y2406743D01*
X9214275Y2407853D01*
X9217326Y2408685D01*
X9220239Y2409240D01*
X9223012Y2409795D01*
X9225647Y2410211D01*
X9228005Y2410488D01*
X9229946Y2410765D01*
X9231611D01*
X9232859Y2410904D01*
X9233691D01*
X9233830D01*
X9233968D01*
X9238684Y2410627D01*
D02*
G37*
%LPC*%
G36*
X6547342Y3233011D02*
X6543639D01*
X6538084D01*
X6536232D01*
X6521419Y3231159D01*
X6508457Y3229308D01*
X6501050Y3225604D01*
X6497347Y3223753D01*
X6480682Y3208939D01*
X6469572Y3195978D01*
X6464017Y3184868D01*
X6462166Y3181165D01*
Y3179313D01*
X6464017Y3181165D01*
X6462166Y3177461D01*
X6460314Y3171906D01*
Y3157093D01*
X6458462D01*
Y2094240D01*
X6460314Y2083130D01*
X6462166Y2072020D01*
X6469572Y2055355D01*
X6475127Y2044245D01*
X6478831Y2042394D01*
Y2040542D01*
X6486237Y2034987D01*
X6488089Y2033135D01*
X6493644Y2027580D01*
X6497347Y2025729D01*
X6506605Y2022025D01*
X6515864Y2018322D01*
X6534380Y2016470D01*
X6541787D01*
X6545490Y2018322D01*
X6549194D01*
X6551045D01*
X6558452Y2020174D01*
X6560304Y2022025D01*
X6562155D01*
X6569562Y2023877D01*
X6571414Y2025729D01*
X6573265D01*
X6575117D01*
X7493540Y2557155D01*
X7504650Y2564562D01*
X7512057Y2571968D01*
X7517612Y2577523D01*
X7519463Y2579375D01*
Y2583078D01*
X7521315Y2584930D01*
X7523167D01*
X7530573Y2599743D01*
X7532425Y2612705D01*
X7534277Y2621963D01*
Y2625667D01*
X7532425D01*
Y2636777D01*
X7528722Y2646035D01*
X7523167Y2662700D01*
X7515760Y2673810D01*
X7513909Y2675661D01*
X7512057Y2677513D01*
X7506502Y2683068D01*
X7504650Y2684920D01*
X7499095Y2688623D01*
X7497244Y2690475D01*
X7495392D01*
X6576969Y3221901D01*
X6575117D01*
X6564007Y3227456D01*
X6554749Y3231159D01*
X6547342Y3233011D01*
D02*
G37*
%LPD*%
G36*
X6902861Y2471979D02*
X7428732Y2699733D01*
X7425029Y2573820D01*
X6830646Y2401616D01*
X6962114Y2670106D01*
X6645480Y2586782D01*
X6689920Y2529380D01*
X6512160Y2557155D01*
X6660293Y2684920D01*
X6641777Y2607150D01*
X7082472Y2820091D01*
X6902861Y2471979D01*
D02*
G37*
%LPC*%
G36*
X9107988Y2388507D02*
X9079142D01*
Y2365762D01*
X9079419Y2362711D01*
X9079558Y2360354D01*
X9079835Y2358273D01*
X9080112Y2356748D01*
X9080251Y2355777D01*
X9080528Y2355084D01*
Y2354945D01*
X9081083Y2353419D01*
X9081915Y2352033D01*
X9082747Y2350923D01*
X9083579Y2349952D01*
X9084273Y2349259D01*
X9084966Y2348704D01*
X9085382Y2348427D01*
X9085521Y2348288D01*
X9086908Y2347456D01*
X9088295Y2346901D01*
X9089682Y2346485D01*
X9091068Y2346208D01*
X9092178Y2346069D01*
X9093010Y2345931D01*
X9093565D01*
X9093842D01*
X9095645Y2346069D01*
X9097309Y2346347D01*
X9098696Y2346763D01*
X9099806Y2347179D01*
X9100776Y2347595D01*
X9101608Y2348011D01*
X9102024Y2348288D01*
X9102163Y2348427D01*
X9103273Y2349398D01*
X9104382Y2350646D01*
X9105214Y2351894D01*
X9105769Y2353003D01*
X9106324Y2354113D01*
X9106740Y2354945D01*
X9106878Y2355500D01*
X9107017Y2355777D01*
X9107294Y2357303D01*
X9107572Y2359244D01*
X9107711Y2361186D01*
X9107849Y2363127D01*
X9107988Y2364930D01*
Y2388507D01*
D02*
G37*
G36*
X9152367D02*
X9119360D01*
Y2363266D01*
X9119637Y2360354D01*
X9119915Y2357996D01*
X9120192Y2356054D01*
X9120469Y2354529D01*
X9120747Y2353281D01*
X9120885Y2352726D01*
X9121024Y2352449D01*
X9121718Y2350646D01*
X9122550Y2349120D01*
X9123520Y2347733D01*
X9124491Y2346624D01*
X9125323Y2345792D01*
X9126017Y2345237D01*
X9126572Y2344821D01*
X9126710Y2344682D01*
X9128236Y2343712D01*
X9129761Y2343018D01*
X9131287Y2342463D01*
X9132674Y2342186D01*
X9133922Y2341909D01*
X9135031Y2341770D01*
X9135586D01*
X9135863D01*
X9137528Y2341909D01*
X9139192Y2342047D01*
X9140579Y2342325D01*
X9141688Y2342741D01*
X9142659Y2343157D01*
X9143491Y2343434D01*
X9143907Y2343573D01*
X9144046Y2343712D01*
X9145294Y2344544D01*
X9146403Y2345237D01*
X9147235Y2346208D01*
X9148068Y2346901D01*
X9148622Y2347595D01*
X9149038Y2348149D01*
X9149316Y2348566D01*
X9149454Y2348704D01*
X9150564Y2351062D01*
X9151396Y2353419D01*
X9151673Y2354390D01*
X9151812Y2355222D01*
X9151951Y2355777D01*
Y2355916D01*
X9152089Y2357025D01*
X9152228Y2358273D01*
X9152367Y2361186D01*
Y2388507D01*
D02*
G37*
G36*
X9235771Y2397868D02*
X9234800D01*
X9234246D01*
X9234107D01*
X9230224Y2397729D01*
X9226618Y2397452D01*
X9223151Y2397036D01*
X9220100Y2396342D01*
X9217326Y2395649D01*
X9214830Y2394817D01*
X9212472Y2393846D01*
X9210531Y2393014D01*
X9208728Y2392043D01*
X9207202Y2391211D01*
X9205954Y2390379D01*
X9204983Y2389685D01*
X9204151Y2388992D01*
X9203597Y2388576D01*
X9203319Y2388298D01*
X9203180Y2388160D01*
X9201516Y2386357D01*
X9200129Y2384415D01*
X9198881Y2382474D01*
X9197772Y2380394D01*
X9196940Y2378452D01*
X9196108Y2376510D01*
X9194998Y2372905D01*
X9194721Y2371240D01*
X9194443Y2369715D01*
X9194166Y2368467D01*
X9194027Y2367219D01*
X9193889Y2366248D01*
Y2365000D01*
X9194027Y2361532D01*
X9194582Y2358204D01*
X9195414Y2355292D01*
X9196246Y2352795D01*
X9197217Y2350715D01*
X9197633Y2349883D01*
X9197910Y2349190D01*
X9198327Y2348496D01*
X9198465Y2348080D01*
X9198743Y2347941D01*
Y2347803D01*
X9200684Y2345168D01*
X9202903Y2342810D01*
X9205122Y2340730D01*
X9207341Y2339066D01*
X9209283Y2337818D01*
X9210947Y2336847D01*
X9211502Y2336569D01*
X9211918Y2336292D01*
X9212195Y2336153D01*
X9212334D01*
X9215662Y2334766D01*
X9219268Y2333796D01*
X9222596Y2333102D01*
X9225786Y2332686D01*
X9227311Y2332409D01*
X9228560Y2332270D01*
X9229808D01*
X9230779Y2332131D01*
X9231611D01*
X9232165D01*
X9232581D01*
X9232720D01*
X9236049Y2332270D01*
X9239238Y2332548D01*
X9242289Y2332964D01*
X9245063Y2333518D01*
X9247559Y2334350D01*
X9249917Y2335044D01*
X9252136Y2335876D01*
X9254078Y2336708D01*
X9255742Y2337679D01*
X9257267Y2338511D01*
X9258515Y2339204D01*
X9259486Y2339898D01*
X9260318Y2340591D01*
X9261012Y2341007D01*
X9261289Y2341285D01*
X9261428Y2341423D01*
X9263231Y2343226D01*
X9264756Y2345168D01*
X9266004Y2347109D01*
X9267252Y2349051D01*
X9268223Y2350993D01*
X9268917Y2353073D01*
X9269610Y2354876D01*
X9270165Y2356817D01*
X9270581Y2358481D01*
X9270858Y2360146D01*
X9271136Y2361532D01*
X9271274Y2362781D01*
Y2363751D01*
X9271413Y2364445D01*
Y2365138D01*
X9271274Y2367773D01*
X9270997Y2370270D01*
X9270442Y2372489D01*
X9269887Y2374707D01*
X9269055Y2376788D01*
X9268223Y2378729D01*
X9267391Y2380532D01*
X9266420Y2382196D01*
X9265450Y2383583D01*
X9264617Y2384831D01*
X9263785Y2385941D01*
X9262953Y2386912D01*
X9262399Y2387605D01*
X9261844Y2388160D01*
X9261566Y2388437D01*
X9261428Y2388576D01*
X9259486Y2390240D01*
X9257406Y2391627D01*
X9255187Y2392875D01*
X9252968Y2393985D01*
X9250610Y2394817D01*
X9248391Y2395649D01*
X9243954Y2396758D01*
X9242012Y2397036D01*
X9240070Y2397313D01*
X9238406Y2397590D01*
X9237019Y2397729D01*
X9235771Y2397868D01*
D02*
G37*
%LPD*%
D96*
X4568001Y3635000D02*
G03*
X4568001Y3635000I-5000J0D01*
G01*
X2990001Y955000D02*
G03*
X2990001Y955000I-10000J0D01*
G01*
X3120001Y3825000D02*
G03*
X3060001Y3825000I-30000J0D01*
G01*
X4649250Y6436500D02*
G03*
X4585750Y6436500I-31750J0D01*
G01*
X3140001Y2820000D02*
G03*
X3140001Y2820000I-10000J0D01*
G01*
D97*
X902500Y5235000D02*
G03*
X902500Y5235000I-12500J0D01*
G01*
X1902500Y1022500D02*
G03*
X1902500Y1022500I-12500J0D01*
G01*
X1388000Y4485000D02*
G03*
X1388000Y4485000I-12500J0D01*
G01*
X1927501Y2805000D02*
G03*
X1927501Y2805000I-12500J0D01*
G01*
X4563001Y3675000D02*
Y3880000D01*
X4323000Y3890000D02*
X4323001Y3675000D01*
X2885000Y6850000D02*
X2915000D01*
X2885000Y6350000D02*
X2915000D01*
X830000Y5430000D02*
Y5620000D01*
X1170000Y5430000D02*
Y5620000D01*
X1975000Y1355000D02*
X2205000D01*
X1975000Y1045000D02*
X2205000D01*
Y1355000D01*
X1975000Y1045000D02*
Y1355000D01*
X3030001Y3825000D02*
Y4105000D01*
X3150001D01*
Y3825000D02*
Y4105000D01*
X3030001Y3825000D02*
X3060001D01*
X3120001D02*
X3150001D01*
X4620001Y5025000D02*
Y5090000D01*
Y4790000D02*
Y4854999D01*
X4535001Y5090000D02*
X4620001D01*
X4535001Y4790000D02*
X4620001D01*
X1175000Y1670000D02*
X1260001D01*
X1175000Y1970000D02*
X1260001D01*
Y1670000D02*
Y1735000D01*
Y1905000D02*
Y1970000D01*
X1837000Y3975000D02*
X2125000D01*
X1837000Y4145000D02*
X2125000D01*
X1947000Y4000000D02*
Y4120000D01*
X2007000Y4060000D01*
X1947000Y4000000D02*
X2007000Y4060000D01*
X2007000Y4000000D02*
Y4120000D01*
X850000Y4635000D02*
Y4815000D01*
X1350000Y4635000D02*
Y4815000D01*
X1900001Y2740000D02*
X1937501D01*
X1900001Y2697500D02*
Y2740000D01*
Y2000000D02*
Y2042500D01*
Y2000000D02*
X1937501D01*
X2592501D02*
X2630001D01*
Y2042500D01*
X2592501Y2740000D02*
X2630001D01*
Y2697500D02*
Y2740000D01*
X4417500Y6436500D02*
Y6690500D01*
X4817500D01*
Y6436500D02*
Y6690500D01*
X4649250Y6436500D02*
X4817500D01*
X4417500D02*
X4585750D01*
X1837001Y4195000D02*
X2125001D01*
X1837001Y4365000D02*
X2125001D01*
X1947000Y4220000D02*
Y4340000D01*
X2007000Y4280000D01*
X1947000Y4220000D02*
X2007000Y4280000D01*
X2007001Y4220000D02*
Y4340000D01*
X2705000Y4345000D02*
X2993000D01*
X2705000Y4175000D02*
X2993000D01*
X2883001Y4200000D02*
Y4320000D01*
X2823001Y4260000D02*
X2883001Y4200000D01*
X2823001Y4260000D02*
X2883001Y4320000D01*
X2823000Y4200000D02*
Y4320000D01*
X2505001Y5440000D02*
X2535001D01*
X2505001Y4940000D02*
X2535001D01*
X3195001Y4940000D02*
X3225001D01*
X3195001Y5440000D02*
X3225001D01*
X6770000Y6930000D02*
X6775000Y5750000D01*
X7275000D02*
X7280000Y6930000D01*
D98*
X3000001Y3795001D02*
G03*
X3000001Y3795001I-10000J0D01*
G01*
X3350001Y1304999D02*
G03*
X3350001Y1304999I-10000J0D01*
G01*
X3177001Y3110000D02*
G03*
X3177001Y3110000I-10000J0D01*
G01*
X1025000Y2045000D02*
Y2095000D01*
Y2045000D02*
X1075000Y2095000D01*
X1025000D02*
X1075000D01*
Y2445000D02*
Y2495000D01*
X1025000D02*
X1075000D01*
X625000D02*
X675000D01*
X625000Y2445000D02*
Y2495000D01*
Y2045000D02*
Y2095000D01*
Y2045000D02*
X675000D01*
X3020001Y1384999D02*
X3320001D01*
X3020001D02*
Y1644999D01*
X3320001D01*
Y1384999D02*
Y1644999D01*
X4050000Y2300000D02*
X4550000D01*
X4050000Y2800000D02*
X4550000D01*
X2847001Y3190000D02*
X3147001D01*
X2847001D02*
Y3450000D01*
X3147001D01*
Y3190000D02*
Y3450000D01*
X4800001Y1937300D02*
X5800001D01*
X4800001Y3337300D02*
X5800001D01*
X4800000Y6000000D02*
X5800001D01*
X4800001Y1000000D02*
X5800001D01*
Y6000000D01*
X4800000D02*
X4800001Y1000000D01*
X2320000Y370000D02*
X6170000Y380000D01*
X2320000Y875000D02*
X6180000Y875000D01*
D99*
X4095000Y2250000D02*
G03*
X4095000Y2250000I-15000J0D01*
G01*
D100*
X125400Y5354600D02*
X274600D01*
X94600Y5385400D02*
X125400Y5354600D01*
X94600Y5385400D02*
Y5550000D01*
X274600Y5354600D02*
X305400Y5385400D01*
Y5550000D01*
X94600Y5650000D02*
Y5845400D01*
X305400D01*
Y5650000D02*
Y5845400D01*
X4235000Y3558000D02*
X4525000D01*
X4235000Y3362000D02*
X4525000D01*
X4345000Y3385000D02*
Y3535000D01*
Y3385000D02*
X4415000Y3460000D01*
X4345000Y3535000D02*
X4415000Y3460000D01*
Y3385000D02*
Y3535000D01*
X2125000Y3100000D02*
X2165000D01*
X2125000Y3350000D02*
X2165000D01*
X4072000Y1575000D02*
Y1865000D01*
X4268000Y1575000D02*
Y1865000D01*
X4095000Y1685000D02*
X4245000D01*
X4170000Y1755000D02*
X4245000Y1685000D01*
X4095000D02*
X4170000Y1755000D01*
X4095000D02*
X4245000D01*
X125400Y4654600D02*
X274600D01*
X94600Y4685400D02*
X125400Y4654600D01*
X94600Y4685400D02*
Y4850000D01*
X274600Y4654600D02*
X305400Y4685400D01*
Y4850000D01*
X94600Y4950000D02*
Y5145400D01*
X305400D01*
Y4950000D02*
Y5145400D01*
X125400Y3254600D02*
X274600D01*
X94600Y3285400D02*
X125400Y3254600D01*
X94600Y3285400D02*
Y3450000D01*
X274600Y3254600D02*
X305400Y3285400D01*
Y3450000D01*
X94600Y3550000D02*
Y3745400D01*
X305400D01*
Y3550000D02*
Y3745400D01*
X125400Y2554600D02*
X274600D01*
X94600Y2585400D02*
X125400Y2554600D01*
X94600Y2585400D02*
Y2750000D01*
X274600Y2554600D02*
X305400Y2585400D01*
Y2750000D01*
X94600Y2850000D02*
Y3045400D01*
X305400D01*
Y2850000D02*
Y3045400D01*
X125400Y3954600D02*
X274600D01*
X94600Y3985400D02*
X125400Y3954600D01*
X94600Y3985400D02*
Y4150000D01*
X274600Y3954600D02*
X305400Y3985400D01*
Y4150000D01*
X94600Y4250000D02*
Y4445400D01*
X305400D01*
Y4250000D02*
Y4445400D01*
D101*
X2962500Y6252500D02*
X3035000D01*
X2962500Y6245000D02*
Y6252500D01*
Y6245000D02*
X3035000D01*
Y6237500D02*
Y6245000D01*
X2962500Y6237500D02*
X3035000D01*
X2962500D02*
Y6260000D01*
X3035000Y5940000D02*
Y5970000D01*
X2935000Y5940000D02*
X3035000D01*
X2715000D02*
X2815000D01*
X2715000D02*
Y5970000D01*
Y6230000D02*
Y6260000D01*
X2815000D01*
X2935000D02*
X3035000D01*
Y6230000D02*
Y6260000D01*
X2577500Y4832500D02*
X2650000D01*
X2577500Y4825000D02*
Y4832500D01*
Y4825000D02*
X2650000D01*
Y4817500D02*
Y4825000D01*
X2577500Y4817500D02*
X2650000D01*
X2577500D02*
Y4840000D01*
X2650000Y4520000D02*
Y4550000D01*
X2550000Y4520000D02*
X2650000D01*
X2330000D02*
X2430000D01*
X2330000D02*
Y4550000D01*
Y4810000D02*
Y4840000D01*
X2430000D01*
X2550000D02*
X2650000D01*
Y4810000D02*
Y4840000D01*
D102*
X4849992Y2560012D02*
X4899984Y2560013D01*
X4849992Y2560012D02*
X4849999Y2310000D01*
X5549992Y2560012D02*
X5549999Y2310000D01*
X5500000Y2560010D02*
X5549992Y2560012D01*
X4849992Y3230012D02*
X4899984Y3230013D01*
X4849992Y3230012D02*
X4849999Y2980000D01*
X5549992Y3230012D02*
X5549999Y2980000D01*
X5500000Y3230010D02*
X5549992Y3230012D01*
%TF.MD5,f8a521ee1c89979cc944defa6bfd9bd6*%
M02*
