%TF.GenerationSoftware,Altium Limited,Altium Designer,22.0.2 (36)*%
G04 Layer_Physical_Order=3*
G04 Layer_Color=16440176*
%FSLAX45Y45*%
%MOMM*%
%TF.SameCoordinates,8084254D-3EA1-499E-96B0-688E0DB6412D*%
%TF.FilePolarity,Positive*%
%TF.FileFunction,Copper,L3,Inr,Signal*%
%TF.Part,Single*%
G01*
G75*
%TA.AperFunction,Conductor*%
%ADD18C,0.60000*%
%TA.AperFunction,ComponentPad*%
%ADD21C,1.80000*%
%ADD22C,1.40000*%
%ADD23R,1.40000X1.40000*%
%ADD24C,1.20000*%
%ADD25O,3.00000X4.00000*%
%ADD26O,0.80000X0.40000*%
%ADD27C,0.65000*%
%ADD28C,8.00000*%
%ADD29C,3.60000*%
%ADD30C,2.60000*%
%ADD31C,2.10000*%
%ADD32C,2.99999*%
%ADD33R,1.52000X1.52000*%
%ADD34C,1.52000*%
%ADD35C,1.50000*%
%ADD36C,1.30000*%
%TA.AperFunction,ViaPad*%
%ADD37C,6.00000*%
%TA.AperFunction,WasherPad*%
%ADD38O,0.40000X0.80000*%
%ADD39O,0.80000X0.40000*%
%TA.AperFunction,ViaPad*%
%ADD40C,0.65000*%
G36*
X8368197Y6962919D02*
X8347941Y6940253D01*
X8302120Y6875673D01*
X8263817Y6806370D01*
X8233514Y6733214D01*
X8211593Y6657124D01*
X8198330Y6579059D01*
X8195016Y6520053D01*
X8189198Y6517112D01*
X8182083Y6516266D01*
X8163685Y6538685D01*
X8139322Y6558679D01*
X8111526Y6573536D01*
X8081366Y6582685D01*
X8050000Y6585774D01*
X8018635Y6582685D01*
X7988475Y6573536D01*
X7960679Y6558679D01*
X7936316Y6538685D01*
X7916322Y6514321D01*
X7901465Y6486526D01*
X7892315Y6456366D01*
X7889226Y6425000D01*
X7892315Y6393635D01*
X7901465Y6363474D01*
X7916322Y6335679D01*
X7936316Y6311316D01*
X7960679Y6291321D01*
X7988475Y6276464D01*
X8018635Y6267315D01*
X8050000Y6264226D01*
X8081366Y6267315D01*
X8111526Y6276464D01*
X8139322Y6291321D01*
X8163685Y6311316D01*
X8183679Y6335679D01*
X8196013Y6358755D01*
X8209262Y6356599D01*
X8211593Y6342876D01*
X8233514Y6266786D01*
X8263817Y6193630D01*
X8302120Y6124327D01*
X8347941Y6059747D01*
X8400705Y6000704D01*
X8459748Y5947940D01*
X8524327Y5902119D01*
X8593631Y5863816D01*
X8666787Y5833514D01*
X8742876Y5811593D01*
X8776978Y5805799D01*
X8777360Y5800997D01*
X8776260Y5793039D01*
X8728550Y5769511D01*
X8682772Y5738923D01*
X8656448Y5715838D01*
X8939001Y5433285D01*
X9221553Y5715837D01*
X9195229Y5738923D01*
X9149451Y5769511D01*
X9100072Y5793862D01*
X9073163Y5802997D01*
X9073474Y5816303D01*
X9133214Y5833514D01*
X9206370Y5863816D01*
X9275674Y5902119D01*
X9340253Y5947940D01*
X9362920Y5968196D01*
X9374512Y5963009D01*
Y1036991D01*
X9362920Y1031804D01*
X9340253Y1052060D01*
X9275674Y1097881D01*
X9206370Y1136184D01*
X9133214Y1166486D01*
X9073473Y1183697D01*
X9073162Y1197003D01*
X9100072Y1206138D01*
X9149451Y1230489D01*
X9195229Y1261077D01*
X9221554Y1284163D01*
X8939001Y1566715D01*
X8656448Y1284163D01*
X8682772Y1261077D01*
X8728550Y1230489D01*
X8776260Y1206961D01*
X8777361Y1199007D01*
X8776978Y1194201D01*
X8742876Y1188407D01*
X8666787Y1166486D01*
X8593631Y1136184D01*
X8524327Y1097881D01*
X8459748Y1052060D01*
X8400705Y999296D01*
X8347941Y940253D01*
X8302120Y875673D01*
X8263817Y806370D01*
X8233514Y733214D01*
X8211593Y657124D01*
X8198330Y579059D01*
X8193890Y500000D01*
X8198330Y420941D01*
X8211593Y342876D01*
X8233514Y266786D01*
X8263817Y193630D01*
X8302120Y124327D01*
X8347941Y59747D01*
X8368197Y37081D01*
X8363009Y25488D01*
X1036991D01*
X1031804Y37081D01*
X1052060Y59747D01*
X1097881Y124327D01*
X1136184Y193630D01*
X1166486Y266786D01*
X1188407Y342876D01*
X1201671Y420941D01*
X1206111Y500000D01*
X1201671Y579059D01*
X1188407Y657124D01*
X1166486Y733214D01*
X1136184Y806370D01*
X1097881Y875673D01*
X1052060Y940253D01*
X999296Y999296D01*
X940253Y1052060D01*
X875673Y1097881D01*
X806370Y1136184D01*
X733214Y1166486D01*
X657124Y1188407D01*
X579059Y1201671D01*
X500000Y1206111D01*
X482673Y1205138D01*
X478061Y1216971D01*
X480791Y1219210D01*
X502034Y1245096D01*
X517820Y1274629D01*
X520509Y1283492D01*
X521359Y1283709D01*
X533690Y1283193D01*
X541386Y1264612D01*
X555812Y1245811D01*
X574613Y1231385D01*
X596506Y1222317D01*
X620001Y1219224D01*
X643496Y1222317D01*
X665389Y1231385D01*
X684189Y1245811D01*
X691997Y1255986D01*
X708005D01*
X715812Y1245811D01*
X734613Y1231385D01*
X756506Y1222317D01*
X780001Y1219224D01*
X803495Y1222317D01*
X825389Y1231385D01*
X844189Y1245811D01*
X858615Y1264612D01*
X859046Y1265652D01*
X867576Y1265860D01*
X911716Y1310000D01*
X867577Y1354140D01*
X859046Y1354348D01*
X858615Y1355388D01*
X844189Y1374189D01*
X825389Y1388614D01*
X803495Y1397683D01*
X780001Y1400776D01*
X756506Y1397683D01*
X734613Y1388614D01*
X715812Y1374189D01*
X708005Y1364014D01*
X691997D01*
X684189Y1374189D01*
X665389Y1388614D01*
X643496Y1397683D01*
X620001Y1400776D01*
X596506Y1397683D01*
X574613Y1388614D01*
X555812Y1374189D01*
X543523Y1358173D01*
X531188Y1361210D01*
X530823Y1361418D01*
Y1440000D01*
X527541Y1473326D01*
X517820Y1505371D01*
X502034Y1534904D01*
X493540Y1545254D01*
X374143Y1425858D01*
X360001Y1440000D01*
X345859Y1425858D01*
X226462Y1545254D01*
X217967Y1534904D01*
X202181Y1505371D01*
X192461Y1473326D01*
X189178Y1440000D01*
Y1340000D01*
X192461Y1306674D01*
X202181Y1274629D01*
X217967Y1245096D01*
X226462Y1234746D01*
X345859Y1354142D01*
X374143Y1325858D01*
X254746Y1206461D01*
X265097Y1197967D01*
X287891Y1185783D01*
X286452Y1172152D01*
X266786Y1166486D01*
X193630Y1136184D01*
X124327Y1097881D01*
X59747Y1052060D01*
X37081Y1031804D01*
X25488Y1036991D01*
Y5963009D01*
X37081Y5968196D01*
X59747Y5947940D01*
X124327Y5902119D01*
X193630Y5863816D01*
X266786Y5833514D01*
X342876Y5811593D01*
X420941Y5798329D01*
X444130Y5797027D01*
Y5479153D01*
X432929Y5473166D01*
X424387Y5478874D01*
X400000Y5483725D01*
X375614Y5478874D01*
X354940Y5465060D01*
X341127Y5444386D01*
X336276Y5420000D01*
X341127Y5395614D01*
X354940Y5374940D01*
X375614Y5361126D01*
X400000Y5356276D01*
X424387Y5361126D01*
X432929Y5366834D01*
X444130Y5360847D01*
Y4725000D01*
X447605Y4689714D01*
X457898Y4655784D01*
X474612Y4624514D01*
X497105Y4597105D01*
X524514Y4574612D01*
X555784Y4557897D01*
X589714Y4547605D01*
X625001Y4544129D01*
X1740000D01*
X1775287Y4547605D01*
X1809217Y4557897D01*
X1840487Y4574612D01*
X1867895Y4597105D01*
X1890389Y4624514D01*
X1907103Y4655784D01*
X1917396Y4689714D01*
X1920871Y4725000D01*
Y5469129D01*
X2087507D01*
X2093494Y5457929D01*
X2091127Y5454386D01*
X2086276Y5430000D01*
X2091127Y5405614D01*
X2104940Y5384940D01*
X2125614Y5371126D01*
X2150001Y5366276D01*
X2174387Y5371126D01*
X2195061Y5384940D01*
X2208874Y5405614D01*
X2213725Y5430000D01*
X2208874Y5454386D01*
X2206507Y5457929D01*
X2212494Y5469129D01*
X4575001D01*
X4610287Y5472605D01*
X4644217Y5482897D01*
X4675487Y5499612D01*
X4702896Y5522105D01*
X4725389Y5549514D01*
X4742103Y5580784D01*
X4752396Y5614714D01*
X4755871Y5650000D01*
Y6525081D01*
X4877896Y6647105D01*
X4900389Y6674514D01*
X4917103Y6705784D01*
X4927396Y6739714D01*
X4930871Y6775000D01*
Y6824149D01*
X4943571Y6828460D01*
X4955246Y6813246D01*
X4975091Y6798018D01*
X4998201Y6788446D01*
X5023000Y6785181D01*
X5047800Y6788446D01*
X5070910Y6798018D01*
X5090755Y6813246D01*
X5105982Y6833090D01*
X5115555Y6856200D01*
X5118820Y6881000D01*
X5115555Y6905800D01*
X5105982Y6928910D01*
X5090755Y6948755D01*
X5073740Y6961811D01*
X5076930Y6974433D01*
X5076975Y6974511D01*
X5223026D01*
X5223071Y6974433D01*
X5226261Y6961811D01*
X5209246Y6948755D01*
X5194018Y6928910D01*
X5184446Y6905800D01*
X5181181Y6881000D01*
X5184446Y6856200D01*
X5194018Y6833090D01*
X5209246Y6813246D01*
X5229091Y6798018D01*
X5252201Y6788446D01*
X5277000Y6785181D01*
X5301800Y6788446D01*
X5324910Y6798018D01*
X5344755Y6813246D01*
X5359982Y6833090D01*
X5369555Y6856200D01*
X5372820Y6881000D01*
X5369555Y6905800D01*
X5359982Y6928910D01*
X5344755Y6948755D01*
X5327739Y6961811D01*
X5330930Y6974433D01*
X5330975Y6974511D01*
X8363009Y6974512D01*
X8368197Y6962919D01*
D02*
G37*
G36*
X4573826Y6964310D02*
X4572605Y6960286D01*
X4569130Y6925000D01*
Y6849919D01*
X4447105Y6727895D01*
X4424612Y6700487D01*
X4407898Y6669217D01*
X4397605Y6635286D01*
X4394130Y6600000D01*
Y6394922D01*
X4382739Y6389305D01*
X4378458Y6392591D01*
X4352672Y6403271D01*
X4325000Y6406915D01*
X4297329Y6403271D01*
X4271543Y6392591D01*
X4249400Y6375600D01*
X4232410Y6353457D01*
X4221729Y6327672D01*
X4218086Y6300000D01*
X4221729Y6272329D01*
X4232410Y6246543D01*
X4249400Y6224400D01*
X4271543Y6207409D01*
X4297329Y6196729D01*
X4325000Y6193086D01*
X4352672Y6196729D01*
X4378458Y6207409D01*
X4382739Y6210695D01*
X4394130Y6205078D01*
Y6094923D01*
X4382739Y6089306D01*
X4378458Y6092591D01*
X4352672Y6103272D01*
X4325000Y6106915D01*
X4297329Y6103272D01*
X4271543Y6092591D01*
X4249400Y6075601D01*
X4232410Y6053458D01*
X4221729Y6027672D01*
X4218086Y6000001D01*
X4221729Y5972329D01*
X4232410Y5946544D01*
X4249400Y5924401D01*
X4271543Y5907410D01*
X4297329Y5896729D01*
X4325000Y5893086D01*
X4352672Y5896729D01*
X4378458Y5907410D01*
X4382739Y5910696D01*
X4394130Y5905078D01*
Y5830871D01*
X2384153D01*
X2378166Y5842072D01*
X2383874Y5850614D01*
X2388725Y5875000D01*
X2383874Y5899386D01*
X2370061Y5920060D01*
X2349387Y5933874D01*
X2325000Y5938725D01*
X2300614Y5933874D01*
X2279940Y5920060D01*
X2266127Y5899386D01*
X2261276Y5875000D01*
X2266127Y5850614D01*
X2271834Y5842072D01*
X2265848Y5830871D01*
X1740000D01*
X1704714Y5827396D01*
X1670784Y5817103D01*
X1639514Y5800389D01*
X1612105Y5777895D01*
X1589612Y5750487D01*
X1572898Y5719216D01*
X1562605Y5685286D01*
X1559129Y5650000D01*
Y4905871D01*
X1409381D01*
X1405529Y4918571D01*
X1415060Y4924940D01*
X1428874Y4945614D01*
X1433725Y4970000D01*
X1428874Y4994387D01*
X1415060Y5015060D01*
X1394387Y5028874D01*
X1370000Y5033725D01*
X1345614Y5028874D01*
X1324940Y5015060D01*
X1311126Y4994387D01*
X1306276Y4970000D01*
X1311126Y4945614D01*
X1324940Y4924940D01*
X1334472Y4918571D01*
X1330619Y4905871D01*
X805871D01*
Y5863610D01*
X806370Y5863816D01*
X875673Y5902119D01*
X940253Y5947940D01*
X999296Y6000704D01*
X1052060Y6059747D01*
X1097881Y6124327D01*
X1136184Y6193630D01*
X1166486Y6266786D01*
X1188407Y6342876D01*
X1201671Y6420941D01*
X1206111Y6500000D01*
X1201671Y6579059D01*
X1188407Y6657124D01*
X1166486Y6733214D01*
X1136184Y6806370D01*
X1097881Y6875673D01*
X1052060Y6940253D01*
X1031804Y6962919D01*
X1036992Y6974511D01*
X4566260Y6974511D01*
X4573826Y6964310D01*
D02*
G37*
%LPC*%
G36*
X5800000Y6605871D02*
X5764714Y6602395D01*
X5730784Y6592103D01*
X5699514Y6575389D01*
X5672105Y6552895D01*
X5649612Y6525487D01*
X5632898Y6494216D01*
X5622605Y6460286D01*
X5619129Y6425000D01*
X5622605Y6389714D01*
X5632898Y6355784D01*
X5649612Y6324514D01*
X5672105Y6297105D01*
X5699514Y6274612D01*
X5730784Y6257897D01*
X5764714Y6247605D01*
X5800000Y6244129D01*
X5835287Y6247605D01*
X5869217Y6257897D01*
X5900487Y6274612D01*
X5927895Y6297105D01*
X5950389Y6324514D01*
X5967103Y6355784D01*
X5977396Y6389714D01*
X5980871Y6425000D01*
X5977396Y6460286D01*
X5967103Y6494216D01*
X5950389Y6525487D01*
X5927895Y6552895D01*
X5900487Y6575389D01*
X5869217Y6592103D01*
X5835287Y6602395D01*
X5800000Y6605871D01*
D02*
G37*
G36*
X5277000Y6204734D02*
X5254811Y6201812D01*
X5234134Y6193247D01*
X5232382Y6191903D01*
X5277000Y6147285D01*
X5321619Y6191903D01*
X5319867Y6193247D01*
X5299190Y6201812D01*
X5277000Y6204734D01*
D02*
G37*
G36*
X5349903Y6163619D02*
X5305285Y6119000D01*
X5349903Y6074382D01*
X5351248Y6076133D01*
X5359812Y6096811D01*
X5362734Y6119000D01*
X5359812Y6141190D01*
X5351248Y6161867D01*
X5349903Y6163619D01*
D02*
G37*
G36*
X5204097D02*
X5202753Y6161867D01*
X5194188Y6141190D01*
X5191267Y6119000D01*
X5194188Y6096811D01*
X5202753Y6076133D01*
X5204097Y6074382D01*
X5248716Y6119000D01*
X5204097Y6163619D01*
D02*
G37*
G36*
X5277000Y6090716D02*
X5232382Y6046097D01*
X5234134Y6044753D01*
X5254811Y6036188D01*
X5277000Y6033267D01*
X5299190Y6036188D01*
X5319867Y6044753D01*
X5321619Y6046097D01*
X5277000Y6090716D01*
D02*
G37*
G36*
X5023000Y6214820D02*
X4998201Y6211555D01*
X4975091Y6201982D01*
X4955246Y6186755D01*
X4940018Y6166910D01*
X4930446Y6143800D01*
X4927181Y6119000D01*
X4930446Y6094200D01*
X4940018Y6071090D01*
X4955246Y6051246D01*
X4975091Y6036018D01*
X4998201Y6026446D01*
X5023000Y6023181D01*
X5047800Y6026446D01*
X5070910Y6036018D01*
X5090755Y6051246D01*
X5105982Y6071090D01*
X5115555Y6094200D01*
X5118820Y6119000D01*
X5115555Y6143800D01*
X5105982Y6166910D01*
X5090755Y6186755D01*
X5070910Y6201982D01*
X5047800Y6211555D01*
X5023000Y6214820D01*
D02*
G37*
G36*
X6344038Y5883215D02*
X6313914Y5878241D01*
X6285339Y5867486D01*
X6259410Y5851363D01*
X6237126Y5830491D01*
X6219342Y5805673D01*
X6206741Y5777862D01*
X6199808Y5748128D01*
X6198809Y5717611D01*
X6203782Y5687487D01*
X6214537Y5658912D01*
X6230660Y5632983D01*
X6251532Y5610699D01*
X6276350Y5592915D01*
X6304161Y5580314D01*
X6333895Y5573381D01*
X6364412Y5572382D01*
X6394536Y5577355D01*
X6423111Y5588110D01*
X6449040Y5604233D01*
X6471324Y5625105D01*
X6489108Y5649923D01*
X6501709Y5677734D01*
X6508643Y5707468D01*
X6509642Y5737985D01*
X6504668Y5768109D01*
X6493913Y5796684D01*
X6477790Y5822613D01*
X6456918Y5844897D01*
X6432100Y5862681D01*
X6404289Y5875282D01*
X6374555Y5882216D01*
X6344038Y5883215D01*
D02*
G37*
G36*
X7125000Y5905871D02*
X6925000D01*
X6889714Y5902395D01*
X6855784Y5892103D01*
X6824514Y5875389D01*
X6797105Y5852895D01*
X6774612Y5825486D01*
X6757898Y5794216D01*
X6747605Y5760286D01*
X6744130Y5725000D01*
X6747605Y5689714D01*
X6757898Y5655784D01*
X6774612Y5624514D01*
X6797105Y5597105D01*
X6824514Y5574611D01*
X6855784Y5557897D01*
X6889714Y5547605D01*
X6925000Y5544129D01*
X7125000D01*
X7160287Y5547605D01*
X7194217Y5557897D01*
X7225487Y5574611D01*
X7252896Y5597105D01*
X7275389Y5624514D01*
X7292103Y5655784D01*
X7302396Y5689714D01*
X7305871Y5725000D01*
X7302396Y5760286D01*
X7292103Y5794216D01*
X7275389Y5825486D01*
X7252896Y5852895D01*
X7225487Y5875389D01*
X7194217Y5892103D01*
X7160287Y5902395D01*
X7125000Y5905871D01*
D02*
G37*
G36*
X200000Y5731122D02*
X166064Y5726654D01*
X134439Y5713555D01*
X107283Y5692717D01*
X86446Y5665561D01*
X73347Y5633937D01*
X68879Y5600000D01*
X73347Y5566064D01*
X86446Y5534439D01*
X107283Y5507283D01*
X134439Y5486445D01*
X166064Y5473346D01*
X200000Y5468879D01*
X233937Y5473346D01*
X265561Y5486445D01*
X292717Y5507283D01*
X313555Y5534439D01*
X326654Y5566064D01*
X331122Y5600000D01*
X326654Y5633937D01*
X313555Y5665561D01*
X292717Y5692717D01*
X265561Y5713555D01*
X233937Y5726654D01*
X200000Y5731122D01*
D02*
G37*
G36*
X5300000Y5836137D02*
X5253932Y5831600D01*
X5209635Y5818162D01*
X5168810Y5796341D01*
X5133026Y5766974D01*
X5103660Y5731191D01*
X5081838Y5690366D01*
X5068401Y5646068D01*
X5063863Y5600000D01*
X5068401Y5553932D01*
X5081838Y5509635D01*
X5103660Y5468809D01*
X5133026Y5433026D01*
X5168810Y5403659D01*
X5209635Y5381838D01*
X5253932Y5368400D01*
X5300000Y5363863D01*
X5346068Y5368400D01*
X5390366Y5381838D01*
X5431191Y5403659D01*
X5466974Y5433026D01*
X5496341Y5468809D01*
X5518162Y5509635D01*
X5531600Y5553932D01*
X5536137Y5600000D01*
X5531600Y5646068D01*
X5518162Y5690366D01*
X5496341Y5731191D01*
X5466974Y5766974D01*
X5431191Y5796341D01*
X5390366Y5818162D01*
X5346068Y5831600D01*
X5300000Y5836137D01*
D02*
G37*
G36*
X4495000Y5453212D02*
X4473463Y5450377D01*
X4453394Y5442064D01*
X4436161Y5428840D01*
X4422937Y5411606D01*
X4414624Y5391537D01*
X4411788Y5370000D01*
X4414624Y5348463D01*
X4422937Y5328394D01*
X4436161Y5311161D01*
X4453394Y5297937D01*
X4473463Y5289624D01*
X4495000Y5286788D01*
X4516537Y5289624D01*
X4536606Y5297937D01*
X4553840Y5311161D01*
X4567064Y5328394D01*
X4575377Y5348463D01*
X4578212Y5370000D01*
X4575377Y5391537D01*
X4567064Y5411606D01*
X4553840Y5428840D01*
X4536606Y5442064D01*
X4516537Y5450377D01*
X4495000Y5453212D01*
D02*
G37*
G36*
X3710000Y5343212D02*
X3688464Y5340377D01*
X3668394Y5332064D01*
X3651161Y5318840D01*
X3637937Y5301606D01*
X3629624Y5281537D01*
X3626789Y5260000D01*
X3629624Y5238463D01*
X3637937Y5218394D01*
X3651161Y5201161D01*
X3668394Y5187937D01*
X3688464Y5179624D01*
X3710000Y5176788D01*
X3731537Y5179624D01*
X3751606Y5187937D01*
X3768840Y5201161D01*
X3782064Y5218394D01*
X3790377Y5238463D01*
X3793212Y5260000D01*
X3790377Y5281537D01*
X3782064Y5301606D01*
X3768840Y5318840D01*
X3751606Y5332064D01*
X3731537Y5340377D01*
X3710000Y5343212D01*
D02*
G37*
G36*
X9249838Y5687553D02*
X8967285Y5405001D01*
X9249838Y5122448D01*
X9272924Y5148772D01*
X9303512Y5194549D01*
X9327862Y5243928D01*
X9345560Y5296063D01*
X9356301Y5350061D01*
X9359902Y5405000D01*
X9356301Y5459939D01*
X9345560Y5513937D01*
X9327862Y5566072D01*
X9303512Y5615451D01*
X9272924Y5661228D01*
X9249838Y5687553D01*
D02*
G37*
G36*
X8628164Y5687554D02*
X8605077Y5661228D01*
X8574490Y5615451D01*
X8550139Y5566072D01*
X8532441Y5513937D01*
X8521701Y5459939D01*
X8518100Y5405000D01*
X8521701Y5350061D01*
X8532441Y5296063D01*
X8550139Y5243928D01*
X8574490Y5194549D01*
X8605077Y5148772D01*
X8628163Y5122447D01*
X8910716Y5405001D01*
X8628164Y5687554D01*
D02*
G37*
G36*
X4650000Y5123725D02*
X4625614Y5118874D01*
X4604940Y5105060D01*
X4591126Y5084386D01*
X4586276Y5060000D01*
X4591126Y5035614D01*
X4604940Y5014940D01*
X4625614Y5001126D01*
X4650000Y4996276D01*
X4674387Y5001126D01*
X4695060Y5014940D01*
X4708874Y5035614D01*
X4713725Y5060000D01*
X4708874Y5084386D01*
X4695060Y5105060D01*
X4674387Y5118874D01*
X4650000Y5123725D01*
D02*
G37*
G36*
X8939001Y5376716D02*
X8656448Y5094163D01*
X8682772Y5071077D01*
X8728550Y5040489D01*
X8777929Y5016138D01*
X8830063Y4998441D01*
X8884062Y4987700D01*
X8939001Y4984099D01*
X8993939Y4987700D01*
X9047938Y4998441D01*
X9100072Y5016138D01*
X9149451Y5040489D01*
X9195229Y5071077D01*
X9221554Y5094163D01*
X8939001Y5376716D01*
D02*
G37*
G36*
X2150001Y5083725D02*
X2125614Y5078874D01*
X2104940Y5065060D01*
X2091127Y5044386D01*
X2086276Y5020000D01*
X2091127Y4995614D01*
X2104940Y4974940D01*
X2125614Y4961126D01*
X2150001Y4956276D01*
X2174387Y4961126D01*
X2195061Y4974940D01*
X2208874Y4995614D01*
X2213725Y5020000D01*
X2208874Y5044386D01*
X2195061Y5065060D01*
X2174387Y5078874D01*
X2150001Y5083725D01*
D02*
G37*
G36*
X4210000Y5163725D02*
X4185614Y5158874D01*
X4164940Y5145060D01*
X4151127Y5124386D01*
X4146276Y5100000D01*
X4149294Y5084825D01*
X4140000Y5073725D01*
X4115614Y5068874D01*
X4094940Y5055060D01*
X4081126Y5034386D01*
X4076276Y5010000D01*
X4081126Y4985614D01*
X4094940Y4964940D01*
X4115614Y4951126D01*
X4140000Y4946276D01*
X4164387Y4951126D01*
X4185060Y4964940D01*
X4198874Y4985614D01*
X4203725Y5010000D01*
X4200706Y5025175D01*
X4210001Y5036276D01*
X4234387Y5041126D01*
X4255061Y5054940D01*
X4268874Y5075614D01*
X4273725Y5100000D01*
X4268874Y5124386D01*
X4255061Y5145060D01*
X4234387Y5158874D01*
X4210000Y5163725D01*
D02*
G37*
G36*
X2540000Y4808529D02*
X2519516Y4804454D01*
X2502150Y4792850D01*
X2497637Y4786097D01*
X2482363D01*
X2477851Y4792850D01*
X2460485Y4804454D01*
X2440000Y4808529D01*
X2419516Y4804454D01*
X2419105Y4804180D01*
X2454143Y4769142D01*
X2440001Y4755000D01*
X2454143Y4740858D01*
X2419106Y4705821D01*
X2419516Y4705546D01*
X2429207Y4703619D01*
X2439891Y4700665D01*
X2438426Y4689822D01*
X2436472Y4680000D01*
X2438426Y4670178D01*
X2439891Y4659335D01*
X2429207Y4656381D01*
X2419516Y4654454D01*
X2419106Y4654180D01*
X2454143Y4619142D01*
X2440001Y4605000D01*
X2454143Y4590858D01*
X2419106Y4555820D01*
X2419516Y4555546D01*
X2440000Y4551471D01*
X2460485Y4555546D01*
X2477851Y4567150D01*
X2482363Y4573903D01*
X2497637D01*
X2502150Y4567150D01*
X2519516Y4555546D01*
X2540000Y4551471D01*
X2560485Y4555546D01*
X2560896Y4555821D01*
X2525858Y4590858D01*
X2540001Y4605000D01*
X2525858Y4619142D01*
X2560895Y4654179D01*
X2560485Y4654454D01*
X2550794Y4656381D01*
X2540109Y4659335D01*
X2541575Y4670178D01*
X2543529Y4680000D01*
X2541575Y4689822D01*
X2540109Y4700665D01*
X2550794Y4703619D01*
X2560485Y4705546D01*
X2560895Y4705821D01*
X2525858Y4740858D01*
X2540001Y4755000D01*
X2525858Y4769142D01*
X2560896Y4804179D01*
X2560485Y4804454D01*
X2540000Y4808529D01*
D02*
G37*
G36*
X200000Y5031122D02*
X166064Y5026654D01*
X134439Y5013555D01*
X107283Y4992717D01*
X86446Y4965561D01*
X73347Y4933937D01*
X68879Y4900000D01*
X73347Y4866063D01*
X86446Y4834439D01*
X107283Y4807283D01*
X134439Y4786445D01*
X166064Y4773346D01*
X200000Y4768878D01*
X233937Y4773346D01*
X265561Y4786445D01*
X292717Y4807283D01*
X313555Y4834439D01*
X326654Y4866063D01*
X331122Y4900000D01*
X326654Y4933937D01*
X313555Y4965561D01*
X292717Y4992717D01*
X265561Y5013555D01*
X233937Y5026654D01*
X200000Y5031122D01*
D02*
G37*
G36*
X2740000Y4863725D02*
X2715614Y4858874D01*
X2694940Y4845060D01*
X2681126Y4824386D01*
X2676276Y4800000D01*
X2681126Y4775614D01*
X2694940Y4754940D01*
X2715614Y4741126D01*
X2740000Y4736276D01*
X2764387Y4741126D01*
X2785060Y4754940D01*
X2798874Y4775614D01*
X2803725Y4800000D01*
X2798874Y4824386D01*
X2785060Y4845060D01*
X2764387Y4858874D01*
X2740000Y4863725D01*
D02*
G37*
G36*
X2589180Y4775895D02*
X2568285Y4755000D01*
X2589180Y4734105D01*
X2589454Y4734516D01*
X2593529Y4755000D01*
X2589454Y4775484D01*
X2589180Y4775895D01*
D02*
G37*
G36*
X2390821Y4775895D02*
X2390547Y4775484D01*
X2386472Y4755000D01*
X2390547Y4734516D01*
X2390821Y4734105D01*
X2411716Y4755000D01*
X2390821Y4775895D01*
D02*
G37*
G36*
X6225001Y4740776D02*
X6201506Y4737683D01*
X6179612Y4728615D01*
X6176817Y4726469D01*
X6225001Y4678286D01*
X6273185Y4726469D01*
X6270389Y4728615D01*
X6248495Y4737683D01*
X6225001Y4740776D01*
D02*
G37*
G36*
X2249990Y4743722D02*
X2225604Y4738872D01*
X2204930Y4725058D01*
X2191116Y4704384D01*
X2186265Y4679998D01*
X2191116Y4655611D01*
X2204930Y4634938D01*
X2225604Y4621124D01*
X2249990Y4616273D01*
X2274376Y4621124D01*
X2295050Y4634938D01*
X2308864Y4655611D01*
X2313714Y4679998D01*
X2308864Y4704384D01*
X2295050Y4725058D01*
X2274376Y4738872D01*
X2249990Y4743722D01*
D02*
G37*
G36*
X6301469Y4698185D02*
X6253285Y4650001D01*
X6301470Y4601816D01*
X6303615Y4604612D01*
X6312684Y4626505D01*
X6315777Y4650000D01*
X6312684Y4673495D01*
X6303615Y4695388D01*
X6301469Y4698185D01*
D02*
G37*
G36*
X6148532D02*
X6146386Y4695388D01*
X6137317Y4673495D01*
X6134224Y4650000D01*
X6137317Y4626505D01*
X6146386Y4604612D01*
X6148531Y4601816D01*
X6196716Y4650001D01*
X6148532Y4698185D01*
D02*
G37*
G36*
X2589180Y4625895D02*
X2568285Y4605000D01*
X2589180Y4584105D01*
X2589454Y4584516D01*
X2593529Y4605000D01*
X2589454Y4625484D01*
X2589180Y4625895D01*
D02*
G37*
G36*
X2390821Y4625895D02*
X2390547Y4625484D01*
X2386472Y4605000D01*
X2390547Y4584516D01*
X2390821Y4584105D01*
X2411716Y4605000D01*
X2390821Y4625895D01*
D02*
G37*
G36*
X6225001Y4621717D02*
X6176815Y4573532D01*
X6179612Y4571386D01*
X6201506Y4562317D01*
X6225001Y4559224D01*
X6248495Y4562317D01*
X6270389Y4571386D01*
X6273186Y4573532D01*
X6225001Y4621717D01*
D02*
G37*
G36*
X3670001Y4688725D02*
X3645614Y4683874D01*
X3624940Y4670060D01*
X3611127Y4649386D01*
X3606276Y4625000D01*
X3611127Y4600614D01*
X3624940Y4579940D01*
X3645614Y4566126D01*
X3670001Y4561276D01*
X3694387Y4566126D01*
X3715061Y4579940D01*
X3717255Y4583225D01*
X3729955D01*
X3734940Y4575764D01*
X3755614Y4561950D01*
X3780001Y4557100D01*
X3804387Y4561950D01*
X3825061Y4575764D01*
X3838874Y4596438D01*
X3843725Y4620824D01*
X3838874Y4645211D01*
X3825061Y4665884D01*
X3804387Y4679698D01*
X3780001Y4684549D01*
X3755614Y4679698D01*
X3734940Y4665884D01*
X3732746Y4662600D01*
X3720046D01*
X3715061Y4670060D01*
X3694387Y4683874D01*
X3670001Y4688725D01*
D02*
G37*
G36*
X8587001Y4854016D02*
X8545834Y4849961D01*
X8506248Y4837953D01*
X8469766Y4818453D01*
X8437790Y4792211D01*
X8411547Y4760234D01*
X8392047Y4723752D01*
X8380039Y4684167D01*
X8375985Y4643000D01*
X8380039Y4601833D01*
X8392047Y4562248D01*
X8411547Y4525766D01*
X8437790Y4493789D01*
X8469766Y4467547D01*
X8506248Y4448047D01*
X8545834Y4436039D01*
X8587001Y4431984D01*
X8628168Y4436039D01*
X8667753Y4448047D01*
X8704235Y4467547D01*
X8736211Y4493789D01*
X8762454Y4525766D01*
X8781954Y4562248D01*
X8793962Y4601833D01*
X8798016Y4643000D01*
X8793962Y4684167D01*
X8781954Y4723752D01*
X8762454Y4760234D01*
X8736211Y4792211D01*
X8704235Y4818453D01*
X8667753Y4837953D01*
X8628168Y4849961D01*
X8587001Y4854016D01*
D02*
G37*
G36*
X7825001D02*
X7783834Y4849961D01*
X7744248Y4837953D01*
X7707766Y4818453D01*
X7675790Y4792211D01*
X7649547Y4760234D01*
X7630047Y4723752D01*
X7618039Y4684167D01*
X7613985Y4643000D01*
X7618039Y4601833D01*
X7630047Y4562248D01*
X7649547Y4525766D01*
X7675790Y4493789D01*
X7707766Y4467547D01*
X7744248Y4448047D01*
X7783834Y4436039D01*
X7825001Y4431984D01*
X7866168Y4436039D01*
X7905753Y4448047D01*
X7942235Y4467547D01*
X7974211Y4493789D01*
X8000454Y4525766D01*
X8019954Y4562248D01*
X8031962Y4601833D01*
X8036016Y4643000D01*
X8031962Y4684167D01*
X8019954Y4723752D01*
X8000454Y4760234D01*
X7974211Y4792211D01*
X7942235Y4818453D01*
X7905753Y4837953D01*
X7866168Y4849961D01*
X7825001Y4854016D01*
D02*
G37*
G36*
X7085589Y4727619D02*
X7055465Y4722645D01*
X7026890Y4711890D01*
X7000961Y4695767D01*
X6978677Y4674895D01*
X6960893Y4650077D01*
X6948292Y4622266D01*
X6941358Y4592532D01*
X6940359Y4562016D01*
X6945333Y4531891D01*
X6956088Y4503316D01*
X6972211Y4477388D01*
X6993083Y4455103D01*
X7017901Y4437319D01*
X7045712Y4424718D01*
X7075446Y4417785D01*
X7105963Y4416786D01*
X7136087Y4421759D01*
X7164662Y4432514D01*
X7190591Y4448638D01*
X7212875Y4469509D01*
X7230659Y4494327D01*
X7243260Y4522138D01*
X7250194Y4551873D01*
X7251193Y4582389D01*
X7246219Y4612513D01*
X7235464Y4641089D01*
X7219341Y4667017D01*
X7198469Y4689301D01*
X7173651Y4707086D01*
X7145840Y4719687D01*
X7116106Y4726620D01*
X7085589Y4727619D01*
D02*
G37*
G36*
X2730000Y4543725D02*
X2705614Y4538874D01*
X2684940Y4525060D01*
X2671126Y4504386D01*
X2666276Y4480000D01*
X2671126Y4455614D01*
X2684940Y4434940D01*
X2705614Y4421126D01*
X2730000Y4416276D01*
X2754387Y4421126D01*
X2775060Y4434940D01*
X2788874Y4455614D01*
X2793725Y4480000D01*
X2788874Y4504386D01*
X2775060Y4525060D01*
X2754387Y4538874D01*
X2730000Y4543725D01*
D02*
G37*
G36*
X3220000Y4313725D02*
X3195614Y4308874D01*
X3174940Y4295060D01*
X3161127Y4274386D01*
X3156276Y4250000D01*
X3161127Y4225614D01*
X3174940Y4204940D01*
X3195614Y4191126D01*
X3220000Y4186276D01*
X3244387Y4191126D01*
X3265061Y4204940D01*
X3278874Y4225614D01*
X3283725Y4250000D01*
X3278874Y4274386D01*
X3265061Y4295060D01*
X3244387Y4308874D01*
X3220000Y4313725D01*
D02*
G37*
G36*
X1380000D02*
X1355614Y4308874D01*
X1334940Y4295060D01*
X1321126Y4274386D01*
X1316276Y4250000D01*
X1321126Y4225614D01*
X1334940Y4204940D01*
X1355614Y4191126D01*
X1380000Y4186276D01*
X1404387Y4191126D01*
X1425060Y4204940D01*
X1438874Y4225614D01*
X1443725Y4250000D01*
X1438874Y4274386D01*
X1425060Y4295060D01*
X1404387Y4308874D01*
X1380000Y4313725D01*
D02*
G37*
G36*
X7100001Y4240776D02*
X7076506Y4237683D01*
X7054612Y4228615D01*
X7051816Y4226469D01*
X7100000Y4178285D01*
X7148185Y4226469D01*
X7145389Y4228615D01*
X7123495Y4237683D01*
X7100001Y4240776D01*
D02*
G37*
G36*
X2320000Y4293725D02*
X2295614Y4288874D01*
X2274940Y4275060D01*
X2261127Y4254386D01*
X2256276Y4230000D01*
X2261127Y4205614D01*
X2274940Y4184940D01*
X2295614Y4171126D01*
X2320000Y4166276D01*
X2344387Y4171126D01*
X2365061Y4184940D01*
X2378874Y4205614D01*
X2383725Y4230000D01*
X2378874Y4254386D01*
X2365061Y4275060D01*
X2344387Y4288874D01*
X2320000Y4293725D01*
D02*
G37*
G36*
X7023532Y4198185D02*
X7021386Y4195388D01*
X7012317Y4173495D01*
X7009224Y4150000D01*
X7012317Y4126505D01*
X7021386Y4104612D01*
X7023531Y4101816D01*
X7071716Y4150001D01*
X7023532Y4198185D01*
D02*
G37*
G36*
X7176469Y4198185D02*
X7128284Y4150001D01*
X7176470Y4101816D01*
X7178615Y4104612D01*
X7187684Y4126505D01*
X7190777Y4150000D01*
X7187684Y4173495D01*
X7178615Y4195388D01*
X7176469Y4198185D01*
D02*
G37*
G36*
X2860000Y4223725D02*
X2835614Y4218874D01*
X2814940Y4205060D01*
X2801126Y4184386D01*
X2796276Y4160000D01*
X2801126Y4135614D01*
X2814940Y4114940D01*
X2835614Y4101126D01*
X2860000Y4096276D01*
X2884387Y4101126D01*
X2905060Y4114940D01*
X2918874Y4135614D01*
X2923725Y4160000D01*
X2918874Y4184386D01*
X2905060Y4205060D01*
X2884387Y4218874D01*
X2860000Y4223725D01*
D02*
G37*
G36*
X200000Y4331122D02*
X166064Y4326654D01*
X134440Y4313555D01*
X107283Y4292717D01*
X86446Y4265561D01*
X73347Y4233937D01*
X68879Y4200000D01*
X73347Y4166064D01*
X86446Y4134440D01*
X107283Y4107283D01*
X134440Y4086445D01*
X166064Y4073346D01*
X200000Y4068879D01*
X233937Y4073346D01*
X265561Y4086445D01*
X292717Y4107283D01*
X313555Y4134440D01*
X326654Y4166064D01*
X331122Y4200000D01*
X326654Y4233937D01*
X313555Y4265561D01*
X292717Y4292717D01*
X265561Y4313555D01*
X233937Y4326654D01*
X200000Y4331122D01*
D02*
G37*
G36*
X7100000Y4121716D02*
X7051815Y4073532D01*
X7054612Y4071386D01*
X7076506Y4062317D01*
X7100001Y4059224D01*
X7123495Y4062317D01*
X7145389Y4071386D01*
X7148185Y4073531D01*
X7100000Y4121716D01*
D02*
G37*
G36*
X6345000Y4270000D02*
X6105001D01*
Y4030000D01*
X6345000D01*
Y4270000D01*
D02*
G37*
G36*
X2240000Y4123725D02*
X2215614Y4118874D01*
X2194940Y4105060D01*
X2181126Y4084386D01*
X2176275Y4060000D01*
X2181126Y4035614D01*
X2194940Y4014940D01*
X2215614Y4001126D01*
X2240000Y3996275D01*
X2264386Y4001126D01*
X2285060Y4014940D01*
X2298874Y4035614D01*
X2303724Y4060000D01*
X2298874Y4084386D01*
X2285060Y4105060D01*
X2264386Y4118874D01*
X2240000Y4123725D01*
D02*
G37*
G36*
X1690000D02*
X1665614Y4118874D01*
X1644940Y4105060D01*
X1631126Y4084386D01*
X1626275Y4060000D01*
X1631126Y4035614D01*
X1644940Y4014940D01*
X1665614Y4001126D01*
X1690000Y3996275D01*
X1714386Y4001126D01*
X1735060Y4014940D01*
X1748874Y4035614D01*
X1753724Y4060000D01*
X1748874Y4084386D01*
X1735060Y4105060D01*
X1714386Y4118874D01*
X1690000Y4123725D01*
D02*
G37*
G36*
X4670000Y4103725D02*
X4645614Y4098874D01*
X4624940Y4085060D01*
X4611126Y4064386D01*
X4606276Y4040000D01*
X4611126Y4015614D01*
X4624940Y3994940D01*
X4645614Y3981126D01*
X4670000Y3976276D01*
X4694387Y3981126D01*
X4715060Y3994940D01*
X4728874Y4015614D01*
X4733725Y4040000D01*
X4728874Y4064386D01*
X4715060Y4085060D01*
X4694387Y4098874D01*
X4670000Y4103725D01*
D02*
G37*
G36*
X4260000Y3993725D02*
X4235614Y3988874D01*
X4214940Y3975060D01*
X4201126Y3954386D01*
X4196276Y3930000D01*
X4201126Y3905614D01*
X4214940Y3884940D01*
X4235614Y3871126D01*
X4260000Y3866275D01*
X4284387Y3871126D01*
X4305060Y3884940D01*
X4318874Y3905614D01*
X4323725Y3930000D01*
X4318874Y3954386D01*
X4305060Y3975060D01*
X4284387Y3988874D01*
X4260000Y3993725D01*
D02*
G37*
G36*
X4050001Y3973725D02*
X4025614Y3968874D01*
X4004940Y3955060D01*
X3991127Y3934386D01*
X3986276Y3910000D01*
X3991127Y3885614D01*
X4004940Y3864940D01*
X4025614Y3851126D01*
X4050001Y3846276D01*
X4074387Y3851126D01*
X4095061Y3864940D01*
X4108874Y3885614D01*
X4113725Y3910000D01*
X4108874Y3934386D01*
X4095061Y3955060D01*
X4074387Y3968874D01*
X4050001Y3973725D01*
D02*
G37*
G36*
X3370000Y3833725D02*
X3345614Y3828874D01*
X3324940Y3815060D01*
X3311126Y3794386D01*
X3306276Y3770000D01*
X3311126Y3745614D01*
X3324940Y3724940D01*
X3345614Y3711126D01*
X3370000Y3706276D01*
X3394387Y3711126D01*
X3415060Y3724940D01*
X3428874Y3745614D01*
X3433725Y3770000D01*
X3428874Y3794386D01*
X3415060Y3815060D01*
X3394387Y3828874D01*
X3370000Y3833725D01*
D02*
G37*
G36*
X6225001Y3740776D02*
X6201506Y3737683D01*
X6179612Y3728615D01*
X6176817Y3726469D01*
X6225001Y3678286D01*
X6273185Y3726469D01*
X6270389Y3728615D01*
X6248495Y3737683D01*
X6225001Y3740776D01*
D02*
G37*
G36*
X8587001Y4092016D02*
X8545834Y4087961D01*
X8506248Y4075953D01*
X8469766Y4056453D01*
X8437790Y4030211D01*
X8411547Y3998234D01*
X8392047Y3961752D01*
X8380039Y3922167D01*
X8375985Y3881000D01*
X8380039Y3839833D01*
X8392047Y3800248D01*
X8411547Y3763766D01*
X8437790Y3731789D01*
X8469766Y3705547D01*
X8506248Y3686047D01*
X8545834Y3674039D01*
X8587001Y3669984D01*
X8628168Y3674039D01*
X8667753Y3686047D01*
X8704235Y3705547D01*
X8736211Y3731789D01*
X8762454Y3763766D01*
X8781954Y3800248D01*
X8793962Y3839833D01*
X8798016Y3881000D01*
X8793962Y3922167D01*
X8781954Y3961752D01*
X8762454Y3998234D01*
X8736211Y4030211D01*
X8704235Y4056453D01*
X8667753Y4075953D01*
X8628168Y4087961D01*
X8587001Y4092016D01*
D02*
G37*
G36*
X7825001D02*
X7783834Y4087961D01*
X7744248Y4075953D01*
X7707766Y4056453D01*
X7675790Y4030211D01*
X7649547Y3998234D01*
X7630047Y3961752D01*
X7618039Y3922167D01*
X7613985Y3881000D01*
X7618039Y3839833D01*
X7630047Y3800248D01*
X7649547Y3763766D01*
X7675790Y3731789D01*
X7707766Y3705547D01*
X7744248Y3686047D01*
X7783834Y3674039D01*
X7825001Y3669984D01*
X7866168Y3674039D01*
X7905753Y3686047D01*
X7942235Y3705547D01*
X7974211Y3731789D01*
X8000454Y3763766D01*
X8019954Y3800248D01*
X8031962Y3839833D01*
X8036016Y3881000D01*
X8031962Y3922167D01*
X8019954Y3961752D01*
X8000454Y3998234D01*
X7974211Y4030211D01*
X7942235Y4056453D01*
X7905753Y4075953D01*
X7866168Y4087961D01*
X7825001Y4092016D01*
D02*
G37*
G36*
X4310001Y3744224D02*
X4285614Y3739374D01*
X4264940Y3725560D01*
X4251127Y3704886D01*
X4246276Y3680500D01*
X4251127Y3656113D01*
X4264940Y3635440D01*
X4285614Y3621626D01*
X4310001Y3616775D01*
X4334387Y3621626D01*
X4355061Y3635440D01*
X4368874Y3656113D01*
X4373725Y3680500D01*
X4368874Y3704886D01*
X4355061Y3725560D01*
X4334387Y3739374D01*
X4310001Y3744224D01*
D02*
G37*
G36*
X4740000Y3743725D02*
X4715614Y3738874D01*
X4694940Y3725060D01*
X4681126Y3704386D01*
X4676275Y3680000D01*
X4681126Y3655614D01*
X4694940Y3634940D01*
X4715614Y3621126D01*
X4740000Y3616275D01*
X4764386Y3621126D01*
X4785060Y3634940D01*
X4798874Y3655614D01*
X4803724Y3680000D01*
X4798874Y3704386D01*
X4785060Y3725060D01*
X4764386Y3738874D01*
X4740000Y3743725D01*
D02*
G37*
G36*
X6301469Y3698185D02*
X6253285Y3650001D01*
X6301470Y3601816D01*
X6303615Y3604612D01*
X6312684Y3626505D01*
X6315777Y3650000D01*
X6312684Y3673495D01*
X6303615Y3695388D01*
X6301469Y3698185D01*
D02*
G37*
G36*
X6148532D02*
X6146386Y3695388D01*
X6137317Y3673495D01*
X6134224Y3650000D01*
X6137317Y3626505D01*
X6146386Y3604612D01*
X6148531Y3601816D01*
X6196716Y3650001D01*
X6148532Y3698185D01*
D02*
G37*
G36*
X6225001Y3621717D02*
X6176815Y3573532D01*
X6179612Y3571386D01*
X6201506Y3562317D01*
X6225001Y3559224D01*
X6248495Y3562317D01*
X6270389Y3571386D01*
X6273186Y3573532D01*
X6225001Y3621717D01*
D02*
G37*
G36*
X7220000Y3770000D02*
X6980001D01*
Y3530000D01*
X7220000D01*
Y3770000D01*
D02*
G37*
G36*
X4130000Y3513725D02*
X4105614Y3508874D01*
X4084940Y3495060D01*
X4071126Y3474386D01*
X4066276Y3450000D01*
X4071126Y3425614D01*
X4084940Y3404940D01*
X4105614Y3391126D01*
X4130000Y3386276D01*
X4154387Y3391126D01*
X4175060Y3404940D01*
X4188874Y3425614D01*
X4193725Y3450000D01*
X4188874Y3474386D01*
X4175060Y3495060D01*
X4154387Y3508874D01*
X4130000Y3513725D01*
D02*
G37*
G36*
X200000Y3631122D02*
X166064Y3626654D01*
X134440Y3613555D01*
X107283Y3592717D01*
X86446Y3565561D01*
X73347Y3533937D01*
X68879Y3500000D01*
X73347Y3466063D01*
X86446Y3434439D01*
X107283Y3407283D01*
X134440Y3386445D01*
X166064Y3373346D01*
X200000Y3368878D01*
X233937Y3373346D01*
X265561Y3386445D01*
X292717Y3407283D01*
X313555Y3434439D01*
X326654Y3466063D01*
X331122Y3500000D01*
X326654Y3533937D01*
X313555Y3565561D01*
X292717Y3592717D01*
X265561Y3613555D01*
X233937Y3626654D01*
X200000Y3631122D01*
D02*
G37*
G36*
X3070000Y3483725D02*
X3045614Y3478874D01*
X3024940Y3465060D01*
X3011127Y3444386D01*
X3006276Y3420000D01*
X3011127Y3395614D01*
X3024940Y3374940D01*
X3045614Y3361126D01*
X3070000Y3356275D01*
X3094387Y3361126D01*
X3115061Y3374940D01*
X3128874Y3395614D01*
X3133725Y3420000D01*
X3128874Y3444386D01*
X3115061Y3465060D01*
X3094387Y3478874D01*
X3070000Y3483725D01*
D02*
G37*
G36*
X2570000Y3473725D02*
X2545614Y3468874D01*
X2524940Y3455060D01*
X2511127Y3434386D01*
X2506276Y3410000D01*
X2511127Y3385614D01*
X2524940Y3364940D01*
X2545614Y3351126D01*
X2570000Y3346276D01*
X2594387Y3351126D01*
X2615061Y3364940D01*
X2628874Y3385614D01*
X2633725Y3410000D01*
X2628874Y3434386D01*
X2615061Y3455060D01*
X2594387Y3468874D01*
X2570000Y3473725D01*
D02*
G37*
G36*
X7100001Y3240776D02*
X7076506Y3237683D01*
X7054612Y3228615D01*
X7051816Y3226469D01*
X7100001Y3178284D01*
X7148185Y3226469D01*
X7145389Y3228615D01*
X7123495Y3237683D01*
X7100001Y3240776D01*
D02*
G37*
G36*
X2690000Y3253725D02*
X2665614Y3248874D01*
X2644940Y3235060D01*
X2631127Y3214387D01*
X2626276Y3190000D01*
X2631127Y3165614D01*
X2644940Y3144940D01*
X2665614Y3131126D01*
X2690000Y3126276D01*
X2714387Y3131126D01*
X2735061Y3144940D01*
X2748874Y3165614D01*
X2753725Y3190000D01*
X2748874Y3214387D01*
X2735061Y3235060D01*
X2714387Y3248874D01*
X2690000Y3253725D01*
D02*
G37*
G36*
X7176470Y3198184D02*
X7128285Y3150000D01*
X7176470Y3101815D01*
X7178615Y3104612D01*
X7187684Y3126505D01*
X7190777Y3150000D01*
X7187684Y3173495D01*
X7178615Y3195388D01*
X7176470Y3198184D01*
D02*
G37*
G36*
X7023532Y3198185D02*
X7021386Y3195388D01*
X7012317Y3173495D01*
X7009224Y3150000D01*
X7012317Y3126505D01*
X7021386Y3104612D01*
X7023532Y3101815D01*
X7071716Y3150000D01*
X7023532Y3198185D01*
D02*
G37*
G36*
X7100001Y3121716D02*
X7051816Y3073531D01*
X7054612Y3071386D01*
X7076506Y3062317D01*
X7100001Y3059224D01*
X7123495Y3062317D01*
X7145389Y3071386D01*
X7148185Y3073531D01*
X7100001Y3121716D01*
D02*
G37*
G36*
X6345000Y3270000D02*
X6105001D01*
Y3030000D01*
X6345000D01*
Y3270000D01*
D02*
G37*
G36*
X2299541Y3088725D02*
X2275155Y3083874D01*
X2254481Y3070060D01*
X2240667Y3049386D01*
X2235816Y3025000D01*
X2240667Y3000614D01*
X2254481Y2979940D01*
X2275155Y2966126D01*
X2299541Y2961276D01*
X2323927Y2966126D01*
X2344601Y2979940D01*
X2358415Y3000614D01*
X2363266Y3025000D01*
X2358415Y3049386D01*
X2344601Y3070060D01*
X2323927Y3083874D01*
X2299541Y3088725D01*
D02*
G37*
G36*
X1650001Y3083725D02*
X1625614Y3078874D01*
X1604940Y3065060D01*
X1591127Y3044386D01*
X1586276Y3020000D01*
X1591127Y2995614D01*
X1604940Y2974940D01*
X1625614Y2961126D01*
X1650001Y2956276D01*
X1674387Y2961126D01*
X1695061Y2974940D01*
X1708874Y2995614D01*
X1713725Y3020000D01*
X1708874Y3044386D01*
X1695061Y3065060D01*
X1674387Y3078874D01*
X1650001Y3083725D01*
D02*
G37*
G36*
X900000Y3063725D02*
X875614Y3058874D01*
X854940Y3045060D01*
X841127Y3024386D01*
X836276Y3000000D01*
X841127Y2975614D01*
X854940Y2954940D01*
X875614Y2941126D01*
X900000Y2936276D01*
X924387Y2941126D01*
X945061Y2954940D01*
X958874Y2975614D01*
X963725Y3000000D01*
X958874Y3024386D01*
X945061Y3045060D01*
X924387Y3058874D01*
X900000Y3063725D01*
D02*
G37*
G36*
X2960000Y3053725D02*
X2935614Y3048874D01*
X2914940Y3035060D01*
X2901127Y3014386D01*
X2896276Y2990000D01*
X2901127Y2965614D01*
X2914940Y2944940D01*
X2935614Y2931126D01*
X2960000Y2926276D01*
X2984387Y2931126D01*
X3005061Y2944940D01*
X3018874Y2965614D01*
X3023725Y2990000D01*
X3018874Y3014386D01*
X3005061Y3035060D01*
X2984387Y3048874D01*
X2960000Y3053725D01*
D02*
G37*
G36*
X8587001Y3350113D02*
X8541913Y3345672D01*
X8498558Y3332520D01*
X8458601Y3311163D01*
X8423579Y3282421D01*
X8394837Y3247399D01*
X8373480Y3207443D01*
X8360329Y3164088D01*
X8355888Y3119000D01*
X8360329Y3073912D01*
X8373480Y3030557D01*
X8394837Y2990601D01*
X8423579Y2955579D01*
X8458601Y2926837D01*
X8498558Y2905480D01*
X8541913Y2892328D01*
X8587001Y2887888D01*
X8632088Y2892328D01*
X8675444Y2905480D01*
X8715400Y2926837D01*
X8750422Y2955579D01*
X8779164Y2990601D01*
X8800521Y3030557D01*
X8813672Y3073912D01*
X8818113Y3119000D01*
X8813672Y3164088D01*
X8800521Y3207443D01*
X8779164Y3247399D01*
X8750422Y3282421D01*
X8715400Y3311163D01*
X8675444Y3332520D01*
X8632088Y3345672D01*
X8587001Y3350113D01*
D02*
G37*
G36*
X7825001D02*
X7779913Y3345672D01*
X7736558Y3332520D01*
X7696601Y3311163D01*
X7661579Y3282421D01*
X7632837Y3247399D01*
X7611480Y3207443D01*
X7598329Y3164088D01*
X7593888Y3119000D01*
X7598329Y3073912D01*
X7611480Y3030557D01*
X7632837Y2990601D01*
X7661579Y2955579D01*
X7696601Y2926837D01*
X7736558Y2905480D01*
X7779913Y2892328D01*
X7825001Y2887888D01*
X7870088Y2892328D01*
X7913444Y2905480D01*
X7953400Y2926837D01*
X7988422Y2955579D01*
X8017164Y2990601D01*
X8038521Y3030557D01*
X8051672Y3073912D01*
X8056113Y3119000D01*
X8051672Y3164088D01*
X8038521Y3207443D01*
X8017164Y3247399D01*
X7988422Y3282421D01*
X7953400Y3311163D01*
X7913444Y3332520D01*
X7870088Y3345672D01*
X7825001Y3350113D01*
D02*
G37*
G36*
X2090000Y2993725D02*
X2065614Y2988874D01*
X2044940Y2975060D01*
X2031126Y2954387D01*
X2026276Y2930000D01*
X2031126Y2905614D01*
X2044940Y2884940D01*
X2065614Y2871126D01*
X2090000Y2866276D01*
X2114387Y2871126D01*
X2135060Y2884940D01*
X2148874Y2905614D01*
X2153725Y2930000D01*
X2148874Y2954387D01*
X2135060Y2975060D01*
X2114387Y2988874D01*
X2090000Y2993725D01*
D02*
G37*
G36*
X1030000D02*
X1005614Y2988874D01*
X984940Y2975060D01*
X971127Y2954387D01*
X966276Y2930000D01*
X971127Y2905614D01*
X984940Y2884940D01*
X1005614Y2871126D01*
X1030000Y2866276D01*
X1054387Y2871126D01*
X1075061Y2884940D01*
X1088874Y2905614D01*
X1093725Y2930000D01*
X1088874Y2954387D01*
X1075061Y2975060D01*
X1054387Y2988874D01*
X1030000Y2993725D01*
D02*
G37*
G36*
X3750000Y2933725D02*
X3725614Y2928874D01*
X3704940Y2915060D01*
X3691126Y2894386D01*
X3686276Y2870000D01*
X3691126Y2845614D01*
X3704940Y2824940D01*
X3725614Y2811126D01*
X3750000Y2806276D01*
X3774387Y2811126D01*
X3795060Y2824940D01*
X3808874Y2845614D01*
X3813725Y2870000D01*
X3808874Y2894386D01*
X3795060Y2915060D01*
X3774387Y2928874D01*
X3750000Y2933725D01*
D02*
G37*
G36*
X900000Y2923725D02*
X875614Y2918874D01*
X854940Y2905060D01*
X841127Y2884386D01*
X836276Y2860000D01*
X841127Y2835614D01*
X854940Y2814940D01*
X875614Y2801126D01*
X900000Y2796276D01*
X924387Y2801126D01*
X945061Y2814940D01*
X958874Y2835614D01*
X963725Y2860000D01*
X958874Y2884386D01*
X945061Y2905060D01*
X924387Y2918874D01*
X900000Y2923725D01*
D02*
G37*
G36*
X1970000Y2893725D02*
X1945614Y2888874D01*
X1924940Y2875060D01*
X1911126Y2854386D01*
X1906276Y2830000D01*
X1911126Y2805614D01*
X1924940Y2784940D01*
X1945614Y2771126D01*
X1970000Y2766276D01*
X1994387Y2771126D01*
X2015060Y2784940D01*
X2028874Y2805614D01*
X2033725Y2830000D01*
X2028874Y2854386D01*
X2015060Y2875060D01*
X1994387Y2888874D01*
X1970000Y2893725D01*
D02*
G37*
G36*
X1810000D02*
X1785614Y2888874D01*
X1764940Y2875060D01*
X1751127Y2854386D01*
X1746276Y2830000D01*
X1751127Y2805614D01*
X1764940Y2784940D01*
X1785614Y2771126D01*
X1810000Y2766276D01*
X1834387Y2771126D01*
X1855061Y2784940D01*
X1868874Y2805614D01*
X1873725Y2830000D01*
X1868874Y2854386D01*
X1855061Y2875060D01*
X1834387Y2888874D01*
X1810000Y2893725D01*
D02*
G37*
G36*
X2369990Y2883726D02*
X2345603Y2878875D01*
X2324930Y2865062D01*
X2311116Y2844388D01*
X2306265Y2820001D01*
X2311116Y2795615D01*
X2324930Y2774941D01*
X2345603Y2761128D01*
X2369990Y2756277D01*
X2394376Y2761128D01*
X2415050Y2774941D01*
X2428864Y2795615D01*
X2433714Y2820001D01*
X2428864Y2844388D01*
X2415050Y2865062D01*
X2394376Y2878875D01*
X2369990Y2883726D01*
D02*
G37*
G36*
X1030000Y2853725D02*
X1005614Y2848874D01*
X984940Y2835060D01*
X971127Y2814386D01*
X966276Y2790000D01*
X971127Y2765614D01*
X984940Y2744940D01*
X1005614Y2731126D01*
X1030000Y2726275D01*
X1054387Y2731126D01*
X1075061Y2744940D01*
X1088874Y2765614D01*
X1093725Y2790000D01*
X1088874Y2814386D01*
X1075061Y2835060D01*
X1054387Y2848874D01*
X1030000Y2853725D01*
D02*
G37*
G36*
X6225001Y2740776D02*
X6201506Y2737683D01*
X6179612Y2728615D01*
X6176817Y2726469D01*
X6225001Y2678285D01*
X6273185Y2726469D01*
X6270389Y2728615D01*
X6248495Y2737683D01*
X6225001Y2740776D01*
D02*
G37*
G36*
X200000Y2931122D02*
X166064Y2926654D01*
X134440Y2913555D01*
X107283Y2892717D01*
X86446Y2865561D01*
X73347Y2833937D01*
X68879Y2800000D01*
X73347Y2766063D01*
X86446Y2734439D01*
X107283Y2707283D01*
X134440Y2686445D01*
X166064Y2673346D01*
X200000Y2668878D01*
X233937Y2673346D01*
X265561Y2686445D01*
X292717Y2707283D01*
X313555Y2734439D01*
X326654Y2766063D01*
X331122Y2800000D01*
X326654Y2833937D01*
X313555Y2865561D01*
X292717Y2892717D01*
X265561Y2913555D01*
X233937Y2926654D01*
X200000Y2931122D01*
D02*
G37*
G36*
X6301469Y2698184D02*
X6253285Y2650001D01*
X6301470Y2601816D01*
X6303615Y2604612D01*
X6312684Y2626505D01*
X6315777Y2650000D01*
X6312684Y2673495D01*
X6303615Y2695388D01*
X6301469Y2698184D01*
D02*
G37*
G36*
X6148532Y2698185D02*
X6146386Y2695388D01*
X6137317Y2673495D01*
X6134224Y2650000D01*
X6137317Y2626505D01*
X6146386Y2604612D01*
X6148532Y2601815D01*
X6196717Y2650001D01*
X6148532Y2698185D01*
D02*
G37*
G36*
X1800714Y2714987D02*
X1776328Y2710137D01*
X1755654Y2696323D01*
X1741840Y2675649D01*
X1736990Y2651263D01*
X1741840Y2626877D01*
X1755654Y2606203D01*
X1776328Y2592389D01*
X1800714Y2587538D01*
X1825100Y2592389D01*
X1845774Y2606203D01*
X1859588Y2626877D01*
X1864439Y2651263D01*
X1859588Y2675649D01*
X1845774Y2696323D01*
X1825100Y2710137D01*
X1800714Y2714987D01*
D02*
G37*
G36*
X6225001Y2621716D02*
X6176816Y2573531D01*
X6179612Y2571386D01*
X6201506Y2562317D01*
X6225001Y2559224D01*
X6248495Y2562317D01*
X6270389Y2571386D01*
X6273186Y2573532D01*
X6225001Y2621716D01*
D02*
G37*
G36*
X7220000Y2770000D02*
X6980001D01*
Y2530000D01*
X7220000D01*
Y2770000D01*
D02*
G37*
G36*
X5400000Y2878212D02*
X5378463Y2875377D01*
X5358394Y2867064D01*
X5341161Y2853840D01*
X5327937Y2836606D01*
X5319624Y2816537D01*
X5316788Y2795000D01*
X5319310Y2775844D01*
Y2749154D01*
X5316788Y2730000D01*
X5319310Y2710846D01*
Y2684156D01*
X5316788Y2665000D01*
X5319310Y2645844D01*
Y2619154D01*
X5316788Y2600000D01*
X5319624Y2578463D01*
X5327937Y2558394D01*
X5341161Y2541161D01*
X5358394Y2527937D01*
X5378463Y2519624D01*
X5400000Y2516788D01*
X5421537Y2519624D01*
X5441606Y2527937D01*
X5458840Y2541161D01*
X5472064Y2558394D01*
X5480377Y2578463D01*
X5483212Y2600000D01*
X5480691Y2619154D01*
Y2645848D01*
X5483212Y2665000D01*
X5480691Y2684152D01*
Y2710846D01*
X5483212Y2730000D01*
X5480691Y2749154D01*
Y2775848D01*
X5483212Y2795000D01*
X5480377Y2816537D01*
X5472064Y2836606D01*
X5458840Y2853840D01*
X5441606Y2867064D01*
X5421537Y2875377D01*
X5400000Y2878212D01*
D02*
G37*
G36*
X5200000D02*
X5178463Y2875377D01*
X5158394Y2867064D01*
X5141160Y2853840D01*
X5127936Y2836606D01*
X5119623Y2816537D01*
X5116788Y2795000D01*
X5119310Y2775844D01*
Y2749156D01*
X5116788Y2730000D01*
X5119310Y2710844D01*
Y2684156D01*
X5116788Y2665000D01*
X5119310Y2645844D01*
Y2619154D01*
X5116788Y2600000D01*
X5119624Y2578463D01*
X5127937Y2558394D01*
X5141161Y2541161D01*
X5158394Y2527937D01*
X5178463Y2519624D01*
X5200000Y2516788D01*
X5221537Y2519624D01*
X5241606Y2527937D01*
X5258840Y2541161D01*
X5272064Y2558394D01*
X5280377Y2578463D01*
X5283212Y2600000D01*
X5280690Y2619154D01*
Y2645848D01*
X5283212Y2665000D01*
X5280690Y2684152D01*
Y2710848D01*
X5283212Y2730000D01*
X5280690Y2749152D01*
Y2775848D01*
X5283212Y2795000D01*
X5280377Y2816537D01*
X5272064Y2836606D01*
X5258840Y2853840D01*
X5241606Y2867064D01*
X5221537Y2875377D01*
X5200000Y2878212D01*
D02*
G37*
G36*
X4350000Y3350980D02*
X4330491Y3347099D01*
X4313952Y3336048D01*
X4273953Y3296048D01*
X4262902Y3279509D01*
X4259021Y3260000D01*
X4259021Y2660000D01*
X4262901Y2640491D01*
X4273952Y2623952D01*
X4343952Y2553952D01*
X4360491Y2542901D01*
X4380000Y2539021D01*
X4943950D01*
X4958394Y2527937D01*
X4978463Y2519624D01*
X5000000Y2516788D01*
X5021537Y2519624D01*
X5041606Y2527937D01*
X5058840Y2541161D01*
X5072064Y2558394D01*
X5080377Y2578463D01*
X5083212Y2600000D01*
X5080980Y2616957D01*
Y2648047D01*
X5083212Y2665000D01*
X5080980Y2681953D01*
Y2713043D01*
X5083212Y2730000D01*
X5080980Y2746957D01*
Y2778047D01*
X5083212Y2795000D01*
X5080980Y2811953D01*
Y2860001D01*
X5077099Y2879510D01*
X5066048Y2896049D01*
X4820281Y3141815D01*
X4822758Y3154272D01*
X4831606Y3157937D01*
X4848840Y3171161D01*
X4862064Y3188394D01*
X4870377Y3208463D01*
X4873212Y3230000D01*
X4870377Y3251537D01*
X4862064Y3271606D01*
X4848840Y3288840D01*
X4831606Y3302064D01*
X4811537Y3310377D01*
X4790000Y3313212D01*
X4778649Y3311718D01*
X4777099Y3319509D01*
X4766048Y3336048D01*
X4749509Y3347099D01*
X4730000Y3350979D01*
X4350000Y3350980D01*
D02*
G37*
G36*
X9325000Y3265000D02*
X9025000D01*
Y2894999D01*
X8995000D01*
Y2634999D01*
X9025000D01*
Y2465000D01*
X9325000D01*
Y2634999D01*
X9355000D01*
Y2894999D01*
X9325000D01*
Y3265000D01*
D02*
G37*
G36*
X1750000Y2573725D02*
X1725614Y2568874D01*
X1704940Y2555060D01*
X1691126Y2534386D01*
X1686276Y2510000D01*
X1691126Y2485614D01*
X1704940Y2464940D01*
X1725614Y2451126D01*
X1750000Y2446276D01*
X1774387Y2451126D01*
X1795060Y2464940D01*
X1808874Y2485614D01*
X1813725Y2510000D01*
X1808874Y2534386D01*
X1795060Y2555060D01*
X1774387Y2568874D01*
X1750000Y2573725D01*
D02*
G37*
G36*
X1380000Y2543725D02*
X1355614Y2538874D01*
X1334940Y2525060D01*
X1321126Y2504386D01*
X1316276Y2480000D01*
X1321126Y2455614D01*
X1334940Y2434940D01*
X1355614Y2421126D01*
X1380000Y2416276D01*
X1404387Y2421126D01*
X1425060Y2434940D01*
X1438874Y2455614D01*
X1443725Y2480000D01*
X1438874Y2504386D01*
X1425060Y2525060D01*
X1404387Y2538874D01*
X1380000Y2543725D01*
D02*
G37*
G36*
X180000Y2503725D02*
X155614Y2498874D01*
X134940Y2485060D01*
X121127Y2464386D01*
X116276Y2440000D01*
X121127Y2415614D01*
X134940Y2394940D01*
X155614Y2381126D01*
X180000Y2376276D01*
X204387Y2381126D01*
X225061Y2394940D01*
X238874Y2415614D01*
X243725Y2440000D01*
X238874Y2464386D01*
X225061Y2485060D01*
X204387Y2498874D01*
X180000Y2503725D01*
D02*
G37*
G36*
X1160000Y2443725D02*
X1135614Y2438874D01*
X1114940Y2425060D01*
X1101127Y2404386D01*
X1096276Y2380000D01*
X1101127Y2355614D01*
X1114940Y2334940D01*
X1135614Y2321126D01*
X1160000Y2316276D01*
X1184387Y2321126D01*
X1205061Y2334940D01*
X1218874Y2355614D01*
X1223725Y2380000D01*
X1218874Y2404386D01*
X1205061Y2425060D01*
X1184387Y2438874D01*
X1160000Y2443725D01*
D02*
G37*
G36*
X2759988Y2703725D02*
X2735602Y2698874D01*
X2714928Y2685061D01*
X2701114Y2664387D01*
X2696264Y2640001D01*
X2701114Y2615614D01*
X2714928Y2594940D01*
X2735602Y2581127D01*
X2757140Y2576843D01*
X2760016Y2576227D01*
X2766679Y2564658D01*
X2763764Y2550000D01*
X2768614Y2525614D01*
X2782428Y2504940D01*
X2794940Y2496580D01*
Y2495060D01*
X2781126Y2474386D01*
X2776276Y2450000D01*
X2780198Y2430283D01*
X2773114Y2428874D01*
X2752440Y2415060D01*
X2738626Y2394386D01*
X2733776Y2370000D01*
X2738626Y2345614D01*
X2752440Y2324940D01*
X2773114Y2311126D01*
X2797500Y2306276D01*
X2821887Y2311126D01*
X2842560Y2324940D01*
X2856374Y2345614D01*
X2861225Y2370000D01*
X2857303Y2389717D01*
X2864386Y2391126D01*
X2885060Y2404940D01*
X2898874Y2425614D01*
X2903725Y2450000D01*
X2898874Y2474386D01*
X2885060Y2495060D01*
X2872548Y2503420D01*
Y2504940D01*
X2886362Y2525614D01*
X2891213Y2550000D01*
X2886362Y2574386D01*
X2872548Y2595060D01*
X2851874Y2608874D01*
X2830337Y2613158D01*
X2827460Y2613774D01*
X2820797Y2625342D01*
X2823713Y2640001D01*
X2818862Y2664387D01*
X2805048Y2685061D01*
X2784374Y2698874D01*
X2759988Y2703725D01*
D02*
G37*
G36*
X1590000Y2333725D02*
X1565614Y2328874D01*
X1544940Y2315060D01*
X1531126Y2294386D01*
X1526276Y2270000D01*
X1531126Y2245614D01*
X1544940Y2224940D01*
X1565614Y2211126D01*
X1590000Y2206275D01*
X1614387Y2211126D01*
X1635060Y2224940D01*
X1648874Y2245614D01*
X1653725Y2270000D01*
X1648874Y2294386D01*
X1635060Y2315060D01*
X1614387Y2328874D01*
X1590000Y2333725D01*
D02*
G37*
G36*
X7100001Y2240776D02*
X7076506Y2237683D01*
X7054612Y2228615D01*
X7051816Y2226469D01*
X7100001Y2178284D01*
X7148185Y2226469D01*
X7145389Y2228615D01*
X7123495Y2237683D01*
X7100001Y2240776D01*
D02*
G37*
G36*
X1430000Y2286225D02*
X1405614Y2281374D01*
X1384940Y2267560D01*
X1371127Y2246886D01*
X1366276Y2222500D01*
X1371127Y2198114D01*
X1384940Y2177440D01*
X1405614Y2163626D01*
X1430000Y2158775D01*
X1454387Y2163626D01*
X1475061Y2177440D01*
X1488874Y2198114D01*
X1493725Y2222500D01*
X1488874Y2246886D01*
X1475061Y2267560D01*
X1454387Y2281374D01*
X1430000Y2286225D01*
D02*
G37*
G36*
X1160000Y2283725D02*
X1135614Y2278874D01*
X1114940Y2265060D01*
X1101127Y2244386D01*
X1096276Y2220000D01*
X1101127Y2195614D01*
X1114940Y2174940D01*
X1135614Y2161126D01*
X1160000Y2156276D01*
X1184387Y2161126D01*
X1205061Y2174940D01*
X1218874Y2195614D01*
X1223725Y2220000D01*
X1218874Y2244386D01*
X1205061Y2265060D01*
X1184387Y2278874D01*
X1160000Y2283725D01*
D02*
G37*
G36*
X8587001Y2568016D02*
X8545834Y2563961D01*
X8506248Y2551953D01*
X8469766Y2532453D01*
X8437790Y2506211D01*
X8411547Y2474234D01*
X8392047Y2437752D01*
X8380039Y2398167D01*
X8375985Y2357000D01*
X8380039Y2315833D01*
X8392047Y2276248D01*
X8411547Y2239766D01*
X8437790Y2207789D01*
X8469766Y2181547D01*
X8506248Y2162047D01*
X8545834Y2150039D01*
X8587001Y2145984D01*
X8628168Y2150039D01*
X8667753Y2162047D01*
X8704235Y2181547D01*
X8736211Y2207789D01*
X8762454Y2239766D01*
X8781954Y2276248D01*
X8793962Y2315833D01*
X8798016Y2357000D01*
X8793962Y2398167D01*
X8781954Y2437752D01*
X8762454Y2474234D01*
X8736211Y2506211D01*
X8704235Y2532453D01*
X8667753Y2551953D01*
X8628168Y2563961D01*
X8587001Y2568016D01*
D02*
G37*
G36*
X7825001D02*
X7783834Y2563961D01*
X7744248Y2551953D01*
X7707766Y2532453D01*
X7675790Y2506211D01*
X7649547Y2474234D01*
X7630047Y2437752D01*
X7618039Y2398167D01*
X7613985Y2357000D01*
X7618039Y2315833D01*
X7630047Y2276248D01*
X7649547Y2239766D01*
X7675790Y2207789D01*
X7707766Y2181547D01*
X7744248Y2162047D01*
X7783834Y2150039D01*
X7825001Y2145984D01*
X7866168Y2150039D01*
X7905753Y2162047D01*
X7942235Y2181547D01*
X7974211Y2207789D01*
X8000454Y2239766D01*
X8019954Y2276248D01*
X8031962Y2315833D01*
X8036016Y2357000D01*
X8031962Y2398167D01*
X8019954Y2437752D01*
X8000454Y2474234D01*
X7974211Y2506211D01*
X7942235Y2532453D01*
X7905753Y2551953D01*
X7866168Y2563961D01*
X7825001Y2568016D01*
D02*
G37*
G36*
X7176470Y2198184D02*
X7128285Y2150000D01*
X7176470Y2101815D01*
X7178615Y2104612D01*
X7187684Y2126505D01*
X7190777Y2150000D01*
X7187684Y2173495D01*
X7178615Y2195388D01*
X7176470Y2198184D01*
D02*
G37*
G36*
X7023532Y2198185D02*
X7021386Y2195388D01*
X7012317Y2173495D01*
X7009224Y2150000D01*
X7012317Y2126505D01*
X7021386Y2104612D01*
X7023532Y2101815D01*
X7071716Y2150000D01*
X7023532Y2198185D01*
D02*
G37*
G36*
X550000Y2221225D02*
X525614Y2216374D01*
X504940Y2202560D01*
X491127Y2181886D01*
X486276Y2157500D01*
X491127Y2133114D01*
X504940Y2112440D01*
X525614Y2098626D01*
X550000Y2093776D01*
X574387Y2098626D01*
X595061Y2112440D01*
X608874Y2133114D01*
X613725Y2157500D01*
X608874Y2181886D01*
X595061Y2202560D01*
X574387Y2216374D01*
X550000Y2221225D01*
D02*
G37*
G36*
X7100001Y2121716D02*
X7051816Y2073531D01*
X7054612Y2071385D01*
X7076506Y2062317D01*
X7100001Y2059224D01*
X7123495Y2062317D01*
X7145389Y2071385D01*
X7148185Y2073531D01*
X7100001Y2121716D01*
D02*
G37*
G36*
X6345000Y2270000D02*
X6105001D01*
Y2030000D01*
X6345000D01*
Y2270000D01*
D02*
G37*
G36*
X2847500Y2153725D02*
X2823114Y2148874D01*
X2802440Y2135060D01*
X2788626Y2114386D01*
X2783776Y2090000D01*
X2788626Y2065614D01*
X2802440Y2044940D01*
X2823114Y2031126D01*
X2847500Y2026276D01*
X2871887Y2031126D01*
X2892560Y2044940D01*
X2906374Y2065614D01*
X2911225Y2090000D01*
X2906374Y2114386D01*
X2892560Y2135060D01*
X2871887Y2148874D01*
X2847500Y2153725D01*
D02*
G37*
G36*
X1756021Y2142245D02*
X1731635Y2137395D01*
X1710961Y2123581D01*
X1697147Y2102907D01*
X1692296Y2078521D01*
X1697147Y2054134D01*
X1710961Y2033460D01*
X1731635Y2019647D01*
X1756021Y2014796D01*
X1780407Y2019647D01*
X1801081Y2033460D01*
X1814895Y2054134D01*
X1819745Y2078521D01*
X1814895Y2102907D01*
X1801081Y2123581D01*
X1780407Y2137395D01*
X1756021Y2142245D01*
D02*
G37*
G36*
X1509991Y1973728D02*
X1485605Y1968877D01*
X1464931Y1955063D01*
X1451117Y1934390D01*
X1448424Y1920846D01*
X1427390Y1925030D01*
X1403004Y1920179D01*
X1382330Y1906365D01*
X1368516Y1885691D01*
X1363666Y1861305D01*
X1368516Y1836919D01*
X1382330Y1816245D01*
X1403004Y1802431D01*
X1427390Y1797581D01*
X1451776Y1802431D01*
X1472450Y1816245D01*
X1486264Y1836919D01*
X1488958Y1850462D01*
X1509991Y1846279D01*
X1534378Y1851129D01*
X1555051Y1864943D01*
X1568865Y1885617D01*
X1573716Y1910003D01*
X1568865Y1934390D01*
X1555051Y1955063D01*
X1534378Y1968877D01*
X1509991Y1973728D01*
D02*
G37*
G36*
X550000Y2043725D02*
X525614Y2038874D01*
X504940Y2025060D01*
X491127Y2004386D01*
X486276Y1980000D01*
X491127Y1955614D01*
X504940Y1934940D01*
X525614Y1921126D01*
X550000Y1916276D01*
X574387Y1921126D01*
X595061Y1934940D01*
X608874Y1955614D01*
X613725Y1980000D01*
X608874Y2004386D01*
X595061Y2025060D01*
X574387Y2038874D01*
X550000Y2043725D01*
D02*
G37*
G36*
X2847500Y2003725D02*
X2823114Y1998874D01*
X2802440Y1985060D01*
X2788626Y1964386D01*
X2783776Y1940000D01*
X2788626Y1915614D01*
X2802440Y1894940D01*
X2823114Y1881126D01*
X2847500Y1876276D01*
X2871887Y1881126D01*
X2892560Y1894940D01*
X2906374Y1915614D01*
X2911225Y1940000D01*
X2906374Y1964386D01*
X2892560Y1985060D01*
X2871887Y1998874D01*
X2847500Y2003725D01*
D02*
G37*
G36*
X3290001Y2223725D02*
X3265614Y2218874D01*
X3244940Y2205060D01*
X3231127Y2184386D01*
X3226276Y2160000D01*
X3231127Y2135614D01*
X3244940Y2114940D01*
X3265614Y2101126D01*
X3271176Y2100020D01*
X3271385Y2099496D01*
X3272517Y2086804D01*
X3254940Y2075060D01*
X3241127Y2054386D01*
X3236276Y2030000D01*
X3241127Y2005614D01*
X3254940Y1984940D01*
X3275614Y1971126D01*
X3277335Y1970784D01*
X3279813Y1958328D01*
X3274928Y1955063D01*
X3261114Y1934390D01*
X3256263Y1910003D01*
X3261114Y1885617D01*
X3274928Y1864943D01*
X3295601Y1851129D01*
X3319988Y1846279D01*
X3344374Y1851129D01*
X3365048Y1864943D01*
X3378862Y1885617D01*
X3383712Y1910003D01*
X3378862Y1934390D01*
X3365048Y1955063D01*
X3344374Y1968877D01*
X3342653Y1969220D01*
X3340175Y1981675D01*
X3345061Y1984940D01*
X3358874Y2005614D01*
X3363725Y2030000D01*
X3358874Y2054386D01*
X3345061Y2075060D01*
X3324387Y2088874D01*
X3318825Y2089980D01*
X3318616Y2090504D01*
X3317484Y2103196D01*
X3335061Y2114940D01*
X3348874Y2135614D01*
X3353725Y2160000D01*
X3348874Y2184386D01*
X3335061Y2205060D01*
X3314387Y2218874D01*
X3290001Y2223725D01*
D02*
G37*
G36*
X2260000Y1903725D02*
X2235614Y1898874D01*
X2214940Y1885060D01*
X2201126Y1864386D01*
X2196276Y1840000D01*
X2201126Y1815614D01*
X2214940Y1794940D01*
X2235614Y1781126D01*
X2260000Y1776276D01*
X2284387Y1781126D01*
X2305060Y1794940D01*
X2318874Y1815614D01*
X2323725Y1840000D01*
X2318874Y1864386D01*
X2305060Y1885060D01*
X2284387Y1898874D01*
X2260000Y1903725D01*
D02*
G37*
G36*
X2550000Y1873725D02*
X2525614Y1868874D01*
X2504940Y1855060D01*
X2491127Y1834386D01*
X2486276Y1810000D01*
X2491127Y1785614D01*
X2504940Y1764940D01*
X2525614Y1751126D01*
X2550000Y1746276D01*
X2574387Y1751126D01*
X2595061Y1764940D01*
X2608874Y1785614D01*
X2613725Y1810000D01*
X2608874Y1834386D01*
X2595061Y1855060D01*
X2574387Y1868874D01*
X2550000Y1873725D01*
D02*
G37*
G36*
X1850000Y1863725D02*
X1825614Y1858874D01*
X1804940Y1845060D01*
X1791126Y1824386D01*
X1786276Y1800000D01*
X1791126Y1775614D01*
X1804940Y1754940D01*
X1825614Y1741126D01*
X1850000Y1736276D01*
X1874387Y1741126D01*
X1895060Y1754940D01*
X1908874Y1775614D01*
X1913725Y1800000D01*
X1908874Y1824386D01*
X1895060Y1845060D01*
X1874387Y1858874D01*
X1850000Y1863725D01*
D02*
G37*
G36*
X940000Y1823725D02*
X915614Y1818874D01*
X894940Y1805060D01*
X881127Y1784386D01*
X876276Y1760000D01*
X881127Y1735614D01*
X894940Y1714940D01*
X915614Y1701126D01*
X940000Y1696275D01*
X964387Y1701126D01*
X985061Y1714940D01*
X998874Y1735614D01*
X1003725Y1760000D01*
X998874Y1784386D01*
X985061Y1805060D01*
X964387Y1818874D01*
X940000Y1823725D01*
D02*
G37*
G36*
X760001D02*
X735614Y1818874D01*
X714940Y1805060D01*
X701127Y1784386D01*
X696276Y1760000D01*
X701127Y1735614D01*
X714940Y1714940D01*
X735614Y1701126D01*
X760001Y1696275D01*
X784387Y1701126D01*
X805061Y1714940D01*
X818874Y1735614D01*
X823725Y1760000D01*
X818874Y1784386D01*
X805061Y1805060D01*
X784387Y1818874D01*
X760001Y1823725D01*
D02*
G37*
G36*
X8939001Y2015901D02*
X8884062Y2012300D01*
X8830063Y2001559D01*
X8777929Y1983862D01*
X8728550Y1959511D01*
X8682772Y1928923D01*
X8656448Y1905838D01*
X8939001Y1623284D01*
X9221554Y1905837D01*
X9195229Y1928923D01*
X9149451Y1959511D01*
X9100072Y1983862D01*
X9047938Y2001559D01*
X8993939Y2012300D01*
X8939001Y2015901D01*
D02*
G37*
G36*
X6225001Y1750863D02*
X6198895Y1747426D01*
X6174569Y1737350D01*
X6153680Y1721321D01*
X6137651Y1700431D01*
X6127575Y1676105D01*
X6124138Y1650000D01*
X6127575Y1623895D01*
X6137651Y1599569D01*
X6153680Y1578679D01*
X6174569Y1562650D01*
X6198895Y1552574D01*
X6225001Y1549137D01*
X6251106Y1552574D01*
X6275432Y1562650D01*
X6296321Y1578679D01*
X6312350Y1599569D01*
X6322426Y1623895D01*
X6325863Y1650000D01*
X6322426Y1676105D01*
X6312350Y1700431D01*
X6296321Y1721321D01*
X6275432Y1737350D01*
X6251106Y1747426D01*
X6225001Y1750863D01*
D02*
G37*
G36*
X3230000Y1673725D02*
X3205614Y1668874D01*
X3184940Y1655060D01*
X3171126Y1634386D01*
X3166276Y1610000D01*
X3171126Y1585614D01*
X3184940Y1564940D01*
X3205614Y1551126D01*
X3230000Y1546276D01*
X3254387Y1551126D01*
X3275061Y1564940D01*
X3288874Y1585614D01*
X3293725Y1610000D01*
X3288874Y1634386D01*
X3275061Y1655060D01*
X3254387Y1668874D01*
X3230000Y1673725D01*
D02*
G37*
G36*
X860001Y1580776D02*
X836506Y1577683D01*
X814613Y1568615D01*
X795812Y1554189D01*
X788005Y1544014D01*
X771997D01*
X764189Y1554189D01*
X745389Y1568615D01*
X723495Y1577683D01*
X700001Y1580776D01*
X676506Y1577683D01*
X654612Y1568615D01*
X635812Y1554189D01*
X621386Y1535388D01*
X612318Y1513495D01*
X609224Y1490000D01*
X612318Y1466505D01*
X621386Y1444612D01*
X635812Y1425811D01*
X654612Y1411386D01*
X676506Y1402317D01*
X700001Y1399224D01*
X723495Y1402317D01*
X745389Y1411386D01*
X764189Y1425811D01*
X771997Y1435986D01*
X788005D01*
X795812Y1425811D01*
X814613Y1411386D01*
X836506Y1402317D01*
X860001Y1399224D01*
X883496Y1402317D01*
X905389Y1411386D01*
X924189Y1425811D01*
X938615Y1444612D01*
X947684Y1466505D01*
X950777Y1490000D01*
X947684Y1513495D01*
X938615Y1535388D01*
X924189Y1554189D01*
X905389Y1568615D01*
X883496Y1577683D01*
X860001Y1580776D01*
D02*
G37*
G36*
X7220000Y1770000D02*
X6980001D01*
Y1530000D01*
X7220000D01*
Y1770000D01*
D02*
G37*
G36*
X4280000Y1643725D02*
X4255614Y1638874D01*
X4234940Y1625060D01*
X4221126Y1604386D01*
X4216276Y1580000D01*
X4221126Y1555614D01*
X4234940Y1534940D01*
X4255614Y1521126D01*
X4280000Y1516276D01*
X4304387Y1521126D01*
X4325060Y1534940D01*
X4338874Y1555614D01*
X4343725Y1580000D01*
X4338874Y1604386D01*
X4325060Y1625060D01*
X4304387Y1638874D01*
X4280000Y1643725D01*
D02*
G37*
G36*
X1200001Y1610822D02*
X1166675Y1607540D01*
X1134630Y1597819D01*
X1105097Y1582033D01*
X1094746Y1573539D01*
X1200001Y1468284D01*
X1305255Y1573539D01*
X1294904Y1582033D01*
X1265372Y1597819D01*
X1233326Y1607540D01*
X1200001Y1610822D01*
D02*
G37*
G36*
X360001D02*
X326675Y1607540D01*
X294630Y1597819D01*
X265097Y1582033D01*
X254746Y1573539D01*
X360001Y1468284D01*
X465255Y1573539D01*
X454905Y1582033D01*
X425372Y1597819D01*
X393327Y1607540D01*
X360001Y1610822D01*
D02*
G37*
G36*
X1333540Y1545254D02*
X1214143Y1425858D01*
X1200001Y1440000D01*
X1185858Y1425858D01*
X1066462Y1545254D01*
X1057967Y1534904D01*
X1042181Y1505371D01*
X1032460Y1473326D01*
X1029178Y1440000D01*
Y1340000D01*
X1029573Y1335989D01*
X1017119Y1332869D01*
X1009880Y1350345D01*
X1009337Y1351053D01*
X968285Y1310000D01*
X1009338Y1268948D01*
X1009880Y1269655D01*
X1017941Y1289116D01*
X1020036Y1305028D01*
X1032460Y1306674D01*
X1042181Y1274629D01*
X1057967Y1245096D01*
X1066462Y1234746D01*
X1185858Y1354142D01*
X1200001Y1340000D01*
X1214143Y1354142D01*
X1333540Y1234746D01*
X1342034Y1245096D01*
X1357820Y1274629D01*
X1367541Y1306674D01*
X1370823Y1340000D01*
Y1440000D01*
X1367541Y1473326D01*
X1357820Y1505371D01*
X1342034Y1534904D01*
X1333540Y1545254D01*
D02*
G37*
G36*
X2542730Y1506454D02*
X2518344Y1501604D01*
X2497670Y1487790D01*
X2483856Y1467116D01*
X2479005Y1442730D01*
X2483856Y1418343D01*
X2497670Y1397670D01*
X2518344Y1383856D01*
X2542730Y1379005D01*
X2567116Y1383856D01*
X2587790Y1397670D01*
X2601604Y1418343D01*
X2606455Y1442730D01*
X2601604Y1467116D01*
X2587790Y1487790D01*
X2567116Y1501604D01*
X2542730Y1506454D01*
D02*
G37*
G36*
X2120000Y1503725D02*
X2095614Y1498874D01*
X2074940Y1485060D01*
X2061126Y1464386D01*
X2056276Y1440000D01*
X2061126Y1415614D01*
X2074940Y1394940D01*
X2095614Y1381126D01*
X2120000Y1376276D01*
X2144387Y1381126D01*
X2165060Y1394940D01*
X2178874Y1415614D01*
X2183725Y1440000D01*
X2178874Y1464386D01*
X2165060Y1485060D01*
X2144387Y1498874D01*
X2120000Y1503725D01*
D02*
G37*
G36*
X940001Y1390690D02*
X919117Y1387941D01*
X899656Y1379880D01*
X898948Y1379337D01*
X940001Y1338285D01*
X981053Y1379337D01*
X980346Y1379880D01*
X960885Y1387941D01*
X940001Y1390690D01*
D02*
G37*
G36*
X2739989Y1443729D02*
X2715603Y1438878D01*
X2694929Y1425064D01*
X2681115Y1404391D01*
X2676264Y1380004D01*
X2681115Y1355618D01*
X2687338Y1346305D01*
X2678181Y1337149D01*
X2664375Y1346374D01*
X2639989Y1351225D01*
X2615603Y1346374D01*
X2594929Y1332560D01*
X2581115Y1311886D01*
X2576265Y1287500D01*
X2581115Y1263114D01*
X2594929Y1242440D01*
X2615603Y1228626D01*
X2639989Y1223776D01*
X2664375Y1228626D01*
X2685049Y1242440D01*
X2698863Y1263114D01*
X2703714Y1287500D01*
X2698863Y1311886D01*
X2692641Y1321199D01*
X2701797Y1330355D01*
X2715603Y1321130D01*
X2729465Y1318373D01*
X2731115Y1314391D01*
X2726264Y1290005D01*
X2731115Y1265618D01*
X2744929Y1244944D01*
X2765603Y1231131D01*
X2789989Y1226280D01*
X2814375Y1231131D01*
X2835049Y1244944D01*
X2848863Y1265618D01*
X2853713Y1290005D01*
X2850695Y1305177D01*
X2860001Y1316275D01*
X2884387Y1321126D01*
X2905060Y1334940D01*
X2918874Y1355614D01*
X2923725Y1380000D01*
X2918874Y1404386D01*
X2905060Y1425060D01*
X2884387Y1438874D01*
X2860000Y1443725D01*
X2835614Y1438874D01*
X2814940Y1425060D01*
X2807633Y1414124D01*
X2792359D01*
X2785049Y1425064D01*
X2764375Y1438878D01*
X2739989Y1443729D01*
D02*
G37*
G36*
X3000000Y1443725D02*
X2975614Y1438874D01*
X2954940Y1425060D01*
X2941126Y1404386D01*
X2936276Y1380000D01*
X2941126Y1355614D01*
X2954940Y1334940D01*
X2975614Y1321126D01*
X3000000Y1316275D01*
X3024387Y1321126D01*
X3045060Y1334940D01*
X3058874Y1355614D01*
X3063725Y1380000D01*
X3058874Y1404386D01*
X3045060Y1425060D01*
X3024387Y1438874D01*
X3000000Y1443725D01*
D02*
G37*
G36*
X9249838Y1877553D02*
X8967286Y1595000D01*
X9249838Y1312447D01*
X9272924Y1338772D01*
X9303512Y1384549D01*
X9327862Y1433928D01*
X9345560Y1486063D01*
X9356301Y1540061D01*
X9359902Y1595000D01*
X9356301Y1649939D01*
X9345560Y1703937D01*
X9327862Y1756072D01*
X9303512Y1805451D01*
X9272924Y1851228D01*
X9249838Y1877553D01*
D02*
G37*
G36*
X8628164Y1877553D02*
X8605077Y1851228D01*
X8574490Y1805451D01*
X8550139Y1756072D01*
X8532441Y1703937D01*
X8521701Y1649939D01*
X8518100Y1595000D01*
X8521701Y1540061D01*
X8532441Y1486063D01*
X8550139Y1433928D01*
X8574490Y1384549D01*
X8605077Y1338772D01*
X8628164Y1312447D01*
X8910717Y1595000D01*
X8628164Y1877553D01*
D02*
G37*
G36*
X940001Y1281716D02*
X898948Y1240663D01*
X899656Y1240120D01*
X919117Y1232059D01*
X940001Y1229310D01*
X960885Y1232059D01*
X980346Y1240120D01*
X981053Y1240663D01*
X940001Y1281716D01*
D02*
G37*
G36*
X1200001Y1311716D02*
X1094746Y1206461D01*
X1105097Y1197967D01*
X1134630Y1182181D01*
X1166675Y1172460D01*
X1200001Y1169178D01*
X1233326Y1172460D01*
X1265372Y1182181D01*
X1294904Y1197967D01*
X1305255Y1206461D01*
X1200001Y1311716D01*
D02*
G37*
G36*
X1760000Y1293725D02*
X1735614Y1288874D01*
X1714940Y1275060D01*
X1701126Y1254386D01*
X1696276Y1230000D01*
X1701126Y1205614D01*
X1714940Y1184940D01*
X1735614Y1171126D01*
X1760000Y1166276D01*
X1784387Y1171126D01*
X1805060Y1184940D01*
X1818874Y1205614D01*
X1823725Y1230000D01*
X1818874Y1254386D01*
X1805060Y1275060D01*
X1784387Y1288874D01*
X1760000Y1293725D01*
D02*
G37*
G36*
X5300000Y1636137D02*
X5253932Y1631600D01*
X5209635Y1618162D01*
X5168810Y1596341D01*
X5133026Y1566974D01*
X5103660Y1531191D01*
X5081838Y1490366D01*
X5068401Y1446068D01*
X5063863Y1400000D01*
X5068401Y1353932D01*
X5081838Y1309634D01*
X5103660Y1268809D01*
X5133026Y1233026D01*
X5168810Y1203659D01*
X5209635Y1181838D01*
X5253932Y1168400D01*
X5300000Y1163863D01*
X5346068Y1168400D01*
X5390366Y1181838D01*
X5431191Y1203659D01*
X5466974Y1233026D01*
X5496341Y1268809D01*
X5518162Y1309634D01*
X5531600Y1353932D01*
X5536137Y1400000D01*
X5531600Y1446068D01*
X5518162Y1490366D01*
X5496341Y1531191D01*
X5466974Y1566974D01*
X5431191Y1596341D01*
X5390366Y1618162D01*
X5346068Y1631600D01*
X5300000Y1636137D01*
D02*
G37*
G36*
X2190000Y1293725D02*
X2165614Y1288874D01*
X2144940Y1275060D01*
X2131127Y1254386D01*
X2126276Y1230000D01*
X2131127Y1205614D01*
X2128579Y1199464D01*
X2125614Y1198874D01*
X2104940Y1185060D01*
X2091127Y1164386D01*
X2086276Y1140000D01*
X2091127Y1115614D01*
X2104940Y1094940D01*
X2125614Y1081126D01*
X2150001Y1076275D01*
X2174387Y1081126D01*
X2195061Y1094940D01*
X2208874Y1115614D01*
X2213725Y1140000D01*
X2208874Y1164386D01*
X2211422Y1170536D01*
X2214387Y1171126D01*
X2235061Y1184940D01*
X2248874Y1205614D01*
X2253725Y1230000D01*
X2248874Y1254386D01*
X2235061Y1275060D01*
X2214387Y1288874D01*
X2190000Y1293725D01*
D02*
G37*
G36*
X6345000Y1270000D02*
X6105001D01*
Y1030000D01*
X6345000D01*
Y1270000D01*
D02*
G37*
G36*
X3000000Y1113725D02*
X2975614Y1108874D01*
X2954940Y1095060D01*
X2941126Y1074386D01*
X2936276Y1050000D01*
X2941126Y1025614D01*
X2954940Y1004940D01*
X2975614Y991126D01*
X3000000Y986276D01*
X3024387Y991126D01*
X3045060Y1004940D01*
X3058874Y1025614D01*
X3063725Y1050000D01*
X3058874Y1074386D01*
X3045060Y1095060D01*
X3024387Y1108874D01*
X3000000Y1113725D01*
D02*
G37*
G36*
X2350000Y1043724D02*
X2325614Y1038874D01*
X2304940Y1025060D01*
X2291126Y1004386D01*
X2286276Y980000D01*
X2291126Y955614D01*
X2304940Y934940D01*
X2325614Y921126D01*
X2350000Y916275D01*
X2374387Y921126D01*
X2395060Y934940D01*
X2408874Y955614D01*
X2413725Y980000D01*
X2408874Y1004386D01*
X2395060Y1025060D01*
X2374387Y1038874D01*
X2350000Y1043724D01*
D02*
G37*
G36*
X1650001Y1033725D02*
X1625614Y1028874D01*
X1604940Y1015060D01*
X1591127Y994386D01*
X1586276Y970000D01*
X1591127Y945614D01*
X1604940Y924940D01*
X1625614Y911126D01*
X1650001Y906276D01*
X1674387Y911126D01*
X1695061Y924940D01*
X1708874Y945614D01*
X1713725Y970000D01*
X1708874Y994386D01*
X1695061Y1015060D01*
X1674387Y1028874D01*
X1650001Y1033725D01*
D02*
G37*
G36*
X1396001Y1008790D02*
X1375116Y1006041D01*
X1355655Y997980D01*
X1338944Y985157D01*
X1326121Y968445D01*
X1318060Y948984D01*
X1315310Y928100D01*
X1318060Y907216D01*
X1326121Y887755D01*
X1338944Y871044D01*
X1355655Y858221D01*
X1375116Y850160D01*
X1396001Y847410D01*
X1416885Y850160D01*
X1436346Y858221D01*
X1453057Y871044D01*
X1465880Y887755D01*
X1473941Y907216D01*
X1476691Y928100D01*
X1473941Y948984D01*
X1465880Y968445D01*
X1453057Y985157D01*
X1436346Y997980D01*
X1416885Y1006041D01*
X1396001Y1008790D01*
D02*
G37*
G36*
X1850001Y1028725D02*
X1825614Y1023874D01*
X1804941Y1010060D01*
X1791127Y989386D01*
X1786276Y965000D01*
X1791127Y940614D01*
X1804941Y919940D01*
X1825614Y906126D01*
X1849344Y901406D01*
X1850788Y899040D01*
X1854266Y889175D01*
X1846944Y883557D01*
X1834121Y866845D01*
X1826060Y847384D01*
X1823310Y826500D01*
X1826060Y805616D01*
X1834121Y786155D01*
X1846944Y769444D01*
X1851460Y765978D01*
X1850944Y761648D01*
X1847274Y753182D01*
X1825614Y748874D01*
X1804941Y735060D01*
X1791127Y714386D01*
X1786276Y690000D01*
X1791127Y665614D01*
X1804941Y644940D01*
X1825614Y631126D01*
X1850001Y626276D01*
X1874387Y631126D01*
X1895061Y644940D01*
X1908875Y665614D01*
X1913725Y690000D01*
X1908875Y714386D01*
X1895708Y734092D01*
X1896867Y738275D01*
X1901300Y746166D01*
X1904001Y745810D01*
X1924885Y748560D01*
X1944346Y756621D01*
X1961057Y769444D01*
X1973880Y786155D01*
X1981941Y805616D01*
X1984691Y826500D01*
X1981941Y847384D01*
X1973880Y866845D01*
X1961057Y883557D01*
X1944346Y896380D01*
X1924885Y904441D01*
X1904001Y907190D01*
X1897573Y906344D01*
X1892979Y918549D01*
X1895061Y919940D01*
X1908875Y940614D01*
X1913725Y965000D01*
X1908875Y989386D01*
X1895061Y1010060D01*
X1874387Y1023874D01*
X1850001Y1028725D01*
D02*
G37*
G36*
X8006000Y884906D02*
X7978590Y881297D01*
X7953048Y870717D01*
X7931114Y853887D01*
X7914283Y831953D01*
X7903703Y806411D01*
X7900095Y779000D01*
X7903703Y751590D01*
X7914283Y726047D01*
X7931114Y704113D01*
X7953048Y687283D01*
X7978590Y676703D01*
X8006000Y673094D01*
X8033411Y676703D01*
X8058953Y687283D01*
X8080887Y704113D01*
X8097718Y726047D01*
X8108298Y751590D01*
X8111906Y779000D01*
X8108298Y806411D01*
X8097718Y831953D01*
X8080887Y853887D01*
X8058953Y870717D01*
X8033411Y881297D01*
X8006000Y884906D01*
D02*
G37*
G36*
X7244000D02*
X7216590Y881297D01*
X7191048Y870717D01*
X7169114Y853887D01*
X7152283Y831953D01*
X7141703Y806411D01*
X7138095Y779000D01*
X7141703Y751590D01*
X7152283Y726047D01*
X7169114Y704113D01*
X7191048Y687283D01*
X7216590Y676703D01*
X7244000Y673094D01*
X7271411Y676703D01*
X7296953Y687283D01*
X7318887Y704113D01*
X7335718Y726047D01*
X7346298Y751590D01*
X7349906Y779000D01*
X7346298Y806411D01*
X7335718Y831953D01*
X7318887Y853887D01*
X7296953Y870717D01*
X7271411Y881297D01*
X7244000Y884906D01*
D02*
G37*
G36*
X1650001Y733725D02*
X1625614Y728874D01*
X1604940Y715060D01*
X1591127Y694386D01*
X1586276Y670000D01*
X1591127Y645614D01*
X1604940Y624940D01*
X1625614Y611126D01*
X1650001Y606276D01*
X1674387Y611126D01*
X1695061Y624940D01*
X1708874Y645614D01*
X1713725Y670000D01*
X1708874Y694386D01*
X1695061Y715060D01*
X1674387Y728874D01*
X1650001Y733725D01*
D02*
G37*
G36*
X1396001Y805590D02*
X1375116Y802841D01*
X1355655Y794780D01*
X1338944Y781957D01*
X1326121Y765245D01*
X1318060Y745784D01*
X1315310Y724900D01*
X1318060Y704016D01*
X1326121Y684555D01*
X1338944Y667844D01*
X1355655Y655021D01*
X1375116Y646960D01*
X1396001Y644210D01*
X1416885Y646960D01*
X1426152Y650798D01*
X1440642Y643053D01*
X1441127Y640614D01*
X1454940Y619940D01*
X1475614Y606126D01*
X1500001Y601276D01*
X1524387Y606126D01*
X1545061Y619940D01*
X1558874Y640614D01*
X1563725Y665000D01*
X1558874Y689386D01*
X1545061Y710060D01*
X1524387Y723874D01*
X1500001Y728725D01*
X1489278Y726592D01*
X1475134Y736728D01*
X1473941Y745784D01*
X1465880Y765245D01*
X1453057Y781957D01*
X1436346Y794780D01*
X1416885Y802841D01*
X1396001Y805590D01*
D02*
G37*
G36*
X2879038Y692763D02*
X2854652Y687912D01*
X2833978Y674098D01*
X2820165Y653424D01*
X2815314Y629038D01*
X2820165Y604652D01*
X2833978Y583978D01*
X2854652Y570164D01*
X2879038Y565314D01*
X2903425Y570164D01*
X2924099Y583978D01*
X2937912Y604652D01*
X2942763Y629038D01*
X2937912Y653424D01*
X2924099Y674098D01*
X2903425Y687912D01*
X2879038Y692763D01*
D02*
G37*
G36*
X8006000Y620820D02*
X7981201Y617555D01*
X7958091Y607982D01*
X7954250Y605035D01*
X8006000Y553285D01*
X8057750Y605035D01*
X8053910Y607982D01*
X8030800Y617555D01*
X8006000Y620820D01*
D02*
G37*
G36*
X7244000D02*
X7219201Y617555D01*
X7196091Y607982D01*
X7192250Y605035D01*
X7244000Y553285D01*
X7295750Y605035D01*
X7291910Y607982D01*
X7268800Y617555D01*
X7244000Y620820D01*
D02*
G37*
G36*
X7925965Y576750D02*
X7923018Y572910D01*
X7913446Y549800D01*
X7910181Y525000D01*
X7913446Y500200D01*
X7923018Y477090D01*
X7925965Y473250D01*
X7977716Y525000D01*
X7925965Y576750D01*
D02*
G37*
G36*
X7163965D02*
X7161018Y572910D01*
X7151446Y549800D01*
X7148181Y525000D01*
X7151446Y500200D01*
X7161018Y477090D01*
X7163965Y473250D01*
X7215716Y525000D01*
X7163965Y576750D01*
D02*
G37*
G36*
X8086035Y576751D02*
X8034284Y525000D01*
X8086035Y473249D01*
X8088983Y477090D01*
X8098555Y500200D01*
X8101820Y525000D01*
X8098555Y549800D01*
X8088983Y572910D01*
X8086035Y576751D01*
D02*
G37*
G36*
X7324035D02*
X7272284Y525000D01*
X7324035Y473249D01*
X7326983Y477090D01*
X7336555Y500200D01*
X7339820Y525000D01*
X7336555Y549800D01*
X7326983Y572910D01*
X7324035Y576751D01*
D02*
G37*
G36*
X8006000Y496716D02*
X7954250Y444966D01*
X7958091Y442018D01*
X7981201Y432446D01*
X8006000Y429181D01*
X8030800Y432446D01*
X8053910Y442018D01*
X8057751Y444965D01*
X8006000Y496716D01*
D02*
G37*
G36*
X7244000D02*
X7192250Y444966D01*
X7196091Y442018D01*
X7219201Y432446D01*
X7244000Y429181D01*
X7268800Y432446D01*
X7291910Y442018D01*
X7295751Y444965D01*
X7244000Y496716D01*
D02*
G37*
G36*
X6175001Y905871D02*
X6139714Y902395D01*
X6105784Y892103D01*
X6074514Y875389D01*
X6047106Y852895D01*
X6024612Y825487D01*
X6007898Y794216D01*
X5997605Y760286D01*
X5994130Y725000D01*
Y525000D01*
X5997605Y489714D01*
X6007898Y455784D01*
X6024612Y424514D01*
X6047106Y397105D01*
X6074514Y374611D01*
X6105784Y357897D01*
X6139714Y347605D01*
X6175001Y344129D01*
X6210287Y347605D01*
X6244217Y357897D01*
X6275487Y374611D01*
X6302896Y397105D01*
X6325389Y424514D01*
X6342103Y455784D01*
X6352396Y489714D01*
X6355871Y525000D01*
Y725000D01*
X6352396Y760286D01*
X6342103Y794216D01*
X6325389Y825487D01*
X6302896Y852895D01*
X6275487Y875389D01*
X6244217Y892103D01*
X6210287Y902395D01*
X6175001Y905871D01*
D02*
G37*
G36*
X2320000Y900871D02*
X2284714Y897395D01*
X2250784Y887103D01*
X2219514Y870389D01*
X2192105Y847895D01*
X2169612Y820487D01*
X2152898Y789216D01*
X2142605Y755286D01*
X2139130Y720000D01*
Y520000D01*
X2142605Y484714D01*
X2152898Y450784D01*
X2169612Y419514D01*
X2192105Y392105D01*
X2219514Y369611D01*
X2250784Y352897D01*
X2284714Y342605D01*
X2320000Y339129D01*
X2355287Y342605D01*
X2389217Y352897D01*
X2420487Y369611D01*
X2447896Y392105D01*
X2470389Y419514D01*
X2487103Y450784D01*
X2497396Y484714D01*
X2500871Y520000D01*
Y720000D01*
X2497396Y755286D01*
X2487103Y789216D01*
X2470389Y820487D01*
X2447896Y847895D01*
X2420487Y870389D01*
X2389217Y887103D01*
X2355287Y897395D01*
X2320000Y900871D01*
D02*
G37*
G36*
X8006000Y376906D02*
X7978590Y373297D01*
X7953048Y362717D01*
X7931114Y345887D01*
X7914283Y323953D01*
X7903703Y298411D01*
X7900095Y271000D01*
X7903703Y243590D01*
X7914283Y218047D01*
X7931114Y196113D01*
X7953048Y179283D01*
X7978590Y168703D01*
X8006000Y165094D01*
X8033411Y168703D01*
X8058953Y179283D01*
X8080887Y196113D01*
X8097718Y218047D01*
X8108298Y243590D01*
X8111906Y271000D01*
X8108298Y298411D01*
X8097718Y323953D01*
X8080887Y345887D01*
X8058953Y362717D01*
X8033411Y373297D01*
X8006000Y376906D01*
D02*
G37*
G36*
X7244000D02*
X7216590Y373297D01*
X7191048Y362717D01*
X7169114Y345887D01*
X7152283Y323953D01*
X7141703Y298411D01*
X7138095Y271000D01*
X7141703Y243590D01*
X7152283Y218047D01*
X7169114Y196113D01*
X7191048Y179283D01*
X7216590Y168703D01*
X7244000Y165094D01*
X7271411Y168703D01*
X7296953Y179283D01*
X7318887Y196113D01*
X7335718Y218047D01*
X7346298Y243590D01*
X7349906Y271000D01*
X7346298Y298411D01*
X7335718Y323953D01*
X7318887Y345887D01*
X7296953Y362717D01*
X7271411Y373297D01*
X7244000Y376906D01*
D02*
G37*
%LPD*%
G36*
X4730000Y3300000D02*
X4730000Y3160000D01*
X5030000Y2860001D01*
Y2600000D01*
X5020000Y2590000D01*
X4380000D01*
X4310000Y2660000D01*
X4310001Y3260000D01*
X4350000Y3300000D01*
X4730000Y3300000D01*
D02*
G37*
G36*
X9223445Y2827325D02*
X9227609Y2826492D01*
X9235383Y2823994D01*
X9242046Y2820940D01*
X9244822Y2819274D01*
X9247598Y2817609D01*
X9250097Y2815943D01*
X9252040Y2814277D01*
X9253984Y2812889D01*
X9255372Y2811501D01*
X9256482Y2810668D01*
X9257315Y2809835D01*
X9257870Y2809280D01*
X9258148Y2809002D01*
X9260646Y2805671D01*
X9263145Y2802339D01*
X9265088Y2799008D01*
X9266754Y2795399D01*
X9269530Y2788458D01*
X9271196Y2781795D01*
X9271751Y2778741D01*
X9272307Y2775965D01*
X9272584Y2773467D01*
X9272862Y2771246D01*
X9273139Y2769580D01*
Y2767081D01*
X9272862Y2761807D01*
X9272307Y2757087D01*
X9271474Y2752367D01*
X9270363Y2747925D01*
X9268975Y2743761D01*
X9267587Y2740152D01*
X9265921Y2736543D01*
X9264256Y2733489D01*
X9262867Y2730435D01*
X9261202Y2727937D01*
X9259814Y2725716D01*
X9258425Y2724050D01*
X9257315Y2722662D01*
X9256482Y2721551D01*
X9255927Y2720996D01*
X9255649Y2720718D01*
X9252318Y2717387D01*
X9248709Y2714611D01*
X9245100Y2712112D01*
X9241491Y2709891D01*
X9238159Y2708225D01*
X9234550Y2706560D01*
X9227887Y2704339D01*
X9224833Y2703784D01*
X9222057Y2703228D01*
X9219558Y2702673D01*
X9217337Y2702395D01*
X9215672Y2702118D01*
X9214284D01*
X9213451D01*
X9213173D01*
X9206510Y2702395D01*
X9200402Y2703506D01*
X9195128Y2705172D01*
X9190686Y2706837D01*
X9187077Y2708503D01*
X9184300Y2710169D01*
X9182635Y2711279D01*
X9182079Y2711557D01*
X9177915Y2715444D01*
X9174306Y2719608D01*
X9171530Y2724050D01*
X9169309Y2728492D01*
X9167643Y2732379D01*
X9166533Y2735432D01*
X9166255Y2736543D01*
X9165977Y2737376D01*
X9165700Y2737931D01*
Y2738209D01*
X9163201Y2733489D01*
X9160703Y2729602D01*
X9157926Y2726271D01*
X9155428Y2723495D01*
X9153207Y2721274D01*
X9151263Y2719608D01*
X9150153Y2718775D01*
X9149598Y2718497D01*
X9145711Y2716277D01*
X9141824Y2714611D01*
X9137938Y2713223D01*
X9134328Y2712390D01*
X9131275Y2711835D01*
X9129054Y2711557D01*
X9127388D01*
X9126833D01*
X9122113Y2711835D01*
X9117394Y2712667D01*
X9113229Y2713778D01*
X9109620Y2715166D01*
X9106566Y2716554D01*
X9104068Y2717665D01*
X9102680Y2718497D01*
X9102124Y2718775D01*
X9097960Y2721551D01*
X9094351Y2724883D01*
X9091297Y2728214D01*
X9088521Y2731546D01*
X9086577Y2734322D01*
X9084912Y2736821D01*
X9084079Y2738486D01*
X9083801Y2738764D01*
Y2739042D01*
X9081580Y2744039D01*
X9079915Y2749036D01*
X9078526Y2754033D01*
X9077694Y2758475D01*
X9077138Y2762084D01*
X9076861Y2765138D01*
Y2772079D01*
X9077416Y2775965D01*
X9078804Y2783461D01*
X9081025Y2789846D01*
X9083246Y2795399D01*
X9084634Y2797897D01*
X9085745Y2799841D01*
X9086855Y2801784D01*
X9087966Y2803172D01*
X9088798Y2804283D01*
X9089354Y2805116D01*
X9089631Y2805671D01*
X9089909Y2805948D01*
X9095184Y2811223D01*
X9101014Y2815388D01*
X9107121Y2818719D01*
X9113229Y2821495D01*
X9118504Y2823161D01*
X9120725Y2823994D01*
X9122668Y2824549D01*
X9124334Y2824827D01*
X9125445Y2825104D01*
X9126277Y2825382D01*
X9126555D01*
X9130719Y2801784D01*
X9124612Y2800674D01*
X9119337Y2799008D01*
X9114895Y2797065D01*
X9111286Y2795121D01*
X9108510Y2793178D01*
X9106566Y2791512D01*
X9105178Y2790402D01*
X9104901Y2790124D01*
X9102124Y2786515D01*
X9099903Y2782628D01*
X9098515Y2779019D01*
X9097405Y2775410D01*
X9096849Y2772079D01*
X9096294Y2769580D01*
Y2767359D01*
X9096572Y2762362D01*
X9097682Y2757920D01*
X9099070Y2754033D01*
X9100459Y2750702D01*
X9102124Y2748203D01*
X9103512Y2746260D01*
X9104623Y2744872D01*
X9104901Y2744594D01*
X9108232Y2741540D01*
X9111841Y2739319D01*
X9115450Y2737931D01*
X9118782Y2736821D01*
X9121835Y2736265D01*
X9124056Y2735710D01*
X9125722D01*
X9126000D01*
X9126277D01*
X9129331D01*
X9132107Y2736265D01*
X9136827Y2737653D01*
X9140991Y2739597D01*
X9144600Y2741818D01*
X9147099Y2744039D01*
X9149042Y2745982D01*
X9150153Y2747370D01*
X9150431Y2747648D01*
Y2747925D01*
X9152929Y2752645D01*
X9154872Y2757087D01*
X9156261Y2761807D01*
X9157093Y2765971D01*
X9157649Y2769580D01*
X9158204Y2772634D01*
Y2776243D01*
X9157926Y2777353D01*
Y2778741D01*
X9178748Y2781518D01*
X9177915Y2777909D01*
X9177360Y2774577D01*
X9176805Y2771801D01*
X9176527Y2769302D01*
X9176249Y2767359D01*
Y2764860D01*
X9176805Y2759030D01*
X9177915Y2753755D01*
X9179581Y2749036D01*
X9181524Y2745149D01*
X9183468Y2742095D01*
X9185133Y2739874D01*
X9186244Y2738486D01*
X9186799Y2737931D01*
X9190963Y2734322D01*
X9195405Y2731546D01*
X9199847Y2729602D01*
X9204289Y2728492D01*
X9207898Y2727659D01*
X9210952Y2727381D01*
X9212063Y2727104D01*
X9212895D01*
X9213451D01*
X9213728D01*
X9219836Y2727659D01*
X9225388Y2729047D01*
X9230108Y2730713D01*
X9234272Y2732934D01*
X9237604Y2735155D01*
X9240102Y2736821D01*
X9241768Y2738209D01*
X9242323Y2738764D01*
X9246210Y2743206D01*
X9248986Y2747925D01*
X9250930Y2752645D01*
X9252318Y2757087D01*
X9253151Y2760974D01*
X9253428Y2764027D01*
X9253706Y2765138D01*
Y2766804D01*
X9253428Y2771801D01*
X9252318Y2776520D01*
X9250930Y2780685D01*
X9249264Y2784016D01*
X9247876Y2786792D01*
X9246488Y2789013D01*
X9245377Y2790124D01*
X9245100Y2790679D01*
X9241213Y2794011D01*
X9236771Y2796787D01*
X9232051Y2799285D01*
X9227054Y2801229D01*
X9222890Y2802617D01*
X9220947Y2803172D01*
X9219281Y2803450D01*
X9217893Y2803727D01*
X9216782Y2804005D01*
X9216227Y2804283D01*
X9215949D01*
X9219003Y2827881D01*
X9223445Y2827325D01*
D02*
G37*
%LPC*%
G36*
X4025000Y6910867D02*
X3989714Y6907392D01*
X3955784Y6897099D01*
X3924514Y6880385D01*
X3897105Y6857892D01*
X3874612Y6830483D01*
X3857898Y6799213D01*
X3847605Y6765283D01*
X3844130Y6729997D01*
X3847605Y6694711D01*
X3857898Y6660780D01*
X3874612Y6629510D01*
X3897105Y6602102D01*
X3924514Y6579608D01*
X3955784Y6562894D01*
X3989714Y6552602D01*
X4025000Y6549126D01*
X4060287Y6552602D01*
X4094217Y6562894D01*
X4125487Y6579608D01*
X4152895Y6602102D01*
X4175389Y6629510D01*
X4192103Y6660780D01*
X4202395Y6694711D01*
X4205871Y6729997D01*
X4202395Y6765283D01*
X4192103Y6799213D01*
X4175389Y6830483D01*
X4152895Y6857892D01*
X4125487Y6880385D01*
X4094217Y6897099D01*
X4060287Y6907392D01*
X4025000Y6910867D01*
D02*
G37*
G36*
X1825000Y6910867D02*
X1789714Y6907391D01*
X1755784Y6897099D01*
X1724514Y6880385D01*
X1697106Y6857891D01*
X1674612Y6830482D01*
X1657898Y6799212D01*
X1647605Y6765282D01*
X1644130Y6729996D01*
X1647605Y6694710D01*
X1657898Y6660780D01*
X1674612Y6629510D01*
X1697106Y6602101D01*
X1724514Y6579608D01*
X1755784Y6562894D01*
X1789714Y6552601D01*
X1825000Y6549126D01*
X1860287Y6552601D01*
X1894217Y6562894D01*
X1925487Y6579608D01*
X1952895Y6602101D01*
X1975389Y6629510D01*
X1992103Y6660780D01*
X2002396Y6694710D01*
X2005871Y6729996D01*
X2002396Y6765282D01*
X1992103Y6799212D01*
X1975389Y6830482D01*
X1952895Y6857891D01*
X1925487Y6880385D01*
X1894217Y6897099D01*
X1860287Y6907391D01*
X1825000Y6910867D01*
D02*
G37*
G36*
X2500000Y6638725D02*
X2475614Y6633874D01*
X2454940Y6620060D01*
X2441126Y6599386D01*
X2436276Y6575000D01*
X2441126Y6550614D01*
X2454940Y6529940D01*
X2475614Y6516126D01*
X2500000Y6511276D01*
X2524387Y6516126D01*
X2545060Y6529940D01*
X2558874Y6550614D01*
X2563725Y6575000D01*
X2558874Y6599386D01*
X2545060Y6620060D01*
X2524387Y6633874D01*
X2500000Y6638725D01*
D02*
G37*
G36*
X1825000Y6396828D02*
X1799940Y6393528D01*
X1776586Y6383855D01*
X1772537Y6380748D01*
X1825001Y6328285D01*
X1877464Y6380748D01*
X1873415Y6383855D01*
X1850061Y6393528D01*
X1825000Y6396828D01*
D02*
G37*
G36*
X4025000Y6396828D02*
X3999939Y6393529D01*
X3976586Y6383856D01*
X3972536Y6380748D01*
X4025000Y6328284D01*
X4077464Y6380748D01*
X4073414Y6383856D01*
X4050061Y6393529D01*
X4025000Y6396828D01*
D02*
G37*
G36*
X1905749Y6352463D02*
X1853285Y6300000D01*
X1905749Y6247536D01*
X1908856Y6251585D01*
X1918529Y6274939D01*
X1921829Y6300000D01*
X1918529Y6325061D01*
X1908856Y6348414D01*
X1905749Y6352463D01*
D02*
G37*
G36*
X3944252Y6352464D02*
X3941145Y6348414D01*
X3931472Y6325061D01*
X3928172Y6300000D01*
X3931472Y6274939D01*
X3941145Y6251586D01*
X3944252Y6247536D01*
X3996716Y6300000D01*
X3944252Y6352464D01*
D02*
G37*
G36*
X4105749D02*
X4053285Y6300000D01*
X4105748Y6247536D01*
X4108856Y6251586D01*
X4118529Y6274939D01*
X4121828Y6300000D01*
X4118529Y6325061D01*
X4108856Y6348414D01*
X4105749Y6352464D01*
D02*
G37*
G36*
X1744253Y6352464D02*
X1741145Y6348414D01*
X1731472Y6325061D01*
X1728172Y6300000D01*
X1731472Y6274939D01*
X1741145Y6251585D01*
X1744252Y6247536D01*
X1796716Y6300000D01*
X1744253Y6352464D01*
D02*
G37*
G36*
X2925000Y6228529D02*
X2904516Y6224454D01*
X2887150Y6212850D01*
X2882637Y6206097D01*
X2867363D01*
X2862851Y6212850D01*
X2845485Y6224454D01*
X2825000Y6228529D01*
X2804516Y6224454D01*
X2804106Y6224180D01*
X2839143Y6189142D01*
X2825001Y6175000D01*
X2839143Y6160858D01*
X2804106Y6125821D01*
X2804516Y6125546D01*
X2814207Y6123619D01*
X2824891Y6120665D01*
X2823426Y6109822D01*
X2821472Y6100000D01*
X2823426Y6090178D01*
X2824891Y6079335D01*
X2814207Y6076381D01*
X2804516Y6074454D01*
X2804106Y6074180D01*
X2839143Y6039143D01*
X2825000Y6025000D01*
X2839143Y6010858D01*
X2804105Y5975821D01*
X2804516Y5975546D01*
X2825000Y5971471D01*
X2845485Y5975546D01*
X2862851Y5987150D01*
X2867363Y5993903D01*
X2882637D01*
X2887150Y5987150D01*
X2904516Y5975546D01*
X2925000Y5971471D01*
X2945485Y5975546D01*
X2945896Y5975821D01*
X2910858Y6010858D01*
X2925000Y6025000D01*
X2910858Y6039143D01*
X2945895Y6074179D01*
X2945485Y6074454D01*
X2935794Y6076381D01*
X2925109Y6079335D01*
X2926575Y6090178D01*
X2928529Y6100000D01*
X2926575Y6109822D01*
X2925109Y6120665D01*
X2935794Y6123619D01*
X2945485Y6125546D01*
X2945896Y6125821D01*
X2910859Y6160858D01*
X2925001Y6175000D01*
X2910859Y6189142D01*
X2945896Y6224179D01*
X2945485Y6224454D01*
X2925000Y6228529D01*
D02*
G37*
G36*
X4025000Y6271715D02*
X3972537Y6219252D01*
X3976586Y6216145D01*
X3999939Y6206471D01*
X4025000Y6203172D01*
X4050061Y6206471D01*
X4073414Y6216145D01*
X4077464Y6219252D01*
X4025000Y6271715D01*
D02*
G37*
G36*
X1825001Y6271716D02*
X1772537Y6219251D01*
X1776586Y6216144D01*
X1799940Y6206471D01*
X1825000Y6203171D01*
X1850061Y6206471D01*
X1873415Y6216144D01*
X1877465Y6219252D01*
X1825001Y6271716D01*
D02*
G37*
G36*
X3831000Y6406000D02*
X3619001D01*
Y6194000D01*
X3831000D01*
Y6406000D01*
D02*
G37*
G36*
X1631000Y6405999D02*
X1419001D01*
Y6194000D01*
X1631000D01*
Y6405999D01*
D02*
G37*
G36*
X2125000Y6406914D02*
X2097329Y6403271D01*
X2071543Y6392590D01*
X2049400Y6375600D01*
X2032410Y6353457D01*
X2021729Y6327671D01*
X2018086Y6300000D01*
X2021729Y6272328D01*
X2032410Y6246542D01*
X2049400Y6224400D01*
X2071543Y6207409D01*
X2097329Y6196728D01*
X2125000Y6193085D01*
X2152672Y6196728D01*
X2178457Y6207409D01*
X2200600Y6224400D01*
X2217591Y6246542D01*
X2228272Y6272328D01*
X2231915Y6300000D01*
X2228272Y6327671D01*
X2217591Y6353457D01*
X2200600Y6375600D01*
X2178457Y6392590D01*
X2152672Y6403271D01*
X2125000Y6406914D01*
D02*
G37*
G36*
X2974180Y6195895D02*
X2953285Y6175000D01*
X2974180Y6154105D01*
X2974454Y6154516D01*
X2978529Y6175000D01*
X2974454Y6195484D01*
X2974180Y6195895D01*
D02*
G37*
G36*
X2775821Y6195895D02*
X2775547Y6195484D01*
X2771472Y6175000D01*
X2775547Y6154516D01*
X2775821Y6154105D01*
X2796717Y6175000D01*
X2775821Y6195895D01*
D02*
G37*
G36*
X3125000Y6213725D02*
X3100614Y6208874D01*
X3079940Y6195060D01*
X3066126Y6174386D01*
X3061276Y6150000D01*
X3066126Y6125614D01*
X3079940Y6104940D01*
X3100614Y6091126D01*
X3125000Y6086276D01*
X3149387Y6091126D01*
X3170060Y6104940D01*
X3183874Y6125614D01*
X3188725Y6150000D01*
X3183874Y6174386D01*
X3170060Y6195060D01*
X3149387Y6208874D01*
X3125000Y6213725D01*
D02*
G37*
G36*
X2625000Y6163725D02*
X2600614Y6158874D01*
X2579940Y6145060D01*
X2566126Y6124386D01*
X2561276Y6100000D01*
X2566126Y6075614D01*
X2579940Y6054940D01*
X2600614Y6041126D01*
X2625000Y6036275D01*
X2649387Y6041126D01*
X2670060Y6054940D01*
X2683874Y6075614D01*
X2688725Y6100000D01*
X2683874Y6124386D01*
X2670060Y6145060D01*
X2649387Y6158874D01*
X2625000Y6163725D01*
D02*
G37*
G36*
X2974179Y6045895D02*
X2953285Y6025000D01*
X2974180Y6004105D01*
X2974454Y6004516D01*
X2978529Y6025000D01*
X2974454Y6045484D01*
X2974179Y6045895D01*
D02*
G37*
G36*
X2775821D02*
X2775547Y6045484D01*
X2771472Y6025000D01*
X2775547Y6004516D01*
X2775821Y6004105D01*
X2796716Y6025000D01*
X2775821Y6045895D01*
D02*
G37*
G36*
X4025000Y6106915D02*
X3997329Y6103272D01*
X3971543Y6092591D01*
X3949400Y6075601D01*
X3932410Y6053458D01*
X3921729Y6027672D01*
X3918086Y6000001D01*
X3921729Y5972329D01*
X3932410Y5946544D01*
X3949400Y5924401D01*
X3971543Y5907410D01*
X3997329Y5896729D01*
X4025000Y5893086D01*
X4052672Y5896729D01*
X4078458Y5907410D01*
X4100600Y5924401D01*
X4117591Y5946544D01*
X4128272Y5972329D01*
X4131915Y6000001D01*
X4128272Y6027672D01*
X4117591Y6053458D01*
X4100600Y6075601D01*
X4078458Y6092591D01*
X4052672Y6103272D01*
X4025000Y6106915D01*
D02*
G37*
G36*
X3725000D02*
X3697329Y6103272D01*
X3671543Y6092591D01*
X3649400Y6075601D01*
X3632410Y6053458D01*
X3621729Y6027672D01*
X3618086Y6000001D01*
X3621729Y5972329D01*
X3632410Y5946544D01*
X3649400Y5924401D01*
X3671543Y5907410D01*
X3697329Y5896729D01*
X3725000Y5893086D01*
X3752672Y5896729D01*
X3778458Y5907410D01*
X3800600Y5924401D01*
X3817591Y5946544D01*
X3828272Y5972329D01*
X3831915Y6000001D01*
X3828272Y6027672D01*
X3817591Y6053458D01*
X3800600Y6075601D01*
X3778458Y6092591D01*
X3752672Y6103272D01*
X3725000Y6106915D01*
D02*
G37*
G36*
X2125001Y6106915D02*
X2097329Y6103272D01*
X2071543Y6092591D01*
X2049401Y6075600D01*
X2032410Y6053457D01*
X2021729Y6027672D01*
X2018086Y6000000D01*
X2021729Y5972329D01*
X2032410Y5946543D01*
X2049401Y5924400D01*
X2071543Y5907410D01*
X2097329Y5896729D01*
X2125001Y5893086D01*
X2152672Y5896729D01*
X2178458Y5907410D01*
X2200601Y5924400D01*
X2217591Y5946543D01*
X2228272Y5972329D01*
X2231915Y6000000D01*
X2228272Y6027672D01*
X2217591Y6053457D01*
X2200601Y6075600D01*
X2178458Y6092591D01*
X2152672Y6103272D01*
X2125001Y6106915D01*
D02*
G37*
G36*
X1825000D02*
X1797329Y6103272D01*
X1771543Y6092591D01*
X1749400Y6075600D01*
X1732410Y6053457D01*
X1721729Y6027672D01*
X1718086Y6000000D01*
X1721729Y5972329D01*
X1732410Y5946543D01*
X1749400Y5924400D01*
X1771543Y5907410D01*
X1797329Y5896729D01*
X1825000Y5893086D01*
X1852672Y5896729D01*
X1878458Y5907410D01*
X1900600Y5924400D01*
X1917591Y5946543D01*
X1928272Y5972329D01*
X1931915Y6000000D01*
X1928272Y6027672D01*
X1917591Y6053457D01*
X1900600Y6075600D01*
X1878458Y6092591D01*
X1852672Y6103272D01*
X1825000Y6106915D01*
D02*
G37*
G36*
X1525001D02*
X1497329Y6103272D01*
X1471543Y6092591D01*
X1449400Y6075600D01*
X1432410Y6053457D01*
X1421729Y6027672D01*
X1418086Y6000000D01*
X1421729Y5972329D01*
X1432410Y5946543D01*
X1449400Y5924400D01*
X1471543Y5907410D01*
X1497329Y5896729D01*
X1525001Y5893086D01*
X1552672Y5896729D01*
X1578458Y5907410D01*
X1600601Y5924400D01*
X1617591Y5946543D01*
X1628272Y5972329D01*
X1631915Y6000000D01*
X1628272Y6027672D01*
X1617591Y6053457D01*
X1600601Y6075600D01*
X1578458Y6092591D01*
X1552672Y6103272D01*
X1525001Y6106915D01*
D02*
G37*
%LPD*%
D18*
X5000000Y2600000D02*
Y2790000D01*
X5400000Y2600000D02*
Y2790000D01*
X5200000Y2600000D02*
Y2790000D01*
D21*
X200000Y5600000D02*
D03*
Y4900000D02*
D03*
Y3500000D02*
D03*
Y2800000D02*
D03*
Y4200000D02*
D03*
D22*
X6225001Y4650000D02*
D03*
X7100001Y3150000D02*
D03*
Y2150000D02*
D03*
X6225001Y3650000D02*
D03*
X7100001Y4150000D02*
D03*
X6225001Y1650000D02*
D03*
Y2650000D02*
D03*
D23*
Y4150000D02*
D03*
X7100001Y2650000D02*
D03*
Y1650000D02*
D03*
X6225001Y3150000D02*
D03*
X7100001Y3650000D02*
D03*
X6225001Y1150000D02*
D03*
Y2150000D02*
D03*
D24*
X940001Y1310000D02*
D03*
X620001D02*
D03*
X700001Y1490000D02*
D03*
X780001Y1310000D02*
D03*
X860001Y1490000D02*
D03*
D25*
X1200001Y1390000D02*
D03*
X360001D02*
D03*
D26*
X1904001Y826500D02*
D03*
X1396001Y724900D02*
D03*
Y928100D02*
D03*
D27*
X2875000Y6100000D02*
D03*
X2825000Y6175000D02*
D03*
X2925000D02*
D03*
Y6025000D02*
D03*
X2825000D02*
D03*
X2490000Y4680000D02*
D03*
X2440000Y4755000D02*
D03*
X2540000D02*
D03*
Y4605000D02*
D03*
X2440000D02*
D03*
D28*
X8939001Y5405000D02*
D03*
Y1595000D02*
D03*
D29*
X8587001Y4643000D02*
D03*
X7825001D02*
D03*
X8587001Y3881000D02*
D03*
X7825001D02*
D03*
Y2357000D02*
D03*
X8587001D02*
D03*
X7825001Y3119000D02*
D03*
X8587001D02*
D03*
D30*
X5800000Y6425000D02*
D03*
X8050000D02*
D03*
D31*
X7095776Y4572202D02*
D03*
X6354225Y5727798D02*
D03*
D32*
X4025000Y6729997D02*
D03*
X1825000Y6729996D02*
D03*
D33*
X3725000Y6300000D02*
D03*
X1525001Y6300000D02*
D03*
D34*
X4025000Y6300000D02*
D03*
X4325000D02*
D03*
X3725000Y6000001D02*
D03*
X4025000D02*
D03*
X4325000D02*
D03*
X2125001Y6000000D02*
D03*
X1825000D02*
D03*
X1525001D02*
D03*
X2125000Y6300000D02*
D03*
X1825000D02*
D03*
D35*
X8006000Y525000D02*
D03*
X7244000D02*
D03*
Y271000D02*
D03*
X8006000Y779000D02*
D03*
X7244000D02*
D03*
X8006000Y271000D02*
D03*
D36*
X5023000Y6881000D02*
D03*
X5277000D02*
D03*
Y6119000D02*
D03*
X5023000D02*
D03*
D37*
X500000Y500000D02*
D03*
Y6500000D02*
D03*
X8900000D02*
D03*
Y500000D02*
D03*
D38*
X2320000Y620000D02*
D03*
X6175001Y625000D02*
D03*
D39*
X7025000Y5725000D02*
D03*
D40*
X3125000Y5975000D02*
D03*
X4740000Y3680000D02*
D03*
X1690000Y4060000D02*
D03*
X2240000D02*
D03*
X5000000Y2665000D02*
D03*
Y2795000D02*
D03*
X5400000D02*
D03*
Y2665000D02*
D03*
X5200000Y2795000D02*
D03*
Y2730000D02*
D03*
Y2665000D02*
D03*
X2115001Y2220000D02*
D03*
X2415001D02*
D03*
Y2520000D02*
D03*
X2115001D02*
D03*
X2320000Y4230000D02*
D03*
X2249990Y4679998D02*
D03*
X2847500Y2090000D02*
D03*
X1392960Y2767500D02*
D03*
X1030000Y2790000D02*
D03*
Y2930000D02*
D03*
X1650001Y3020000D02*
D03*
X1480000Y3030000D02*
D03*
X2090000Y2930000D02*
D03*
X1970000Y2830000D02*
D03*
X1810000D02*
D03*
X1380000Y2630000D02*
D03*
X900000Y2860000D02*
D03*
X1710000Y1800000D02*
D03*
X2120000Y1440000D02*
D03*
X1650001Y670000D02*
D03*
Y970000D02*
D03*
X3000000Y1050000D02*
D03*
X2930001Y1315000D02*
D03*
X2739989Y1380004D02*
D03*
X2789989Y1290005D02*
D03*
X2542730Y1442730D02*
D03*
X2639989Y1287500D02*
D03*
X2452500Y1327270D02*
D03*
X5400000Y2730000D02*
D03*
X5000000D02*
D03*
Y2600000D02*
D03*
X4140000Y5010000D02*
D03*
X4290000Y5000000D02*
D03*
X3990000Y4240000D02*
D03*
X3830000D02*
D03*
X3660000D02*
D03*
X3630000Y4050000D02*
D03*
X3100000Y4480000D02*
D03*
X2570000Y3410000D02*
D03*
X2420000D02*
D03*
X3220000Y2240000D02*
D03*
Y2390000D02*
D03*
X4860000Y990000D02*
D03*
X900000Y3000000D02*
D03*
X3290001Y2160000D02*
D03*
X3319988Y1910003D02*
D03*
X3300001Y2030000D02*
D03*
X3620000Y2730000D02*
D03*
X3750000Y2870000D02*
D03*
X2350000Y980000D02*
D03*
X400000Y5420000D02*
D03*
X200000Y4640000D02*
D03*
Y3940000D02*
D03*
X370001Y2580000D02*
D03*
X200000Y3240000D02*
D03*
X640000Y2650000D02*
D03*
X4730000Y5360000D02*
D03*
X4650000Y5060000D02*
D03*
X4495000Y5370000D02*
D03*
X3490000Y4760000D02*
D03*
Y4560000D02*
D03*
Y4360000D02*
D03*
X1380000Y4090000D02*
D03*
X2690000Y3190000D02*
D03*
X2369990Y2820001D02*
D03*
X1630000Y3640000D02*
D03*
X7040000Y6600000D02*
D03*
Y6520000D02*
D03*
X6960000D02*
D03*
Y6360000D02*
D03*
Y6440000D02*
D03*
X7040000Y6360000D02*
D03*
Y6440000D02*
D03*
X6960000Y6280000D02*
D03*
X7040000Y6200000D02*
D03*
Y6280000D02*
D03*
X7200000Y6600000D02*
D03*
Y6520000D02*
D03*
X7120000Y6600000D02*
D03*
Y6520000D02*
D03*
Y6360000D02*
D03*
Y6440000D02*
D03*
X7200000Y6360000D02*
D03*
Y6440000D02*
D03*
X7120000Y6200000D02*
D03*
Y6280000D02*
D03*
X7200000Y6200000D02*
D03*
Y6280000D02*
D03*
X7360001Y6280000D02*
D03*
Y6200000D02*
D03*
X7280000Y6280000D02*
D03*
Y6200000D02*
D03*
X7360001Y6440000D02*
D03*
Y6360000D02*
D03*
X7280000Y6440000D02*
D03*
Y6360000D02*
D03*
Y6520000D02*
D03*
Y6600000D02*
D03*
X7360001Y6520000D02*
D03*
X5750000Y5290000D02*
D03*
X2860000Y4160000D02*
D03*
X2648662Y4035287D02*
D03*
X5970001Y2530000D02*
D03*
X4570001Y4170000D02*
D03*
X4260000Y3930000D02*
D03*
X4420000Y4130000D02*
D03*
X4310001Y3680500D02*
D03*
X4130000Y3450000D02*
D03*
X2879038Y629038D02*
D03*
X4280000Y1580000D02*
D03*
X6620000Y340000D02*
D03*
X4360000Y2310000D02*
D03*
Y2230000D02*
D03*
X2150001Y1140000D02*
D03*
X3220000Y1940000D02*
D03*
X3230000Y1610000D02*
D03*
X3140000Y1630000D02*
D03*
X2847500Y1940000D02*
D03*
X2850000Y2660000D02*
D03*
X3000000Y1380000D02*
D03*
X2860000D02*
D03*
X1760000Y1230000D02*
D03*
X1810000Y1350000D02*
D03*
X1850000Y1440000D02*
D03*
X2260000Y1440000D02*
D03*
X2550000Y1810000D02*
D03*
X2190000Y1230000D02*
D03*
X2395000Y1440000D02*
D03*
X1427390Y1861305D02*
D03*
X1509991Y1910003D02*
D03*
X1756021Y2078521D02*
D03*
X2260000Y1840000D02*
D03*
X3010001Y930000D02*
D03*
X2964980Y3419520D02*
D03*
X2960000Y2990000D02*
D03*
X3370000Y3770000D02*
D03*
X3070000Y3420000D02*
D03*
X2060000Y590000D02*
D03*
X1260001Y280000D02*
D03*
Y600000D02*
D03*
X1600000Y590000D02*
D03*
X1720000D02*
D03*
X2060000Y290000D02*
D03*
X2797500Y2370000D02*
D03*
X1850000Y1800000D02*
D03*
X5750000Y4150000D02*
D03*
Y4050000D02*
D03*
Y3950000D02*
D03*
X5850000Y4150000D02*
D03*
Y4050000D02*
D03*
Y3950000D02*
D03*
Y4250000D02*
D03*
X5750000D02*
D03*
X4050001Y3910000D02*
D03*
X4190001Y1420000D02*
D03*
X4520000D02*
D03*
X4530000Y2810000D02*
D03*
X4560001Y3150000D02*
D03*
X4790000Y3230000D02*
D03*
X2759988Y2640001D02*
D03*
X4670000Y4040000D02*
D03*
X4730000Y3940000D02*
D03*
X3220000Y4250000D02*
D03*
X3875000Y4930000D02*
D03*
X5060000Y6630000D02*
D03*
X4210000Y5100000D02*
D03*
X3980000Y5260000D02*
D03*
X4055001D02*
D03*
X3710000D02*
D03*
X3530000Y3780000D02*
D03*
X2680000Y2890000D02*
D03*
X2150001Y5430000D02*
D03*
X1970000Y5020000D02*
D03*
X2150001D02*
D03*
X1970000Y4880000D02*
D03*
X2299541Y3025000D02*
D03*
X1380000Y4250000D02*
D03*
X910000Y4320000D02*
D03*
X180000Y1990000D02*
D03*
Y2140000D02*
D03*
Y2290000D02*
D03*
Y2440000D02*
D03*
X550000Y1980000D02*
D03*
X800000Y2210000D02*
D03*
X900000Y2330000D02*
D03*
X550000Y2157500D02*
D03*
X200000Y5330000D02*
D03*
X3380000Y2890000D02*
D03*
X3100000Y4650000D02*
D03*
X2740000Y4800000D02*
D03*
X3100000D02*
D03*
X2730000Y4480000D02*
D03*
X1160000Y2380000D02*
D03*
Y2220000D02*
D03*
X960000Y1960000D02*
D03*
X1360000Y2020000D02*
D03*
X1290000Y1920000D02*
D03*
X760001Y1760000D02*
D03*
X940000D02*
D03*
X3220000Y2090000D02*
D03*
X2827488Y2550000D02*
D03*
X1489741Y979740D02*
D03*
X1590000Y2270000D02*
D03*
X1430000Y2222500D02*
D03*
X2318640Y6551361D02*
D03*
X1470000Y5250000D02*
D03*
X1370000Y4970000D02*
D03*
X1380000Y2480000D02*
D03*
X1750000Y2510000D02*
D03*
X1800714Y2651263D02*
D03*
X1990000Y5430000D02*
D03*
X3670001Y4625000D02*
D03*
X3780001Y4620824D02*
D03*
X3340001Y940000D02*
D03*
X1780000Y3140000D02*
D03*
X2840000Y2450000D02*
D03*
X3220000Y2540000D02*
D03*
X1850001Y965000D02*
D03*
X1500001Y665000D02*
D03*
X1850001Y690000D02*
D03*
X2325000Y5875000D02*
D03*
X1200000Y5150000D02*
D03*
X3375000Y6075000D02*
D03*
X3125000Y6150000D02*
D03*
X3275000Y6625000D02*
D03*
X4275000Y6750000D02*
D03*
X2625000Y6100000D02*
D03*
X2500000Y6575000D02*
D03*
X3675000Y4930000D02*
D03*
X3490000Y4660000D02*
D03*
Y4460000D02*
D03*
X4850000Y4250000D02*
D03*
X4950001D02*
D03*
X5050001D02*
D03*
X5150000D02*
D03*
X5250000D02*
D03*
X5350000D02*
D03*
X5450001D02*
D03*
X5550001D02*
D03*
X5650000D02*
D03*
X5200000Y2100000D02*
D03*
X5100000D02*
D03*
X5000000D02*
D03*
Y2000000D02*
D03*
Y1900000D02*
D03*
Y1800000D02*
D03*
X5650000Y3950000D02*
D03*
Y4050000D02*
D03*
Y4150000D02*
D03*
X5550001Y3950000D02*
D03*
Y4050000D02*
D03*
Y4150000D02*
D03*
X5450001Y3950000D02*
D03*
Y4050000D02*
D03*
Y4150000D02*
D03*
X5350000Y3950000D02*
D03*
Y4050000D02*
D03*
Y4150000D02*
D03*
X5250000Y3950000D02*
D03*
Y4050000D02*
D03*
Y4150000D02*
D03*
X5150000Y3950000D02*
D03*
Y4050000D02*
D03*
Y4150000D02*
D03*
X5050001Y3950000D02*
D03*
Y4050000D02*
D03*
Y4150000D02*
D03*
X4950001Y3950000D02*
D03*
Y4050000D02*
D03*
Y4150000D02*
D03*
X4850000Y3950000D02*
D03*
Y4050000D02*
D03*
Y4150000D02*
D03*
X5400000Y2600000D02*
D03*
X5200000D02*
D03*
X5100000Y2000000D02*
D03*
Y1800000D02*
D03*
Y1900000D02*
D03*
X5600000Y1700000D02*
D03*
Y1800000D02*
D03*
Y1900000D02*
D03*
X5500000Y1800000D02*
D03*
Y1900000D02*
D03*
Y2000000D02*
D03*
X5200000Y1800000D02*
D03*
Y1900000D02*
D03*
Y2000000D02*
D03*
X5400000Y1800000D02*
D03*
Y1900000D02*
D03*
Y2000000D02*
D03*
X5300000D02*
D03*
Y1900000D02*
D03*
Y1800000D02*
D03*
%TF.MD5,e55deaab15c4fe0ce8c0115efd0addec*%
M02*
