%TF.GenerationSoftware,Altium Limited,Altium Designer,22.0.2 (36)*%
G04 Layer_Color=65535*
%FSLAX45Y45*%
%MOMM*%
%TF.SameCoordinates,8084254D-3EA1-499E-96B0-688E0DB6412D*%
%TF.FilePolarity,Positive*%
%TF.FileFunction,Legend,Top*%
%TF.Part,Single*%
G01*
G75*
%TA.AperFunction,NonConductor*%
%ADD96C,0.20000*%
%ADD97C,0.25000*%
%ADD98C,0.25400*%
%ADD101C,0.10000*%
%ADD194C,0.12700*%
%ADD195C,0.15240*%
G36*
X9079141Y3371379D02*
X9163738D01*
Y3358620D01*
X9079141D01*
Y3327000D01*
X9067769D01*
Y3402999D01*
X9079141D01*
Y3371379D01*
D02*
G37*
G36*
X9235355Y3410765D02*
X9236603D01*
X9238128Y3410626D01*
X9239793Y3410349D01*
X9241595Y3410210D01*
X9245617Y3409517D01*
X9250055Y3408407D01*
X9254493Y3406882D01*
X9256712Y3406050D01*
X9258931Y3404940D01*
X9259070D01*
X9259486Y3404663D01*
X9260040Y3404386D01*
X9260873Y3403831D01*
X9261843Y3403276D01*
X9262814Y3402583D01*
X9265449Y3400641D01*
X9268223Y3398284D01*
X9271135Y3395510D01*
X9273909Y3392181D01*
X9276405Y3388298D01*
Y3388160D01*
X9276682Y3387882D01*
X9276960Y3387189D01*
X9277376Y3386357D01*
X9277792Y3385386D01*
X9278208Y3384276D01*
X9278763Y3382890D01*
X9279317Y3381364D01*
X9279872Y3379700D01*
X9280427Y3377897D01*
X9281259Y3373875D01*
X9281952Y3369576D01*
X9282230Y3364999D01*
Y3363613D01*
X9282091Y3362780D01*
Y3361532D01*
X9281814Y3360145D01*
X9281675Y3358620D01*
X9281398Y3356817D01*
X9280566Y3353073D01*
X9279456Y3349051D01*
X9277792Y3344890D01*
X9276821Y3342810D01*
X9275712Y3340730D01*
X9275573Y3340591D01*
X9275434Y3340314D01*
X9275018Y3339759D01*
X9274464Y3338927D01*
X9273909Y3338095D01*
X9273077Y3337124D01*
X9270996Y3334766D01*
X9268500Y3332131D01*
X9265449Y3329358D01*
X9261982Y3326861D01*
X9257960Y3324504D01*
X9257821D01*
X9257405Y3324226D01*
X9256851Y3323949D01*
X9256019Y3323672D01*
X9254909Y3323255D01*
X9253661Y3322839D01*
X9252274Y3322285D01*
X9250749Y3321869D01*
X9248946Y3321314D01*
X9247143Y3320759D01*
X9242982Y3319927D01*
X9238683Y3319372D01*
X9233968Y3319095D01*
X9233829D01*
X9233690D01*
X9232858D01*
X9231610Y3319234D01*
X9229946D01*
X9228004Y3319511D01*
X9225647Y3319788D01*
X9223012Y3320204D01*
X9220238Y3320759D01*
X9217326Y3321314D01*
X9214275Y3322146D01*
X9211224Y3323255D01*
X9208034Y3324504D01*
X9204983Y3325890D01*
X9201932Y3327693D01*
X9199158Y3329635D01*
X9196523Y3331854D01*
X9196384Y3331993D01*
X9195968Y3332409D01*
X9195275Y3333241D01*
X9194443Y3334212D01*
X9193333Y3335460D01*
X9192224Y3336985D01*
X9190976Y3338788D01*
X9189728Y3340868D01*
X9188479Y3343087D01*
X9187231Y3345584D01*
X9186122Y3348357D01*
X9185012Y3351270D01*
X9184180Y3354459D01*
X9183487Y3357788D01*
X9183071Y3361255D01*
X9182932Y3364999D01*
Y3366248D01*
X9183071Y3367218D01*
Y3368466D01*
X9183209Y3369715D01*
X9183487Y3371379D01*
X9183764Y3373043D01*
X9184458Y3376649D01*
X9185567Y3380809D01*
X9187231Y3384831D01*
X9188202Y3386911D01*
X9189312Y3388992D01*
X9189450Y3389130D01*
X9189589Y3389408D01*
X9190005Y3389962D01*
X9190421Y3390795D01*
X9191114Y3391627D01*
X9191947Y3392736D01*
X9193888Y3395094D01*
X9196384Y3397590D01*
X9199435Y3400364D01*
X9203041Y3402999D01*
X9207063Y3405218D01*
X9207202D01*
X9207618Y3405495D01*
X9208173Y3405772D01*
X9209005Y3406050D01*
X9210114Y3406605D01*
X9211362Y3407021D01*
X9212888Y3407575D01*
X9214552Y3408130D01*
X9216355Y3408546D01*
X9218297Y3409101D01*
X9220515Y3409656D01*
X9222734Y3410072D01*
X9227588Y3410626D01*
X9232858Y3410904D01*
X9232997D01*
X9233552D01*
X9234245D01*
X9235355Y3410765D01*
D02*
G37*
G36*
X595224Y4998500D02*
X597723Y4998222D01*
X600777Y4997945D01*
X603831Y4997667D01*
X607440Y4996834D01*
X614936Y4995168D01*
X623264Y4992670D01*
X627429Y4991004D01*
X631315Y4989061D01*
X635202Y4986562D01*
X639089Y4984063D01*
X639366Y4983786D01*
X639922Y4983508D01*
X641032Y4982675D01*
X642420Y4981287D01*
X643808Y4979899D01*
X645752Y4977956D01*
X647695Y4975735D01*
X649916Y4973514D01*
X652137Y4970738D01*
X654358Y4967406D01*
X656856Y4964075D01*
X659077Y4960466D01*
X661021Y4956301D01*
X663242Y4952137D01*
X664907Y4947695D01*
X666573Y4942698D01*
X641587Y4936868D01*
Y4937145D01*
X641310Y4937701D01*
X640754Y4938811D01*
X640199Y4940199D01*
X639644Y4941865D01*
X638811Y4944086D01*
X636590Y4948528D01*
X633814Y4953525D01*
X630482Y4958522D01*
X626318Y4963242D01*
X621876Y4967406D01*
X621321Y4967961D01*
X619655Y4969072D01*
X616879Y4970460D01*
X613270Y4972403D01*
X608550Y4974069D01*
X603275Y4975735D01*
X596890Y4976845D01*
X589950Y4977123D01*
X587729D01*
X586340Y4976845D01*
X584397D01*
X582176Y4976568D01*
X576901Y4975735D01*
X571071Y4974624D01*
X564964Y4972681D01*
X558578Y4969905D01*
X552748Y4966296D01*
X552471D01*
X552193Y4965740D01*
X550250Y4964352D01*
X547751Y4962131D01*
X544697Y4958800D01*
X541088Y4954636D01*
X537757Y4949916D01*
X534703Y4944086D01*
X531927Y4937701D01*
Y4937423D01*
X531649Y4936868D01*
X531371Y4936035D01*
X531094Y4934647D01*
X530538Y4932981D01*
X529983Y4931038D01*
X529150Y4926318D01*
X528040Y4920766D01*
X526929Y4914658D01*
X526374Y4907995D01*
X526096Y4900777D01*
Y4900499D01*
Y4899666D01*
Y4898278D01*
Y4896613D01*
X526374Y4894669D01*
Y4892171D01*
X526652Y4889394D01*
X526929Y4886340D01*
X527762Y4879678D01*
X529150Y4872459D01*
X530816Y4865241D01*
X533037Y4858023D01*
Y4857745D01*
X533315Y4857190D01*
X533870Y4856357D01*
X534425Y4854969D01*
X536091Y4851638D01*
X538589Y4847751D01*
X541643Y4843309D01*
X545530Y4838590D01*
X549972Y4834425D01*
X555247Y4830538D01*
X555524D01*
X556080Y4830261D01*
X556913Y4829706D01*
X558023Y4829150D01*
X559411Y4828595D01*
X561077Y4827762D01*
X564964Y4826097D01*
X569961Y4824431D01*
X575513Y4823043D01*
X581621Y4821932D01*
X588006Y4821655D01*
X589950D01*
X591615Y4821932D01*
X593559D01*
X595502Y4822210D01*
X600499Y4823320D01*
X606329Y4824708D01*
X612159Y4826929D01*
X618267Y4829983D01*
X621321Y4831649D01*
X624097Y4833870D01*
X624375Y4834148D01*
X624652Y4834425D01*
X625485Y4835258D01*
X626596Y4836091D01*
X627706Y4837479D01*
X629094Y4839145D01*
X630760Y4840810D01*
X632148Y4843031D01*
X633814Y4845530D01*
X635757Y4848306D01*
X637423Y4851082D01*
X639089Y4854414D01*
X640477Y4858023D01*
X641865Y4861910D01*
X643253Y4866074D01*
X644363Y4870516D01*
X669905Y4864131D01*
Y4863853D01*
X669627Y4862743D01*
X669072Y4861077D01*
X668239Y4858856D01*
X667406Y4856357D01*
X666296Y4853303D01*
X664907Y4849972D01*
X663242Y4846363D01*
X659355Y4838590D01*
X654358Y4830816D01*
X651304Y4826929D01*
X648250Y4823043D01*
X644919Y4819711D01*
X641032Y4816380D01*
X640754Y4816102D01*
X640199Y4815547D01*
X638811Y4814992D01*
X637423Y4813881D01*
X635202Y4812493D01*
X632981Y4811105D01*
X629927Y4809717D01*
X626873Y4808329D01*
X623264Y4806663D01*
X619377Y4805275D01*
X615213Y4803887D01*
X610771Y4802499D01*
X606052Y4801388D01*
X601054Y4800833D01*
X595780Y4800278D01*
X590227Y4800000D01*
X587173D01*
X584952Y4800278D01*
X582454D01*
X579400Y4800555D01*
X576068Y4801111D01*
X572182Y4801666D01*
X564131Y4803054D01*
X555802Y4805275D01*
X547473Y4808329D01*
X543587Y4810272D01*
X539700Y4812493D01*
X539422Y4812771D01*
X538867Y4813048D01*
X537757Y4813881D01*
X536646Y4814992D01*
X534980Y4816102D01*
X533037Y4817768D01*
X530816Y4819711D01*
X528595Y4821932D01*
X526374Y4824431D01*
X523876Y4826929D01*
X518878Y4833315D01*
X514159Y4840810D01*
X509994Y4849139D01*
Y4849417D01*
X509439Y4850250D01*
X509162Y4851638D01*
X508329Y4853303D01*
X507773Y4855524D01*
X506941Y4858301D01*
X505830Y4861355D01*
X504997Y4864686D01*
X504164Y4868295D01*
X503054Y4872459D01*
X501666Y4881066D01*
X500555Y4890782D01*
X500000Y4900777D01*
Y4901054D01*
Y4902165D01*
Y4903831D01*
X500278Y4905774D01*
Y4908550D01*
X500555Y4911326D01*
X500833Y4914936D01*
X501388Y4918545D01*
X502776Y4926596D01*
X504720Y4935480D01*
X507496Y4944363D01*
X511383Y4952970D01*
X511660Y4953247D01*
X511938Y4954080D01*
X512493Y4955191D01*
X513603Y4956579D01*
X514714Y4958522D01*
X516102Y4960743D01*
X519711Y4965740D01*
X524431Y4971293D01*
X529983Y4976845D01*
X536368Y4982398D01*
X543864Y4987117D01*
X544142Y4987395D01*
X544975Y4987673D01*
X546085Y4988228D01*
X547473Y4989061D01*
X549694Y4989893D01*
X551915Y4990726D01*
X554692Y4991837D01*
X557745Y4992947D01*
X561077Y4994058D01*
X564686Y4995168D01*
X572459Y4996834D01*
X581343Y4998222D01*
X590505Y4998777D01*
X593281D01*
X595224Y4998500D01*
D02*
G37*
G36*
X1031369Y4803332D02*
X1004994D01*
X904495Y4954080D01*
Y4803332D01*
X880065D01*
Y4995446D01*
X906161D01*
X1006938Y4844420D01*
Y4995446D01*
X1031369D01*
Y4803332D01*
D02*
G37*
G36*
X859798D02*
X830925D01*
X808438Y4861632D01*
X727928D01*
X707106Y4803332D01*
X680177D01*
X753469Y4995446D01*
X781231D01*
X859798Y4803332D01*
D02*
G37*
G36*
X651026Y4184397D02*
Y4184119D01*
Y4183009D01*
Y4181621D01*
Y4179677D01*
X650749Y4177179D01*
Y4174403D01*
X650471Y4171071D01*
X650194Y4167740D01*
X649361Y4160244D01*
X648250Y4152470D01*
X646584Y4144975D01*
X645474Y4141366D01*
X644363Y4138034D01*
Y4137757D01*
X644086Y4137201D01*
X643531Y4136368D01*
X642975Y4135258D01*
X641310Y4132204D01*
X638811Y4128317D01*
X635480Y4123875D01*
X631593Y4119433D01*
X626596Y4114714D01*
X620488Y4110550D01*
X620210D01*
X619655Y4109994D01*
X618822Y4109717D01*
X617434Y4108884D01*
X615768Y4108051D01*
X613547Y4107218D01*
X611326Y4106385D01*
X608550Y4105275D01*
X605496Y4104164D01*
X602165Y4103331D01*
X598556Y4102499D01*
X594391Y4101666D01*
X590227Y4101110D01*
X585785Y4100555D01*
X575791Y4100000D01*
X573292D01*
X571349Y4100278D01*
X569128D01*
X566352Y4100555D01*
X563298Y4100833D01*
X560244Y4101110D01*
X553303Y4102221D01*
X545808Y4103887D01*
X538589Y4106108D01*
X531649Y4109161D01*
X531371D01*
X530816Y4109717D01*
X529983Y4110272D01*
X528873Y4110827D01*
X525819Y4113048D01*
X522210Y4116102D01*
X518045Y4119989D01*
X514159Y4124431D01*
X510272Y4129983D01*
X507218Y4136091D01*
Y4136368D01*
X506941Y4136924D01*
X506663Y4138034D01*
X506108Y4139422D01*
X505552Y4141088D01*
X504997Y4143309D01*
X504164Y4145808D01*
X503609Y4148861D01*
X503054Y4152193D01*
X502221Y4155802D01*
X501666Y4159689D01*
X501111Y4163853D01*
X500555Y4168573D01*
X500278Y4173570D01*
X500000Y4178845D01*
Y4184397D01*
Y4295446D01*
X525541D01*
Y4184397D01*
Y4184119D01*
Y4183287D01*
Y4181898D01*
Y4180233D01*
X525819Y4178289D01*
Y4175791D01*
X526096Y4170516D01*
X526652Y4164408D01*
X527485Y4158301D01*
X528595Y4152470D01*
X529150Y4149972D01*
X529983Y4147473D01*
X530261Y4146918D01*
X530816Y4145530D01*
X532204Y4143587D01*
X533870Y4140810D01*
X535813Y4138034D01*
X538589Y4134980D01*
X541921Y4131926D01*
X545808Y4129428D01*
X546363Y4129150D01*
X547751Y4128317D01*
X550250Y4127485D01*
X553581Y4126374D01*
X557468Y4124986D01*
X562465Y4124153D01*
X567740Y4123320D01*
X573570Y4123043D01*
X576346D01*
X578012Y4123320D01*
X580510D01*
X583009Y4123598D01*
X589117Y4124708D01*
X595780Y4126096D01*
X602165Y4128317D01*
X608273Y4131371D01*
X611049Y4133315D01*
X613547Y4135536D01*
X613825Y4135813D01*
X614103Y4136091D01*
X614658Y4136924D01*
X615491Y4138034D01*
X616324Y4139700D01*
X617434Y4141366D01*
X618545Y4143864D01*
X619655Y4146363D01*
X620766Y4149417D01*
X621598Y4153026D01*
X622709Y4157190D01*
X623542Y4161632D01*
X624375Y4166629D01*
X624930Y4171904D01*
X625485Y4178012D01*
Y4184397D01*
Y4295446D01*
X651026D01*
Y4184397D01*
D02*
G37*
G36*
X776512Y4295168D02*
X781231Y4294891D01*
X786228Y4294613D01*
X790948Y4294058D01*
X795112Y4293502D01*
X795667D01*
X797611Y4292947D01*
X800109Y4292392D01*
X803441Y4291559D01*
X807050Y4290171D01*
X810937Y4288505D01*
X815101Y4286562D01*
X818710Y4284341D01*
X819265Y4284063D01*
X820376Y4283230D01*
X822042Y4281565D01*
X824263Y4279621D01*
X826761Y4277123D01*
X829260Y4273791D01*
X832036Y4270182D01*
X834257Y4266018D01*
X834535Y4265463D01*
X835090Y4264075D01*
X836200Y4261576D01*
X837311Y4258244D01*
X838144Y4254358D01*
X839254Y4249916D01*
X839809Y4244919D01*
X840087Y4239644D01*
Y4239366D01*
Y4238533D01*
Y4237423D01*
X839809Y4235479D01*
X839532Y4233536D01*
X839254Y4231038D01*
X838699Y4228261D01*
X838144Y4225207D01*
X836200Y4218822D01*
X835090Y4215491D01*
X833424Y4211882D01*
X831481Y4208273D01*
X829537Y4204941D01*
X827039Y4201610D01*
X824263Y4198278D01*
X823985Y4198000D01*
X823430Y4197445D01*
X822597Y4196612D01*
X821209Y4195780D01*
X819543Y4194391D01*
X817322Y4193003D01*
X814546Y4191338D01*
X811492Y4189949D01*
X807883Y4188284D01*
X803718Y4186618D01*
X799277Y4185230D01*
X794002Y4184119D01*
X788449Y4183009D01*
X782342Y4182176D01*
X775401Y4181621D01*
X768183Y4181343D01*
X719044D01*
Y4103331D01*
X693503D01*
Y4295446D01*
X772347D01*
X776512Y4295168D01*
D02*
G37*
G36*
X5118399Y5319078D02*
X5128121Y5316300D01*
X5139232Y5313522D01*
X5151732Y5307967D01*
X5162843Y5301022D01*
X5175342Y5291300D01*
X5176731Y5289911D01*
X5179509Y5287133D01*
X5186453Y5280189D01*
X5187842Y5278800D01*
X5189231Y5276022D01*
X5194787Y5267689D01*
X5614226Y4541309D01*
X5615615Y4539920D01*
X5617004Y4535754D01*
X5619782Y4527420D01*
X5623948Y4517698D01*
X5626726Y4506587D01*
X5628115Y4492699D01*
Y4478810D01*
X5626726Y4463532D01*
Y4462143D01*
X5625337Y4459366D01*
X5623948Y4453810D01*
X5622559Y4448255D01*
Y4446866D01*
X5621171Y4444088D01*
X5618393Y4439922D01*
X5615615Y4432977D01*
X5614226D01*
X5612837Y4431588D01*
X5610060Y4427422D01*
X5605893Y4420477D01*
X5598949Y4413533D01*
X5590615Y4405200D01*
X5580893Y4396866D01*
X5568393Y4389922D01*
X5554505Y4384367D01*
X5553116D01*
X5548949Y4382978D01*
X5543394Y4381589D01*
X5537838D01*
X5536449Y4380200D01*
X5530894D01*
X5523950Y4378811D01*
X4678127Y4378811D01*
X4669793Y4380200D01*
X4660071Y4382978D01*
X4647571Y4385755D01*
X4635072Y4391311D01*
X4622572Y4398255D01*
X4610072Y4407977D01*
X4608683Y4409366D01*
X4605905Y4412144D01*
X4598961Y4419088D01*
X4597572Y4420477D01*
X4596183Y4423255D01*
X4590628Y4432977D01*
X4589239Y4434366D01*
X4587850Y4438532D01*
X4585072Y4445477D01*
X4580905Y4455199D01*
X4578128Y4466310D01*
X4576739Y4478810D01*
Y4492698D01*
X4578128Y4507976D01*
Y4509365D01*
X4579517Y4513531D01*
X4580905Y4519087D01*
X4582294Y4523254D01*
Y4524642D01*
X4583683Y4527420D01*
X4586461Y4531587D01*
X4589239Y4537142D01*
Y4538531D01*
Y4539920D01*
X4590628D01*
X5008678Y5264911D01*
Y5266300D01*
X5011456Y5269078D01*
X5017011Y5277411D01*
X5028122Y5289911D01*
X5040622Y5301022D01*
X5043400Y5302411D01*
X5048955Y5305189D01*
X5050344Y5306577D01*
X5053122Y5307966D01*
X5058677Y5310744D01*
X5064233Y5313522D01*
X5072566Y5316300D01*
X5082288Y5317688D01*
X5092010Y5320466D01*
X5110065D01*
X5118399Y5319078D01*
D02*
G37*
G36*
X1103550Y3545196D02*
X1106604Y3544919D01*
X1110213Y3544363D01*
X1114100Y3543531D01*
X1118264Y3542420D01*
X1122151Y3540754D01*
X1122706Y3540477D01*
X1123817Y3539922D01*
X1125760Y3539089D01*
X1127981Y3537701D01*
X1130757Y3536035D01*
X1133256Y3533814D01*
X1135754Y3531593D01*
X1137975Y3528817D01*
X1138253Y3528539D01*
X1138808Y3527429D01*
X1139641Y3526040D01*
X1141029Y3524097D01*
X1142140Y3521321D01*
X1143250Y3518545D01*
X1144638Y3515213D01*
X1145471Y3511604D01*
Y3511326D01*
X1145749Y3510216D01*
X1146026Y3508550D01*
X1146304Y3506329D01*
Y3502998D01*
X1146582Y3499111D01*
X1146859Y3494392D01*
Y3488561D01*
Y3403054D01*
X1123261D01*
Y3487451D01*
Y3487729D01*
Y3488006D01*
Y3489950D01*
Y3492448D01*
X1122984Y3495502D01*
X1122706Y3499111D01*
X1122151Y3502720D01*
X1121318Y3506052D01*
X1120485Y3509106D01*
Y3509383D01*
X1119930Y3510216D01*
X1119097Y3511604D01*
X1118264Y3513270D01*
X1116876Y3514936D01*
X1115210Y3516879D01*
X1112989Y3518822D01*
X1110491Y3520488D01*
X1110213Y3520766D01*
X1109380Y3521321D01*
X1107715Y3521876D01*
X1105771Y3522709D01*
X1103550Y3523542D01*
X1100774Y3524375D01*
X1097443Y3524652D01*
X1094111Y3524930D01*
X1092723D01*
X1091612Y3524652D01*
X1088836Y3524375D01*
X1085227Y3523819D01*
X1081340Y3522431D01*
X1076899Y3520766D01*
X1072457Y3518545D01*
X1068292Y3515213D01*
X1067737Y3514658D01*
X1066627Y3513270D01*
X1065794Y3512159D01*
X1064961Y3510771D01*
X1063850Y3509106D01*
X1063017Y3507162D01*
X1061907Y3504941D01*
X1060796Y3502165D01*
X1059964Y3499111D01*
X1059131Y3495780D01*
X1058575Y3492171D01*
X1058020Y3488284D01*
X1057465Y3483564D01*
Y3478845D01*
Y3403054D01*
X1033867D01*
Y3542420D01*
X1054966D01*
Y3522431D01*
X1055244Y3522709D01*
X1055799Y3523542D01*
X1056632Y3524652D01*
X1057743Y3526040D01*
X1059408Y3527706D01*
X1061352Y3529650D01*
X1063573Y3531871D01*
X1066349Y3534091D01*
X1069125Y3536035D01*
X1072457Y3538256D01*
X1076066Y3540199D01*
X1079952Y3541865D01*
X1084394Y3543253D01*
X1088836Y3544363D01*
X1093833Y3545196D01*
X1099108Y3545474D01*
X1101329D01*
X1103550Y3545196D01*
D02*
G37*
G36*
X970014Y3403054D02*
X945861D01*
X923651Y3486341D01*
X918099Y3510216D01*
X890059Y3403054D01*
X865073D01*
X822874Y3542420D01*
X847583D01*
X869793Y3461910D01*
X877566Y3431927D01*
Y3432204D01*
X877844Y3432759D01*
X878121Y3434148D01*
X878399Y3434980D01*
X878676Y3436369D01*
X878954Y3438034D01*
X879509Y3439978D01*
X880065Y3442199D01*
X880897Y3444975D01*
X881730Y3448029D01*
X882563Y3451638D01*
X883674Y3455802D01*
X884784Y3460522D01*
X906994Y3542420D01*
X931147D01*
X951969Y3461355D01*
X958909Y3434703D01*
X966960Y3461632D01*
X990836Y3542420D01*
X1013878D01*
X970014Y3403054D01*
D02*
G37*
G36*
X578845Y3594891D02*
X584397Y3594613D01*
X589950Y3594058D01*
X595502Y3593225D01*
X600222Y3592392D01*
X600499D01*
X601054Y3592114D01*
X601887D01*
X602998Y3591559D01*
X606052Y3590726D01*
X609938Y3589338D01*
X614380Y3587395D01*
X619100Y3584896D01*
X623819Y3582120D01*
X628261Y3578511D01*
X628539Y3578233D01*
X628817Y3577956D01*
X629649Y3577123D01*
X630760Y3576290D01*
X633536Y3573514D01*
X636868Y3569627D01*
X640477Y3564908D01*
X644363Y3559355D01*
X647973Y3552970D01*
X651026Y3545752D01*
Y3545474D01*
X651304Y3544919D01*
X651859Y3543808D01*
X652137Y3542143D01*
X652970Y3540199D01*
X653525Y3537978D01*
X654080Y3535480D01*
X654913Y3532426D01*
X655746Y3529372D01*
X656301Y3525763D01*
X657689Y3517989D01*
X658522Y3509383D01*
X658800Y3499944D01*
Y3499666D01*
Y3499111D01*
Y3497723D01*
Y3496335D01*
X658522Y3494392D01*
Y3492171D01*
X658245Y3486896D01*
X657412Y3480788D01*
X656579Y3474403D01*
X655191Y3467740D01*
X653525Y3461077D01*
Y3460799D01*
X653247Y3460244D01*
X652970Y3459411D01*
X652692Y3458301D01*
X651582Y3455247D01*
X649916Y3451360D01*
X648250Y3446918D01*
X646029Y3442476D01*
X643253Y3437757D01*
X640477Y3433315D01*
X640199Y3432759D01*
X639089Y3431371D01*
X637423Y3429428D01*
X635202Y3426929D01*
X632703Y3424153D01*
X629649Y3421377D01*
X626596Y3418323D01*
X622987Y3415825D01*
X622431Y3415547D01*
X621321Y3414714D01*
X619377Y3413604D01*
X616601Y3412215D01*
X613270Y3410550D01*
X609383Y3409162D01*
X604941Y3407496D01*
X599944Y3406108D01*
X599389D01*
X598556Y3405830D01*
X597723Y3405552D01*
X594947Y3405275D01*
X591060Y3404720D01*
X586618Y3404164D01*
X581343Y3403609D01*
X575513Y3403332D01*
X569128Y3403054D01*
X500000D01*
Y3595168D01*
X573847D01*
X578845Y3594891D01*
D02*
G37*
G36*
X751803Y3545196D02*
X754302Y3544919D01*
X757078Y3544363D01*
X760132Y3543808D01*
X763741Y3543253D01*
X771237Y3540754D01*
X775123Y3539366D01*
X779010Y3537423D01*
X782897Y3535480D01*
X786784Y3532703D01*
X790393Y3529927D01*
X794002Y3526596D01*
X794279Y3526318D01*
X794835Y3525763D01*
X795667Y3524652D01*
X796778Y3523264D01*
X798166Y3521321D01*
X799832Y3518822D01*
X801498Y3516046D01*
X803163Y3512992D01*
X804829Y3509661D01*
X806495Y3505496D01*
X808160Y3501332D01*
X809549Y3496613D01*
X810659Y3491615D01*
X811492Y3486341D01*
X812047Y3480788D01*
X812325Y3474680D01*
Y3474403D01*
Y3473570D01*
Y3472182D01*
Y3470238D01*
X812047Y3468017D01*
X811770Y3465241D01*
Y3462465D01*
X811214Y3459411D01*
X810381Y3452471D01*
X808716Y3445530D01*
X806772Y3438590D01*
X803996Y3432204D01*
Y3431927D01*
X803718Y3431649D01*
X803163Y3430816D01*
X802608Y3429706D01*
X800665Y3426929D01*
X798166Y3423598D01*
X794835Y3419711D01*
X790670Y3415825D01*
X785951Y3411938D01*
X780398Y3408329D01*
X780121D01*
X779843Y3408051D01*
X779010Y3407496D01*
X777622Y3406941D01*
X776234Y3406385D01*
X774568Y3405830D01*
X770404Y3404164D01*
X765684Y3402776D01*
X759854Y3401388D01*
X753747Y3400278D01*
X747084Y3400000D01*
X744307D01*
X742086Y3400278D01*
X739588Y3400555D01*
X736812Y3401111D01*
X733480Y3401666D01*
X730149Y3402221D01*
X722653Y3404442D01*
X718489Y3406108D01*
X714602Y3407773D01*
X710715Y3409994D01*
X706828Y3412493D01*
X703219Y3415269D01*
X699610Y3418601D01*
X699333Y3418878D01*
X698777Y3419434D01*
X697945Y3420544D01*
X696834Y3422210D01*
X695446Y3424153D01*
X694058Y3426374D01*
X692392Y3429150D01*
X690726Y3432482D01*
X689061Y3436091D01*
X687395Y3440255D01*
X686007Y3444697D01*
X684619Y3449417D01*
X683508Y3454692D01*
X682675Y3460244D01*
X682120Y3466352D01*
X681842Y3472737D01*
Y3473292D01*
Y3474403D01*
X682120Y3476346D01*
Y3479122D01*
X682398Y3482176D01*
X682953Y3486063D01*
X683508Y3489950D01*
X684619Y3494392D01*
X685729Y3498833D01*
X687117Y3503553D01*
X688783Y3508550D01*
X691004Y3513270D01*
X693225Y3517712D01*
X696279Y3522154D01*
X699333Y3526318D01*
X703219Y3529927D01*
X703497Y3530205D01*
X704052Y3530482D01*
X705163Y3531315D01*
X706551Y3532426D01*
X708217Y3533536D01*
X710437Y3534924D01*
X712658Y3536312D01*
X715435Y3537701D01*
X718489Y3539089D01*
X721820Y3540477D01*
X729316Y3542975D01*
X737922Y3544919D01*
X742364Y3545196D01*
X747084Y3545474D01*
X749860D01*
X751803Y3545196D01*
D02*
G37*
G36*
X2630591Y3866103D02*
X2457971D01*
Y3795296D01*
X2618559D01*
Y3741150D01*
X2457971D01*
Y3654146D01*
X2636607D01*
Y3600000D01*
X2393181D01*
Y3920249D01*
X2630591D01*
Y3866103D01*
D02*
G37*
G36*
X2332093D02*
X2159473D01*
Y3795296D01*
X2320060D01*
Y3741150D01*
X2159473D01*
Y3654146D01*
X2338109D01*
Y3600000D01*
X2094683D01*
Y3920249D01*
X2332093D01*
Y3866103D01*
D02*
G37*
G36*
X1919286Y3919786D02*
X1931318D01*
X1944277Y3918861D01*
X1957235Y3917935D01*
X1962788Y3917472D01*
X1968342Y3917010D01*
X1972969Y3916084D01*
X1976672Y3915159D01*
X1977134D01*
X1978060Y3914696D01*
X1979448Y3914233D01*
X1981300Y3913770D01*
X1986390Y3911456D01*
X1992869Y3908680D01*
X1999811Y3904514D01*
X2007678Y3898961D01*
X2015083Y3892019D01*
X2022488Y3883689D01*
Y3883226D01*
X2023413Y3882763D01*
X2024339Y3881375D01*
X2025264Y3879524D01*
X2027116Y3876747D01*
X2028504Y3873970D01*
X2030355Y3870731D01*
X2032206Y3867029D01*
X2035446Y3857773D01*
X2038685Y3847591D01*
X2040536Y3835096D01*
X2041462Y3821675D01*
Y3821213D01*
Y3820287D01*
Y3818899D01*
Y3816585D01*
X2040999Y3814271D01*
Y3811031D01*
X2040074Y3804552D01*
X2038685Y3796685D01*
X2036834Y3787892D01*
X2034057Y3779562D01*
X2030355Y3771694D01*
X2029892Y3770769D01*
X2028504Y3768455D01*
X2026190Y3764752D01*
X2022950Y3760125D01*
X2019248Y3755497D01*
X2014158Y3749943D01*
X2009067Y3744853D01*
X2003051Y3740225D01*
X2002125Y3739762D01*
X2000274Y3738374D01*
X1997034Y3736522D01*
X1992869Y3734208D01*
X1987779Y3731432D01*
X1982225Y3729118D01*
X1976209Y3726804D01*
X1969730Y3724953D01*
X1968804D01*
X1967416Y3724490D01*
X1965565D01*
X1963251Y3724027D01*
X1960011Y3723564D01*
X1956772Y3723102D01*
X1952607D01*
X1948442Y3722639D01*
X1943351Y3722176D01*
X1937797Y3721713D01*
X1931781Y3721250D01*
X1925302D01*
X1918360Y3720788D01*
X1860975D01*
Y3600000D01*
X1796184D01*
Y3920249D01*
X1914195D01*
X1919286Y3919786D01*
D02*
G37*
G36*
X1754071Y3866103D02*
X1659662D01*
Y3600000D01*
X1594872D01*
Y3866103D01*
X1500000D01*
Y3920249D01*
X1754071D01*
Y3866103D01*
D02*
G37*
G36*
X1224038Y5645196D02*
X1227092Y5644641D01*
X1230701Y5643530D01*
X1234588Y5642142D01*
X1239030Y5640199D01*
X1243749Y5637700D01*
X1235143Y5616046D01*
X1234865Y5616324D01*
X1233755Y5616879D01*
X1232089Y5617712D01*
X1229868Y5618545D01*
X1227370Y5619377D01*
X1224316Y5620210D01*
X1221262Y5620765D01*
X1218208Y5621043D01*
X1216820D01*
X1215432Y5620765D01*
X1213489Y5620488D01*
X1211545Y5619933D01*
X1209047Y5619100D01*
X1206548Y5617989D01*
X1204327Y5616324D01*
X1204049Y5616046D01*
X1203217Y5615491D01*
X1202384Y5614380D01*
X1200996Y5612992D01*
X1199607Y5611049D01*
X1198219Y5608828D01*
X1196831Y5606329D01*
X1195721Y5603275D01*
X1195443Y5602720D01*
X1195166Y5601054D01*
X1194610Y5598556D01*
X1193777Y5595224D01*
X1192945Y5591060D01*
X1192389Y5586340D01*
X1192112Y5581343D01*
X1191834Y5575791D01*
Y5503054D01*
X1168236D01*
Y5642420D01*
X1189613D01*
Y5621321D01*
X1189891Y5621598D01*
X1191001Y5623542D01*
X1192389Y5626040D01*
X1194610Y5629094D01*
X1196831Y5632148D01*
X1199330Y5635479D01*
X1201828Y5638256D01*
X1204327Y5640477D01*
X1204605Y5640754D01*
X1205438Y5641310D01*
X1207103Y5642142D01*
X1208769Y5642975D01*
X1210990Y5643808D01*
X1213766Y5644641D01*
X1216542Y5645196D01*
X1219596Y5645474D01*
X1221540D01*
X1224038Y5645196D01*
D02*
G37*
G36*
X955300Y5503054D02*
X931147D01*
X908937Y5586340D01*
X903385Y5610216D01*
X875345Y5503054D01*
X850359D01*
X808160Y5642420D01*
X832869D01*
X855079Y5561910D01*
X862852Y5531926D01*
Y5532204D01*
X863130Y5532759D01*
X863407Y5534147D01*
X863685Y5534980D01*
X863962Y5536368D01*
X864240Y5538034D01*
X864795Y5539977D01*
X865351Y5542198D01*
X866183Y5544975D01*
X867016Y5548029D01*
X867849Y5551638D01*
X868960Y5555802D01*
X870070Y5560522D01*
X892280Y5642420D01*
X916433D01*
X937255Y5561354D01*
X944195Y5534703D01*
X952246Y5561632D01*
X976122Y5642420D01*
X999164D01*
X955300Y5503054D01*
D02*
G37*
G36*
X583009Y5694891D02*
X587729Y5694613D01*
X592726Y5694335D01*
X597445Y5693780D01*
X601610Y5693225D01*
X602165D01*
X604108Y5692670D01*
X606607Y5692114D01*
X609938Y5691281D01*
X613547Y5689893D01*
X617434Y5688228D01*
X621598Y5686284D01*
X625208Y5684063D01*
X625763Y5683786D01*
X626873Y5682953D01*
X628539Y5681287D01*
X630760Y5679344D01*
X633259Y5676845D01*
X635757Y5673514D01*
X638533Y5669905D01*
X640754Y5665740D01*
X641032Y5665185D01*
X641587Y5663797D01*
X642698Y5661298D01*
X643808Y5657967D01*
X644641Y5654080D01*
X645752Y5649638D01*
X646307Y5644641D01*
X646584Y5639366D01*
Y5639089D01*
Y5638256D01*
Y5637145D01*
X646307Y5635202D01*
X646029Y5633258D01*
X645752Y5630760D01*
X645196Y5627984D01*
X644641Y5624930D01*
X642698Y5618545D01*
X641587Y5615213D01*
X639922Y5611604D01*
X637978Y5607995D01*
X636035Y5604663D01*
X633536Y5601332D01*
X630760Y5598000D01*
X630482Y5597723D01*
X629927Y5597168D01*
X629094Y5596335D01*
X627706Y5595502D01*
X626040Y5594114D01*
X623819Y5592726D01*
X621043Y5591060D01*
X617989Y5589672D01*
X614380Y5588006D01*
X610216Y5586340D01*
X605774Y5584952D01*
X600499Y5583842D01*
X594947Y5582731D01*
X588839Y5581898D01*
X581899Y5581343D01*
X574680Y5581066D01*
X525541D01*
Y5503054D01*
X500000D01*
Y5695168D01*
X578845D01*
X583009Y5694891D01*
D02*
G37*
G36*
X1080785Y5645196D02*
X1083006Y5644919D01*
X1085782Y5644363D01*
X1088836Y5643808D01*
X1092445Y5642975D01*
X1095777Y5642142D01*
X1099664Y5640754D01*
X1103273Y5639366D01*
X1107159Y5637423D01*
X1111046Y5635202D01*
X1114933Y5632703D01*
X1118542Y5629649D01*
X1121873Y5626318D01*
X1122151Y5626040D01*
X1122706Y5625485D01*
X1123539Y5624375D01*
X1124650Y5622709D01*
X1126038Y5620765D01*
X1127426Y5618545D01*
X1129091Y5615768D01*
X1130757Y5612437D01*
X1132423Y5608828D01*
X1134089Y5604941D01*
X1135477Y5600499D01*
X1136865Y5595780D01*
X1137975Y5590505D01*
X1138808Y5584952D01*
X1139363Y5579122D01*
X1139641Y5572737D01*
Y5572459D01*
Y5571349D01*
Y5569405D01*
X1139363Y5566629D01*
X1035255D01*
Y5566352D01*
Y5565519D01*
X1035533Y5564408D01*
Y5562742D01*
X1035810Y5560799D01*
X1036366Y5558578D01*
X1037199Y5553581D01*
X1038864Y5548029D01*
X1041085Y5541921D01*
X1044139Y5536368D01*
X1048026Y5531371D01*
X1048303D01*
X1048581Y5530816D01*
X1050247Y5529428D01*
X1052745Y5527484D01*
X1056077Y5525541D01*
X1060519Y5523320D01*
X1065516Y5521377D01*
X1071068Y5519989D01*
X1074122Y5519711D01*
X1077454Y5519433D01*
X1079675D01*
X1082173Y5519711D01*
X1085227Y5520266D01*
X1088559Y5521099D01*
X1092445Y5522210D01*
X1096054Y5523875D01*
X1099664Y5526096D01*
X1099941Y5526374D01*
X1101329Y5527484D01*
X1102995Y5529150D01*
X1104938Y5531371D01*
X1107159Y5534425D01*
X1109658Y5538312D01*
X1112157Y5542754D01*
X1114378Y5548029D01*
X1138808Y5544975D01*
Y5544697D01*
X1138531Y5544142D01*
X1138253Y5543031D01*
X1137698Y5541366D01*
X1136865Y5539700D01*
X1136032Y5537479D01*
X1133811Y5532759D01*
X1131035Y5527484D01*
X1127148Y5521932D01*
X1122706Y5516657D01*
X1117154Y5511660D01*
X1116876D01*
X1116321Y5511105D01*
X1115488Y5510550D01*
X1114378Y5509717D01*
X1112712Y5508884D01*
X1111046Y5508051D01*
X1108825Y5506940D01*
X1106326Y5505830D01*
X1103550Y5504719D01*
X1100774Y5503609D01*
X1093833Y5501943D01*
X1086060Y5500555D01*
X1077454Y5500000D01*
X1074400D01*
X1072457Y5500278D01*
X1069958Y5500555D01*
X1066904Y5501110D01*
X1063573Y5501666D01*
X1059964Y5502221D01*
X1052190Y5504442D01*
X1048026Y5506108D01*
X1044139Y5507773D01*
X1039975Y5509994D01*
X1036088Y5512493D01*
X1032479Y5515269D01*
X1028870Y5518601D01*
X1028592Y5518878D01*
X1028037Y5519433D01*
X1027204Y5520544D01*
X1026094Y5522210D01*
X1024706Y5524153D01*
X1023317Y5526374D01*
X1021652Y5529150D01*
X1019986Y5532204D01*
X1018320Y5535813D01*
X1016655Y5539700D01*
X1015266Y5544142D01*
X1013878Y5548861D01*
X1012768Y5553859D01*
X1011935Y5559411D01*
X1011380Y5565241D01*
X1011102Y5571349D01*
Y5571626D01*
Y5573015D01*
Y5574680D01*
X1011380Y5577179D01*
X1011657Y5580233D01*
X1011935Y5583564D01*
X1012490Y5587451D01*
X1013323Y5591338D01*
X1015544Y5600221D01*
X1016932Y5604663D01*
X1018598Y5609383D01*
X1020819Y5613825D01*
X1023317Y5617989D01*
X1026094Y5622154D01*
X1029148Y5626040D01*
X1029425Y5626318D01*
X1029980Y5626873D01*
X1031091Y5627706D01*
X1032479Y5629094D01*
X1034145Y5630482D01*
X1036366Y5632148D01*
X1038864Y5634091D01*
X1041918Y5635757D01*
X1044972Y5637700D01*
X1048581Y5639366D01*
X1052468Y5641032D01*
X1056632Y5642420D01*
X1061074Y5643808D01*
X1065794Y5644641D01*
X1070791Y5645196D01*
X1076066Y5645474D01*
X1078842D01*
X1080785Y5645196D01*
D02*
G37*
G36*
X737089D02*
X739588Y5644919D01*
X742364Y5644363D01*
X745418Y5643808D01*
X749027Y5643253D01*
X756523Y5640754D01*
X760409Y5639366D01*
X764296Y5637423D01*
X768183Y5635479D01*
X772070Y5632703D01*
X775679Y5629927D01*
X779288Y5626596D01*
X779565Y5626318D01*
X780121Y5625763D01*
X780953Y5624652D01*
X782064Y5623264D01*
X783452Y5621321D01*
X785118Y5618822D01*
X786784Y5616046D01*
X788449Y5612992D01*
X790115Y5609661D01*
X791781Y5605496D01*
X793446Y5601332D01*
X794835Y5596612D01*
X795945Y5591615D01*
X796778Y5586340D01*
X797333Y5580788D01*
X797611Y5574680D01*
Y5574403D01*
Y5573570D01*
Y5572182D01*
Y5570238D01*
X797333Y5568017D01*
X797056Y5565241D01*
Y5562465D01*
X796500Y5559411D01*
X795667Y5552470D01*
X794002Y5545530D01*
X792058Y5538589D01*
X789282Y5532204D01*
Y5531926D01*
X789005Y5531649D01*
X788449Y5530816D01*
X787894Y5529705D01*
X785951Y5526929D01*
X783452Y5523598D01*
X780121Y5519711D01*
X775956Y5515824D01*
X771237Y5511938D01*
X765684Y5508329D01*
X765407D01*
X765129Y5508051D01*
X764296Y5507496D01*
X762908Y5506940D01*
X761520Y5506385D01*
X759854Y5505830D01*
X755690Y5504164D01*
X750970Y5502776D01*
X745140Y5501388D01*
X739033Y5500278D01*
X732370Y5500000D01*
X729593D01*
X727372Y5500278D01*
X724874Y5500555D01*
X722098Y5501110D01*
X718766Y5501666D01*
X715435Y5502221D01*
X707939Y5504442D01*
X703775Y5506108D01*
X699888Y5507773D01*
X696001Y5509994D01*
X692114Y5512493D01*
X688505Y5515269D01*
X684896Y5518601D01*
X684619Y5518878D01*
X684063Y5519433D01*
X683231Y5520544D01*
X682120Y5522210D01*
X680732Y5524153D01*
X679344Y5526374D01*
X677678Y5529150D01*
X676012Y5532482D01*
X674347Y5536091D01*
X672681Y5540255D01*
X671293Y5544697D01*
X669905Y5549417D01*
X668794Y5554691D01*
X667961Y5560244D01*
X667406Y5566352D01*
X667128Y5572737D01*
Y5573292D01*
Y5574403D01*
X667406Y5576346D01*
Y5579122D01*
X667684Y5582176D01*
X668239Y5586063D01*
X668794Y5589949D01*
X669905Y5594391D01*
X671015Y5598833D01*
X672403Y5603553D01*
X674069Y5608550D01*
X676290Y5613270D01*
X678511Y5617712D01*
X681565Y5622154D01*
X684619Y5626318D01*
X688505Y5629927D01*
X688783Y5630205D01*
X689338Y5630482D01*
X690449Y5631315D01*
X691837Y5632426D01*
X693503Y5633536D01*
X695724Y5634924D01*
X697945Y5636312D01*
X700721Y5637700D01*
X703775Y5639089D01*
X707106Y5640477D01*
X714602Y5642975D01*
X723208Y5644919D01*
X727650Y5645196D01*
X732370Y5645474D01*
X735146D01*
X737089Y5645196D01*
D02*
G37*
G36*
X954467Y2867128D02*
X930869D01*
Y2894058D01*
X954467D01*
Y2867128D01*
D02*
G37*
G36*
X671015D02*
X647417D01*
Y2894058D01*
X671015D01*
Y2867128D01*
D02*
G37*
G36*
X856189Y2844086D02*
X858132D01*
X860076Y2843808D01*
X864795Y2842975D01*
X869793Y2841587D01*
X875067Y2839366D01*
X880342Y2836590D01*
X884784Y2832703D01*
X885339Y2832148D01*
X886450Y2830482D01*
X888393Y2827984D01*
X889226Y2826040D01*
X890337Y2824097D01*
X891447Y2821598D01*
X892280Y2819100D01*
X893390Y2816324D01*
X894223Y2812992D01*
X894778Y2809661D01*
X895334Y2805774D01*
X895889Y2801887D01*
Y2797445D01*
Y2701943D01*
X872291D01*
Y2789394D01*
Y2789672D01*
Y2789949D01*
Y2791615D01*
Y2794114D01*
X872013Y2797168D01*
X871736Y2800499D01*
X871458Y2803831D01*
X870903Y2807162D01*
X870070Y2809661D01*
Y2809938D01*
X869515Y2810771D01*
X868960Y2811882D01*
X868127Y2813270D01*
X867016Y2814935D01*
X865628Y2816601D01*
X863962Y2818267D01*
X861741Y2819933D01*
X861464Y2820210D01*
X860631Y2820488D01*
X859521Y2821043D01*
X857577Y2821876D01*
X855634Y2822709D01*
X853135Y2823264D01*
X850637Y2823542D01*
X847583Y2823819D01*
X846195D01*
X845084Y2823542D01*
X842308Y2823264D01*
X838976Y2822709D01*
X835090Y2821321D01*
X830925Y2819655D01*
X826761Y2817156D01*
X822874Y2813825D01*
X822597Y2813270D01*
X821486Y2811882D01*
X819821Y2809661D01*
X818155Y2806329D01*
X816211Y2801887D01*
X814823Y2796612D01*
X813713Y2790227D01*
X813158Y2782731D01*
Y2701943D01*
X789560D01*
Y2792170D01*
Y2792448D01*
Y2793003D01*
Y2793559D01*
Y2794669D01*
X789282Y2797723D01*
X788727Y2801054D01*
X788172Y2804941D01*
X787061Y2808828D01*
X785673Y2812437D01*
X783730Y2815768D01*
X783452Y2816046D01*
X782619Y2817156D01*
X781231Y2818267D01*
X779288Y2819933D01*
X776789Y2821321D01*
X773458Y2822709D01*
X769571Y2823542D01*
X764851Y2823819D01*
X763186D01*
X761242Y2823542D01*
X759021Y2823264D01*
X756245Y2822431D01*
X752914Y2821598D01*
X749860Y2820210D01*
X746528Y2818545D01*
X746251Y2818267D01*
X745140Y2817434D01*
X743752Y2816324D01*
X741809Y2814658D01*
X739865Y2812437D01*
X737922Y2809661D01*
X735979Y2806607D01*
X734313Y2802998D01*
X734035Y2802442D01*
X733758Y2801054D01*
X733202Y2798833D01*
X732370Y2795780D01*
X731537Y2791615D01*
X730982Y2786618D01*
X730704Y2780788D01*
X730426Y2774125D01*
Y2701943D01*
X706828D01*
Y2841310D01*
X727928D01*
Y2821321D01*
X728205Y2821876D01*
X729038Y2822986D01*
X730704Y2824930D01*
X732647Y2827151D01*
X735146Y2829927D01*
X738200Y2832703D01*
X741531Y2835479D01*
X745418Y2837978D01*
X745973Y2838256D01*
X747361Y2839089D01*
X749582Y2839921D01*
X752636Y2841310D01*
X756245Y2842420D01*
X760409Y2843253D01*
X765129Y2844086D01*
X770126Y2844363D01*
X772625D01*
X775679Y2844086D01*
X779010Y2843531D01*
X783174Y2842698D01*
X787339Y2841587D01*
X791503Y2839921D01*
X795390Y2837700D01*
X795945Y2837423D01*
X797056Y2836590D01*
X798721Y2835202D01*
X800942Y2832981D01*
X803163Y2830482D01*
X805662Y2827428D01*
X807883Y2823819D01*
X809549Y2819655D01*
X809826Y2819933D01*
X810381Y2820766D01*
X811214Y2821876D01*
X812602Y2823542D01*
X814268Y2825485D01*
X816211Y2827428D01*
X818432Y2829649D01*
X821209Y2832148D01*
X824263Y2834369D01*
X827316Y2836590D01*
X830925Y2838533D01*
X834812Y2840477D01*
X838976Y2842142D01*
X843418Y2843253D01*
X847860Y2844086D01*
X852858Y2844363D01*
X854801D01*
X856189Y2844086D01*
D02*
G37*
G36*
X954467Y2701943D02*
X930869D01*
Y2841310D01*
X954467D01*
Y2701943D01*
D02*
G37*
G36*
X671015D02*
X647417D01*
Y2841310D01*
X671015D01*
Y2701943D01*
D02*
G37*
G36*
X525541Y2724708D02*
X620210D01*
Y2701943D01*
X500000D01*
Y2894058D01*
X525541D01*
Y2724708D01*
D02*
G37*
G36*
X1018043Y2841310D02*
X1041918D01*
Y2822986D01*
X1018043D01*
Y2741088D01*
Y2740533D01*
Y2739422D01*
Y2737757D01*
X1018320Y2735813D01*
X1018598Y2731371D01*
X1018876Y2729428D01*
X1019153Y2728040D01*
X1019431Y2727485D01*
X1020264Y2726374D01*
X1021374Y2724986D01*
X1023317Y2723598D01*
X1023873Y2723320D01*
X1025261Y2722765D01*
X1027759Y2722210D01*
X1031369Y2721932D01*
X1034145D01*
X1035533Y2722210D01*
X1037476D01*
X1039697Y2722487D01*
X1041918Y2722765D01*
X1044972Y2701943D01*
X1044417D01*
X1043306Y2701666D01*
X1041363Y2701388D01*
X1038864Y2701110D01*
X1036088Y2700555D01*
X1033034Y2700278D01*
X1026927Y2700000D01*
X1024706D01*
X1022485Y2700278D01*
X1019708Y2700555D01*
X1016377Y2700833D01*
X1013045Y2701666D01*
X1009992Y2702499D01*
X1006938Y2703887D01*
X1006660Y2704164D01*
X1005827Y2704720D01*
X1004717Y2705552D01*
X1003051Y2706940D01*
X1001663Y2708329D01*
X999997Y2710272D01*
X998332Y2712215D01*
X997221Y2714714D01*
Y2714992D01*
X996666Y2716102D01*
X996388Y2718045D01*
X995833Y2720822D01*
X995278Y2724431D01*
X995000Y2726652D01*
Y2729150D01*
X994722Y2732204D01*
X994445Y2735258D01*
Y2738589D01*
Y2742476D01*
Y2822986D01*
X976955D01*
Y2841310D01*
X994445D01*
Y2875735D01*
X1018043Y2889893D01*
Y2841310D01*
D02*
G37*
G36*
X3491660Y3362964D02*
X3485553Y3327429D01*
X3458346D01*
X3451683Y3362964D01*
Y3395724D01*
X3491660D01*
Y3362964D01*
D02*
G37*
G36*
X2353688D02*
X2347580Y3327429D01*
X2320373D01*
X2313710Y3362964D01*
Y3395724D01*
X2353688D01*
Y3362964D01*
D02*
G37*
G36*
X3277614Y3345752D02*
X3280390Y3345474D01*
X3283444Y3345197D01*
X3286775Y3344919D01*
X3293716Y3343808D01*
X3300656Y3342143D01*
X3307319Y3339644D01*
X3310373Y3338256D01*
X3313149Y3336590D01*
X3313427D01*
X3313705Y3336035D01*
X3315370Y3334924D01*
X3317869Y3332704D01*
X3320645Y3329650D01*
X3323977Y3326041D01*
X3327030Y3321321D01*
X3330084Y3315769D01*
X3332305Y3309383D01*
X3297602Y3302998D01*
Y3303276D01*
X3297047Y3304386D01*
X3296492Y3305774D01*
X3295659Y3307440D01*
X3294549Y3309661D01*
X3292883Y3311604D01*
X3291217Y3313548D01*
X3288996Y3315213D01*
X3288719Y3315491D01*
X3287886Y3316046D01*
X3286498Y3316601D01*
X3284554Y3317434D01*
X3282056Y3318267D01*
X3279002Y3319100D01*
X3275393Y3319378D01*
X3271228Y3319655D01*
X3268730D01*
X3266231Y3319378D01*
X3263177Y3319100D01*
X3259568Y3318545D01*
X3256237Y3317990D01*
X3253183Y3316879D01*
X3250407Y3315491D01*
X3250129D01*
X3249852Y3314936D01*
X3248463Y3313548D01*
X3246798Y3311049D01*
X3246520Y3309661D01*
X3246242Y3307995D01*
Y3307718D01*
Y3307440D01*
X3246798Y3305774D01*
X3247908Y3303553D01*
X3248741Y3302443D01*
X3249852Y3301332D01*
X3250129Y3301055D01*
X3251240Y3300777D01*
X3251795Y3300222D01*
X3252905Y3299944D01*
X3254293Y3299389D01*
X3255959Y3298556D01*
X3258180Y3298001D01*
X3260401Y3297168D01*
X3263177Y3296335D01*
X3266509Y3295502D01*
X3270118Y3294392D01*
X3274282Y3293281D01*
X3279002Y3292171D01*
X3284277Y3290783D01*
X3284554D01*
X3285665Y3290505D01*
X3287053Y3290227D01*
X3288996Y3289672D01*
X3291495Y3288839D01*
X3294271Y3288284D01*
X3300379Y3286341D01*
X3307319Y3283842D01*
X3313982Y3281066D01*
X3317314Y3279400D01*
X3320368Y3278012D01*
X3322866Y3276069D01*
X3325365Y3274403D01*
X3325920Y3273848D01*
X3327308Y3272737D01*
X3328974Y3270516D01*
X3331195Y3267462D01*
X3333416Y3263576D01*
X3335081Y3258856D01*
X3336470Y3253304D01*
X3337025Y3247196D01*
Y3246918D01*
Y3246363D01*
Y3245253D01*
X3336747Y3243864D01*
X3336470Y3242476D01*
X3336192Y3240533D01*
X3335081Y3235813D01*
X3333138Y3230816D01*
X3331750Y3228040D01*
X3330362Y3225264D01*
X3328419Y3222488D01*
X3326198Y3219711D01*
X3323699Y3216935D01*
X3320923Y3214159D01*
X3320645Y3213881D01*
X3320090Y3213604D01*
X3319257Y3213048D01*
X3317869Y3211938D01*
X3316203Y3211105D01*
X3314260Y3209995D01*
X3311761Y3208606D01*
X3308985Y3207496D01*
X3305931Y3206108D01*
X3302322Y3204997D01*
X3298435Y3203609D01*
X3294271Y3202776D01*
X3289551Y3201944D01*
X3284554Y3201111D01*
X3279279Y3200833D01*
X3273727Y3200555D01*
X3270951D01*
X3269007Y3200833D01*
X3266509D01*
X3263733Y3201111D01*
X3260679Y3201388D01*
X3257347Y3201944D01*
X3250129Y3203332D01*
X3242633Y3205275D01*
X3235138Y3208051D01*
X3231806Y3209995D01*
X3228475Y3211938D01*
X3228197Y3212216D01*
X3227642Y3212493D01*
X3226809Y3213048D01*
X3225976Y3214159D01*
X3222922Y3216658D01*
X3219591Y3220267D01*
X3215982Y3224709D01*
X3212650Y3229983D01*
X3209596Y3236369D01*
X3207098Y3243309D01*
X3244021Y3248862D01*
Y3248306D01*
X3244577Y3247196D01*
X3245132Y3245253D01*
X3245965Y3242754D01*
X3247353Y3239978D01*
X3249019Y3237479D01*
X3250962Y3234703D01*
X3253461Y3232482D01*
X3253738Y3232204D01*
X3254849Y3231649D01*
X3256514Y3230816D01*
X3258735Y3229983D01*
X3261512Y3228873D01*
X3265121Y3228040D01*
X3269007Y3227485D01*
X3273727Y3227207D01*
X3275948D01*
X3278724Y3227485D01*
X3281778Y3227762D01*
X3285110Y3228318D01*
X3288719Y3229428D01*
X3292050Y3230539D01*
X3295104Y3232204D01*
X3295382Y3232482D01*
X3295937Y3233037D01*
X3296770Y3233870D01*
X3297602Y3234981D01*
X3298435Y3236369D01*
X3299268Y3238034D01*
X3299823Y3239978D01*
X3300101Y3242199D01*
Y3242476D01*
Y3243032D01*
X3299823Y3244697D01*
X3298991Y3246918D01*
X3297325Y3249139D01*
X3296770Y3249695D01*
X3295937Y3249972D01*
X3294826Y3250805D01*
X3293161Y3251360D01*
X3290940Y3252193D01*
X3288441Y3253026D01*
X3285110Y3253859D01*
X3284554D01*
X3283166Y3254414D01*
X3280945Y3254969D01*
X3277891Y3255525D01*
X3274282Y3256357D01*
X3270396Y3257468D01*
X3265954Y3258578D01*
X3261234Y3259967D01*
X3251517Y3262743D01*
X3246798Y3264131D01*
X3242356Y3265797D01*
X3238191Y3267185D01*
X3234305Y3268850D01*
X3230973Y3270516D01*
X3228475Y3271904D01*
X3228197Y3272182D01*
X3227642Y3272460D01*
X3227087Y3273015D01*
X3225976Y3274125D01*
X3223200Y3276624D01*
X3220424Y3280233D01*
X3217370Y3284675D01*
X3214594Y3289950D01*
X3213483Y3293004D01*
X3212928Y3296335D01*
X3212373Y3299667D01*
X3212095Y3303276D01*
Y3303553D01*
Y3304108D01*
Y3304941D01*
X3212373Y3306329D01*
X3212650Y3307718D01*
X3212928Y3309661D01*
X3213761Y3313825D01*
X3215426Y3318545D01*
X3218203Y3323542D01*
X3219591Y3326318D01*
X3221534Y3328817D01*
X3223755Y3331315D01*
X3226254Y3333536D01*
X3226531Y3333814D01*
X3226809Y3334092D01*
X3227642Y3334647D01*
X3229030Y3335480D01*
X3230418Y3336313D01*
X3232361Y3337423D01*
X3234582Y3338534D01*
X3237081Y3339922D01*
X3240135Y3341032D01*
X3243466Y3342143D01*
X3247075Y3343253D01*
X3250962Y3344086D01*
X3255404Y3344919D01*
X3260124Y3345474D01*
X3265121Y3346029D01*
X3275393D01*
X3277614Y3345752D01*
D02*
G37*
G36*
X1684896Y3203609D02*
X1649083D01*
X1648805Y3354635D01*
X1611049Y3203609D01*
X1573570D01*
X1535813Y3354635D01*
Y3203609D01*
X1500000D01*
Y3395723D01*
X1558023D01*
X1592448Y3264408D01*
X1626596Y3395723D01*
X1684896D01*
Y3203609D01*
D02*
G37*
G36*
X3688772Y3203610D02*
X3646851Y3203609D01*
X3578001Y3395724D01*
X3619922D01*
X3668783Y3253581D01*
X3715701Y3395724D01*
X3757067D01*
X3688772Y3203610D01*
D02*
G37*
G36*
X4060508Y3396557D02*
X4063006Y3396279D01*
X4065783Y3396002D01*
X4068836Y3395446D01*
X4072168Y3394891D01*
X4079386Y3392948D01*
X4086604Y3390172D01*
X4090491Y3388506D01*
X4093822Y3386562D01*
X4097431Y3384064D01*
X4100485Y3381288D01*
X4100763Y3381010D01*
X4101318Y3380732D01*
X4101873Y3379622D01*
X4102984Y3378511D01*
X4104372Y3377123D01*
X4105760Y3375180D01*
X4107148Y3373237D01*
X4108814Y3370738D01*
X4111590Y3365186D01*
X4114366Y3358800D01*
X4115477Y3355191D01*
X4116032Y3351304D01*
X4116587Y3347140D01*
X4116865Y3342976D01*
Y3342421D01*
Y3340755D01*
X4116587Y3338256D01*
X4116310Y3335202D01*
X4115755Y3331316D01*
X4114922Y3327151D01*
X4113811Y3322709D01*
X4112145Y3318267D01*
X4111868Y3317712D01*
X4111313Y3316324D01*
X4110202Y3313825D01*
X4108536Y3310772D01*
X4106593Y3307163D01*
X4104094Y3302998D01*
X4101041Y3298556D01*
X4097431Y3293837D01*
X4097154Y3293559D01*
X4096043Y3292171D01*
X4094378Y3290228D01*
X4091879Y3287451D01*
X4088548Y3284120D01*
X4084383Y3279678D01*
X4079386Y3274958D01*
X4073278Y3269128D01*
X4073001Y3268851D01*
X4072445Y3268573D01*
X4071613Y3267740D01*
X4070502Y3266630D01*
X4067448Y3263854D01*
X4063839Y3260522D01*
X4060230Y3256913D01*
X4056621Y3253304D01*
X4053290Y3250250D01*
X4052179Y3248862D01*
X4051069Y3247751D01*
X4050791Y3247474D01*
X4050236Y3246919D01*
X4049403Y3245808D01*
X4048292Y3244420D01*
X4045794Y3241366D01*
X4043573Y3237757D01*
X4116865D01*
Y3203610D01*
X3987771D01*
Y3203887D01*
Y3204442D01*
X3988048Y3205553D01*
X3988326Y3206941D01*
X3988604Y3208607D01*
X3988881Y3210550D01*
X3989992Y3215547D01*
X3991657Y3221100D01*
X3993878Y3227207D01*
X3996655Y3233870D01*
X4000264Y3240256D01*
Y3240533D01*
X4000819Y3241089D01*
X4001374Y3242199D01*
X4002485Y3243309D01*
X4003595Y3245253D01*
X4005261Y3247196D01*
X4007204Y3249695D01*
X4009425Y3252471D01*
X4011924Y3255802D01*
X4014978Y3259134D01*
X4018309Y3263021D01*
X4022196Y3267185D01*
X4026360Y3271349D01*
X4031080Y3276069D01*
X4036077Y3281066D01*
X4041629Y3286341D01*
X4041907Y3286619D01*
X4042740Y3287451D01*
X4043850Y3288562D01*
X4045516Y3290228D01*
X4047737Y3291893D01*
X4049958Y3294114D01*
X4054955Y3299112D01*
X4059953Y3304386D01*
X4064950Y3309661D01*
X4067171Y3311882D01*
X4069392Y3314381D01*
X4071057Y3316324D01*
X4072168Y3317990D01*
X4072445Y3318545D01*
X4073278Y3319933D01*
X4074666Y3322154D01*
X4076055Y3325208D01*
X4077443Y3328539D01*
X4078831Y3332426D01*
X4079664Y3336313D01*
X4079941Y3340477D01*
Y3340755D01*
Y3341032D01*
Y3342421D01*
X4079664Y3344919D01*
X4079108Y3347695D01*
X4078276Y3350749D01*
X4077165Y3353803D01*
X4075499Y3356857D01*
X4073278Y3359633D01*
X4073001Y3359911D01*
X4072168Y3360744D01*
X4070502Y3361854D01*
X4068559Y3362965D01*
X4065783Y3364075D01*
X4062729Y3365186D01*
X4059120Y3366018D01*
X4054955Y3366296D01*
X4053012D01*
X4050791Y3366018D01*
X4048292Y3365463D01*
X4045239Y3364630D01*
X4042185Y3363242D01*
X4039131Y3361576D01*
X4036355Y3359355D01*
X4036077Y3359078D01*
X4035244Y3357967D01*
X4034134Y3356302D01*
X4033023Y3353803D01*
X4031635Y3350749D01*
X4030525Y3346585D01*
X4029414Y3341865D01*
X4028859Y3336313D01*
X3992213Y3339922D01*
Y3340200D01*
X3992490Y3341310D01*
Y3342698D01*
X3993046Y3344919D01*
X3993323Y3347418D01*
X3994156Y3350194D01*
X3994989Y3353248D01*
X3995822Y3356857D01*
X3998598Y3363797D01*
X4001930Y3371016D01*
X4004150Y3374625D01*
X4006649Y3377956D01*
X4009425Y3380732D01*
X4012479Y3383509D01*
X4012757Y3383786D01*
X4013312Y3384064D01*
X4014145Y3384619D01*
X4015533Y3385730D01*
X4017199Y3386562D01*
X4019420Y3387673D01*
X4021641Y3389061D01*
X4024417Y3390172D01*
X4027471Y3391560D01*
X4030802Y3392670D01*
X4038020Y3394891D01*
X4046627Y3396279D01*
X4051069Y3396557D01*
X4055788Y3396834D01*
X4058564D01*
X4060508Y3396557D01*
D02*
G37*
G36*
X3962507Y3203610D02*
X3925583D01*
Y3240533D01*
X3962507D01*
Y3203610D01*
D02*
G37*
G36*
X2474176Y3395446D02*
X2477229D01*
X2480283Y3395168D01*
X2483892D01*
X2491111Y3394336D01*
X2498606Y3393503D01*
X2505547Y3392115D01*
X2508601Y3391282D01*
X2511377Y3390449D01*
X2511655D01*
X2511932Y3390171D01*
X2513598Y3389338D01*
X2516097Y3387950D01*
X2519428Y3386285D01*
X2523037Y3383508D01*
X2526646Y3380455D01*
X2530255Y3376568D01*
X2533587Y3371848D01*
Y3371571D01*
X2533864Y3371293D01*
X2534420Y3370460D01*
X2534975Y3369627D01*
X2536363Y3366851D01*
X2538029Y3363242D01*
X2539417Y3358800D01*
X2540805Y3353803D01*
X2541915Y3347973D01*
X2542193Y3341865D01*
Y3341587D01*
Y3341032D01*
Y3339644D01*
X2541915Y3338256D01*
Y3336313D01*
X2541638Y3334369D01*
X2540527Y3329372D01*
X2539139Y3323542D01*
X2536918Y3317712D01*
X2533587Y3311604D01*
X2531643Y3308828D01*
X2529422Y3306052D01*
X2529145Y3305774D01*
X2528867Y3305497D01*
X2528034Y3304664D01*
X2526924Y3303831D01*
X2525813Y3302720D01*
X2524148Y3301332D01*
X2522204Y3299944D01*
X2519983Y3298556D01*
X2517485Y3296890D01*
X2514431Y3295502D01*
X2511377Y3294114D01*
X2508046Y3292726D01*
X2504159Y3291338D01*
X2500272Y3290227D01*
X2496108Y3289117D01*
X2491388Y3288284D01*
X2491666D01*
X2491943Y3288006D01*
X2493609Y3286896D01*
X2495830Y3285508D01*
X2498606Y3283564D01*
X2501938Y3281066D01*
X2505269Y3278567D01*
X2508878Y3275513D01*
X2511932Y3272182D01*
X2512210Y3271904D01*
X2513598Y3270516D01*
X2515264Y3268295D01*
X2517762Y3264964D01*
X2521094Y3260799D01*
X2522759Y3258023D01*
X2524703Y3255247D01*
X2526924Y3252193D01*
X2529145Y3248862D01*
X2531643Y3244975D01*
X2534142Y3241088D01*
X2557740Y3203609D01*
X2511099D01*
X2483337Y3245253D01*
X2483060Y3245530D01*
X2482782Y3246363D01*
X2481949Y3247474D01*
X2480839Y3248862D01*
X2479728Y3250527D01*
X2478340Y3252748D01*
X2475286Y3257190D01*
X2471677Y3262188D01*
X2468346Y3266629D01*
X2465292Y3270794D01*
X2463904Y3272182D01*
X2462793Y3273570D01*
X2462516Y3273848D01*
X2461960Y3274403D01*
X2460850Y3275513D01*
X2459462Y3276901D01*
X2457518Y3278012D01*
X2455575Y3279400D01*
X2453354Y3280511D01*
X2451133Y3281621D01*
X2450855D01*
X2450023Y3281899D01*
X2448634Y3282454D01*
X2446413Y3282732D01*
X2443637Y3283287D01*
X2440306Y3283564D01*
X2436419Y3283842D01*
X2423926D01*
Y3203609D01*
X2385059D01*
Y3395724D01*
X2471677D01*
X2474176Y3395446D01*
D02*
G37*
G36*
X2221262Y3363242D02*
X2164627D01*
Y3203609D01*
X2125760D01*
Y3363242D01*
X2068848D01*
Y3395723D01*
X2221262D01*
Y3363242D01*
D02*
G37*
G36*
X1977232Y3395446D02*
X1984450D01*
X1992224Y3394891D01*
X1999997Y3394335D01*
X2003329Y3394058D01*
X2006660Y3393780D01*
X2009436Y3393225D01*
X2011657Y3392670D01*
X2011935D01*
X2012490Y3392392D01*
X2013323Y3392114D01*
X2014434Y3391837D01*
X2017487Y3390449D01*
X2021374Y3388783D01*
X2025538Y3386284D01*
X2030258Y3382953D01*
X2034700Y3378789D01*
X2039142Y3373791D01*
Y3373514D01*
X2039697Y3373236D01*
X2040252Y3372403D01*
X2040808Y3371293D01*
X2041918Y3369627D01*
X2042751Y3367961D01*
X2043862Y3366018D01*
X2044972Y3363797D01*
X2046915Y3358244D01*
X2048859Y3352137D01*
X2049969Y3344641D01*
X2050524Y3336590D01*
Y3336312D01*
Y3335757D01*
Y3334924D01*
Y3333536D01*
X2050247Y3332148D01*
Y3330205D01*
X2049692Y3326318D01*
X2048859Y3321598D01*
X2047748Y3316324D01*
X2046083Y3311326D01*
X2043862Y3306607D01*
X2043584Y3306052D01*
X2042751Y3304663D01*
X2041363Y3302442D01*
X2039420Y3299666D01*
X2037199Y3296890D01*
X2034145Y3293559D01*
X2031091Y3290505D01*
X2027482Y3287729D01*
X2026927Y3287451D01*
X2025816Y3286618D01*
X2023873Y3285508D01*
X2021374Y3284119D01*
X2018320Y3282454D01*
X2014989Y3281066D01*
X2011380Y3279677D01*
X2007493Y3278567D01*
X2006938D01*
X2006105Y3278289D01*
X2004994D01*
X2003606Y3278012D01*
X2001663Y3277734D01*
X1999720Y3277456D01*
X1997221D01*
X1994722Y3277179D01*
X1991669Y3276901D01*
X1988337Y3276624D01*
X1984728Y3276346D01*
X1980841D01*
X1976677Y3276068D01*
X1942252D01*
Y3203609D01*
X1903385D01*
Y3395723D01*
X1974178D01*
X1977232Y3395446D01*
D02*
G37*
G36*
X1798166D02*
X1805384D01*
X1813158Y3394891D01*
X1820931Y3394335D01*
X1824263Y3394058D01*
X1827594Y3393780D01*
X1830370Y3393225D01*
X1832591Y3392670D01*
X1832869D01*
X1833424Y3392392D01*
X1834257Y3392114D01*
X1835367Y3391837D01*
X1838421Y3390449D01*
X1842308Y3388783D01*
X1846472Y3386284D01*
X1851192Y3382953D01*
X1855634Y3378789D01*
X1860076Y3373791D01*
Y3373514D01*
X1860631Y3373236D01*
X1861186Y3372403D01*
X1861742Y3371293D01*
X1862852Y3369627D01*
X1863685Y3367961D01*
X1864795Y3366018D01*
X1865906Y3363797D01*
X1867849Y3358244D01*
X1869793Y3352137D01*
X1870903Y3344641D01*
X1871458Y3336590D01*
Y3336312D01*
Y3335757D01*
Y3334924D01*
Y3333536D01*
X1871181Y3332148D01*
Y3330205D01*
X1870625Y3326318D01*
X1869793Y3321598D01*
X1868682Y3316324D01*
X1867016Y3311326D01*
X1864795Y3306607D01*
X1864518Y3306052D01*
X1863685Y3304663D01*
X1862297Y3302442D01*
X1860353Y3299666D01*
X1858132Y3296890D01*
X1855079Y3293559D01*
X1852025Y3290505D01*
X1848416Y3287729D01*
X1847860Y3287451D01*
X1846750Y3286618D01*
X1844807Y3285508D01*
X1842308Y3284119D01*
X1839254Y3282454D01*
X1835923Y3281066D01*
X1832314Y3279677D01*
X1828427Y3278567D01*
X1827872D01*
X1827039Y3278289D01*
X1825928D01*
X1824540Y3278012D01*
X1822597Y3277734D01*
X1820653Y3277456D01*
X1818155D01*
X1815656Y3277179D01*
X1812602Y3276901D01*
X1809271Y3276624D01*
X1805662Y3276346D01*
X1801775D01*
X1797611Y3276068D01*
X1763186D01*
Y3203609D01*
X1724319D01*
Y3395723D01*
X1795112D01*
X1798166Y3395446D01*
D02*
G37*
G36*
X3408096Y3342976D02*
X3433360D01*
Y3313548D01*
X3408096D01*
Y3257190D01*
Y3256913D01*
Y3256357D01*
Y3255525D01*
Y3254414D01*
Y3251638D01*
Y3248306D01*
X3408374Y3244975D01*
Y3241644D01*
Y3239145D01*
X3408651Y3238034D01*
Y3237479D01*
X3408929Y3236924D01*
X3409484Y3235813D01*
X3410317Y3234425D01*
X3411983Y3232760D01*
X3412538Y3232482D01*
X3413648Y3231927D01*
X3415592Y3231371D01*
X3418090Y3231094D01*
X3419201D01*
X3420311Y3231371D01*
X3421977Y3231649D01*
X3424198Y3231927D01*
X3426697Y3232482D01*
X3429751Y3233315D01*
X3433082Y3234425D01*
X3436413Y3205830D01*
X3436136D01*
X3435858Y3205553D01*
X3434193Y3204997D01*
X3431416Y3204165D01*
X3427807Y3203332D01*
X3423643Y3202221D01*
X3418646Y3201388D01*
X3413093Y3200833D01*
X3407263Y3200555D01*
X3405597D01*
X3403654Y3200833D01*
X3401156Y3201111D01*
X3398379Y3201388D01*
X3395325Y3201944D01*
X3392272Y3202776D01*
X3389218Y3203887D01*
X3388940Y3204165D01*
X3387830Y3204442D01*
X3386442Y3205275D01*
X3384776Y3206108D01*
X3380889Y3208884D01*
X3378946Y3210550D01*
X3377280Y3212493D01*
X3377002Y3212771D01*
X3376725Y3213604D01*
X3376170Y3214714D01*
X3375337Y3216380D01*
X3374504Y3218323D01*
X3373671Y3220822D01*
X3372838Y3223598D01*
X3372283Y3226652D01*
Y3226930D01*
X3372005Y3228040D01*
Y3229706D01*
X3371728Y3232482D01*
X3371450Y3236091D01*
Y3240533D01*
X3371172Y3243032D01*
Y3246085D01*
Y3249139D01*
Y3252748D01*
Y3313548D01*
X3354237D01*
Y3342976D01*
X3371172D01*
Y3370738D01*
X3408096Y3392392D01*
Y3342976D01*
D02*
G37*
G36*
X3124366Y3345752D02*
X3127143Y3345474D01*
X3130196Y3344919D01*
X3133806Y3344364D01*
X3137415Y3343531D01*
X3141579Y3342420D01*
X3145743Y3341032D01*
X3149908Y3339366D01*
X3154350Y3337423D01*
X3158791Y3334924D01*
X3162956Y3332148D01*
X3167120Y3329094D01*
X3171007Y3325485D01*
X3171284Y3325208D01*
X3171840Y3324652D01*
X3172950Y3323264D01*
X3174061Y3321876D01*
X3175726Y3319655D01*
X3177392Y3317434D01*
X3179336Y3314380D01*
X3181279Y3311327D01*
X3182945Y3307718D01*
X3184888Y3303831D01*
X3186554Y3299389D01*
X3188219Y3294947D01*
X3189330Y3289950D01*
X3190440Y3284953D01*
X3190996Y3279400D01*
X3191273Y3273570D01*
Y3273292D01*
Y3272182D01*
Y3270516D01*
X3190996Y3268295D01*
X3190718Y3265519D01*
X3190163Y3262465D01*
X3189608Y3258856D01*
X3188775Y3255247D01*
X3187664Y3251083D01*
X3186276Y3246918D01*
X3184610Y3242476D01*
X3182667Y3238034D01*
X3180168Y3233592D01*
X3177392Y3229428D01*
X3174338Y3225264D01*
X3170729Y3221099D01*
X3170452Y3220822D01*
X3169896Y3220267D01*
X3168786Y3219156D01*
X3167120Y3217768D01*
X3165177Y3216380D01*
X3162678Y3214714D01*
X3159902Y3212771D01*
X3156848Y3210827D01*
X3153239Y3208884D01*
X3149352Y3206941D01*
X3145188Y3205275D01*
X3140468Y3203887D01*
X3135749Y3202499D01*
X3130474Y3201388D01*
X3125199Y3200833D01*
X3119369Y3200555D01*
X3117426D01*
X3116038Y3200833D01*
X3114372D01*
X3112429Y3201111D01*
X3107709Y3201666D01*
X3101879Y3202776D01*
X3095771Y3204165D01*
X3089386Y3206386D01*
X3082723Y3209162D01*
X3082445D01*
X3081890Y3209439D01*
X3081057Y3209995D01*
X3079947Y3210827D01*
X3076893Y3212771D01*
X3073006Y3215547D01*
X3068842Y3219156D01*
X3064400Y3223598D01*
X3060236Y3228595D01*
X3056349Y3234425D01*
Y3234703D01*
X3056071Y3235258D01*
X3055516Y3236091D01*
X3054961Y3237479D01*
X3054406Y3239145D01*
X3053573Y3241088D01*
X3052740Y3243309D01*
X3051907Y3245808D01*
X3051074Y3248584D01*
X3050241Y3251638D01*
X3048853Y3258578D01*
X3047743Y3266629D01*
X3047465Y3275236D01*
Y3275513D01*
Y3276069D01*
Y3277179D01*
X3047743Y3278290D01*
Y3279955D01*
X3048020Y3281899D01*
X3048576Y3286618D01*
X3049686Y3291893D01*
X3051352Y3297723D01*
X3053295Y3304108D01*
X3056349Y3310494D01*
Y3310771D01*
X3056904Y3311327D01*
X3057182Y3312159D01*
X3058015Y3313270D01*
X3060236Y3316324D01*
X3063012Y3320211D01*
X3066621Y3324375D01*
X3071063Y3328817D01*
X3076060Y3332981D01*
X3081890Y3336868D01*
X3082168D01*
X3082723Y3337145D01*
X3083556Y3337701D01*
X3084944Y3338256D01*
X3086332Y3339089D01*
X3088276Y3339644D01*
X3090496Y3340477D01*
X3092717Y3341587D01*
X3098270Y3343253D01*
X3104655Y3344641D01*
X3111596Y3345752D01*
X3119092Y3346029D01*
X3122145D01*
X3124366Y3345752D01*
D02*
G37*
G36*
X2960292D02*
X2963068Y3345474D01*
X2966122Y3344919D01*
X2969731Y3344364D01*
X2973340Y3343531D01*
X2977504Y3342420D01*
X2981669Y3341032D01*
X2985833Y3339366D01*
X2990275Y3337423D01*
X2994717Y3334924D01*
X2998881Y3332148D01*
X3003046Y3329094D01*
X3006932Y3325485D01*
X3007210Y3325208D01*
X3007765Y3324652D01*
X3008876Y3323264D01*
X3009986Y3321876D01*
X3011652Y3319655D01*
X3013318Y3317434D01*
X3015261Y3314380D01*
X3017204Y3311327D01*
X3018870Y3307718D01*
X3020813Y3303831D01*
X3022479Y3299389D01*
X3024145Y3294947D01*
X3025255Y3289950D01*
X3026366Y3284953D01*
X3026921Y3279400D01*
X3027199Y3273570D01*
Y3273292D01*
Y3272182D01*
Y3270516D01*
X3026921Y3268295D01*
X3026643Y3265519D01*
X3026088Y3262465D01*
X3025533Y3258856D01*
X3024700Y3255247D01*
X3023590Y3251083D01*
X3022201Y3246918D01*
X3020536Y3242476D01*
X3018592Y3238034D01*
X3016094Y3233592D01*
X3013318Y3229428D01*
X3010264Y3225264D01*
X3006655Y3221099D01*
X3006377Y3220822D01*
X3005822Y3220267D01*
X3004711Y3219156D01*
X3003046Y3217768D01*
X3001102Y3216380D01*
X2998604Y3214714D01*
X2995827Y3212771D01*
X2992774Y3210827D01*
X2989164Y3208884D01*
X2985278Y3206941D01*
X2981113Y3205275D01*
X2976394Y3203887D01*
X2971674Y3202499D01*
X2966399Y3201388D01*
X2961125Y3200833D01*
X2955295Y3200555D01*
X2953351D01*
X2951963Y3200833D01*
X2950297D01*
X2948354Y3201111D01*
X2943634Y3201666D01*
X2937804Y3202776D01*
X2931697Y3204165D01*
X2925311Y3206386D01*
X2918648Y3209162D01*
X2918371D01*
X2917816Y3209439D01*
X2916983Y3209995D01*
X2915872Y3210827D01*
X2912818Y3212771D01*
X2908932Y3215547D01*
X2904767Y3219156D01*
X2900325Y3223598D01*
X2896161Y3228595D01*
X2892274Y3234425D01*
Y3234703D01*
X2891997Y3235258D01*
X2891442Y3236091D01*
X2890886Y3237479D01*
X2890331Y3239145D01*
X2889498Y3241088D01*
X2888665Y3243309D01*
X2887832Y3245808D01*
X2887000Y3248584D01*
X2886167Y3251638D01*
X2884779Y3258578D01*
X2883668Y3266629D01*
X2883390Y3275236D01*
Y3275513D01*
Y3276069D01*
Y3277179D01*
X2883668Y3278290D01*
Y3279955D01*
X2883946Y3281899D01*
X2884501Y3286618D01*
X2885611Y3291893D01*
X2887277Y3297723D01*
X2889221Y3304108D01*
X2892274Y3310494D01*
Y3310771D01*
X2892830Y3311327D01*
X2893107Y3312159D01*
X2893940Y3313270D01*
X2896161Y3316324D01*
X2898937Y3320211D01*
X2902546Y3324375D01*
X2906988Y3328817D01*
X2911986Y3332981D01*
X2917816Y3336868D01*
X2918093D01*
X2918648Y3337145D01*
X2919481Y3337701D01*
X2920869Y3338256D01*
X2922258Y3339089D01*
X2924201Y3339644D01*
X2926422Y3340477D01*
X2928643Y3341587D01*
X2934195Y3343253D01*
X2940581Y3344641D01*
X2947521Y3345752D01*
X2955017Y3346029D01*
X2958071D01*
X2960292Y3345752D01*
D02*
G37*
G36*
X2763180Y3326596D02*
X2763458Y3326873D01*
X2764013Y3327429D01*
X2764846Y3328262D01*
X2766234Y3329650D01*
X2767900Y3331038D01*
X2769843Y3332704D01*
X2772064Y3334647D01*
X2774563Y3336313D01*
X2780393Y3339922D01*
X2787333Y3342976D01*
X2790942Y3344364D01*
X2795107Y3345197D01*
X2799271Y3345752D01*
X2803435Y3346029D01*
X2805934D01*
X2807600Y3345752D01*
X2809821Y3345474D01*
X2812319Y3344919D01*
X2815095Y3344364D01*
X2818427Y3343808D01*
X2825090Y3341587D01*
X2828421Y3339922D01*
X2832030Y3338256D01*
X2835639Y3336035D01*
X2838971Y3333536D01*
X2842302Y3330760D01*
X2845634Y3327429D01*
X2845912Y3327151D01*
X2846467Y3326596D01*
X2847300Y3325485D01*
X2848410Y3324097D01*
X2849521Y3322154D01*
X2850909Y3319933D01*
X2852574Y3317157D01*
X2854240Y3314103D01*
X2855628Y3310494D01*
X2857294Y3306607D01*
X2858682Y3302165D01*
X2860070Y3297446D01*
X2860903Y3292448D01*
X2861736Y3286896D01*
X2862291Y3281066D01*
X2862569Y3274681D01*
Y3274403D01*
Y3273015D01*
Y3271349D01*
X2862291Y3268850D01*
X2862014Y3265797D01*
X2861736Y3262465D01*
X2861181Y3258578D01*
X2860348Y3254414D01*
X2858404Y3245530D01*
X2857016Y3241088D01*
X2855351Y3236369D01*
X2853407Y3231927D01*
X2850909Y3227485D01*
X2848410Y3223598D01*
X2845356Y3219711D01*
X2845079Y3219434D01*
X2844523Y3218878D01*
X2843691Y3218046D01*
X2842302Y3216658D01*
X2840637Y3215269D01*
X2838693Y3213604D01*
X2836472Y3211938D01*
X2833974Y3210272D01*
X2830920Y3208329D01*
X2827866Y3206663D01*
X2820648Y3203609D01*
X2816761Y3202221D01*
X2812874Y3201388D01*
X2808433Y3200833D01*
X2803991Y3200555D01*
X2802047D01*
X2799549Y3200833D01*
X2796495Y3201388D01*
X2792886Y3201944D01*
X2788999Y3203054D01*
X2784835Y3204442D01*
X2780393Y3206386D01*
X2779837Y3206663D01*
X2778449Y3207496D01*
X2776228Y3208884D01*
X2773452Y3210827D01*
X2770398Y3213326D01*
X2767067Y3216102D01*
X2763735Y3219711D01*
X2760404Y3223876D01*
Y3203609D01*
X2726256D01*
Y3395724D01*
X2763180D01*
Y3326596D01*
D02*
G37*
G36*
X2636585Y3345752D02*
X2639083Y3345474D01*
X2642137Y3344919D01*
X2645468Y3344364D01*
X2649078Y3343531D01*
X2652964Y3342420D01*
X2656851Y3341032D01*
X2661015Y3339366D01*
X2665180Y3337145D01*
X2669066Y3334924D01*
X2672953Y3332148D01*
X2676840Y3328817D01*
X2680171Y3325208D01*
X2680449Y3324930D01*
X2681004Y3324375D01*
X2681837Y3322987D01*
X2682947Y3321321D01*
X2684335Y3319100D01*
X2685724Y3316601D01*
X2687389Y3313270D01*
X2689055Y3309661D01*
X2690721Y3305497D01*
X2692387Y3300777D01*
X2693775Y3295780D01*
X2695163Y3289950D01*
X2696273Y3283842D01*
X2697106Y3277179D01*
X2697661Y3270239D01*
Y3262465D01*
X2605491D01*
Y3262188D01*
Y3261632D01*
Y3260799D01*
X2605768Y3259689D01*
X2606046Y3256913D01*
X2606601Y3253026D01*
X2607712Y3249139D01*
X2609378Y3244697D01*
X2611321Y3240533D01*
X2614097Y3236924D01*
X2614375Y3236646D01*
X2615763Y3235536D01*
X2617429Y3234148D01*
X2619927Y3232482D01*
X2622981Y3230816D01*
X2626868Y3229428D01*
X2631032Y3228318D01*
X2635474Y3228040D01*
X2636862D01*
X2638528Y3228318D01*
X2640471Y3228595D01*
X2642692Y3229151D01*
X2645191Y3229983D01*
X2647689Y3231094D01*
X2649910Y3232760D01*
X2650188Y3233037D01*
X2651021Y3233592D01*
X2652131Y3234703D01*
X2653242Y3236369D01*
X2654908Y3238590D01*
X2656296Y3241088D01*
X2657684Y3244420D01*
X2659072Y3248029D01*
X2695718Y3241921D01*
Y3241644D01*
X2695440Y3241088D01*
X2694885Y3239978D01*
X2694330Y3238590D01*
X2693497Y3236924D01*
X2692664Y3234981D01*
X2690166Y3230539D01*
X2687112Y3225541D01*
X2683225Y3220267D01*
X2678505Y3215547D01*
X2673231Y3211105D01*
X2672953D01*
X2672675Y3210550D01*
X2671565Y3210272D01*
X2670454Y3209439D01*
X2669066Y3208606D01*
X2667123Y3207774D01*
X2665180Y3206941D01*
X2662681Y3205830D01*
X2657129Y3203887D01*
X2650743Y3202221D01*
X2643247Y3201111D01*
X2635196Y3200555D01*
X2633531D01*
X2631865Y3200833D01*
X2629366D01*
X2626313Y3201388D01*
X2622703Y3201944D01*
X2618817Y3202499D01*
X2614930Y3203609D01*
X2610488Y3204720D01*
X2606046Y3206386D01*
X2601604Y3208329D01*
X2597162Y3210550D01*
X2592720Y3213326D01*
X2588556Y3216380D01*
X2584947Y3219989D01*
X2581338Y3224153D01*
X2581060Y3224431D01*
X2580782Y3224986D01*
X2580227Y3226097D01*
X2579117Y3227485D01*
X2578284Y3229428D01*
X2577173Y3231649D01*
X2575785Y3234148D01*
X2574675Y3237202D01*
X2573287Y3240533D01*
X2572176Y3244142D01*
X2570788Y3248029D01*
X2569955Y3252471D01*
X2569122Y3256913D01*
X2568290Y3261632D01*
X2568012Y3266907D01*
X2567734Y3272182D01*
Y3272460D01*
Y3273570D01*
Y3275513D01*
X2568012Y3278012D01*
X2568290Y3280788D01*
X2568567Y3284120D01*
X2569122Y3287729D01*
X2569955Y3291893D01*
X2572176Y3300499D01*
X2573564Y3304941D01*
X2575230Y3309661D01*
X2577451Y3314103D01*
X2579950Y3318267D01*
X2582726Y3322432D01*
X2585780Y3326318D01*
X2586057Y3326596D01*
X2586613Y3327151D01*
X2587723Y3328262D01*
X2589111Y3329372D01*
X2590777Y3330760D01*
X2592998Y3332426D01*
X2595496Y3334369D01*
X2598273Y3336313D01*
X2601327Y3337978D01*
X2604936Y3339922D01*
X2608545Y3341587D01*
X2612709Y3342976D01*
X2616873Y3344086D01*
X2621593Y3345197D01*
X2626313Y3345752D01*
X2631310Y3346029D01*
X2634364D01*
X2636585Y3345752D01*
D02*
G37*
G36*
X3835356Y3396557D02*
X3837577Y3396279D01*
X3840354Y3395724D01*
X3843130Y3395169D01*
X3846461Y3394336D01*
X3850070Y3393225D01*
X3853402Y3391837D01*
X3857011Y3390449D01*
X3860620Y3388506D01*
X3864229Y3386007D01*
X3867838Y3383509D01*
X3871170Y3380455D01*
X3874223Y3376846D01*
X3874501Y3376568D01*
X3875056Y3375735D01*
X3875889Y3374347D01*
X3877277Y3372404D01*
X3878665Y3369628D01*
X3880331Y3366296D01*
X3881997Y3362687D01*
X3883663Y3357967D01*
X3885328Y3352970D01*
X3887272Y3347140D01*
X3888660Y3340755D01*
X3890048Y3333537D01*
X3891436Y3325763D01*
X3892269Y3317435D01*
X3892824Y3308273D01*
X3893102Y3298279D01*
Y3298001D01*
Y3297723D01*
Y3296891D01*
Y3295780D01*
Y3293004D01*
X3892824Y3289395D01*
X3892546Y3284953D01*
X3891991Y3279678D01*
X3891436Y3274126D01*
X3890881Y3268018D01*
X3889770Y3261633D01*
X3888382Y3254970D01*
X3886994Y3248584D01*
X3885051Y3242199D01*
X3883107Y3235814D01*
X3880331Y3229984D01*
X3877555Y3224431D01*
X3874223Y3219712D01*
X3873946Y3219434D01*
X3873391Y3218879D01*
X3872558Y3217768D01*
X3871447Y3216658D01*
X3869781Y3215270D01*
X3867838Y3213604D01*
X3865339Y3211661D01*
X3862841Y3209995D01*
X3859787Y3208051D01*
X3856733Y3206108D01*
X3853124Y3204442D01*
X3849237Y3203054D01*
X3845073Y3201944D01*
X3840354Y3200833D01*
X3835634Y3200278D01*
X3830637Y3200000D01*
X3829526D01*
X3827861Y3200278D01*
X3825917D01*
X3823696Y3200556D01*
X3820920Y3201111D01*
X3817866Y3201666D01*
X3814535Y3202777D01*
X3810926Y3203887D01*
X3807316Y3205275D01*
X3803430Y3206941D01*
X3799821Y3209162D01*
X3795934Y3211383D01*
X3792325Y3214437D01*
X3788716Y3217491D01*
X3785384Y3221377D01*
X3785107Y3221655D01*
X3784551Y3222488D01*
X3783719Y3223876D01*
X3782886Y3225542D01*
X3781498Y3228040D01*
X3780110Y3231094D01*
X3778444Y3234981D01*
X3777056Y3239145D01*
X3775390Y3244142D01*
X3773724Y3249695D01*
X3772336Y3256080D01*
X3771226Y3263021D01*
X3770115Y3270794D01*
X3769282Y3279400D01*
X3768727Y3288562D01*
X3768449Y3298556D01*
Y3298834D01*
Y3299112D01*
Y3299944D01*
Y3301055D01*
Y3303831D01*
X3768727Y3307440D01*
X3769005Y3311882D01*
X3769560Y3317157D01*
X3770115Y3322709D01*
X3770670Y3328817D01*
X3771781Y3335202D01*
X3772891Y3341588D01*
X3774557Y3348251D01*
X3776223Y3354636D01*
X3778444Y3360744D01*
X3780942Y3366574D01*
X3783719Y3372126D01*
X3787050Y3376846D01*
X3787328Y3377123D01*
X3787883Y3377679D01*
X3788716Y3378789D01*
X3790104Y3379900D01*
X3791492Y3381565D01*
X3793435Y3383231D01*
X3795934Y3384897D01*
X3798433Y3386840D01*
X3801486Y3388783D01*
X3804540Y3390449D01*
X3808149Y3392115D01*
X3812036Y3393781D01*
X3816200Y3394891D01*
X3820920Y3396002D01*
X3825640Y3396557D01*
X3830637Y3396834D01*
X3833413D01*
X3835356Y3396557D01*
D02*
G37*
%LPC*%
G36*
X9232720Y3397867D02*
X9232581D01*
X9232165D01*
X9231610D01*
X9230778D01*
X9229807Y3397729D01*
X9228559D01*
X9227311Y3397590D01*
X9225785Y3397313D01*
X9222596Y3396897D01*
X9219267Y3396203D01*
X9215662Y3395232D01*
X9212333Y3393846D01*
X9212194D01*
X9211917Y3393707D01*
X9211501Y3393430D01*
X9210946Y3393152D01*
X9209282Y3392181D01*
X9207340Y3390933D01*
X9205122Y3389269D01*
X9202903Y3387189D01*
X9200684Y3384831D01*
X9198742Y3382196D01*
Y3382057D01*
X9198465Y3381919D01*
X9198326Y3381503D01*
X9197910Y3380809D01*
X9197633Y3380116D01*
X9197217Y3379284D01*
X9196246Y3377204D01*
X9195414Y3374707D01*
X9194582Y3371795D01*
X9194027Y3368466D01*
X9193888Y3364999D01*
Y3363751D01*
X9194027Y3362780D01*
X9194166Y3361532D01*
X9194443Y3360284D01*
X9194720Y3358759D01*
X9194998Y3357094D01*
X9196107Y3353489D01*
X9196939Y3351547D01*
X9197771Y3349605D01*
X9198881Y3347525D01*
X9200129Y3345584D01*
X9201516Y3343642D01*
X9203180Y3341839D01*
X9203319Y3341700D01*
X9203596Y3341423D01*
X9204151Y3341007D01*
X9204983Y3340314D01*
X9205954Y3339620D01*
X9207202Y3338788D01*
X9208727Y3337956D01*
X9210530Y3336985D01*
X9212472Y3336153D01*
X9214829Y3335182D01*
X9217326Y3334350D01*
X9220099Y3333657D01*
X9223150Y3332963D01*
X9226618Y3332547D01*
X9230223Y3332270D01*
X9234106Y3332131D01*
X9234245D01*
X9234800D01*
X9235771D01*
X9237019Y3332270D01*
X9238406Y3332409D01*
X9240070Y3332686D01*
X9242011Y3332963D01*
X9243953Y3333241D01*
X9248391Y3334350D01*
X9250610Y3335182D01*
X9252968Y3336014D01*
X9255186Y3337124D01*
X9257405Y3338372D01*
X9259486Y3339759D01*
X9261427Y3341423D01*
X9261566Y3341562D01*
X9261843Y3341839D01*
X9262398Y3342394D01*
X9262953Y3343087D01*
X9263785Y3344058D01*
X9264617Y3345168D01*
X9265449Y3346416D01*
X9266420Y3347803D01*
X9267391Y3349467D01*
X9268223Y3351270D01*
X9269055Y3353211D01*
X9269887Y3355291D01*
X9270442Y3357510D01*
X9270996Y3359729D01*
X9271274Y3362226D01*
X9271412Y3364861D01*
Y3365554D01*
X9271274Y3366248D01*
Y3367218D01*
X9271135Y3368466D01*
X9270858Y3369853D01*
X9270580Y3371518D01*
X9270164Y3373182D01*
X9269610Y3375123D01*
X9268916Y3376926D01*
X9268223Y3379006D01*
X9267252Y3380948D01*
X9266004Y3382890D01*
X9264756Y3384831D01*
X9263230Y3386773D01*
X9261427Y3388576D01*
X9261289Y3388714D01*
X9261011Y3388992D01*
X9260318Y3389408D01*
X9259486Y3390101D01*
X9258515Y3390795D01*
X9257267Y3391488D01*
X9255741Y3392320D01*
X9254077Y3393291D01*
X9252135Y3394123D01*
X9249916Y3394955D01*
X9247559Y3395649D01*
X9245063Y3396481D01*
X9242289Y3397035D01*
X9239238Y3397451D01*
X9236048Y3397729D01*
X9232720Y3397867D01*
D02*
G37*
G36*
X766795Y4975457D02*
Y4975180D01*
X766517Y4974624D01*
Y4973514D01*
X765962Y4972403D01*
X765684Y4970460D01*
X765129Y4968517D01*
X764019Y4963797D01*
X762630Y4958245D01*
X760687Y4952137D01*
X758744Y4945474D01*
X756245Y4938533D01*
X735423Y4882454D01*
X800387D01*
X780398Y4935202D01*
Y4935480D01*
X780121Y4936312D01*
X779565Y4937701D01*
X779010Y4939366D01*
X778177Y4941310D01*
X777344Y4943808D01*
X776512Y4946584D01*
X775401Y4949361D01*
X773180Y4955746D01*
X770959Y4962409D01*
X768738Y4969072D01*
X766795Y4975457D01*
D02*
G37*
G36*
X774013Y4272681D02*
X719044D01*
Y4204108D01*
X770681D01*
X772625Y4204386D01*
X774568D01*
X776789Y4204663D01*
X782064Y4205219D01*
X787894Y4206329D01*
X793724Y4207995D01*
X798999Y4210216D01*
X801498Y4211604D01*
X803441Y4213270D01*
X803996Y4213825D01*
X805107Y4214935D01*
X806772Y4217156D01*
X808716Y4219933D01*
X810659Y4223542D01*
X812325Y4227984D01*
X813435Y4232981D01*
X813990Y4238811D01*
Y4239089D01*
Y4239366D01*
Y4240754D01*
X813713Y4243253D01*
X813158Y4246029D01*
X812602Y4249083D01*
X811492Y4252692D01*
X809826Y4256023D01*
X807883Y4259355D01*
X807605Y4259633D01*
X806772Y4260743D01*
X805384Y4262131D01*
X803718Y4264075D01*
X801220Y4266018D01*
X798444Y4267684D01*
X795390Y4269349D01*
X791781Y4270737D01*
X791503D01*
X790393Y4271015D01*
X788727Y4271293D01*
X786506Y4271848D01*
X783174Y4272126D01*
X779010Y4272403D01*
X774013Y4272681D01*
D02*
G37*
G36*
X5103121Y5249634D02*
X5100343D01*
X5093399Y5248245D01*
X5083677Y5246856D01*
X5072566Y5241300D01*
Y5239912D01*
X5071177Y5238523D01*
X5068399D01*
X5067010Y5237134D01*
X5062844Y5232967D01*
X5057288Y5227412D01*
X5051733Y5219078D01*
X4653127Y4530198D01*
Y4528809D01*
Y4527420D01*
X4651738Y4526031D01*
X4650349Y4520476D01*
Y4519087D01*
X4648960Y4517698D01*
X4647571Y4512143D01*
Y4510754D01*
Y4507976D01*
X4646182Y4505198D01*
Y4499643D01*
X4647571Y4485754D01*
X4650349Y4478810D01*
X4653127Y4471865D01*
X4654516Y4469088D01*
X4658682Y4464921D01*
X4660071Y4463532D01*
X4664238Y4457977D01*
X4665627D01*
X4667016Y4455199D01*
X4675349Y4451032D01*
X4687849Y4445477D01*
X4696182Y4444088D01*
X4704515Y4442699D01*
X5501728Y4442699D01*
Y4444088D01*
X5512839D01*
X5517005Y4445477D01*
X5519783Y4446866D01*
X5518394Y4445477D01*
X5519783D01*
X5522561Y4446866D01*
X5530894Y4451033D01*
X5540616Y4459366D01*
X5551727Y4471866D01*
X5553116Y4474643D01*
X5555894Y4480199D01*
X5557283Y4489921D01*
X5558671Y4501032D01*
Y4502421D01*
Y4506587D01*
Y4509365D01*
X5557283Y4514921D01*
X5554505Y4521865D01*
X5550338Y4530198D01*
Y4531587D01*
X5151732Y5220468D01*
Y5221856D01*
X5150343Y5223245D01*
X5147565Y5227412D01*
X5146176Y5228801D01*
X5142010Y5232967D01*
X5140621Y5234356D01*
X5139232Y5235745D01*
X5130899Y5241301D01*
X5118399Y5245467D01*
X5111454Y5248245D01*
X5103121D01*
Y5249634D01*
D02*
G37*
%LPD*%
G36*
X4987845Y4776028D02*
X5248953Y4910749D01*
X5089232Y4580197D01*
X5147565Y4594086D01*
X5051733Y4482976D01*
X5030900Y4616308D01*
X5073955Y4582975D01*
X5136454Y4820472D01*
X4935068Y4721862D01*
X5064233Y5167690D01*
X5158676Y5170468D01*
X4987845Y4776028D01*
D02*
G37*
%LPC*%
G36*
X569961Y3572403D02*
X525541D01*
Y3425819D01*
X571071D01*
X573015Y3426097D01*
X577179Y3426374D01*
X581899Y3426652D01*
X586896Y3427207D01*
X591893Y3428040D01*
X596057Y3429150D01*
X596612Y3429428D01*
X598001Y3429706D01*
X599944Y3430538D01*
X602443Y3431649D01*
X605219Y3433315D01*
X607995Y3434980D01*
X610771Y3436924D01*
X613547Y3439145D01*
X613825Y3439700D01*
X614936Y3440810D01*
X616601Y3442754D01*
X618545Y3445530D01*
X620766Y3449139D01*
X623264Y3453303D01*
X625485Y3458023D01*
X627429Y3463298D01*
Y3463575D01*
X627706Y3464131D01*
X627984Y3464964D01*
X628261Y3466074D01*
X628539Y3467462D01*
X629094Y3469406D01*
X629649Y3471349D01*
X630205Y3473570D01*
X631038Y3479122D01*
X631870Y3485508D01*
X632426Y3492726D01*
X632703Y3500499D01*
Y3500777D01*
Y3501887D01*
Y3503275D01*
X632426Y3505496D01*
Y3507995D01*
X632148Y3510771D01*
X631870Y3514103D01*
X631593Y3517434D01*
X630205Y3524930D01*
X628539Y3532703D01*
X626040Y3539922D01*
X624375Y3543531D01*
X622709Y3546584D01*
Y3546862D01*
X622154Y3547417D01*
X621598Y3548250D01*
X621043Y3549361D01*
X618822Y3552137D01*
X616046Y3555468D01*
X612437Y3559077D01*
X608273Y3562687D01*
X603553Y3565740D01*
X598556Y3568239D01*
X598001Y3568517D01*
X596612Y3568794D01*
X594114Y3569627D01*
X590505Y3570460D01*
X586063Y3571015D01*
X580510Y3571848D01*
X577179Y3572126D01*
X573570D01*
X569961Y3572403D01*
D02*
G37*
G36*
X747084Y3526040D02*
X745418D01*
X744030Y3525763D01*
X740976Y3525485D01*
X736812Y3524375D01*
X732092Y3522709D01*
X727095Y3520488D01*
X722375Y3517157D01*
X719877Y3514936D01*
X717656Y3512715D01*
Y3512437D01*
X717100Y3512159D01*
X716545Y3511326D01*
X715712Y3510216D01*
X714879Y3508828D01*
X714047Y3507162D01*
X712936Y3504941D01*
X711826Y3502720D01*
X710715Y3499944D01*
X709605Y3497168D01*
X708772Y3493836D01*
X707939Y3490227D01*
X707106Y3486341D01*
X706551Y3482176D01*
X706273Y3477457D01*
X705996Y3472737D01*
Y3472459D01*
Y3471627D01*
Y3470238D01*
X706273Y3468295D01*
Y3466074D01*
X706551Y3463575D01*
X707384Y3457745D01*
X708772Y3451083D01*
X710993Y3444420D01*
X713769Y3438034D01*
X715712Y3435258D01*
X717656Y3432482D01*
X717933D01*
X718211Y3431927D01*
X719877Y3430538D01*
X722375Y3428318D01*
X725707Y3426097D01*
X729871Y3423598D01*
X734868Y3421377D01*
X740698Y3419989D01*
X743752Y3419711D01*
X747084Y3419434D01*
X748749D01*
X750137Y3419711D01*
X753191Y3420266D01*
X757356Y3421099D01*
X761798Y3422765D01*
X766795Y3424986D01*
X771514Y3428318D01*
X774013Y3430538D01*
X776234Y3432759D01*
X776512Y3433037D01*
X776789Y3433315D01*
X777344Y3434148D01*
X778177Y3435258D01*
X779010Y3436646D01*
X780121Y3438312D01*
X781231Y3440533D01*
X782342Y3442754D01*
X783452Y3445530D01*
X784285Y3448584D01*
X785395Y3451915D01*
X786228Y3455524D01*
X787061Y3459689D01*
X787616Y3463853D01*
X788172Y3468573D01*
Y3473570D01*
Y3473848D01*
Y3474680D01*
Y3476068D01*
X787894Y3477734D01*
Y3479955D01*
X787616Y3482454D01*
X786784Y3488284D01*
X785395Y3494392D01*
X783174Y3501054D01*
X780121Y3507162D01*
X778455Y3510216D01*
X776234Y3512715D01*
Y3512992D01*
X775679Y3513270D01*
X774013Y3514936D01*
X771514Y3516879D01*
X768183Y3519378D01*
X764019Y3521876D01*
X759021Y3524097D01*
X753469Y3525485D01*
X750415Y3525763D01*
X747084Y3526040D01*
D02*
G37*
G36*
X1909105Y3866103D02*
X1860975D01*
Y3774934D01*
X1905402D01*
X1908642Y3775397D01*
X1916972D01*
X1925302Y3775859D01*
X1933632Y3776785D01*
X1941037Y3778173D01*
X1944277Y3778636D01*
X1947053Y3779562D01*
X1947516Y3780024D01*
X1949367Y3780487D01*
X1951681Y3781876D01*
X1954458Y3783264D01*
X1957697Y3785578D01*
X1960937Y3788355D01*
X1964639Y3791594D01*
X1967416Y3795296D01*
X1967879Y3795759D01*
X1968804Y3797148D01*
X1969730Y3799462D01*
X1971118Y3802701D01*
X1972507Y3806403D01*
X1973895Y3810568D01*
X1974358Y3815196D01*
X1974821Y3820287D01*
Y3821213D01*
Y3823064D01*
X1974358Y3826303D01*
X1973432Y3830468D01*
X1972044Y3835096D01*
X1970193Y3840187D01*
X1967879Y3844815D01*
X1964176Y3849443D01*
X1963714Y3849905D01*
X1962325Y3851294D01*
X1960011Y3853145D01*
X1957235Y3855459D01*
X1953532Y3858236D01*
X1948904Y3860550D01*
X1943814Y3862401D01*
X1938260Y3863789D01*
X1937797D01*
X1935946Y3864252D01*
X1932707Y3864715D01*
X1928079Y3865177D01*
X1922063D01*
X1917898Y3865640D01*
X1913733D01*
X1909105Y3866103D01*
D02*
G37*
G36*
X580510Y5672403D02*
X525541D01*
Y5603831D01*
X577179D01*
X579122Y5604108D01*
X581066D01*
X583287Y5604386D01*
X588561Y5604941D01*
X594391Y5606052D01*
X600222Y5607717D01*
X605496Y5609938D01*
X607995Y5611326D01*
X609938Y5612992D01*
X610494Y5613547D01*
X611604Y5614658D01*
X613270Y5616879D01*
X615213Y5619655D01*
X617156Y5623264D01*
X618822Y5627706D01*
X619933Y5632703D01*
X620488Y5638533D01*
Y5638811D01*
Y5639089D01*
Y5640477D01*
X620210Y5642975D01*
X619655Y5645751D01*
X619100Y5648805D01*
X617989Y5652414D01*
X616324Y5655746D01*
X614380Y5659077D01*
X614103Y5659355D01*
X613270Y5660465D01*
X611882Y5661854D01*
X610216Y5663797D01*
X607717Y5665740D01*
X604941Y5667406D01*
X601887Y5669072D01*
X598278Y5670460D01*
X598001D01*
X596890Y5670737D01*
X595224Y5671015D01*
X593003Y5671570D01*
X589672Y5671848D01*
X585508Y5672126D01*
X580510Y5672403D01*
D02*
G37*
G36*
X1076343Y5626040D02*
X1074678D01*
X1073567Y5625763D01*
X1070513Y5625485D01*
X1066904Y5624652D01*
X1062462Y5623264D01*
X1057743Y5621321D01*
X1053301Y5618545D01*
X1048859Y5614935D01*
X1048303Y5614380D01*
X1047193Y5612992D01*
X1045250Y5610493D01*
X1043306Y5607162D01*
X1041085Y5603275D01*
X1039142Y5598278D01*
X1037476Y5592448D01*
X1036643Y5586063D01*
X1114655D01*
Y5586340D01*
Y5586896D01*
X1114378Y5587728D01*
Y5588839D01*
X1113822Y5592170D01*
X1112989Y5595780D01*
X1111601Y5600221D01*
X1110213Y5604386D01*
X1107992Y5608550D01*
X1105494Y5612159D01*
Y5612437D01*
X1104938Y5612714D01*
X1103550Y5614380D01*
X1101052Y5616601D01*
X1097720Y5619100D01*
X1093556Y5621598D01*
X1088559Y5623819D01*
X1082729Y5625485D01*
X1079675Y5625763D01*
X1076343Y5626040D01*
D02*
G37*
G36*
X732370D02*
X730704D01*
X729316Y5625763D01*
X726262Y5625485D01*
X722098Y5624375D01*
X717378Y5622709D01*
X712381Y5620488D01*
X707661Y5617156D01*
X705163Y5614935D01*
X702942Y5612714D01*
Y5612437D01*
X702386Y5612159D01*
X701831Y5611326D01*
X700998Y5610216D01*
X700165Y5608828D01*
X699333Y5607162D01*
X698222Y5604941D01*
X697112Y5602720D01*
X696001Y5599944D01*
X694891Y5597168D01*
X694058Y5593836D01*
X693225Y5590227D01*
X692392Y5586340D01*
X691837Y5582176D01*
X691559Y5577456D01*
X691282Y5572737D01*
Y5572459D01*
Y5571626D01*
Y5570238D01*
X691559Y5568295D01*
Y5566074D01*
X691837Y5563575D01*
X692670Y5557745D01*
X694058Y5551082D01*
X696279Y5544419D01*
X699055Y5538034D01*
X700998Y5535258D01*
X702942Y5532482D01*
X703219D01*
X703497Y5531926D01*
X705163Y5530538D01*
X707661Y5528317D01*
X710993Y5526096D01*
X715157Y5523598D01*
X720154Y5521377D01*
X725984Y5519989D01*
X729038Y5519711D01*
X732370Y5519433D01*
X734035D01*
X735423Y5519711D01*
X738477Y5520266D01*
X742642Y5521099D01*
X747084Y5522765D01*
X752081Y5524986D01*
X756800Y5528317D01*
X759299Y5530538D01*
X761520Y5532759D01*
X761798Y5533037D01*
X762075Y5533315D01*
X762630Y5534147D01*
X763463Y5535258D01*
X764296Y5536646D01*
X765407Y5538312D01*
X766517Y5540533D01*
X767628Y5542754D01*
X768738Y5545530D01*
X769571Y5548584D01*
X770681Y5551915D01*
X771514Y5555524D01*
X772347Y5559689D01*
X772902Y5563853D01*
X773458Y5568573D01*
Y5573570D01*
Y5573847D01*
Y5574680D01*
Y5576068D01*
X773180Y5577734D01*
Y5579955D01*
X772902Y5582454D01*
X772070Y5588284D01*
X770681Y5594391D01*
X768460Y5601054D01*
X765407Y5607162D01*
X763741Y5610216D01*
X761520Y5612714D01*
Y5612992D01*
X760965Y5613270D01*
X759299Y5614935D01*
X756800Y5616879D01*
X753469Y5619377D01*
X749305Y5621876D01*
X744307Y5624097D01*
X738755Y5625485D01*
X735701Y5625763D01*
X732370Y5626040D01*
D02*
G37*
G36*
X2468346Y3363242D02*
X2423926D01*
Y3314380D01*
X2461683D01*
X2467235Y3314658D01*
X2473065Y3314936D01*
X2478895Y3315213D01*
X2481394Y3315491D01*
X2483615Y3315769D01*
X2485836Y3316324D01*
X2487224Y3316601D01*
X2487502D01*
X2488334Y3317157D01*
X2489722Y3317712D01*
X2491111Y3318545D01*
X2494720Y3321043D01*
X2496385Y3322709D01*
X2498051Y3324652D01*
X2498329Y3324930D01*
X2498606Y3325763D01*
X2499439Y3326873D01*
X2500272Y3328539D01*
X2500827Y3330760D01*
X2501660Y3333259D01*
X2501938Y3336035D01*
X2502215Y3339089D01*
Y3339644D01*
Y3340755D01*
X2501938Y3342420D01*
X2501660Y3344641D01*
X2500827Y3347140D01*
X2499994Y3349638D01*
X2498606Y3352415D01*
X2496941Y3354636D01*
X2496663Y3354913D01*
X2496108Y3355746D01*
X2494720Y3356579D01*
X2493054Y3357967D01*
X2491111Y3359355D01*
X2488612Y3360466D01*
X2485558Y3361576D01*
X2482227Y3362409D01*
X2481949D01*
X2481116Y3362687D01*
X2479450D01*
X2476952Y3362964D01*
X2470844D01*
X2468346Y3363242D01*
D02*
G37*
G36*
X1971125Y3363242D02*
X1942252D01*
Y3308550D01*
X1968904D01*
X1970847Y3308828D01*
X1975844D01*
X1980841Y3309105D01*
X1985839Y3309661D01*
X1990280Y3310494D01*
X1992224Y3310771D01*
X1993890Y3311326D01*
X1994167Y3311604D01*
X1995278Y3311882D01*
X1996666Y3312714D01*
X1998332Y3313547D01*
X2000275Y3314935D01*
X2002218Y3316601D01*
X2004439Y3318545D01*
X2006105Y3320766D01*
X2006383Y3321043D01*
X2006938Y3321876D01*
X2007493Y3323264D01*
X2008326Y3325207D01*
X2009159Y3327428D01*
X2009992Y3329927D01*
X2010269Y3332703D01*
X2010547Y3335757D01*
Y3336312D01*
Y3337423D01*
X2010269Y3339366D01*
X2009714Y3341865D01*
X2008881Y3344641D01*
X2007771Y3347695D01*
X2006383Y3350471D01*
X2004162Y3353247D01*
X2003884Y3353525D01*
X2003051Y3354358D01*
X2001663Y3355468D01*
X1999997Y3356856D01*
X1997776Y3358522D01*
X1995000Y3359910D01*
X1991946Y3361021D01*
X1988615Y3361854D01*
X1988337D01*
X1987227Y3362131D01*
X1985283Y3362409D01*
X1982507Y3362686D01*
X1978898D01*
X1976399Y3362964D01*
X1973901D01*
X1971125Y3363242D01*
D02*
G37*
G36*
X1792058D02*
X1763186D01*
Y3308550D01*
X1789837D01*
X1791781Y3308828D01*
X1796778D01*
X1801775Y3309105D01*
X1806772Y3309661D01*
X1811214Y3310494D01*
X1813158Y3310771D01*
X1814823Y3311326D01*
X1815101Y3311604D01*
X1816212Y3311882D01*
X1817600Y3312714D01*
X1819265Y3313547D01*
X1821209Y3314935D01*
X1823152Y3316601D01*
X1825373Y3318545D01*
X1827039Y3320766D01*
X1827316Y3321043D01*
X1827872Y3321876D01*
X1828427Y3323264D01*
X1829260Y3325207D01*
X1830093Y3327428D01*
X1830925Y3329927D01*
X1831203Y3332703D01*
X1831481Y3335757D01*
Y3336312D01*
Y3337423D01*
X1831203Y3339366D01*
X1830648Y3341865D01*
X1829815Y3344641D01*
X1828704Y3347695D01*
X1827316Y3350471D01*
X1825095Y3353247D01*
X1824818Y3353525D01*
X1823985Y3354358D01*
X1822597Y3355468D01*
X1820931Y3356856D01*
X1818710Y3358522D01*
X1815934Y3359910D01*
X1812880Y3361021D01*
X1809549Y3361854D01*
X1809271D01*
X1808160Y3362131D01*
X1806217Y3362409D01*
X1803441Y3362686D01*
X1799832D01*
X1797333Y3362964D01*
X1794835D01*
X1792058Y3363242D01*
D02*
G37*
G36*
X3119369Y3316046D02*
X3117981D01*
X3116871Y3315769D01*
X3114372Y3315491D01*
X3111041Y3314658D01*
X3107154Y3313270D01*
X3102989Y3311327D01*
X3098825Y3308550D01*
X3094938Y3304941D01*
X3094661Y3304386D01*
X3093550Y3302998D01*
X3091885Y3300222D01*
X3090219Y3296890D01*
X3088276Y3292448D01*
X3086887Y3286896D01*
X3085777Y3280511D01*
X3085222Y3273292D01*
Y3273015D01*
Y3272460D01*
Y3271349D01*
X3085499Y3269961D01*
Y3268018D01*
X3085777Y3266074D01*
X3086332Y3261632D01*
X3087720Y3256357D01*
X3089386Y3251083D01*
X3091607Y3245808D01*
X3094938Y3241366D01*
X3095494Y3240811D01*
X3096604Y3239700D01*
X3098825Y3238034D01*
X3101879Y3236091D01*
X3105210Y3233870D01*
X3109375Y3232204D01*
X3114094Y3231094D01*
X3119369Y3230539D01*
X3120757D01*
X3121868Y3230816D01*
X3124366Y3231094D01*
X3127698Y3231927D01*
X3131585Y3233315D01*
X3135749Y3234981D01*
X3139636Y3237757D01*
X3143522Y3241366D01*
X3144078Y3241921D01*
X3145188Y3243309D01*
X3146576Y3246085D01*
X3148519Y3249417D01*
X3150463Y3254136D01*
X3151851Y3259411D01*
X3152961Y3266074D01*
X3153517Y3273292D01*
Y3273570D01*
Y3274125D01*
Y3275236D01*
X3153239Y3276624D01*
Y3278290D01*
X3152961Y3280511D01*
X3152406Y3284953D01*
X3151018Y3289950D01*
X3149352Y3295225D01*
X3146854Y3300499D01*
X3143522Y3304941D01*
X3142967Y3305497D01*
X3141857Y3306607D01*
X3139636Y3308550D01*
X3136859Y3310494D01*
X3133250Y3312437D01*
X3129364Y3314380D01*
X3124644Y3315491D01*
X3119369Y3316046D01*
D02*
G37*
G36*
X2955295D02*
X2953906D01*
X2952796Y3315769D01*
X2950297Y3315491D01*
X2946966Y3314658D01*
X2943079Y3313270D01*
X2938915Y3311327D01*
X2934751Y3308550D01*
X2930864Y3304941D01*
X2930586Y3304386D01*
X2929476Y3302998D01*
X2927810Y3300222D01*
X2926144Y3296890D01*
X2924201Y3292448D01*
X2922813Y3286896D01*
X2921702Y3280511D01*
X2921147Y3273292D01*
Y3273015D01*
Y3272460D01*
Y3271349D01*
X2921425Y3269961D01*
Y3268018D01*
X2921702Y3266074D01*
X2922258Y3261632D01*
X2923646Y3256357D01*
X2925311Y3251083D01*
X2927532Y3245808D01*
X2930864Y3241366D01*
X2931419Y3240811D01*
X2932530Y3239700D01*
X2934751Y3238034D01*
X2937804Y3236091D01*
X2941136Y3233870D01*
X2945300Y3232204D01*
X2950020Y3231094D01*
X2955295Y3230539D01*
X2956683D01*
X2957793Y3230816D01*
X2960292Y3231094D01*
X2963623Y3231927D01*
X2967510Y3233315D01*
X2971674Y3234981D01*
X2975561Y3237757D01*
X2979448Y3241366D01*
X2980003Y3241921D01*
X2981113Y3243309D01*
X2982502Y3246085D01*
X2984445Y3249417D01*
X2986388Y3254136D01*
X2987776Y3259411D01*
X2988887Y3266074D01*
X2989442Y3273292D01*
Y3273570D01*
Y3274125D01*
Y3275236D01*
X2989164Y3276624D01*
Y3278290D01*
X2988887Y3280511D01*
X2988332Y3284953D01*
X2986943Y3289950D01*
X2985278Y3295225D01*
X2982779Y3300499D01*
X2979448Y3304941D01*
X2978892Y3305497D01*
X2977782Y3306607D01*
X2975561Y3308550D01*
X2972785Y3310494D01*
X2969176Y3312437D01*
X2965289Y3314380D01*
X2960569Y3315491D01*
X2955295Y3316046D01*
D02*
G37*
G36*
X2793719Y3317712D02*
X2793163D01*
X2791498Y3317434D01*
X2788999Y3317157D01*
X2785945Y3316324D01*
X2782336Y3315213D01*
X2778449Y3313270D01*
X2774840Y3310771D01*
X2771231Y3307440D01*
X2770954Y3306885D01*
X2769843Y3305497D01*
X2768455Y3302998D01*
X2767067Y3299667D01*
X2765401Y3295225D01*
X2764013Y3289950D01*
X2762903Y3283564D01*
X2762625Y3276069D01*
Y3275791D01*
Y3275236D01*
Y3274125D01*
Y3272460D01*
X2762903Y3270794D01*
Y3268573D01*
X2763458Y3263853D01*
X2764291Y3258856D01*
X2765401Y3253581D01*
X2767067Y3248584D01*
X2769288Y3244142D01*
Y3243864D01*
X2769843Y3243587D01*
X2770954Y3241921D01*
X2773175Y3239700D01*
X2776228Y3236924D01*
X2779837Y3234148D01*
X2784279Y3231927D01*
X2789277Y3230261D01*
X2792053Y3229983D01*
X2795107Y3229706D01*
X2795662D01*
X2797050Y3229983D01*
X2799549Y3230261D01*
X2802325Y3231094D01*
X2805656Y3232204D01*
X2808988Y3234148D01*
X2812597Y3236646D01*
X2815928Y3239978D01*
X2816206Y3240533D01*
X2817316Y3241921D01*
X2818705Y3244420D01*
X2820370Y3248029D01*
X2822036Y3252471D01*
X2823424Y3258023D01*
X2823979Y3261355D01*
X2824535Y3264964D01*
X2824812Y3268573D01*
Y3272737D01*
Y3273015D01*
Y3273848D01*
Y3274958D01*
Y3276624D01*
X2824535Y3278567D01*
X2824257Y3280788D01*
X2823702Y3286063D01*
X2822591Y3291615D01*
X2821203Y3297446D01*
X2818982Y3302720D01*
X2817594Y3304941D01*
X2815928Y3307162D01*
X2815651Y3307718D01*
X2814263Y3308828D01*
X2812597Y3310494D01*
X2809821Y3312437D01*
X2806767Y3314380D01*
X2802880Y3316046D01*
X2798716Y3317157D01*
X2793719Y3317712D01*
D02*
G37*
G36*
X2633531D02*
X2631587D01*
X2629366Y3317157D01*
X2626590Y3316601D01*
X2623536Y3315491D01*
X2620205Y3314103D01*
X2616873Y3311882D01*
X2613820Y3308828D01*
X2613542Y3308550D01*
X2612709Y3307162D01*
X2611321Y3305219D01*
X2609933Y3302443D01*
X2608267Y3299111D01*
X2607157Y3294947D01*
X2606324Y3290227D01*
X2606046Y3284953D01*
X2661015D01*
Y3285230D01*
Y3285785D01*
Y3286341D01*
X2660738Y3287451D01*
X2660460Y3290505D01*
X2659905Y3293836D01*
X2658794Y3297723D01*
X2657406Y3301887D01*
X2655185Y3305774D01*
X2652687Y3309106D01*
X2652409Y3309383D01*
X2651298Y3310494D01*
X2649633Y3311882D01*
X2647412Y3313548D01*
X2644636Y3314936D01*
X2641304Y3316324D01*
X2637695Y3317434D01*
X2633531Y3317712D01*
D02*
G37*
G36*
X3830637Y3366296D02*
X3829526D01*
X3828138Y3366018D01*
X3826750Y3365741D01*
X3824807Y3365186D01*
X3822863Y3364353D01*
X3820642Y3363242D01*
X3818699Y3361854D01*
X3818421Y3361576D01*
X3817866Y3361021D01*
X3817033Y3359911D01*
X3815923Y3358523D01*
X3814535Y3356302D01*
X3813424Y3353803D01*
X3812036Y3350472D01*
X3810926Y3346585D01*
Y3346307D01*
X3810648Y3346030D01*
Y3344919D01*
X3810370Y3343809D01*
X3810093Y3342143D01*
X3809815Y3340200D01*
X3809537Y3337979D01*
X3809260Y3335202D01*
X3808705Y3331871D01*
X3808427Y3328539D01*
X3808149Y3324375D01*
X3807872Y3320211D01*
X3807594Y3315214D01*
Y3310216D01*
X3807316Y3304386D01*
Y3298279D01*
Y3298001D01*
Y3296891D01*
Y3294947D01*
Y3292726D01*
Y3289950D01*
X3807594Y3286896D01*
Y3283287D01*
X3807872Y3279678D01*
X3808149Y3271905D01*
X3808705Y3264131D01*
X3808982Y3260522D01*
X3809537Y3257191D01*
X3810093Y3254137D01*
X3810648Y3251361D01*
X3810926Y3250805D01*
X3811203Y3249417D01*
X3812036Y3247196D01*
X3812869Y3244698D01*
X3814257Y3241921D01*
X3815645Y3239145D01*
X3817311Y3236647D01*
X3818977Y3234703D01*
X3819254Y3234426D01*
X3819809Y3234148D01*
X3820920Y3233315D01*
X3822308Y3232760D01*
X3823974Y3231927D01*
X3825917Y3231094D01*
X3828138Y3230816D01*
X3830637Y3230539D01*
X3831747D01*
X3833135Y3230816D01*
X3834523Y3231094D01*
X3836467Y3231649D01*
X3838410Y3232205D01*
X3840354Y3233315D01*
X3842297Y3234703D01*
X3842574Y3234981D01*
X3843130Y3235536D01*
X3844240Y3236647D01*
X3845351Y3238312D01*
X3846461Y3240256D01*
X3847849Y3243032D01*
X3849237Y3246086D01*
X3850348Y3249972D01*
Y3250250D01*
X3850626Y3250528D01*
Y3251638D01*
X3850903Y3252749D01*
X3851181Y3254414D01*
X3851458Y3256358D01*
X3852014Y3258579D01*
X3852291Y3261355D01*
X3852569Y3264409D01*
X3853124Y3268018D01*
X3853402Y3271905D01*
X3853679Y3276347D01*
X3853957Y3281066D01*
Y3286341D01*
X3854235Y3292171D01*
Y3298279D01*
Y3298556D01*
Y3299667D01*
Y3301610D01*
Y3303831D01*
Y3306607D01*
X3853957Y3309661D01*
Y3313270D01*
X3853679Y3316879D01*
X3853402Y3324653D01*
X3852846Y3332149D01*
X3852291Y3335758D01*
X3851736Y3339367D01*
X3851181Y3342421D01*
X3850626Y3344919D01*
Y3345197D01*
X3850348Y3345474D01*
X3850070Y3346862D01*
X3849237Y3349083D01*
X3848405Y3351860D01*
X3847016Y3354636D01*
X3845628Y3357412D01*
X3843963Y3359911D01*
X3842297Y3361854D01*
X3842019Y3362132D01*
X3841464Y3362687D01*
X3840354Y3363242D01*
X3838965Y3364075D01*
X3837300Y3364908D01*
X3835356Y3365741D01*
X3833135Y3366018D01*
X3830637Y3366296D01*
D02*
G37*
%LPD*%
D96*
X1329000Y701501D02*
G03*
X1379001Y651500I50000J0D01*
G01*
X1945603Y764096D02*
G03*
X1979001Y826500I-41602J62404D01*
G01*
X1779001Y651500D02*
G03*
X1832033Y673467I0J75000D01*
G01*
X1379001Y1001500D02*
G03*
X1329000Y951500I0J-50000D01*
G01*
X1979001Y826500D02*
G03*
X1945603Y888904I-75000J0D01*
G01*
X1832033Y979533D02*
G03*
X1779001Y1001500I-53033J-53033D01*
G01*
D97*
X3737500Y7245000D02*
G03*
X3737500Y7245000I-12500J0D01*
G01*
X1537500Y7244999D02*
G03*
X1537500Y7244999I-12500J0D01*
G01*
X2440001Y70000D02*
X3410001D01*
X4270001D02*
X5240001D01*
X4270001Y2570000D02*
X5240001D01*
X2440001D02*
X3410001D01*
X5240001Y70000D02*
Y2570000D01*
X2440001Y70000D02*
Y2570000D01*
X1329000Y701501D02*
Y826500D01*
X1379001Y651500D02*
X1654001D01*
X1832033Y673467D02*
X1945603Y764096D01*
X1654001Y651500D02*
X1779001D01*
X1329000Y826500D02*
Y951500D01*
X1379001Y1001500D02*
X1654001D01*
X1832033Y979533D02*
X1945603Y888904D01*
X1654001Y1001500D02*
X1779001D01*
X7625000Y1977000D02*
X10525001D01*
Y1217000D02*
Y5783000D01*
X7625000Y1217000D02*
Y5783000D01*
Y5023000D02*
X10525001D01*
X7625000Y1217000D02*
X10525001D01*
X7625000Y5783000D02*
X10525001D01*
X5800000Y6625000D02*
Y6965000D01*
Y5885000D02*
Y6225000D01*
Y5885000D02*
X8050000D01*
Y6225000D01*
X5800000Y6965000D02*
X8050000D01*
Y6625000D02*
Y6965000D01*
X5868161Y5205910D02*
X6248161Y5864090D01*
X7201840Y4435910D02*
X7581840Y5094090D01*
X6248161Y5864090D02*
X6282802Y5844090D01*
X6490648Y5724090D02*
X7581840Y5094090D01*
X5868161Y5205910D02*
X6959353Y4575910D01*
X7167199Y4455911D02*
X7201840Y4435910D01*
X3375000Y6192500D02*
Y7197500D01*
Y6192500D02*
X4675000D01*
Y7197500D01*
X3375000D02*
X4675000D01*
X8025000Y25000D02*
X8125001Y125000D01*
X7125000Y25000D02*
X8025000D01*
X8125001Y125000D02*
Y1025000D01*
X7125000D02*
X8125001D01*
X7125000Y25000D02*
Y1025000D01*
X4839000Y6185000D02*
Y6815000D01*
X4958000D01*
X4839000Y6185000D02*
X4958000D01*
X5342000D02*
X5461000D01*
X5342000Y6815000D02*
X5461000D01*
Y6185000D02*
Y6815000D01*
X1175000Y7197499D02*
X2475000D01*
Y6192500D02*
Y7197499D01*
X1175000Y6192500D02*
X2475000D01*
X1175000D02*
Y7197499D01*
X9325000Y2265000D02*
Y3464999D01*
X9025000Y2265000D02*
Y3464999D01*
D98*
X5025Y6005025D02*
G03*
X994975Y6994975I494975J494975D01*
G01*
Y5025D02*
G03*
X5025Y994975I-494975J494975D01*
G01*
X9394975D02*
G03*
X8405026Y5025I-494975J-494975D01*
G01*
Y6994975D02*
G03*
X9394975Y6005025I494975J-494975D01*
G01*
D101*
X530001Y1595000D02*
X1030001D01*
X530001Y1265000D02*
X560001Y1235000D01*
Y1195000D02*
Y1235000D01*
Y1195000D02*
X570001Y1185000D01*
X990001D01*
X1000001Y1195000D01*
Y1235000D01*
X1030001Y1265000D01*
Y1545000D02*
Y1595000D01*
X530001Y1545000D02*
Y1595000D01*
D194*
X6725001Y4400000D02*
G03*
X6725001Y4400000I-500000J0D01*
G01*
X7600001Y2900000D02*
G03*
X7600001Y2900000I-500000J0D01*
G01*
Y1900000D02*
G03*
X7600001Y1900000I-500000J0D01*
G01*
X6725001Y3400000D02*
G03*
X6725001Y3400000I-500000J0D01*
G01*
X7600001Y3900000D02*
G03*
X7600001Y3900000I-500000J0D01*
G01*
X6725001Y1400000D02*
G03*
X6725001Y1400000I-500000J0D01*
G01*
Y2400000D02*
G03*
X6725001Y2400000I-500000J0D01*
G01*
X6229976Y3870000D02*
Y3770033D01*
X6279960Y3820016D02*
X6179992D01*
X7104976Y2370000D02*
Y2270033D01*
X7154960Y2320016D02*
X7054992D01*
X7104976Y1370000D02*
Y1270033D01*
X7154960Y1320016D02*
X7054992D01*
X6229976Y2870000D02*
Y2770033D01*
X6279960Y2820016D02*
X6179992D01*
X7104976Y3370000D02*
Y3270033D01*
X7154960Y3320016D02*
X7054992D01*
X6229976Y870000D02*
Y770032D01*
X6279960Y820016D02*
X6179992D01*
X6229976Y1870000D02*
Y1770033D01*
X6279960Y1820016D02*
X6179992D01*
D195*
X5013000Y6315230D02*
X5022674Y6320067D01*
X5037186Y6334578D01*
Y6233000D01*
X4972023Y6760578D02*
X4962348Y6755741D01*
X4952674Y6746067D01*
X4947837Y6736393D01*
X4943000Y6721882D01*
Y6697697D01*
X4947837Y6683186D01*
X4952674Y6673511D01*
X4962348Y6663837D01*
X4972023Y6659000D01*
X4991371D01*
X5001045Y6663837D01*
X5010719Y6673511D01*
X5015556Y6683186D01*
X5020393Y6697697D01*
Y6721882D01*
X5015556Y6736393D01*
X5010719Y6746067D01*
X5001045Y6755741D01*
X4991371Y6760578D01*
X4972023D01*
X5044095D02*
Y6659000D01*
Y6760578D02*
X5111814Y6659000D01*
Y6760578D02*
Y6659000D01*
X5247838Y6310393D02*
Y6315230D01*
X5252675Y6324904D01*
X5257512Y6329741D01*
X5267186Y6334578D01*
X5286534D01*
X5296208Y6329741D01*
X5301045Y6324904D01*
X5305882Y6315230D01*
Y6305556D01*
X5301045Y6295882D01*
X5291371Y6281371D01*
X5243000Y6233000D01*
X5310719D01*
%TF.MD5,8e525713a06565e74abff1d5d66f81e1*%
M02*
