%TF.GenerationSoftware,Altium Limited,Altium Designer,22.0.2 (36)*%
G04 Layer_Physical_Order=2*
G04 Layer_Color=36540*
%FSLAX45Y45*%
%MOMM*%
%TF.SameCoordinates,8084254D-3EA1-499E-96B0-688E0DB6412D*%
%TF.FilePolarity,Positive*%
%TF.FileFunction,Copper,L2,Inr,Signal*%
%TF.Part,Single*%
G01*
G75*
%TA.AperFunction,Conductor*%
%ADD16C,0.30000*%
%ADD17C,0.70000*%
%ADD18C,0.60000*%
%TA.AperFunction,ComponentPad*%
%ADD21C,1.80000*%
%ADD22C,1.40000*%
%ADD23R,1.40000X1.40000*%
%ADD24C,1.20000*%
%ADD25O,3.00000X4.00000*%
%ADD26O,0.80000X0.40000*%
%ADD27C,0.65000*%
%ADD28C,8.00000*%
%ADD29C,3.60000*%
%ADD30C,2.60000*%
%ADD31C,2.10000*%
%ADD32C,2.99999*%
%ADD33R,1.52000X1.52000*%
%ADD34C,1.52000*%
%ADD35C,1.50000*%
%ADD36C,1.30000*%
%TA.AperFunction,ViaPad*%
%ADD37C,6.00000*%
%TA.AperFunction,WasherPad*%
%ADD38O,0.40000X0.80000*%
%ADD39O,0.80000X0.40000*%
%TA.AperFunction,ViaPad*%
%ADD40C,0.65000*%
%TA.AperFunction,Conductor*%
%ADD41C,0.50000*%
G36*
X59747Y5947940D02*
X124327Y5902119D01*
X193630Y5863816D01*
X266786Y5833514D01*
X342876Y5811593D01*
X420941Y5798329D01*
X444130Y5797027D01*
Y4725000D01*
X447605Y4689714D01*
X457898Y4655784D01*
X474612Y4624514D01*
X497105Y4597105D01*
X524514Y4574612D01*
X555784Y4557897D01*
X589714Y4547605D01*
X625001Y4544129D01*
X1740000D01*
X1775287Y4547605D01*
X1809217Y4557897D01*
X1840487Y4574612D01*
X1867895Y4597105D01*
X1890389Y4624514D01*
X1907103Y4655784D01*
X1917396Y4689714D01*
X1920871Y4725000D01*
Y4822385D01*
X1933571Y4829173D01*
X1945614Y4821126D01*
X1970000Y4816276D01*
X1994387Y4821126D01*
X2015060Y4834940D01*
X2028874Y4855614D01*
X2033725Y4880000D01*
X2028874Y4904386D01*
X2015060Y4925060D01*
X1994387Y4938874D01*
X1970000Y4943725D01*
X1945614Y4938874D01*
X1933571Y4930827D01*
X1920871Y4937616D01*
Y4962385D01*
X1933571Y4969173D01*
X1945614Y4961126D01*
X1970000Y4956276D01*
X1994387Y4961126D01*
X2015060Y4974940D01*
X2028874Y4995614D01*
X2033725Y5020000D01*
X2028874Y5044386D01*
X2015060Y5065060D01*
X1994387Y5078874D01*
X1970000Y5083725D01*
X1945614Y5078874D01*
X1933571Y5070827D01*
X1920871Y5077616D01*
Y5398102D01*
X1933571Y5401955D01*
X1944940Y5384940D01*
X1965614Y5371126D01*
X1990000Y5366276D01*
X2014387Y5371126D01*
X2035060Y5384940D01*
X2048874Y5405614D01*
X2053725Y5430000D01*
X2048874Y5454386D01*
X2046507Y5457929D01*
X2052494Y5469129D01*
X2352079D01*
Y4297846D01*
X2339378Y4289870D01*
X2320000Y4293725D01*
X2295614Y4288874D01*
X2274940Y4275060D01*
X2261127Y4254386D01*
X2256276Y4230000D01*
X2261127Y4205614D01*
X2274940Y4184940D01*
X2295614Y4171126D01*
X2320000Y4166276D01*
X2344387Y4171126D01*
X2365061Y4184940D01*
X2378726Y4205392D01*
X2380039Y4207330D01*
X2392488Y4209591D01*
X2502079Y4100000D01*
X2610156D01*
X2614008Y4087300D01*
X2603602Y4080347D01*
X2589789Y4059673D01*
X2584938Y4035287D01*
X2589789Y4010901D01*
X2603602Y3990227D01*
X2624276Y3976413D01*
X2648662Y3971563D01*
X2673049Y3976413D01*
X2693723Y3990227D01*
X2707536Y4010901D01*
X2712387Y4035287D01*
X2707536Y4059673D01*
X2693723Y4080347D01*
X2683316Y4087300D01*
X2687169Y4100000D01*
X2841274D01*
X2860000Y4096276D01*
X2878727Y4100000D01*
X3286833Y4100000D01*
X3296590Y4093481D01*
X3320000Y4088825D01*
X3567303D01*
X3573290Y4077624D01*
X3571126Y4074386D01*
X3566276Y4050000D01*
X3571126Y4025614D01*
X3584940Y4004940D01*
X3605614Y3991126D01*
X3630000Y3986275D01*
X3654387Y3991126D01*
X3675060Y4004940D01*
X3688874Y4025614D01*
X3693725Y4050000D01*
X3688874Y4074386D01*
X3686711Y4077624D01*
X3692698Y4088825D01*
X3844661D01*
X3936743Y3996743D01*
X3956589Y3983481D01*
X3980000Y3978825D01*
X4010011D01*
X4012860Y3974799D01*
X4009788Y3958299D01*
X4004940Y3955060D01*
X3991127Y3934386D01*
X3986276Y3910000D01*
X3991127Y3885614D01*
X4004940Y3864940D01*
X4025614Y3851126D01*
X4048550Y3846564D01*
X4127557Y3767557D01*
X4142442Y3757611D01*
X4160001Y3754118D01*
X4210000D01*
Y3511176D01*
X4170000D01*
X4155314Y3508254D01*
X4154387Y3508874D01*
X4130000Y3513725D01*
X4105614Y3508874D01*
X4084940Y3495060D01*
X4071126Y3474386D01*
X4066276Y3450000D01*
X4071126Y3425614D01*
X4084940Y3404940D01*
X4088825Y3402344D01*
Y1615147D01*
X4093482Y1591736D01*
X4106743Y1571890D01*
X4141890Y1536743D01*
X4161737Y1523481D01*
X4185148Y1518825D01*
X4210000D01*
Y1489756D01*
X4200183Y1481699D01*
X4190001Y1483725D01*
X4165614Y1478874D01*
X4144940Y1465060D01*
X4131127Y1444386D01*
X4126276Y1420000D01*
X4131127Y1395614D01*
X4144940Y1374940D01*
X4165614Y1361126D01*
X4190001Y1356276D01*
X4200183Y1358301D01*
X4210000Y1350244D01*
Y25488D01*
X1036991D01*
X1031804Y37081D01*
X1052060Y59747D01*
X1097881Y124327D01*
X1136184Y193630D01*
X1166486Y266786D01*
X1188407Y342876D01*
X1201671Y420941D01*
X1206111Y500000D01*
X1203245Y551031D01*
X1206746Y552201D01*
X1215777Y554381D01*
X1235614Y541126D01*
X1260001Y536276D01*
X1284387Y541126D01*
X1305061Y554940D01*
X1318874Y575614D01*
X1323725Y600000D01*
X1318874Y624386D01*
X1305061Y645060D01*
X1284387Y658874D01*
X1260001Y663725D01*
X1235614Y658874D01*
X1214940Y645060D01*
X1205691Y631217D01*
X1192324Y634072D01*
X1188407Y657124D01*
X1166486Y733214D01*
X1136184Y806370D01*
X1097881Y875673D01*
X1052060Y940253D01*
X999296Y999296D01*
X940253Y1052060D01*
X875673Y1097881D01*
X806370Y1136184D01*
X733214Y1166486D01*
X657124Y1188407D01*
X579059Y1201671D01*
X500000Y1206111D01*
X499377Y1206076D01*
X493097Y1218443D01*
X510389Y1239514D01*
X525965Y1268654D01*
X533096Y1269761D01*
X539722Y1268630D01*
X541386Y1264612D01*
X555812Y1245811D01*
X574613Y1231385D01*
X596506Y1222317D01*
X620001Y1219224D01*
X643496Y1222317D01*
X665389Y1231385D01*
X684189Y1245811D01*
X691997Y1255986D01*
X708005D01*
X715812Y1245811D01*
X734613Y1231385D01*
X756506Y1222317D01*
X780001Y1219224D01*
X803495Y1222317D01*
X825389Y1231385D01*
X844189Y1245811D01*
X851997Y1255986D01*
X868005D01*
X875812Y1245811D01*
X894612Y1231385D01*
X916506Y1222317D01*
X940001Y1219224D01*
X963495Y1222317D01*
X985389Y1231385D01*
X1004189Y1245811D01*
X1018615Y1264612D01*
X1020280Y1268630D01*
X1026906Y1269761D01*
X1034036Y1268654D01*
X1049612Y1239514D01*
X1072106Y1212105D01*
X1099514Y1189612D01*
X1130784Y1172897D01*
X1164714Y1162605D01*
X1200001Y1159129D01*
X1235287Y1162605D01*
X1269217Y1172897D01*
X1300487Y1189612D01*
X1327896Y1212105D01*
X1350389Y1239514D01*
X1367103Y1270784D01*
X1377396Y1304714D01*
X1380872Y1340000D01*
Y1440000D01*
X1377396Y1475286D01*
X1367103Y1509216D01*
X1350389Y1540486D01*
X1327896Y1567895D01*
X1300487Y1590388D01*
X1269217Y1607103D01*
X1235287Y1617395D01*
X1200001Y1620871D01*
X1164714Y1617395D01*
X1130784Y1607103D01*
X1099514Y1590388D01*
X1072106Y1567895D01*
X1049612Y1540486D01*
X1032898Y1509216D01*
X1022605Y1475286D01*
X1019130Y1440000D01*
Y1375580D01*
X1006430Y1371269D01*
X1004189Y1374189D01*
X985389Y1388614D01*
X963495Y1397683D01*
X940001Y1400776D01*
X916506Y1397683D01*
X894612Y1388614D01*
X875812Y1374189D01*
X868005Y1364014D01*
X851997D01*
X844189Y1374189D01*
X825389Y1388614D01*
X803495Y1397683D01*
X780001Y1400776D01*
X756506Y1397683D01*
X734613Y1388614D01*
X715812Y1374189D01*
X708005Y1364014D01*
X691997D01*
X684189Y1374189D01*
X665389Y1388614D01*
X643496Y1397683D01*
X620001Y1400776D01*
X596506Y1397683D01*
X574613Y1388614D01*
X555812Y1374189D01*
X553572Y1371269D01*
X540872Y1375580D01*
Y1440000D01*
X537396Y1475286D01*
X527104Y1509216D01*
X510389Y1540486D01*
X487896Y1567895D01*
X460487Y1590388D01*
X429217Y1607103D01*
X395287Y1617395D01*
X360001Y1620871D01*
X324715Y1617395D01*
X290785Y1607103D01*
X259514Y1590388D01*
X232106Y1567895D01*
X209612Y1540486D01*
X192898Y1509216D01*
X182605Y1475286D01*
X179130Y1440000D01*
Y1340000D01*
X182605Y1304714D01*
X192898Y1270784D01*
X209612Y1239514D01*
X232106Y1212105D01*
X259514Y1189612D01*
X275287Y1181181D01*
X273954Y1168551D01*
X266786Y1166486D01*
X193630Y1136184D01*
X124327Y1097881D01*
X59747Y1052060D01*
X37081Y1031804D01*
X25488Y1036991D01*
Y5963009D01*
X37081Y5968196D01*
X59747Y5947940D01*
D02*
G37*
G36*
X7922353Y6504392D02*
X7910748Y6482680D01*
X7902171Y6454405D01*
X7899275Y6425000D01*
X7902171Y6395595D01*
X7910748Y6367320D01*
X7924677Y6341261D01*
X7930672Y6333956D01*
X8035858Y6439142D01*
X8050000Y6425000D01*
X8064143Y6439142D01*
X8169329Y6333956D01*
X8175324Y6341261D01*
X8189253Y6367320D01*
X8192653Y6378530D01*
X8205675Y6377707D01*
X8211593Y6342876D01*
X8233514Y6266786D01*
X8263817Y6193630D01*
X8302120Y6124327D01*
X8347941Y6059747D01*
X8400705Y6000704D01*
X8459748Y5947940D01*
X8500001Y5919380D01*
Y5450000D01*
X8510349Y5439651D01*
X8508078Y5405000D01*
X8511765Y5348753D01*
X8522761Y5293469D01*
X8540880Y5240093D01*
X8565811Y5189539D01*
X8597127Y5142671D01*
X8634293Y5100292D01*
X8676672Y5063126D01*
X8723539Y5031810D01*
X8774094Y5006880D01*
X8827470Y4988761D01*
X8882754Y4977764D01*
X8900000Y4976634D01*
X8900000Y3900000D01*
X8767525Y3767524D01*
X8757212Y3775173D01*
X8772671Y3804093D01*
X8784107Y3841793D01*
X8787968Y3881000D01*
X8784107Y3920207D01*
X8772671Y3957907D01*
X8754099Y3992652D01*
X8741856Y4007570D01*
X8601143Y3866858D01*
X8460430Y3726145D01*
X8475349Y3713902D01*
X8478309Y3712320D01*
X8475223Y3700000D01*
X7936778Y3700000D01*
X7933692Y3712319D01*
X7936652Y3713902D01*
X7951571Y3726145D01*
X7810859Y3866858D01*
X7670146Y4007571D01*
X7657902Y3992652D01*
X7639331Y3957907D01*
X7627895Y3920207D01*
X7624033Y3881000D01*
X7627895Y3841793D01*
X7639331Y3804093D01*
X7639863Y3803098D01*
X7629550Y3795450D01*
X7400000Y4025000D01*
X7400000Y6000000D01*
X7912041Y6512040D01*
X7922353Y6504392D01*
D02*
G37*
G36*
X8672550Y2552451D02*
X8664902Y2542138D01*
X8663907Y2542670D01*
X8626208Y2554106D01*
X8587001Y2557968D01*
X8547794Y2554106D01*
X8510094Y2542670D01*
X8475349Y2524099D01*
X8460430Y2511855D01*
X8601143Y2371142D01*
X8741856Y2230430D01*
X8754099Y2245349D01*
X8762300Y2260692D01*
X8775000Y2257511D01*
Y1993428D01*
X8774094Y1993120D01*
X8723539Y1968190D01*
X8676672Y1936874D01*
X8634293Y1899708D01*
X8597127Y1857329D01*
X8565811Y1810461D01*
X8540880Y1759907D01*
X8522761Y1706531D01*
X8511765Y1651247D01*
X8508078Y1595000D01*
X8511765Y1538753D01*
X8522761Y1483469D01*
X8540880Y1430093D01*
X8565811Y1379539D01*
X8597127Y1332671D01*
X8634293Y1290292D01*
X8676672Y1253126D01*
X8723539Y1221810D01*
X8759444Y1204104D01*
X8757516Y1190894D01*
X8742876Y1188407D01*
X8666787Y1166486D01*
X8593631Y1136184D01*
X8524327Y1097881D01*
X8459748Y1052060D01*
X8400705Y999296D01*
X8347941Y940253D01*
X8302120Y875673D01*
X8263817Y806370D01*
X8233514Y733214D01*
X8211593Y657124D01*
X8198330Y579059D01*
X8193890Y500000D01*
X8198330Y420941D01*
X8211593Y342876D01*
X8233514Y266786D01*
X8263817Y193630D01*
X8302120Y124327D01*
X8347941Y59747D01*
X8368197Y37081D01*
X8363009Y25488D01*
X5900000D01*
Y1575000D01*
X6095001Y1770001D01*
X6282904Y1770001D01*
X6638952Y1413952D01*
X6655491Y1402901D01*
X6675000Y1399021D01*
X7175000D01*
X7194510Y1402901D01*
X7211048Y1413952D01*
X7311048Y1513952D01*
X7322099Y1530491D01*
X7325980Y1550000D01*
Y2600863D01*
X8624138Y2600863D01*
X8672550Y2552451D01*
D02*
G37*
G36*
X7275000Y4675000D02*
Y1550000D01*
X7175000Y1450000D01*
X6675000D01*
X5874999Y2250000D01*
Y2522248D01*
X5887700Y2523081D01*
X5889624Y2508463D01*
X5897937Y2488394D01*
X5911161Y2471160D01*
X5928395Y2457936D01*
X5948464Y2449623D01*
X5970001Y2446788D01*
X5991537Y2449623D01*
X6011606Y2457936D01*
X6028840Y2471160D01*
X6042064Y2488394D01*
X6050377Y2508463D01*
X6053212Y2530000D01*
X6050377Y2551537D01*
X6042064Y2571606D01*
X6028840Y2588840D01*
X6011606Y2602064D01*
X5991537Y2610377D01*
X5970001Y2613212D01*
X5948464Y2610377D01*
X5928395Y2602064D01*
X5911161Y2588840D01*
X5897937Y2571606D01*
X5889624Y2551537D01*
X5887700Y2536920D01*
X5874999Y2537752D01*
X5875000Y3871058D01*
X5891606Y3877937D01*
X5908840Y3891161D01*
X5922064Y3908394D01*
X5930377Y3928463D01*
X5933212Y3950000D01*
X5930377Y3971537D01*
X5922064Y3991606D01*
X5915623Y4000000D01*
X5922064Y4008394D01*
X5930377Y4028463D01*
X5933212Y4050000D01*
X5930377Y4071537D01*
X5922064Y4091606D01*
X5915623Y4100000D01*
X5922064Y4108394D01*
X5930377Y4128463D01*
X5933212Y4150000D01*
X5930377Y4171537D01*
X5922064Y4191606D01*
X5915623Y4200000D01*
X5922064Y4208394D01*
X5930377Y4228463D01*
X5933212Y4250000D01*
X5930377Y4271537D01*
X5922064Y4291606D01*
X5908840Y4308840D01*
X5891606Y4322064D01*
X5875000Y4328942D01*
Y4575000D01*
X6150000Y4850000D01*
X7100000D01*
X7275000Y4675000D01*
D02*
G37*
G36*
X9271473Y2901563D02*
X9271196D01*
X9270085D01*
X9268419D01*
X9266198Y2901840D01*
X9263700Y2902118D01*
X9260924Y2902673D01*
X9258147Y2903228D01*
X9255094Y2904339D01*
X9254816D01*
X9254538Y2904616D01*
X9252873Y2905172D01*
X9250374Y2906282D01*
X9247042Y2907948D01*
X9243156Y2910169D01*
X9238714Y2912945D01*
X9234272Y2915999D01*
X9229552Y2919886D01*
X9229275D01*
X9228997Y2920441D01*
X9227331Y2921829D01*
X9224833Y2924328D01*
X9221224Y2927937D01*
X9217059Y2932101D01*
X9212062Y2937376D01*
X9206510Y2943761D01*
X9200680Y2950702D01*
X9200402Y2950979D01*
X9199569Y2952090D01*
X9198181Y2953756D01*
X9196515Y2955699D01*
X9194294Y2958198D01*
X9191796Y2961251D01*
X9189019Y2964305D01*
X9185966Y2967914D01*
X9179303Y2974855D01*
X9172640Y2981795D01*
X9169308Y2985127D01*
X9165977Y2988181D01*
X9162923Y2990957D01*
X9159869Y2993178D01*
X9159592D01*
X9159314Y2993733D01*
X9158481Y2994288D01*
X9157371Y2994844D01*
X9154317Y2996787D01*
X9150708Y2999008D01*
X9146266Y3000951D01*
X9141546Y3002895D01*
X9136271Y3004005D01*
X9131274Y3004560D01*
X9130996D01*
X9130719D01*
X9129053Y3004283D01*
X9126277Y3004005D01*
X9123223Y3003172D01*
X9119336Y3002062D01*
X9115450Y3000118D01*
X9111563Y2997620D01*
X9107676Y2994288D01*
X9107121Y2993733D01*
X9106010Y2992345D01*
X9104622Y2990402D01*
X9102679Y2987348D01*
X9101013Y2983461D01*
X9099348Y2979019D01*
X9098237Y2973744D01*
X9097959Y2967914D01*
Y2966249D01*
X9098237Y2965138D01*
X9098515Y2961807D01*
X9099348Y2957920D01*
X9100458Y2953756D01*
X9102401Y2949036D01*
X9104900Y2944594D01*
X9108231Y2940430D01*
X9108787Y2939874D01*
X9110175Y2938764D01*
X9112396Y2937098D01*
X9115727Y2935433D01*
X9119614Y2933489D01*
X9124611Y2931823D01*
X9130164Y2930713D01*
X9136549Y2930158D01*
X9134050Y2906005D01*
X9133773D01*
X9132940Y2906282D01*
X9131552D01*
X9129608Y2906560D01*
X9127387Y2907115D01*
X9124889Y2907670D01*
X9121835Y2908503D01*
X9118781Y2909336D01*
X9112118Y2911557D01*
X9105455Y2914889D01*
X9102124Y2916832D01*
X9098792Y2919330D01*
X9095738Y2921829D01*
X9092962Y2924605D01*
X9092685Y2924883D01*
X9092407Y2925438D01*
X9091574Y2926271D01*
X9090741Y2927659D01*
X9089631Y2929325D01*
X9088520Y2931268D01*
X9087132Y2933489D01*
X9085744Y2936265D01*
X9084356Y2939319D01*
X9082968Y2942651D01*
X9081857Y2946260D01*
X9080747Y2950146D01*
X9079914Y2954311D01*
X9079081Y2958753D01*
X9078804Y2963472D01*
X9078526Y2968470D01*
Y2971246D01*
X9078804Y2973189D01*
X9079081Y2975410D01*
X9079359Y2978186D01*
X9079914Y2981240D01*
X9080469Y2984294D01*
X9082413Y2991512D01*
X9085189Y2998730D01*
X9086855Y3002339D01*
X9088798Y3005949D01*
X9091297Y3009280D01*
X9094073Y3012334D01*
X9094350Y3012611D01*
X9094628Y3013167D01*
X9095738Y3013722D01*
X9096849Y3014832D01*
X9098237Y3016221D01*
X9100180Y3017609D01*
X9102124Y3018997D01*
X9104622Y3020662D01*
X9109897Y3023439D01*
X9116560Y3026215D01*
X9119892Y3027325D01*
X9123778Y3027881D01*
X9127665Y3028436D01*
X9131829Y3028714D01*
X9132385D01*
X9133773D01*
X9135994Y3028436D01*
X9139048Y3028158D01*
X9142379Y3027603D01*
X9146266Y3026493D01*
X9150430Y3025382D01*
X9154594Y3023716D01*
X9155150Y3023439D01*
X9156538Y3022883D01*
X9158759Y3021773D01*
X9161813Y3020107D01*
X9165144Y3017886D01*
X9169308Y3015110D01*
X9173473Y3011779D01*
X9178192Y3007892D01*
X9178747Y3007337D01*
X9180413Y3005949D01*
X9181801Y3004560D01*
X9183189Y3003172D01*
X9184855Y3001507D01*
X9187076Y2999286D01*
X9189297Y2997065D01*
X9191796Y2994288D01*
X9194572Y2991512D01*
X9197626Y2988181D01*
X9200680Y2984572D01*
X9204289Y2980685D01*
X9207898Y2976243D01*
X9211784Y2971801D01*
X9212062Y2971523D01*
X9212617Y2970968D01*
X9213450Y2969858D01*
X9214561Y2968470D01*
X9216226Y2966804D01*
X9217892Y2964860D01*
X9221501Y2960419D01*
X9225666Y2955699D01*
X9229830Y2951257D01*
X9233439Y2947370D01*
X9234827Y2945705D01*
X9236215Y2944316D01*
X9236493Y2944039D01*
X9237326Y2943206D01*
X9238436Y2942095D01*
X9240102Y2940707D01*
X9242045Y2939319D01*
X9243989Y2937654D01*
X9248708Y2934322D01*
Y3028991D01*
X9271473D01*
Y2901563D01*
D02*
G37*
%LPC*%
G36*
X200000Y5731122D02*
X166064Y5726654D01*
X134439Y5713555D01*
X107283Y5692717D01*
X86446Y5665561D01*
X73347Y5633937D01*
X68879Y5600000D01*
X73347Y5566064D01*
X86446Y5534439D01*
X107283Y5507283D01*
X134439Y5486445D01*
X166064Y5473346D01*
X200000Y5468879D01*
X233937Y5473346D01*
X265561Y5486445D01*
X292717Y5507283D01*
X313555Y5534439D01*
X326654Y5566064D01*
X331122Y5600000D01*
X326654Y5633937D01*
X313555Y5665561D01*
X292717Y5692717D01*
X265561Y5713555D01*
X233937Y5726654D01*
X200000Y5731122D01*
D02*
G37*
G36*
Y5393725D02*
X175614Y5388874D01*
X154940Y5375060D01*
X141126Y5354386D01*
X136276Y5330000D01*
X141126Y5305614D01*
X154940Y5284940D01*
X175614Y5271126D01*
X200000Y5266275D01*
X224387Y5271126D01*
X245060Y5284940D01*
X258874Y5305614D01*
X263725Y5330000D01*
X258874Y5354386D01*
X245060Y5375060D01*
X224387Y5388874D01*
X200000Y5393725D01*
D02*
G37*
G36*
Y5031122D02*
X166064Y5026654D01*
X134439Y5013555D01*
X107283Y4992717D01*
X86446Y4965561D01*
X73347Y4933937D01*
X68879Y4900000D01*
X73347Y4866063D01*
X86446Y4834439D01*
X107283Y4807283D01*
X134439Y4786445D01*
X166064Y4773346D01*
X200000Y4768878D01*
X233937Y4773346D01*
X265561Y4786445D01*
X292717Y4807283D01*
X313555Y4834439D01*
X326654Y4866063D01*
X331122Y4900000D01*
X326654Y4933937D01*
X313555Y4965561D01*
X292717Y4992717D01*
X265561Y5013555D01*
X233937Y5026654D01*
X200000Y5031122D01*
D02*
G37*
G36*
Y4703725D02*
X175614Y4698874D01*
X154940Y4685060D01*
X141126Y4664386D01*
X136276Y4640000D01*
X141126Y4615614D01*
X154940Y4594940D01*
X175614Y4581126D01*
X200000Y4576276D01*
X224387Y4581126D01*
X245060Y4594940D01*
X258874Y4615614D01*
X263725Y4640000D01*
X258874Y4664386D01*
X245060Y4685060D01*
X224387Y4698874D01*
X200000Y4703725D01*
D02*
G37*
G36*
X910000Y4383725D02*
X885614Y4378874D01*
X864940Y4365060D01*
X851127Y4344386D01*
X846276Y4320000D01*
X851127Y4295614D01*
X864940Y4274940D01*
X885614Y4261126D01*
X910000Y4256275D01*
X934387Y4261126D01*
X955061Y4274940D01*
X968874Y4295614D01*
X973725Y4320000D01*
X968874Y4344386D01*
X955061Y4365060D01*
X934387Y4378874D01*
X910000Y4383725D01*
D02*
G37*
G36*
X200000Y4331122D02*
X166064Y4326654D01*
X134440Y4313555D01*
X107283Y4292717D01*
X86446Y4265561D01*
X73347Y4233937D01*
X68879Y4200000D01*
X73347Y4166064D01*
X86446Y4134440D01*
X107283Y4107283D01*
X134440Y4086445D01*
X166064Y4073346D01*
X200000Y4068879D01*
X233937Y4073346D01*
X265561Y4086445D01*
X292717Y4107283D01*
X313555Y4134440D01*
X326654Y4166064D01*
X331122Y4200000D01*
X326654Y4233937D01*
X313555Y4265561D01*
X292717Y4292717D01*
X265561Y4313555D01*
X233937Y4326654D01*
X200000Y4331122D01*
D02*
G37*
G36*
X1380000Y4153725D02*
X1355614Y4148874D01*
X1334940Y4135060D01*
X1321126Y4114386D01*
X1316276Y4090000D01*
X1321126Y4065614D01*
X1334940Y4044940D01*
X1355614Y4031126D01*
X1380000Y4026276D01*
X1404387Y4031126D01*
X1425060Y4044940D01*
X1438874Y4065614D01*
X1443725Y4090000D01*
X1438874Y4114386D01*
X1425060Y4135060D01*
X1404387Y4148874D01*
X1380000Y4153725D01*
D02*
G37*
G36*
X2240000Y4123725D02*
X2215614Y4118874D01*
X2194940Y4105060D01*
X2181126Y4084386D01*
X2176275Y4060000D01*
X2181126Y4035614D01*
X2194940Y4014940D01*
X2215614Y4001126D01*
X2240000Y3996275D01*
X2264386Y4001126D01*
X2285060Y4014940D01*
X2298874Y4035614D01*
X2303724Y4060000D01*
X2298874Y4084386D01*
X2285060Y4105060D01*
X2264386Y4118874D01*
X2240000Y4123725D01*
D02*
G37*
G36*
X1690000D02*
X1665614Y4118874D01*
X1644940Y4105060D01*
X1631126Y4084386D01*
X1626275Y4060000D01*
X1631126Y4035614D01*
X1644940Y4014940D01*
X1665614Y4001126D01*
X1690000Y3996275D01*
X1714386Y4001126D01*
X1735060Y4014940D01*
X1748874Y4035614D01*
X1753724Y4060000D01*
X1748874Y4084386D01*
X1735060Y4105060D01*
X1714386Y4118874D01*
X1690000Y4123725D01*
D02*
G37*
G36*
X200000Y4003725D02*
X175614Y3998874D01*
X154940Y3985060D01*
X141126Y3964386D01*
X136276Y3940000D01*
X141126Y3915614D01*
X154940Y3894940D01*
X175614Y3881126D01*
X200000Y3876275D01*
X224387Y3881126D01*
X245060Y3894940D01*
X258874Y3915614D01*
X263725Y3940000D01*
X258874Y3964386D01*
X245060Y3985060D01*
X224387Y3998874D01*
X200000Y4003725D01*
D02*
G37*
G36*
X3410000Y3980588D02*
X3409999Y3980588D01*
X3170001D01*
X3158295Y3978260D01*
X3148372Y3971629D01*
X2758372Y3581629D01*
X2751741Y3571706D01*
X2749413Y3560000D01*
X2749413Y3559999D01*
Y3236440D01*
X2736713Y3232588D01*
X2735061Y3235060D01*
X2714387Y3248874D01*
X2690000Y3253725D01*
X2665614Y3248874D01*
X2644940Y3235060D01*
X2631127Y3214387D01*
X2626276Y3190000D01*
X2631127Y3165614D01*
X2644940Y3144940D01*
X2665614Y3131126D01*
X2690000Y3126276D01*
X2714387Y3131126D01*
X2735061Y3144940D01*
X2736713Y3147413D01*
X2749413Y3143560D01*
Y2921474D01*
X2736713Y2917622D01*
X2725061Y2935060D01*
X2704387Y2948874D01*
X2680000Y2953725D01*
X2655614Y2948874D01*
X2634940Y2935060D01*
X2621127Y2914386D01*
X2616276Y2890000D01*
X2621127Y2865614D01*
X2634940Y2844940D01*
X2655614Y2831126D01*
X2680000Y2826276D01*
X2704387Y2831126D01*
X2725061Y2844940D01*
X2736713Y2862379D01*
X2749413Y2858526D01*
Y2701621D01*
X2735602Y2698874D01*
X2714928Y2685061D01*
X2701114Y2664387D01*
X2696264Y2640001D01*
X2701114Y2615614D01*
X2714928Y2594940D01*
X2735602Y2581127D01*
X2757140Y2576843D01*
X2760016Y2576227D01*
X2766679Y2564658D01*
X2763764Y2550000D01*
X2768614Y2525614D01*
X2782428Y2504940D01*
X2794940Y2496580D01*
Y2495060D01*
X2781126Y2474386D01*
X2776276Y2450000D01*
X2780198Y2430283D01*
X2773114Y2428874D01*
X2752440Y2415060D01*
X2738626Y2394386D01*
X2733776Y2370000D01*
X2738626Y2345614D01*
X2752440Y2324940D01*
X2753025Y2314166D01*
X2752584Y2312714D01*
X2751741Y2311452D01*
X2750865Y2307047D01*
X2749560Y2302745D01*
X2749709Y2301234D01*
X2749413Y2299747D01*
Y2005561D01*
X2751741Y1993856D01*
X2758372Y1983932D01*
X2768295Y1977302D01*
X2780001Y1974973D01*
X2845495D01*
X2856484Y1973526D01*
X2864855Y1970059D01*
X2872043Y1964543D01*
X2877559Y1957355D01*
X2881026Y1948984D01*
X2882209Y1940000D01*
X2881026Y1931017D01*
X2877559Y1922645D01*
X2872044Y1915458D01*
X2864855Y1909941D01*
X2856484Y1906474D01*
X2845495Y1905027D01*
X2780001D01*
X2768295Y1902699D01*
X2758372Y1896068D01*
X2751741Y1886145D01*
X2749413Y1874439D01*
Y1451463D01*
X2739989Y1443729D01*
X2715603Y1438878D01*
X2694929Y1425064D01*
X2681115Y1404391D01*
X2676264Y1380004D01*
X2681115Y1355618D01*
X2687338Y1346305D01*
X2678181Y1337149D01*
X2664375Y1346374D01*
X2639989Y1351225D01*
X2615603Y1346374D01*
X2594929Y1332560D01*
X2581115Y1311886D01*
X2576265Y1287500D01*
X2581115Y1263114D01*
X2594929Y1242440D01*
X2615603Y1228626D01*
X2639989Y1223776D01*
X2664375Y1228626D01*
X2685049Y1242440D01*
X2698863Y1263114D01*
X2703714Y1287500D01*
X2698863Y1311886D01*
X2692641Y1321199D01*
X2701797Y1330355D01*
X2715603Y1321130D01*
X2729465Y1318373D01*
X2731115Y1314391D01*
X2726264Y1290005D01*
X2731115Y1265618D01*
X2744929Y1244944D01*
X2750711Y1241081D01*
X2755615Y1229211D01*
X2754794Y1225753D01*
X2753430Y1222470D01*
X2753428Y1220001D01*
X2752857Y1217600D01*
X2752506Y1208053D01*
X2752596Y1207490D01*
X2752485Y1206928D01*
X2753543Y1201610D01*
X2754402Y1196270D01*
X2754702Y1195783D01*
X2754813Y1195222D01*
X2757822Y1190720D01*
X2760663Y1186109D01*
X2761126Y1185774D01*
X2761444Y1185299D01*
X2959826Y986917D01*
X2964940Y975060D01*
X2960706Y968723D01*
X2951127Y954386D01*
X2946276Y930000D01*
X2951127Y905614D01*
X2964940Y884940D01*
X2985614Y871126D01*
X3010001Y866276D01*
X3034387Y871126D01*
X3055061Y884940D01*
X3068874Y905614D01*
X3073725Y930000D01*
X3068874Y954386D01*
X3066318Y958212D01*
X3072305Y969412D01*
X3229999D01*
X3230000Y969412D01*
X3241706Y971741D01*
X3251629Y978371D01*
X3301629Y1028371D01*
X3308260Y1038295D01*
X3310588Y1050000D01*
X3310588Y1050001D01*
Y1838564D01*
X3319988Y1846279D01*
X3344374Y1851129D01*
X3365048Y1864943D01*
X3378862Y1885617D01*
X3383712Y1910003D01*
X3378862Y1934390D01*
X3365048Y1955063D01*
X3344374Y1968877D01*
X3342653Y1969220D01*
X3340175Y1981675D01*
X3345061Y1984940D01*
X3358874Y2005614D01*
X3363725Y2030000D01*
X3358874Y2054386D01*
X3345061Y2075060D01*
X3324387Y2088874D01*
X3318825Y2089980D01*
X3318616Y2090504D01*
X3317484Y2103196D01*
X3335061Y2114940D01*
X3348874Y2135614D01*
X3353725Y2160000D01*
X3348874Y2184386D01*
X3335061Y2205060D01*
X3314387Y2218874D01*
X3290773Y2223571D01*
X3282437Y2233524D01*
X3283725Y2240000D01*
X3280962Y2253889D01*
X3288880Y2256291D01*
X3290217Y2257006D01*
X3291706Y2257302D01*
X3295443Y2259799D01*
X3299405Y2261917D01*
X3300367Y2263089D01*
X3301629Y2263932D01*
X3304126Y2267669D01*
X3306976Y2271142D01*
X3307417Y2272595D01*
X3308260Y2273856D01*
X3309136Y2278262D01*
X3310441Y2282563D01*
X3310292Y2284073D01*
X3310588Y2285561D01*
X3310588Y2344439D01*
X3310292Y2345927D01*
X3310440Y2347437D01*
X3309136Y2351737D01*
X3308259Y2356144D01*
X3307417Y2357405D01*
X3306976Y2358858D01*
X3304125Y2362332D01*
X3301629Y2366068D01*
X3300367Y2366911D01*
X3299405Y2368083D01*
X3295442Y2370202D01*
X3291705Y2372698D01*
X3290218Y2372994D01*
X3288880Y2373710D01*
X3280962Y2376111D01*
X3283725Y2390000D01*
X3280962Y2403889D01*
X3288880Y2406291D01*
X3290218Y2407006D01*
X3291705Y2407302D01*
X3295442Y2409798D01*
X3299405Y2411917D01*
X3300367Y2413089D01*
X3301629Y2413932D01*
X3304125Y2417669D01*
X3306976Y2421142D01*
X3307417Y2422595D01*
X3308259Y2423856D01*
X3309136Y2428262D01*
X3310440Y2432563D01*
X3310292Y2434073D01*
X3310588Y2435561D01*
Y2494440D01*
X3310292Y2495928D01*
X3310440Y2497438D01*
X3309136Y2501739D01*
X3308259Y2506145D01*
X3307417Y2507406D01*
X3306976Y2508859D01*
X3304125Y2512332D01*
X3301629Y2516068D01*
X3300367Y2516912D01*
X3299404Y2518084D01*
X3295442Y2520202D01*
X3291705Y2522699D01*
X3290218Y2522995D01*
X3288879Y2523710D01*
X3280962Y2526112D01*
X3283725Y2540000D01*
X3280962Y2553888D01*
X3288879Y2556290D01*
X3290218Y2557005D01*
X3291705Y2557301D01*
X3295442Y2559798D01*
X3299404Y2561916D01*
X3300367Y2563088D01*
X3301629Y2563932D01*
X3304125Y2567668D01*
X3306976Y2571141D01*
X3307417Y2572594D01*
X3308259Y2573855D01*
X3309136Y2578261D01*
X3310440Y2582562D01*
X3310292Y2584072D01*
X3310588Y2585560D01*
Y2858526D01*
X3323288Y2862379D01*
X3334940Y2844940D01*
X3355614Y2831126D01*
X3380000Y2826276D01*
X3404387Y2831126D01*
X3425060Y2844940D01*
X3438874Y2865614D01*
X3443725Y2890000D01*
X3438874Y2914386D01*
X3425060Y2935060D01*
X3404387Y2948874D01*
X3380000Y2953725D01*
X3355614Y2948874D01*
X3334940Y2935060D01*
X3323288Y2917621D01*
X3310588Y2921474D01*
Y3527330D01*
X3461629Y3678371D01*
X3468260Y3688295D01*
X3470588Y3700000D01*
X3470588Y3700001D01*
Y3733560D01*
X3483288Y3737413D01*
X3484940Y3734940D01*
X3505614Y3721126D01*
X3530000Y3716276D01*
X3554387Y3721126D01*
X3575060Y3734940D01*
X3588874Y3755614D01*
X3593725Y3780000D01*
X3588874Y3804386D01*
X3575060Y3825060D01*
X3554387Y3838874D01*
X3530000Y3843725D01*
X3505614Y3838874D01*
X3484940Y3825060D01*
X3483288Y3822588D01*
X3470588Y3826440D01*
Y3920000D01*
X3468260Y3931705D01*
X3461629Y3941629D01*
X3431629Y3971629D01*
X3421706Y3978260D01*
X3410000Y3980588D01*
D02*
G37*
G36*
X1630000Y3703725D02*
X1605614Y3698874D01*
X1584940Y3685060D01*
X1571126Y3664386D01*
X1566276Y3640000D01*
X1571126Y3615614D01*
X1584940Y3594940D01*
X1605614Y3581126D01*
X1630000Y3576276D01*
X1654387Y3581126D01*
X1675060Y3594940D01*
X1688874Y3615614D01*
X1693725Y3640000D01*
X1688874Y3664386D01*
X1675060Y3685060D01*
X1654387Y3698874D01*
X1630000Y3703725D01*
D02*
G37*
G36*
X200000Y3631122D02*
X166064Y3626654D01*
X134440Y3613555D01*
X107283Y3592717D01*
X86446Y3565561D01*
X73347Y3533937D01*
X68879Y3500000D01*
X73347Y3466063D01*
X86446Y3434439D01*
X107283Y3407283D01*
X134440Y3386445D01*
X166064Y3373346D01*
X200000Y3368878D01*
X233937Y3373346D01*
X265561Y3386445D01*
X292717Y3407283D01*
X313555Y3434439D01*
X326654Y3466063D01*
X331122Y3500000D01*
X326654Y3533937D01*
X313555Y3565561D01*
X292717Y3592717D01*
X265561Y3613555D01*
X233937Y3626654D01*
X200000Y3631122D01*
D02*
G37*
G36*
X2420000Y3473725D02*
X2395614Y3468874D01*
X2374940Y3455060D01*
X2361127Y3434386D01*
X2356276Y3410000D01*
X2361127Y3385614D01*
X2374940Y3364940D01*
X2395614Y3351126D01*
X2420000Y3346276D01*
X2444387Y3351126D01*
X2465061Y3364940D01*
X2478874Y3385614D01*
X2483725Y3410000D01*
X2478874Y3434386D01*
X2465061Y3455060D01*
X2444387Y3468874D01*
X2420000Y3473725D01*
D02*
G37*
G36*
X200000Y3303725D02*
X175614Y3298874D01*
X154940Y3285060D01*
X141126Y3264386D01*
X136276Y3240000D01*
X141126Y3215614D01*
X154940Y3194940D01*
X175614Y3181126D01*
X200000Y3176276D01*
X224387Y3181126D01*
X245060Y3194940D01*
X258874Y3215614D01*
X263725Y3240000D01*
X258874Y3264386D01*
X245060Y3285060D01*
X224387Y3298874D01*
X200000Y3303725D01*
D02*
G37*
G36*
X1780000Y3203725D02*
X1755614Y3198874D01*
X1734940Y3185060D01*
X1721126Y3164386D01*
X1716276Y3140000D01*
X1721126Y3115614D01*
X1734940Y3094940D01*
X1755614Y3081126D01*
X1780000Y3076276D01*
X1804387Y3081126D01*
X1825060Y3094940D01*
X1838874Y3115614D01*
X1843725Y3140000D01*
X1838874Y3164386D01*
X1825060Y3185060D01*
X1804387Y3198874D01*
X1780000Y3203725D01*
D02*
G37*
G36*
X1480000Y3093725D02*
X1455614Y3088874D01*
X1434940Y3075060D01*
X1421126Y3054386D01*
X1416276Y3030000D01*
X1421126Y3005614D01*
X1434940Y2984940D01*
X1455614Y2971126D01*
X1480000Y2966275D01*
X1504387Y2971126D01*
X1525060Y2984940D01*
X1538874Y3005614D01*
X1543725Y3030000D01*
X1538874Y3054386D01*
X1525060Y3075060D01*
X1504387Y3088874D01*
X1480000Y3093725D01*
D02*
G37*
G36*
X2299541Y3088725D02*
X2275155Y3083874D01*
X2254481Y3070060D01*
X2240667Y3049386D01*
X2235816Y3025000D01*
X2240667Y3000614D01*
X2254481Y2979940D01*
X2275155Y2966126D01*
X2299541Y2961276D01*
X2323927Y2966126D01*
X2344601Y2979940D01*
X2358415Y3000614D01*
X2363266Y3025000D01*
X2358415Y3049386D01*
X2344601Y3070060D01*
X2323927Y3083874D01*
X2299541Y3088725D01*
D02*
G37*
G36*
X900000Y3063725D02*
X875614Y3058874D01*
X854940Y3045060D01*
X841127Y3024386D01*
X836276Y3000000D01*
X841127Y2975614D01*
X854940Y2954940D01*
X875614Y2941126D01*
X900000Y2936276D01*
X924387Y2941126D01*
X945061Y2954940D01*
X958874Y2975614D01*
X963725Y3000000D01*
X958874Y3024386D01*
X945061Y3045060D01*
X924387Y3058874D01*
X900000Y3063725D01*
D02*
G37*
G36*
X2090000Y2993725D02*
X2065614Y2988874D01*
X2044940Y2975060D01*
X2031126Y2954387D01*
X2026276Y2930000D01*
X2031126Y2905614D01*
X2044940Y2884940D01*
X2065614Y2871126D01*
X2090000Y2866276D01*
X2114387Y2871126D01*
X2135060Y2884940D01*
X2148874Y2905614D01*
X2153725Y2930000D01*
X2148874Y2954387D01*
X2135060Y2975060D01*
X2114387Y2988874D01*
X2090000Y2993725D01*
D02*
G37*
G36*
X1030000D02*
X1005614Y2988874D01*
X984940Y2975060D01*
X971127Y2954387D01*
X966276Y2930000D01*
X971127Y2905614D01*
X984940Y2884940D01*
X1005614Y2871126D01*
X1030000Y2866276D01*
X1054387Y2871126D01*
X1075061Y2884940D01*
X1088874Y2905614D01*
X1093725Y2930000D01*
X1088874Y2954387D01*
X1075061Y2975060D01*
X1054387Y2988874D01*
X1030000Y2993725D01*
D02*
G37*
G36*
X900000Y2923725D02*
X875614Y2918874D01*
X854940Y2905060D01*
X841127Y2884386D01*
X836276Y2860000D01*
X841127Y2835614D01*
X854940Y2814940D01*
X875614Y2801126D01*
X900000Y2796276D01*
X924387Y2801126D01*
X945061Y2814940D01*
X958874Y2835614D01*
X963725Y2860000D01*
X958874Y2884386D01*
X945061Y2905060D01*
X924387Y2918874D01*
X900000Y2923725D01*
D02*
G37*
G36*
X1970000Y2893725D02*
X1945614Y2888874D01*
X1924940Y2875060D01*
X1911126Y2854386D01*
X1906276Y2830000D01*
X1911126Y2805614D01*
X1924940Y2784940D01*
X1945614Y2771126D01*
X1970000Y2766276D01*
X1994387Y2771126D01*
X2015060Y2784940D01*
X2028874Y2805614D01*
X2033725Y2830000D01*
X2028874Y2854386D01*
X2015060Y2875060D01*
X1994387Y2888874D01*
X1970000Y2893725D01*
D02*
G37*
G36*
X1810000D02*
X1785614Y2888874D01*
X1764940Y2875060D01*
X1751127Y2854386D01*
X1746276Y2830000D01*
X1751127Y2805614D01*
X1764940Y2784940D01*
X1785614Y2771126D01*
X1810000Y2766276D01*
X1834387Y2771126D01*
X1855061Y2784940D01*
X1868874Y2805614D01*
X1873725Y2830000D01*
X1868874Y2854386D01*
X1855061Y2875060D01*
X1834387Y2888874D01*
X1810000Y2893725D01*
D02*
G37*
G36*
X2369990Y2883726D02*
X2345603Y2878875D01*
X2324930Y2865062D01*
X2311116Y2844388D01*
X2306265Y2820001D01*
X2311116Y2795615D01*
X2324930Y2774941D01*
X2345603Y2761128D01*
X2369990Y2756277D01*
X2394376Y2761128D01*
X2415050Y2774941D01*
X2428864Y2795615D01*
X2433714Y2820001D01*
X2428864Y2844388D01*
X2415050Y2865062D01*
X2394376Y2878875D01*
X2369990Y2883726D01*
D02*
G37*
G36*
X1030000Y2853725D02*
X1005614Y2848874D01*
X984940Y2835060D01*
X971127Y2814386D01*
X966276Y2790000D01*
X971127Y2765614D01*
X984940Y2744940D01*
X1005614Y2731126D01*
X1030000Y2726275D01*
X1054387Y2731126D01*
X1075061Y2744940D01*
X1088874Y2765614D01*
X1093725Y2790000D01*
X1088874Y2814386D01*
X1075061Y2835060D01*
X1054387Y2848874D01*
X1030000Y2853725D01*
D02*
G37*
G36*
X200000Y2931122D02*
X166064Y2926654D01*
X134440Y2913555D01*
X107283Y2892717D01*
X86446Y2865561D01*
X73347Y2833937D01*
X68879Y2800000D01*
X73347Y2766063D01*
X86446Y2734439D01*
X107283Y2707283D01*
X134440Y2686445D01*
X166064Y2673346D01*
X200000Y2668878D01*
X233937Y2673346D01*
X265561Y2686445D01*
X292717Y2707283D01*
X313555Y2734439D01*
X326654Y2766063D01*
X331122Y2800000D01*
X326654Y2833937D01*
X313555Y2865561D01*
X292717Y2892717D01*
X265561Y2913555D01*
X233937Y2926654D01*
X200000Y2931122D01*
D02*
G37*
G36*
X3620000Y2793725D02*
X3595614Y2788874D01*
X3574940Y2775060D01*
X3561126Y2754386D01*
X3556276Y2730000D01*
X3561126Y2705614D01*
X3574940Y2684940D01*
X3595614Y2671126D01*
X3620000Y2666276D01*
X3644387Y2671126D01*
X3665060Y2684940D01*
X3678874Y2705614D01*
X3683725Y2730000D01*
X3678874Y2754386D01*
X3665060Y2775060D01*
X3644387Y2788874D01*
X3620000Y2793725D01*
D02*
G37*
G36*
X1800714Y2714987D02*
X1776328Y2710137D01*
X1755654Y2696323D01*
X1741840Y2675649D01*
X1736990Y2651263D01*
X1741840Y2626877D01*
X1755654Y2606203D01*
X1776328Y2592389D01*
X1800714Y2587538D01*
X1825100Y2592389D01*
X1845774Y2606203D01*
X1859588Y2626877D01*
X1864439Y2651263D01*
X1859588Y2675649D01*
X1845774Y2696323D01*
X1825100Y2710137D01*
X1800714Y2714987D01*
D02*
G37*
G36*
X640000Y2713725D02*
X615614Y2708874D01*
X594940Y2695060D01*
X581127Y2674386D01*
X576276Y2650000D01*
X581127Y2625614D01*
X594940Y2604940D01*
X615614Y2591126D01*
X640000Y2586275D01*
X664387Y2591126D01*
X685061Y2604940D01*
X698874Y2625614D01*
X703725Y2650000D01*
X698874Y2674386D01*
X685061Y2695060D01*
X664387Y2708874D01*
X640000Y2713725D01*
D02*
G37*
G36*
X1392960Y2831225D02*
X1368573Y2826374D01*
X1347900Y2812560D01*
X1334086Y2791886D01*
X1329235Y2767500D01*
X1334086Y2743114D01*
X1347900Y2722440D01*
X1368573Y2708626D01*
X1380789Y2706197D01*
X1381673Y2706020D01*
X1380000Y2693725D01*
X1378741Y2693474D01*
X1355614Y2688874D01*
X1334940Y2675060D01*
X1321126Y2654386D01*
X1316276Y2630000D01*
X1321126Y2605614D01*
X1334940Y2584940D01*
X1355614Y2571126D01*
X1380000Y2566276D01*
X1404387Y2571126D01*
X1425060Y2584940D01*
X1438874Y2605614D01*
X1443725Y2630000D01*
X1438874Y2654386D01*
X1425060Y2675060D01*
X1404387Y2688874D01*
X1392171Y2691304D01*
X1391287Y2691480D01*
X1392960Y2703775D01*
X1394219Y2704026D01*
X1417346Y2708626D01*
X1438020Y2722440D01*
X1451834Y2743114D01*
X1456684Y2767500D01*
X1451834Y2791886D01*
X1438020Y2812560D01*
X1417346Y2826374D01*
X1392960Y2831225D01*
D02*
G37*
G36*
X370001Y2643725D02*
X345614Y2638874D01*
X324940Y2625060D01*
X311127Y2604386D01*
X306276Y2580000D01*
X311127Y2555614D01*
X324940Y2534940D01*
X345614Y2521126D01*
X370001Y2516276D01*
X394387Y2521126D01*
X415061Y2534940D01*
X428874Y2555614D01*
X433725Y2580000D01*
X428874Y2604386D01*
X415061Y2625060D01*
X394387Y2638874D01*
X370001Y2643725D01*
D02*
G37*
G36*
X2415001Y2583725D02*
X2390614Y2578874D01*
X2369940Y2565060D01*
X2356127Y2544387D01*
X2351276Y2520000D01*
X2356127Y2495614D01*
X2369940Y2474940D01*
X2390614Y2461126D01*
X2415001Y2456276D01*
X2439387Y2461126D01*
X2460061Y2474940D01*
X2473874Y2495614D01*
X2478725Y2520000D01*
X2473874Y2544387D01*
X2460061Y2565060D01*
X2439387Y2578874D01*
X2415001Y2583725D01*
D02*
G37*
G36*
X2115001D02*
X2090614Y2578874D01*
X2069940Y2565060D01*
X2056127Y2544387D01*
X2051276Y2520000D01*
X2056127Y2495614D01*
X2069940Y2474940D01*
X2090614Y2461126D01*
X2115001Y2456276D01*
X2139387Y2461126D01*
X2160061Y2474940D01*
X2173874Y2495614D01*
X2178725Y2520000D01*
X2173874Y2544387D01*
X2160061Y2565060D01*
X2139387Y2578874D01*
X2115001Y2583725D01*
D02*
G37*
G36*
X1750000Y2573725D02*
X1725614Y2568874D01*
X1704940Y2555060D01*
X1691126Y2534386D01*
X1686276Y2510000D01*
X1691126Y2485614D01*
X1704940Y2464940D01*
X1725614Y2451126D01*
X1750000Y2446276D01*
X1774387Y2451126D01*
X1795060Y2464940D01*
X1808874Y2485614D01*
X1813725Y2510000D01*
X1808874Y2534386D01*
X1795060Y2555060D01*
X1774387Y2568874D01*
X1750000Y2573725D01*
D02*
G37*
G36*
X180000Y2503725D02*
X155614Y2498874D01*
X134940Y2485060D01*
X121127Y2464386D01*
X116276Y2440000D01*
X121127Y2415614D01*
X134940Y2394940D01*
X155614Y2381126D01*
X180000Y2376276D01*
X204387Y2381126D01*
X225061Y2394940D01*
X238874Y2415614D01*
X243725Y2440000D01*
X238874Y2464386D01*
X225061Y2485060D01*
X204387Y2498874D01*
X180000Y2503725D01*
D02*
G37*
G36*
X1160000Y2443725D02*
X1135614Y2438874D01*
X1114940Y2425060D01*
X1101127Y2404386D01*
X1096276Y2380000D01*
X1101127Y2355614D01*
X1114940Y2334940D01*
X1135614Y2321126D01*
X1160000Y2316276D01*
X1184387Y2321126D01*
X1205061Y2334940D01*
X1218874Y2355614D01*
X1223725Y2380000D01*
X1218874Y2404386D01*
X1205061Y2425060D01*
X1184387Y2438874D01*
X1160000Y2443725D01*
D02*
G37*
G36*
X900000Y2393725D02*
X875614Y2388874D01*
X854940Y2375060D01*
X841127Y2354386D01*
X836276Y2330000D01*
X841127Y2305614D01*
X854940Y2284940D01*
X875614Y2271126D01*
X900000Y2266276D01*
X924387Y2271126D01*
X945061Y2284940D01*
X958874Y2305614D01*
X963725Y2330000D01*
X958874Y2354386D01*
X945061Y2375060D01*
X924387Y2388874D01*
X900000Y2393725D01*
D02*
G37*
G36*
X180000Y2353725D02*
X155614Y2348874D01*
X134940Y2335060D01*
X121127Y2314386D01*
X116276Y2290000D01*
X121127Y2265614D01*
X134940Y2244940D01*
X155614Y2231126D01*
X180000Y2226275D01*
X204387Y2231126D01*
X225061Y2244940D01*
X238874Y2265614D01*
X243725Y2290000D01*
X238874Y2314386D01*
X225061Y2335060D01*
X204387Y2348874D01*
X180000Y2353725D01*
D02*
G37*
G36*
X1590000Y2333725D02*
X1565614Y2328874D01*
X1544940Y2315060D01*
X1531126Y2294386D01*
X1526276Y2270000D01*
X1531126Y2245614D01*
X1544940Y2224940D01*
X1565614Y2211126D01*
X1590000Y2206275D01*
X1614387Y2211126D01*
X1635060Y2224940D01*
X1648874Y2245614D01*
X1653725Y2270000D01*
X1648874Y2294386D01*
X1635060Y2315060D01*
X1614387Y2328874D01*
X1590000Y2333725D01*
D02*
G37*
G36*
X1430000Y2286225D02*
X1405614Y2281374D01*
X1384940Y2267560D01*
X1371127Y2246886D01*
X1366276Y2222500D01*
X1371127Y2198114D01*
X1384940Y2177440D01*
X1405614Y2163626D01*
X1430000Y2158775D01*
X1454387Y2163626D01*
X1475061Y2177440D01*
X1488874Y2198114D01*
X1493725Y2222500D01*
X1488874Y2246886D01*
X1475061Y2267560D01*
X1454387Y2281374D01*
X1430000Y2286225D01*
D02*
G37*
G36*
X2415001Y2283725D02*
X2390614Y2278874D01*
X2369940Y2265060D01*
X2356127Y2244387D01*
X2351276Y2220000D01*
X2356127Y2195614D01*
X2369940Y2174940D01*
X2390614Y2161126D01*
X2415001Y2156276D01*
X2439387Y2161126D01*
X2460061Y2174940D01*
X2473874Y2195614D01*
X2478725Y2220000D01*
X2473874Y2244387D01*
X2460061Y2265060D01*
X2439387Y2278874D01*
X2415001Y2283725D01*
D02*
G37*
G36*
X2115001D02*
X2090614Y2278874D01*
X2069940Y2265060D01*
X2056127Y2244387D01*
X2051276Y2220000D01*
X2056127Y2195614D01*
X2069940Y2174940D01*
X2090614Y2161126D01*
X2115001Y2156276D01*
X2139387Y2161126D01*
X2160061Y2174940D01*
X2173874Y2195614D01*
X2178725Y2220000D01*
X2173874Y2244387D01*
X2160061Y2265060D01*
X2139387Y2278874D01*
X2115001Y2283725D01*
D02*
G37*
G36*
X1160000Y2283725D02*
X1135614Y2278874D01*
X1114940Y2265060D01*
X1101127Y2244386D01*
X1096276Y2220000D01*
X1101127Y2195614D01*
X1114940Y2174940D01*
X1135614Y2161126D01*
X1160000Y2156276D01*
X1184387Y2161126D01*
X1205061Y2174940D01*
X1218874Y2195614D01*
X1223725Y2220000D01*
X1218874Y2244386D01*
X1205061Y2265060D01*
X1184387Y2278874D01*
X1160000Y2283725D01*
D02*
G37*
G36*
X800000Y2273725D02*
X775614Y2268874D01*
X754940Y2255060D01*
X741127Y2234386D01*
X736276Y2210000D01*
X741127Y2185614D01*
X754940Y2164940D01*
X775614Y2151126D01*
X800000Y2146276D01*
X824387Y2151126D01*
X845061Y2164940D01*
X858874Y2185614D01*
X863725Y2210000D01*
X858874Y2234386D01*
X845061Y2255060D01*
X824387Y2268874D01*
X800000Y2273725D01*
D02*
G37*
G36*
X550000Y2221225D02*
X525614Y2216374D01*
X504940Y2202560D01*
X491127Y2181886D01*
X486276Y2157500D01*
X491127Y2133114D01*
X504940Y2112440D01*
X525614Y2098626D01*
X550000Y2093776D01*
X574387Y2098626D01*
X595061Y2112440D01*
X608874Y2133114D01*
X613725Y2157500D01*
X608874Y2181886D01*
X595061Y2202560D01*
X574387Y2216374D01*
X550000Y2221225D01*
D02*
G37*
G36*
X180000Y2203725D02*
X155614Y2198874D01*
X134940Y2185060D01*
X121127Y2164386D01*
X116276Y2140000D01*
X121127Y2115614D01*
X134940Y2094940D01*
X155614Y2081126D01*
X180000Y2076276D01*
X204387Y2081126D01*
X225061Y2094940D01*
X238874Y2115614D01*
X243725Y2140000D01*
X238874Y2164386D01*
X225061Y2185060D01*
X204387Y2198874D01*
X180000Y2203725D01*
D02*
G37*
G36*
X1756021Y2142245D02*
X1731635Y2137395D01*
X1710961Y2123581D01*
X1697147Y2102907D01*
X1692296Y2078521D01*
X1697147Y2054134D01*
X1710961Y2033460D01*
X1731635Y2019647D01*
X1756021Y2014796D01*
X1780407Y2019647D01*
X1801081Y2033460D01*
X1814895Y2054134D01*
X1819745Y2078521D01*
X1814895Y2102907D01*
X1801081Y2123581D01*
X1780407Y2137395D01*
X1756021Y2142245D01*
D02*
G37*
G36*
X1360000Y2083725D02*
X1335614Y2078874D01*
X1314940Y2065060D01*
X1301126Y2044386D01*
X1296276Y2020000D01*
X1301126Y1995614D01*
X1302775Y1993147D01*
X1295719Y1982587D01*
X1290000Y1983725D01*
X1265614Y1978874D01*
X1244940Y1965060D01*
X1231127Y1944387D01*
X1226276Y1920000D01*
X1231127Y1895614D01*
X1244940Y1874940D01*
X1265614Y1861126D01*
X1290000Y1856276D01*
X1314387Y1861126D01*
X1335061Y1874940D01*
X1348874Y1895614D01*
X1353725Y1920000D01*
X1348874Y1944387D01*
X1347226Y1946853D01*
X1354282Y1957413D01*
X1360000Y1956275D01*
X1384387Y1961126D01*
X1405060Y1974940D01*
X1418874Y1995614D01*
X1423725Y2020000D01*
X1418874Y2044386D01*
X1405060Y2065060D01*
X1384387Y2078874D01*
X1360000Y2083725D01*
D02*
G37*
G36*
X180000Y2053725D02*
X155614Y2048874D01*
X134940Y2035060D01*
X121127Y2014386D01*
X116276Y1990000D01*
X121127Y1965614D01*
X134940Y1944940D01*
X155614Y1931126D01*
X180000Y1926276D01*
X204387Y1931126D01*
X225061Y1944940D01*
X238874Y1965614D01*
X243725Y1990000D01*
X238874Y2014386D01*
X225061Y2035060D01*
X204387Y2048874D01*
X180000Y2053725D01*
D02*
G37*
G36*
X1509991Y1973728D02*
X1485605Y1968877D01*
X1464931Y1955063D01*
X1451117Y1934390D01*
X1448424Y1920846D01*
X1427390Y1925030D01*
X1403004Y1920179D01*
X1382330Y1906365D01*
X1368516Y1885691D01*
X1363666Y1861305D01*
X1368516Y1836919D01*
X1382330Y1816245D01*
X1403004Y1802431D01*
X1427390Y1797581D01*
X1451776Y1802431D01*
X1472450Y1816245D01*
X1486264Y1836919D01*
X1488958Y1850462D01*
X1509991Y1846279D01*
X1534378Y1851129D01*
X1555051Y1864943D01*
X1568865Y1885617D01*
X1573716Y1910003D01*
X1568865Y1934390D01*
X1555051Y1955063D01*
X1534378Y1968877D01*
X1509991Y1973728D01*
D02*
G37*
G36*
X550000Y2043725D02*
X525614Y2038874D01*
X504940Y2025060D01*
X491127Y2004386D01*
X486276Y1980000D01*
X491127Y1955614D01*
X504940Y1934940D01*
X525614Y1921126D01*
X550000Y1916276D01*
X574387Y1921126D01*
X595061Y1934940D01*
X608874Y1955614D01*
X613725Y1980000D01*
X608874Y2004386D01*
X595061Y2025060D01*
X574387Y2038874D01*
X550000Y2043725D01*
D02*
G37*
G36*
X960000Y2023725D02*
X935614Y2018874D01*
X914940Y2005060D01*
X901126Y1984386D01*
X896276Y1960000D01*
X901126Y1935614D01*
X914940Y1914940D01*
X935614Y1901126D01*
X960000Y1896276D01*
X984387Y1901126D01*
X1005060Y1914940D01*
X1018874Y1935614D01*
X1023725Y1960000D01*
X1018874Y1984386D01*
X1005060Y2005060D01*
X984387Y2018874D01*
X960000Y2023725D01*
D02*
G37*
G36*
X2260000Y1903725D02*
X2235614Y1898874D01*
X2214940Y1885060D01*
X2201126Y1864386D01*
X2196276Y1840000D01*
X2201126Y1815614D01*
X2214940Y1794940D01*
X2235614Y1781126D01*
X2260000Y1776276D01*
X2284387Y1781126D01*
X2305060Y1794940D01*
X2318874Y1815614D01*
X2323725Y1840000D01*
X2318874Y1864386D01*
X2305060Y1885060D01*
X2284387Y1898874D01*
X2260000Y1903725D01*
D02*
G37*
G36*
X2550000Y1873725D02*
X2525614Y1868874D01*
X2504940Y1855060D01*
X2491127Y1834386D01*
X2486276Y1810000D01*
X2491127Y1785614D01*
X2504940Y1764940D01*
X2525614Y1751126D01*
X2550000Y1746276D01*
X2574387Y1751126D01*
X2595061Y1764940D01*
X2608874Y1785614D01*
X2613725Y1810000D01*
X2608874Y1834386D01*
X2595061Y1855060D01*
X2574387Y1868874D01*
X2550000Y1873725D01*
D02*
G37*
G36*
X1710000Y1863725D02*
X1685614Y1858874D01*
X1664940Y1845060D01*
X1651126Y1824386D01*
X1646276Y1800000D01*
X1651126Y1775614D01*
X1664940Y1754940D01*
X1685614Y1741126D01*
X1710000Y1736276D01*
X1734387Y1741126D01*
X1755060Y1754940D01*
X1768874Y1775614D01*
X1773725Y1800000D01*
X1768874Y1824386D01*
X1755060Y1845060D01*
X1734387Y1858874D01*
X1710000Y1863725D01*
D02*
G37*
G36*
X940000Y1823725D02*
X915614Y1818874D01*
X894940Y1805060D01*
X881127Y1784386D01*
X876276Y1760000D01*
X881127Y1735614D01*
X894940Y1714940D01*
X915614Y1701126D01*
X940000Y1696275D01*
X964387Y1701126D01*
X985061Y1714940D01*
X998874Y1735614D01*
X1003725Y1760000D01*
X998874Y1784386D01*
X985061Y1805060D01*
X964387Y1818874D01*
X940000Y1823725D01*
D02*
G37*
G36*
X760001D02*
X735614Y1818874D01*
X714940Y1805060D01*
X701127Y1784386D01*
X696276Y1760000D01*
X701127Y1735614D01*
X714940Y1714940D01*
X735614Y1701126D01*
X760001Y1696275D01*
X784387Y1701126D01*
X805061Y1714940D01*
X818874Y1735614D01*
X823725Y1760000D01*
X818874Y1784386D01*
X805061Y1805060D01*
X784387Y1818874D01*
X760001Y1823725D01*
D02*
G37*
G36*
X860001Y1580776D02*
X836506Y1577683D01*
X814613Y1568615D01*
X795812Y1554189D01*
X788005Y1544014D01*
X771997D01*
X764189Y1554189D01*
X745389Y1568615D01*
X723495Y1577683D01*
X700001Y1580776D01*
X676506Y1577683D01*
X654612Y1568615D01*
X635812Y1554189D01*
X621386Y1535388D01*
X612318Y1513495D01*
X609224Y1490000D01*
X612318Y1466505D01*
X621386Y1444612D01*
X635812Y1425811D01*
X654612Y1411386D01*
X676506Y1402317D01*
X700001Y1399224D01*
X723495Y1402317D01*
X745389Y1411386D01*
X764189Y1425811D01*
X771997Y1435986D01*
X788005D01*
X795812Y1425811D01*
X814613Y1411386D01*
X836506Y1402317D01*
X860001Y1399224D01*
X883496Y1402317D01*
X905389Y1411386D01*
X924189Y1425811D01*
X938615Y1444612D01*
X947684Y1466505D01*
X950777Y1490000D01*
X947684Y1513495D01*
X938615Y1535388D01*
X924189Y1554189D01*
X905389Y1568615D01*
X883496Y1577683D01*
X860001Y1580776D01*
D02*
G37*
G36*
X2395000Y1503725D02*
X2370614Y1498874D01*
X2349940Y1485060D01*
X2336126Y1464386D01*
X2333975Y1453569D01*
X2321026D01*
X2318874Y1464386D01*
X2305060Y1485060D01*
X2284387Y1498874D01*
X2260000Y1503725D01*
X2235614Y1498874D01*
X2214940Y1485060D01*
X2201126Y1464386D01*
X2196276Y1440000D01*
X2201126Y1415614D01*
X2214940Y1394940D01*
X2235614Y1381126D01*
X2260000Y1376276D01*
X2284387Y1381126D01*
X2305060Y1394940D01*
X2318874Y1415614D01*
X2321026Y1426431D01*
X2333975D01*
X2336126Y1415614D01*
X2349940Y1394940D01*
X2370614Y1381126D01*
X2395000Y1376276D01*
X2402409Y1364800D01*
X2393626Y1351656D01*
X2388776Y1327270D01*
X2393626Y1302884D01*
X2407440Y1282210D01*
X2428114Y1268396D01*
X2452500Y1263546D01*
X2476887Y1268396D01*
X2497560Y1282210D01*
X2511374Y1302884D01*
X2516225Y1327270D01*
X2511374Y1351656D01*
X2497560Y1372330D01*
X2476887Y1386144D01*
X2452501Y1390995D01*
X2445092Y1402470D01*
X2453874Y1415614D01*
X2458725Y1440000D01*
X2453874Y1464386D01*
X2440060Y1485060D01*
X2419387Y1498874D01*
X2395000Y1503725D01*
D02*
G37*
G36*
X1850000Y1503724D02*
X1825614Y1498874D01*
X1804940Y1485060D01*
X1791126Y1464386D01*
X1786276Y1440000D01*
X1789729Y1422641D01*
X1786132Y1410608D01*
X1781979Y1406445D01*
X1764940Y1395060D01*
X1751127Y1374386D01*
X1746276Y1350000D01*
X1751127Y1325614D01*
X1764362Y1305806D01*
X1762597Y1299628D01*
X1759126Y1293551D01*
X1735614Y1288874D01*
X1714940Y1275060D01*
X1701126Y1254386D01*
X1696276Y1230000D01*
X1701126Y1205614D01*
X1714940Y1184940D01*
X1735614Y1171126D01*
X1760000Y1166276D01*
X1784387Y1171126D01*
X1805060Y1184940D01*
X1818874Y1205614D01*
X1823725Y1230000D01*
X1818874Y1254386D01*
X1805639Y1274194D01*
X1807403Y1280372D01*
X1810875Y1286450D01*
X1834387Y1291126D01*
X1855061Y1304940D01*
X1868874Y1325614D01*
X1873725Y1350000D01*
X1870272Y1367359D01*
X1873868Y1379392D01*
X1878022Y1383555D01*
X1895060Y1394940D01*
X1908874Y1415614D01*
X1913725Y1440000D01*
X1908874Y1464386D01*
X1895060Y1485060D01*
X1874387Y1498874D01*
X1850000Y1503724D01*
D02*
G37*
G36*
X2190000Y1293725D02*
X2165614Y1288874D01*
X2144940Y1275060D01*
X2131127Y1254386D01*
X2126276Y1230000D01*
X2131127Y1205614D01*
X2128579Y1199464D01*
X2125614Y1198874D01*
X2104940Y1185060D01*
X2091127Y1164386D01*
X2086276Y1140000D01*
X2091127Y1115614D01*
X2104940Y1094940D01*
X2125614Y1081126D01*
X2150001Y1076275D01*
X2174387Y1081126D01*
X2195061Y1094940D01*
X2208874Y1115614D01*
X2213725Y1140000D01*
X2208874Y1164386D01*
X2211422Y1170536D01*
X2214387Y1171126D01*
X2235061Y1184940D01*
X2248874Y1205614D01*
X2253725Y1230000D01*
X2248874Y1254386D01*
X2235061Y1275060D01*
X2214387Y1288874D01*
X2190000Y1293725D01*
D02*
G37*
G36*
X1489741Y1043465D02*
X1465354Y1038614D01*
X1444681Y1024800D01*
X1430867Y1004127D01*
X1426780Y1001942D01*
X1416885Y1006041D01*
X1396001Y1008790D01*
X1375116Y1006041D01*
X1355655Y997980D01*
X1338944Y985157D01*
X1326121Y968445D01*
X1318060Y948984D01*
X1315310Y928100D01*
X1318060Y907216D01*
X1326121Y887755D01*
X1338944Y871044D01*
X1355655Y858221D01*
X1375116Y850160D01*
X1396001Y847410D01*
X1416885Y850160D01*
X1436346Y858221D01*
X1453057Y871044D01*
X1465880Y887755D01*
X1473941Y907216D01*
X1474261Y909644D01*
X1484584Y917041D01*
X1489741Y916016D01*
X1514127Y920866D01*
X1534801Y934680D01*
X1548615Y955354D01*
X1553465Y979740D01*
X1548615Y1004127D01*
X1534801Y1024800D01*
X1514127Y1038614D01*
X1489741Y1043465D01*
D02*
G37*
G36*
X1650001Y1033725D02*
X1625614Y1028874D01*
X1604940Y1015060D01*
X1591127Y994386D01*
X1586276Y970000D01*
X1591127Y945614D01*
X1604940Y924940D01*
X1625614Y911126D01*
X1650001Y906276D01*
X1674387Y911126D01*
X1695061Y924940D01*
X1708874Y945614D01*
X1713725Y970000D01*
X1708874Y994386D01*
X1695061Y1015060D01*
X1674387Y1028874D01*
X1650001Y1033725D01*
D02*
G37*
G36*
X3340001Y1003725D02*
X3315614Y998874D01*
X3294941Y985060D01*
X3281127Y964386D01*
X3276276Y940000D01*
X3281127Y915614D01*
X3294941Y894940D01*
X3315614Y881126D01*
X3340001Y876276D01*
X3364387Y881126D01*
X3385061Y894940D01*
X3398875Y915614D01*
X3403725Y940000D01*
X3398875Y964386D01*
X3385061Y985060D01*
X3364387Y998874D01*
X3340001Y1003725D01*
D02*
G37*
G36*
X1904001Y907190D02*
X1883116Y904441D01*
X1863655Y896380D01*
X1846944Y883557D01*
X1834121Y866845D01*
X1826060Y847384D01*
X1823310Y826500D01*
X1826060Y805616D01*
X1834121Y786155D01*
X1846944Y769444D01*
X1851460Y765978D01*
X1850944Y761648D01*
X1847274Y753182D01*
X1825614Y748874D01*
X1804941Y735060D01*
X1791127Y714386D01*
X1786276Y690000D01*
X1791127Y665614D01*
X1804941Y644940D01*
X1825614Y631126D01*
X1850001Y626276D01*
X1874387Y631126D01*
X1895061Y644940D01*
X1908875Y665614D01*
X1913725Y690000D01*
X1908875Y714386D01*
X1895708Y734092D01*
X1896867Y738275D01*
X1901300Y746166D01*
X1904001Y745810D01*
X1924885Y748560D01*
X1944346Y756621D01*
X1961057Y769444D01*
X1973880Y786155D01*
X1981941Y805616D01*
X1984691Y826500D01*
X1981941Y847384D01*
X1973880Y866845D01*
X1961057Y883557D01*
X1944346Y896380D01*
X1924885Y904441D01*
X1904001Y907190D01*
D02*
G37*
G36*
X2879038Y692763D02*
X2854652Y687912D01*
X2833978Y674098D01*
X2820165Y653424D01*
X2815314Y629038D01*
X2820165Y604652D01*
X2833978Y583978D01*
X2854652Y570164D01*
X2879038Y565314D01*
X2903425Y570164D01*
X2924099Y583978D01*
X2937912Y604652D01*
X2942763Y629038D01*
X2937912Y653424D01*
X2924099Y674098D01*
X2903425Y687912D01*
X2879038Y692763D01*
D02*
G37*
G36*
X2060000Y653725D02*
X2035614Y648874D01*
X2014940Y635060D01*
X2001127Y614386D01*
X1996276Y590000D01*
X2001127Y565614D01*
X2014940Y544940D01*
X2035614Y531126D01*
X2060000Y526276D01*
X2084387Y531126D01*
X2105061Y544940D01*
X2118874Y565614D01*
X2123725Y590000D01*
X2118874Y614386D01*
X2105061Y635060D01*
X2084387Y648874D01*
X2060000Y653725D01*
D02*
G37*
G36*
X1396001Y805590D02*
X1375116Y802841D01*
X1355655Y794780D01*
X1338944Y781957D01*
X1326121Y765245D01*
X1318060Y745784D01*
X1315310Y724900D01*
X1318060Y704016D01*
X1326121Y684555D01*
X1338944Y667844D01*
X1355655Y655021D01*
X1375116Y646960D01*
X1396001Y644210D01*
X1416885Y646960D01*
X1426152Y650798D01*
X1440642Y643053D01*
X1441127Y640614D01*
X1454940Y619940D01*
X1475614Y606126D01*
X1500001Y601276D01*
X1524387Y606126D01*
X1526864Y607781D01*
X1538294Y600144D01*
X1536276Y590000D01*
X1541126Y565614D01*
X1554940Y544940D01*
X1575614Y531126D01*
X1600000Y526276D01*
X1624387Y531126D01*
X1645060Y544940D01*
X1652363Y555869D01*
X1667638D01*
X1674940Y544940D01*
X1695614Y531126D01*
X1720000Y526276D01*
X1744387Y531126D01*
X1765060Y544940D01*
X1778874Y565614D01*
X1783725Y590000D01*
X1778874Y614386D01*
X1765060Y635060D01*
X1744387Y648874D01*
X1720773Y653571D01*
X1712437Y663524D01*
X1713725Y670000D01*
X1708874Y694386D01*
X1695061Y715060D01*
X1674387Y728874D01*
X1650001Y733725D01*
X1625614Y728874D01*
X1604940Y715060D01*
X1591127Y694386D01*
X1586276Y670000D01*
X1589912Y651718D01*
X1575614Y648874D01*
X1573137Y647219D01*
X1561707Y654856D01*
X1563725Y665000D01*
X1558874Y689386D01*
X1545061Y710060D01*
X1524387Y723874D01*
X1500001Y728725D01*
X1489278Y726592D01*
X1475134Y736728D01*
X1473941Y745784D01*
X1465880Y765245D01*
X1453057Y781957D01*
X1436346Y794780D01*
X1416885Y802841D01*
X1396001Y805590D01*
D02*
G37*
G36*
X2320000Y900871D02*
X2284714Y897395D01*
X2250784Y887103D01*
X2219514Y870389D01*
X2192105Y847895D01*
X2169612Y820487D01*
X2152898Y789216D01*
X2142605Y755286D01*
X2139130Y720000D01*
Y520000D01*
X2142605Y484714D01*
X2152898Y450784D01*
X2169612Y419514D01*
X2192105Y392105D01*
X2219514Y369611D01*
X2250784Y352897D01*
X2284714Y342605D01*
X2320000Y339129D01*
X2355287Y342605D01*
X2389217Y352897D01*
X2420487Y369611D01*
X2447896Y392105D01*
X2470389Y419514D01*
X2487103Y450784D01*
X2497396Y484714D01*
X2500871Y520000D01*
Y720000D01*
X2497396Y755286D01*
X2487103Y789216D01*
X2470389Y820487D01*
X2447896Y847895D01*
X2420487Y870389D01*
X2389217Y887103D01*
X2355287Y897395D01*
X2320000Y900871D01*
D02*
G37*
G36*
X2060000Y353725D02*
X2035614Y348874D01*
X2014940Y335060D01*
X2001127Y314386D01*
X1996276Y290000D01*
X2001127Y265614D01*
X2014940Y244940D01*
X2035614Y231126D01*
X2060000Y226276D01*
X2084387Y231126D01*
X2105061Y244940D01*
X2118874Y265614D01*
X2123725Y290000D01*
X2118874Y314386D01*
X2105061Y335060D01*
X2084387Y348874D01*
X2060000Y353725D01*
D02*
G37*
G36*
X1260001Y343725D02*
X1235614Y338874D01*
X1214940Y325060D01*
X1201127Y304386D01*
X1196276Y280000D01*
X1201127Y255614D01*
X1214940Y234940D01*
X1235614Y221126D01*
X1260001Y216276D01*
X1284387Y221126D01*
X1305061Y234940D01*
X1318874Y255614D01*
X1323725Y280000D01*
X1318874Y304386D01*
X1305061Y325060D01*
X1284387Y338874D01*
X1260001Y343725D01*
D02*
G37*
%LPD*%
G36*
X3440000Y3920000D02*
X3440000Y3700000D01*
X3280000Y3540000D01*
Y2585560D01*
X3267300Y2581708D01*
X3265060Y2585060D01*
X3244386Y2598874D01*
X3220000Y2603725D01*
X3195614Y2598874D01*
X3174940Y2585060D01*
X3161126Y2564386D01*
X3156276Y2540000D01*
X3161126Y2515614D01*
X3174940Y2494940D01*
X3195614Y2481126D01*
X3220000Y2476275D01*
X3244386Y2481126D01*
X3265060Y2494940D01*
X3267300Y2498292D01*
X3280000Y2494440D01*
Y2435561D01*
X3267300Y2431708D01*
X3265061Y2435060D01*
X3244387Y2448874D01*
X3220000Y2453725D01*
X3195614Y2448874D01*
X3174940Y2435060D01*
X3161127Y2414386D01*
X3156276Y2390000D01*
X3161127Y2365614D01*
X3174940Y2344940D01*
X3195614Y2331126D01*
X3220000Y2326276D01*
X3244387Y2331126D01*
X3265061Y2344940D01*
X3267300Y2348292D01*
X3280000Y2344439D01*
X3280000Y2285561D01*
X3267300Y2281708D01*
X3265061Y2285060D01*
X3244387Y2298874D01*
X3220000Y2303725D01*
X3195614Y2298874D01*
X3174940Y2285060D01*
X3161127Y2264386D01*
X3156276Y2240000D01*
X3161127Y2215614D01*
X3174940Y2194940D01*
X3195614Y2181126D01*
X3219228Y2176429D01*
X3224719Y2169873D01*
X3221020Y2156656D01*
X3214782Y2152687D01*
X3195614Y2148874D01*
X3174940Y2135060D01*
X3161126Y2114386D01*
X3156276Y2090000D01*
X3161126Y2065614D01*
X3174940Y2044940D01*
X3195614Y2031126D01*
X3220000Y2026276D01*
X3236369Y2029532D01*
X3239706Y2012754D01*
X3229546Y2001826D01*
X3220000Y2003725D01*
X3195614Y1998874D01*
X3174940Y1985060D01*
X3161127Y1964386D01*
X3156276Y1940000D01*
X3161127Y1915614D01*
X3174940Y1894940D01*
X3195614Y1881126D01*
X3220000Y1876276D01*
X3244387Y1881126D01*
X3249380Y1884463D01*
X3265081Y1879680D01*
X3274928Y1864943D01*
X3280000Y1861554D01*
Y1050000D01*
X3230000Y1000000D01*
X2990000D01*
X2783073Y1206928D01*
X2783424Y1216475D01*
X2789989Y1226280D01*
X2814375Y1231131D01*
X2835049Y1244944D01*
X2848863Y1265618D01*
X2853713Y1290005D01*
X2852318Y1297022D01*
X2863214Y1307341D01*
X2868046Y1306104D01*
X2871127Y1290614D01*
X2884941Y1269940D01*
X2905614Y1256126D01*
X2930001Y1251276D01*
X2954387Y1256126D01*
X2975061Y1269940D01*
X2988875Y1290614D01*
X2993725Y1315000D01*
X3006176Y1317504D01*
X3024387Y1321126D01*
X3045060Y1334940D01*
X3058874Y1355614D01*
X3063725Y1380000D01*
X3058874Y1404386D01*
X3045060Y1425060D01*
X3024387Y1438874D01*
X3000000Y1443725D01*
X2975614Y1438874D01*
X2954940Y1425060D01*
X2941126Y1404386D01*
X2938525Y1391307D01*
X2930001Y1387101D01*
X2921476Y1391307D01*
X2918874Y1404386D01*
X2905060Y1425060D01*
X2884387Y1438874D01*
X2860000Y1443725D01*
X2835614Y1438874D01*
X2814940Y1425060D01*
X2807633Y1414124D01*
X2792359D01*
X2785049Y1425064D01*
X2780001Y1428438D01*
Y1874439D01*
X2847500D01*
X2864469Y1876673D01*
X2880281Y1883223D01*
X2893859Y1893642D01*
X2904277Y1907220D01*
X2910827Y1923032D01*
X2913061Y1940000D01*
X2910827Y1956969D01*
X2904277Y1972781D01*
X2893859Y1986358D01*
X2880281Y1996777D01*
X2864469Y2003327D01*
X2847500Y2005561D01*
X2780001D01*
Y2299747D01*
X2789818Y2307804D01*
X2797500Y2306276D01*
X2821887Y2311126D01*
X2842560Y2324940D01*
X2856374Y2345614D01*
X2861225Y2370000D01*
X2857303Y2389717D01*
X2864386Y2391126D01*
X2885060Y2404940D01*
X2898874Y2425614D01*
X2903725Y2450000D01*
X2898874Y2474386D01*
X2885060Y2495060D01*
X2872548Y2503420D01*
Y2504940D01*
X2886362Y2525614D01*
X2891213Y2550000D01*
X2886362Y2574386D01*
X2876823Y2588662D01*
X2874956Y2598217D01*
X2880069Y2604923D01*
X2895061Y2614940D01*
X2908874Y2635614D01*
X2913725Y2660000D01*
X2908874Y2684386D01*
X2895061Y2705060D01*
X2874387Y2718874D01*
X2850000Y2723725D01*
X2825614Y2718874D01*
X2804940Y2705060D01*
X2795735Y2691283D01*
X2784374Y2698874D01*
X2780001Y2699744D01*
Y3560000D01*
X3170001Y3950000D01*
X3410000D01*
X3440000Y3920000D01*
D02*
G37*
%LPC*%
G36*
X2964980Y3483245D02*
X2940594Y3478394D01*
X2919920Y3464581D01*
X2906106Y3443907D01*
X2901256Y3419520D01*
X2906106Y3395134D01*
X2919920Y3374460D01*
X2940594Y3360647D01*
X2964980Y3355796D01*
X2989366Y3360647D01*
X3010040Y3374460D01*
X3023854Y3395134D01*
X3028705Y3419520D01*
X3023854Y3443907D01*
X3010040Y3464581D01*
X2989366Y3478394D01*
X2964980Y3483245D01*
D02*
G37*
G36*
X3140000Y1693725D02*
X3115614Y1688874D01*
X3094940Y1675060D01*
X3081126Y1654386D01*
X3076276Y1630000D01*
X3081126Y1605614D01*
X3094940Y1584940D01*
X3115614Y1571126D01*
X3140000Y1566276D01*
X3164387Y1571126D01*
X3185060Y1584940D01*
X3198874Y1605614D01*
X3203725Y1630000D01*
X3198874Y1654386D01*
X3185060Y1675060D01*
X3164387Y1688874D01*
X3140000Y1693725D01*
D02*
G37*
G36*
X8050000Y6396716D02*
X7958956Y6305672D01*
X7966262Y6299676D01*
X7992320Y6285748D01*
X8020595Y6277171D01*
X8050000Y6274274D01*
X8079405Y6277171D01*
X8107681Y6285748D01*
X8133739Y6299676D01*
X8141045Y6305672D01*
X8050000Y6396716D01*
D02*
G37*
G36*
X8587001Y4854016D02*
X8545834Y4849961D01*
X8506248Y4837953D01*
X8469766Y4818453D01*
X8437790Y4792211D01*
X8411547Y4760234D01*
X8392047Y4723752D01*
X8380039Y4684167D01*
X8375985Y4643000D01*
X8380039Y4601833D01*
X8392047Y4562248D01*
X8411547Y4525766D01*
X8437790Y4493789D01*
X8469766Y4467547D01*
X8506248Y4448047D01*
X8545834Y4436039D01*
X8587001Y4431984D01*
X8628168Y4436039D01*
X8667753Y4448047D01*
X8704235Y4467547D01*
X8736211Y4493789D01*
X8762454Y4525766D01*
X8781954Y4562248D01*
X8793962Y4601833D01*
X8798016Y4643000D01*
X8793962Y4684167D01*
X8781954Y4723752D01*
X8762454Y4760234D01*
X8736211Y4792211D01*
X8704235Y4818453D01*
X8667753Y4837953D01*
X8628168Y4849961D01*
X8587001Y4854016D01*
D02*
G37*
G36*
X7825001D02*
X7783834Y4849961D01*
X7744248Y4837953D01*
X7707766Y4818453D01*
X7675790Y4792211D01*
X7649547Y4760234D01*
X7630047Y4723752D01*
X7618039Y4684167D01*
X7613985Y4643000D01*
X7618039Y4601833D01*
X7630047Y4562248D01*
X7649547Y4525766D01*
X7675790Y4493789D01*
X7707766Y4467547D01*
X7744248Y4448047D01*
X7783834Y4436039D01*
X7825001Y4431984D01*
X7866168Y4436039D01*
X7905753Y4448047D01*
X7942235Y4467547D01*
X7974211Y4493789D01*
X8000454Y4525766D01*
X8019954Y4562248D01*
X8031962Y4601833D01*
X8036016Y4643000D01*
X8031962Y4684167D01*
X8019954Y4723752D01*
X8000454Y4760234D01*
X7974211Y4792211D01*
X7942235Y4818453D01*
X7905753Y4837953D01*
X7866168Y4849961D01*
X7825001Y4854016D01*
D02*
G37*
G36*
X8587001Y4081968D02*
X8547794Y4078106D01*
X8510094Y4066670D01*
X8475349Y4048099D01*
X8460430Y4035855D01*
X8587001Y3909285D01*
X8713571Y4035855D01*
X8698652Y4048099D01*
X8663907Y4066670D01*
X8626208Y4078106D01*
X8587001Y4081968D01*
D02*
G37*
G36*
X7825001D02*
X7785794Y4078106D01*
X7748094Y4066670D01*
X7713349Y4048099D01*
X7698430Y4035855D01*
X7825001Y3909285D01*
X7951571Y4035855D01*
X7936652Y4048099D01*
X7901907Y4066670D01*
X7864208Y4078106D01*
X7825001Y4081968D01*
D02*
G37*
G36*
X7979856Y4007570D02*
X7853286Y3881000D01*
X7979856Y3754430D01*
X7992099Y3769349D01*
X8010671Y3804093D01*
X8022107Y3841793D01*
X8025968Y3881000D01*
X8022107Y3920207D01*
X8010671Y3957907D01*
X7992099Y3992652D01*
X7979856Y4007570D01*
D02*
G37*
G36*
X8432146Y4007571D02*
X8419902Y3992652D01*
X8401331Y3957907D01*
X8389895Y3920207D01*
X8386033Y3881000D01*
X8389895Y3841793D01*
X8401331Y3804093D01*
X8419902Y3769349D01*
X8432146Y3754429D01*
X8558717Y3881000D01*
X8432146Y4007571D01*
D02*
G37*
G36*
X7825001Y2557968D02*
X7785794Y2554106D01*
X7748094Y2542670D01*
X7713349Y2524099D01*
X7698430Y2511855D01*
X7825001Y2385285D01*
X7951571Y2511855D01*
X7936652Y2524099D01*
X7901907Y2542670D01*
X7864208Y2554106D01*
X7825001Y2557968D01*
D02*
G37*
G36*
X7979856Y2483570D02*
X7853286Y2357000D01*
X7979856Y2230430D01*
X7992099Y2245349D01*
X8010671Y2280093D01*
X8022107Y2317793D01*
X8025968Y2357000D01*
X8022107Y2396207D01*
X8010671Y2433907D01*
X7992099Y2468652D01*
X7979856Y2483570D01*
D02*
G37*
G36*
X8432146Y2483571D02*
X8419902Y2468652D01*
X8401331Y2433907D01*
X8389895Y2396207D01*
X8386033Y2357000D01*
X8389895Y2317793D01*
X8401331Y2280093D01*
X8419902Y2245349D01*
X8432146Y2230429D01*
X8558717Y2357000D01*
X8432146Y2483571D01*
D02*
G37*
G36*
X7670146D02*
X7657902Y2468652D01*
X7639331Y2433907D01*
X7627895Y2396207D01*
X7624033Y2357000D01*
X7627895Y2317793D01*
X7639331Y2280093D01*
X7657902Y2245349D01*
X7670146Y2230429D01*
X7796717Y2357000D01*
X7670146Y2483571D01*
D02*
G37*
G36*
X8587001Y2328716D02*
X8460430Y2202145D01*
X8475349Y2189902D01*
X8510094Y2171330D01*
X8547794Y2159894D01*
X8587001Y2156033D01*
X8626208Y2159894D01*
X8663907Y2171330D01*
X8698652Y2189902D01*
X8713571Y2202145D01*
X8587001Y2328716D01*
D02*
G37*
G36*
X7825001D02*
X7698430Y2202145D01*
X7713349Y2189902D01*
X7748094Y2171330D01*
X7785794Y2159894D01*
X7825001Y2156033D01*
X7864208Y2159894D01*
X7901907Y2171330D01*
X7936652Y2189902D01*
X7951571Y2202145D01*
X7825001Y2328716D01*
D02*
G37*
G36*
X6225001Y1740776D02*
X6201506Y1737683D01*
X6179612Y1728615D01*
X6176817Y1726469D01*
X6225001Y1678285D01*
X6273185Y1726469D01*
X6270389Y1728615D01*
X6248495Y1737683D01*
X6225001Y1740776D01*
D02*
G37*
G36*
X6301469Y1698184D02*
X6253285Y1650001D01*
X6301470Y1601816D01*
X6303615Y1604612D01*
X6312684Y1626505D01*
X6315777Y1650000D01*
X6312684Y1673495D01*
X6303615Y1695388D01*
X6301469Y1698184D01*
D02*
G37*
G36*
X6148532Y1698185D02*
X6146386Y1695388D01*
X6137317Y1673495D01*
X6134224Y1650000D01*
X6137317Y1626505D01*
X6146386Y1604612D01*
X6148532Y1601815D01*
X6196717Y1650001D01*
X6148532Y1698185D01*
D02*
G37*
G36*
X6225001Y1621716D02*
X6176816Y1573531D01*
X6179612Y1571385D01*
X6201506Y1562317D01*
X6225001Y1559224D01*
X6248495Y1562317D01*
X6270389Y1571385D01*
X6273186Y1573532D01*
X6225001Y1621716D01*
D02*
G37*
G36*
X6345000Y1270000D02*
X6105001D01*
Y1030000D01*
X6345000D01*
Y1270000D01*
D02*
G37*
G36*
X8006000Y884906D02*
X7978590Y881297D01*
X7953048Y870717D01*
X7931114Y853887D01*
X7914283Y831953D01*
X7903703Y806411D01*
X7900095Y779000D01*
X7903703Y751590D01*
X7914283Y726047D01*
X7931114Y704113D01*
X7953048Y687283D01*
X7978590Y676703D01*
X8006000Y673094D01*
X8033411Y676703D01*
X8058953Y687283D01*
X8080887Y704113D01*
X8097718Y726047D01*
X8108298Y751590D01*
X8111906Y779000D01*
X8108298Y806411D01*
X8097718Y831953D01*
X8080887Y853887D01*
X8058953Y870717D01*
X8033411Y881297D01*
X8006000Y884906D01*
D02*
G37*
G36*
X7244000D02*
X7216590Y881297D01*
X7191048Y870717D01*
X7169114Y853887D01*
X7152283Y831953D01*
X7141703Y806411D01*
X7138095Y779000D01*
X7141703Y751590D01*
X7152283Y726047D01*
X7169114Y704113D01*
X7191048Y687283D01*
X7216590Y676703D01*
X7244000Y673094D01*
X7271411Y676703D01*
X7296953Y687283D01*
X7318887Y704113D01*
X7335718Y726047D01*
X7346298Y751590D01*
X7349906Y779000D01*
X7346298Y806411D01*
X7335718Y831953D01*
X7318887Y853887D01*
X7296953Y870717D01*
X7271411Y881297D01*
X7244000Y884906D01*
D02*
G37*
G36*
X8006000Y630906D02*
X7978590Y627297D01*
X7953048Y616717D01*
X7931114Y599887D01*
X7914283Y577953D01*
X7903703Y552411D01*
X7900095Y525000D01*
X7903703Y497590D01*
X7914283Y472047D01*
X7931114Y450113D01*
X7953048Y433283D01*
X7978590Y422703D01*
X8006000Y419094D01*
X8033411Y422703D01*
X8058953Y433283D01*
X8080887Y450113D01*
X8097718Y472047D01*
X8108298Y497590D01*
X8111906Y525000D01*
X8108298Y552411D01*
X8097718Y577953D01*
X8080887Y599887D01*
X8058953Y616717D01*
X8033411Y627297D01*
X8006000Y630906D01*
D02*
G37*
G36*
X7244000D02*
X7216590Y627297D01*
X7191048Y616717D01*
X7169114Y599887D01*
X7152283Y577953D01*
X7141703Y552411D01*
X7138095Y525000D01*
X7141703Y497590D01*
X7152283Y472047D01*
X7169114Y450113D01*
X7191048Y433283D01*
X7216590Y422703D01*
X7244000Y419094D01*
X7271411Y422703D01*
X7296953Y433283D01*
X7318887Y450113D01*
X7335718Y472047D01*
X7346298Y497590D01*
X7349906Y525000D01*
X7346298Y552411D01*
X7335718Y577953D01*
X7318887Y599887D01*
X7296953Y616717D01*
X7271411Y627297D01*
X7244000Y630906D01*
D02*
G37*
G36*
X6175001Y905871D02*
X6139714Y902395D01*
X6105784Y892103D01*
X6074514Y875389D01*
X6047106Y852895D01*
X6024612Y825487D01*
X6007898Y794216D01*
X5997605Y760286D01*
X5994130Y725000D01*
Y525000D01*
X5997605Y489714D01*
X6007898Y455784D01*
X6024612Y424514D01*
X6047106Y397105D01*
X6074514Y374611D01*
X6105784Y357897D01*
X6139714Y347605D01*
X6175001Y344129D01*
X6210287Y347605D01*
X6244217Y357897D01*
X6275487Y374611D01*
X6302896Y397105D01*
X6325389Y424514D01*
X6342103Y455784D01*
X6352396Y489714D01*
X6355871Y525000D01*
Y725000D01*
X6352396Y760286D01*
X6342103Y794216D01*
X6325389Y825487D01*
X6302896Y852895D01*
X6275487Y875389D01*
X6244217Y892103D01*
X6210287Y902395D01*
X6175001Y905871D01*
D02*
G37*
G36*
X6620000Y403725D02*
X6595614Y398874D01*
X6574940Y385060D01*
X6561127Y364386D01*
X6556276Y340000D01*
X6561127Y315614D01*
X6574940Y294940D01*
X6595614Y281126D01*
X6620000Y276276D01*
X6644387Y281126D01*
X6665061Y294940D01*
X6678874Y315614D01*
X6683725Y340000D01*
X6678874Y364386D01*
X6665061Y385060D01*
X6644387Y398874D01*
X6620000Y403725D01*
D02*
G37*
G36*
X8006000Y376906D02*
X7978590Y373297D01*
X7953048Y362717D01*
X7931114Y345887D01*
X7914283Y323953D01*
X7903703Y298411D01*
X7900095Y271000D01*
X7903703Y243590D01*
X7914283Y218047D01*
X7931114Y196113D01*
X7953048Y179283D01*
X7978590Y168703D01*
X8006000Y165094D01*
X8033411Y168703D01*
X8058953Y179283D01*
X8080887Y196113D01*
X8097718Y218047D01*
X8108298Y243590D01*
X8111906Y271000D01*
X8108298Y298411D01*
X8097718Y323953D01*
X8080887Y345887D01*
X8058953Y362717D01*
X8033411Y373297D01*
X8006000Y376906D01*
D02*
G37*
G36*
X7244000D02*
X7216590Y373297D01*
X7191048Y362717D01*
X7169114Y345887D01*
X7152283Y323953D01*
X7141703Y298411D01*
X7138095Y271000D01*
X7141703Y243590D01*
X7152283Y218047D01*
X7169114Y196113D01*
X7191048Y179283D01*
X7216590Y168703D01*
X7244000Y165094D01*
X7271411Y168703D01*
X7296953Y179283D01*
X7318887Y196113D01*
X7335718Y218047D01*
X7346298Y243590D01*
X7349906Y271000D01*
X7346298Y298411D01*
X7335718Y323953D01*
X7318887Y345887D01*
X7296953Y362717D01*
X7271411Y373297D01*
X7244000Y376906D01*
D02*
G37*
G36*
X7095776Y4698281D02*
X7083145Y4696618D01*
X7109918Y4596697D01*
X7209839Y4623471D01*
X7204963Y4635242D01*
X7184927Y4661353D01*
X7158816Y4681390D01*
X7128408Y4693985D01*
X7095776Y4698281D01*
D02*
G37*
G36*
X7044507Y4686265D02*
X7032737Y4681390D01*
X7006625Y4661353D01*
X6986589Y4635242D01*
X6973993Y4604834D01*
X6969697Y4572202D01*
X6971360Y4559571D01*
X7071281Y4586344D01*
X7044507Y4686265D01*
D02*
G37*
G36*
X6225001Y4771035D02*
X6193674Y4766911D01*
X6164483Y4754820D01*
X6139416Y4735585D01*
X6120181Y4710518D01*
X6108089Y4681326D01*
X6103965Y4650000D01*
X6108089Y4618674D01*
X6120181Y4589483D01*
X6139416Y4564415D01*
X6164483Y4545180D01*
X6193674Y4533089D01*
X6225001Y4528965D01*
X6256327Y4533089D01*
X6285518Y4545180D01*
X6310585Y4564415D01*
X6329820Y4589483D01*
X6341912Y4618674D01*
X6346036Y4650000D01*
X6341912Y4681326D01*
X6329820Y4710518D01*
X6310585Y4735585D01*
X6285518Y4754820D01*
X6256327Y4766911D01*
X6225001Y4771035D01*
D02*
G37*
G36*
X7220192Y4584834D02*
X7120271Y4558060D01*
X7147045Y4458139D01*
X7158816Y4463015D01*
X7184927Y4483051D01*
X7204963Y4509163D01*
X7217559Y4539571D01*
X7221855Y4572202D01*
X7220192Y4584834D01*
D02*
G37*
G36*
X7081634Y4547707D02*
X6981713Y4520934D01*
X6986589Y4509163D01*
X7006625Y4483051D01*
X7032737Y4463015D01*
X7063144Y4450419D01*
X7095776Y4446123D01*
X7108407Y4447786D01*
X7081634Y4547707D01*
D02*
G37*
G36*
X6286715Y4240000D02*
X6163286D01*
X6225001Y4178286D01*
X6286715Y4240000D01*
D02*
G37*
G36*
X6225001Y4150001D02*
D01*
D01*
D01*
D02*
G37*
G36*
X6315000Y4211716D02*
X6253285Y4150001D01*
X6315000Y4088286D01*
Y4211716D01*
D02*
G37*
G36*
X6135001Y4211716D02*
Y4088285D01*
X6196716Y4150001D01*
X6135001Y4211716D01*
D02*
G37*
G36*
X6225001Y4121717D02*
X6163284Y4060000D01*
X6286717D01*
X6225001Y4121717D01*
D02*
G37*
G36*
X7100001Y4271035D02*
X7068674Y4266911D01*
X7039483Y4254820D01*
X7014416Y4235585D01*
X6995181Y4210518D01*
X6983089Y4181326D01*
X6978965Y4150000D01*
X6983089Y4118674D01*
X6995181Y4089483D01*
X7014416Y4064415D01*
X7039483Y4045180D01*
X7068674Y4033089D01*
X7100001Y4028965D01*
X7131327Y4033089D01*
X7160518Y4045180D01*
X7185585Y4064415D01*
X7204820Y4089483D01*
X7216912Y4118674D01*
X7221036Y4150000D01*
X7216912Y4181326D01*
X7204820Y4210518D01*
X7185585Y4235585D01*
X7160518Y4254820D01*
X7131327Y4266911D01*
X7100001Y4271035D01*
D02*
G37*
G36*
X7161715Y3740000D02*
X7038285D01*
X7100000Y3678285D01*
X7161715Y3740000D01*
D02*
G37*
G36*
X7010001Y3711715D02*
Y3588285D01*
X7071716Y3650001D01*
X7010001Y3711715D01*
D02*
G37*
G36*
X7190000Y3711716D02*
X7128284Y3650001D01*
X7190000Y3588285D01*
Y3711716D01*
D02*
G37*
G36*
X7100000Y3621716D02*
X7038284Y3560000D01*
X7161716D01*
X7100000Y3621716D01*
D02*
G37*
G36*
X6225001Y3771035D02*
X6193674Y3766911D01*
X6164483Y3754820D01*
X6139416Y3735585D01*
X6120181Y3710518D01*
X6108089Y3681326D01*
X6103965Y3650000D01*
X6108089Y3618674D01*
X6120181Y3589483D01*
X6139416Y3564415D01*
X6164483Y3545180D01*
X6193674Y3533089D01*
X6225001Y3528965D01*
X6256327Y3533089D01*
X6285518Y3545180D01*
X6310585Y3564415D01*
X6329820Y3589483D01*
X6341912Y3618674D01*
X6346036Y3650000D01*
X6341912Y3681326D01*
X6329820Y3710518D01*
X6310585Y3735585D01*
X6285518Y3754820D01*
X6256327Y3766911D01*
X6225001Y3771035D01*
D02*
G37*
G36*
X6286716Y3240000D02*
X6163286D01*
X6225001Y3178285D01*
X6286716Y3240000D01*
D02*
G37*
G36*
X6315000Y3211715D02*
X6253285Y3150001D01*
X6315000Y3088286D01*
Y3211715D01*
D02*
G37*
G36*
X6135001Y3211716D02*
Y3088284D01*
X6196717Y3150001D01*
X6135001Y3211716D01*
D02*
G37*
G36*
X6225001Y3121716D02*
X6163285Y3060000D01*
X6286717D01*
X6225001Y3121716D01*
D02*
G37*
G36*
X7100001Y3271035D02*
X7068674Y3266911D01*
X7039483Y3254820D01*
X7014416Y3235585D01*
X6995181Y3210518D01*
X6983089Y3181326D01*
X6978965Y3150000D01*
X6983089Y3118674D01*
X6995181Y3089483D01*
X7014416Y3064415D01*
X7039483Y3045180D01*
X7068674Y3033089D01*
X7100001Y3028965D01*
X7131327Y3033089D01*
X7160518Y3045180D01*
X7185585Y3064415D01*
X7204820Y3089483D01*
X7216912Y3118674D01*
X7221036Y3150000D01*
X7216912Y3181326D01*
X7204820Y3210518D01*
X7185585Y3235585D01*
X7160518Y3254820D01*
X7131327Y3266911D01*
X7100001Y3271035D01*
D02*
G37*
G36*
X7161716Y2740000D02*
X7038285D01*
X7100001Y2678284D01*
X7161716Y2740000D01*
D02*
G37*
G36*
X7190000Y2711715D02*
X7128285Y2650000D01*
X7190000Y2588285D01*
Y2711715D01*
D02*
G37*
G36*
X7010001Y2711715D02*
Y2588284D01*
X7071716Y2650000D01*
X7010001Y2711715D01*
D02*
G37*
G36*
X7100001Y2621716D02*
X7038285Y2560000D01*
X7161716D01*
X7100001Y2621716D01*
D02*
G37*
G36*
X6225001Y2771035D02*
X6193674Y2766911D01*
X6164483Y2754820D01*
X6139416Y2735585D01*
X6120181Y2710518D01*
X6108089Y2681326D01*
X6103965Y2650000D01*
X6108089Y2618674D01*
X6120181Y2589483D01*
X6139416Y2564415D01*
X6164483Y2545180D01*
X6193674Y2533089D01*
X6225001Y2528965D01*
X6256327Y2533089D01*
X6285518Y2545180D01*
X6310585Y2564415D01*
X6329820Y2589483D01*
X6341912Y2618674D01*
X6346036Y2650000D01*
X6341912Y2681326D01*
X6329820Y2710518D01*
X6310585Y2735585D01*
X6285518Y2754820D01*
X6256327Y2766911D01*
X6225001Y2771035D01*
D02*
G37*
G36*
X6286716Y2240000D02*
X6163286D01*
X6225001Y2178285D01*
X6286716Y2240000D01*
D02*
G37*
G36*
X6315000Y2211715D02*
X6253285Y2150001D01*
X6315000Y2088286D01*
Y2211715D01*
D02*
G37*
G36*
X6135001Y2211716D02*
Y2088284D01*
X6196717Y2150001D01*
X6135001Y2211716D01*
D02*
G37*
G36*
X6225001Y2121716D02*
X6163285Y2060000D01*
X6286717D01*
X6225001Y2121716D01*
D02*
G37*
G36*
X7100001Y2271035D02*
X7068674Y2266911D01*
X7039483Y2254820D01*
X7014416Y2235585D01*
X6995181Y2210518D01*
X6983089Y2181326D01*
X6978965Y2150000D01*
X6983089Y2118674D01*
X6995181Y2089482D01*
X7014416Y2064415D01*
X7039483Y2045180D01*
X7068674Y2033089D01*
X7100001Y2028965D01*
X7131327Y2033089D01*
X7160518Y2045180D01*
X7185585Y2064415D01*
X7204820Y2089482D01*
X7216912Y2118674D01*
X7221036Y2150000D01*
X7216912Y2181326D01*
X7204820Y2210518D01*
X7185585Y2235585D01*
X7160518Y2254820D01*
X7131327Y2266911D01*
X7100001Y2271035D01*
D02*
G37*
G36*
X7161716Y1740000D02*
X7038285D01*
X7100001Y1678284D01*
X7161716Y1740000D01*
D02*
G37*
G36*
X7190000Y1711715D02*
X7128285Y1650000D01*
X7190000Y1588285D01*
Y1711715D01*
D02*
G37*
G36*
X7010001Y1711715D02*
Y1588284D01*
X7071716Y1650000D01*
X7010001Y1711715D01*
D02*
G37*
G36*
X7100001Y1621716D02*
X7038285Y1560000D01*
X7161716D01*
X7100001Y1621716D01*
D02*
G37*
%LPD*%
D16*
X2325000Y5875000D02*
X2915000D01*
X3125000Y6085000D02*
Y6150000D01*
X2915000Y5875000D02*
X3125000Y6085000D01*
X4160001Y3800000D02*
X4670002D01*
X4730000Y3680000D02*
Y3740002D01*
X4670002Y3800000D02*
X4730000Y3740002D01*
X4050001Y3910000D02*
X4160001Y3800000D01*
X2625000Y6100000D02*
Y6450000D01*
X2500000Y6575000D02*
X2625000Y6450000D01*
D17*
X2720000Y1940000D02*
X2847500D01*
X2210000Y6570525D02*
Y6660000D01*
X2275000Y6725000D02*
X3433995D01*
X2210000Y6660000D02*
X2275000Y6725000D01*
X2225000Y6825000D02*
X3533995D01*
X2120000Y6720000D02*
X2225000Y6825000D01*
X2120000Y6607804D02*
Y6720000D01*
X2187722Y6915000D02*
X3571274D01*
X2030000Y6645083D02*
Y6757279D01*
X2187722Y6915000D01*
X1675000Y6150000D02*
Y6393991D01*
X1525001Y6000000D02*
X1675000Y6150000D01*
X1716006Y6434996D02*
X1947193D01*
X1675000Y6393991D02*
X1716006Y6434996D01*
X1740087Y6524996D02*
X1909914D01*
X1350000Y6483995D02*
X1391006Y6525000D01*
X1740083D01*
X1740087Y6524996D01*
X1350000Y5975000D02*
Y6483995D01*
X1909914Y6524996D02*
X2030000Y6645083D01*
X1956000Y6231000D02*
Y6316525D01*
X1947193Y6434996D02*
X2120000Y6607804D01*
X1956000Y6316525D02*
X2210000Y6570525D01*
X3725000Y6575002D02*
Y6761274D01*
Y6575002D02*
X3861061Y6438942D01*
Y6191060D02*
Y6438942D01*
X3571274Y6915000D02*
X3725000Y6761274D01*
X3902121Y6150000D02*
X4175001D01*
X3861061Y6191060D02*
X3902121Y6150000D01*
X1456001Y5869000D02*
X1994001D01*
X1350000Y5975000D02*
X1456001Y5869000D01*
X1994001D02*
X2125001Y6000000D01*
X4175001Y6150000D02*
X4325000Y6000001D01*
X3575000Y6100003D02*
Y6783995D01*
X3533995Y6825000D02*
X3575000Y6783995D01*
X3475000Y6025000D02*
Y6683995D01*
X3433995Y6725000D02*
X3475000Y6683995D01*
X3709311Y6015691D02*
X3725000Y6000001D01*
X3659312Y6015691D02*
X3709311D01*
X3575000Y6100003D02*
X3659312Y6015691D01*
X3881250Y5856250D02*
X4025000Y6000001D01*
X3643750Y5856250D02*
X3881250D01*
X3475000Y6025000D02*
X3643750Y5856250D01*
X1825000Y6000000D02*
X1832987Y6007986D01*
Y6107987D02*
X1956000Y6231000D01*
X1832987Y6007986D02*
Y6107987D01*
D18*
X5200000Y2600000D02*
Y2795000D01*
Y2600000D02*
X5200000Y2600000D01*
X5000000D02*
X5000001Y2790000D01*
X5400000Y2600000D02*
X5400001Y2790000D01*
X3320000Y4150000D02*
X3870000D01*
X3220000Y4250000D02*
X3320000Y4150000D01*
X3870000D02*
X3980000Y4040000D01*
X4670000D01*
X4170000Y3450000D02*
X4310001D01*
X4150000Y3430000D02*
X4170000Y3450000D01*
X4150000Y1615147D02*
Y3430000D01*
X4310001Y3450000D02*
X4540000Y3680000D01*
X4730000D01*
X4185148Y1580000D02*
X4280000D01*
X4150000Y1615147D02*
X4185148Y1580000D01*
D21*
X200000Y5600000D02*
D03*
Y4900000D02*
D03*
Y3500000D02*
D03*
Y2800000D02*
D03*
Y4200000D02*
D03*
D22*
X6225001Y4650000D02*
D03*
X7100001Y3150000D02*
D03*
Y2150000D02*
D03*
X6225001Y3650000D02*
D03*
X7100001Y4150000D02*
D03*
X6225001Y1650000D02*
D03*
Y2650000D02*
D03*
D23*
Y4150000D02*
D03*
X7100001Y2650000D02*
D03*
Y1650000D02*
D03*
X6225001Y3150000D02*
D03*
X7100001Y3650000D02*
D03*
X6225001Y1150000D02*
D03*
Y2150000D02*
D03*
D24*
X940001Y1310000D02*
D03*
X620001D02*
D03*
X700001Y1490000D02*
D03*
X780001Y1310000D02*
D03*
X860001Y1490000D02*
D03*
D25*
X1200001Y1390000D02*
D03*
X360001D02*
D03*
D26*
X1904001Y826500D02*
D03*
X1396001Y724900D02*
D03*
Y928100D02*
D03*
D27*
X2875000Y6100000D02*
D03*
X2825000Y6175000D02*
D03*
X2925000D02*
D03*
Y6025000D02*
D03*
X2825000D02*
D03*
X2490000Y4680000D02*
D03*
X2440000Y4755000D02*
D03*
X2540000D02*
D03*
Y4605000D02*
D03*
X2440000D02*
D03*
D28*
X8939001Y5405000D02*
D03*
Y1595000D02*
D03*
D29*
X8587001Y4643000D02*
D03*
X7825001D02*
D03*
X8587001Y3881000D02*
D03*
X7825001D02*
D03*
Y2357000D02*
D03*
X8587001D02*
D03*
X7825001Y3119000D02*
D03*
X8587001D02*
D03*
D30*
X5800000Y6425000D02*
D03*
X8050000D02*
D03*
D31*
X7095776Y4572202D02*
D03*
X6354225Y5727798D02*
D03*
D32*
X4025000Y6729997D02*
D03*
X1825000Y6729996D02*
D03*
D33*
X3725000Y6300000D02*
D03*
X1525001Y6300000D02*
D03*
D34*
X4025000Y6300000D02*
D03*
X4325000D02*
D03*
X3725000Y6000001D02*
D03*
X4025000D02*
D03*
X4325000D02*
D03*
X2125001Y6000000D02*
D03*
X1825000D02*
D03*
X1525001D02*
D03*
X2125000Y6300000D02*
D03*
X1825000D02*
D03*
D35*
X8006000Y525000D02*
D03*
X7244000D02*
D03*
Y271000D02*
D03*
X8006000Y779000D02*
D03*
X7244000D02*
D03*
X8006000Y271000D02*
D03*
D36*
X5023000Y6881000D02*
D03*
X5277000D02*
D03*
Y6119000D02*
D03*
X5023000D02*
D03*
D37*
X500000Y500000D02*
D03*
Y6500000D02*
D03*
X8900000D02*
D03*
Y500000D02*
D03*
D38*
X2320000Y620000D02*
D03*
X6175001Y625000D02*
D03*
D39*
X7025000Y5725000D02*
D03*
D40*
X3125000Y5975000D02*
D03*
X4740000Y3680000D02*
D03*
X1690000Y4060000D02*
D03*
X2240000D02*
D03*
X5000000Y2665000D02*
D03*
Y2795000D02*
D03*
X5400000D02*
D03*
Y2665000D02*
D03*
X5200000Y2795000D02*
D03*
Y2730000D02*
D03*
Y2665000D02*
D03*
X2115001Y2220000D02*
D03*
X2415001D02*
D03*
Y2520000D02*
D03*
X2115001D02*
D03*
X2320000Y4230000D02*
D03*
X2249990Y4679998D02*
D03*
X2847500Y2090000D02*
D03*
X1392960Y2767500D02*
D03*
X1030000Y2790000D02*
D03*
Y2930000D02*
D03*
X1650001Y3020000D02*
D03*
X1480000Y3030000D02*
D03*
X2090000Y2930000D02*
D03*
X1970000Y2830000D02*
D03*
X1810000D02*
D03*
X1380000Y2630000D02*
D03*
X900000Y2860000D02*
D03*
X1710000Y1800000D02*
D03*
X2120000Y1440000D02*
D03*
X1650001Y670000D02*
D03*
Y970000D02*
D03*
X3000000Y1050000D02*
D03*
X2930001Y1315000D02*
D03*
X2739989Y1380004D02*
D03*
X2789989Y1290005D02*
D03*
X2542730Y1442730D02*
D03*
X2639989Y1287500D02*
D03*
X2452500Y1327270D02*
D03*
X5400000Y2730000D02*
D03*
X5000000D02*
D03*
Y2600000D02*
D03*
X4140000Y5010000D02*
D03*
X4290000Y5000000D02*
D03*
X3990000Y4240000D02*
D03*
X3830000D02*
D03*
X3660000D02*
D03*
X3630000Y4050000D02*
D03*
X3100000Y4480000D02*
D03*
X2570000Y3410000D02*
D03*
X2420000D02*
D03*
X3220000Y2240000D02*
D03*
Y2390000D02*
D03*
X4860000Y990000D02*
D03*
X900000Y3000000D02*
D03*
X3290001Y2160000D02*
D03*
X3319988Y1910003D02*
D03*
X3300001Y2030000D02*
D03*
X3620000Y2730000D02*
D03*
X3750000Y2870000D02*
D03*
X2350000Y980000D02*
D03*
X400000Y5420000D02*
D03*
X200000Y4640000D02*
D03*
Y3940000D02*
D03*
X370001Y2580000D02*
D03*
X200000Y3240000D02*
D03*
X640000Y2650000D02*
D03*
X4730000Y5360000D02*
D03*
X4650000Y5060000D02*
D03*
X4495000Y5370000D02*
D03*
X3490000Y4760000D02*
D03*
Y4560000D02*
D03*
Y4360000D02*
D03*
X1380000Y4090000D02*
D03*
X2690000Y3190000D02*
D03*
X2369990Y2820001D02*
D03*
X1630000Y3640000D02*
D03*
X7040000Y6600000D02*
D03*
Y6520000D02*
D03*
X6960000D02*
D03*
Y6360000D02*
D03*
Y6440000D02*
D03*
X7040000Y6360000D02*
D03*
Y6440000D02*
D03*
X6960000Y6280000D02*
D03*
X7040000Y6200000D02*
D03*
Y6280000D02*
D03*
X7200000Y6600000D02*
D03*
Y6520000D02*
D03*
X7120000Y6600000D02*
D03*
Y6520000D02*
D03*
Y6360000D02*
D03*
Y6440000D02*
D03*
X7200000Y6360000D02*
D03*
Y6440000D02*
D03*
X7120000Y6200000D02*
D03*
Y6280000D02*
D03*
X7200000Y6200000D02*
D03*
Y6280000D02*
D03*
X7360001Y6280000D02*
D03*
Y6200000D02*
D03*
X7280000Y6280000D02*
D03*
Y6200000D02*
D03*
X7360001Y6440000D02*
D03*
Y6360000D02*
D03*
X7280000Y6440000D02*
D03*
Y6360000D02*
D03*
Y6520000D02*
D03*
Y6600000D02*
D03*
X7360001Y6520000D02*
D03*
X5750000Y5290000D02*
D03*
X2860000Y4160000D02*
D03*
X2648662Y4035287D02*
D03*
X5970001Y2530000D02*
D03*
X4570001Y4170000D02*
D03*
X4260000Y3930000D02*
D03*
X4420000Y4130000D02*
D03*
X4310001Y3680500D02*
D03*
X4130000Y3450000D02*
D03*
X2879038Y629038D02*
D03*
X4280000Y1580000D02*
D03*
X6620000Y340000D02*
D03*
X4360000Y2310000D02*
D03*
Y2230000D02*
D03*
X2150001Y1140000D02*
D03*
X3220000Y1940000D02*
D03*
X3230000Y1610000D02*
D03*
X3140000Y1630000D02*
D03*
X2847500Y1940000D02*
D03*
X2850000Y2660000D02*
D03*
X3000000Y1380000D02*
D03*
X2860000D02*
D03*
X1760000Y1230000D02*
D03*
X1810000Y1350000D02*
D03*
X1850000Y1440000D02*
D03*
X2260000Y1440000D02*
D03*
X2550000Y1810000D02*
D03*
X2190000Y1230000D02*
D03*
X2395000Y1440000D02*
D03*
X1427390Y1861305D02*
D03*
X1509991Y1910003D02*
D03*
X1756021Y2078521D02*
D03*
X2260000Y1840000D02*
D03*
X3010001Y930000D02*
D03*
X2964980Y3419520D02*
D03*
X2960000Y2990000D02*
D03*
X3370000Y3770000D02*
D03*
X3070000Y3420000D02*
D03*
X2060000Y590000D02*
D03*
X1260001Y280000D02*
D03*
Y600000D02*
D03*
X1600000Y590000D02*
D03*
X1720000D02*
D03*
X2060000Y290000D02*
D03*
X2797500Y2370000D02*
D03*
X1850000Y1800000D02*
D03*
X5750000Y4150000D02*
D03*
Y4050000D02*
D03*
Y3950000D02*
D03*
X5850000Y4150000D02*
D03*
Y4050000D02*
D03*
Y3950000D02*
D03*
Y4250000D02*
D03*
X5750000D02*
D03*
X4050001Y3910000D02*
D03*
X4190001Y1420000D02*
D03*
X4520000D02*
D03*
X4530000Y2810000D02*
D03*
X4560001Y3150000D02*
D03*
X4790000Y3230000D02*
D03*
X2759988Y2640001D02*
D03*
X4670000Y4040000D02*
D03*
X4730000Y3940000D02*
D03*
X3220000Y4250000D02*
D03*
X3875000Y4930000D02*
D03*
X5060000Y6630000D02*
D03*
X4210000Y5100000D02*
D03*
X3980000Y5260000D02*
D03*
X4055001D02*
D03*
X3710000D02*
D03*
X3530000Y3780000D02*
D03*
X2680000Y2890000D02*
D03*
X2150001Y5430000D02*
D03*
X1970000Y5020000D02*
D03*
X2150001D02*
D03*
X1970000Y4880000D02*
D03*
X2299541Y3025000D02*
D03*
X1380000Y4250000D02*
D03*
X910000Y4320000D02*
D03*
X180000Y1990000D02*
D03*
Y2140000D02*
D03*
Y2290000D02*
D03*
Y2440000D02*
D03*
X550000Y1980000D02*
D03*
X800000Y2210000D02*
D03*
X900000Y2330000D02*
D03*
X550000Y2157500D02*
D03*
X200000Y5330000D02*
D03*
X3380000Y2890000D02*
D03*
X3100000Y4650000D02*
D03*
X2740000Y4800000D02*
D03*
X3100000D02*
D03*
X2730000Y4480000D02*
D03*
X1160000Y2380000D02*
D03*
Y2220000D02*
D03*
X960000Y1960000D02*
D03*
X1360000Y2020000D02*
D03*
X1290000Y1920000D02*
D03*
X760001Y1760000D02*
D03*
X940000D02*
D03*
X3220000Y2090000D02*
D03*
X2827488Y2550000D02*
D03*
X1489741Y979740D02*
D03*
X1590000Y2270000D02*
D03*
X1430000Y2222500D02*
D03*
X2318640Y6551361D02*
D03*
X1470000Y5250000D02*
D03*
X1370000Y4970000D02*
D03*
X1380000Y2480000D02*
D03*
X1750000Y2510000D02*
D03*
X1800714Y2651263D02*
D03*
X1990000Y5430000D02*
D03*
X3670001Y4625000D02*
D03*
X3780001Y4620824D02*
D03*
X3340001Y940000D02*
D03*
X1780000Y3140000D02*
D03*
X2840000Y2450000D02*
D03*
X3220000Y2540000D02*
D03*
X1850001Y965000D02*
D03*
X1500001Y665000D02*
D03*
X1850001Y690000D02*
D03*
X2325000Y5875000D02*
D03*
X1200000Y5150000D02*
D03*
X3375000Y6075000D02*
D03*
X3125000Y6150000D02*
D03*
X3275000Y6625000D02*
D03*
X4275000Y6750000D02*
D03*
X2625000Y6100000D02*
D03*
X2500000Y6575000D02*
D03*
X3675000Y4930000D02*
D03*
X3490000Y4660000D02*
D03*
Y4460000D02*
D03*
X4850000Y4250000D02*
D03*
X4950001D02*
D03*
X5050001D02*
D03*
X5150000D02*
D03*
X5250000D02*
D03*
X5350000D02*
D03*
X5450001D02*
D03*
X5550001D02*
D03*
X5650000D02*
D03*
X5200000Y2100000D02*
D03*
X5100000D02*
D03*
X5000000D02*
D03*
Y2000000D02*
D03*
Y1900000D02*
D03*
Y1800000D02*
D03*
X5650000Y3950000D02*
D03*
Y4050000D02*
D03*
Y4150000D02*
D03*
X5550001Y3950000D02*
D03*
Y4050000D02*
D03*
Y4150000D02*
D03*
X5450001Y3950000D02*
D03*
Y4050000D02*
D03*
Y4150000D02*
D03*
X5350000Y3950000D02*
D03*
Y4050000D02*
D03*
Y4150000D02*
D03*
X5250000Y3950000D02*
D03*
Y4050000D02*
D03*
Y4150000D02*
D03*
X5150000Y3950000D02*
D03*
Y4050000D02*
D03*
Y4150000D02*
D03*
X5050001Y3950000D02*
D03*
Y4050000D02*
D03*
Y4150000D02*
D03*
X4950001Y3950000D02*
D03*
Y4050000D02*
D03*
Y4150000D02*
D03*
X4850000Y3950000D02*
D03*
Y4050000D02*
D03*
Y4150000D02*
D03*
X5400000Y2600000D02*
D03*
X5200000D02*
D03*
X5100000Y2000000D02*
D03*
Y1800000D02*
D03*
Y1900000D02*
D03*
X5600000Y1700000D02*
D03*
Y1800000D02*
D03*
Y1900000D02*
D03*
X5500000Y1800000D02*
D03*
Y1900000D02*
D03*
Y2000000D02*
D03*
X5200000Y1800000D02*
D03*
Y1900000D02*
D03*
Y2000000D02*
D03*
X5400000Y1800000D02*
D03*
Y1900000D02*
D03*
Y2000000D02*
D03*
X5300000D02*
D03*
Y1900000D02*
D03*
Y1800000D02*
D03*
D41*
X4495000Y5400000D02*
Y5430000D01*
X4495000Y5370000D02*
Y5400000D01*
Y5430000D02*
X4630772D01*
X3880001D02*
X4490000D01*
X5520000Y5980000D02*
X5800000Y6260000D01*
Y6425000D01*
X5334990Y5979000D02*
X5335990Y5980000D01*
X5520000D01*
X4790000Y5790000D02*
X4979000Y5979000D01*
X5334990D01*
X4790000Y5589229D02*
Y5790000D01*
X4630772Y5430000D02*
X4790000Y5589229D01*
X3820000Y5370000D02*
X3820001D01*
X3880001Y5430000D01*
X3710000Y5260000D02*
X3820000Y5370000D01*
%TF.MD5,675855e22d7956b11be15c7e96fe1578*%
M02*
